<?xml version="1.0" encoding="utf-8" standalone="no"?>
<!DOCTYPE svg PUBLIC "-//W3C//DTD SVG 1.1//EN"
  "http://www.w3.org/Graphics/SVG/1.1/DTD/svg11.dtd">
<svg xmlns:xlink="http://www.w3.org/1999/xlink" width="576pt" height="288pt" viewBox="0 0 576 288" xmlns="http://www.w3.org/2000/svg" version="1.1">
 <metadata>
  <rdf:RDF xmlns:dc="http://purl.org/dc/elements/1.1/" xmlns:cc="http://creativecommons.org/ns#" xmlns:rdf="http://www.w3.org/1999/02/22-rdf-syntax-ns#">
   <cc:Work>
    <dc:type rdf:resource="http://purl.org/dc/dcmitype/StillImage"/>
    <dc:date>2024-09-24T18:45:14.100499</dc:date>
    <dc:format>image/svg+xml</dc:format>
    <dc:creator>
     <cc:Agent>
      <dc:title>Matplotlib v3.7.4, https://matplotlib.org/</dc:title>
     </cc:Agent>
    </dc:creator>
   </cc:Work>
  </rdf:RDF>
 </metadata>
 <defs>
  <style type="text/css">*{stroke-linejoin: round; stroke-linecap: butt}</style>
 </defs>
 <g id="figure_1">
  <g id="patch_1">
   <path d="M 0 288 
L 576 288 
L 576 0 
L 0 0 
z
" style="fill: #ffffff"/>
  </g>
  <g id="axes_1">
   <g id="line2d_1">
    <path d="M 15 233.76 
L 106.011375 233.677022 
L 106.648375 229.869611 
L 107.38775 226.772913 
L 108.309125 223.879823 
L 109.93575 219.648898 
L 111.16425 216.170406 
L 111.93775 213.304776 
L 112.552 210.170381 
L 113.07525 206.284768 
L 113.518875 201.196866 
L 113.89425 194.117887 
L 114.21275 183.437744 
L 114.474375 166.203839 
L 114.679125 136.289872 
L 114.827 81.143798 
L 114.838375 257.124463 
L 114.94075 255.4319 
L 115.89625 240.991094 
L 116.521875 235.048792 
L 117.181625 230.818642 
L 117.921 227.498045 
L 118.80825 224.550806 
L 120.105 221.088085 
L 121.7885 216.519253 
L 122.596125 213.62581 
L 123.233125 210.486948 
L 123.756375 206.756064 
L 124.2 201.939836 
L 124.575375 195.366198 
L 124.893875 185.720366 
L 125.1555 170.814383 
L 125.371625 144.713576 
L 125.54225 91.868065 
L 125.553625 85.57872 
L 125.565 257.123663 
L 125.667375 255.425371 
L 126.622875 240.978517 
L 127.2485 235.039787 
L 127.90825 230.812288 
L 128.647625 227.493427 
L 129.534875 224.547246 
L 130.831625 221.085009 
L 132.515125 216.515454 
L 133.32275 213.620746 
L 133.95975 210.479805 
L 134.483 206.745495 
L 134.926625 201.923305 
L 135.302 195.338724 
L 135.6205 185.670939 
L 135.882125 170.717115 
L 136.09825 144.49114 
L 136.2575 97.005646 
L 136.28025 84.870709 
L 136.291625 257.123792 
L 136.394 255.426423 
L 137.3495 240.980543 
L 137.975125 235.041238 
L 138.634875 230.813312 
L 139.37425 227.494172 
L 140.2615 224.54782 
L 141.55825 221.085505 
L 143.24175 216.516067 
L 144.049375 213.621563 
L 144.686375 210.480957 
L 145.209625 206.747199 
L 145.65325 201.925971 
L 146.028625 195.343156 
L 146.347125 185.678915 
L 146.60875 170.732819 
L 146.824875 144.527083 
L 146.984125 97.1005 
L 147.006875 84.985345 
L 147.01825 257.123771 
L 147.120625 255.426253 
L 148.076125 240.980216 
L 148.70175 235.041003 
L 149.3615 230.813146 
L 150.100875 227.494051 
L 150.988125 224.547727 
L 152.284875 221.085425 
L 153.968375 216.515968 
L 154.776 213.621431 
L 155.413 210.480771 
L 155.93625 206.746924 
L 156.379875 201.92554 
L 156.75525 195.34244 
L 157.07375 185.677626 
L 157.335375 170.730281 
L 157.5515 144.521275 
L 157.71075 97.085176 
L 157.7335 84.966826 
L 157.744875 257.123775 
L 157.84725 255.426281 
L 158.80275 240.980268 
L 159.428375 235.041041 
L 160.088125 230.813173 
L 160.8275 227.494071 
L 161.71475 224.547742 
L 163.0115 221.085437 
L 164.695 216.515984 
L 165.502625 213.621452 
L 166.139625 210.480801 
L 166.662875 206.746968 
L 167.1065 201.92561 
L 167.481875 195.342555 
L 167.800375 185.677835 
L 168.062 170.730691 
L 168.278125 144.522213 
L 168.437375 97.087652 
L 168.460125 84.969819 
L 168.4715 257.123774 
L 168.573875 255.426276 
L 169.529375 240.98026 
L 170.155 235.041035 
L 170.81475 230.813169 
L 171.554125 227.494068 
L 172.441375 224.54774 
L 173.738125 221.085435 
L 175.421625 216.515981 
L 176.22925 213.621449 
L 176.86625 210.480796 
L 177.3895 206.746961 
L 177.833125 201.925599 
L 178.2085 195.342537 
L 178.527 185.677801 
L 178.788625 170.730625 
L 179.00475 144.522061 
L 179.164 97.087252 
L 179.18675 84.969335 
L 179.198125 257.123774 
L 179.3005 255.426277 
L 180.256 240.980261 
L 180.881625 235.041036 
L 181.541375 230.813169 
L 182.28075 227.494068 
L 183.168 224.54774 
L 184.46475 221.085436 
L 186.14825 216.515981 
L 186.955875 213.621449 
L 187.592875 210.480797 
L 188.116125 206.746962 
L 188.55975 201.9256 
L 188.935125 195.34254 
L 189.253625 185.677806 
L 189.51525 170.730636 
L 189.731375 144.522086 
L 189.890625 97.087317 
L 189.913375 84.969414 
L 189.92475 257.123774 
L 190.027125 255.426277 
L 190.982625 240.980261 
L 191.60825 235.041036 
L 192.268 230.813169 
L 193.007375 227.494068 
L 193.894625 224.54774 
L 195.191375 221.085436 
L 196.874875 216.515981 
L 197.6825 213.621449 
L 198.3195 210.480797 
L 198.84275 206.746962 
L 199.286375 201.9256 
L 199.66175 195.342539 
L 199.98025 185.677806 
L 200.241875 170.730634 
L 200.458 144.522082 
L 200.61725 97.087306 
L 200.64 84.969401 
L 200.651375 257.123774 
L 200.75375 255.426277 
L 201.70925 240.980261 
L 202.334875 235.041036 
L 202.994625 230.813169 
L 203.734 227.494068 
L 204.62125 224.54774 
L 205.918 221.085436 
L 207.6015 216.515981 
L 208.409125 213.621449 
L 209.046125 210.480797 
L 209.569375 206.746962 
L 210.013 201.9256 
L 210.388375 195.342539 
L 210.706875 185.677806 
L 210.9685 170.730634 
L 211.184625 144.522083 
L 211.343875 97.087308 
L 211.366625 84.969403 
L 211.378 257.123774 
L 211.480375 255.426277 
L 212.435875 240.980261 
L 213.0615 235.041036 
L 213.72125 230.813169 
L 214.460625 227.494068 
L 215.347875 224.54774 
L 216.644625 221.085436 
L 218.328125 216.515981 
L 219.13575 213.621449 
L 219.77275 210.480797 
L 220.296 206.746962 
L 220.739625 201.9256 
L 221.115 195.342539 
L 221.4335 185.677806 
L 221.695125 170.730634 
L 221.91125 144.522083 
L 222.0705 97.087308 
L 222.09325 84.969403 
L 222.104625 257.123774 
L 222.207 255.426277 
L 223.1625 240.980261 
L 223.788125 235.041036 
L 224.447875 230.813169 
L 225.18725 227.494068 
L 226.0745 224.54774 
L 227.37125 221.085436 
L 229.05475 216.515981 
L 229.862375 213.621449 
L 230.499375 210.480797 
L 231.022625 206.746962 
L 231.46625 201.9256 
L 231.841625 195.342539 
L 232.160125 185.677806 
L 232.42175 170.730634 
L 232.637875 144.522083 
L 232.797125 97.087308 
L 232.819875 84.969403 
L 232.83125 257.123774 
L 232.933625 255.426277 
L 233.889125 240.980261 
L 234.51475 235.041036 
L 235.1745 230.813169 
L 235.913875 227.494068 
L 236.801125 224.54774 
L 238.097875 221.085436 
L 239.781375 216.515981 
L 240.589 213.621449 
L 241.226 210.480797 
L 241.74925 206.746962 
L 242.192875 201.9256 
L 242.56825 195.342539 
L 242.88675 185.677806 
L 243.148375 170.730634 
L 243.3645 144.522083 
L 243.52375 97.087308 
L 243.5465 84.969403 
L 243.557875 257.123774 
L 243.66025 255.426277 
L 244.61575 240.980261 
L 245.241375 235.041036 
L 245.901125 230.813169 
L 246.6405 227.494068 
L 247.52775 224.54774 
L 248.8245 221.085436 
L 250.508 216.515981 
L 251.315625 213.621449 
L 251.952625 210.480797 
L 252.475875 206.746962 
L 252.9195 201.9256 
L 253.294875 195.342539 
L 253.613375 185.677806 
L 253.875 170.730634 
L 254.091125 144.522083 
L 254.250375 97.087308 
L 254.273125 84.969403 
L 254.2845 257.123774 
L 254.386875 255.426277 
L 255.342375 240.980261 
L 255.968 235.041036 
L 256.62775 230.813169 
L 257.367125 227.494068 
L 258.254375 224.54774 
L 259.551125 221.085436 
L 261.234625 216.515981 
L 262.04225 213.621449 
L 262.67925 210.480797 
L 263.2025 206.746962 
L 263.646125 201.9256 
L 264.0215 195.342539 
L 264.34 185.677806 
L 264.601625 170.730634 
L 264.81775 144.522083 
L 264.977 97.087308 
L 264.99975 84.969403 
L 265.011125 257.123774 
L 265.1135 255.426277 
L 266.069 240.980261 
L 266.694625 235.041036 
L 267.354375 230.813169 
L 268.09375 227.494068 
L 268.981 224.54774 
L 270.27775 221.085436 
L 271.96125 216.515981 
L 272.768875 213.621449 
L 273.405875 210.480797 
L 273.929125 206.746962 
L 274.37275 201.9256 
L 274.748125 195.342539 
L 275.066625 185.677806 
L 275.32825 170.730634 
L 275.544375 144.522083 
L 275.703625 97.087308 
L 275.726375 84.969403 
L 275.73775 257.123774 
L 275.840125 255.426277 
L 276.795625 240.980261 
L 277.42125 235.041036 
L 278.081 230.813169 
L 278.820375 227.494068 
L 279.707625 224.54774 
L 281.004375 221.085436 
L 282.687875 216.515981 
L 283.4955 213.621449 
L 284.1325 210.480797 
L 284.65575 206.746962 
L 285.099375 201.9256 
L 285.47475 195.342539 
L 285.79325 185.677806 
L 286.054875 170.730634 
L 286.271 144.522083 
L 286.43025 97.087308 
L 286.453 84.969403 
L 286.464375 257.123774 
L 286.56675 255.426277 
L 287.52225 240.980261 
L 288.147875 235.041036 
L 288.807625 230.813169 
L 289.547 227.494068 
L 290.43425 224.54774 
L 291.731 221.085436 
L 293.4145 216.515981 
L 294.222125 213.621449 
L 294.859125 210.480797 
L 295.382375 206.746962 
L 295.826 201.9256 
L 296.201375 195.342539 
L 296.519875 185.677806 
L 296.7815 170.730634 
L 296.997625 144.522083 
L 297.156875 97.087308 
L 297.179625 84.969403 
L 297.191 257.123774 
L 297.293375 255.426277 
L 298.248875 240.980261 
L 298.8745 235.041036 
L 299.53425 230.813169 
L 300.273625 227.494068 
L 301.160875 224.54774 
L 302.457625 221.085436 
L 304.141125 216.515981 
L 304.94875 213.621449 
L 305.58575 210.480797 
L 306.109 206.746962 
L 306.552625 201.9256 
L 306.928 195.342539 
L 307.2465 185.677806 
L 307.508125 170.730634 
L 307.72425 144.522083 
L 307.8835 97.087308 
L 307.90625 84.969403 
L 307.917625 257.123774 
L 308.02 255.426277 
L 308.9755 240.980261 
L 309.601125 235.041036 
L 310.260875 230.813169 
L 311.00025 227.494068 
L 311.8875 224.54774 
L 313.18425 221.085436 
L 314.86775 216.515981 
L 315.675375 213.621449 
L 316.312375 210.480797 
L 316.835625 206.746962 
L 317.27925 201.9256 
L 317.654625 195.342539 
L 317.973125 185.677806 
L 318.23475 170.730634 
L 318.450875 144.522083 
L 318.610125 97.087308 
L 318.632875 84.969403 
L 318.64425 257.123774 
L 318.746625 255.426277 
L 319.702125 240.980261 
L 320.32775 235.041036 
L 320.9875 230.813169 
L 321.726875 227.494068 
L 322.614125 224.54774 
L 323.910875 221.085436 
L 325.594375 216.515981 
L 326.402 213.621449 
L 327.039 210.480797 
L 327.56225 206.746962 
L 328.005875 201.9256 
L 328.38125 195.342539 
L 328.69975 185.677806 
L 328.961375 170.730634 
L 329.1775 144.522083 
L 329.33675 97.087308 
L 329.3595 84.969403 
L 329.370875 257.123774 
L 329.47325 255.426277 
L 330.42875 240.980261 
L 331.054375 235.041036 
L 331.714125 230.813169 
L 332.4535 227.494068 
L 333.34075 224.54774 
L 334.6375 221.085436 
L 336.321 216.515981 
L 337.128625 213.621449 
L 337.765625 210.480797 
L 338.288875 206.746962 
L 338.7325 201.9256 
L 339.107875 195.342539 
L 339.426375 185.677806 
L 339.688 170.730634 
L 339.904125 144.522083 
L 340.063375 97.087308 
L 340.086125 84.969403 
L 340.0975 257.123774 
L 340.199875 255.426277 
L 341.155375 240.980261 
L 341.781 235.041036 
L 342.44075 230.813169 
L 343.180125 227.494068 
L 344.067375 224.54774 
L 345.364125 221.085436 
L 347.047625 216.515981 
L 347.85525 213.621449 
L 348.49225 210.480797 
L 349.0155 206.746962 
L 349.459125 201.9256 
L 349.8345 195.342539 
L 350.153 185.677806 
L 350.414625 170.730634 
L 350.63075 144.522083 
L 350.79 97.087308 
L 350.81275 84.969403 
L 350.824125 257.123774 
L 350.9265 255.426277 
L 351.882 240.980261 
L 352.507625 235.041036 
L 353.167375 230.813169 
L 353.90675 227.494068 
L 354.794 224.54774 
L 356.09075 221.085436 
L 357.77425 216.515981 
L 358.581875 213.621449 
L 359.218875 210.480797 
L 359.742125 206.746962 
L 360.18575 201.9256 
L 360.561125 195.342539 
L 360.879625 185.677806 
L 361.14125 170.730634 
L 361.357375 144.522083 
L 361.516625 97.087308 
L 361.539375 84.969403 
L 361.55075 257.123774 
L 361.653125 255.426277 
L 362.608625 240.980261 
L 363.23425 235.041036 
L 363.894 230.813169 
L 364.633375 227.494068 
L 365.520625 224.54774 
L 366.817375 221.085436 
L 368.500875 216.515981 
L 369.3085 213.621449 
L 369.9455 210.480797 
L 370.46875 206.746962 
L 370.912375 201.9256 
L 371.28775 195.342539 
L 371.60625 185.677806 
L 371.867875 170.730634 
L 372.084 144.522083 
L 372.24325 97.087308 
L 372.266 84.969403 
L 372.277375 257.123774 
L 372.37975 255.426277 
L 373.33525 240.980261 
L 373.960875 235.041036 
L 374.620625 230.813169 
L 375.36 227.494068 
L 376.24725 224.54774 
L 377.544 221.085436 
L 379.2275 216.515981 
L 380.035125 213.621449 
L 380.672125 210.480797 
L 381.195375 206.746962 
L 381.639 201.9256 
L 382.014375 195.342539 
L 382.332875 185.677806 
L 382.5945 170.730634 
L 382.810625 144.522083 
L 382.969875 97.087308 
L 382.992625 84.969403 
L 383.004 257.123774 
L 383.106375 255.426277 
L 384.061875 240.980261 
L 384.6875 235.041036 
L 385.34725 230.813169 
L 386.086625 227.494068 
L 386.973875 224.54774 
L 388.270625 221.085436 
L 389.954125 216.515981 
L 390.76175 213.621449 
L 391.39875 210.480797 
L 391.922 206.746962 
L 392.365625 201.9256 
L 392.741 195.342539 
L 393.0595 185.677806 
L 393.321125 170.730634 
L 393.53725 144.522083 
L 393.6965 97.087308 
L 393.71925 84.969403 
L 393.730625 257.123774 
L 393.833 255.426277 
L 394.7885 240.980261 
L 395.414125 235.041036 
L 396.073875 230.813169 
L 396.81325 227.494068 
L 397.7005 224.54774 
L 398.99725 221.085436 
L 400.68075 216.515981 
L 401.488375 213.621449 
L 402.125375 210.480797 
L 402.648625 206.746962 
L 403.09225 201.9256 
L 403.467625 195.342539 
L 403.786125 185.677806 
L 404.04775 170.730634 
L 404.263875 144.522083 
L 404.423125 97.087308 
L 404.445875 84.969403 
L 404.45725 257.123774 
L 404.559625 255.426277 
L 405.515125 240.980261 
L 406.14075 235.041036 
L 406.8005 230.813169 
L 407.539875 227.494068 
L 408.427125 224.54774 
L 409.723875 221.085436 
L 411.407375 216.515981 
L 412.215 213.621449 
L 412.852 210.480797 
L 413.37525 206.746962 
L 413.818875 201.9256 
L 414.19425 195.342539 
L 414.51275 185.677806 
L 414.774375 170.730634 
L 414.9905 144.522083 
L 415.14975 97.087308 
L 415.1725 84.969403 
L 415.183875 257.123774 
L 415.28625 255.426277 
L 416.24175 240.980261 
L 416.867375 235.041036 
L 417.527125 230.813169 
L 418.2665 227.494068 
L 419.15375 224.54774 
L 420.4505 221.085436 
L 422.134 216.515981 
L 422.941625 213.621449 
L 423.578625 210.480797 
L 424.101875 206.746962 
L 424.5455 201.9256 
L 424.920875 195.342539 
L 425.239375 185.677806 
L 425.501 170.730634 
L 425.717125 144.522083 
L 425.876375 97.087308 
L 425.899125 84.969403 
L 425.9105 257.123774 
L 426.012875 255.426277 
L 426.968375 240.980261 
L 427.594 235.041036 
L 428.25375 230.813169 
L 428.993125 227.494068 
L 429.880375 224.54774 
L 431.177125 221.085436 
L 432.860625 216.515981 
L 433.66825 213.621449 
L 434.30525 210.480797 
L 434.8285 206.746962 
L 435.272125 201.9256 
L 435.6475 195.342539 
L 435.966 185.677806 
L 436.227625 170.730634 
L 436.44375 144.522083 
L 436.603 97.087308 
L 436.62575 84.969403 
L 436.637125 257.123774 
L 436.7395 255.426277 
L 437.695 240.980261 
L 438.320625 235.041036 
L 438.980375 230.813169 
L 439.71975 227.494068 
L 440.607 224.54774 
L 441.90375 221.085436 
L 443.58725 216.515981 
L 444.394875 213.621449 
L 445.031875 210.480797 
L 445.555125 206.746962 
L 445.99875 201.9256 
L 446.374125 195.342539 
L 446.692625 185.677806 
L 446.95425 170.730634 
L 447.170375 144.522083 
L 447.329625 97.087308 
L 447.352375 84.969403 
L 447.36375 257.123774 
L 447.466125 255.426277 
L 448.421625 240.980261 
L 449.04725 235.041036 
L 449.707 230.813169 
L 450.446375 227.494068 
L 451.333625 224.54774 
L 452.630375 221.085436 
L 454.313875 216.515981 
L 455.1215 213.621449 
L 455.7585 210.480797 
L 456.28175 206.746962 
L 456.725375 201.9256 
L 457.10075 195.342539 
L 457.41925 185.677806 
L 457.680875 170.730634 
L 457.897 144.522083 
L 458.05625 97.087308 
L 458.079 84.969403 
L 458.090375 257.123774 
L 458.19275 255.426277 
L 459.14825 240.980261 
L 459.773875 235.041036 
L 460.433625 230.813169 
L 461.173 227.494068 
L 462.06025 224.54774 
L 463.357 221.085436 
L 465.0405 216.515981 
L 465.848125 213.621449 
L 466.485125 210.480797 
L 467.008375 206.746962 
L 467.452 201.9256 
L 467.827375 195.342539 
L 468.145875 185.677806 
L 468.4075 170.730634 
L 468.623625 144.522083 
L 468.782875 97.087308 
L 468.805625 84.969403 
L 468.817 257.123774 
L 468.919375 255.426277 
L 469.874875 240.980261 
L 470.147875 239.096324 
L 470.966875 236.733633 
L 471.5925 235.579209 
L 472.2295 234.849959 
L 472.93475 234.375598 
L 473.810625 234.06263 
L 475.061875 233.86996 
L 477.371 233.77706 
L 486.732625 233.760009 
L 561 233.76 
L 561 233.76 
" clip-path="url(#pe3d1a8e6df)" style="fill: none; stroke: #1f77b4; stroke-width: 1.5; stroke-linecap: square"/>
   </g>
   <g id="text_1">
    <!-- 0.15 nA -->
    <g transform="translate(37.75 53.256) scale(0.2 -0.2)">
     <defs>
      <path id="DejaVuSans-30" d="M 2034 4250 
Q 1547 4250 1301 3770 
Q 1056 3291 1056 2328 
Q 1056 1369 1301 889 
Q 1547 409 2034 409 
Q 2525 409 2770 889 
Q 3016 1369 3016 2328 
Q 3016 3291 2770 3770 
Q 2525 4250 2034 4250 
z
M 2034 4750 
Q 2819 4750 3233 4129 
Q 3647 3509 3647 2328 
Q 3647 1150 3233 529 
Q 2819 -91 2034 -91 
Q 1250 -91 836 529 
Q 422 1150 422 2328 
Q 422 3509 836 4129 
Q 1250 4750 2034 4750 
z
" transform="scale(0.015625)"/>
      <path id="DejaVuSans-2e" d="M 684 794 
L 1344 794 
L 1344 0 
L 684 0 
L 684 794 
z
" transform="scale(0.015625)"/>
      <path id="DejaVuSans-31" d="M 794 531 
L 1825 531 
L 1825 4091 
L 703 3866 
L 703 4441 
L 1819 4666 
L 2450 4666 
L 2450 531 
L 3481 531 
L 3481 0 
L 794 0 
L 794 531 
z
" transform="scale(0.015625)"/>
      <path id="DejaVuSans-35" d="M 691 4666 
L 3169 4666 
L 3169 4134 
L 1269 4134 
L 1269 2991 
Q 1406 3038 1543 3061 
Q 1681 3084 1819 3084 
Q 2600 3084 3056 2656 
Q 3513 2228 3513 1497 
Q 3513 744 3044 326 
Q 2575 -91 1722 -91 
Q 1428 -91 1123 -41 
Q 819 9 494 109 
L 494 744 
Q 775 591 1075 516 
Q 1375 441 1709 441 
Q 2250 441 2565 725 
Q 2881 1009 2881 1497 
Q 2881 1984 2565 2268 
Q 2250 2553 1709 2553 
Q 1456 2553 1204 2497 
Q 953 2441 691 2322 
L 691 4666 
z
" transform="scale(0.015625)"/>
      <path id="DejaVuSans-20" transform="scale(0.015625)"/>
      <path id="DejaVuSans-6e" d="M 3513 2113 
L 3513 0 
L 2938 0 
L 2938 2094 
Q 2938 2591 2744 2837 
Q 2550 3084 2163 3084 
Q 1697 3084 1428 2787 
Q 1159 2491 1159 1978 
L 1159 0 
L 581 0 
L 581 3500 
L 1159 3500 
L 1159 2956 
Q 1366 3272 1645 3428 
Q 1925 3584 2291 3584 
Q 2894 3584 3203 3211 
Q 3513 2838 3513 2113 
z
" transform="scale(0.015625)"/>
      <path id="DejaVuSans-41" d="M 2188 4044 
L 1331 1722 
L 3047 1722 
L 2188 4044 
z
M 1831 4666 
L 2547 4666 
L 4325 0 
L 3669 0 
L 3244 1197 
L 1141 1197 
L 716 0 
L 50 0 
L 1831 4666 
z
" transform="scale(0.015625)"/>
     </defs>
     <use xlink:href="#DejaVuSans-30"/>
     <use xlink:href="#DejaVuSans-2e" x="63.623047"/>
     <use xlink:href="#DejaVuSans-31" x="95.410156"/>
     <use xlink:href="#DejaVuSans-35" x="159.033203"/>
     <use xlink:href="#DejaVuSans-20" x="222.65625"/>
     <use xlink:href="#DejaVuSans-6e" x="254.443359"/>
     <use xlink:href="#DejaVuSans-41" x="317.822266"/>
    </g>
   </g>
   <g id="text_2">
    <!-- Hummos 2014 -->
    <g transform="translate(207.375156 31.56) scale(0.22 -0.22)">
     <defs>
      <path id="DejaVuSans-48" d="M 628 4666 
L 1259 4666 
L 1259 2753 
L 3553 2753 
L 3553 4666 
L 4184 4666 
L 4184 0 
L 3553 0 
L 3553 2222 
L 1259 2222 
L 1259 0 
L 628 0 
L 628 4666 
z
" transform="scale(0.015625)"/>
      <path id="DejaVuSans-75" d="M 544 1381 
L 544 3500 
L 1119 3500 
L 1119 1403 
Q 1119 906 1312 657 
Q 1506 409 1894 409 
Q 2359 409 2629 706 
Q 2900 1003 2900 1516 
L 2900 3500 
L 3475 3500 
L 3475 0 
L 2900 0 
L 2900 538 
Q 2691 219 2414 64 
Q 2138 -91 1772 -91 
Q 1169 -91 856 284 
Q 544 659 544 1381 
z
M 1991 3584 
L 1991 3584 
z
" transform="scale(0.015625)"/>
      <path id="DejaVuSans-6d" d="M 3328 2828 
Q 3544 3216 3844 3400 
Q 4144 3584 4550 3584 
Q 5097 3584 5394 3201 
Q 5691 2819 5691 2113 
L 5691 0 
L 5113 0 
L 5113 2094 
Q 5113 2597 4934 2840 
Q 4756 3084 4391 3084 
Q 3944 3084 3684 2787 
Q 3425 2491 3425 1978 
L 3425 0 
L 2847 0 
L 2847 2094 
Q 2847 2600 2669 2842 
Q 2491 3084 2119 3084 
Q 1678 3084 1418 2786 
Q 1159 2488 1159 1978 
L 1159 0 
L 581 0 
L 581 3500 
L 1159 3500 
L 1159 2956 
Q 1356 3278 1631 3431 
Q 1906 3584 2284 3584 
Q 2666 3584 2933 3390 
Q 3200 3197 3328 2828 
z
" transform="scale(0.015625)"/>
      <path id="DejaVuSans-6f" d="M 1959 3097 
Q 1497 3097 1228 2736 
Q 959 2375 959 1747 
Q 959 1119 1226 758 
Q 1494 397 1959 397 
Q 2419 397 2687 759 
Q 2956 1122 2956 1747 
Q 2956 2369 2687 2733 
Q 2419 3097 1959 3097 
z
M 1959 3584 
Q 2709 3584 3137 3096 
Q 3566 2609 3566 1747 
Q 3566 888 3137 398 
Q 2709 -91 1959 -91 
Q 1206 -91 779 398 
Q 353 888 353 1747 
Q 353 2609 779 3096 
Q 1206 3584 1959 3584 
z
" transform="scale(0.015625)"/>
      <path id="DejaVuSans-73" d="M 2834 3397 
L 2834 2853 
Q 2591 2978 2328 3040 
Q 2066 3103 1784 3103 
Q 1356 3103 1142 2972 
Q 928 2841 928 2578 
Q 928 2378 1081 2264 
Q 1234 2150 1697 2047 
L 1894 2003 
Q 2506 1872 2764 1633 
Q 3022 1394 3022 966 
Q 3022 478 2636 193 
Q 2250 -91 1575 -91 
Q 1294 -91 989 -36 
Q 684 19 347 128 
L 347 722 
Q 666 556 975 473 
Q 1284 391 1588 391 
Q 1994 391 2212 530 
Q 2431 669 2431 922 
Q 2431 1156 2273 1281 
Q 2116 1406 1581 1522 
L 1381 1569 
Q 847 1681 609 1914 
Q 372 2147 372 2553 
Q 372 3047 722 3315 
Q 1072 3584 1716 3584 
Q 2034 3584 2315 3537 
Q 2597 3491 2834 3397 
z
" transform="scale(0.015625)"/>
      <path id="DejaVuSans-32" d="M 1228 531 
L 3431 531 
L 3431 0 
L 469 0 
L 469 531 
Q 828 903 1448 1529 
Q 2069 2156 2228 2338 
Q 2531 2678 2651 2914 
Q 2772 3150 2772 3378 
Q 2772 3750 2511 3984 
Q 2250 4219 1831 4219 
Q 1534 4219 1204 4116 
Q 875 4013 500 3803 
L 500 4441 
Q 881 4594 1212 4672 
Q 1544 4750 1819 4750 
Q 2544 4750 2975 4387 
Q 3406 4025 3406 3419 
Q 3406 3131 3298 2873 
Q 3191 2616 2906 2266 
Q 2828 2175 2409 1742 
Q 1991 1309 1228 531 
z
" transform="scale(0.015625)"/>
      <path id="DejaVuSans-34" d="M 2419 4116 
L 825 1625 
L 2419 1625 
L 2419 4116 
z
M 2253 4666 
L 3047 4666 
L 3047 1625 
L 3713 1625 
L 3713 1100 
L 3047 1100 
L 3047 0 
L 2419 0 
L 2419 1100 
L 313 1100 
L 313 1709 
L 2253 4666 
z
" transform="scale(0.015625)"/>
     </defs>
     <use xlink:href="#DejaVuSans-48"/>
     <use xlink:href="#DejaVuSans-75" x="75.195312"/>
     <use xlink:href="#DejaVuSans-6d" x="138.574219"/>
     <use xlink:href="#DejaVuSans-6d" x="235.986328"/>
     <use xlink:href="#DejaVuSans-6f" x="333.398438"/>
     <use xlink:href="#DejaVuSans-73" x="394.580078"/>
     <use xlink:href="#DejaVuSans-20" x="446.679688"/>
     <use xlink:href="#DejaVuSans-32" x="478.466797"/>
     <use xlink:href="#DejaVuSans-30" x="542.089844"/>
     <use xlink:href="#DejaVuSans-31" x="605.712891"/>
     <use xlink:href="#DejaVuSans-34" x="669.335938"/>
    </g>
   </g>
   <g id="patch_2">
    <path d="M 406.3 273 
L 424.5 273 
L 424.5 37.56 
L 406.3 37.56 
L 406.3 273 
z
" clip-path="url(#pe3d1a8e6df)" style="fill: none; opacity: 0.5; stroke: #000000; stroke-linejoin: miter"/>
   </g>
   <g id="patch_3">
    <path d="M 561 214.14 
Q 492.75 243.57 424.5 273 
" style="fill: none; opacity: 0.5; stroke: #000000; stroke-linecap: round"/>
   </g>
   <g id="patch_4">
    <path d="M 561 72.876 
Q 492.75 55.218 424.5 37.56 
" style="fill: none; opacity: 0.5; stroke: #000000; stroke-linecap: round"/>
   </g>
   <g id="axes_2">
    <g id="patch_5">
     <path d="M 500.94 214.14 
L 561 214.14 
L 561 72.876 
L 500.94 72.876 
z
" style="fill: #ffffff"/>
    </g>
    <g id="matplotlib.axis_1">
     <g id="xtick_1"/>
     <g id="xtick_2"/>
     <g id="xtick_3"/>
    </g>
    <g id="matplotlib.axis_2">
     <g id="ytick_1"/>
     <g id="ytick_2"/>
     <g id="ytick_3"/>
     <g id="ytick_4"/>
     <g id="ytick_5"/>
     <g id="ytick_6"/>
    </g>
    <g id="line2d_2">
     <path d="M 500.902463 190.709067 
L 502.216275 189.201465 
L 503.680238 187.857419 
L 505.406963 186.581002 
L 507.509063 185.312885 
L 510.39945 183.848412 
L 518.132175 180.054528 
L 520.121663 178.763512 
L 521.698238 177.482334 
L 522.974513 176.167854 
L 524.0631 174.734667 
L 525.001538 173.139361 
L 525.827363 171.306834 
L 526.578113 169.094303 
L 527.253788 166.390707 
L 527.854388 163.056842 
L 528.41745 158.570635 
L 528.905438 152.77838 
L 529.31835 145.291322 
L 529.693725 134.401868 
L 530.031563 117.334097 
L 530.21925 101.321642 
L 530.256788 204.614265 
L 530.331863 204.394334 
L 533.297325 195.916994 
L 534.460988 193.531243 
L 535.662188 191.578565 
L 536.938463 189.93432 
L 538.32735 188.509861 
L 539.903925 187.21313 
L 541.7808 185.96199 
L 544.1832 184.638907 
L 548.049563 182.801003 
L 552.554063 180.603878 
L 554.806313 179.258963 
L 556.533038 177.974875 
L 557.921925 176.668508 
L 559.085588 175.270323 
L 560.0991 173.696126 
L 560.962463 171.945495 
L 561 171.857787 
L 561 171.857787 
" clip-path="url(#p3f6c19b270)" style="fill: none; stroke: #1f77b4; stroke-width: 1.5; stroke-linecap: square"/>
    </g>
    <g id="patch_6">
     <path d="M 500.94 214.14 
L 500.94 72.876 
" style="fill: none; stroke: #000000; stroke-width: 0.8; stroke-linejoin: miter; stroke-linecap: square"/>
    </g>
    <g id="patch_7">
     <path d="M 500.94 214.14 
L 561 214.14 
" style="fill: none; stroke: #000000; stroke-width: 0.8; stroke-linejoin: miter; stroke-linecap: square"/>
    </g>
   </g>
  </g>
 </g>
 <defs>
  <clipPath id="pe3d1a8e6df">
   <rect x="15" y="37.56" width="546" height="235.44"/>
  </clipPath>
  <clipPath id="p3f6c19b270">
   <rect x="500.94" y="72.876" width="60.06" height="141.264"/>
  </clipPath>
 </defs>
</svg>
