<?xml version="1.0" encoding="utf-8" standalone="no"?>
<!DOCTYPE svg PUBLIC "-//W3C//DTD SVG 1.1//EN"
  "http://www.w3.org/Graphics/SVG/1.1/DTD/svg11.dtd">
<svg xmlns:xlink="http://www.w3.org/1999/xlink" width="576pt" height="288pt" viewBox="0 0 576 288" xmlns="http://www.w3.org/2000/svg" version="1.1">
 <metadata>
  <rdf:RDF xmlns:dc="http://purl.org/dc/elements/1.1/" xmlns:cc="http://creativecommons.org/ns#" xmlns:rdf="http://www.w3.org/1999/02/22-rdf-syntax-ns#">
   <cc:Work>
    <dc:type rdf:resource="http://purl.org/dc/dcmitype/StillImage"/>
    <dc:date>2024-09-24T18:47:55.484502</dc:date>
    <dc:format>image/svg+xml</dc:format>
    <dc:creator>
     <cc:Agent>
      <dc:title>Matplotlib v3.7.4, https://matplotlib.org/</dc:title>
     </cc:Agent>
    </dc:creator>
   </cc:Work>
  </rdf:RDF>
 </metadata>
 <defs>
  <style type="text/css">*{stroke-linejoin: round; stroke-linecap: butt}</style>
 </defs>
 <g id="figure_1">
  <g id="patch_1">
   <path d="M 0 288 
L 576 288 
L 576 0 
L 0 0 
z
" style="fill: #ffffff"/>
  </g>
  <g id="axes_1">
   <g id="line2d_1">
    <path d="M 15 233.76 
L 15.739375 231.494909 
L 16.490125 229.873642 
L 17.275 228.690743 
L 18.105375 227.833061 
L 19.02675 227.200654 
L 20.107375 226.734898 
L 21.472375 226.400466 
L 23.383375 226.178763 
L 26.6025 226.058445 
L 35.622875 226.023662 
L 106 226.023187 
L 106.182 222.545999 
L 106.819 215.381787 
L 107.558375 209.395059 
L 108.34325 204.79875 
L 109.276 200.678975 
L 110.902625 193.76204 
L 111.312125 190.784999 
L 111.585125 187.141438 
L 111.767125 181.514724 
L 111.880875 169.969911 
L 111.949125 135.960595 
L 112.040125 64.608438 
L 112.108375 76.812503 
L 112.5975 199.411819 
L 112.790875 207.497125 
L 112.84775 207.773489 
L 112.904625 207.617192 
L 113.0525 206.033825 
L 114.44025 184.405014 
L 114.645 177.358246 
L 114.75875 165.397578 
L 114.84975 122.209843 
L 114.929375 85.131291 
L 114.98625 94.953416 
L 115.464 206.435227 
L 115.657375 211.709921 
L 115.71425 211.838912 
L 115.75975 211.720399 
L 115.907625 210.544525 
L 117.181625 198.171083 
L 117.955125 194.166046 
L 118.62625 190.358136 
L 118.956125 187.140656 
L 119.183625 182.572774 
L 119.3315 174.443529 
L 119.4225 154.55179 
L 119.547625 74.196283 
L 119.638625 95.59114 
L 120.03675 200.658106 
L 120.2415 212.826968 
L 120.378 213.935127 
L 120.40075 213.912316 
L 120.503125 213.40826 
L 120.821625 210.173009 
L 121.504125 203.825833 
L 122.107 200.301091 
L 122.891875 197.096611 
L 124.052125 192.423591 
L 124.473 189.643958 
L 124.757375 186.219391 
L 124.95075 180.993611 
L 125.075875 170.598127 
L 125.1555 139.423148 
L 125.257875 71.342372 
L 125.31475 82.145062 
L 125.803875 207.480739 
L 126.008625 215.254183 
L 126.099625 215.696351 
L 126.145125 215.622893 
L 126.281625 214.759207 
L 127.7945 202.484518 
L 128.533875 199.372037 
L 130.513125 191.744353 
L 130.877125 188.939825 
L 131.127375 185.276142 
L 131.298 179.335313 
L 131.41175 165.468581 
L 131.491375 111.325594 
L 131.571 70.332933 
L 131.627875 82.455867 
L 132.117 209.169268 
L 132.32175 217.063143 
L 132.424125 217.569594 
L 132.469625 217.489945 
L 132.606125 216.651714 
L 134.244125 203.825425 
L 135.017625 200.564452 
L 136.37125 196.025669 
L 137.122 193.071137 
L 137.565625 190.388449 
L 137.861375 187.215738 
L 138.066125 182.505793 
L 138.202625 173.309084 
L 138.28225 150.28595 
L 138.396 69.345741 
L 138.475625 87.032372 
L 138.91925 207.530902 
L 139.124 218.260167 
L 139.2605 219.312371 
L 139.294625 219.281861 
L 139.408375 218.733354 
L 139.761 215.438323 
L 140.523125 208.871705 
L 141.228375 204.705042 
L 142.036 201.254101 
L 143.219 197.285827 
L 144.19725 193.760276 
L 144.686375 191.122638 
L 145.01625 188.058628 
L 145.24375 183.634697 
L 145.391625 175.601477 
L 145.482625 154.521273 
L 145.60775 68.859647 
L 145.687375 88.119933 
L 146.119625 207.872055 
L 146.324375 219.599445 
L 146.483625 220.90414 
L 146.495 220.897524 
L 146.574625 220.641297 
L 146.802125 218.835712 
L 147.92825 209.074702 
L 148.679 204.78232 
L 149.52075 201.258602 
L 150.772 197.10089 
L 151.693375 193.750502 
L 152.171125 191.164394 
L 152.501 188.09743 
L 152.7285 183.648862 
L 152.876375 175.475484 
L 152.967375 153.393937 
L 153.081125 68.601694 
L 153.172125 88.730994 
L 153.604375 209.241051 
L 153.809125 220.964285 
L 153.968375 222.320401 
L 153.97975 222.317476 
L 154.059375 222.085547 
L 154.2755 220.43317 
L 155.595 209.071919 
L 156.357125 204.794045 
L 157.21025 201.257943 
L 158.495625 197.004188 
L 159.39425 193.716577 
L 159.872 191.10055 
L 160.1905 188.104443 
L 160.406625 183.959769 
L 160.5545 176.380779 
L 160.6455 157.654514 
L 160.770625 68.246163 
L 160.873 93.900292 
L 161.293875 210.575984 
L 161.498625 222.18959 
L 161.657875 223.56498 
L 161.680625 223.554372 
L 161.771625 223.229322 
L 162.021875 221.172139 
L 163.250375 210.263666 
L 164.023875 205.636695 
L 164.85425 201.995954 
L 165.94625 198.268442 
L 167.186125 193.951466 
L 167.67525 191.389809 
L 168.005125 188.481074 
L 168.232625 184.455827 
L 168.3805 177.818588 
L 168.4715 163.77144 
L 168.551125 99.678314 
L 168.619375 68.141732 
L 168.67625 79.961339 
L 169.188125 216.479609 
L 169.392875 224.048936 
L 169.506625 224.65226 
L 169.552125 224.592787 
L 169.688625 223.855334 
L 170.1095 219.810789 
L 171.0195 211.619681 
L 171.793 206.636248 
L 172.600625 202.842949 
L 173.578875 199.333419 
L 175.251 193.514366 
L 175.717375 190.855728 
L 176.0245 187.782885 
L 176.240625 183.156034 
L 176.377125 174.799 
L 176.45675 155.434342 
L 176.581875 67.976115 
L 176.672875 91.360863 
L 177.105125 212.793024 
L 177.32125 224.424138 
L 177.4805 225.59931 
L 177.491875 225.591685 
L 177.582875 225.280629 
L 177.82175 223.334434 
L 179.255 210.307434 
L 180.0285 205.694129 
L 180.858875 202.055135 
L 181.950875 198.330128 
L 183.2135 193.95415 
L 183.702625 191.399855 
L 184.0325 188.494918 
L 184.26 184.460687 
L 184.407875 177.760101 
L 184.498875 163.353897 
L 184.5785 97.66396 
L 184.635375 67.984993 
L 184.703625 80.373949 
L 185.2155 218.119111 
L 185.42025 225.778016 
L 185.545375 226.423676 
L 185.5795 226.375775 
L 185.704625 225.740532 
L 186.05725 222.376856 
L 187.115125 212.341778 
L 187.888625 207.171528 
L 188.684875 203.29831 
L 189.629 199.81772 
L 191.54 193.113235 
L 191.97225 190.470387 
L 192.268 187.205855 
L 192.461375 182.552842 
L 192.5865 174.086737 
L 192.666125 151.950499 
L 192.779875 67.804438 
L 192.8595 85.361901 
L 193.325875 215.99037 
L 193.542 226.200027 
L 193.689875 227.143129 
L 193.712625 227.117156 
L 193.815 226.679898 
L 194.099375 224.131339 
L 195.38475 211.815944 
L 196.146875 206.856015 
L 196.9545 203.020112 
L 197.921375 199.525114 
L 199.695875 193.356079 
L 200.150875 190.697168 
L 200.458 187.47841 
L 200.66275 182.784717 
L 200.79925 173.393241 
L 200.878875 148.447148 
L 200.992625 67.800135 
L 201.060875 83.287207 
L 201.55 218.110782 
L 201.766125 227.048245 
L 201.89125 227.773231 
L 201.925375 227.738452 
L 202.039125 227.207332 
L 202.34625 224.329835 
L 203.563375 212.425105 
L 204.3255 207.298303 
L 205.12175 203.397259 
L 206.0545 199.939742 
L 208.045125 192.936846 
L 208.466 190.280937 
L 208.750375 187.018561 
L 208.94375 182.080498 
L 209.068875 172.418718 
L 209.1485 143.222825 
L 209.250875 67.701631 
L 209.319125 81.775595 
L 209.819625 219.180571 
L 210.03575 227.670397 
L 210.160875 228.323598 
L 210.195 228.276804 
L 210.320125 227.635768 
L 210.661375 224.290905 
L 211.798875 212.978137 
L 212.561 207.698385 
L 213.35725 203.694018 
L 214.278625 200.212985 
L 216.40575 192.675097 
L 216.803875 190.041329 
L 217.076875 186.738016 
L 217.27025 181.348434 
L 217.384 171.575694 
L 217.463625 138.450278 
L 217.566 67.777205 
L 217.622875 79.812915 
L 218.146125 220.920315 
L 218.36225 228.32965 
L 218.464625 228.80779 
L 218.510125 228.749686 
L 218.63525 228.084231 
L 218.987875 224.564133 
L 220.102625 213.318767 
L 220.86475 207.943868 
L 221.649625 203.925487 
L 222.54825 200.472412 
L 224.811875 192.372782 
L 225.198625 189.633633 
L 225.46025 186.122805 
L 225.64225 180.229255 
L 225.756 167.205525 
L 225.82425 127.352789 
L 225.91525 67.727403 
L 225.972125 79.597395 
L 226.495375 221.237985 
L 226.7115 228.737471 
L 226.82525 229.232327 
L 226.859375 229.179741 
L 226.9845 228.518974 
L 227.32575 225.102153 
L 228.474625 213.388941 
L 229.23675 207.993562 
L 230.021625 203.96302 
L 230.92025 200.503239 
L 233.206625 192.314775 
L 233.593375 189.537047 
L 233.855 185.922959 
L 234.025625 180.305148 
L 234.139375 167.514893 
L 234.207625 128.762224 
L 234.298625 67.666548 
L 234.3555 79.186778 
L 234.890125 222.284632 
L 235.094875 229.089828 
L 235.208625 229.609474 
L 235.24275 229.561272 
L 235.367875 228.908038 
L 235.69775 225.601229 
L 236.88075 213.42949 
L 237.642875 208.021864 
L 238.42775 203.984619 
L 239.326375 200.521467 
L 241.6355 192.234199 
L 242.010875 189.511095 
L 242.2725 185.870187 
L 242.443125 180.160452 
L 242.556875 166.873695 
L 242.625125 125.710324 
L 242.716125 67.756458 
L 242.773 80.053715 
L 243.29625 221.947594 
L 243.512375 229.441923 
L 243.626125 229.942181 
L 243.66025 229.889957 
L 243.785375 229.224517 
L 244.126625 225.7558 
L 245.286875 213.694258 
L 246.049 208.211861 
L 246.833875 204.124848 
L 247.721125 200.670404 
L 250.109875 192.042876 
L 250.473875 189.294104 
L 250.724125 185.651837 
L 250.89475 179.549418 
L 250.997125 167.111481 
L 251.065375 126.789298 
L 251.156375 67.699226 
L 251.21325 79.74343 
L 251.7365 222.126292 
L 251.952625 229.718575 
L 252.066375 230.238562 
L 252.1005 230.189833 
L 252.225625 229.530303 
L 252.5555 226.176758 
L 253.7385 213.775381 
L 254.500625 208.269394 
L 255.2855 204.167583 
L 256.17275 200.704538 
L 258.58425 191.982494 
L 258.94825 189.191028 
L 259.1985 185.432683 
L 259.35775 179.636707 
L 259.460125 167.443846 
L 259.528375 128.323913 
L 259.619375 67.636548 
L 259.67625 79.300782 
L 260.210875 223.069024 
L 260.427 230.074927 
L 260.529375 230.502375 
L 260.574875 230.427765 
L 260.711375 229.629538 
L 261.08675 225.643641 
L 262.167375 214.230574 
L 262.9295 208.596299 
L 263.714375 204.407309 
L 264.59025 200.929711 
L 266.16 195.838696 
L 266.86525 193.060072 
L 267.2975 190.424543 
L 267.59325 187.138797 
L 267.786625 182.374928 
L 267.91175 173.390585 
L 267.991375 148.142633 
L 268.105125 67.660478 
L 268.173375 83.443884 
L 268.6625 220.629853 
L 268.878625 229.909489 
L 269.015125 230.737646 
L 269.037875 230.715717 
L 269.14025 230.276571 
L 269.401875 227.825851 
L 270.892 212.37561 
L 271.654125 207.259789 
L 272.450375 203.376087 
L 273.383125 199.936187 
L 275.407875 192.863251 
L 275.82875 190.191463 
L 276.113125 186.860972 
L 276.3065 181.669124 
L 276.431625 170.779464 
L 276.51125 133.581663 
L 276.60225 67.569144 
L 276.659125 77.753856 
L 277.2165 224.603993 
L 277.42125 230.566887 
L 277.51225 230.947925 
L 277.55775 230.890715 
L 277.682875 230.208944 
L 278.01275 226.788001 
L 279.19575 214.133507 
L 279.957875 208.524751 
L 280.74275 204.355694 
L 281.618625 200.891613 
L 284.1325 191.728932 
L 284.485125 188.867803 
L 284.724 184.998015 
L 284.88325 178.400452 
L 284.985625 162.060679 
L 285.076625 82.381441 
L 285.122125 67.553998 
L 285.179 78.000315 
L 285.736375 224.810398 
L 285.941125 230.756968 
L 286.032125 231.136911 
L 286.077625 231.079109 
L 286.20275 230.394581 
L 286.532625 226.957796 
L 287.727 214.134761 
L 288.489125 208.524967 
L 289.274 204.35613 
L 290.149875 200.892615 
L 292.66375 191.741325 
L 293.016375 188.892472 
L 293.25525 185.053544 
L 293.4145 178.56373 
L 293.516875 162.829499 
L 293.5965 95.059804 
L 293.653375 67.582117 
L 293.721625 80.957414 
L 294.2335 222.402807 
L 294.449625 230.657015 
L 294.57475 231.3059 
L 294.608875 231.255892 
L 294.734 230.584206 
L 295.063875 227.14563 
L 296.25825 214.249564 
L 297.020375 208.606867 
L 297.793875 204.468219 
L 298.66975 200.97928 
L 300.114375 196.314785 
L 300.89925 193.370132 
L 301.35425 190.769659 
L 301.661375 187.652317 
L 301.866125 183.203024 
L 302.002625 174.780685 
L 302.08225 154.840177 
L 302.207375 67.646891 
L 302.287 87.65174 
L 302.753375 220.153065 
L 302.9695 230.42288 
L 303.117375 231.460187 
L 303.140125 231.441316 
L 303.2425 231.008272 
L 303.504125 228.530202 
L 305.017 212.563574 
L 305.779125 207.394237 
L 306.575375 203.4768 
L 307.508125 200.018515 
L 309.578375 192.788247 
L 309.987875 190.170702 
L 310.27225 186.825992 
L 310.465625 181.578014 
L 310.579375 172.296164 
L 310.659 142.204973 
L 310.761375 67.536373 
L 310.829625 82.180127 
L 311.330125 221.985961 
L 311.54625 230.833672 
L 311.671375 231.598237 
L 311.7055 231.567691 
L 311.81925 231.02296 
L 312.103625 228.188909 
L 313.468625 213.505613 
L 314.219375 208.140061 
L 315.00425 204.074935 
L 315.8915 200.638006 
L 318.28025 192.071869 
L 318.64425 189.364552 
L 318.8945 185.81242 
L 319.065125 179.996453 
L 319.1675 168.768493 
L 319.23575 134.521202 
L 319.32675 67.551653 
L 319.383625 77.459269 
L 319.952375 225.857569 
L 320.157125 231.404651 
L 320.248125 231.72319 
L 320.293625 231.644092 
L 320.430125 230.824273 
L 320.8055 226.713027 
L 321.886125 214.885019 
L 322.64825 209.061599 
L 323.42175 204.801381 
L 324.28625 201.275523 
L 325.548875 197.171553 
L 326.504375 193.802653 
L 326.9935 191.229373 
L 327.323375 188.225878 
L 327.5395 184.175859 
L 327.687375 176.797995 
L 327.778375 158.785259 
L 327.9035 67.578994 
L 328.005875 93.060294 
L 328.438125 218.321371 
L 328.65425 230.411011 
L 328.824875 231.837092 
L 328.83625 231.8308 
L 328.915875 231.5745 
L 329.120625 229.871075 
L 331.145375 209.639971 
L 331.918875 205.222585 
L 332.760625 201.678243 
L 333.9095 197.876654 
L 335.06975 193.89055 
L 335.558875 191.369614 
L 335.88875 188.487545 
L 336.11625 184.448945 
L 336.264125 177.635299 
L 336.355125 162.521838 
L 336.43475 94.007036 
L 336.491625 67.533901 
L 336.5485 77.588705 
L 337.11725 226.056313 
L 337.322 231.616905 
L 337.413 231.940428 
L 337.4585 231.862847 
L 337.595 231.043608 
L 337.959 227.051941 
L 339.062375 214.904842 
L 339.8245 209.074821 
L 340.598 204.811261 
L 341.4625 201.283718 
L 342.71375 197.216775 
L 343.692 193.770883 
L 344.16975 191.25889 
L 344.499625 188.283741 
L 344.727125 183.97879 
L 344.875 176.159621 
L 344.966 155.615787 
L 345.091125 67.568781 
L 345.182125 91.331081 
L 345.62575 219.228531 
L 345.841875 230.72429 
L 346.001125 232.034555 
L 346.023875 232.021886 
L 346.114875 231.675976 
L 346.342375 229.631257 
L 348.1055 211.284075 
L 348.867625 206.471281 
L 349.67525 202.746934 
L 350.664875 199.257559 
L 352.371125 193.428721 
L 352.826125 190.874635 
L 353.13325 187.860714 
L 353.349375 183.32305 
L 353.485875 175.174984 
L 353.5655 156.564001 
L 353.690625 67.522289 
L 353.781625 90.611202 
L 354.22525 219.075023 
L 354.441375 230.764812 
L 354.612 232.119599 
L 354.623375 232.110651 
L 354.714375 231.775468 
L 354.941875 229.739708 
L 356.72775 211.170793 
L 357.489875 206.389402 
L 358.308875 202.640904 
L 359.309875 199.136491 
L 360.95925 193.516226 
L 361.425625 190.934753 
L 361.73275 187.9747 
L 361.948875 183.597546 
L 362.085375 176.056718 
L 362.176375 155.071858 
L 362.3015 67.600177 
L 362.381125 87.492836 
L 362.8475 220.648095 
L 363.063625 231.098143 
L 363.2115 232.199085 
L 363.23425 232.186163 
L 363.32525 231.838987 
L 363.55275 229.787097 
L 365.32725 211.270067 
L 366.089375 206.461115 
L 366.897 202.739701 
L 367.886625 199.252606 
L 369.592875 193.426702 
L 370.047875 190.873623 
L 370.355 187.860519 
L 370.571125 183.323337 
L 370.707625 175.174303 
L 370.78725 156.554276 
L 370.912375 67.516429 
L 371.003375 90.619087 
L 371.447 219.179246 
L 371.663125 230.900229 
L 371.83375 232.270351 
L 371.845125 232.26204 
L 371.936125 231.930347 
L 372.163625 229.893311 
L 373.9495 211.241894 
L 374.711625 206.440743 
L 375.51925 202.724656 
L 376.508875 199.240904 
L 378.20375 193.463521 
L 378.65875 190.933687 
L 378.965875 187.974265 
L 379.182 183.597236 
L 379.3185 176.054508 
L 379.4095 155.052719 
L 379.534625 67.596294 
L 379.61425 87.505788 
L 380.080625 220.746176 
L 380.29675 231.223599 
L 380.444625 232.33675 
L 380.467375 232.32505 
L 380.558375 231.981108 
L 380.785875 229.928091 
L 382.560375 211.335607 
L 383.3225 206.508407 
L 384.130125 202.775233 
L 385.108375 199.318242 
L 386.84875 193.369098 
L 387.30375 190.782296 
L 387.610875 187.687621 
L 387.815625 183.290776 
L 387.952125 175.064872 
L 388.03175 156.068223 
L 388.156875 67.52983 
L 388.247875 90.992081 
L 388.6915 219.373815 
L 388.907625 231.032281 
L 389.07825 232.396748 
L 389.089625 232.388278 
L 389.180625 232.055301 
L 389.408125 230.012555 
L 391.205375 211.210746 
L 391.9675 206.418207 
L 392.775125 202.708104 
L 393.76475 199.228258 
L 395.459625 193.449505 
L 395.914625 190.912942 
L 396.22175 187.936683 
L 396.437875 183.50819 
L 396.574375 175.772659 
L 396.665375 153.543321 
L 396.779125 67.576925 
L 396.870125 88.534843 
L 397.325125 219.933325 
L 397.54125 231.173472 
L 397.7005 232.453274 
L 397.72325 232.438416 
L 397.81425 232.0848 
L 398.04175 230.016986 
L 399.804875 211.4557 
L 400.567 206.595048 
L 401.374625 202.839966 
L 402.352875 199.370636 
L 404.116 193.343346 
L 404.571 190.741933 
L 404.878125 187.610792 
L 405.082875 183.108258 
L 405.219375 174.442878 
L 405.299 153.22291 
L 405.41275 67.553199 
L 405.50375 88.745224 
L 405.95875 220.027695 
L 406.174875 231.229714 
L 406.334125 232.504723 
L 406.356875 232.48953 
L 406.447875 232.134795 
L 406.675375 230.063995 
L 408.4385 211.476438 
L 409.200625 206.609988 
L 410.00825 202.851178 
L 410.9865 199.379841 
L 412.761 193.305942 
L 413.204625 190.766429 
L 413.51175 187.658734 
L 413.7165 183.223047 
L 413.853 174.835451 
L 413.932625 155.034389 
L 414.05775 67.589115 
L 414.137375 87.517012 
L 414.60375 220.89177 
L 414.819875 231.416688 
L 414.979125 232.551028 
L 414.9905 232.541817 
L 415.0815 232.203964 
L 415.309 230.150621 
L 417.094875 211.354427 
L 417.857 206.521916 
L 418.664625 202.785723 
L 419.642875 199.327697 
L 421.38325 193.388953 
L 421.83825 190.8174 
L 422.145375 187.75718 
L 422.350125 183.454696 
L 422.486625 175.599578 
L 422.56625 158.357759 
L 422.691375 67.517802 
L 422.79375 93.438689 
L 423.226 218.942751 
L 423.442125 231.107541 
L 423.61275 232.595928 
L 423.624125 232.592354 
L 423.70375 232.349657 
L 423.897125 230.762882 
L 424.647875 221.692945 
L 425.4555 213.596624 
L 426.20625 208.203188 
L 426.991125 204.122632 
L 427.878375 200.678355 
L 430.312625 191.926678 
L 430.676625 189.120392 
L 430.926875 185.295771 
L 431.086125 179.253223 
L 431.1885 165.833816 
L 431.25675 120.656742 
L 431.336375 67.496533 
L 431.39325 77.72997 
L 431.962 226.615105 
L 432.16675 232.281953 
L 432.25775 232.63649 
L 432.30325 232.569505 
L 432.428375 231.856615 
L 432.75825 228.285635 
L 433.952625 214.898505 
L 434.703375 209.140674 
L 435.476875 204.859946 
L 436.33 201.363652 
L 437.547125 197.40015 
L 438.570875 193.838791 
L 439.06 191.29935 
L 439.389875 188.366856 
L 439.617375 184.177251 
L 439.76525 176.795953 
L 439.85625 158.737793 
L 439.981375 67.537651 
L 440.08375 93.106354 
L 440.527375 220.159191 
L 440.7435 231.382379 
L 440.90275 232.673509 
L 440.9255 232.65991 
L 441.0165 232.309623 
L 441.244 230.238343 
L 443.0185 211.472307 
L 443.780625 206.606927 
L 444.58825 202.849221 
L 445.5665 199.379073 
L 447.341 193.309997 
L 447.784625 190.775134 
L 448.09175 187.677199 
L 448.2965 183.267372 
L 448.433 174.982977 
L 448.512625 155.689935 
L 448.63775 67.536994 
L 448.72875 91.274372 
L 449.172375 219.652976 
L 449.3885 231.319186 
L 449.559125 232.708095 
L 449.5705 232.700794 
L 449.650125 232.437403 
L 449.854875 230.702169 
L 451.902375 209.82019 
L 452.6645 205.409918 
L 453.50625 201.822035 
L 454.621 198.111053 
L 455.860875 193.889805 
L 456.35 191.380406 
L 456.679875 188.516862 
L 456.907375 184.520123 
L 457.05525 177.841424 
L 457.14625 163.351402 
L 457.225875 96.651475 
L 457.28275 67.570662 
L 457.351 80.427667 
L 457.87425 224.230213 
L 458.090375 232.117684 
L 458.204125 232.740022 
L 458.249625 232.684189 
L 458.37475 231.990614 
L 458.69325 228.568861 
L 459.92175 214.783328 
L 460.6725 209.057309 
L 461.446 204.799245 
L 462.3105 201.276916 
L 463.56175 197.218498 
L 464.54 193.787733 
L 465.029125 191.219884 
L 465.359 188.219363 
L 465.575125 184.166355 
L 465.723 176.760514 
L 465.814 158.564417 
L 465.939125 67.521515 
L 466.0415 93.257687 
L 466.47375 218.992072 
L 466.689875 231.247484 
L 466.8605 232.770255 
L 466.871875 232.768187 
L 466.940125 232.587676 
L 467.122125 231.18655 
L 467.70225 224.168514 
L 468.56675 214.890957 
L 469.3175 209.134654 
L 470 205.292726 
L 470.15925 207.713873 
L 470.739375 212.191111 
L 471.467375 216.234707 
L 472.20675 219.141961 
L 472.946125 221.192899 
L 473.70825 222.676127 
L 474.493125 223.736036 
L 475.334875 224.510098 
L 476.290375 225.08476 
L 477.427875 225.501619 
L 478.906625 225.792954 
L 481.067875 225.971783 
L 485.162875 226.047968 
L 509.97175 226.04858 
L 561 226.04694 
L 561 226.04694 
" clip-path="url(#paeab7b409c)" style="fill: none; stroke: #1f77b4; stroke-width: 1.5; stroke-linecap: square"/>
   </g>
   <g id="text_1">
    <!-- 0.5 nA -->
    <g transform="translate(37.75 53.256) scale(0.2 -0.2)">
     <defs>
      <path id="DejaVuSans-30" d="M 2034 4250 
Q 1547 4250 1301 3770 
Q 1056 3291 1056 2328 
Q 1056 1369 1301 889 
Q 1547 409 2034 409 
Q 2525 409 2770 889 
Q 3016 1369 3016 2328 
Q 3016 3291 2770 3770 
Q 2525 4250 2034 4250 
z
M 2034 4750 
Q 2819 4750 3233 4129 
Q 3647 3509 3647 2328 
Q 3647 1150 3233 529 
Q 2819 -91 2034 -91 
Q 1250 -91 836 529 
Q 422 1150 422 2328 
Q 422 3509 836 4129 
Q 1250 4750 2034 4750 
z
" transform="scale(0.015625)"/>
      <path id="DejaVuSans-2e" d="M 684 794 
L 1344 794 
L 1344 0 
L 684 0 
L 684 794 
z
" transform="scale(0.015625)"/>
      <path id="DejaVuSans-35" d="M 691 4666 
L 3169 4666 
L 3169 4134 
L 1269 4134 
L 1269 2991 
Q 1406 3038 1543 3061 
Q 1681 3084 1819 3084 
Q 2600 3084 3056 2656 
Q 3513 2228 3513 1497 
Q 3513 744 3044 326 
Q 2575 -91 1722 -91 
Q 1428 -91 1123 -41 
Q 819 9 494 109 
L 494 744 
Q 775 591 1075 516 
Q 1375 441 1709 441 
Q 2250 441 2565 725 
Q 2881 1009 2881 1497 
Q 2881 1984 2565 2268 
Q 2250 2553 1709 2553 
Q 1456 2553 1204 2497 
Q 953 2441 691 2322 
L 691 4666 
z
" transform="scale(0.015625)"/>
      <path id="DejaVuSans-20" transform="scale(0.015625)"/>
      <path id="DejaVuSans-6e" d="M 3513 2113 
L 3513 0 
L 2938 0 
L 2938 2094 
Q 2938 2591 2744 2837 
Q 2550 3084 2163 3084 
Q 1697 3084 1428 2787 
Q 1159 2491 1159 1978 
L 1159 0 
L 581 0 
L 581 3500 
L 1159 3500 
L 1159 2956 
Q 1366 3272 1645 3428 
Q 1925 3584 2291 3584 
Q 2894 3584 3203 3211 
Q 3513 2838 3513 2113 
z
" transform="scale(0.015625)"/>
      <path id="DejaVuSans-41" d="M 2188 4044 
L 1331 1722 
L 3047 1722 
L 2188 4044 
z
M 1831 4666 
L 2547 4666 
L 4325 0 
L 3669 0 
L 3244 1197 
L 1141 1197 
L 716 0 
L 50 0 
L 1831 4666 
z
" transform="scale(0.015625)"/>
     </defs>
     <use xlink:href="#DejaVuSans-30"/>
     <use xlink:href="#DejaVuSans-2e" x="63.623047"/>
     <use xlink:href="#DejaVuSans-35" x="95.410156"/>
     <use xlink:href="#DejaVuSans-20" x="159.033203"/>
     <use xlink:href="#DejaVuSans-6e" x="190.820312"/>
     <use xlink:href="#DejaVuSans-41" x="254.199219"/>
    </g>
   </g>
   <g id="text_2">
    <!-- Lee 2014 -->
    <g transform="translate(237.035625 31.56) scale(0.22 -0.22)">
     <defs>
      <path id="DejaVuSans-4c" d="M 628 4666 
L 1259 4666 
L 1259 531 
L 3531 531 
L 3531 0 
L 628 0 
L 628 4666 
z
" transform="scale(0.015625)"/>
      <path id="DejaVuSans-65" d="M 3597 1894 
L 3597 1613 
L 953 1613 
Q 991 1019 1311 708 
Q 1631 397 2203 397 
Q 2534 397 2845 478 
Q 3156 559 3463 722 
L 3463 178 
Q 3153 47 2828 -22 
Q 2503 -91 2169 -91 
Q 1331 -91 842 396 
Q 353 884 353 1716 
Q 353 2575 817 3079 
Q 1281 3584 2069 3584 
Q 2775 3584 3186 3129 
Q 3597 2675 3597 1894 
z
M 3022 2063 
Q 3016 2534 2758 2815 
Q 2500 3097 2075 3097 
Q 1594 3097 1305 2825 
Q 1016 2553 972 2059 
L 3022 2063 
z
" transform="scale(0.015625)"/>
      <path id="DejaVuSans-32" d="M 1228 531 
L 3431 531 
L 3431 0 
L 469 0 
L 469 531 
Q 828 903 1448 1529 
Q 2069 2156 2228 2338 
Q 2531 2678 2651 2914 
Q 2772 3150 2772 3378 
Q 2772 3750 2511 3984 
Q 2250 4219 1831 4219 
Q 1534 4219 1204 4116 
Q 875 4013 500 3803 
L 500 4441 
Q 881 4594 1212 4672 
Q 1544 4750 1819 4750 
Q 2544 4750 2975 4387 
Q 3406 4025 3406 3419 
Q 3406 3131 3298 2873 
Q 3191 2616 2906 2266 
Q 2828 2175 2409 1742 
Q 1991 1309 1228 531 
z
" transform="scale(0.015625)"/>
      <path id="DejaVuSans-31" d="M 794 531 
L 1825 531 
L 1825 4091 
L 703 3866 
L 703 4441 
L 1819 4666 
L 2450 4666 
L 2450 531 
L 3481 531 
L 3481 0 
L 794 0 
L 794 531 
z
" transform="scale(0.015625)"/>
      <path id="DejaVuSans-34" d="M 2419 4116 
L 825 1625 
L 2419 1625 
L 2419 4116 
z
M 2253 4666 
L 3047 4666 
L 3047 1625 
L 3713 1625 
L 3713 1100 
L 3047 1100 
L 3047 0 
L 2419 0 
L 2419 1100 
L 313 1100 
L 313 1709 
L 2253 4666 
z
" transform="scale(0.015625)"/>
     </defs>
     <use xlink:href="#DejaVuSans-4c"/>
     <use xlink:href="#DejaVuSans-65" x="53.962891"/>
     <use xlink:href="#DejaVuSans-65" x="115.486328"/>
     <use xlink:href="#DejaVuSans-20" x="177.009766"/>
     <use xlink:href="#DejaVuSans-32" x="208.796875"/>
     <use xlink:href="#DejaVuSans-30" x="272.419922"/>
     <use xlink:href="#DejaVuSans-31" x="336.042969"/>
     <use xlink:href="#DejaVuSans-34" x="399.666016"/>
    </g>
   </g>
   <g id="patch_2">
    <path d="M 406.3 273 
L 424.5 273 
L 424.5 37.56 
L 406.3 37.56 
L 406.3 273 
z
" clip-path="url(#paeab7b409c)" style="fill: none; opacity: 0.5; stroke: #000000; stroke-linejoin: miter"/>
   </g>
   <g id="patch_3">
    <path d="M 561 214.14 
Q 492.75 243.57 424.5 273 
" style="fill: none; opacity: 0.5; stroke: #000000; stroke-linecap: round"/>
   </g>
   <g id="patch_4">
    <path d="M 561 72.876 
Q 492.75 55.218 424.5 37.56 
" style="fill: none; opacity: 0.5; stroke: #000000; stroke-linecap: round"/>
   </g>
   <g id="axes_2">
    <g id="patch_5">
     <path d="M 500.94 214.14 
L 561 214.14 
L 561 72.876 
L 500.94 72.876 
z
" style="fill: #ffffff"/>
    </g>
    <g id="matplotlib.axis_1">
     <g id="xtick_1"/>
     <g id="xtick_2"/>
     <g id="xtick_3"/>
    </g>
    <g id="matplotlib.axis_2">
     <g id="ytick_1"/>
     <g id="ytick_2"/>
     <g id="ytick_3"/>
     <g id="ytick_4"/>
     <g id="ytick_5"/>
     <g id="ytick_6"/>
    </g>
    <g id="line2d_2">
     <path d="M 500.902463 189.790961 
L 501.165225 189.821593 
L 501.465525 189.578397 
L 501.953513 188.817551 
L 502.89195 186.826187 
L 505.331888 181.576888 
L 506.79585 179.001826 
L 508.259813 176.873789 
L 509.761313 175.080404 
L 511.375425 173.499612 
L 513.177225 172.050707 
L 515.3544 170.597238 
L 518.995538 168.488026 
L 521.435475 166.957947 
L 522.786825 165.855464 
L 523.687725 164.850026 
L 524.3634 163.775326 
L 524.888925 162.514907 
L 525.301838 160.906576 
L 525.602138 158.861705 
L 525.827363 155.971957 
L 526.01505 150.690278 
L 526.1652 139.229793 
L 526.540575 90.893469 
L 526.578113 91.479756 
L 526.728263 98.089555 
L 528.11715 177.414231 
L 528.454988 184.683608 
L 528.792825 187.975615 
L 529.130663 189.401135 
L 529.430963 189.835591 
L 529.693725 189.839218 
L 529.994025 189.576379 
L 530.482013 188.797815 
L 531.457988 186.708868 
L 533.785313 181.690834 
L 535.249275 179.096231 
L 536.713238 176.951408 
L 538.214738 175.144129 
L 539.82885 173.551872 
L 541.63065 172.093836 
L 543.770288 170.656776 
L 547.223738 168.651247 
L 549.8889 167.000456 
L 551.24025 165.912367 
L 552.178688 164.880078 
L 552.854363 163.819261 
L 553.379888 162.583186 
L 553.7928 161.021618 
L 554.0931 159.066766 
L 554.355863 155.699747 
L 554.54355 150.018155 
L 554.6937 137.263237 
L 555.031538 90.850681 
L 555.069075 91.050852 
L 555.181688 94.806422 
L 555.632138 124.020852 
L 556.608113 176.680242 
L 556.94595 184.370938 
L 557.283788 187.846704 
L 557.621625 189.365587 
L 557.921925 189.846704 
L 558.184688 189.875712 
L 558.484988 189.631209 
L 558.972975 188.868292 
L 559.911413 186.871791 
L 561 184.411098 
L 561 184.411098 
" clip-path="url(#pd992d528aa)" style="fill: none; stroke: #1f77b4; stroke-width: 1.5; stroke-linecap: square"/>
    </g>
    <g id="patch_6">
     <path d="M 500.94 214.14 
L 500.94 72.876 
" style="fill: none; stroke: #000000; stroke-width: 0.8; stroke-linejoin: miter; stroke-linecap: square"/>
    </g>
    <g id="patch_7">
     <path d="M 500.94 214.14 
L 561 214.14 
" style="fill: none; stroke: #000000; stroke-width: 0.8; stroke-linejoin: miter; stroke-linecap: square"/>
    </g>
   </g>
  </g>
 </g>
 <defs>
  <clipPath id="paeab7b409c">
   <rect x="15" y="37.56" width="546" height="235.44"/>
  </clipPath>
  <clipPath id="pd992d528aa">
   <rect x="500.94" y="72.876" width="60.06" height="141.264"/>
  </clipPath>
 </defs>
</svg>
