<?xml version="1.0" encoding="utf-8" standalone="no"?>
<!DOCTYPE svg PUBLIC "-//W3C//DTD SVG 1.1//EN"
  "http://www.w3.org/Graphics/SVG/1.1/DTD/svg11.dtd">
<svg xmlns:xlink="http://www.w3.org/1999/xlink" width="576pt" height="288pt" viewBox="0 0 576 288" xmlns="http://www.w3.org/2000/svg" version="1.1">
 <metadata>
  <rdf:RDF xmlns:dc="http://purl.org/dc/elements/1.1/" xmlns:cc="http://creativecommons.org/ns#" xmlns:rdf="http://www.w3.org/1999/02/22-rdf-syntax-ns#">
   <cc:Work>
    <dc:type rdf:resource="http://purl.org/dc/dcmitype/StillImage"/>
    <dc:date>2024-09-24T19:11:34.997410</dc:date>
    <dc:format>image/svg+xml</dc:format>
    <dc:creator>
     <cc:Agent>
      <dc:title>Matplotlib v3.7.4, https://matplotlib.org/</dc:title>
     </cc:Agent>
    </dc:creator>
   </cc:Work>
  </rdf:RDF>
 </metadata>
 <defs>
  <style type="text/css">*{stroke-linejoin: round; stroke-linecap: butt}</style>
 </defs>
 <g id="figure_1">
  <g id="patch_1">
   <path d="M 0 288 
L 576 288 
L 576 0 
L 0 0 
z
" style="fill: #ffffff"/>
  </g>
  <g id="axes_1">
   <g id="line2d_1">
    <path d="M 15 233.76 
L 15.97825 231.871988 
L 16.990625 230.388267 
L 18.059875 229.208949 
L 19.20875 228.268984 
L 20.48275 227.512786 
L 21.9615 226.899349 
L 23.724625 226.415763 
L 25.94275 226.047416 
L 28.9685 225.784979 
L 33.666375 225.622604 
L 43.41475 225.554749 
L 106 225.549491 
L 106.170625 224.293539 
L 106.671125 222.498391 
L 107.547 220.221766 
L 108.968875 217.203596 
L 110.515875 213.818644 
L 111.175625 211.801372 
L 111.630625 209.665804 
L 111.949125 207.063674 
L 112.176625 203.195577 
L 112.3245 196.173423 
L 112.404125 180.66792 
L 112.461 102.097893 
L 112.517875 48.39221 
L 112.586125 59.940636 
L 113.336875 259.590166 
L 113.427875 260.028682 
L 113.473375 259.968665 
L 113.609875 259.202566 
L 114.042125 254.935717 
L 115.12275 244.707023 
L 116.07825 237.768828 
L 117.045125 232.315425 
L 118.023375 228.024654 
L 119.03575 224.559946 
L 120.116375 221.641433 
L 121.40175 218.823125 
L 124.04075 213.235794 
L 124.63225 211.274171 
L 125.04175 209.143322 
L 125.3375 206.40116 
L 125.54225 202.333197 
L 125.67875 194.377175 
L 125.747 177.654301 
L 125.86075 48.540553 
L 125.985875 82.102647 
L 126.531875 255.462371 
L 126.713875 259.900876 
L 126.77075 260.030342 
L 126.827625 259.914468 
L 126.986875 258.879467 
L 127.58975 252.74971 
L 128.579375 243.754101 
L 129.534875 237.034249 
L 130.50175 231.748092 
L 131.48 227.584999 
L 132.492375 224.216837 
L 133.584375 221.341071 
L 134.91525 218.480832 
L 137.28125 213.515558 
L 137.906875 211.551382 
L 138.339125 209.451325 
L 138.64625 206.844987 
L 138.862375 203.046943 
L 138.998875 196.737799 
L 139.0785 183.335232 
L 139.135375 118.983529 
L 139.203625 48.508578 
L 139.2605 57.977202 
L 139.681375 212.283744 
L 139.87475 255.363015 
L 140.05675 259.892037 
L 140.113625 260.030477 
L 140.1705 259.920499 
L 140.32975 258.89372 
L 140.92125 252.883709 
L 141.910875 243.858668 
L 142.866375 237.115825 
L 143.83325 231.811881 
L 144.8115 227.635129 
L 145.823875 224.256643 
L 146.915875 221.373471 
L 148.24675 218.508811 
L 150.6355 213.494252 
L 151.261125 211.520739 
L 151.693375 209.401518 
L 152.0005 206.751758 
L 152.216625 202.829466 
L 152.353125 196.064679 
L 152.43275 180.213189 
L 152.489625 99.8742 
L 152.5465 48.521725 
L 152.61475 60.21998 
L 153.3655 259.599586 
L 153.4565 260.030092 
L 153.502 259.968005 
L 153.6385 259.199365 
L 154.07075 254.935554 
L 155.151375 244.717171 
L 156.106875 237.783055 
L 157.07375 232.331014 
L 158.052 228.040234 
L 159.064375 224.575005 
L 160.145 221.656071 
L 161.430375 218.838206 
L 164.08075 213.232941 
L 164.67225 211.271794 
L 165.08175 209.140902 
L 165.3775 206.397903 
L 165.58225 202.326799 
L 165.71875 194.355834 
L 165.787 177.557042 
L 165.90075 48.546188 
L 166.025875 82.174959 
L 166.571875 255.473192 
L 166.753875 259.901684 
L 166.81075 260.03018 
L 166.867625 259.913682 
L 167.026875 258.877864 
L 167.62975 252.748193 
L 168.619375 243.753786 
L 169.574875 237.035064 
L 170.54175 231.749976 
L 171.52 227.587887 
L 172.532375 224.220712 
L 173.624375 221.34606 
L 174.95525 218.487575 
L 177.32125 213.531296 
L 177.946875 211.576387 
L 178.379125 209.493781 
L 178.697625 206.792065 
L 178.91375 202.92541 
L 179.05025 196.367276 
L 179.129875 181.669893 
L 179.18675 108.212842 
L 179.255 48.64035 
L 179.311875 59.218367 
L 180.085375 259.773562 
L 180.165 260.029293 
L 180.2105 259.944014 
L 180.358375 259.045969 
L 180.858875 254.016715 
L 181.894 244.374179 
L 182.8495 237.517516 
L 183.816375 232.12566 
L 184.794625 227.88144 
L 185.807 224.451907 
L 186.899 221.531978 
L 188.19575 218.713493 
L 190.74375 213.350436 
L 191.346625 211.401362 
L 191.7675 209.280569 
L 192.074625 206.522356 
L 192.279375 202.622805 
L 192.415875 195.391767 
L 192.4955 176.641652 
L 192.60925 48.602951 
L 192.734375 82.820451 
L 193.280375 255.569125 
L 193.462375 259.909774 
L 193.51925 260.029561 
L 193.56475 259.946741 
L 193.712625 259.05297 
L 194.213125 254.025844 
L 195.24825 244.381686 
L 196.20375 237.523876 
L 197.170625 232.131249 
L 198.148875 227.886538 
L 199.16125 224.456753 
L 200.25325 221.536842 
L 201.55 218.718877 
L 204.109375 213.330926 
L 204.71225 211.373671 
L 205.133125 209.235685 
L 205.44025 206.435856 
L 205.645 202.41966 
L 205.7815 194.692588 
L 205.861125 172.356064 
L 205.9635 48.501545 
L 206.07725 76.675946 
L 206.657375 256.509269 
L 206.839375 259.980635 
L 206.884875 260.025657 
L 206.930375 259.924166 
L 207.089625 258.903124 
L 207.66975 253.012788 
L 208.67075 243.86996 
L 209.62625 237.126938 
L 210.593125 231.823365 
L 211.571375 227.647351 
L 212.58375 224.269967 
L 213.67575 221.388522 
L 214.99525 218.550072 
L 217.418125 213.474985 
L 218.032375 211.541333 
L 218.464625 209.439237 
L 218.77175 206.826213 
L 218.987875 203.007326 
L 219.124375 196.621903 
L 219.204 182.834474 
L 219.260875 115.631041 
L 219.329125 48.534877 
L 219.386 58.362884 
L 219.806875 213.02019 
L 220.00025 255.444789 
L 220.18225 259.898674 
L 220.239125 260.029739 
L 220.296 259.91495 
L 220.45525 258.881604 
L 221.058125 252.753553 
L 222.04775 243.759687 
L 223.00325 237.041903 
L 223.970125 231.758021 
L 224.948375 227.597284 
L 225.96075 224.231648 
L 227.05275 221.358996 
L 228.383625 218.504104 
L 230.772375 213.508564 
L 231.398 211.547789 
L 231.83025 209.450857 
L 232.137375 206.848891 
L 232.3535 203.060707 
L 232.49 196.784311 
L 232.569625 183.542152 
L 232.6265 120.421064 
L 232.69475 48.5048 
L 232.751625 57.816492 
L 233.1725 211.985425 
L 233.365875 255.327895 
L 233.547875 259.888181 
L 233.60475 260.029782 
L 233.661625 259.921911 
L 233.820875 258.898207 
L 234.412375 252.890452 
L 235.402 243.866714 
L 236.3575 237.12574 
L 237.324375 231.82403 
L 238.302625 227.649697 
L 239.315 224.273886 
L 240.407 221.394094 
L 241.7265 218.558015 
L 244.16075 213.464588 
L 244.775 211.528809 
L 245.20725 209.420899 
L 245.514375 206.793718 
L 245.7305 202.9336 
L 245.867 196.397483 
L 245.946625 181.81788 
L 246.0035 109.139013 
L 246.07175 48.625036 
L 246.128625 59.113536 
L 246.583625 229.491081 
L 246.765625 256.744965 
L 246.947625 259.994353 
L 246.98175 260.028804 
L 247.02725 259.944587 
L 247.175125 259.048493 
L 247.675625 254.020938 
L 248.71075 244.379911 
L 249.66625 237.525094 
L 250.633125 232.135345 
L 251.611375 227.893343 
L 252.62375 224.466199 
L 253.71575 221.549205 
L 255.0125 218.735557 
L 257.594625 213.311489 
L 258.1975 211.350138 
L 258.618375 209.200929 
L 258.914125 206.518708 
L 259.118875 202.618801 
L 259.255375 195.383986 
L 259.335 176.607185 
L 259.44875 48.606996 
L 259.573875 82.849737 
L 260.119875 255.572822 
L 260.301875 259.909376 
L 260.35875 260.028827 
L 260.40425 259.945847 
L 260.552125 259.051922 
L 261.052625 254.025568 
L 262.08775 244.384091 
L 263.04325 237.529079 
L 264.010125 232.139336 
L 264.988375 227.897476 
L 266.00075 224.470604 
L 267.09275 221.554086 
L 268.3895 218.741431 
L 270.971625 213.32503 
L 271.5745 211.371625 
L 271.995375 209.237815 
L 272.3025 206.445171 
L 272.50725 202.446708 
L 272.64375 194.794374 
L 272.723375 173.029922 
L 272.82575 48.505718 
L 272.9395 76.322978 
L 273.519625 256.464173 
L 273.701625 259.976965 
L 273.747125 260.025611 
L 273.792625 259.926742 
L 273.951875 258.910594 
L 274.532 253.023191 
L 275.533 243.880814 
L 276.4885 237.138936 
L 277.455375 231.836991 
L 278.433625 227.662888 
L 279.446 224.287746 
L 280.538 221.409296 
L 281.8575 218.576287 
L 284.3145 213.444225 
L 284.92875 211.50351 
L 285.361 209.383008 
L 285.668125 206.725487 
L 285.88425 202.776059 
L 286.02075 195.903932 
L 286.100375 179.420404 
L 286.15725 95.834471 
L 286.214125 48.504831 
L 286.282375 60.738861 
L 287.02175 259.489842 
L 287.124125 260.029093 
L 287.169625 259.961883 
L 287.306125 259.184999 
L 287.738375 254.917795 
L 288.819 244.708298 
L 289.7745 237.782384 
L 290.741375 232.33807 
L 291.719625 228.054439 
L 292.732 224.596054 
L 293.812625 221.684403 
L 295.086625 218.899838 
L 297.80525 213.179411 
L 298.385375 211.25134 
L 298.794875 209.117196 
L 299.090625 206.361502 
L 299.295375 202.248453 
L 299.431875 194.079726 
L 299.500125 176.248745 
L 299.613875 48.634914 
L 299.739 83.096492 
L 300.285 255.608557 
L 300.467 259.911851 
L 300.523875 260.028042 
L 300.569375 259.943302 
L 300.71725 259.046416 
L 301.21775 254.019286 
L 302.252875 244.381069 
L 303.208375 237.529085 
L 304.17525 232.142186 
L 305.1535 227.902951 
L 306.165875 224.478593 
L 307.2465 221.591997 
L 308.531875 218.801619 
L 311.170875 213.270213 
L 311.762375 211.340919 
L 312.18325 209.190694 
L 312.479 206.503723 
L 312.68375 202.588201 
L 312.82025 195.286343 
L 312.899875 176.052648 
L 313.00225 48.648704 
L 313.127375 78.843899 
L 313.696125 256.233688 
L 313.878125 259.960683 
L 313.923625 260.027713 
L 313.969125 259.942023 
L 314.117 259.043521 
L 314.6175 254.015845 
L 315.652625 244.379042 
L 316.608125 237.528328 
L 317.575 232.142584 
L 318.55325 227.904389 
L 319.565625 224.481001 
L 320.64625 221.595408 
L 321.931625 218.806416 
L 324.582 213.25209 
L 325.1735 211.315753 
L 325.594375 209.150056 
L 325.890125 206.427196 
L 326.094875 202.408567 
L 326.231375 194.665781 
L 326.311 172.20489 
L 326.413375 48.506178 
L 326.51575 72.541595 
L 327.118625 257.01989 
L 327.300625 260.007412 
L 327.33475 260.024 
L 327.368875 259.958714 
L 327.505375 259.177503 
L 327.949 254.788707 
L 329.01825 244.702909 
L 329.97375 237.780625 
L 330.940625 232.339641 
L 331.918875 228.059028 
L 332.93125 224.603473 
L 334.011875 221.694761 
L 335.285875 218.914225 
L 338.02725 213.156134 
L 338.607375 211.221506 
L 339.016875 209.07149 
L 339.312625 206.276323 
L 339.517375 202.04386 
L 339.6425 194.664569 
L 339.722125 172.20009 
L 339.8245 48.506709 
L 339.926875 72.545182 
L 340.52975 257.020145 
L 340.71175 260.007236 
L 340.745875 260.023805 
L 340.78 259.958507 
L 340.9165 259.177295 
L 341.360125 254.78868 
L 342.429375 244.703553 
L 343.384875 237.781953 
L 344.35175 232.341675 
L 345.33 228.061759 
L 346.342375 224.606915 
L 347.423 221.699018 
L 348.697 218.919731 
L 351.438375 213.170554 
L 352.0185 211.244508 
L 352.428 209.111129 
L 352.72375 206.35461 
L 352.9285 202.236646 
L 353.065 194.042352 
L 353.13325 176.073819 
L 353.247 48.650375 
L 353.372125 83.219104 
L 353.918125 255.625848 
L 354.100125 259.912552 
L 354.157 260.027161 
L 354.2025 259.941583 
L 354.350375 259.04337 
L 354.850875 254.016478 
L 355.886 244.381517 
L 356.8415 237.532753 
L 357.808375 232.149043 
L 358.786625 227.912873 
L 359.799 224.491571 
L 360.879625 221.6084 
L 362.165 218.82322 
L 364.82675 213.263553 
L 365.41825 211.337538 
L 365.839125 209.190531 
L 366.134875 206.508227 
L 366.339625 202.603479 
L 366.476125 195.343963 
L 366.55575 176.397477 
L 366.6695 48.625577 
L 366.794625 83.003772 
L 367.340625 255.594175 
L 367.522625 259.909712 
L 367.5795 260.027213 
L 367.625 259.94322 
L 367.772875 259.047783 
L 368.273375 254.022408 
L 369.3085 244.386793 
L 370.264 237.537691 
L 371.230875 232.153897 
L 372.209125 227.917815 
L 373.2215 224.496761 
L 374.302125 221.614076 
L 375.5875 218.829961 
L 378.260625 213.248389 
L 378.852125 211.316783 
L 379.273 209.157305 
L 379.56875 206.445986 
L 379.7735 202.458104 
L 379.91 194.846661 
L 379.989625 173.388244 
L 380.092 48.514657 
L 380.20575 76.137441 
L 380.785875 256.439429 
L 380.967875 259.973878 
L 381.013375 260.024497 
L 381.058875 259.927086 
L 381.218125 258.913856 
L 381.79825 253.029642 
L 382.79925 243.891053 
L 383.75475 237.153576 
L 384.721625 231.856403 
L 385.699875 227.687178 
L 386.71225 224.317196 
L 387.80425 221.445019 
L 389.112375 218.645029 
L 391.637625 213.402375 
L 392.251875 211.455324 
L 392.684125 209.314357 
L 392.99125 206.604466 
L 393.207375 202.494477 
L 393.343875 194.974938 
L 393.4235 174.198083 
L 393.525875 48.536256 
L 393.639625 75.683476 
L 394.21975 256.381043 
L 394.40175 259.969732 
L 394.44725 260.025025 
L 394.49275 259.930969 
L 394.640625 259.018143 
L 395.1525 253.866476 
L 396.17625 244.359094 
L 397.13175 237.517871 
L 398.098625 232.140526 
L 399.076875 227.909719 
L 400.08925 224.493047 
L 401.169875 221.614155 
L 402.45525 218.834008 
L 405.13975 213.236217 
L 405.73125 211.302042 
L 406.152125 209.135426 
L 406.447875 206.40645 
L 406.652625 202.366379 
L 406.789125 194.524725 
L 406.86875 171.281729 
L 406.971125 48.520629 
L 407.0735 73.00334 
L 407.676375 257.070761 
L 407.858375 260.008514 
L 407.8925 260.021731 
L 407.926625 259.953838 
L 408.063125 259.166801 
L 408.50675 254.775833 
L 409.576 244.696893 
L 410.5315 237.78095 
L 411.498375 232.345936 
L 412.476625 228.070843 
L 413.489 224.620577 
L 414.569625 221.717507 
L 415.843625 218.94496 
L 418.619125 213.14555 
L 419.19925 211.215443 
L 419.60875 209.069503 
L 419.9045 206.279939 
L 420.10925 202.060425 
L 420.234375 194.727847 
L 420.314 172.633876 
L 420.416375 48.509148 
L 420.530125 76.549514 
L 421.11025 256.491117 
L 421.29225 259.976692 
L 421.33775 260.023145 
L 421.38325 259.922765 
L 421.5425 258.90426 
L 422.122625 253.018868 
L 423.123625 243.884682 
L 424.079125 237.151174 
L 425.046 231.857591 
L 426.02425 227.691582 
L 427.036625 224.324594 
L 428.128625 221.455546 
L 429.43675 218.659954 
L 431.98475 213.380391 
L 432.587625 211.472303 
L 433.019875 209.346675 
L 433.327 206.67001 
L 433.543125 202.657236 
L 433.679625 195.531393 
L 433.75925 177.469603 
L 433.873 48.558587 
L 433.998125 82.263323 
L 434.544125 255.483787 
L 434.726125 259.899322 
L 434.783 260.026857 
L 434.839875 259.90988 
L 434.999125 258.874045 
L 435.602 252.749355 
L 436.591625 243.766555 
L 437.547125 237.060276 
L 438.514 231.787953 
L 439.49225 227.638456 
L 440.504625 224.284197 
L 441.596625 221.424745 
L 442.90475 218.636078 
L 445.43 213.414663 
L 446.04425 211.480008 
L 446.4765 209.360783 
L 446.783625 206.698062 
L 446.99975 202.725674 
L 447.13625 195.758021 
L 447.215875 178.693062 
L 447.284125 70.69511 
L 447.329625 48.514491 
L 447.397875 61.200408 
L 448.125875 259.360137 
L 448.239625 260.026848 
L 448.27375 259.985273 
L 448.398875 259.342807 
L 448.77425 255.740585 
L 449.9345 244.704322 
L 450.89 237.789171 
L 451.856875 232.355289 
L 452.835125 228.081518 
L 453.8475 224.632787 
L 454.928125 221.731705 
L 456.202125 218.962552 
L 459.000375 213.127549 
L 459.5805 211.193392 
L 459.99 209.036638 
L 460.28575 206.219315 
L 460.4905 201.913708 
L 460.615625 194.239441 
L 460.683875 177.047894 
L 460.797625 48.583737 
L 460.92275 82.565773 
L 461.46875 255.528625 
L 461.65075 259.902846 
L 461.707625 260.026311 
L 461.7645 259.906679 
L 461.92375 258.867225 
L 462.538 252.625643 
L 463.527625 243.671749 
L 464.483125 236.988307 
L 465.45 231.734005 
L 466.42825 227.598666 
L 467.440625 224.25552 
L 468.532625 221.404781 
L 469.852125 218.600843 
L 470 218.311488 
L 470.011375 218.512407 
L 470.20475 219.34254 
L 470.648375 220.190693 
L 471.421875 221.155458 
L 472.57075 222.230961 
L 473.913 223.185779 
L 475.357625 223.937852 
L 476.98425 224.530624 
L 478.89525 224.983801 
L 481.3295 225.321543 
L 484.71925 225.550659 
L 490.304375 225.677347 
L 504.8075 225.712871 
L 561 225.699771 
L 561 225.699771 
" clip-path="url(#pfeb9fd2c2e)" style="fill: none; stroke: #1f77b4; stroke-width: 1.5; stroke-linecap: square"/>
   </g>
   <g id="text_1">
    <!-- 0.15 nA -->
    <g transform="translate(37.75 53.256) scale(0.2 -0.2)">
     <defs>
      <path id="DejaVuSans-30" d="M 2034 4250 
Q 1547 4250 1301 3770 
Q 1056 3291 1056 2328 
Q 1056 1369 1301 889 
Q 1547 409 2034 409 
Q 2525 409 2770 889 
Q 3016 1369 3016 2328 
Q 3016 3291 2770 3770 
Q 2525 4250 2034 4250 
z
M 2034 4750 
Q 2819 4750 3233 4129 
Q 3647 3509 3647 2328 
Q 3647 1150 3233 529 
Q 2819 -91 2034 -91 
Q 1250 -91 836 529 
Q 422 1150 422 2328 
Q 422 3509 836 4129 
Q 1250 4750 2034 4750 
z
" transform="scale(0.015625)"/>
      <path id="DejaVuSans-2e" d="M 684 794 
L 1344 794 
L 1344 0 
L 684 0 
L 684 794 
z
" transform="scale(0.015625)"/>
      <path id="DejaVuSans-31" d="M 794 531 
L 1825 531 
L 1825 4091 
L 703 3866 
L 703 4441 
L 1819 4666 
L 2450 4666 
L 2450 531 
L 3481 531 
L 3481 0 
L 794 0 
L 794 531 
z
" transform="scale(0.015625)"/>
      <path id="DejaVuSans-35" d="M 691 4666 
L 3169 4666 
L 3169 4134 
L 1269 4134 
L 1269 2991 
Q 1406 3038 1543 3061 
Q 1681 3084 1819 3084 
Q 2600 3084 3056 2656 
Q 3513 2228 3513 1497 
Q 3513 744 3044 326 
Q 2575 -91 1722 -91 
Q 1428 -91 1123 -41 
Q 819 9 494 109 
L 494 744 
Q 775 591 1075 516 
Q 1375 441 1709 441 
Q 2250 441 2565 725 
Q 2881 1009 2881 1497 
Q 2881 1984 2565 2268 
Q 2250 2553 1709 2553 
Q 1456 2553 1204 2497 
Q 953 2441 691 2322 
L 691 4666 
z
" transform="scale(0.015625)"/>
      <path id="DejaVuSans-20" transform="scale(0.015625)"/>
      <path id="DejaVuSans-6e" d="M 3513 2113 
L 3513 0 
L 2938 0 
L 2938 2094 
Q 2938 2591 2744 2837 
Q 2550 3084 2163 3084 
Q 1697 3084 1428 2787 
Q 1159 2491 1159 1978 
L 1159 0 
L 581 0 
L 581 3500 
L 1159 3500 
L 1159 2956 
Q 1366 3272 1645 3428 
Q 1925 3584 2291 3584 
Q 2894 3584 3203 3211 
Q 3513 2838 3513 2113 
z
" transform="scale(0.015625)"/>
      <path id="DejaVuSans-41" d="M 2188 4044 
L 1331 1722 
L 3047 1722 
L 2188 4044 
z
M 1831 4666 
L 2547 4666 
L 4325 0 
L 3669 0 
L 3244 1197 
L 1141 1197 
L 716 0 
L 50 0 
L 1831 4666 
z
" transform="scale(0.015625)"/>
     </defs>
     <use xlink:href="#DejaVuSans-30"/>
     <use xlink:href="#DejaVuSans-2e" x="63.623047"/>
     <use xlink:href="#DejaVuSans-31" x="95.410156"/>
     <use xlink:href="#DejaVuSans-35" x="159.033203"/>
     <use xlink:href="#DejaVuSans-20" x="222.65625"/>
     <use xlink:href="#DejaVuSans-6e" x="254.443359"/>
     <use xlink:href="#DejaVuSans-41" x="317.822266"/>
    </g>
   </g>
   <g id="text_2">
    <!-- Saudargiene 2015 -->
    <g transform="translate(187.2125 31.56) scale(0.22 -0.22)">
     <defs>
      <path id="DejaVuSans-53" d="M 3425 4513 
L 3425 3897 
Q 3066 4069 2747 4153 
Q 2428 4238 2131 4238 
Q 1616 4238 1336 4038 
Q 1056 3838 1056 3469 
Q 1056 3159 1242 3001 
Q 1428 2844 1947 2747 
L 2328 2669 
Q 3034 2534 3370 2195 
Q 3706 1856 3706 1288 
Q 3706 609 3251 259 
Q 2797 -91 1919 -91 
Q 1588 -91 1214 -16 
Q 841 59 441 206 
L 441 856 
Q 825 641 1194 531 
Q 1563 422 1919 422 
Q 2459 422 2753 634 
Q 3047 847 3047 1241 
Q 3047 1584 2836 1778 
Q 2625 1972 2144 2069 
L 1759 2144 
Q 1053 2284 737 2584 
Q 422 2884 422 3419 
Q 422 4038 858 4394 
Q 1294 4750 2059 4750 
Q 2388 4750 2728 4690 
Q 3069 4631 3425 4513 
z
" transform="scale(0.015625)"/>
      <path id="DejaVuSans-61" d="M 2194 1759 
Q 1497 1759 1228 1600 
Q 959 1441 959 1056 
Q 959 750 1161 570 
Q 1363 391 1709 391 
Q 2188 391 2477 730 
Q 2766 1069 2766 1631 
L 2766 1759 
L 2194 1759 
z
M 3341 1997 
L 3341 0 
L 2766 0 
L 2766 531 
Q 2569 213 2275 61 
Q 1981 -91 1556 -91 
Q 1019 -91 701 211 
Q 384 513 384 1019 
Q 384 1609 779 1909 
Q 1175 2209 1959 2209 
L 2766 2209 
L 2766 2266 
Q 2766 2663 2505 2880 
Q 2244 3097 1772 3097 
Q 1472 3097 1187 3025 
Q 903 2953 641 2809 
L 641 3341 
Q 956 3463 1253 3523 
Q 1550 3584 1831 3584 
Q 2591 3584 2966 3190 
Q 3341 2797 3341 1997 
z
" transform="scale(0.015625)"/>
      <path id="DejaVuSans-75" d="M 544 1381 
L 544 3500 
L 1119 3500 
L 1119 1403 
Q 1119 906 1312 657 
Q 1506 409 1894 409 
Q 2359 409 2629 706 
Q 2900 1003 2900 1516 
L 2900 3500 
L 3475 3500 
L 3475 0 
L 2900 0 
L 2900 538 
Q 2691 219 2414 64 
Q 2138 -91 1772 -91 
Q 1169 -91 856 284 
Q 544 659 544 1381 
z
M 1991 3584 
L 1991 3584 
z
" transform="scale(0.015625)"/>
      <path id="DejaVuSans-64" d="M 2906 2969 
L 2906 4863 
L 3481 4863 
L 3481 0 
L 2906 0 
L 2906 525 
Q 2725 213 2448 61 
Q 2172 -91 1784 -91 
Q 1150 -91 751 415 
Q 353 922 353 1747 
Q 353 2572 751 3078 
Q 1150 3584 1784 3584 
Q 2172 3584 2448 3432 
Q 2725 3281 2906 2969 
z
M 947 1747 
Q 947 1113 1208 752 
Q 1469 391 1925 391 
Q 2381 391 2643 752 
Q 2906 1113 2906 1747 
Q 2906 2381 2643 2742 
Q 2381 3103 1925 3103 
Q 1469 3103 1208 2742 
Q 947 2381 947 1747 
z
" transform="scale(0.015625)"/>
      <path id="DejaVuSans-72" d="M 2631 2963 
Q 2534 3019 2420 3045 
Q 2306 3072 2169 3072 
Q 1681 3072 1420 2755 
Q 1159 2438 1159 1844 
L 1159 0 
L 581 0 
L 581 3500 
L 1159 3500 
L 1159 2956 
Q 1341 3275 1631 3429 
Q 1922 3584 2338 3584 
Q 2397 3584 2469 3576 
Q 2541 3569 2628 3553 
L 2631 2963 
z
" transform="scale(0.015625)"/>
      <path id="DejaVuSans-67" d="M 2906 1791 
Q 2906 2416 2648 2759 
Q 2391 3103 1925 3103 
Q 1463 3103 1205 2759 
Q 947 2416 947 1791 
Q 947 1169 1205 825 
Q 1463 481 1925 481 
Q 2391 481 2648 825 
Q 2906 1169 2906 1791 
z
M 3481 434 
Q 3481 -459 3084 -895 
Q 2688 -1331 1869 -1331 
Q 1566 -1331 1297 -1286 
Q 1028 -1241 775 -1147 
L 775 -588 
Q 1028 -725 1275 -790 
Q 1522 -856 1778 -856 
Q 2344 -856 2625 -561 
Q 2906 -266 2906 331 
L 2906 616 
Q 2728 306 2450 153 
Q 2172 0 1784 0 
Q 1141 0 747 490 
Q 353 981 353 1791 
Q 353 2603 747 3093 
Q 1141 3584 1784 3584 
Q 2172 3584 2450 3431 
Q 2728 3278 2906 2969 
L 2906 3500 
L 3481 3500 
L 3481 434 
z
" transform="scale(0.015625)"/>
      <path id="DejaVuSans-69" d="M 603 3500 
L 1178 3500 
L 1178 0 
L 603 0 
L 603 3500 
z
M 603 4863 
L 1178 4863 
L 1178 4134 
L 603 4134 
L 603 4863 
z
" transform="scale(0.015625)"/>
      <path id="DejaVuSans-65" d="M 3597 1894 
L 3597 1613 
L 953 1613 
Q 991 1019 1311 708 
Q 1631 397 2203 397 
Q 2534 397 2845 478 
Q 3156 559 3463 722 
L 3463 178 
Q 3153 47 2828 -22 
Q 2503 -91 2169 -91 
Q 1331 -91 842 396 
Q 353 884 353 1716 
Q 353 2575 817 3079 
Q 1281 3584 2069 3584 
Q 2775 3584 3186 3129 
Q 3597 2675 3597 1894 
z
M 3022 2063 
Q 3016 2534 2758 2815 
Q 2500 3097 2075 3097 
Q 1594 3097 1305 2825 
Q 1016 2553 972 2059 
L 3022 2063 
z
" transform="scale(0.015625)"/>
      <path id="DejaVuSans-32" d="M 1228 531 
L 3431 531 
L 3431 0 
L 469 0 
L 469 531 
Q 828 903 1448 1529 
Q 2069 2156 2228 2338 
Q 2531 2678 2651 2914 
Q 2772 3150 2772 3378 
Q 2772 3750 2511 3984 
Q 2250 4219 1831 4219 
Q 1534 4219 1204 4116 
Q 875 4013 500 3803 
L 500 4441 
Q 881 4594 1212 4672 
Q 1544 4750 1819 4750 
Q 2544 4750 2975 4387 
Q 3406 4025 3406 3419 
Q 3406 3131 3298 2873 
Q 3191 2616 2906 2266 
Q 2828 2175 2409 1742 
Q 1991 1309 1228 531 
z
" transform="scale(0.015625)"/>
     </defs>
     <use xlink:href="#DejaVuSans-53"/>
     <use xlink:href="#DejaVuSans-61" x="63.476562"/>
     <use xlink:href="#DejaVuSans-75" x="124.755859"/>
     <use xlink:href="#DejaVuSans-64" x="188.134766"/>
     <use xlink:href="#DejaVuSans-61" x="251.611328"/>
     <use xlink:href="#DejaVuSans-72" x="312.890625"/>
     <use xlink:href="#DejaVuSans-67" x="352.253906"/>
     <use xlink:href="#DejaVuSans-69" x="415.730469"/>
     <use xlink:href="#DejaVuSans-65" x="443.513672"/>
     <use xlink:href="#DejaVuSans-6e" x="505.037109"/>
     <use xlink:href="#DejaVuSans-65" x="568.416016"/>
     <use xlink:href="#DejaVuSans-20" x="629.939453"/>
     <use xlink:href="#DejaVuSans-32" x="661.726562"/>
     <use xlink:href="#DejaVuSans-30" x="725.349609"/>
     <use xlink:href="#DejaVuSans-31" x="788.972656"/>
     <use xlink:href="#DejaVuSans-35" x="852.595703"/>
    </g>
   </g>
   <g id="patch_2">
    <path d="M 406.3 273 
L 424.5 273 
L 424.5 37.56 
L 406.3 37.56 
L 406.3 273 
z
" clip-path="url(#pfeb9fd2c2e)" style="fill: none; opacity: 0.5; stroke: #000000; stroke-linejoin: miter"/>
   </g>
   <g id="patch_3">
    <path d="M 561 214.14 
Q 492.75 243.57 424.5 273 
" style="fill: none; opacity: 0.5; stroke: #000000; stroke-linecap: round"/>
   </g>
   <g id="patch_4">
    <path d="M 561 72.876 
Q 492.75 55.218 424.5 37.56 
" style="fill: none; opacity: 0.5; stroke: #000000; stroke-linecap: round"/>
   </g>
   <g id="axes_2">
    <g id="patch_5">
     <path d="M 500.94 214.14 
L 561 214.14 
L 561 72.876 
L 500.94 72.876 
z
" style="fill: #ffffff"/>
    </g>
    <g id="matplotlib.axis_1">
     <g id="xtick_1"/>
     <g id="xtick_2"/>
     <g id="xtick_3"/>
    </g>
    <g id="matplotlib.axis_2">
     <g id="ytick_1"/>
     <g id="ytick_2"/>
     <g id="ytick_3"/>
     <g id="ytick_4"/>
     <g id="ytick_5"/>
     <g id="ytick_6"/>
    </g>
    <g id="line2d_2">
     <path d="M 500.902463 175.195104 
L 501.465525 174.093531 
L 501.878438 172.81927 
L 502.216275 171.046829 
L 502.479038 168.36251 
L 502.666725 163.96668 
L 502.816875 153.109038 
L 502.929488 121.312281 
L 503.117175 79.738541 
L 503.154713 79.452377 
L 503.19225 79.837224 
L 503.3424 85.182662 
L 503.755313 112.704906 
L 504.39345 149.915106 
L 504.69375 174.157438 
L 505.031588 196.681483 
L 505.331888 203.13777 
L 505.632188 205.452807 
L 505.932488 206.233772 
L 506.157713 206.356414 
L 506.420475 206.233459 
L 506.833388 205.73034 
L 507.659213 204.280681 
L 510.5496 199.038064 
L 512.388938 196.231295 
L 514.265813 193.765871 
L 516.217763 191.565437 
L 518.244788 189.613413 
L 520.384425 187.863309 
L 522.636675 186.307238 
L 525.11415 184.869337 
L 527.891925 183.5196 
L 531.232763 182.152741 
L 536.6757 180.209669 
L 540.466988 178.754262 
L 542.456475 177.760374 
L 543.770288 176.864831 
L 544.708725 175.962307 
L 545.3844 175.020023 
L 545.909925 173.918314 
L 546.322838 172.533504 
L 546.660675 170.515684 
L 546.8859 167.862369 
L 547.073588 162.662536 
L 547.1862 153.920326 
L 547.298813 123.964809 
L 547.4865 79.87465 
L 547.524038 79.445489 
L 547.561575 79.740254 
L 547.711725 84.879826 
L 548.124638 112.275463 
L 548.762775 149.567669 
L 549.063075 173.550807 
L 549.400913 196.466764 
L 549.701213 203.062565 
L 550.001513 205.425593 
L 550.301813 206.226203 
L 550.527038 206.356347 
L 550.7898 206.238479 
L 551.202713 205.739409 
L 552.028538 204.292199 
L 554.918925 199.048361 
L 556.758263 196.240429 
L 558.635138 193.774036 
L 560.587088 191.572788 
L 561 191.149275 
L 561 191.149275 
" clip-path="url(#pc02599b4f0)" style="fill: none; stroke: #1f77b4; stroke-width: 1.5; stroke-linecap: square"/>
    </g>
    <g id="patch_6">
     <path d="M 500.94 214.14 
L 500.94 72.876 
" style="fill: none; stroke: #000000; stroke-width: 0.8; stroke-linejoin: miter; stroke-linecap: square"/>
    </g>
    <g id="patch_7">
     <path d="M 500.94 214.14 
L 561 214.14 
" style="fill: none; stroke: #000000; stroke-width: 0.8; stroke-linejoin: miter; stroke-linecap: square"/>
    </g>
   </g>
  </g>
 </g>
 <defs>
  <clipPath id="pfeb9fd2c2e">
   <rect x="15" y="37.56" width="546" height="235.44"/>
  </clipPath>
  <clipPath id="pc02599b4f0">
   <rect x="500.94" y="72.876" width="60.06" height="141.264"/>
  </clipPath>
 </defs>
</svg>
