<?xml version="1.0" encoding="utf-8" standalone="no"?>
<!DOCTYPE svg PUBLIC "-//W3C//DTD SVG 1.1//EN"
  "http://www.w3.org/Graphics/SVG/1.1/DTD/svg11.dtd">
<svg xmlns:xlink="http://www.w3.org/1999/xlink" width="576pt" height="288pt" viewBox="0 0 576 288" xmlns="http://www.w3.org/2000/svg" version="1.1">
 <metadata>
  <rdf:RDF xmlns:dc="http://purl.org/dc/elements/1.1/" xmlns:cc="http://creativecommons.org/ns#" xmlns:rdf="http://www.w3.org/1999/02/22-rdf-syntax-ns#">
   <cc:Work>
    <dc:type rdf:resource="http://purl.org/dc/dcmitype/StillImage"/>
    <dc:date>2024-09-24T18:30:33.658179</dc:date>
    <dc:format>image/svg+xml</dc:format>
    <dc:creator>
     <cc:Agent>
      <dc:title>Matplotlib v3.7.4, https://matplotlib.org/</dc:title>
     </cc:Agent>
    </dc:creator>
   </cc:Work>
  </rdf:RDF>
 </metadata>
 <defs>
  <style type="text/css">*{stroke-linejoin: round; stroke-linecap: butt}</style>
 </defs>
 <g id="figure_1">
  <g id="patch_1">
   <path d="M 0 288 
L 576 288 
L 576 0 
L 0 0 
z
" style="fill: #ffffff"/>
  </g>
  <g id="axes_1">
   <g id="line2d_1">
    <path d="M 15 233.76 
L 15.62335 244.294296 
L 16.01465 247.420202 
L 16.380925 248.767063 
L 16.72445 249.287218 
L 17.058875 249.423692 
L 17.47065 249.334815 
L 18.28055 248.874227 
L 19.479475 248.2672 
L 20.5055 248.011028 
L 21.91145 247.911981 
L 27.4488 247.925032 
L 106.002275 247.839235 
L 106.7462 215.804536 
L 106.853125 195.105164 
L 106.91 123.179279 
L 106.9373 89.014638 
L 107.00555 158.961684 
L 107.221675 263.279825 
L 107.335425 265.703632 
L 107.371825 265.574684 
L 107.494675 264.024888 
L 107.904175 255.167584 
L 108.632175 240.975237 
L 109.2669 232.992801 
L 110.79115 215.563686 
L 110.943575 208.352063 
L 111.039125 190.743476 
L 111.1051 117.996747 
L 111.125575 103.444253 
L 111.187 155.222777 
L 111.4145 262.018207 
L 111.53735 264.833854 
L 111.5692 264.737223 
L 111.680675 263.427628 
L 112.031025 255.932983 
L 112.8523 239.198964 
L 113.518875 230.380704 
L 114.515325 217.777993 
L 114.69505 211.262702 
L 114.80425 197.480425 
L 114.870225 151.091759 
L 114.9089 102.424346 
L 114.974875 158.011956 
L 115.2001 262.190005 
L 115.320675 264.894306 
L 115.352525 264.79916 
L 115.461725 263.529191 
L 115.80525 256.221565 
L 116.635625 239.310351 
L 117.299925 230.563529 
L 118.332775 217.633686 
L 118.510225 211.136907 
L 118.61715 197.69602 
L 118.683125 152.617632 
L 118.724075 102.497723 
L 118.79005 159.212943 
L 119.015275 262.261903 
L 119.133575 264.889541 
L 119.1677 264.787359 
L 119.28145 263.430632 
L 119.6409 255.705478 
L 120.448525 239.317917 
L 121.112825 230.562562 
L 122.145675 217.605151 
L 122.323125 211.046047 
L 122.43005 197.309817 
L 122.496025 150.224072 
L 122.5347 102.482625 
L 122.600675 158.506342 
L 122.8259 262.215004 
L 122.946475 264.889988 
L 122.978325 264.792239 
L 123.0898 263.480749 
L 123.442425 255.938299 
L 124.25915 239.330979 
L 124.92345 230.572426 
L 125.9563 217.627064 
L 126.13375 211.108248 
L 126.240675 197.567522 
L 126.30665 151.812878 
L 126.3476 102.516742 
L 126.4113 157.619417 
L 126.636525 262.154497 
L 126.7571 264.889945 
L 126.78895 264.797734 
L 126.89815 263.533151 
L 127.241675 256.228789 
L 128.07205 239.310476 
L 128.73635 230.557729 
L 129.766925 217.649092 
L 129.944375 211.169516 
L 130.053575 197.224836 
L 130.11955 149.70062 
L 130.158225 102.481598 
L 130.2242 158.794466 
L 130.449425 262.234506 
L 130.57 264.889931 
L 130.60185 264.790385 
L 130.713325 263.475535 
L 131.06595 255.930727 
L 131.882675 239.325839 
L 132.546975 230.568704 
L 133.579825 217.619461 
L 133.757275 211.086963 
L 133.8642 197.479855 
L 133.930175 151.27347 
L 133.96885 102.50847 
L 134.034825 157.923525 
L 134.26005 262.175224 
L 134.380625 264.889935 
L 134.412475 264.795828 
L 134.521675 263.527751 
L 134.8652 256.220879 
L 135.695575 239.305142 
L 136.359875 230.553899 
L 137.39045 217.641394 
L 137.5679 211.148093 
L 137.674825 197.730566 
L 137.7408 152.813863 
L 137.78175 102.487217 
L 137.847725 159.099977 
L 138.07295 262.255066 
L 138.193525 264.889874 
L 138.225375 264.788434 
L 138.33685 263.470035 
L 138.689475 255.922749 
L 139.5062 239.320484 
L 140.1705 230.564895 
L 141.20335 217.611899 
L 141.3808 211.065833 
L 141.487725 197.392648 
L 141.5537 150.736497 
L 141.592375 102.491813 
L 141.65835 158.223236 
L 141.883575 262.195737 
L 142.00415 264.889984 
L 142.036 264.794001 
L 142.147475 263.485816 
L 142.497825 255.999172 
L 143.3191 239.299911 
L 143.9834 230.55017 
L 145.013975 217.633992 
L 145.191425 211.127506 
L 145.29835 197.64644 
L 145.364325 152.297972 
L 145.405275 102.498975 
L 145.468975 157.343241 
L 145.696475 262.274815 
L 145.814775 264.889998 
L 145.8489 264.786552 
L 145.96265 263.427619 
L 146.3221 255.701023 
L 147.129725 239.31534 
L 147.794025 230.56125 
L 148.826875 217.604747 
L 149.004325 211.045844 
L 149.11125 197.309991 
L 149.177225 150.226569 
L 149.2159 102.483243 
L 149.281875 158.505069 
L 149.5071 262.214851 
L 149.627675 264.889955 
L 149.659525 264.792217 
L 149.771 263.480749 
L 150.123625 255.938309 
L 150.94035 239.330951 
L 151.60465 230.572361 
L 152.6375 217.626747 
L 152.81495 211.107286 
L 152.921875 197.56349 
L 152.98785 151.787943 
L 153.0288 102.517782 
L 153.0925 157.633522 
L 153.317725 262.155456 
L 153.4383 264.889944 
L 153.47015 264.797645 
L 153.57935 263.532901 
L 153.922875 256.228423 
L 154.75325 239.310231 
L 155.41755 230.557554 
L 156.448125 217.648746 
L 156.625575 211.168556 
L 156.734775 197.220764 
L 156.80075 149.675524 
L 156.839425 102.481676 
L 156.9054 158.80818 
L 157.130625 262.235443 
L 157.2512 264.889935 
L 157.28305 264.790303 
L 157.394525 263.475292 
L 157.74715 255.930372 
L 158.563875 239.325602 
L 159.228175 230.568539 
L 160.261025 217.619144 
L 160.438475 211.086083 
L 160.5454 197.476233 
L 160.611375 151.251195 
L 160.65005 102.507665 
L 160.716025 157.936048 
L 160.94125 262.176082 
L 161.061825 264.889935 
L 161.093675 264.79575 
L 161.202875 263.527528 
L 161.5464 256.220552 
L 162.376775 239.304922 
L 163.041075 230.553742 
L 164.07165 217.641081 
L 164.2491 211.147225 
L 164.356025 197.727027 
L 164.422 152.792181 
L 164.46295 102.487616 
L 164.528925 159.112411 
L 164.75415 262.255896 
L 164.874725 264.889868 
L 164.906575 264.78835 
L 165.01805 263.469808 
L 165.370675 255.922422 
L 166.1874 239.320264 
L 166.8517 230.564736 
L 167.88455 217.611578 
L 168.062 211.064932 
L 168.168925 197.388919 
L 168.2349 150.713511 
L 168.273575 102.491274 
L 168.33955 158.235996 
L 168.564775 262.196601 
L 168.68535 264.889983 
L 168.7172 264.793921 
L 168.828675 263.485587 
L 169.179025 255.998839 
L 170.0003 239.299686 
L 170.6646 230.550008 
L 171.695175 217.633664 
L 171.872625 211.126589 
L 171.97955 197.642679 
L 172.045525 152.274869 
L 172.086475 102.499665 
L 172.150175 157.356495 
L 172.377675 262.275684 
L 172.495975 264.889998 
L 172.5301 264.786464 
L 172.64385 263.427378 
L 173.0033 255.700678 
L 173.810925 239.315108 
L 174.475225 230.561084 
L 175.508075 217.604409 
L 175.685525 211.044894 
L 175.79245 197.306054 
L 175.858425 150.202255 
L 175.8971 102.482985 
L 175.963075 158.518459 
L 176.1883 262.215764 
L 176.308875 264.889955 
L 176.340725 264.792133 
L 176.4522 263.480509 
L 176.804825 255.937959 
L 177.62155 239.330715 
L 178.28585 230.572193 
L 179.3187 217.626412 
L 179.49615 211.106353 
L 179.603075 197.55966 
L 179.66905 151.764359 
L 179.71 102.518833 
L 179.7737 157.646873 
L 179.998925 262.156357 
L 180.1195 264.889939 
L 180.15135 264.797558 
L 180.26055 263.532661 
L 180.604075 256.228074 
L 181.43445 239.309994 
L 182.09875 230.557382 
L 183.129325 217.648389 
L 183.306775 211.167559 
L 183.415975 197.216523 
L 183.48195 149.64938 
L 183.520625 102.481776 
L 183.5866 158.82247 
L 183.811825 262.236419 
L 183.9324 264.889938 
L 183.96425 264.790217 
L 184.075725 263.475039 
L 184.42835 255.930001 
L 185.245075 239.325355 
L 185.909375 230.568366 
L 186.942225 217.618814 
L 187.119675 211.085166 
L 187.2266 197.472458 
L 187.292575 151.227973 
L 187.33125 102.506846 
L 187.397225 157.949082 
L 187.62245 262.176971 
L 187.743025 264.889935 
L 187.774875 264.795668 
L 187.884075 263.527296 
L 188.2276 256.220212 
L 189.057975 239.304692 
L 189.722275 230.553576 
L 190.75285 217.640748 
L 190.9303 211.146298 
L 191.037225 197.723244 
L 191.1032 152.769001 
L 191.14415 102.48806 
L 191.210125 159.125706 
L 191.43535 262.256782 
L 191.55365 264.889899 
L 191.587775 264.788261 
L 191.69925 263.469565 
L 192.051875 255.922072 
L 192.8686 239.320027 
L 193.5329 230.564566 
L 194.56575 217.611233 
L 194.7432 211.063964 
L 194.850125 197.384918 
L 194.9161 150.688841 
L 194.954775 102.490718 
L 195.02075 158.249685 
L 195.245975 262.197526 
L 195.36655 264.88998 
L 195.3984 264.793833 
L 195.509875 263.485341 
L 195.860225 255.998482 
L 196.6815 239.299444 
L 197.3458 230.549833 
L 198.376375 217.633307 
L 198.553825 211.125591 
L 198.66075 197.63859 
L 198.726725 152.249735 
L 198.767675 102.500439 
L 198.831375 157.370919 
L 199.058875 262.276629 
L 199.177175 264.889996 
L 199.2113 264.786368 
L 199.32505 263.427115 
L 199.6845 255.700303 
L 200.492125 239.314855 
L 201.156425 230.560901 
L 202.189275 217.604037 
L 202.366725 211.043849 
L 202.47365 197.30172 
L 202.539625 150.175493 
L 202.5783 102.482726 
L 202.644275 158.533203 
L 202.8695 262.216768 
L 202.990075 264.889954 
L 203.021925 264.79204 
L 203.1334 263.480243 
L 203.486025 255.937573 
L 204.30275 239.330454 
L 204.96705 230.572006 
L 205.9999 217.62604 
L 206.17735 211.105317 
L 206.284275 197.555405 
L 206.35025 151.738171 
L 206.3912 102.519975 
L 206.4549 157.661659 
L 206.680125 262.157366 
L 206.8007 264.88994 
L 206.83255 264.797467 
L 206.94175 263.5324 
L 207.285275 256.227691 
L 208.11565 239.309737 
L 208.77995 230.557197 
L 209.810525 217.648018 
L 209.987975 211.166527 
L 210.097175 197.212141 
L 210.16315 149.622363 
L 210.201825 102.481906 
L 210.2678 158.837244 
L 210.493025 262.237425 
L 210.6136 264.88994 
L 210.64545 264.790127 
L 210.756925 263.474775 
L 211.10955 255.929617 
L 211.926275 239.325099 
L 212.590575 230.568187 
L 213.623425 217.618469 
L 213.800875 211.084207 
L 213.9078 197.468507 
L 213.973775 151.203669 
L 214.01245 102.505994 
L 214.078425 157.962717 
L 214.30365 262.177901 
L 214.424225 264.889934 
L 214.456075 264.795583 
L 214.565275 263.527054 
L 214.9088 256.219857 
L 215.739175 239.304453 
L 216.403475 230.553404 
L 217.43405 217.640401 
L 217.6115 211.14533 
L 217.718425 197.719295 
L 217.7844 152.744794 
L 217.82535 102.488515 
L 217.891325 159.139576 
L 218.11655 262.257709 
L 218.23485 264.889899 
L 218.268975 264.788168 
L 218.38045 263.469311 
L 218.733075 255.921706 
L 219.5498 239.319781 
L 220.2141 230.56439 
L 221.24695 217.610878 
L 221.4244 211.062969 
L 221.531325 197.3808 
L 221.5973 150.663451 
L 221.635975 102.49017 
L 221.70195 158.263778 
L 221.927175 262.198478 
L 222.04775 264.889977 
L 222.0796 264.793743 
L 222.191075 263.485087 
L 222.541425 255.998114 
L 223.3627 239.299195 
L 224.027 230.549652 
L 225.057575 217.632935 
L 225.235025 211.124554 
L 225.34195 197.634336 
L 225.407925 152.223596 
L 225.448875 102.501252 
L 225.512575 157.385893 
L 225.740075 262.277612 
L 225.858375 264.889996 
L 225.8925 264.786269 
L 226.00625 263.426843 
L 226.367975 255.646396 
L 227.173325 239.314592 
L 227.837625 230.560712 
L 228.870475 217.603655 
L 229.047925 211.042774 
L 229.15485 197.297264 
L 229.220825 150.147973 
L 229.2595 102.482487 
L 229.325475 158.548369 
L 229.5507 262.217799 
L 229.671275 264.889953 
L 229.703125 264.791944 
L 229.8146 263.479969 
L 230.167225 255.937175 
L 230.98395 239.330185 
L 231.64825 230.571813 
L 232.6811 217.625654 
L 232.85855 211.10424 
L 232.965475 197.550981 
L 233.03145 151.710956 
L 233.0724 102.521178 
L 233.1361 157.677013 
L 233.361325 262.158416 
L 233.4819 264.889942 
L 233.51375 264.797373 
L 233.62295 263.53213 
L 233.966475 256.227294 
L 234.79685 239.30947 
L 235.46115 230.557007 
L 236.491725 217.64764 
L 236.669175 211.165474 
L 236.778375 197.207671 
L 236.84435 149.594803 
L 236.883025 102.482066 
L 236.949 158.852269 
L 237.174225 262.238443 
L 237.2948 264.88994 
L 237.32665 264.790033 
L 237.438125 263.474506 
L 237.79075 255.929226 
L 238.607475 239.324837 
L 239.271775 230.568001 
L 240.304625 217.618106 
L 240.482075 211.083196 
L 240.589 197.464342 
L 240.654975 151.17804 
L 240.69365 102.505061 
L 240.759625 157.977036 
L 240.98485 262.178887 
L 241.105425 264.88994 
L 241.137275 264.795498 
L 241.246475 263.526803 
L 241.59 256.219486 
L 242.420375 239.304205 
L 243.084675 230.553228 
L 244.11525 217.640059 
L 244.2927 211.144381 
L 244.399625 197.715426 
L 244.4656 152.721081 
L 244.50655 102.488975 
L 244.572525 159.153142 
L 244.79775 262.258618 
L 244.91605 264.889901 
L 244.950175 264.788078 
L 245.06165 263.469064 
L 245.414275 255.921349 
L 246.231 239.319542 
L 246.8953 230.564218 
L 247.92815 217.610535 
L 248.1056 211.062007 
L 248.212525 197.376823 
L 248.2785 150.638926 
L 248.317175 102.489664 
L 248.38315 158.277396 
L 248.608375 262.199396 
L 248.72895 264.889973 
L 248.7608 264.793655 
L 248.872275 263.484841 
L 249.222625 255.997758 
L 250.0439 239.298953 
L 250.7082 230.549476 
L 251.738775 217.632574 
L 251.916225 211.123543 
L 252.02315 197.63019 
L 252.089125 152.19811 
L 252.130075 102.502055 
L 252.193775 157.400457 
L 252.421275 262.278568 
L 252.539575 264.889997 
L 252.5737 264.786173 
L 252.68745 263.426579 
L 253.049175 255.646018 
L 253.854525 239.314337 
L 254.518825 230.56053 
L 255.551675 217.603285 
L 255.729125 211.041736 
L 255.83605 197.292958 
L 255.902025 150.121363 
L 255.9407 102.482277 
L 256.006675 158.563039 
L 256.2319 262.218796 
L 256.352475 264.889951 
L 256.384325 264.79185 
L 256.4958 263.479704 
L 256.848425 255.93679 
L 257.66515 239.329925 
L 258.32945 230.571626 
L 259.3623 217.625279 
L 259.53975 211.103197 
L 259.646675 197.546695 
L 259.71265 151.684585 
L 259.7536 102.52237 
L 259.8173 157.691895 
L 260.042525 262.159432 
L 260.1631 264.889944 
L 260.19495 264.797282 
L 260.30415 263.531867 
L 260.647675 256.226909 
L 261.47805 239.309211 
L 262.14235 230.556822 
L 263.172925 217.64727 
L 263.350375 211.164445 
L 263.459575 197.203299 
L 263.52555 149.567852 
L 263.564225 102.482248 
L 263.6302 158.866916 
L 263.855425 262.239428 
L 263.976 264.889938 
L 264.00785 264.78994 
L 264.119325 263.474243 
L 264.47195 255.928844 
L 265.288675 239.32458 
L 265.952975 230.567818 
L 266.985825 217.617742 
L 267.163275 211.082177 
L 267.2702 197.460138 
L 267.336175 151.152169 
L 267.37485 102.50413 
L 267.440825 157.991475 
L 267.66605 262.179883 
L 267.786625 264.889946 
L 267.818475 264.795413 
L 267.927675 263.526551 
L 268.2712 256.219113 
L 269.101575 239.303955 
L 269.765875 230.553052 
L 270.79645 217.639716 
L 270.9739 211.143431 
L 271.080825 197.711549 
L 271.1468 152.697313 
L 271.18775 102.489452 
L 271.253725 159.166722 
L 271.47895 262.25953 
L 271.59725 264.889903 
L 271.631375 264.787989 
L 271.74285 263.468818 
L 272.095475 255.920992 
L 272.9122 239.319302 
L 273.5765 230.564047 
L 274.60935 217.610193 
L 274.7868 211.06105 
L 274.893725 197.372869 
L 274.9597 150.614542 
L 274.998375 102.489182 
L 275.06435 158.290939 
L 275.289575 262.200308 
L 275.41015 264.889969 
L 275.442 264.793566 
L 275.553475 263.484596 
L 275.903825 255.997403 
L 276.7251 239.298712 
L 277.3894 230.549301 
L 278.419975 217.632211 
L 278.597425 211.122528 
L 278.70435 197.626027 
L 278.770325 152.172519 
L 278.811275 102.502885 
L 278.874975 157.415075 
L 279.102475 262.279525 
L 279.220775 264.889996 
L 279.2549 264.786076 
L 279.36865 263.426313 
L 279.730375 255.645638 
L 280.535725 239.314081 
L 281.200025 230.560345 
L 282.232875 217.602909 
L 282.410325 211.040677 
L 282.51725 197.288566 
L 282.583225 150.09421 
L 282.6219 102.482085 
L 282.687875 158.578013 
L 282.9131 262.219814 
L 283.033675 264.889949 
L 283.065525 264.791755 
L 283.177 263.479433 
L 283.529625 255.936396 
L 284.34635 239.329659 
L 285.01065 230.571435 
L 286.0435 217.624897 
L 286.22095 211.102129 
L 286.327875 197.542306 
L 286.39385 151.657575 
L 286.4348 102.523599 
L 286.4985 157.70713 
L 286.723725 262.160473 
L 286.8443 264.889945 
L 286.87615 264.797188 
L 286.98535 263.531598 
L 287.328875 256.226514 
L 288.15925 239.308945 
L 288.82355 230.556632 
L 289.854125 217.64689 
L 290.031575 211.16339 
L 290.140775 197.198816 
L 290.20675 149.540204 
L 290.245425 102.482461 
L 290.3114 158.881941 
L 290.536625 262.240436 
L 290.6572 264.889934 
L 290.68905 264.789843 
L 290.800525 263.473972 
L 291.15315 255.928451 
L 291.969875 239.324316 
L 292.634175 230.56763 
L 293.667025 217.617364 
L 293.844475 211.08112 
L 293.9514 197.455777 
L 294.017375 151.125324 
L 294.05605 102.503186 
L 294.122025 158.006453 
L 294.34725 262.180915 
L 294.467825 264.889951 
L 294.499675 264.795325 
L 294.608875 263.526288 
L 294.9524 256.218726 
L 295.782775 239.303695 
L 296.447075 230.552869 
L 297.47765 217.639358 
L 297.6551 211.142436 
L 297.762025 197.70749 
L 297.828 152.67242 
L 297.86895 102.489971 
L 297.934925 159.180894 
L 298.16015 262.26048 
L 298.27845 264.889906 
L 298.312575 264.787896 
L 298.426325 263.431472 
L 298.785775 255.706578 
L 299.5934 239.319051 
L 300.2577 230.563868 
L 301.29055 217.609834 
L 301.468 211.060045 
L 301.574925 197.368712 
L 301.6409 150.588904 
L 301.679575 102.4887 
L 301.74555 158.305183 
L 301.970775 262.201265 
L 302.09135 264.889963 
L 302.1232 264.793472 
L 302.234675 263.484337 
L 302.585025 255.997029 
L 303.4063 239.298458 
L 304.0706 230.549115 
L 305.101175 217.631827 
L 305.278625 211.121453 
L 305.38555 197.621614 
L 305.451525 152.145383 
L 305.492475 102.503792 
L 305.556175 157.430564 
L 305.783675 262.280535 
L 305.901975 264.889993 
L 305.9361 264.785971 
L 306.04985 263.426031 
L 306.411575 255.645235 
L 307.216925 239.313809 
L 307.881225 230.560148 
L 308.914075 217.602504 
L 309.091525 211.039536 
L 309.19845 197.283831 
L 309.264425 150.06496 
L 309.3031 102.481898 
L 309.369075 158.594119 
L 309.5943 262.220913 
L 309.714875 264.889949 
L 309.746725 264.791654 
L 309.8582 263.479144 
L 310.210825 255.935974 
L 311.02755 239.329375 
L 311.69185 230.571232 
L 312.7247 217.624494 
L 312.90215 211.101009 
L 313.009075 197.537701 
L 313.07505 151.629229 
L 313.113725 102.522984 
L 313.1797 157.723102 
L 313.404925 262.161563 
L 313.5255 264.889945 
L 313.55735 264.797089 
L 313.66655 263.531316 
L 314.010075 256.226099 
L 314.84045 239.308666 
L 315.50475 230.556432 
L 316.535325 217.646487 
L 316.712775 211.162268 
L 316.821975 197.194047 
L 316.88795 149.510774 
L 316.926625 102.482714 
L 316.9926 158.897941 
L 317.217825 262.241509 
L 317.3384 264.889929 
L 317.37025 264.789739 
L 317.481725 263.473683 
L 317.83435 255.928033 
L 318.651075 239.324035 
L 319.315375 230.567428 
L 320.348225 217.616959 
L 320.525675 211.079989 
L 320.6326 197.451111 
L 320.698575 151.096598 
L 320.73725 102.502205 
L 320.803225 158.022482 
L 321.02845 262.182017 
L 321.149025 264.889956 
L 321.180875 264.795229 
L 321.290075 263.526007 
L 321.6336 256.21831 
L 322.463975 239.303417 
L 323.128275 230.552671 
L 324.15885 217.638969 
L 324.3363 211.141358 
L 324.443225 197.703086 
L 324.5092 152.645423 
L 324.55015 102.490551 
L 324.616125 159.196239 
L 324.84135 262.261512 
L 324.95965 264.88991 
L 324.993775 264.787797 
L 325.107525 263.431192 
L 325.466975 255.706176 
L 326.2746 239.318781 
L 326.9389 230.563675 
L 327.97175 217.609453 
L 328.1492 211.058979 
L 328.256125 197.364303 
L 328.3221 150.561716 
L 328.360775 102.488215 
L 328.42675 158.320275 
L 328.651975 262.20228 
L 328.77255 264.889957 
L 328.8044 264.793373 
L 328.915875 263.484063 
L 329.266225 255.996633 
L 330.0875 239.298188 
L 330.7518 230.548919 
L 331.782375 217.631419 
L 331.959825 211.120311 
L 332.06675 197.616928 
L 332.132725 152.11657 
L 332.173675 102.50478 
L 332.237375 157.446969 
L 332.464875 262.281606 
L 332.583175 264.889992 
L 332.6173 264.785862 
L 332.73105 263.425732 
L 333.092775 255.644809 
L 333.898125 239.313521 
L 334.562425 230.559941 
L 335.595275 217.60208 
L 335.772725 211.038343 
L 335.87965 197.278879 
L 335.945625 150.03437 
L 335.9843 102.481734 
L 336.050275 158.610957 
L 336.2755 262.222061 
L 336.396075 264.889948 
L 336.427925 264.791548 
L 336.5394 263.47884 
L 336.892025 255.935532 
L 337.70875 239.329077 
L 338.37305 230.571019 
L 339.4059 217.624072 
L 339.58335 211.099832 
L 339.690275 197.53286 
L 339.75625 151.599443 
L 339.794925 102.521604 
L 339.8609 157.739887 
L 340.086125 262.162709 
L 340.2067 264.889946 
L 340.23855 264.796984 
L 340.34775 263.531018 
L 340.691275 256.225663 
L 341.52165 239.308372 
L 342.18595 230.556221 
L 343.216525 217.646063 
L 343.393975 211.161087 
L 343.503175 197.189027 
L 343.56915 149.47977 
L 343.607825 102.48301 
L 343.6738 158.914806 
L 343.899025 262.242638 
L 344.0196 264.889923 
L 344.05145 264.789629 
L 344.162925 263.473378 
L 344.51555 255.927591 
L 345.332275 239.323738 
L 345.996575 230.567215 
L 347.029425 217.616531 
L 347.206875 211.078791 
L 347.3138 197.446163 
L 347.379775 151.066134 
L 347.41845 102.501199 
L 347.484425 158.039471 
L 347.70965 262.18318 
L 347.830225 264.889959 
L 347.862075 264.795126 
L 347.971275 263.525707 
L 348.3148 256.21787 
L 349.145175 239.303121 
L 349.809475 230.55246 
L 350.84005 217.63855 
L 351.0175 211.140192 
L 351.124425 197.698324 
L 351.1904 152.616233 
L 351.23135 102.491199 
L 351.297325 159.212832 
L 351.52255 262.262628 
L 351.64085 264.889915 
L 351.674975 264.78769 
L 351.788725 263.430889 
L 352.148175 255.705741 
L 352.9558 239.318489 
L 353.6201 230.563468 
L 354.65295 217.609045 
L 354.8304 211.057836 
L 354.937325 197.359574 
L 355.0033 150.532548 
L 355.041975 102.487724 
L 355.10795 158.336433 
L 355.333175 262.203367 
L 355.45375 264.889951 
L 355.4856 264.793267 
L 355.597075 263.48377 
L 355.947425 255.996209 
L 356.7687 239.2979 
L 357.433 230.548709 
L 358.463575 217.630985 
L 358.641025 211.119096 
L 358.74795 197.611943 
L 358.813925 152.085914 
L 358.854875 102.505864 
L 358.918575 157.464419 
L 359.146075 262.282744 
L 359.264375 264.889989 
L 359.2985 264.785744 
L 359.41225 263.425414 
L 359.773975 255.644355 
L 360.579325 239.313215 
L 361.243625 230.55972 
L 362.276475 217.601626 
L 362.453925 211.037066 
L 362.56085 197.273581 
L 362.626825 150.001639 
L 362.6655 102.481595 
L 362.731475 158.628981 
L 362.9567 262.223288 
L 363.077275 264.889947 
L 363.109125 264.791434 
L 363.2206 263.478515 
L 363.573225 255.935059 
L 364.38995 239.328757 
L 365.05425 230.57079 
L 366.0871 217.623615 
L 366.26455 211.098557 
L 366.371475 197.527615 
L 366.43745 151.567185 
L 366.476125 102.52014 
L 366.5421 157.758062 
L 366.767325 262.163951 
L 366.8879 264.889947 
L 366.91975 264.796872 
L 367.02895 263.530697 
L 367.372475 256.225191 
L 368.20285 239.308053 
L 368.86715 230.555993 
L 369.897725 217.645605 
L 370.075175 211.159814 
L 370.184375 197.183619 
L 370.25035 149.44635 
L 370.289025 102.483343 
L 370.355 158.932936 
L 370.580225 262.243851 
L 370.7008 264.889917 
L 370.73265 264.789511 
L 370.844125 263.47305 
L 371.19675 255.927117 
L 372.013475 239.323419 
L 372.677775 230.566987 
L 373.710625 217.616071 
L 373.888075 211.077504 
L 373.995 197.44085 
L 374.060975 151.033421 
L 374.09965 102.500156 
L 374.165625 158.057721 
L 374.39085 262.184428 
L 374.511425 264.889962 
L 374.543275 264.795014 
L 374.652475 263.525385 
L 374.996 256.217396 
L 375.826375 239.302802 
L 376.490675 230.552233 
L 377.52125 217.638096 
L 377.6987 211.138927 
L 377.805625 197.693155 
L 377.8716 152.584551 
L 377.91255 102.491877 
L 377.978525 159.230821 
L 378.20375 262.263849 
L 378.32205 264.889926 
L 378.356175 264.787579 
L 378.469925 263.430565 
L 378.829375 255.705271 
L 379.637 239.318177 
L 380.3013 230.56325 
L 381.33415 217.608626 
L 381.5116 211.056669 
L 381.618525 197.354757 
L 381.6845 150.502838 
L 381.723175 102.487234 
L 381.78915 158.35288 
L 382.014375 262.204476 
L 382.13495 264.889946 
L 382.1668 264.793159 
L 382.278275 263.483472 
L 382.628625 255.995777 
L 383.4499 239.297607 
L 384.1142 230.548495 
L 385.144775 217.630543 
L 385.322225 211.117859 
L 385.42915 197.606863 
L 385.495125 152.054671 
L 385.536075 102.507005 
L 385.599775 157.48221 
L 385.827275 262.283901 
L 385.945575 264.889985 
L 385.9797 264.785623 
L 386.09345 263.425089 
L 386.455175 255.643892 
L 387.260525 239.312902 
L 387.924825 230.559493 
L 388.957675 217.60116 
L 389.135125 211.035753 
L 389.24205 197.268128 
L 389.308025 149.967953 
L 389.3467 102.481492 
L 389.412675 158.647543 
L 389.6379 262.224545 
L 389.758475 264.889943 
L 389.790325 264.791314 
L 389.9018 263.478178 
L 390.254425 255.934571 
L 391.07115 239.328427 
L 391.73545 230.570552 
L 392.7683 217.623134 
L 392.94575 211.097215 
L 393.052675 197.522089 
L 393.11865 151.533218 
L 393.157325 102.518634 
L 393.2233 157.777185 
L 393.448525 262.165258 
L 393.5691 264.889949 
L 393.60095 264.796754 
L 393.71015 263.530359 
L 394.053675 256.224695 
L 394.88405 239.30772 
L 395.54835 230.555754 
L 396.578925 217.64513 
L 396.756375 211.158493 
L 396.865575 197.178002 
L 396.93155 149.411622 
L 396.970225 102.483665 
L 397.0362 158.951715 
L 397.261425 262.245116 
L 397.382 264.889915 
L 397.41385 264.789392 
L 397.525325 263.472713 
L 397.87795 255.926628 
L 398.694675 239.32309 
L 399.358975 230.566754 
L 400.391825 217.615609 
L 400.569275 211.076214 
L 400.6762 197.435527 
L 400.742175 151.000639 
L 400.78085 102.499151 
L 400.846825 158.076018 
L 401.07205 262.185678 
L 401.192625 264.889963 
L 401.224475 264.794901 
L 401.333675 263.525061 
L 401.6772 256.21692 
L 402.507575 239.302481 
L 403.171875 230.552003 
L 404.20245 217.637634 
L 404.3799 211.137641 
L 404.486825 197.687901 
L 404.5528 152.552345 
L 404.59375 102.492574 
L 404.659725 159.249102 
L 404.88495 262.265092 
L 405.00325 264.889938 
L 405.037375 264.787467 
L 405.151125 263.430236 
L 405.510575 255.704795 
L 406.3182 239.31786 
L 406.9825 230.563029 
L 408.01535 217.608207 
L 408.1928 211.055503 
L 408.299725 197.349939 
L 408.3657 150.473123 
L 408.404375 102.486761 
L 408.47035 158.369282 
L 408.695575 262.205584 
L 408.81615 264.889942 
L 408.848 264.793054 
L 408.959475 263.483176 
L 409.309825 255.995348 
L 410.1311 239.297316 
L 410.7954 230.548284 
L 411.825975 217.630112 
L 412.003425 211.116653 
L 412.11035 197.601914 
L 412.176325 152.02423 
L 412.217275 102.508152 
L 412.280975 157.499551 
L 412.508475 262.285028 
L 412.626775 264.889979 
L 412.6609 264.785504 
L 412.77465 263.424771 
L 413.136375 255.643439 
L 413.941725 239.312596 
L 414.606025 230.559271 
L 415.638875 217.6007 
L 415.816325 211.034456 
L 415.92325 197.262742 
L 415.989225 149.934675 
L 416.0279 102.481413 
L 416.093875 158.665853 
L 416.3191 262.225784 
L 416.439675 264.889939 
L 416.471525 264.791196 
L 416.583 263.477848 
L 416.935625 255.934091 
L 417.75235 239.328102 
L 418.41665 230.570318 
L 419.4495 217.622663 
L 419.62695 211.095898 
L 419.733875 197.516662 
L 419.79985 151.499861 
L 419.838525 102.517196 
L 419.9045 157.795967 
L 420.129725 262.166542 
L 420.2503 264.88995 
L 420.28215 264.796638 
L 420.39135 263.530027 
L 420.734875 256.224208 
L 421.56525 239.307391 
L 422.22955 230.555519 
L 423.260125 217.64466 
L 423.437575 211.157185 
L 423.546775 197.172443 
L 423.61275 149.377254 
L 423.651425 102.484008 
L 423.7174 158.9703 
L 423.942625 262.246366 
L 424.0632 264.889912 
L 424.09505 264.789274 
L 424.206525 263.47238 
L 424.55915 255.926144 
L 425.375875 239.322765 
L 426.040175 230.566523 
L 427.073025 217.615152 
L 427.250475 211.074935 
L 427.3574 197.430246 
L 427.423375 150.96812 
L 427.46205 102.498157 
L 427.528025 158.094159 
L 427.75325 262.186919 
L 427.873825 264.889966 
L 427.905675 264.794791 
L 428.014875 263.524741 
L 428.3584 256.216449 
L 429.188775 239.302164 
L 429.853075 230.551777 
L 430.88365 217.637185 
L 431.0611 211.136392 
L 431.168025 197.682797 
L 431.234 152.521058 
L 431.27495 102.493253 
L 431.340925 159.266853 
L 431.56615 262.266303 
L 431.68445 264.889951 
L 431.718575 264.787359 
L 431.832325 263.429917 
L 432.191775 255.704333 
L 432.9994 239.317554 
L 433.6637 230.562816 
L 434.69655 217.607806 
L 434.874 211.054389 
L 434.980925 197.345339 
L 435.0469 150.444736 
L 435.085575 102.486314 
L 435.15155 158.38494 
L 435.376775 262.206646 
L 435.49735 264.889941 
L 435.5292 264.792955 
L 435.640675 263.482895 
L 435.991025 255.994939 
L 436.8123 239.297039 
L 437.4766 230.548085 
L 438.507175 217.629707 
L 438.684625 211.115522 
L 438.79155 197.597275 
L 438.857525 151.995697 
L 438.898475 102.50926 
L 438.962175 157.515811 
L 439.189675 262.286083 
L 439.307975 264.889973 
L 439.3421 264.785391 
L 439.45585 263.424472 
L 439.817575 255.643014 
L 440.622925 239.312308 
L 441.287225 230.559062 
L 442.320075 217.600264 
L 442.497525 211.033225 
L 442.60445 197.257629 
L 442.670425 149.903079 
L 442.7091 102.481355 
L 442.775075 158.683221 
L 443.0003 262.226963 
L 443.120875 264.889938 
L 443.152725 264.791087 
L 443.2642 263.477535 
L 443.616825 255.933636 
L 444.43355 239.327795 
L 445.09785 230.570099 
L 446.1307 217.622226 
L 446.30815 211.094678 
L 446.415075 197.511641 
L 446.48105 151.468994 
L 446.519725 102.515903 
L 446.5857 157.813354 
L 446.810925 262.167728 
L 446.9315 264.88995 
L 446.96335 264.79653 
L 447.07255 263.529718 
L 447.416075 256.223755 
L 448.24645 239.307086 
L 448.91075 230.555299 
L 449.941325 217.644219 
L 450.118775 211.155959 
L 450.227975 197.16723 
L 450.29395 149.345016 
L 450.332625 102.484366 
L 450.3986 158.987739 
L 450.623825 262.247538 
L 450.7444 264.889908 
L 450.77625 264.789162 
L 450.887725 263.472066 
L 451.24035 255.925688 
L 452.057075 239.32246 
L 452.721375 230.566305 
L 453.754225 217.614717 
L 453.931675 211.07372 
L 454.0386 197.425232 
L 454.104575 150.937247 
L 454.14325 102.49722 
L 454.209225 158.111379 
L 454.43445 262.188101 
L 454.555025 264.889971 
L 454.586875 264.794687 
L 454.696075 263.524438 
L 455.0396 256.216003 
L 455.869975 239.301865 
L 456.534275 230.551564 
L 457.56485 217.636768 
L 457.7423 211.135232 
L 457.849225 197.678058 
L 457.9152 152.492004 
L 457.95615 102.493906 
L 458.022125 159.283329 
L 458.24735 262.267424 
L 458.36565 264.889962 
L 458.399775 264.787258 
L 458.513525 263.42962 
L 458.872975 255.703903 
L 459.6806 239.317268 
L 460.3449 230.562617 
L 461.37775 217.607429 
L 461.5552 211.053343 
L 461.662125 197.341018 
L 461.7281 150.418057 
L 461.766775 102.48589 
L 461.83275 158.39965 
L 462.057975 262.207648 
L 462.17855 264.889941 
L 462.2104 264.792864 
L 462.321875 263.482631 
L 462.672225 255.994555 
L 463.4935 239.296781 
L 464.1578 230.547899 
L 465.188375 217.629335 
L 465.365825 211.114487 
L 465.47275 197.59303 
L 465.538725 151.969584 
L 465.579675 102.510302 
L 465.643375 157.530679 
L 465.870875 262.287042 
L 465.989175 264.889966 
L 466.0233 264.785286 
L 466.13705 263.424197 
L 466.498775 255.642624 
L 467.304125 239.312043 
L 467.968425 230.558868 
L 469.001275 217.599854 
L 469.178725 211.032067 
L 469.28565 197.252812 
L 469.351625 149.873331 
L 469.3903 102.481323 
L 469.456275 158.699573 
L 469.6815 262.228075 
L 469.802075 264.889938 
L 469.833925 264.790984 
L 469.9454 263.477241 
L 470 262.516053 
L 470.05915 263.407627 
L 470.2639 264.522739 
L 470.357175 264.524901 
L 470.384475 264.493537 
L 470.5642 264.058703 
L 471.001 262.272126 
L 472.836925 254.4329 
L 473.742375 251.605663 
L 474.502225 249.908879 
L 475.180175 248.903548 
L 475.82855 248.320597 
L 476.513325 248.001694 
L 477.371 247.861048 
L 478.965775 247.872638 
L 483.834275 247.925625 
L 561 247.924818 
L 561 247.924818 
" clip-path="url(#p80da2ebed2)" style="fill: none; stroke: #1f77b4; stroke-width: 1.5; stroke-linecap: square"/>
   </g>
   <g id="text_1">
    <!-- 0.4 nA -->
    <g transform="translate(37.75 53.256) scale(0.2 -0.2)">
     <defs>
      <path id="DejaVuSans-30" d="M 2034 4250 
Q 1547 4250 1301 3770 
Q 1056 3291 1056 2328 
Q 1056 1369 1301 889 
Q 1547 409 2034 409 
Q 2525 409 2770 889 
Q 3016 1369 3016 2328 
Q 3016 3291 2770 3770 
Q 2525 4250 2034 4250 
z
M 2034 4750 
Q 2819 4750 3233 4129 
Q 3647 3509 3647 2328 
Q 3647 1150 3233 529 
Q 2819 -91 2034 -91 
Q 1250 -91 836 529 
Q 422 1150 422 2328 
Q 422 3509 836 4129 
Q 1250 4750 2034 4750 
z
" transform="scale(0.015625)"/>
      <path id="DejaVuSans-2e" d="M 684 794 
L 1344 794 
L 1344 0 
L 684 0 
L 684 794 
z
" transform="scale(0.015625)"/>
      <path id="DejaVuSans-34" d="M 2419 4116 
L 825 1625 
L 2419 1625 
L 2419 4116 
z
M 2253 4666 
L 3047 4666 
L 3047 1625 
L 3713 1625 
L 3713 1100 
L 3047 1100 
L 3047 0 
L 2419 0 
L 2419 1100 
L 313 1100 
L 313 1709 
L 2253 4666 
z
" transform="scale(0.015625)"/>
      <path id="DejaVuSans-20" transform="scale(0.015625)"/>
      <path id="DejaVuSans-6e" d="M 3513 2113 
L 3513 0 
L 2938 0 
L 2938 2094 
Q 2938 2591 2744 2837 
Q 2550 3084 2163 3084 
Q 1697 3084 1428 2787 
Q 1159 2491 1159 1978 
L 1159 0 
L 581 0 
L 581 3500 
L 1159 3500 
L 1159 2956 
Q 1366 3272 1645 3428 
Q 1925 3584 2291 3584 
Q 2894 3584 3203 3211 
Q 3513 2838 3513 2113 
z
" transform="scale(0.015625)"/>
      <path id="DejaVuSans-41" d="M 2188 4044 
L 1331 1722 
L 3047 1722 
L 2188 4044 
z
M 1831 4666 
L 2547 4666 
L 4325 0 
L 3669 0 
L 3244 1197 
L 1141 1197 
L 716 0 
L 50 0 
L 1831 4666 
z
" transform="scale(0.015625)"/>
     </defs>
     <use xlink:href="#DejaVuSans-30"/>
     <use xlink:href="#DejaVuSans-2e" x="63.623047"/>
     <use xlink:href="#DejaVuSans-34" x="95.410156"/>
     <use xlink:href="#DejaVuSans-20" x="159.033203"/>
     <use xlink:href="#DejaVuSans-6e" x="190.820312"/>
     <use xlink:href="#DejaVuSans-41" x="254.199219"/>
    </g>
   </g>
   <g id="text_2">
    <!-- Hu(rb) 2018 -->
    <g transform="translate(221.176719 31.56) scale(0.22 -0.22)">
     <defs>
      <path id="DejaVuSans-48" d="M 628 4666 
L 1259 4666 
L 1259 2753 
L 3553 2753 
L 3553 4666 
L 4184 4666 
L 4184 0 
L 3553 0 
L 3553 2222 
L 1259 2222 
L 1259 0 
L 628 0 
L 628 4666 
z
" transform="scale(0.015625)"/>
      <path id="DejaVuSans-75" d="M 544 1381 
L 544 3500 
L 1119 3500 
L 1119 1403 
Q 1119 906 1312 657 
Q 1506 409 1894 409 
Q 2359 409 2629 706 
Q 2900 1003 2900 1516 
L 2900 3500 
L 3475 3500 
L 3475 0 
L 2900 0 
L 2900 538 
Q 2691 219 2414 64 
Q 2138 -91 1772 -91 
Q 1169 -91 856 284 
Q 544 659 544 1381 
z
M 1991 3584 
L 1991 3584 
z
" transform="scale(0.015625)"/>
      <path id="DejaVuSans-28" d="M 1984 4856 
Q 1566 4138 1362 3434 
Q 1159 2731 1159 2009 
Q 1159 1288 1364 580 
Q 1569 -128 1984 -844 
L 1484 -844 
Q 1016 -109 783 600 
Q 550 1309 550 2009 
Q 550 2706 781 3412 
Q 1013 4119 1484 4856 
L 1984 4856 
z
" transform="scale(0.015625)"/>
      <path id="DejaVuSans-72" d="M 2631 2963 
Q 2534 3019 2420 3045 
Q 2306 3072 2169 3072 
Q 1681 3072 1420 2755 
Q 1159 2438 1159 1844 
L 1159 0 
L 581 0 
L 581 3500 
L 1159 3500 
L 1159 2956 
Q 1341 3275 1631 3429 
Q 1922 3584 2338 3584 
Q 2397 3584 2469 3576 
Q 2541 3569 2628 3553 
L 2631 2963 
z
" transform="scale(0.015625)"/>
      <path id="DejaVuSans-62" d="M 3116 1747 
Q 3116 2381 2855 2742 
Q 2594 3103 2138 3103 
Q 1681 3103 1420 2742 
Q 1159 2381 1159 1747 
Q 1159 1113 1420 752 
Q 1681 391 2138 391 
Q 2594 391 2855 752 
Q 3116 1113 3116 1747 
z
M 1159 2969 
Q 1341 3281 1617 3432 
Q 1894 3584 2278 3584 
Q 2916 3584 3314 3078 
Q 3713 2572 3713 1747 
Q 3713 922 3314 415 
Q 2916 -91 2278 -91 
Q 1894 -91 1617 61 
Q 1341 213 1159 525 
L 1159 0 
L 581 0 
L 581 4863 
L 1159 4863 
L 1159 2969 
z
" transform="scale(0.015625)"/>
      <path id="DejaVuSans-29" d="M 513 4856 
L 1013 4856 
Q 1481 4119 1714 3412 
Q 1947 2706 1947 2009 
Q 1947 1309 1714 600 
Q 1481 -109 1013 -844 
L 513 -844 
Q 928 -128 1133 580 
Q 1338 1288 1338 2009 
Q 1338 2731 1133 3434 
Q 928 4138 513 4856 
z
" transform="scale(0.015625)"/>
      <path id="DejaVuSans-32" d="M 1228 531 
L 3431 531 
L 3431 0 
L 469 0 
L 469 531 
Q 828 903 1448 1529 
Q 2069 2156 2228 2338 
Q 2531 2678 2651 2914 
Q 2772 3150 2772 3378 
Q 2772 3750 2511 3984 
Q 2250 4219 1831 4219 
Q 1534 4219 1204 4116 
Q 875 4013 500 3803 
L 500 4441 
Q 881 4594 1212 4672 
Q 1544 4750 1819 4750 
Q 2544 4750 2975 4387 
Q 3406 4025 3406 3419 
Q 3406 3131 3298 2873 
Q 3191 2616 2906 2266 
Q 2828 2175 2409 1742 
Q 1991 1309 1228 531 
z
" transform="scale(0.015625)"/>
      <path id="DejaVuSans-31" d="M 794 531 
L 1825 531 
L 1825 4091 
L 703 3866 
L 703 4441 
L 1819 4666 
L 2450 4666 
L 2450 531 
L 3481 531 
L 3481 0 
L 794 0 
L 794 531 
z
" transform="scale(0.015625)"/>
      <path id="DejaVuSans-38" d="M 2034 2216 
Q 1584 2216 1326 1975 
Q 1069 1734 1069 1313 
Q 1069 891 1326 650 
Q 1584 409 2034 409 
Q 2484 409 2743 651 
Q 3003 894 3003 1313 
Q 3003 1734 2745 1975 
Q 2488 2216 2034 2216 
z
M 1403 2484 
Q 997 2584 770 2862 
Q 544 3141 544 3541 
Q 544 4100 942 4425 
Q 1341 4750 2034 4750 
Q 2731 4750 3128 4425 
Q 3525 4100 3525 3541 
Q 3525 3141 3298 2862 
Q 3072 2584 2669 2484 
Q 3125 2378 3379 2068 
Q 3634 1759 3634 1313 
Q 3634 634 3220 271 
Q 2806 -91 2034 -91 
Q 1263 -91 848 271 
Q 434 634 434 1313 
Q 434 1759 690 2068 
Q 947 2378 1403 2484 
z
M 1172 3481 
Q 1172 3119 1398 2916 
Q 1625 2713 2034 2713 
Q 2441 2713 2670 2916 
Q 2900 3119 2900 3481 
Q 2900 3844 2670 4047 
Q 2441 4250 2034 4250 
Q 1625 4250 1398 4047 
Q 1172 3844 1172 3481 
z
" transform="scale(0.015625)"/>
     </defs>
     <use xlink:href="#DejaVuSans-48"/>
     <use xlink:href="#DejaVuSans-75" x="75.195312"/>
     <use xlink:href="#DejaVuSans-28" x="138.574219"/>
     <use xlink:href="#DejaVuSans-72" x="177.587891"/>
     <use xlink:href="#DejaVuSans-62" x="218.701172"/>
     <use xlink:href="#DejaVuSans-29" x="282.177734"/>
     <use xlink:href="#DejaVuSans-20" x="321.191406"/>
     <use xlink:href="#DejaVuSans-32" x="352.978516"/>
     <use xlink:href="#DejaVuSans-30" x="416.601562"/>
     <use xlink:href="#DejaVuSans-31" x="480.224609"/>
     <use xlink:href="#DejaVuSans-38" x="543.847656"/>
    </g>
   </g>
   <g id="patch_2">
    <path d="M 406.3 273 
L 424.5 273 
L 424.5 37.56 
L 406.3 37.56 
L 406.3 273 
z
" clip-path="url(#p80da2ebed2)" style="fill: none; opacity: 0.5; stroke: #000000; stroke-linejoin: miter"/>
   </g>
   <g id="patch_3">
    <path d="M 561 214.14 
Q 492.75 243.57 424.5 273 
" style="fill: none; opacity: 0.5; stroke: #000000; stroke-linecap: round"/>
   </g>
   <g id="patch_4">
    <path d="M 561 72.876 
Q 492.75 55.218 424.5 37.56 
" style="fill: none; opacity: 0.5; stroke: #000000; stroke-linecap: round"/>
   </g>
   <g id="axes_2">
    <g id="patch_5">
     <path d="M 500.94 214.14 
L 561 214.14 
L 561 72.876 
L 500.94 72.876 
z
" style="fill: #ffffff"/>
    </g>
    <g id="matplotlib.axis_1">
     <g id="xtick_1"/>
     <g id="xtick_2"/>
     <g id="xtick_3"/>
    </g>
    <g id="matplotlib.axis_2">
     <g id="ytick_1"/>
     <g id="ytick_2"/>
     <g id="ytick_3"/>
     <g id="ytick_4"/>
     <g id="ytick_5"/>
     <g id="ytick_6"/>
    </g>
    <g id="line2d_2">
     <path d="M 500.932493 194.126542 
L 502.08114 191.116999 
L 503.49255 188.066307 
L 506.10516 182.557206 
L 506.638193 180.746314 
L 507.00606 178.661073 
L 507.27633 175.781944 
L 507.48654 170.923923 
L 507.644198 161.333418 
L 507.771825 135.957183 
L 507.884438 111.832057 
L 507.93699 115.784776 
L 508.65771 204.076381 
L 508.905458 208.232061 
L 509.13819 209.203638 
L 509.303355 209.253735 
L 509.491043 208.995302 
L 509.836388 208.055184 
L 510.527078 205.401993 
L 512.809358 196.326235 
L 513.920468 192.978466 
L 515.129175 190.04409 
L 516.788333 186.646052 
L 518.47752 183.098779 
L 519.085628 181.272087 
L 519.491033 179.311779 
L 519.783825 176.743044 
L 520.00905 172.658534 
L 520.181723 164.902516 
L 520.30935 147.478426 
L 520.467008 111.844891 
L 520.534575 118.756714 
L 521.112653 198.829749 
L 521.3604 206.826308 
L 521.608148 208.934004 
L 521.81085 209.273491 
L 521.961 209.175627 
L 522.208748 208.669693 
L 522.68172 207.10438 
L 523.85289 202.2228 
L 525.256793 196.771927 
L 526.367903 193.335021 
L 527.554088 190.3865 
L 529.115648 187.138622 
L 531.105135 182.973888 
L 531.69072 181.170164 
L 532.08111 179.235626 
L 532.373903 176.596671 
L 532.599128 172.329739 
L 532.764293 164.58028 
L 532.89192 146.447673 
L 533.04207 111.828848 
L 533.109638 118.221928 
L 533.70273 199.489773 
L 533.950478 207.004297 
L 534.198225 208.975785 
L 534.400928 209.273964 
L 534.551078 209.159775 
L 534.81384 208.597615 
L 535.316843 206.886734 
L 536.750775 200.889681 
L 538.019543 196.146781 
L 539.130653 192.8348 
L 540.346868 189.909407 
L 542.058578 186.423364 
L 543.64266 183.077204 
L 544.24326 181.268014 
L 544.641158 179.352674 
L 544.941458 176.729795 
L 545.166683 172.62904 
L 545.339355 164.821688 
L 545.466983 147.220677 
L 545.617133 111.850317 
L 545.6847 117.710361 
L 546.300315 200.489809 
L 546.548063 207.273463 
L 546.788303 209.014335 
L 546.983498 209.273721 
L 547.133648 209.153693 
L 547.39641 208.585725 
L 547.899413 206.869999 
L 549.363375 200.748879 
L 550.624635 196.057708 
L 551.735745 192.763465 
L 552.959468 189.834225 
L 554.701208 186.297136 
L 556.232738 183.047426 
L 556.82583 181.251809 
L 557.223728 179.325333 
L 557.524028 176.676704 
L 557.749253 172.510382 
L 557.921925 164.494168 
L 558.049553 146.170857 
L 558.199703 111.830405 
L 558.26727 118.404885 
L 558.852855 199.136545 
L 559.100603 206.909095 
L 559.34835 208.953556 
L 559.551053 209.273921 
L 559.701203 209.168516 
L 559.956458 208.635358 
L 560.444445 206.998038 
L 561 204.727975 
L 561 204.727975 
" clip-path="url(#pf5526c4c40)" style="fill: none; stroke: #1f77b4; stroke-width: 1.5; stroke-linecap: square"/>
    </g>
    <g id="patch_6">
     <path d="M 500.94 214.14 
L 500.94 72.876 
" style="fill: none; stroke: #000000; stroke-width: 0.8; stroke-linejoin: miter; stroke-linecap: square"/>
    </g>
    <g id="patch_7">
     <path d="M 500.94 214.14 
L 561 214.14 
" style="fill: none; stroke: #000000; stroke-width: 0.8; stroke-linejoin: miter; stroke-linecap: square"/>
    </g>
   </g>
  </g>
 </g>
 <defs>
  <clipPath id="p80da2ebed2">
   <rect x="15" y="37.56" width="546" height="235.44"/>
  </clipPath>
  <clipPath id="pf5526c4c40">
   <rect x="500.94" y="72.876" width="60.06" height="141.264"/>
  </clipPath>
 </defs>
</svg>
