<?xml version="1.0" encoding="utf-8" standalone="no"?>
<!DOCTYPE svg PUBLIC "-//W3C//DTD SVG 1.1//EN"
  "http://www.w3.org/Graphics/SVG/1.1/DTD/svg11.dtd">
<svg xmlns:xlink="http://www.w3.org/1999/xlink" width="576pt" height="288pt" viewBox="0 0 576 288" xmlns="http://www.w3.org/2000/svg" version="1.1">
 <metadata>
  <rdf:RDF xmlns:dc="http://purl.org/dc/elements/1.1/" xmlns:cc="http://creativecommons.org/ns#" xmlns:rdf="http://www.w3.org/1999/02/22-rdf-syntax-ns#">
   <cc:Work>
    <dc:type rdf:resource="http://purl.org/dc/dcmitype/StillImage"/>
    <dc:date>2024-09-24T18:25:42.588868</dc:date>
    <dc:format>image/svg+xml</dc:format>
    <dc:creator>
     <cc:Agent>
      <dc:title>Matplotlib v3.7.4, https://matplotlib.org/</dc:title>
     </cc:Agent>
    </dc:creator>
   </cc:Work>
  </rdf:RDF>
 </metadata>
 <defs>
  <style type="text/css">*{stroke-linejoin: round; stroke-linecap: butt}</style>
 </defs>
 <g id="figure_1">
  <g id="patch_1">
   <path d="M 0 288 
L 576 288 
L 576 0 
L 0 0 
z
" style="fill: #ffffff"/>
  </g>
  <g id="axes_1">
   <g id="line2d_1">
    <path d="M 15 233.76 
L 18.07125 233.918547 
L 23.883875 233.946635 
L 70.25975 233.932982 
L 106 233.93298 
L 106.170625 228.928408 
L 106.637 222.43915 
L 107.365 215.45 
L 108.309125 206.575617 
L 108.548 201.617146 
L 108.6845 193.290493 
L 108.75275 174.951353 
L 108.855125 48.289344 
L 108.98025 78.115413 
L 109.560375 257.141622 
L 109.742375 259.841899 
L 109.79925 259.763261 
L 109.947125 258.900713 
L 113.245875 234.235505 
L 114.5085 227.089643 
L 115.6005 222.126198 
L 116.635625 218.41618 
L 117.6935 215.429603 
L 118.910625 212.667217 
L 120.99225 208.084358 
L 121.435875 206.396438 
L 121.743 204.321315 
L 121.959125 201.272719 
L 122.107 195.812827 
L 122.198 183.438014 
L 122.254875 136.606969 
L 122.3345 50.091491 
L 122.391375 61.163989 
L 123.096625 258.613039 
L 123.22175 259.386659 
L 123.255875 259.342918 
L 123.381 258.748328 
L 123.847375 254.905156 
L 125.075875 245.403643 
L 126.748 234.134886 
L 128.010625 227.033083 
L 129.102625 222.096714 
L 130.13775 218.405227 
L 131.195625 215.432719 
L 132.41275 212.684857 
L 134.539875 208.035137 
L 134.9835 206.337081 
L 135.290625 204.227494 
L 135.50675 201.075867 
L 135.654625 195.226623 
L 135.745625 180.690015 
L 135.8025 119.302579 
L 135.87075 50.080787 
L 135.927625 60.269421 
L 136.655625 258.875304 
L 136.758 259.383727 
L 136.8035 259.318575 
L 136.951375 258.532137 
L 137.656625 252.662908 
L 139.044375 242.35071 
L 140.614125 232.160034 
L 141.819875 225.706395 
L 142.889125 221.133075 
L 143.92425 217.64731 
L 145.004875 214.774411 
L 146.313 211.951071 
L 147.939625 208.440392 
L 148.42875 206.783361 
L 148.758625 204.868053 
L 148.9975 202.078124 
L 149.15675 197.509712 
L 149.259125 187.89917 
L 149.316 163.1449 
L 149.407 50.241963 
L 149.498 70.337105 
L 150.0895 256.228992 
L 150.2715 259.353977 
L 150.305625 259.382274 
L 150.351125 259.299625 
L 150.510375 258.402331 
L 154.139 232.255971 
L 155.34475 225.784399 
L 156.414 221.195113 
L 157.449125 217.696403 
L 158.52975 214.81392 
L 159.8265 212.007878 
L 161.48725 208.426279 
L 161.976375 206.761901 
L 162.30625 204.829668 
L 162.545125 201.993747 
L 162.704375 197.277706 
L 162.80675 186.966856 
L 162.863625 158.212635 
L 162.954625 50.08261 
L 163.03425 67.879463 
L 163.6485 256.865928 
L 163.8305 259.378406 
L 163.876 259.346071 
L 163.887375 259.318567 
L 164.03525 258.532602 
L 164.7405 252.663673 
L 166.12825 242.351717 
L 167.698 232.161395 
L 168.90375 225.708003 
L 169.973 221.134881 
L 171.008125 217.649337 
L 172.08875 214.776811 
L 173.396875 211.954468 
L 175.0235 208.449279 
L 175.512625 206.799709 
L 175.8425 204.899938 
L 176.081375 202.150418 
L 176.252 197.152275 
L 176.354375 186.441214 
L 176.41125 155.255592 
L 176.50225 50.094133 
L 176.5705 64.736497 
L 177.218875 257.656949 
L 177.3895 259.383174 
L 177.45775 259.235233 
L 177.651125 257.998321 
L 180.039875 239.826495 
L 181.50725 230.633894 
L 182.678875 224.634429 
L 183.73675 220.328435 
L 184.771875 217.01462 
L 185.87525 214.216687 
L 187.319875 211.203452 
L 188.537 208.540167 
L 189.0375 206.896077 
L 189.37875 204.988511 
L 189.617625 202.343737 
L 189.78825 197.714039 
L 189.890625 188.682831 
L 189.958875 155.439372 
L 190.049875 50.092514 
L 190.118125 64.687311 
L 190.7665 257.652861 
L 190.937125 259.382992 
L 191.005375 259.235599 
L 191.19875 257.999322 
L 193.5875 239.82778 
L 195.054875 230.635329 
L 196.2265 224.635945 
L 197.284375 220.330018 
L 198.3195 217.016315 
L 199.422875 214.218647 
L 200.856125 211.229004 
L 202.084625 208.546465 
L 202.5965 206.859644 
L 202.93775 204.923246 
L 203.176625 202.204195 
L 203.34725 197.314549 
L 203.449625 187.124504 
L 203.5065 159.084122 
L 203.5975 50.094249 
L 203.677125 67.6032 
L 204.291375 256.837524 
L 204.473375 259.377097 
L 204.518875 259.347095 
L 204.53025 259.320057 
L 204.66675 258.61708 
L 205.246875 253.787644 
L 206.543625 243.962662 
L 208.17025 233.186895 
L 209.410125 226.375852 
L 210.49075 221.621684 
L 211.525875 218.033604 
L 212.595125 215.111895 
L 213.846375 212.35305 
L 215.746 208.247985 
L 216.212375 206.583933 
L 216.530875 204.600351 
L 216.758375 201.698267 
L 216.917625 196.425233 
L 217.008625 186.029275 
L 217.0655 152.87459 
L 217.1565 50.142205 
L 217.22475 65.372336 
L 217.86175 257.383824 
L 218.032375 259.380617 
L 218.08925 259.305641 
L 218.237125 258.501257 
L 218.99925 252.171949 
L 220.443875 241.530941 
L 221.9795 231.671545 
L 223.173875 225.367016 
L 224.243125 220.866668 
L 225.27825 217.440065 
L 226.37025 214.58531 
L 227.7125 211.728171 
L 229.214 208.493778 
L 229.7145 206.828072 
L 230.05575 204.868392 
L 230.294625 202.087249 
L 230.453875 197.543167 
L 230.55625 188.040589 
L 230.6245 150.669545 
L 230.7155 50.207399 
L 230.78375 65.930594 
L 231.42075 257.431316 
L 231.591375 259.381095 
L 231.64825 259.300638 
L 231.8075 258.406932 
L 235.458875 232.129626 
L 236.664625 225.68421 
L 237.733875 221.118086 
L 238.769 217.638454 
L 239.849625 214.77114 
L 241.15775 211.954965 
L 242.79575 208.435434 
L 243.284875 206.786417 
L 243.61475 204.883754 
L 243.853625 202.122988 
L 244.012875 197.642135 
L 244.11525 188.421864 
L 244.1835 153.551118 
L 244.2745 50.128359 
L 244.34275 65.199159 
L 244.97975 257.36801 
L 245.150375 259.379752 
L 245.20725 259.306562 
L 245.355125 258.504421 
L 246.105875 252.266961 
L 247.539125 241.692852 
L 249.07475 231.808787 
L 250.269125 225.478965 
L 251.338375 220.95616 
L 252.3735 217.511615 
L 253.4655 214.643862 
L 254.796375 211.803215 
L 256.343375 208.480068 
L 256.843875 206.810479 
L 257.17375 204.929454 
L 257.412625 202.224903 
L 257.58325 197.383352 
L 257.685625 187.41436 
L 257.7425 160.656134 
L 257.8335 50.133716 
L 257.913125 67.087009 
L 258.53875 257.178725 
L 258.72075 259.381489 
L 258.777625 259.290052 
L 258.936875 258.382459 
L 262.49725 232.651625 
L 263.714375 226.053841 
L 264.795 221.368418 
L 265.830125 217.836548 
L 266.91075 214.930394 
L 268.18475 212.159875 
L 269.970625 208.317702 
L 270.448375 206.652757 
L 270.77825 204.639928 
L 271.00575 201.794215 
L 271.165 196.720147 
L 271.267375 184.522142 
L 271.32425 143.672237 
L 271.403875 50.102498 
L 271.472125 63.590311 
L 272.131875 257.860796 
L 272.291125 259.381311 
L 272.3025 259.37782 
L 272.382125 259.151545 
L 272.621 257.467823 
L 274.315875 244.20808 
L 275.953875 233.329012 
L 277.19375 226.493796 
L 278.274375 221.717741 
L 279.3095 218.111917 
L 280.37875 215.177632 
L 281.618625 212.4366 
L 283.597875 208.161368 
L 284.052875 206.507134 
L 284.371375 204.465397 
L 284.598875 201.400349 
L 284.74675 196.230273 
L 284.83775 185.269158 
L 284.894625 148.331053 
L 284.97425 50.205872 
L 285.0425 62.619071 
L 285.725 258.293509 
L 285.8615 259.380436 
L 285.88425 259.369389 
L 285.97525 259.053777 
L 286.259625 256.915002 
L 287.670125 245.783472 
L 289.353625 234.394218 
L 290.627625 227.192225 
L 291.719625 222.2282 
L 292.75475 218.514166 
L 293.812625 215.525903 
L 295.007 212.819007 
L 297.25925 207.907755 
L 297.6915 206.203782 
L 297.98725 204.101827 
L 298.203375 200.798129 
L 298.339875 195.2108 
L 298.430875 180.646202 
L 298.48775 119.115408 
L 298.556 50.09111 
L 298.612875 60.311333 
L 299.3295 258.730858 
L 299.44325 259.380612 
L 299.477375 259.342861 
L 299.6025 258.760917 
L 300.0575 255.022644 
L 301.286 245.507058 
L 302.958125 234.228799 
L 304.22075 227.115137 
L 305.31275 222.167431 
L 306.347875 218.466951 
L 307.40575 215.489214 
L 308.6115 212.766523 
L 310.829625 207.941456 
L 311.261875 206.262333 
L 311.569 204.104215 
L 311.785125 200.80625 
L 311.921625 195.237391 
L 312.012625 180.785248 
L 312.0695 119.96275 
L 312.13775 50.095523 
L 312.206 63.848436 
L 312.86575 257.878412 
L 313.025 259.380255 
L 313.036375 259.376178 
L 313.116 259.14703 
L 313.354875 257.460752 
L 315.04975 244.203432 
L 316.68775 233.326711 
L 317.927625 226.493534 
L 319.00825 221.719206 
L 320.043375 218.114949 
L 321.112625 215.182413 
L 322.3525 212.444406 
L 324.343125 208.156864 
L 324.798125 206.506968 
L 325.116625 204.472004 
L 325.344125 201.422685 
L 325.492 196.302218 
L 325.583 185.567803 
L 325.639875 150.16852 
L 325.730875 50.23173 
L 325.799125 66.066034 
L 326.436125 257.440137 
L 326.60675 259.378871 
L 326.663625 259.297273 
L 326.822875 258.402389 
L 330.462875 232.200241 
L 331.668625 225.745074 
L 332.737875 221.170117 
L 333.773 217.683747 
L 334.853625 214.812871 
L 336.150375 212.022628 
L 337.856625 208.373382 
L 338.34575 206.70384 
L 338.675625 204.747158 
L 338.9145 201.833038 
L 339.07375 196.846075 
L 339.176125 185.127747 
L 339.233 147.488375 
L 339.312625 50.18441 
L 339.380875 62.807821 
L 340.052 258.068928 
L 340.199875 259.379157 
L 340.222625 259.367269 
L 340.313625 259.049529 
L 340.598 256.909342 
L 342.0085 245.780214 
L 343.692 234.393665 
L 344.966 227.193977 
L 346.058 222.231859 
L 347.093125 218.519562 
L 348.151 215.533295 
L 349.345375 212.829838 
L 351.620375 207.881751 
L 352.052625 206.170049 
L 352.348375 204.045873 
L 352.5645 200.67233 
L 352.701 194.840394 
L 352.792 178.702886 
L 352.848875 108.113414 
L 352.917125 50.184804 
L 352.974 61.872361 
L 353.667875 258.456771 
L 353.804375 259.378353 
L 353.827125 259.353926 
L 353.940875 258.871483 
L 354.31625 255.857053 
L 355.556125 246.131802 
L 357.239625 234.695333 
L 358.525 227.383278 
L 359.628375 222.336996 
L 360.6635 218.602963 
L 361.721375 215.600184 
L 362.91575 212.885907 
L 365.23625 207.831687 
L 365.657125 206.148348 
L 365.952875 204.006073 
L 366.157625 200.85594 
L 366.3055 194.547553 
L 366.385125 181.578001 
L 366.442 124.891914 
L 366.51025 50.152875 
L 366.5785 63.093411 
L 367.249625 258.087016 
L 367.3975 259.378538 
L 367.42025 259.365354 
L 367.522625 258.982363 
L 367.841125 256.510906 
L 369.160625 246.104748 
L 370.844125 234.67271 
L 372.118125 227.423389 
L 373.2215 222.369464 
L 374.256625 218.629167 
L 375.3145 215.621733 
L 376.4975 212.928341 
L 378.852125 207.796214 
L 379.273 206.091351 
L 379.56875 203.896683 
L 379.7735 200.60188 
L 379.91 194.627438 
L 379.989625 181.917774 
L 380.0465 127.040393 
L 380.11475 50.196505 
L 380.183 62.758833 
L 380.854125 258.064352 
L 381.002 259.377937 
L 381.02475 259.36631 
L 381.11575 259.049303 
L 381.400125 256.91 
L 382.810625 245.781973 
L 384.494125 234.3969 
L 385.768125 227.198322 
L 386.860125 222.237066 
L 387.89525 218.525603 
L 388.953125 215.54049 
L 390.1475 212.839414 
L 392.433875 207.88309 
L 392.866125 206.180031 
L 393.161875 204.072389 
L 393.378 200.744433 
L 393.5145 195.067682 
L 393.6055 179.93759 
L 393.662375 114.990972 
L 393.730625 50.106052 
L 393.7875 60.901956 
L 394.49275 258.590988 
L 394.617875 259.377961 
L 394.652 259.336263 
L 394.777125 258.746457 
L 395.232125 255.005567 
L 396.460625 245.494924 
L 398.13275 234.222412 
L 399.395375 227.113833 
L 400.487375 222.170448 
L 401.5225 218.473828 
L 402.580375 215.50025 
L 403.77475 212.807611 
L 406.04975 207.877957 
L 406.482 206.174004 
L 406.77775 204.063154 
L 406.993875 200.724633 
L 407.130375 195.010591 
L 407.221375 179.641002 
L 407.27825 113.301209 
L 407.3465 50.119531 
L 407.403375 61.141838 
L 408.108625 258.602235 
L 408.23375 259.377411 
L 408.267875 259.33413 
L 408.393 258.741127 
L 408.859375 254.902169 
L 410.09925 245.325415 
L 411.771375 234.078177 
L 413.034 226.996605 
L 414.126 222.077857 
L 415.161125 218.401629 
L 416.219 215.443792 
L 417.42475 212.739099 
L 419.65425 207.922618 
L 420.0865 206.251161 
L 420.393625 204.102074 
L 420.60975 200.82113 
L 420.757625 194.442526 
L 420.83725 181.142941 
L 420.894125 122.225087 
L 420.962375 50.122916 
L 421.030625 63.516704 
L 421.690375 257.850825 
L 421.849625 259.377137 
L 421.861 259.373878 
L 421.940625 259.148896 
L 422.168125 257.561767 
L 423.954 243.646929 
L 425.56925 232.996059 
L 426.79775 226.284965 
L 427.878375 221.558453 
L 428.9135 217.993824 
L 429.98275 215.092847 
L 431.222625 212.380749 
L 433.201875 208.148022 
L 433.656875 206.512873 
L 433.975375 204.50278 
L 434.202875 201.513307 
L 434.362125 195.895227 
L 434.453125 183.900036 
L 434.51 139.801504 
L 434.589625 50.103449 
L 434.657875 64.372743 
L 435.30625 257.62094 
L 435.476875 259.376828 
L 435.545125 259.233424 
L 435.7385 258.002467 
L 438.15 239.688161 
L 439.606 230.592616 
L 440.777625 224.611117 
L 441.8355 220.320559 
L 442.870625 217.020597 
L 443.974 214.237842 
L 445.3845 211.322094 
L 446.692625 208.525454 
L 447.2045 206.870335 
L 447.54575 204.983593 
L 447.784625 202.373516 
L 447.95525 197.843083 
L 448.057625 189.209096 
L 448.125875 159.265208 
L 448.216875 50.120084 
L 448.2965 67.577543 
L 448.91075 256.827993 
L 449.09275 259.370523 
L 449.13825 259.341129 
L 449.161 259.28083 
L 449.32025 258.368602 
L 452.835125 232.927664 
L 454.063625 226.230504 
L 455.14425 221.516461 
L 456.179375 217.962123 
L 457.248625 215.069308 
L 458.499875 212.340994 
L 460.456375 208.168703 
L 460.92275 206.498689 
L 461.24125 204.480782 
L 461.46875 201.467772 
L 461.616625 196.457013 
L 461.707625 186.206254 
L 461.7645 154.019633 
L 461.8555 50.137887 
L 461.92375 65.104854 
L 462.572125 257.677611 
L 462.74275 259.375724 
L 462.811 259.224502 
L 463.004375 257.985048 
L 465.38175 239.905927 
L 466.849125 230.711312 
L 468.02075 224.707729 
L 469.078625 220.397996 
L 470 217.409908 
L 470.15925 221.747354 
L 470.56875 226.498909 
L 471.126125 230.488144 
L 471.729 233.296472 
L 472.331875 235.117628 
L 472.912 236.218984 
L 473.48075 236.853 
L 474.0495 237.168892 
L 474.66375 237.258175 
L 475.4145 237.133059 
L 476.495125 236.705046 
L 480.772125 234.812086 
L 482.569375 234.37108 
L 484.651 234.098958 
L 487.506125 233.969527 
L 493.853375 233.971597 
L 522.108875 233.984311 
L 561 233.981845 
L 561 233.981845 
" clip-path="url(#pb8a6a1fa27)" style="fill: none; stroke: #1f77b4; stroke-width: 1.5; stroke-linecap: square"/>
   </g>
   <g id="text_1">
    <!-- 0.6 nA -->
    <g transform="translate(37.75 53.256) scale(0.2 -0.2)">
     <defs>
      <path id="DejaVuSans-30" d="M 2034 4250 
Q 1547 4250 1301 3770 
Q 1056 3291 1056 2328 
Q 1056 1369 1301 889 
Q 1547 409 2034 409 
Q 2525 409 2770 889 
Q 3016 1369 3016 2328 
Q 3016 3291 2770 3770 
Q 2525 4250 2034 4250 
z
M 2034 4750 
Q 2819 4750 3233 4129 
Q 3647 3509 3647 2328 
Q 3647 1150 3233 529 
Q 2819 -91 2034 -91 
Q 1250 -91 836 529 
Q 422 1150 422 2328 
Q 422 3509 836 4129 
Q 1250 4750 2034 4750 
z
" transform="scale(0.015625)"/>
      <path id="DejaVuSans-2e" d="M 684 794 
L 1344 794 
L 1344 0 
L 684 0 
L 684 794 
z
" transform="scale(0.015625)"/>
      <path id="DejaVuSans-36" d="M 2113 2584 
Q 1688 2584 1439 2293 
Q 1191 2003 1191 1497 
Q 1191 994 1439 701 
Q 1688 409 2113 409 
Q 2538 409 2786 701 
Q 3034 994 3034 1497 
Q 3034 2003 2786 2293 
Q 2538 2584 2113 2584 
z
M 3366 4563 
L 3366 3988 
Q 3128 4100 2886 4159 
Q 2644 4219 2406 4219 
Q 1781 4219 1451 3797 
Q 1122 3375 1075 2522 
Q 1259 2794 1537 2939 
Q 1816 3084 2150 3084 
Q 2853 3084 3261 2657 
Q 3669 2231 3669 1497 
Q 3669 778 3244 343 
Q 2819 -91 2113 -91 
Q 1303 -91 875 529 
Q 447 1150 447 2328 
Q 447 3434 972 4092 
Q 1497 4750 2381 4750 
Q 2619 4750 2861 4703 
Q 3103 4656 3366 4563 
z
" transform="scale(0.015625)"/>
      <path id="DejaVuSans-20" transform="scale(0.015625)"/>
      <path id="DejaVuSans-6e" d="M 3513 2113 
L 3513 0 
L 2938 0 
L 2938 2094 
Q 2938 2591 2744 2837 
Q 2550 3084 2163 3084 
Q 1697 3084 1428 2787 
Q 1159 2491 1159 1978 
L 1159 0 
L 581 0 
L 581 3500 
L 1159 3500 
L 1159 2956 
Q 1366 3272 1645 3428 
Q 1925 3584 2291 3584 
Q 2894 3584 3203 3211 
Q 3513 2838 3513 2113 
z
" transform="scale(0.015625)"/>
      <path id="DejaVuSans-41" d="M 2188 4044 
L 1331 1722 
L 3047 1722 
L 2188 4044 
z
M 1831 4666 
L 2547 4666 
L 4325 0 
L 3669 0 
L 3244 1197 
L 1141 1197 
L 716 0 
L 50 0 
L 1831 4666 
z
" transform="scale(0.015625)"/>
     </defs>
     <use xlink:href="#DejaVuSans-30"/>
     <use xlink:href="#DejaVuSans-2e" x="63.623047"/>
     <use xlink:href="#DejaVuSans-36" x="95.410156"/>
     <use xlink:href="#DejaVuSans-20" x="159.033203"/>
     <use xlink:href="#DejaVuSans-6e" x="190.820312"/>
     <use xlink:href="#DejaVuSans-41" x="254.199219"/>
    </g>
   </g>
   <g id="text_2">
    <!-- Cutsuridis &amp; Poirazi 2014 -->
    <g transform="translate(149.8125 31.56) scale(0.22 -0.22)">
     <defs>
      <path id="DejaVuSans-43" d="M 4122 4306 
L 4122 3641 
Q 3803 3938 3442 4084 
Q 3081 4231 2675 4231 
Q 1875 4231 1450 3742 
Q 1025 3253 1025 2328 
Q 1025 1406 1450 917 
Q 1875 428 2675 428 
Q 3081 428 3442 575 
Q 3803 722 4122 1019 
L 4122 359 
Q 3791 134 3420 21 
Q 3050 -91 2638 -91 
Q 1578 -91 968 557 
Q 359 1206 359 2328 
Q 359 3453 968 4101 
Q 1578 4750 2638 4750 
Q 3056 4750 3426 4639 
Q 3797 4528 4122 4306 
z
" transform="scale(0.015625)"/>
      <path id="DejaVuSans-75" d="M 544 1381 
L 544 3500 
L 1119 3500 
L 1119 1403 
Q 1119 906 1312 657 
Q 1506 409 1894 409 
Q 2359 409 2629 706 
Q 2900 1003 2900 1516 
L 2900 3500 
L 3475 3500 
L 3475 0 
L 2900 0 
L 2900 538 
Q 2691 219 2414 64 
Q 2138 -91 1772 -91 
Q 1169 -91 856 284 
Q 544 659 544 1381 
z
M 1991 3584 
L 1991 3584 
z
" transform="scale(0.015625)"/>
      <path id="DejaVuSans-74" d="M 1172 4494 
L 1172 3500 
L 2356 3500 
L 2356 3053 
L 1172 3053 
L 1172 1153 
Q 1172 725 1289 603 
Q 1406 481 1766 481 
L 2356 481 
L 2356 0 
L 1766 0 
Q 1100 0 847 248 
Q 594 497 594 1153 
L 594 3053 
L 172 3053 
L 172 3500 
L 594 3500 
L 594 4494 
L 1172 4494 
z
" transform="scale(0.015625)"/>
      <path id="DejaVuSans-73" d="M 2834 3397 
L 2834 2853 
Q 2591 2978 2328 3040 
Q 2066 3103 1784 3103 
Q 1356 3103 1142 2972 
Q 928 2841 928 2578 
Q 928 2378 1081 2264 
Q 1234 2150 1697 2047 
L 1894 2003 
Q 2506 1872 2764 1633 
Q 3022 1394 3022 966 
Q 3022 478 2636 193 
Q 2250 -91 1575 -91 
Q 1294 -91 989 -36 
Q 684 19 347 128 
L 347 722 
Q 666 556 975 473 
Q 1284 391 1588 391 
Q 1994 391 2212 530 
Q 2431 669 2431 922 
Q 2431 1156 2273 1281 
Q 2116 1406 1581 1522 
L 1381 1569 
Q 847 1681 609 1914 
Q 372 2147 372 2553 
Q 372 3047 722 3315 
Q 1072 3584 1716 3584 
Q 2034 3584 2315 3537 
Q 2597 3491 2834 3397 
z
" transform="scale(0.015625)"/>
      <path id="DejaVuSans-72" d="M 2631 2963 
Q 2534 3019 2420 3045 
Q 2306 3072 2169 3072 
Q 1681 3072 1420 2755 
Q 1159 2438 1159 1844 
L 1159 0 
L 581 0 
L 581 3500 
L 1159 3500 
L 1159 2956 
Q 1341 3275 1631 3429 
Q 1922 3584 2338 3584 
Q 2397 3584 2469 3576 
Q 2541 3569 2628 3553 
L 2631 2963 
z
" transform="scale(0.015625)"/>
      <path id="DejaVuSans-69" d="M 603 3500 
L 1178 3500 
L 1178 0 
L 603 0 
L 603 3500 
z
M 603 4863 
L 1178 4863 
L 1178 4134 
L 603 4134 
L 603 4863 
z
" transform="scale(0.015625)"/>
      <path id="DejaVuSans-64" d="M 2906 2969 
L 2906 4863 
L 3481 4863 
L 3481 0 
L 2906 0 
L 2906 525 
Q 2725 213 2448 61 
Q 2172 -91 1784 -91 
Q 1150 -91 751 415 
Q 353 922 353 1747 
Q 353 2572 751 3078 
Q 1150 3584 1784 3584 
Q 2172 3584 2448 3432 
Q 2725 3281 2906 2969 
z
M 947 1747 
Q 947 1113 1208 752 
Q 1469 391 1925 391 
Q 2381 391 2643 752 
Q 2906 1113 2906 1747 
Q 2906 2381 2643 2742 
Q 2381 3103 1925 3103 
Q 1469 3103 1208 2742 
Q 947 2381 947 1747 
z
" transform="scale(0.015625)"/>
      <path id="DejaVuSans-26" d="M 1556 2509 
Q 1272 2256 1139 2004 
Q 1006 1753 1006 1478 
Q 1006 1022 1337 719 
Q 1669 416 2169 416 
Q 2466 416 2725 514 
Q 2984 613 3213 813 
L 1556 2509 
z
M 1997 2859 
L 3584 1234 
Q 3769 1513 3872 1830 
Q 3975 2147 3994 2503 
L 4575 2503 
Q 4538 2091 4375 1687 
Q 4213 1284 3922 891 
L 4794 0 
L 4006 0 
L 3559 459 
Q 3234 181 2878 45 
Q 2522 -91 2113 -91 
Q 1359 -91 881 339 
Q 403 769 403 1441 
Q 403 1841 612 2192 
Q 822 2544 1241 2853 
Q 1091 3050 1012 3245 
Q 934 3441 934 3628 
Q 934 4134 1281 4442 
Q 1628 4750 2203 4750 
Q 2463 4750 2720 4694 
Q 2978 4638 3244 4525 
L 3244 3956 
Q 2972 4103 2725 4179 
Q 2478 4256 2266 4256 
Q 1938 4256 1733 4082 
Q 1528 3909 1528 3634 
Q 1528 3475 1620 3314 
Q 1713 3153 1997 2859 
z
" transform="scale(0.015625)"/>
      <path id="DejaVuSans-50" d="M 1259 4147 
L 1259 2394 
L 2053 2394 
Q 2494 2394 2734 2622 
Q 2975 2850 2975 3272 
Q 2975 3691 2734 3919 
Q 2494 4147 2053 4147 
L 1259 4147 
z
M 628 4666 
L 2053 4666 
Q 2838 4666 3239 4311 
Q 3641 3956 3641 3272 
Q 3641 2581 3239 2228 
Q 2838 1875 2053 1875 
L 1259 1875 
L 1259 0 
L 628 0 
L 628 4666 
z
" transform="scale(0.015625)"/>
      <path id="DejaVuSans-6f" d="M 1959 3097 
Q 1497 3097 1228 2736 
Q 959 2375 959 1747 
Q 959 1119 1226 758 
Q 1494 397 1959 397 
Q 2419 397 2687 759 
Q 2956 1122 2956 1747 
Q 2956 2369 2687 2733 
Q 2419 3097 1959 3097 
z
M 1959 3584 
Q 2709 3584 3137 3096 
Q 3566 2609 3566 1747 
Q 3566 888 3137 398 
Q 2709 -91 1959 -91 
Q 1206 -91 779 398 
Q 353 888 353 1747 
Q 353 2609 779 3096 
Q 1206 3584 1959 3584 
z
" transform="scale(0.015625)"/>
      <path id="DejaVuSans-61" d="M 2194 1759 
Q 1497 1759 1228 1600 
Q 959 1441 959 1056 
Q 959 750 1161 570 
Q 1363 391 1709 391 
Q 2188 391 2477 730 
Q 2766 1069 2766 1631 
L 2766 1759 
L 2194 1759 
z
M 3341 1997 
L 3341 0 
L 2766 0 
L 2766 531 
Q 2569 213 2275 61 
Q 1981 -91 1556 -91 
Q 1019 -91 701 211 
Q 384 513 384 1019 
Q 384 1609 779 1909 
Q 1175 2209 1959 2209 
L 2766 2209 
L 2766 2266 
Q 2766 2663 2505 2880 
Q 2244 3097 1772 3097 
Q 1472 3097 1187 3025 
Q 903 2953 641 2809 
L 641 3341 
Q 956 3463 1253 3523 
Q 1550 3584 1831 3584 
Q 2591 3584 2966 3190 
Q 3341 2797 3341 1997 
z
" transform="scale(0.015625)"/>
      <path id="DejaVuSans-7a" d="M 353 3500 
L 3084 3500 
L 3084 2975 
L 922 459 
L 3084 459 
L 3084 0 
L 275 0 
L 275 525 
L 2438 3041 
L 353 3041 
L 353 3500 
z
" transform="scale(0.015625)"/>
      <path id="DejaVuSans-32" d="M 1228 531 
L 3431 531 
L 3431 0 
L 469 0 
L 469 531 
Q 828 903 1448 1529 
Q 2069 2156 2228 2338 
Q 2531 2678 2651 2914 
Q 2772 3150 2772 3378 
Q 2772 3750 2511 3984 
Q 2250 4219 1831 4219 
Q 1534 4219 1204 4116 
Q 875 4013 500 3803 
L 500 4441 
Q 881 4594 1212 4672 
Q 1544 4750 1819 4750 
Q 2544 4750 2975 4387 
Q 3406 4025 3406 3419 
Q 3406 3131 3298 2873 
Q 3191 2616 2906 2266 
Q 2828 2175 2409 1742 
Q 1991 1309 1228 531 
z
" transform="scale(0.015625)"/>
      <path id="DejaVuSans-31" d="M 794 531 
L 1825 531 
L 1825 4091 
L 703 3866 
L 703 4441 
L 1819 4666 
L 2450 4666 
L 2450 531 
L 3481 531 
L 3481 0 
L 794 0 
L 794 531 
z
" transform="scale(0.015625)"/>
      <path id="DejaVuSans-34" d="M 2419 4116 
L 825 1625 
L 2419 1625 
L 2419 4116 
z
M 2253 4666 
L 3047 4666 
L 3047 1625 
L 3713 1625 
L 3713 1100 
L 3047 1100 
L 3047 0 
L 2419 0 
L 2419 1100 
L 313 1100 
L 313 1709 
L 2253 4666 
z
" transform="scale(0.015625)"/>
     </defs>
     <use xlink:href="#DejaVuSans-43"/>
     <use xlink:href="#DejaVuSans-75" x="69.824219"/>
     <use xlink:href="#DejaVuSans-74" x="133.203125"/>
     <use xlink:href="#DejaVuSans-73" x="172.412109"/>
     <use xlink:href="#DejaVuSans-75" x="224.511719"/>
     <use xlink:href="#DejaVuSans-72" x="287.890625"/>
     <use xlink:href="#DejaVuSans-69" x="329.003906"/>
     <use xlink:href="#DejaVuSans-64" x="356.787109"/>
     <use xlink:href="#DejaVuSans-69" x="420.263672"/>
     <use xlink:href="#DejaVuSans-73" x="448.046875"/>
     <use xlink:href="#DejaVuSans-20" x="500.146484"/>
     <use xlink:href="#DejaVuSans-26" x="531.933594"/>
     <use xlink:href="#DejaVuSans-20" x="609.912109"/>
     <use xlink:href="#DejaVuSans-50" x="641.699219"/>
     <use xlink:href="#DejaVuSans-6f" x="698.376953"/>
     <use xlink:href="#DejaVuSans-69" x="759.558594"/>
     <use xlink:href="#DejaVuSans-72" x="787.341797"/>
     <use xlink:href="#DejaVuSans-61" x="828.455078"/>
     <use xlink:href="#DejaVuSans-7a" x="889.734375"/>
     <use xlink:href="#DejaVuSans-69" x="942.224609"/>
     <use xlink:href="#DejaVuSans-20" x="970.007812"/>
     <use xlink:href="#DejaVuSans-32" x="1001.794922"/>
     <use xlink:href="#DejaVuSans-30" x="1065.417969"/>
     <use xlink:href="#DejaVuSans-31" x="1129.041016"/>
     <use xlink:href="#DejaVuSans-34" x="1192.664062"/>
    </g>
   </g>
   <g id="patch_2">
    <path d="M 406.3 273 
L 424.5 273 
L 424.5 37.56 
L 406.3 37.56 
L 406.3 273 
z
" clip-path="url(#pb8a6a1fa27)" style="fill: none; opacity: 0.5; stroke: #000000; stroke-linejoin: miter"/>
   </g>
   <g id="patch_3">
    <path d="M 561 214.14 
Q 492.75 243.57 424.5 273 
" style="fill: none; opacity: 0.5; stroke: #000000; stroke-linecap: round"/>
   </g>
   <g id="patch_4">
    <path d="M 561 72.876 
Q 492.75 55.218 424.5 37.56 
" style="fill: none; opacity: 0.5; stroke: #000000; stroke-linecap: round"/>
   </g>
   <g id="axes_2">
    <g id="patch_5">
     <path d="M 500.94 214.14 
L 561 214.14 
L 561 72.876 
L 500.94 72.876 
z
" style="fill: #ffffff"/>
    </g>
    <g id="matplotlib.axis_1">
     <g id="xtick_1"/>
     <g id="xtick_2"/>
     <g id="xtick_3"/>
    </g>
    <g id="matplotlib.axis_2">
     <g id="ytick_1"/>
     <g id="ytick_2"/>
     <g id="ytick_3"/>
     <g id="ytick_4"/>
     <g id="ytick_5"/>
     <g id="ytick_6"/>
    </g>
    <g id="line2d_2">
     <path d="M 500.902463 174.567717 
L 501.765825 173.81797 
L 502.403963 172.974223 
L 502.89195 171.94371 
L 503.267325 170.602366 
L 503.567625 168.609969 
L 503.79285 165.440309 
L 503.943 160.422043 
L 504.055613 150.273523 
L 504.205763 103.676685 
L 504.39345 80.411718 
L 504.468525 81.860407 
L 504.69375 94.287088 
L 506.232788 197.66152 
L 506.533088 203.271515 
L 506.833388 205.258867 
L 507.09615 205.855042 
L 507.358913 205.962609 
L 507.659213 205.784775 
L 508.184738 205.134594 
L 514.265813 196.510748 
L 517.644188 192.338683 
L 520.497038 189.157246 
L 523.01205 186.675756 
L 525.41445 184.614036 
L 527.779313 182.876149 
L 530.21925 181.359568 
L 532.846875 179.990107 
L 535.887413 178.663976 
L 540.054075 177.113219 
L 544.070588 175.564822 
L 545.572088 174.754981 
L 546.548063 173.983822 
L 547.223738 173.171834 
L 547.749263 172.17093 
L 548.124638 170.990633 
L 548.424938 169.347067 
L 548.650163 167.005515 
L 548.83785 162.659768 
L 548.988 152.152055 
L 549.100613 123.675052 
L 549.2883 81.059392 
L 549.325838 80.41375 
L 549.363375 80.638194 
L 549.513525 86.276375 
L 550.001513 120.927271 
L 551.24025 199.342863 
L 551.54055 203.861538 
L 551.84085 205.462921 
L 552.103613 205.912277 
L 552.328838 205.957248 
L 552.629138 205.761707 
L 553.1922 205.044645 
L 558.334838 197.651489 
L 561 194.25539 
L 561 194.25539 
" clip-path="url(#p6688f8855c)" style="fill: none; stroke: #1f77b4; stroke-width: 1.5; stroke-linecap: square"/>
    </g>
    <g id="patch_6">
     <path d="M 500.94 214.14 
L 500.94 72.876 
" style="fill: none; stroke: #000000; stroke-width: 0.8; stroke-linejoin: miter; stroke-linecap: square"/>
    </g>
    <g id="patch_7">
     <path d="M 500.94 214.14 
L 561 214.14 
" style="fill: none; stroke: #000000; stroke-width: 0.8; stroke-linejoin: miter; stroke-linecap: square"/>
    </g>
   </g>
  </g>
 </g>
 <defs>
  <clipPath id="pb8a6a1fa27">
   <rect x="15" y="37.56" width="546" height="235.44"/>
  </clipPath>
  <clipPath id="p6688f8855c">
   <rect x="500.94" y="72.876" width="60.06" height="141.264"/>
  </clipPath>
 </defs>
</svg>
