<?xml version="1.0" encoding="utf-8" standalone="no"?>
<!DOCTYPE svg PUBLIC "-//W3C//DTD SVG 1.1//EN"
  "http://www.w3.org/Graphics/SVG/1.1/DTD/svg11.dtd">
<svg xmlns:xlink="http://www.w3.org/1999/xlink" width="576pt" height="288pt" viewBox="0 0 576 288" xmlns="http://www.w3.org/2000/svg" version="1.1">
 <metadata>
  <rdf:RDF xmlns:dc="http://purl.org/dc/elements/1.1/" xmlns:cc="http://creativecommons.org/ns#" xmlns:rdf="http://www.w3.org/1999/02/22-rdf-syntax-ns#">
   <cc:Work>
    <dc:type rdf:resource="http://purl.org/dc/dcmitype/StillImage"/>
    <dc:date>2024-09-24T19:32:38.560688</dc:date>
    <dc:format>image/svg+xml</dc:format>
    <dc:creator>
     <cc:Agent>
      <dc:title>Matplotlib v3.7.4, https://matplotlib.org/</dc:title>
     </cc:Agent>
    </dc:creator>
   </cc:Work>
  </rdf:RDF>
 </metadata>
 <defs>
  <style type="text/css">*{stroke-linejoin: round; stroke-linecap: butt}</style>
 </defs>
 <g id="figure_1">
  <g id="patch_1">
   <path d="M 0 288 
L 576 288 
L 576 0 
L 0 0 
z
" style="fill: #ffffff"/>
  </g>
  <g id="axes_1">
   <g id="line2d_1">
    <path d="M 15 238.4688 
L 17.7755 238.431051 
L 106 238.466896 
L 106.3185 235.857702 
L 106.91 232.794782 
L 107.6835 230.002781 
L 108.639 227.40981 
L 109.822 224.856011 
L 111.369 222.076595 
L 115.0545 215.702105 
L 115.828 213.745344 
L 116.374 211.754992 
L 116.7835 209.383069 
L 117.0565 206.609545 
L 117.284 201.664677 
L 117.4205 192.796264 
L 117.5115 160.761599 
L 117.6935 48.025854 
L 117.7845 48.976042 
L 117.921 53.952692 
L 118.1485 72.767206 
L 118.649 142.480947 
L 119.195 235.971635 
L 119.2405 236.100915 
L 119.286 236.059251 
L 119.4225 235.34198 
L 120.833 225.300027 
L 121.5155 222.87348 
L 122.38 220.596569 
L 123.5175 218.271829 
L 125.0645 215.067244 
L 125.747 213.126864 
L 126.2475 211.039012 
L 126.6115 208.564439 
L 126.8845 205.062866 
L 127.0665 199.64438 
L 127.1575 192.536337 
L 127.2485 159.26558 
L 127.4305 47.995206 
L 127.5215 48.968559 
L 127.658 53.970104 
L 127.8855 72.83893 
L 128.386 142.706571 
L 128.932 236.319735 
L 128.9775 236.456179 
L 129.023 236.422551 
L 129.1595 235.731665 
L 130.57 225.818682 
L 131.207 223.550296 
L 131.9805 221.619398 
L 133.1635 219.327135 
L 135.0745 215.643055 
L 135.848 213.614336 
L 136.394 211.53355 
L 136.8035 208.999035 
L 137.0765 205.904915 
L 137.2585 201.644207 
L 137.395 192.845608 
L 137.486 161.52784 
L 137.668 48.00066 
L 137.7135 48.200939 
L 137.85 51.705936 
L 138.032 63.472073 
L 138.396 108.254449 
L 138.7145 164.383733 
L 138.9875 231.467817 
L 139.1695 236.389231 
L 139.215 236.548701 
L 139.2605 236.531565 
L 139.397 235.867396 
L 140.8985 225.46495 
L 141.581 223.097466 
L 142.4455 220.952588 
L 145.13 214.836497 
L 145.3575 213.756384 
L 145.6305 207.7894 
L 145.858 200.232909 
L 145.9945 186.479709 
L 146.0855 116.727566 
L 146.222 48.121914 
L 146.2675 48.169639 
L 146.404 51.349542 
L 146.586 62.759395 
L 146.9045 100.678398 
L 147.2685 161.213057 
L 147.5415 230.596298 
L 147.7235 236.180297 
L 147.8145 236.41214 
L 147.86 236.297418 
L 148.0875 234.742912 
L 148.952 228.182885 
L 149.5435 225.555091 
L 150.1805 223.70345 
L 150.954 222.135935 
L 152.0915 220.371244 
L 155.14 215.842621 
L 155.959 214.124756 
L 156.5505 212.383125 
L 157.0055 210.337646 
L 157.324 207.945365 
L 157.5515 204.806384 
L 157.7335 199.029525 
L 157.8245 190.854217 
L 157.9155 145.854953 
L 158.052 48.457867 
L 158.0975 47.993661 
L 158.143 48.377744 
L 158.2795 52.334064 
L 158.507 69.25549 
L 158.962 129.829927 
L 159.144 169.939727 
L 159.3715 230.366389 
L 159.5535 236.514861 
L 159.6445 236.807382 
L 159.69 236.70967 
L 159.872 235.564627 
L 160.9185 227.721604 
L 161.51 225.212807 
L 162.1925 223.272693 
L 163.057 221.532178 
L 164.422 219.356331 
L 166.424 216.135636 
L 167.2885 214.301213 
L 167.88 212.560282 
L 168.335 210.556227 
L 168.699 207.824058 
L 168.9265 204.533976 
L 169.1085 198.225365 
L 169.1995 188.423135 
L 169.2905 126.395234 
L 169.427 48.148045 
L 169.4725 48.061324 
L 169.5635 49.609831 
L 169.7455 58.508072 
L 170.0185 87.319022 
L 170.4735 159.65156 
L 170.792 233.806638 
L 170.974 236.825115 
L 171.0195 236.829426 
L 171.156 236.20162 
L 172.6575 225.977591 
L 173.2945 223.857932 
L 174.068 222.063486 
L 175.16 220.128476 
L 177.8445 215.558947 
L 178.618 213.690006 
L 179.164 211.795524 
L 179.5735 209.567032 
L 179.892 206.433495 
L 180.1195 201.339753 
L 180.256 191.761781 
L 180.347 153.211102 
L 180.529 47.985045 
L 180.62 49.089859 
L 180.802 57.035856 
L 181.075 84.52497 
L 181.53 153.901117 
L 181.894 234.560482 
L 182.076 236.811847 
L 182.167 236.581858 
L 182.44 234.511016 
L 183.2135 228.512985 
L 183.805 225.661769 
L 184.4875 223.477359 
L 185.3065 221.638068 
L 186.5805 219.397655 
L 188.5825 215.87479 
L 189.4015 213.937206 
L 189.993 211.92813 
L 190.4025 209.749734 
L 190.721 206.761376 
L 190.9485 202.149417 
L 191.085 194.519704 
L 191.176 172.24161 
L 191.358 48.113449 
L 191.4035 48.073957 
L 191.54 51.139769 
L 191.722 62.238283 
L 192.0405 99.972264 
L 192.4045 160.225323 
L 192.723 233.733487 
L 192.905 236.836223 
L 192.9505 236.849234 
L 193.087 236.235994 
L 193.7695 230.500963 
L 194.361 226.932161 
L 194.998 224.424847 
L 195.726 222.469097 
L 196.727 220.474825 
L 199.73 214.868029 
L 200.4125 212.902527 
L 200.913 210.722633 
L 201.277 208.02651 
L 201.5045 204.866341 
L 201.6865 199.11723 
L 201.7775 191.099964 
L 201.8685 148.027444 
L 202.005 48.446178 
L 202.0505 47.982243 
L 202.096 48.350083 
L 202.2325 52.248301 
L 202.46 69.060029 
L 202.915 129.571675 
L 203.097 169.359794 
L 203.3245 230.208837 
L 203.5065 236.58776 
L 203.5975 236.91159 
L 203.643 236.822774 
L 203.825 235.689662 
L 204.917 227.433656 
L 205.554 224.718939 
L 206.282 222.627751 
L 207.2375 220.618597 
L 210.3315 214.58396 
L 210.9685 212.607282 
L 211.4235 210.474157 
L 211.742 208.016876 
L 211.9695 204.823736 
L 212.1515 198.979642 
L 212.2425 190.709208 
L 212.3335 144.912037 
L 212.47 48.366268 
L 212.5155 47.98619 
L 212.561 48.385525 
L 212.6975 52.363913 
L 212.925 69.332727 
L 213.38 129.990425 
L 213.562 170.455591 
L 213.7895 230.680145 
L 213.9715 236.682331 
L 214.0625 236.955192 
L 214.108 236.850896 
L 214.29 235.684808 
L 215.3365 227.624383 
L 215.9735 224.79823 
L 216.7015 222.620774 
L 217.657 220.526645 
L 220.5235 214.673083 
L 221.1605 212.646467 
L 221.6155 210.460562 
L 221.934 207.931458 
L 222.1615 204.605168 
L 222.3435 198.310276 
L 222.4345 188.694871 
L 222.5255 128.787917 
L 222.662 48.139297 
L 222.7075 48.04575 
L 222.7985 49.563734 
L 222.9805 58.386559 
L 223.2535 87.113002 
L 223.7085 159.417374 
L 224.027 234.002261 
L 224.209 236.962391 
L 224.2545 236.959287 
L 224.391 236.311687 
L 226.029 224.934099 
L 226.1655 223.85192 
L 226.757 213.005202 
L 227.485 201.132551 
L 227.6215 191.535119 
L 227.7125 149.993002 
L 227.849 48.717418 
L 227.8945 48.219285 
L 227.94 48.56686 
L 228.0765 52.383359 
L 228.304 68.700826 
L 228.759 129.072937 
L 228.941 168.123374 
L 229.1685 228.62456 
L 229.3505 235.970702 
L 229.487 236.62133 
L 229.6235 236.0506 
L 231.1705 226.340434 
L 231.8075 224.439923 
L 232.581 222.833587 
L 233.7185 221.037377 
L 237.313 215.682438 
L 238.0865 213.991847 
L 238.678 212.159528 
L 239.133 209.944874 
L 239.4515 207.21927 
L 239.679 203.27954 
L 239.8155 197.697253 
L 239.9065 186.649501 
L 239.9975 113.461641 
L 240.134 48.068856 
L 240.1795 48.132189 
L 240.316 51.398517 
L 240.498 62.808633 
L 240.8165 100.875113 
L 241.1805 162.044832 
L 241.4535 230.876339 
L 241.6355 236.555317 
L 241.7265 236.813952 
L 241.772 236.710352 
L 241.954 235.569293 
L 243.0005 227.787251 
L 243.592 225.263053 
L 244.2745 223.288741 
L 245.139 221.50474 
L 246.5495 219.190407 
L 248.415 216.072918 
L 249.2795 214.162319 
L 249.871 212.319742 
L 250.326 210.13586 
L 250.6445 207.514625 
L 250.872 203.878654 
L 251.0085 199.106971 
L 251.0995 191.063926 
L 251.1905 147.607827 
L 251.327 48.469883 
L 251.3725 47.986619 
L 251.418 48.355764 
L 251.5545 52.265631 
L 251.782 69.099942 
L 252.237 129.633028 
L 252.419 169.490397 
L 252.6465 230.264192 
L 252.8285 236.627138 
L 252.9195 236.951345 
L 252.965 236.863389 
L 253.147 235.736402 
L 254.239 227.558758 
L 254.876 224.895126 
L 255.5585 222.969918 
L 256.4685 221.104728 
L 258.1975 218.203021 
L 259.5625 215.719083 
L 260.336 213.86439 
L 260.882 212.017902 
L 261.2915 209.899723 
L 261.61 207.049476 
L 261.8375 202.832376 
L 261.974 196.501412 
L 262.065 182.068005 
L 262.2925 47.984117 
L 262.3835 49.085689 
L 262.5655 57.024132 
L 262.8385 84.506107 
L 263.2935 153.89728 
L 263.6575 234.628401 
L 263.8395 236.89545 
L 263.9305 236.668687 
L 264.2035 234.598734 
L 264.977 228.568407 
L 265.5685 225.684988 
L 266.251 223.465648 
L 267.07 221.589183 
L 268.344 219.293115 
L 270.255 215.828497 
L 271.0285 213.959137 
L 271.62 211.924851 
L 272.0295 209.716184 
L 272.348 206.670216 
L 272.5755 201.900997 
L 272.712 193.709339 
L 272.803 167.277211 
L 272.985 48.04659 
L 273.0305 48.13699 
L 273.167 51.432855 
L 273.349 62.887004 
L 273.6675 101.007862 
L 274.0315 162.373335 
L 274.3045 230.945796 
L 274.4865 236.552167 
L 274.5775 236.798569 
L 274.623 236.690334 
L 274.805 235.533253 
L 275.8515 227.622413 
L 276.4885 224.857732 
L 277.171 222.849803 
L 278.081 220.890417 
L 281.4935 214.169514 
L 282.085 212.193557 
L 282.4945 210.112558 
L 282.813 207.385007 
L 283.0405 203.536825 
L 283.177 198.279494 
L 283.268 188.594923 
L 283.359 127.859278 
L 283.4955 48.140299 
L 283.541 48.051042 
L 283.632 49.580567 
L 283.814 58.43178 
L 284.087 87.192225 
L 284.542 159.507167 
L 284.8605 233.988557 
L 285.0425 236.969768 
L 285.088 236.969891 
L 285.2245 236.331225 
L 286.7715 225.667612 
L 287.454 223.358095 
L 288.273 221.391027 
L 289.638 218.783746 
L 291.185 215.735982 
L 291.9585 213.712427 
L 292.5045 211.656621 
L 292.914 209.187114 
L 293.187 206.241417 
L 293.369 202.351384 
L 293.5055 195.09591 
L 293.5965 175.460565 
L 293.824 48.028095 
L 293.915 49.491449 
L 294.097 58.190164 
L 294.37 86.749501 
L 294.825 158.64932 
L 295.1435 234.059536 
L 295.3255 237.01271 
L 295.371 237.008404 
L 295.5075 236.358945 
L 297.0545 225.57808 
L 297.737 223.20991 
L 298.6015 221.058376 
L 301.65 214.158698 
L 302.196 212.000042 
L 302.56 209.654327 
L 302.742 206.941844 
L 302.9695 197.073649 
L 303.0605 184.942601 
L 303.1515 107.094195 
L 303.288 48.037227 
L 303.3335 48.181858 
L 303.47 51.563785 
L 303.652 63.144186 
L 303.9705 101.66527 
L 304.3345 163.320555 
L 304.6075 230.943696 
L 304.7895 236.448232 
L 304.8805 236.679439 
L 304.926 236.566275 
L 305.1535 235.021375 
L 306.018 228.439039 
L 306.6095 225.766113 
L 307.2465 223.863011 
L 308.02 222.244103 
L 309.1575 220.422698 
L 312.206 215.768836 
L 313.025 213.988745 
L 313.6165 212.154413 
L 314.0715 209.935991 
L 314.39 207.200978 
L 314.6175 203.23401 
L 314.754 197.574291 
L 314.845 186.199493 
L 314.936 110.402623 
L 315.0725 48.05722 
L 315.118 48.146894 
L 315.2545 51.467576 
L 315.4365 62.960312 
L 315.755 101.111472 
L 316.119 162.535769 
L 316.392 230.955321 
L 316.574 236.542522 
L 316.665 236.788725 
L 316.7105 236.681416 
L 316.8925 235.533151 
L 317.939 227.760085 
L 318.5305 225.246167 
L 319.213 223.287256 
L 320.0775 221.518811 
L 321.488 219.227966 
L 323.399 216.074433 
L 324.2635 214.184969 
L 324.855 212.367074 
L 325.31 210.223916 
L 325.6285 207.678744 
L 325.856 204.221823 
L 326.038 197.243136 
L 326.129 184.996728 
L 326.22 102.90534 
L 326.3565 48.019574 
L 326.402 48.187472 
L 326.5385 51.646197 
L 326.7205 63.345587 
L 327.039 101.714541 
L 327.403 163.945896 
L 327.676 231.487706 
L 327.858 236.619813 
L 327.949 236.801271 
L 328.0855 236.173694 
L 329.6325 225.795856 
L 330.2695 223.713973 
L 331.043 221.926615 
L 332.1805 219.894977 
L 334.592 215.717056 
L 335.3655 213.874046 
L 335.9115 212.040895 
L 336.321 209.942928 
L 336.6395 207.134399 
L 336.867 203.027065 
L 337.0035 197.017829 
L 337.0945 184.145732 
L 337.322 48.00225 
L 337.4585 50.120289 
L 337.6405 59.821341 
L 337.9135 89.629545 
L 338.3685 164.967274 
L 338.6415 231.893478 
L 338.8235 236.685875 
L 338.869 236.838571 
L 338.9145 236.818139 
L 339.051 236.155066 
L 340.5525 225.89072 
L 341.1895 223.727459 
L 341.963 221.873872 
L 343.1005 219.768259 
L 345.3755 215.665335 
L 346.149 213.746354 
L 346.695 211.809823 
L 347.1045 209.531722 
L 347.423 206.308059 
L 347.605 202.531675 
L 347.7415 195.646222 
L 347.8325 178.191806 
L 348.06 47.997353 
L 348.151 49.331406 
L 348.333 57.743747 
L 348.606 85.901655 
L 349.061 156.847148 
L 349.3795 233.750838 
L 349.5615 236.971322 
L 349.607 236.990146 
L 349.7435 236.379878 
L 350.335 231.289544 
L 350.9265 227.415569 
L 351.5635 224.706523 
L 352.2915 222.620127 
L 353.247 220.619436 
L 356.3865 214.542568 
L 357.0235 212.566508 
L 357.4785 210.42424 
L 357.797 207.940854 
L 358.0245 204.681229 
L 358.2065 198.578584 
L 358.2975 189.515657 
L 358.3885 135.120909 
L 358.525 48.214482 
L 358.5705 48.017195 
L 358.6615 49.4413 
L 358.8435 58.052105 
L 359.1165 86.48776 
L 359.5715 158.063911 
L 359.89 234.000271 
L 360.072 237.005053 
L 360.1175 237.005117 
L 360.254 236.363464 
L 361.801 225.661904 
L 362.4835 223.349782 
L 363.3025 221.385322 
L 364.6675 218.791156 
L 366.26 215.671563 
L 367.0335 213.642862 
L 367.5795 211.567485 
L 367.989 209.047742 
L 368.262 205.987557 
L 368.444 201.812863 
L 368.5805 193.391631 
L 368.6715 165.214824 
L 368.8535 48.024355 
L 368.899 48.159462 
L 369.0355 51.534973 
L 369.2175 63.109416 
L 369.536 101.358138 
L 369.9 163.178479 
L 370.173 231.172235 
L 370.355 236.580589 
L 370.446 236.798393 
L 370.5825 236.190389 
L 371.174 231.139393 
L 371.7655 227.264789 
L 372.4025 224.524152 
L 373.1305 222.382578 
L 374.1315 220.192838 
L 376.6795 214.911051 
L 377.3165 212.953062 
L 377.7715 210.910068 
L 378.1355 208.230635 
L 378.4085 204.231611 
L 378.5905 197.150215 
L 378.6815 184.675727 
L 378.7725 101.213899 
L 378.909 48.000713 
L 378.9545 48.194427 
L 379.091 51.683508 
L 379.273 63.429298 
L 379.637 108.221127 
L 379.9555 164.469295 
L 380.2285 231.695755 
L 380.4105 236.667777 
L 380.5015 236.821324 
L 380.638 236.164713 
L 382.276 224.833443 
L 382.4125 223.881823 
L 383.7775 197.610611 
L 383.8685 186.325959 
L 383.9595 110.045226 
L 384.096 48.275522 
L 384.1415 48.38765 
L 384.278 51.692892 
L 384.46 62.883725 
L 384.7785 100.853471 
L 385.1425 162.007075 
L 385.4155 229.696379 
L 385.5975 235.675253 
L 385.734 236.281511 
L 385.8705 235.724385 
L 387.4175 226.18373 
L 388.0545 224.275035 
L 388.828 222.641198 
L 389.9655 220.788679 
L 393.1505 215.838466 
L 393.9695 214.016871 
L 394.561 212.138651 
L 394.9705 210.147736 
L 395.289 207.548945 
L 395.5165 203.956808 
L 395.653 199.282654 
L 395.744 191.545009 
L 395.835 151.414456 
L 396.017 47.986894 
L 396.108 49.127899 
L 396.29 57.148973 
L 396.563 84.746896 
L 397.018 154.398018 
L 397.382 234.800625 
L 397.564 236.941418 
L 397.655 236.694072 
L 397.928 234.602827 
L 398.7015 228.582667 
L 399.293 225.714537 
L 399.9755 223.503533 
L 400.7945 221.642072 
L 402.023 219.460552 
L 404.0705 215.844502 
L 404.8895 213.890968 
L 405.4355 212.044166 
L 405.845 209.930154 
L 406.1635 207.094164 
L 406.391 202.921673 
L 406.5275 196.729709 
L 406.6185 182.995605 
L 406.846 47.988859 
L 406.937 49.022726 
L 407.119 56.834746 
L 407.392 84.13755 
L 407.847 153.125581 
L 408.211 234.447692 
L 408.393 236.888541 
L 408.484 236.687776 
L 408.7115 235.040684 
L 409.576 228.300793 
L 410.1675 225.480113 
L 410.85 223.293637 
L 411.669 221.425511 
L 413.034 218.954316 
L 414.7175 215.84337 
L 415.491 213.960863 
L 416.0825 211.911572 
L 416.492 209.681306 
L 416.8105 206.588252 
L 417.038 201.678603 
L 417.1745 192.941934 
L 417.2655 162.040976 
L 417.4475 48.007859 
L 417.493 48.195211 
L 417.6295 51.682974 
L 417.8115 63.426071 
L 418.1755 108.206143 
L 418.494 164.317287 
L 418.767 231.646279 
L 418.949 236.660955 
L 419.04 236.823979 
L 419.1765 236.179951 
L 420.7235 225.633769 
L 421.406 223.352835 
L 422.225 221.414507 
L 423.5445 218.941336 
L 425.228 215.716721 
L 426.0015 213.737215 
L 426.5475 211.734966 
L 426.957 209.355091 
L 427.23 206.576018 
L 427.4575 201.624713 
L 427.594 192.746701 
L 427.685 160.676034 
L 427.867 47.998858 
L 427.958 48.932993 
L 428.0945 53.884493 
L 428.322 72.674865 
L 428.8225 142.54599 
L 429.3685 236.691022 
L 429.414 236.848216 
L 429.4595 236.830552 
L 429.596 236.169219 
L 431.0975 225.756581 
L 431.78 223.390051 
L 432.599 221.384761 
L 433.9185 218.827552 
L 435.511 215.659991 
L 436.2845 213.598499 
L 436.8305 211.477374 
L 437.1945 209.244655 
L 437.4675 206.34341 
L 437.6495 202.558129 
L 437.786 195.690836 
L 437.877 178.428466 
L 438.1045 47.992354 
L 438.1955 49.314146 
L 438.3775 57.696492 
L 438.6505 85.817052 
L 439.1055 156.710575 
L 439.424 233.749045 
L 439.606 236.986161 
L 439.6515 237.005311 
L 439.788 236.391983 
L 440.334 231.626414 
L 440.9255 227.550028 
L 441.5625 224.676007 
L 442.2905 222.445619 
L 443.246 220.279486 
L 445.8395 214.730521 
L 446.4765 212.649883 
L 446.9315 210.398172 
L 447.25 207.764837 
L 447.4775 204.21927 
L 447.6595 197.069145 
L 447.7505 184.355853 
L 447.8415 99.38449 
L 447.978 47.994455 
L 448.069 48.925452 
L 448.2055 53.866421 
L 448.433 72.642796 
L 448.9335 142.537115 
L 449.4795 236.693343 
L 449.525 236.847905 
L 449.5705 236.82709 
L 449.707 236.152667 
L 450.253 231.28141 
L 450.435 228.734367 
L 450.8445 219.75784 
L 451.2995 213.906288 
L 451.527 212.30944 
L 451.5725 212.372041 
L 451.982 212.868751 
L 452.2095 212.846874 
L 452.4825 212.567263 
L 452.8465 211.77715 
L 453.2105 210.437801 
L 453.529 208.493526 
L 453.802 205.383511 
L 453.984 200.778746 
L 454.1205 189.834452 
L 454.2115 137.930498 
L 454.348 48.320028 
L 454.3935 48.016724 
L 454.4845 49.396404 
L 454.6665 57.929538 
L 454.9395 86.244888 
L 455.3945 157.514324 
L 455.713 234.047715 
L 455.895 237.194677 
L 455.9405 237.21311 
L 456.077 236.615846 
L 457.624 226.351617 
L 458.261 224.355453 
L 459.0345 222.662821 
L 460.1265 220.834325 
L 463.4935 215.488262 
L 464.267 213.660482 
L 464.813 211.796155 
L 465.2225 209.598381 
L 465.541 206.514405 
L 465.7685 201.552605 
L 465.905 192.512501 
L 465.996 158.819315 
L 466.178 47.999524 
L 466.269 48.973037 
L 466.4055 53.986376 
L 466.633 72.883806 
L 467.1335 142.893039 
L 467.6795 236.74245 
L 467.725 236.884686 
L 467.7705 236.856927 
L 467.907 236.182272 
L 469.363 226.135745 
L 470 223.925432 
L 470.273 225.521028 
L 470.819 227.405459 
L 471.547 229.088804 
L 472.4115 230.529983 
L 473.458 231.847333 
L 474.6865 233.036663 
L 476.097 234.093894 
L 477.735 235.041036 
L 479.646 235.882363 
L 481.8755 236.614946 
L 484.5145 237.243571 
L 487.745 237.775755 
L 491.749 238.199943 
L 496.936 238.514061 
L 504.1705 238.712684 
L 515.864 238.784445 
L 550.262 238.67506 
L 561 238.642223 
L 561 238.642223 
" clip-path="url(#p82a511e53d)" style="fill: none; stroke: #1f77b4; stroke-width: 1.5; stroke-linecap: square"/>
   </g>
   <g id="text_1">
    <!-- 0.25 nA -->
    <g transform="translate(37.75 53.256) scale(0.2 -0.2)">
     <defs>
      <path id="DejaVuSans-30" d="M 2034 4250 
Q 1547 4250 1301 3770 
Q 1056 3291 1056 2328 
Q 1056 1369 1301 889 
Q 1547 409 2034 409 
Q 2525 409 2770 889 
Q 3016 1369 3016 2328 
Q 3016 3291 2770 3770 
Q 2525 4250 2034 4250 
z
M 2034 4750 
Q 2819 4750 3233 4129 
Q 3647 3509 3647 2328 
Q 3647 1150 3233 529 
Q 2819 -91 2034 -91 
Q 1250 -91 836 529 
Q 422 1150 422 2328 
Q 422 3509 836 4129 
Q 1250 4750 2034 4750 
z
" transform="scale(0.015625)"/>
      <path id="DejaVuSans-2e" d="M 684 794 
L 1344 794 
L 1344 0 
L 684 0 
L 684 794 
z
" transform="scale(0.015625)"/>
      <path id="DejaVuSans-32" d="M 1228 531 
L 3431 531 
L 3431 0 
L 469 0 
L 469 531 
Q 828 903 1448 1529 
Q 2069 2156 2228 2338 
Q 2531 2678 2651 2914 
Q 2772 3150 2772 3378 
Q 2772 3750 2511 3984 
Q 2250 4219 1831 4219 
Q 1534 4219 1204 4116 
Q 875 4013 500 3803 
L 500 4441 
Q 881 4594 1212 4672 
Q 1544 4750 1819 4750 
Q 2544 4750 2975 4387 
Q 3406 4025 3406 3419 
Q 3406 3131 3298 2873 
Q 3191 2616 2906 2266 
Q 2828 2175 2409 1742 
Q 1991 1309 1228 531 
z
" transform="scale(0.015625)"/>
      <path id="DejaVuSans-35" d="M 691 4666 
L 3169 4666 
L 3169 4134 
L 1269 4134 
L 1269 2991 
Q 1406 3038 1543 3061 
Q 1681 3084 1819 3084 
Q 2600 3084 3056 2656 
Q 3513 2228 3513 1497 
Q 3513 744 3044 326 
Q 2575 -91 1722 -91 
Q 1428 -91 1123 -41 
Q 819 9 494 109 
L 494 744 
Q 775 591 1075 516 
Q 1375 441 1709 441 
Q 2250 441 2565 725 
Q 2881 1009 2881 1497 
Q 2881 1984 2565 2268 
Q 2250 2553 1709 2553 
Q 1456 2553 1204 2497 
Q 953 2441 691 2322 
L 691 4666 
z
" transform="scale(0.015625)"/>
      <path id="DejaVuSans-20" transform="scale(0.015625)"/>
      <path id="DejaVuSans-6e" d="M 3513 2113 
L 3513 0 
L 2938 0 
L 2938 2094 
Q 2938 2591 2744 2837 
Q 2550 3084 2163 3084 
Q 1697 3084 1428 2787 
Q 1159 2491 1159 1978 
L 1159 0 
L 581 0 
L 581 3500 
L 1159 3500 
L 1159 2956 
Q 1366 3272 1645 3428 
Q 1925 3584 2291 3584 
Q 2894 3584 3203 3211 
Q 3513 2838 3513 2113 
z
" transform="scale(0.015625)"/>
      <path id="DejaVuSans-41" d="M 2188 4044 
L 1331 1722 
L 3047 1722 
L 2188 4044 
z
M 1831 4666 
L 2547 4666 
L 4325 0 
L 3669 0 
L 3244 1197 
L 1141 1197 
L 716 0 
L 50 0 
L 1831 4666 
z
" transform="scale(0.015625)"/>
     </defs>
     <use xlink:href="#DejaVuSans-30"/>
     <use xlink:href="#DejaVuSans-2e" x="63.623047"/>
     <use xlink:href="#DejaVuSans-32" x="95.410156"/>
     <use xlink:href="#DejaVuSans-35" x="159.033203"/>
     <use xlink:href="#DejaVuSans-20" x="222.65625"/>
     <use xlink:href="#DejaVuSans-6e" x="254.443359"/>
     <use xlink:href="#DejaVuSans-41" x="317.822266"/>
    </g>
   </g>
   <g id="text_2">
    <!-- Tzilivaki.4 2019 -->
    <g transform="translate(201.6775 31.56) scale(0.22 -0.22)">
     <defs>
      <path id="DejaVuSans-54" d="M -19 4666 
L 3928 4666 
L 3928 4134 
L 2272 4134 
L 2272 0 
L 1638 0 
L 1638 4134 
L -19 4134 
L -19 4666 
z
" transform="scale(0.015625)"/>
      <path id="DejaVuSans-7a" d="M 353 3500 
L 3084 3500 
L 3084 2975 
L 922 459 
L 3084 459 
L 3084 0 
L 275 0 
L 275 525 
L 2438 3041 
L 353 3041 
L 353 3500 
z
" transform="scale(0.015625)"/>
      <path id="DejaVuSans-69" d="M 603 3500 
L 1178 3500 
L 1178 0 
L 603 0 
L 603 3500 
z
M 603 4863 
L 1178 4863 
L 1178 4134 
L 603 4134 
L 603 4863 
z
" transform="scale(0.015625)"/>
      <path id="DejaVuSans-6c" d="M 603 4863 
L 1178 4863 
L 1178 0 
L 603 0 
L 603 4863 
z
" transform="scale(0.015625)"/>
      <path id="DejaVuSans-76" d="M 191 3500 
L 800 3500 
L 1894 563 
L 2988 3500 
L 3597 3500 
L 2284 0 
L 1503 0 
L 191 3500 
z
" transform="scale(0.015625)"/>
      <path id="DejaVuSans-61" d="M 2194 1759 
Q 1497 1759 1228 1600 
Q 959 1441 959 1056 
Q 959 750 1161 570 
Q 1363 391 1709 391 
Q 2188 391 2477 730 
Q 2766 1069 2766 1631 
L 2766 1759 
L 2194 1759 
z
M 3341 1997 
L 3341 0 
L 2766 0 
L 2766 531 
Q 2569 213 2275 61 
Q 1981 -91 1556 -91 
Q 1019 -91 701 211 
Q 384 513 384 1019 
Q 384 1609 779 1909 
Q 1175 2209 1959 2209 
L 2766 2209 
L 2766 2266 
Q 2766 2663 2505 2880 
Q 2244 3097 1772 3097 
Q 1472 3097 1187 3025 
Q 903 2953 641 2809 
L 641 3341 
Q 956 3463 1253 3523 
Q 1550 3584 1831 3584 
Q 2591 3584 2966 3190 
Q 3341 2797 3341 1997 
z
" transform="scale(0.015625)"/>
      <path id="DejaVuSans-6b" d="M 581 4863 
L 1159 4863 
L 1159 1991 
L 2875 3500 
L 3609 3500 
L 1753 1863 
L 3688 0 
L 2938 0 
L 1159 1709 
L 1159 0 
L 581 0 
L 581 4863 
z
" transform="scale(0.015625)"/>
      <path id="DejaVuSans-34" d="M 2419 4116 
L 825 1625 
L 2419 1625 
L 2419 4116 
z
M 2253 4666 
L 3047 4666 
L 3047 1625 
L 3713 1625 
L 3713 1100 
L 3047 1100 
L 3047 0 
L 2419 0 
L 2419 1100 
L 313 1100 
L 313 1709 
L 2253 4666 
z
" transform="scale(0.015625)"/>
      <path id="DejaVuSans-31" d="M 794 531 
L 1825 531 
L 1825 4091 
L 703 3866 
L 703 4441 
L 1819 4666 
L 2450 4666 
L 2450 531 
L 3481 531 
L 3481 0 
L 794 0 
L 794 531 
z
" transform="scale(0.015625)"/>
      <path id="DejaVuSans-39" d="M 703 97 
L 703 672 
Q 941 559 1184 500 
Q 1428 441 1663 441 
Q 2288 441 2617 861 
Q 2947 1281 2994 2138 
Q 2813 1869 2534 1725 
Q 2256 1581 1919 1581 
Q 1219 1581 811 2004 
Q 403 2428 403 3163 
Q 403 3881 828 4315 
Q 1253 4750 1959 4750 
Q 2769 4750 3195 4129 
Q 3622 3509 3622 2328 
Q 3622 1225 3098 567 
Q 2575 -91 1691 -91 
Q 1453 -91 1209 -44 
Q 966 3 703 97 
z
M 1959 2075 
Q 2384 2075 2632 2365 
Q 2881 2656 2881 3163 
Q 2881 3666 2632 3958 
Q 2384 4250 1959 4250 
Q 1534 4250 1286 3958 
Q 1038 3666 1038 3163 
Q 1038 2656 1286 2365 
Q 1534 2075 1959 2075 
z
" transform="scale(0.015625)"/>
     </defs>
     <use xlink:href="#DejaVuSans-54"/>
     <use xlink:href="#DejaVuSans-7a" x="61.083984"/>
     <use xlink:href="#DejaVuSans-69" x="113.574219"/>
     <use xlink:href="#DejaVuSans-6c" x="141.357422"/>
     <use xlink:href="#DejaVuSans-69" x="169.140625"/>
     <use xlink:href="#DejaVuSans-76" x="196.923828"/>
     <use xlink:href="#DejaVuSans-61" x="256.103516"/>
     <use xlink:href="#DejaVuSans-6b" x="317.382812"/>
     <use xlink:href="#DejaVuSans-69" x="375.292969"/>
     <use xlink:href="#DejaVuSans-2e" x="403.076172"/>
     <use xlink:href="#DejaVuSans-34" x="434.863281"/>
     <use xlink:href="#DejaVuSans-20" x="498.486328"/>
     <use xlink:href="#DejaVuSans-32" x="530.273438"/>
     <use xlink:href="#DejaVuSans-30" x="593.896484"/>
     <use xlink:href="#DejaVuSans-31" x="657.519531"/>
     <use xlink:href="#DejaVuSans-39" x="721.142578"/>
    </g>
   </g>
   <g id="patch_2">
    <path d="M 406.3 273 
L 424.5 273 
L 424.5 37.56 
L 406.3 37.56 
L 406.3 273 
z
" clip-path="url(#p82a511e53d)" style="fill: none; opacity: 0.5; stroke: #000000; stroke-linejoin: miter"/>
   </g>
   <g id="patch_3">
    <path d="M 561 214.14 
Q 492.75 243.57 424.5 273 
" style="fill: none; opacity: 0.5; stroke: #000000; stroke-linecap: round"/>
   </g>
   <g id="patch_4">
    <path d="M 561 72.876 
Q 492.75 55.218 424.5 37.56 
" style="fill: none; opacity: 0.5; stroke: #000000; stroke-linecap: round"/>
   </g>
   <g id="axes_2">
    <g id="patch_5">
     <path d="M 500.94 214.14 
L 561 214.14 
L 561 72.876 
L 500.94 72.876 
z
" style="fill: #ffffff"/>
    </g>
    <g id="matplotlib.axis_1">
     <g id="xtick_1"/>
     <g id="xtick_2"/>
     <g id="xtick_3"/>
    </g>
    <g id="matplotlib.axis_2">
     <g id="ytick_1"/>
     <g id="ytick_2"/>
     <g id="ytick_3"/>
     <g id="ytick_4"/>
     <g id="ytick_5"/>
     <g id="ytick_6"/>
    </g>
    <g id="line2d_2">
     <path d="M 500.94 173.350473 
L 501.39045 171.218402 
L 501.69075 168.377825 
L 501.8409 165.651876 
L 501.99105 160.137363 
L 502.1412 144.210131 
L 502.4415 82.993196 
L 502.59165 79.591745 
L 502.7418 79.133315 
L 502.89195 79.293807 
L 503.19225 80.481404 
L 503.49255 82.806632 
L 503.943 88.697241 
L 504.5436 100.82253 
L 505.7448 131.595681 
L 506.0451 142.215349 
L 506.3454 161.190204 
L 506.6457 178.792831 
L 506.946 187.644853 
L 507.2463 191.008615 
L 507.5466 192.184516 
L 507.8469 192.473125 
L 508.1472 192.352665 
L 508.59765 191.82229 
L 511.7508 187.320476 
L 512.952 186.199372 
L 514.30335 185.226939 
L 515.955 184.316182 
L 518.0571 183.419075 
L 521.3604 182.281605 
L 529.1682 179.668587 
L 531.42045 178.6376 
L 532.92195 177.712902 
L 533.973 176.825535 
L 534.72375 175.949253 
L 535.32435 174.961226 
L 535.7748 173.889242 
L 536.22525 172.194058 
L 536.52555 170.228145 
L 536.82585 166.10516 
L 536.976 161.165932 
L 537.12615 147.564585 
L 537.42645 84.125219 
L 537.5766 79.752976 
L 537.72675 79.144716 
L 537.8769 79.257127 
L 538.1772 80.375621 
L 538.4775 82.625524 
L 538.92795 88.395642 
L 539.52855 100.391613 
L 540.72975 131.043907 
L 541.03005 141.362116 
L 541.33035 159.526846 
L 541.63065 177.691954 
L 541.93095 186.98498 
L 542.23125 190.742532 
L 542.53155 192.078623 
L 542.83185 192.439071 
L 543.13215 192.354278 
L 543.5826 191.848071 
L 545.0841 189.464085 
L 546.2853 187.836373 
L 547.4865 186.583362 
L 548.83785 185.504835 
L 550.33935 184.586182 
L 552.2913 183.664647 
L 555.14415 182.59776 
L 561.15015 180.607991 
L 561.15015 180.607991 
" clip-path="url(#pd83ca6edef)" style="fill: none; stroke: #1f77b4; stroke-width: 1.5; stroke-linecap: square"/>
    </g>
    <g id="patch_6">
     <path d="M 500.94 214.14 
L 500.94 72.876 
" style="fill: none; stroke: #000000; stroke-width: 0.8; stroke-linejoin: miter; stroke-linecap: square"/>
    </g>
    <g id="patch_7">
     <path d="M 500.94 214.14 
L 561 214.14 
" style="fill: none; stroke: #000000; stroke-width: 0.8; stroke-linejoin: miter; stroke-linecap: square"/>
    </g>
   </g>
  </g>
 </g>
 <defs>
  <clipPath id="p82a511e53d">
   <rect x="15" y="37.56" width="546" height="235.44"/>
  </clipPath>
  <clipPath id="pd83ca6edef">
   <rect x="500.94" y="72.876" width="60.06" height="141.264"/>
  </clipPath>
 </defs>
</svg>
