<?xml version="1.0" encoding="utf-8" standalone="no"?>
<!DOCTYPE svg PUBLIC "-//W3C//DTD SVG 1.1//EN"
  "http://www.w3.org/Graphics/SVG/1.1/DTD/svg11.dtd">
<svg xmlns:xlink="http://www.w3.org/1999/xlink" width="576pt" height="288pt" viewBox="0 0 576 288" xmlns="http://www.w3.org/2000/svg" version="1.1">
 <metadata>
  <rdf:RDF xmlns:dc="http://purl.org/dc/elements/1.1/" xmlns:cc="http://creativecommons.org/ns#" xmlns:rdf="http://www.w3.org/1999/02/22-rdf-syntax-ns#">
   <cc:Work>
    <dc:type rdf:resource="http://purl.org/dc/dcmitype/StillImage"/>
    <dc:date>2024-09-24T19:36:14.825416</dc:date>
    <dc:format>image/svg+xml</dc:format>
    <dc:creator>
     <cc:Agent>
      <dc:title>Matplotlib v3.7.4, https://matplotlib.org/</dc:title>
     </cc:Agent>
    </dc:creator>
   </cc:Work>
  </rdf:RDF>
 </metadata>
 <defs>
  <style type="text/css">*{stroke-linejoin: round; stroke-linecap: butt}</style>
 </defs>
 <g id="figure_1">
  <g id="patch_1">
   <path d="M 0 288 
L 576 288 
L 576 0 
L 0 0 
z
" style="fill: #ffffff"/>
  </g>
  <g id="axes_1">
   <g id="line2d_1">
    <path d="M 15 233.76 
L 53.06075 233.744777 
L 106.011375 233.682477 
L 107.06925 228.50982 
L 108.184 224.148901 
L 109.6855 219.265139 
L 110.652375 215.824808 
L 111.107375 213.371744 
L 111.39175 210.633896 
L 111.57375 206.725523 
L 111.6875 198.609342 
L 111.744375 174.23427 
L 111.84675 73.287982 
L 111.903625 88.271014 
L 112.30175 232.396225 
L 112.5065 242.815584 
L 112.6885 244.173965 
L 112.75675 244.092306 
L 112.927375 243.346763 
L 113.655375 238.537507 
L 114.724625 232.318348 
L 115.793875 227.374897 
L 116.94275 223.110283 
L 119.377 214.533317 
L 119.729625 212.015564 
L 119.957125 208.776592 
L 120.105 202.945965 
L 120.184625 187.522754 
L 120.298375 73.245529 
L 120.40075 110.18127 
L 120.685125 221.569827 
L 120.90125 241.258335 
L 121.094625 244.089722 
L 121.162875 244.175979 
L 121.208375 244.110457 
L 121.367625 243.447304 
L 121.9705 239.477594 
L 123.0625 232.948012 
L 124.13175 227.876805 
L 125.257875 223.596722 
L 127.90825 214.115397 
L 128.238125 211.490507 
L 128.45425 207.820161 
L 128.579375 201.534902 
L 128.647625 184.732396 
L 128.761375 73.256564 
L 128.852375 106.213783 
L 129.148125 222.500499 
L 129.36425 241.4105 
L 129.557625 244.102148 
L 129.6145 244.175379 
L 129.671375 244.096001 
L 129.842 243.353748 
L 130.558625 238.619111 
L 131.63925 232.324445 
L 132.7085 227.379761 
L 133.857375 223.114254 
L 136.291625 214.53976 
L 136.64425 212.027037 
L 136.87175 208.802247 
L 137.019625 203.035557 
L 137.09925 188.111034 
L 137.213 73.285417 
L 137.315375 109.444333 
L 137.59975 221.339084 
L 137.815875 241.219645 
L 138.00925 244.0856 
L 138.0775 244.176447 
L 138.123 244.113004 
L 138.28225 243.45368 
L 138.87375 239.561196 
L 139.977125 232.954215 
L 141.046375 227.881745 
L 142.1725 223.60074 
L 144.822875 214.122377 
L 145.15275 211.503482 
L 145.368875 207.852158 
L 145.494 201.647907 
L 145.56225 185.446781 
L 145.676 73.233025 
L 145.767 105.503717 
L 146.06275 222.282372 
L 146.278875 241.374712 
L 146.47225 244.099159 
L 146.529125 244.176149 
L 146.586 244.099333 
L 146.756625 243.360829 
L 147.47325 238.627099 
L 148.553875 232.330792 
L 149.623125 227.384824 
L 150.772 223.118389 
L 153.20625 214.546452 
L 153.558875 212.038942 
L 153.786375 208.828802 
L 153.93425 203.127073 
L 154.013875 188.692727 
L 154.127625 73.351731 
L 154.241375 115.871023 
L 154.514375 221.092656 
L 154.7305 241.176993 
L 154.923875 244.079823 
L 154.992125 244.175587 
L 155.037625 244.114378 
L 155.196875 243.459195 
L 155.788375 239.568395 
L 156.89175 232.959958 
L 157.961 227.88632 
L 159.087125 223.604462 
L 161.748875 214.060558 
L 162.07875 211.387616 
L 162.2835 207.881632 
L 162.408625 201.751146 
L 162.476875 186.074695 
L 162.590625 73.216035 
L 162.681625 104.849186 
L 162.977375 222.080601 
L 163.1935 241.342308 
L 163.386875 244.097079 
L 163.44375 244.17753 
L 163.500625 244.10307 
L 163.67125 243.367995 
L 164.3765 238.709135 
L 165.457125 232.396013 
L 166.526375 227.436845 
L 167.663875 223.19928 
L 170.13225 214.490723 
L 170.484875 211.939239 
L 170.712375 208.603243 
L 170.848875 203.216068 
L 170.9285 189.241343 
L 171.053625 73.356764 
L 171.156 115.096744 
L 171.429 220.846362 
L 171.645125 241.134077 
L 171.8385 244.073737 
L 171.90675 244.174416 
L 171.95225 244.11544 
L 172.1115 243.464402 
L 172.691625 239.651302 
L 173.795 233.025985 
L 174.86425 227.938908 
L 175.990375 223.647213 
L 178.6635 214.066854 
L 178.993375 211.399494 
L 179.198125 207.909769 
L 179.32325 201.848669 
L 179.3915 186.652305 
L 179.50525 73.217469 
L 179.607625 111.215537 
L 179.880625 219.607737 
L 180.09675 240.928993 
L 180.3015 244.09501 
L 180.36975 244.174919 
L 180.41525 244.106523 
L 180.5745 243.438083 
L 181.18875 239.390828 
L 182.28075 232.87887 
L 183.35 227.821727 
L 184.476125 223.551908 
L 187.115125 214.105412 
L 187.445 211.471894 
L 187.661125 207.773995 
L 187.78625 201.369438 
L 187.8545 183.641489 
L 187.96825 73.309447 
L 188.047875 100.472811 
L 188.366375 224.813863 
L 188.5825 241.792993 
L 188.775875 244.134892 
L 188.821375 244.174163 
L 188.87825 244.091152 
L 189.048875 243.343587 
L 189.78825 238.460006 
L 190.8575 232.256615 
L 191.92675 227.325646 
L 193.075625 223.070049 
L 195.487125 214.592024 
L 195.851125 212.009928 
L 196.078625 208.763967 
L 196.215125 203.713155 
L 196.29475 192.028834 
L 196.351625 122.196818 
L 196.419875 73.228796 
L 196.47675 85.835844 
L 196.909 235.116587 
L 197.11375 243.280811 
L 197.273 244.179425 
L 197.284375 244.176156 
L 197.375375 243.974658 
L 197.61425 242.690214 
L 199.457 231.5383 
L 200.52625 226.751853 
L 201.697875 222.52397 
L 203.859125 215.038128 
L 204.25725 212.488347 
L 204.5075 209.359712 
L 204.66675 204.12555 
L 204.746375 194.022508 
L 204.791875 158.679665 
L 204.882875 73.270778 
L 204.928375 83.197271 
L 205.39475 237.175516 
L 205.5995 243.605244 
L 205.736 244.174618 
L 205.75875 244.157563 
L 205.8725 243.814552 
L 206.202375 241.825816 
L 207.567375 233.342867 
L 208.636625 228.19119 
L 209.751375 223.891485 
L 211.389375 218.590745 
L 212.21975 215.500233 
L 212.652 213.00247 
L 212.925 210.057471 
L 213.095625 205.630594 
L 213.198 195.553534 
L 213.2435 168.260682 
L 213.3345 73.262455 
L 213.391375 85.338932 
L 213.823625 235.018116 
L 214.028375 243.264372 
L 214.187625 244.179198 
L 214.199 244.176546 
L 214.29 243.978611 
L 214.528875 242.697519 
L 216.371625 231.54402 
L 217.440875 226.756427 
L 218.6125 222.527735 
L 220.77375 215.043808 
L 221.171875 212.498277 
L 221.422125 209.381326 
L 221.581375 204.194447 
L 221.661 194.333603 
L 221.7065 160.669628 
L 221.7975 73.241554 
L 221.854375 87.496175 
L 222.263875 233.388856 
L 222.468625 242.988063 
L 222.650625 244.176185 
L 222.73025 244.035452 
L 222.935 243.021765 
L 225.18725 229.820581 
L 226.27925 225.287995 
L 227.55325 220.974136 
L 229.043375 215.907478 
L 229.50975 213.426779 
L 229.8055 210.58536 
L 229.9875 206.599843 
L 230.10125 198.04382 
L 230.158125 169.98394 
L 230.249125 73.321839 
L 230.317375 89.91794 
L 230.704125 231.542663 
L 230.92025 242.882967 
L 231.10225 244.177612 
L 231.181875 244.055045 
L 231.37525 243.129228 
L 233.820875 229.021225 
L 234.92425 224.603165 
L 236.300625 220.063568 
L 237.483625 215.982686 
L 237.961375 213.470393 
L 238.257125 210.672331 
L 238.439125 206.823445 
L 238.552875 199.029833 
L 238.60975 177.163633 
L 238.712125 73.222779 
L 238.780375 92.425365 
L 239.144375 229.386531 
L 239.3605 242.539722 
L 239.553875 244.175209 
L 239.622125 244.101163 
L 239.79275 243.364506 
L 240.498 238.705323 
L 241.578625 232.392986 
L 242.647875 227.434431 
L 243.785375 223.197308 
L 246.25375 214.487509 
L 246.606375 211.933448 
L 246.833875 208.589945 
L 246.970375 203.173494 
L 247.05 188.980933 
L 247.175125 73.379458 
L 247.2775 115.467629 
L 247.5505 220.96629 
L 247.766625 241.155326 
L 247.96 244.077055 
L 248.02825 244.175334 
L 248.07375 244.115267 
L 248.233 243.462195 
L 248.813125 239.648209 
L 249.9165 233.023509 
L 250.98575 227.936936 
L 252.111875 223.64561 
L 254.785 214.064042 
L 255.114875 211.394191 
L 255.319625 207.897238 
L 255.44475 201.805382 
L 255.513 186.398056 
L 255.62675 73.215156 
L 255.71775 104.504019 
L 256.0135 221.976008 
L 256.229625 241.325753 
L 256.423 244.096232 
L 256.479875 244.178472 
L 256.53675 244.105228 
L 256.696 243.43535 
L 257.31025 239.387611 
L 258.40225 232.87631 
L 259.4715 227.819687 
L 260.597625 223.550248 
L 263.22525 214.170171 
L 263.555125 211.59186 
L 263.77125 208.066373 
L 263.896375 202.375366 
L 263.964625 189.527556 
L 264.032875 94.481077 
L 264.08975 73.327795 
L 264.146625 88.782453 
L 264.54475 232.515408 
L 264.7495 242.836989 
L 264.9315 244.175087 
L 265.011125 244.059967 
L 265.2045 243.141863 
L 267.672875 228.929573 
L 268.77625 224.52922 
L 270.164 219.963143 
L 271.312875 215.991915 
L 271.790625 213.485414 
L 272.086375 210.702056 
L 272.27975 206.493676 
L 272.382125 199.339641 
L 272.439 179.17696 
L 272.541375 73.222626 
L 272.609625 91.326282 
L 272.985 230.552463 
L 273.201125 242.727941 
L 273.383125 244.176405 
L 273.451375 244.108291 
L 273.610625 243.441851 
L 274.224875 239.395272 
L 275.316875 232.882408 
L 276.386125 227.824545 
L 277.51225 223.554202 
L 280.15125 214.109411 
L 280.481125 211.479362 
L 280.69725 207.792585 
L 280.822375 201.436653 
L 280.890625 184.089687 
L 281.004375 73.287446 
L 281.084 100.086247 
L 281.4025 224.697854 
L 281.618625 241.773378 
L 281.812 244.132902 
L 281.868875 244.167891 
L 281.914375 244.092367 
L 282.085 243.347028 
L 282.813 238.537838 
L 283.88225 232.318611 
L 284.9515 227.375107 
L 286.100375 223.110454 
L 288.534625 214.533596 
L 288.88725 212.016061 
L 289.11475 208.777705 
L 289.262625 202.949866 
L 289.34225 187.548676 
L 289.456 73.246897 
L 289.558375 110.149603 
L 289.84275 221.560026 
L 290.058875 241.256698 
L 290.25225 244.089553 
L 290.3205 244.176006 
L 290.366 244.110572 
L 290.52525 243.447582 
L 291.128125 239.47793 
L 292.220125 232.94828 
L 293.289375 227.877018 
L 294.4155 223.596896 
L 297.065875 214.115699 
L 297.39575 211.491068 
L 297.611875 207.821547 
L 297.737 201.539815 
L 297.80525 184.764156 
L 297.919 73.255254 
L 298.01 106.182815 
L 298.30575 222.491216 
L 298.521875 241.408993 
L 298.71525 244.102038 
L 298.772125 244.175429 
L 298.829 244.09616 
L 298.999625 243.354066 
L 299.71625 238.619465 
L 300.796875 232.324727 
L 301.866125 227.379985 
L 303.015 223.114438 
L 305.44925 214.540057 
L 305.801875 212.027565 
L 306.029375 208.803427 
L 306.17725 203.039636 
L 306.256875 188.137425 
L 306.370625 73.287897 
L 306.473 109.410732 
L 306.757375 221.328214 
L 306.9735 241.217763 
L 307.166875 244.085345 
L 307.235125 244.176409 
L 307.280625 244.113065 
L 307.439875 243.453924 
L 308.031375 239.561514 
L 309.13475 232.954468 
L 310.204 227.881947 
L 311.330125 223.600905 
L 313.9805 214.122663 
L 314.310375 211.504012 
L 314.5265 207.853462 
L 314.651625 201.652493 
L 314.719875 185.475098 
L 314.833625 73.231483 
L 314.924625 105.474366 
L 315.220375 222.273546 
L 315.4365 241.373362 
L 315.629875 244.099137 
L 315.68675 244.176278 
L 315.743625 244.099564 
L 315.91425 243.361208 
L 316.630875 238.627499 
L 317.7115 232.33111 
L 318.78075 227.385077 
L 319.929625 223.118595 
L 322.363875 214.546786 
L 322.7165 212.039535 
L 322.944 208.830125 
L 323.091875 203.131614 
L 323.1715 188.721105 
L 323.28525 73.355582 
L 323.399 115.831724 
L 323.672 221.080426 
L 323.888125 241.174888 
L 324.0815 244.079546 
L 324.14975 244.175555 
L 324.19525 244.114456 
L 324.3545 243.459478 
L 324.946 239.56876 
L 326.049375 232.960249 
L 327.118625 227.886552 
L 328.24475 223.60465 
L 330.9065 214.060889 
L 331.236375 211.388242 
L 331.441125 207.88312 
L 331.56625 201.756339 
L 331.6345 186.105875 
L 331.74825 73.215895 
L 331.83925 104.81615 
L 332.135 222.070406 
L 332.351125 241.340654 
L 332.5445 244.096955 
L 332.601375 244.177582 
L 332.65825 244.103241 
L 332.828875 243.36834 
L 333.534125 238.70952 
L 334.61475 232.396319 
L 335.684 227.437089 
L 336.8215 223.19948 
L 339.289875 214.491048 
L 339.6425 211.939825 
L 339.87 208.604588 
L 340.0065 203.220363 
L 340.086125 189.267394 
L 340.21125 73.353111 
L 340.313625 115.05841 
L 340.586625 220.83488 
L 340.80275 241.132262 
L 340.996125 244.07364 
L 341.064375 244.174544 
L 341.109875 244.11567 
L 341.269125 243.464816 
L 341.84925 239.651773 
L 342.952625 233.026359 
L 344.021875 227.939206 
L 345.148 223.647455 
L 347.821125 214.067279 
L 348.151 211.400294 
L 348.35575 207.911659 
L 348.480875 201.855187 
L 348.549125 186.690207 
L 348.662875 73.219 
L 348.76525 111.17219 
L 349.049625 221.875047 
L 349.26575 241.30902 
L 349.459125 244.094645 
L 349.527375 244.174832 
L 349.572875 244.106561 
L 349.732125 243.438356 
L 350.346375 239.3912 
L 351.438375 232.879168 
L 352.507625 227.821964 
L 353.63375 223.552102 
L 356.27275 214.105749 
L 356.602625 211.472523 
L 356.81875 207.775563 
L 356.943875 201.375139 
L 357.012125 183.679781 
L 357.125875 73.307588 
L 357.2055 100.440236 
L 357.524 224.804092 
L 357.740125 241.791323 
L 357.9335 244.134706 
L 357.979 244.17412 
L 358.035875 244.091237 
L 358.2065 243.34386 
L 358.945875 238.460335 
L 360.015125 232.256877 
L 361.084375 227.325855 
L 362.23325 223.07022 
L 364.64475 214.592299 
L 365.00875 212.010424 
L 365.23625 208.765079 
L 365.384125 202.905519 
L 365.46375 187.252025 
L 365.5775 73.229502 
L 365.679875 110.508339 
L 365.96425 221.672931 
L 366.180375 241.276092 
L 366.37375 244.092031 
L 366.442 244.176227 
L 366.4875 244.109769 
L 366.64675 243.444883 
L 367.249625 239.474484 
L 368.341625 232.945528 
L 369.410875 227.874826 
L 370.537 223.595113 
L 373.187375 214.112598 
L 373.51725 211.4853 
L 373.733375 207.807292 
L 373.8585 201.489177 
L 373.92675 184.4351 
L 374.0405 73.269128 
L 374.120125 99.778986 
L 374.438625 224.609708 
L 374.65475 241.759547 
L 374.848125 244.132484 
L 374.905 244.169011 
L 374.9505 244.094355 
L 375.121125 243.350658 
L 375.849125 238.541786 
L 376.918375 232.321753 
L 377.987625 227.377613 
L 379.1365 223.112501 
L 381.57075 214.536917 
L 381.923375 212.021976 
L 382.150875 208.790937 
L 382.29875 202.996169 
L 382.378375 187.854225 
L 382.492125 73.26544 
L 382.5945 109.769872 
L 382.878875 221.442208 
L 383.095 241.237121 
L 383.288375 244.087631 
L 383.356625 244.176424 
L 383.402125 244.112051 
L 383.561375 243.451008 
L 384.16425 239.482049 
L 385.25625 232.951563 
L 386.3255 227.879633 
L 387.451625 223.599023 
L 390.102 214.119394 
L 390.431875 211.497939 
L 390.648 207.8385 
L 390.773125 201.599789 
L 390.841375 185.147055 
L 390.955125 73.239887 
L 391.046125 105.804821 
L 391.341875 222.378499 
L 391.558 241.391039 
L 391.751375 244.101041 
L 391.80825 244.176367 
L 391.865125 244.098414 
L 392.03575 243.358233 
L 392.752375 238.62402 
L 393.833 232.328343 
L 394.90225 227.38287 
L 396.051125 223.116793 
L 398.485375 214.543871 
L 398.838 212.034352 
L 399.0655 208.818572 
L 399.213375 203.091899 
L 399.293 188.471738 
L 399.40675 73.324236 
L 399.5205 116.173996 
L 399.7935 221.187219 
L 400.009625 241.193268 
L 400.203 244.081951 
L 400.27125 244.175831 
L 400.31675 244.113766 
L 400.476 243.456999 
L 401.0675 239.565565 
L 402.170875 232.957701 
L 403.240125 227.884523 
L 404.36625 223.602999 
L 407.028 214.057984 
L 407.357875 211.382756 
L 407.562625 207.870069 
L 407.68775 201.710743 
L 407.756 185.830888 
L 407.86975 73.222808 
L 407.96075 105.107031 
L 408.2565 222.158398 
L 408.472625 241.354416 
L 408.666 244.097494 
L 408.722875 244.176617 
L 408.77975 244.101256 
L 408.950375 243.364878 
L 409.655625 238.705784 
L 410.73625 232.393353 
L 411.8055 227.434724 
L 412.943 223.197547 
L 415.411375 214.487898 
L 415.764 211.934151 
L 415.9915 208.591559 
L 416.128 203.17867 
L 416.207625 189.012763 
L 416.33275 73.375523 
L 416.435125 115.42226 
L 416.708125 220.952145 
L 416.92425 241.152972 
L 417.117625 244.076816 
L 417.185875 244.175376 
L 417.231375 244.115435 
L 417.390625 243.462597 
L 417.97075 239.648696 
L 419.074125 233.023896 
L 420.143375 227.937244 
L 421.2695 223.645861 
L 423.942625 214.064482 
L 424.2725 211.395021 
L 424.47725 207.899201 
L 424.602375 201.812171 
L 424.670625 186.438184 
L 424.784375 73.21429 
L 424.875375 104.459782 
L 425.171125 221.962797 
L 425.38725 241.323753 
L 425.580625 244.096217 
L 425.648875 244.174653 
L 425.694375 244.105589 
L 425.853625 243.435922 
L 426.467875 239.388234 
L 427.559875 232.876804 
L 428.629125 227.820081 
L 429.75525 223.550569 
L 432.382875 214.170722 
L 432.71275 211.592872 
L 432.928875 208.068796 
L 433.054 202.38329 
L 433.12225 189.567942 
L 433.1905 94.584944 
L 433.247375 73.323733 
L 433.30425 88.738168 
L 433.702375 232.505208 
L 433.907125 242.83517 
L 434.089125 244.175007 
L 434.16875 244.060185 
L 434.362125 243.142388 
L 436.8305 228.929972 
L 437.933875 224.529542 
L 439.321625 219.963425 
L 440.4705 215.992294 
L 440.94825 213.486031 
L 441.244 210.703274 
L 441.437375 206.497015 
L 441.53975 199.352095 
L 441.596625 179.255448 
L 441.699 73.224664 
L 441.76725 91.28226 
L 442.142625 230.54137 
L 442.35875 242.726111 
L 442.54075 244.176283 
L 442.609 244.108429 
L 442.76825 243.442283 
L 443.371125 239.471479 
L 444.463125 232.943137 
L 445.532375 227.872921 
L 446.6585 223.593564 
L 449.308875 214.109904 
L 449.63875 211.480281 
L 449.854875 207.794872 
L 449.98 201.444875 
L 450.04825 184.144037 
L 450.162 73.28649 
L 450.241625 100.039558 
L 450.560125 224.683019 
L 450.77625 241.770685 
L 450.969625 244.132457 
L 451.0265 244.167709 
L 451.072 244.092335 
L 451.242625 243.347289 
L 451.970625 238.538209 
L 453.039875 232.318908 
L 454.109125 227.375344 
L 455.258 223.110648 
L 457.69225 214.53391 
L 458.044875 212.016621 
L 458.272375 208.778958 
L 458.42025 202.95426 
L 458.499875 187.577842 
L 458.613625 73.247538 
L 458.716 110.113246 
L 459.000375 221.549384 
L 459.2165 241.255076 
L 459.409875 244.089526 
L 459.478125 244.176188 
L 459.523625 244.110848 
L 459.682875 243.448027 
L 460.28575 239.478419 
L 461.37775 232.948668 
L 462.447 227.877327 
L 463.573125 223.597148 
L 466.2235 214.116136 
L 466.553375 211.491881 
L 466.7695 207.823554 
L 466.894625 201.54693 
L 466.962875 184.810083 
L 467.076625 73.253719 
L 467.167625 106.138181 
L 467.463375 222.477704 
L 467.6795 241.406763 
L 467.872875 244.10184 
L 467.92975 244.175464 
L 467.986625 244.096354 
L 468.15725 243.354493 
L 468.873875 238.61995 
L 469.9545 232.325112 
L 470 232.090893 
L 470.102375 232.127423 
L 471.967875 232.667736 
L 474.25425 233.090422 
L 477.2345 233.403174 
L 481.5115 233.610426 
L 488.99625 233.718537 
L 512.986125 233.744633 
L 561 233.744773 
L 561 233.744773 
" clip-path="url(#p09505a2614)" style="fill: none; stroke: #1f77b4; stroke-width: 1.5; stroke-linecap: square"/>
   </g>
   <g id="text_1">
    <!-- 0.02 nA -->
    <g transform="translate(37.75 53.256) scale(0.2 -0.2)">
     <defs>
      <path id="DejaVuSans-30" d="M 2034 4250 
Q 1547 4250 1301 3770 
Q 1056 3291 1056 2328 
Q 1056 1369 1301 889 
Q 1547 409 2034 409 
Q 2525 409 2770 889 
Q 3016 1369 3016 2328 
Q 3016 3291 2770 3770 
Q 2525 4250 2034 4250 
z
M 2034 4750 
Q 2819 4750 3233 4129 
Q 3647 3509 3647 2328 
Q 3647 1150 3233 529 
Q 2819 -91 2034 -91 
Q 1250 -91 836 529 
Q 422 1150 422 2328 
Q 422 3509 836 4129 
Q 1250 4750 2034 4750 
z
" transform="scale(0.015625)"/>
      <path id="DejaVuSans-2e" d="M 684 794 
L 1344 794 
L 1344 0 
L 684 0 
L 684 794 
z
" transform="scale(0.015625)"/>
      <path id="DejaVuSans-32" d="M 1228 531 
L 3431 531 
L 3431 0 
L 469 0 
L 469 531 
Q 828 903 1448 1529 
Q 2069 2156 2228 2338 
Q 2531 2678 2651 2914 
Q 2772 3150 2772 3378 
Q 2772 3750 2511 3984 
Q 2250 4219 1831 4219 
Q 1534 4219 1204 4116 
Q 875 4013 500 3803 
L 500 4441 
Q 881 4594 1212 4672 
Q 1544 4750 1819 4750 
Q 2544 4750 2975 4387 
Q 3406 4025 3406 3419 
Q 3406 3131 3298 2873 
Q 3191 2616 2906 2266 
Q 2828 2175 2409 1742 
Q 1991 1309 1228 531 
z
" transform="scale(0.015625)"/>
      <path id="DejaVuSans-20" transform="scale(0.015625)"/>
      <path id="DejaVuSans-6e" d="M 3513 2113 
L 3513 0 
L 2938 0 
L 2938 2094 
Q 2938 2591 2744 2837 
Q 2550 3084 2163 3084 
Q 1697 3084 1428 2787 
Q 1159 2491 1159 1978 
L 1159 0 
L 581 0 
L 581 3500 
L 1159 3500 
L 1159 2956 
Q 1366 3272 1645 3428 
Q 1925 3584 2291 3584 
Q 2894 3584 3203 3211 
Q 3513 2838 3513 2113 
z
" transform="scale(0.015625)"/>
      <path id="DejaVuSans-41" d="M 2188 4044 
L 1331 1722 
L 3047 1722 
L 2188 4044 
z
M 1831 4666 
L 2547 4666 
L 4325 0 
L 3669 0 
L 3244 1197 
L 1141 1197 
L 716 0 
L 50 0 
L 1831 4666 
z
" transform="scale(0.015625)"/>
     </defs>
     <use xlink:href="#DejaVuSans-30"/>
     <use xlink:href="#DejaVuSans-2e" x="63.623047"/>
     <use xlink:href="#DejaVuSans-30" x="95.410156"/>
     <use xlink:href="#DejaVuSans-32" x="159.033203"/>
     <use xlink:href="#DejaVuSans-20" x="222.65625"/>
     <use xlink:href="#DejaVuSans-6e" x="254.443359"/>
     <use xlink:href="#DejaVuSans-41" x="317.822266"/>
    </g>
   </g>
   <g id="text_2">
    <!-- Vladimirov 2013 -->
    <g transform="translate(197.861875 31.56) scale(0.22 -0.22)">
     <defs>
      <path id="DejaVuSans-56" d="M 1831 0 
L 50 4666 
L 709 4666 
L 2188 738 
L 3669 4666 
L 4325 4666 
L 2547 0 
L 1831 0 
z
" transform="scale(0.015625)"/>
      <path id="DejaVuSans-6c" d="M 603 4863 
L 1178 4863 
L 1178 0 
L 603 0 
L 603 4863 
z
" transform="scale(0.015625)"/>
      <path id="DejaVuSans-61" d="M 2194 1759 
Q 1497 1759 1228 1600 
Q 959 1441 959 1056 
Q 959 750 1161 570 
Q 1363 391 1709 391 
Q 2188 391 2477 730 
Q 2766 1069 2766 1631 
L 2766 1759 
L 2194 1759 
z
M 3341 1997 
L 3341 0 
L 2766 0 
L 2766 531 
Q 2569 213 2275 61 
Q 1981 -91 1556 -91 
Q 1019 -91 701 211 
Q 384 513 384 1019 
Q 384 1609 779 1909 
Q 1175 2209 1959 2209 
L 2766 2209 
L 2766 2266 
Q 2766 2663 2505 2880 
Q 2244 3097 1772 3097 
Q 1472 3097 1187 3025 
Q 903 2953 641 2809 
L 641 3341 
Q 956 3463 1253 3523 
Q 1550 3584 1831 3584 
Q 2591 3584 2966 3190 
Q 3341 2797 3341 1997 
z
" transform="scale(0.015625)"/>
      <path id="DejaVuSans-64" d="M 2906 2969 
L 2906 4863 
L 3481 4863 
L 3481 0 
L 2906 0 
L 2906 525 
Q 2725 213 2448 61 
Q 2172 -91 1784 -91 
Q 1150 -91 751 415 
Q 353 922 353 1747 
Q 353 2572 751 3078 
Q 1150 3584 1784 3584 
Q 2172 3584 2448 3432 
Q 2725 3281 2906 2969 
z
M 947 1747 
Q 947 1113 1208 752 
Q 1469 391 1925 391 
Q 2381 391 2643 752 
Q 2906 1113 2906 1747 
Q 2906 2381 2643 2742 
Q 2381 3103 1925 3103 
Q 1469 3103 1208 2742 
Q 947 2381 947 1747 
z
" transform="scale(0.015625)"/>
      <path id="DejaVuSans-69" d="M 603 3500 
L 1178 3500 
L 1178 0 
L 603 0 
L 603 3500 
z
M 603 4863 
L 1178 4863 
L 1178 4134 
L 603 4134 
L 603 4863 
z
" transform="scale(0.015625)"/>
      <path id="DejaVuSans-6d" d="M 3328 2828 
Q 3544 3216 3844 3400 
Q 4144 3584 4550 3584 
Q 5097 3584 5394 3201 
Q 5691 2819 5691 2113 
L 5691 0 
L 5113 0 
L 5113 2094 
Q 5113 2597 4934 2840 
Q 4756 3084 4391 3084 
Q 3944 3084 3684 2787 
Q 3425 2491 3425 1978 
L 3425 0 
L 2847 0 
L 2847 2094 
Q 2847 2600 2669 2842 
Q 2491 3084 2119 3084 
Q 1678 3084 1418 2786 
Q 1159 2488 1159 1978 
L 1159 0 
L 581 0 
L 581 3500 
L 1159 3500 
L 1159 2956 
Q 1356 3278 1631 3431 
Q 1906 3584 2284 3584 
Q 2666 3584 2933 3390 
Q 3200 3197 3328 2828 
z
" transform="scale(0.015625)"/>
      <path id="DejaVuSans-72" d="M 2631 2963 
Q 2534 3019 2420 3045 
Q 2306 3072 2169 3072 
Q 1681 3072 1420 2755 
Q 1159 2438 1159 1844 
L 1159 0 
L 581 0 
L 581 3500 
L 1159 3500 
L 1159 2956 
Q 1341 3275 1631 3429 
Q 1922 3584 2338 3584 
Q 2397 3584 2469 3576 
Q 2541 3569 2628 3553 
L 2631 2963 
z
" transform="scale(0.015625)"/>
      <path id="DejaVuSans-6f" d="M 1959 3097 
Q 1497 3097 1228 2736 
Q 959 2375 959 1747 
Q 959 1119 1226 758 
Q 1494 397 1959 397 
Q 2419 397 2687 759 
Q 2956 1122 2956 1747 
Q 2956 2369 2687 2733 
Q 2419 3097 1959 3097 
z
M 1959 3584 
Q 2709 3584 3137 3096 
Q 3566 2609 3566 1747 
Q 3566 888 3137 398 
Q 2709 -91 1959 -91 
Q 1206 -91 779 398 
Q 353 888 353 1747 
Q 353 2609 779 3096 
Q 1206 3584 1959 3584 
z
" transform="scale(0.015625)"/>
      <path id="DejaVuSans-76" d="M 191 3500 
L 800 3500 
L 1894 563 
L 2988 3500 
L 3597 3500 
L 2284 0 
L 1503 0 
L 191 3500 
z
" transform="scale(0.015625)"/>
      <path id="DejaVuSans-31" d="M 794 531 
L 1825 531 
L 1825 4091 
L 703 3866 
L 703 4441 
L 1819 4666 
L 2450 4666 
L 2450 531 
L 3481 531 
L 3481 0 
L 794 0 
L 794 531 
z
" transform="scale(0.015625)"/>
      <path id="DejaVuSans-33" d="M 2597 2516 
Q 3050 2419 3304 2112 
Q 3559 1806 3559 1356 
Q 3559 666 3084 287 
Q 2609 -91 1734 -91 
Q 1441 -91 1130 -33 
Q 819 25 488 141 
L 488 750 
Q 750 597 1062 519 
Q 1375 441 1716 441 
Q 2309 441 2620 675 
Q 2931 909 2931 1356 
Q 2931 1769 2642 2001 
Q 2353 2234 1838 2234 
L 1294 2234 
L 1294 2753 
L 1863 2753 
Q 2328 2753 2575 2939 
Q 2822 3125 2822 3475 
Q 2822 3834 2567 4026 
Q 2313 4219 1838 4219 
Q 1578 4219 1281 4162 
Q 984 4106 628 3988 
L 628 4550 
Q 988 4650 1302 4700 
Q 1616 4750 1894 4750 
Q 2613 4750 3031 4423 
Q 3450 4097 3450 3541 
Q 3450 3153 3228 2886 
Q 3006 2619 2597 2516 
z
" transform="scale(0.015625)"/>
     </defs>
     <use xlink:href="#DejaVuSans-56"/>
     <use xlink:href="#DejaVuSans-6c" x="68.408203"/>
     <use xlink:href="#DejaVuSans-61" x="96.191406"/>
     <use xlink:href="#DejaVuSans-64" x="157.470703"/>
     <use xlink:href="#DejaVuSans-69" x="220.947266"/>
     <use xlink:href="#DejaVuSans-6d" x="248.730469"/>
     <use xlink:href="#DejaVuSans-69" x="346.142578"/>
     <use xlink:href="#DejaVuSans-72" x="373.925781"/>
     <use xlink:href="#DejaVuSans-6f" x="412.789062"/>
     <use xlink:href="#DejaVuSans-76" x="473.970703"/>
     <use xlink:href="#DejaVuSans-20" x="533.150391"/>
     <use xlink:href="#DejaVuSans-32" x="564.9375"/>
     <use xlink:href="#DejaVuSans-30" x="628.560547"/>
     <use xlink:href="#DejaVuSans-31" x="692.183594"/>
     <use xlink:href="#DejaVuSans-33" x="755.806641"/>
    </g>
   </g>
   <g id="patch_2">
    <path d="M 406.3 273 
L 424.5 273 
L 424.5 37.56 
L 406.3 37.56 
L 406.3 273 
z
" clip-path="url(#p09505a2614)" style="fill: none; opacity: 0.5; stroke: #000000; stroke-linejoin: miter"/>
   </g>
   <g id="patch_3">
    <path d="M 561 214.14 
Q 492.75 243.57 424.5 273 
" style="fill: none; opacity: 0.5; stroke: #000000; stroke-linecap: round"/>
   </g>
   <g id="patch_4">
    <path d="M 561 72.876 
Q 492.75 55.218 424.5 37.56 
" style="fill: none; opacity: 0.5; stroke: #000000; stroke-linecap: round"/>
   </g>
   <g id="axes_2">
    <g id="patch_5">
     <path d="M 500.94 214.14 
L 561 214.14 
L 561 72.876 
L 500.94 72.876 
z
" style="fill: #ffffff"/>
    </g>
    <g id="matplotlib.axis_1">
     <g id="xtick_1"/>
     <g id="xtick_2"/>
     <g id="xtick_3"/>
    </g>
    <g id="matplotlib.axis_2">
     <g id="ytick_1"/>
     <g id="ytick_2"/>
     <g id="ytick_3"/>
     <g id="ytick_4"/>
     <g id="ytick_5"/>
     <g id="ytick_6"/>
    </g>
    <g id="line2d_2">
     <path d="M 500.902463 180.745676 
L 502.516575 179.566824 
L 503.530088 178.560054 
L 504.2433 177.530984 
L 504.731288 176.446621 
L 505.106663 175.062042 
L 505.369425 173.279954 
L 505.557113 170.650288 
L 505.707263 165.014938 
L 505.819875 147.940522 
L 506.082638 94.650792 
L 506.120175 94.273685 
L 506.157713 94.669655 
L 506.270325 99.71809 
L 506.533088 126.445184 
L 506.946 162.497688 
L 507.5466 187.965327 
L 507.884438 193.397636 
L 508.222275 195.711491 
L 508.560113 196.614888 
L 508.860413 196.840155 
L 509.160713 196.783356 
L 509.611163 196.434327 
L 510.5496 195.353321 
L 513.5526 191.821167 
L 515.767313 189.600062 
L 518.0571 187.617968 
L 520.534575 185.772364 
L 523.349888 183.961568 
L 530.406938 179.584226 
L 531.42045 178.584419 
L 532.133663 177.567429 
L 532.62165 176.503801 
L 532.997025 175.161597 
L 533.259788 173.469085 
L 533.447475 171.060261 
L 533.597625 166.266744 
L 533.710238 153.280686 
L 534.010538 94.377162 
L 534.048075 94.365314 
L 534.160688 98.40948 
L 534.385913 119.593356 
L 534.836363 161.428778 
L 535.436963 187.465174 
L 535.7748 193.182589 
L 536.112638 195.622152 
L 536.450475 196.584165 
L 536.750775 196.83577 
L 537.051075 196.793207 
L 537.501525 196.454337 
L 538.402425 195.424827 
L 541.518038 191.762492 
L 543.73275 189.549326 
L 546.022538 187.574216 
L 548.500013 185.734706 
L 551.315325 183.92873 
L 558.259763 179.632884 
L 559.273275 178.652077 
L 559.986488 177.667453 
L 560.512013 176.559525 
L 560.887388 175.257302 
L 561 174.681985 
L 561 174.681985 
" clip-path="url(#p83f0847a4a)" style="fill: none; stroke: #1f77b4; stroke-width: 1.5; stroke-linecap: square"/>
    </g>
    <g id="patch_6">
     <path d="M 500.94 214.14 
L 500.94 72.876 
" style="fill: none; stroke: #000000; stroke-width: 0.8; stroke-linejoin: miter; stroke-linecap: square"/>
    </g>
    <g id="patch_7">
     <path d="M 500.94 214.14 
L 561 214.14 
" style="fill: none; stroke: #000000; stroke-width: 0.8; stroke-linejoin: miter; stroke-linecap: square"/>
    </g>
   </g>
  </g>
 </g>
 <defs>
  <clipPath id="p09505a2614">
   <rect x="15" y="37.56" width="546" height="235.44"/>
  </clipPath>
  <clipPath id="p83f0847a4a">
   <rect x="500.94" y="72.876" width="60.06" height="141.264"/>
  </clipPath>
 </defs>
</svg>
