<?xml version="1.0" encoding="utf-8" standalone="no"?>
<!DOCTYPE svg PUBLIC "-//W3C//DTD SVG 1.1//EN"
  "http://www.w3.org/Graphics/SVG/1.1/DTD/svg11.dtd">
<svg xmlns:xlink="http://www.w3.org/1999/xlink" width="576pt" height="288pt" viewBox="0 0 576 288" xmlns="http://www.w3.org/2000/svg" version="1.1">
 <metadata>
  <rdf:RDF xmlns:dc="http://purl.org/dc/elements/1.1/" xmlns:cc="http://creativecommons.org/ns#" xmlns:rdf="http://www.w3.org/1999/02/22-rdf-syntax-ns#">
   <cc:Work>
    <dc:type rdf:resource="http://purl.org/dc/dcmitype/StillImage"/>
    <dc:date>2024-09-24T19:17:29.152884</dc:date>
    <dc:format>image/svg+xml</dc:format>
    <dc:creator>
     <cc:Agent>
      <dc:title>Matplotlib v3.7.4, https://matplotlib.org/</dc:title>
     </cc:Agent>
    </dc:creator>
   </cc:Work>
  </rdf:RDF>
 </metadata>
 <defs>
  <style type="text/css">*{stroke-linejoin: round; stroke-linecap: butt}</style>
 </defs>
 <g id="figure_1">
  <g id="patch_1">
   <path d="M 0 288 
L 576 288 
L 576 0 
L 0 0 
z
" style="fill: #ffffff"/>
  </g>
  <g id="axes_1">
   <g id="line2d_1">
    <path d="M 15 233.76 
L 17.57075 233.244232 
L 20.767125 232.840994 
L 25.021375 232.54144 
L 31.277625 232.342517 
L 42.538875 232.240553 
L 81.6575 232.218031 
L 106.056875 232.119476 
L 107.535625 229.788388 
L 109.401125 227.28478 
L 112.950125 222.611517 
L 113.973875 220.820248 
L 114.736 219.035695 
L 115.316125 217.109684 
L 115.771125 214.816856 
L 116.12375 211.839282 
L 116.374 207.79307 
L 116.544625 201.258698 
L 116.647 187.434216 
L 116.738 119.136652 
L 116.794875 100.322163 
L 116.85175 110.094861 
L 117.272625 227.835278 
L 117.48875 233.991812 
L 117.704875 235.158434 
L 117.864125 235.207106 
L 118.091625 234.934009 
L 118.922 233.395554 
L 120.4235 230.82708 
L 122.072875 228.463155 
L 125.121375 224.590248 
L 126.668375 222.396397 
L 127.658 220.609977 
L 128.397375 218.809372 
L 128.966125 216.824517 
L 129.40975 214.436926 
L 129.751 211.288438 
L 129.989875 206.915172 
L 130.149125 199.567658 
L 130.240125 183.425382 
L 130.376625 100.308087 
L 130.467625 124.403292 
L 130.77475 221.64389 
L 130.990875 232.743448 
L 131.207 234.956528 
L 131.389 235.226356 
L 131.559625 235.097462 
L 131.9805 234.385912 
L 133.925625 230.951229 
L 135.55225 228.599498 
L 138.202625 225.231279 
L 140.022625 222.750392 
L 141.0805 220.932163 
L 141.854 219.15829 
L 142.4455 217.242881 
L 142.911875 214.955813 
L 143.2645 212.084912 
L 143.526125 208.039963 
L 143.69675 201.922877 
L 143.799125 190.220466 
L 143.867375 149.436345 
L 143.958375 100.295095 
L 144.01525 110.344839 
L 144.436125 227.875889 
L 144.65225 234.000032 
L 144.868375 235.159533 
L 145.027625 235.206679 
L 145.255125 234.932871 
L 146.096875 233.372998 
L 147.598375 230.808246 
L 149.24775 228.447065 
L 152.466875 224.350866 
L 153.93425 222.230386 
L 154.88975 220.464513 
L 155.606375 218.673983 
L 156.16375 216.673222 
L 156.596 214.272492 
L 156.925875 211.133225 
L 157.16475 206.574002 
L 157.324 198.503633 
L 157.403625 183.139971 
L 157.540125 100.283203 
L 157.631125 124.736351 
L 157.93825 221.71808 
L 158.154375 232.758275 
L 158.3705 234.959183 
L 158.5525 235.226312 
L 158.723125 235.096565 
L 159.155375 234.36311 
L 161.07775 230.968014 
L 162.704375 228.613804 
L 165.332 225.273536 
L 167.17475 222.766641 
L 168.232625 220.953177 
L 169.006125 219.187058 
L 169.609 217.24007 
L 170.075375 214.951368 
L 170.428 212.077125 
L 170.689625 208.023741 
L 170.86025 201.880273 
L 170.962625 190.053542 
L 171.030875 148.683871 
L 171.121875 100.272408 
L 171.17875 110.597356 
L 171.58825 227.246404 
L 171.804375 233.872554 
L 172.0205 235.141962 
L 172.17975 235.212607 
L 172.395875 234.967448 
L 173.1125 233.649253 
L 174.648125 230.985384 
L 176.263375 228.643892 
L 178.834125 225.373578 
L 180.73375 222.800673 
L 181.791625 220.997086 
L 182.5765 219.216626 
L 183.179375 217.283253 
L 183.64575 215.019489 
L 184.00975 212.073228 
L 184.271375 208.015613 
L 184.442 201.858874 
L 184.544375 189.969124 
L 184.612625 148.307499 
L 184.703625 100.262707 
L 184.749125 106.986761 
L 185.226875 230.108462 
L 185.443 234.449634 
L 185.64775 235.201369 
L 185.795625 235.190253 
L 186.05725 234.837402 
L 189.72 228.812483 
L 192.097375 225.772719 
L 194.2245 222.937092 
L 195.3165 221.106543 
L 196.11275 219.33609 
L 196.727 217.413331 
L 197.20475 215.155152 
L 197.56875 212.312135 
L 197.84175 208.261214 
L 198.02375 201.837408 
L 198.126125 189.884058 
L 198.194375 147.93112 
L 198.285375 100.254098 
L 198.330875 107.093804 
L 198.808625 230.122784 
L 199.02475 234.452491 
L 199.2295 235.201678 
L 199.377375 235.189976 
L 199.639 234.836796 
L 203.30175 228.811998 
L 205.679125 225.772273 
L 207.80625 222.936559 
L 208.89825 221.105857 
L 209.6945 219.335155 
L 210.30875 217.411973 
L 210.7865 215.153017 
L 211.1505 212.308408 
L 211.4235 208.253413 
L 211.6055 201.815877 
L 211.707875 189.798337 
L 211.776125 147.554793 
L 211.867125 100.246577 
L 211.912625 107.201552 
L 212.390375 230.137068 
L 212.6065 234.45534 
L 212.81125 235.201985 
L 212.959125 235.189698 
L 213.22075 234.83619 
L 216.872125 228.826965 
L 219.238125 225.800259 
L 221.388 222.936025 
L 222.48 221.105172 
L 223.27625 219.33422 
L 223.8905 217.410614 
L 224.36825 215.15088 
L 224.73225 212.304679 
L 225.00525 208.245601 
L 225.18725 201.79428 
L 225.289625 189.711952 
L 225.357875 147.178579 
L 225.448875 100.240143 
L 225.494375 107.310003 
L 225.972125 230.151314 
L 226.18825 234.458181 
L 226.393 235.20229 
L 226.540875 235.189418 
L 226.8025 234.835584 
L 230.453875 228.82648 
L 232.819875 225.799813 
L 234.96975 222.935491 
L 236.06175 221.104486 
L 236.858 219.333285 
L 237.47225 217.409254 
L 237.95 215.148743 
L 238.314 212.300946 
L 238.587 208.237778 
L 238.769 201.772616 
L 238.871375 189.624897 
L 238.939625 146.802537 
L 239.030625 100.234791 
L 239.076125 107.419153 
L 239.5425 229.694145 
L 239.758625 234.366767 
L 239.963375 235.19188 
L 240.11125 235.19762 
L 240.3615 234.87321 
L 241.56725 232.64205 
L 243.046 230.232435 
L 244.79775 227.818003 
L 249.063375 222.133097 
L 250.0075 220.361081 
L 250.71275 218.564115 
L 251.25875 216.560626 
L 251.691 214.089359 
L 252.0095 210.949374 
L 252.237 206.500966 
L 252.384875 199.298744 
L 252.475875 182.096913 
L 252.612375 100.23052 
L 252.692 120.67919 
L 253.021875 223.080924 
L 253.238 233.031347 
L 253.454125 235.007313 
L 253.636125 235.224364 
L 253.818125 235.063588 
L 254.30725 234.207415 
L 256.070375 231.09008 
L 257.67425 228.748396 
L 260.119875 225.628133 
L 262.156 222.900372 
L 263.236625 221.081226 
L 264.0215 219.331414 
L 264.63575 217.406535 
L 265.1135 215.144465 
L 265.4775 212.293474 
L 265.7505 208.222101 
L 265.9325 201.729086 
L 266.034875 189.448742 
L 266.103125 146.051208 
L 266.194125 100.227327 
L 266.239625 107.639536 
L 266.706 229.724931 
L 266.922125 234.372938 
L 267.126875 235.19262 
L 267.27475 235.197114 
L 267.525 234.872022 
L 268.742125 232.620521 
L 270.220875 230.214408 
L 271.984 227.787722 
L 276.204125 222.169351 
L 277.14825 220.408793 
L 277.864875 218.596336 
L 278.410875 216.608474 
L 278.843125 214.167485 
L 279.173 210.939736 
L 279.4005 206.479935 
L 279.548375 199.237676 
L 279.639375 181.785714 
L 279.775875 100.225209 
L 279.8555 120.998801 
L 280.185375 223.147238 
L 280.4015 233.044667 
L 280.617625 235.00962 
L 280.799625 235.224208 
L 280.981625 235.062621 
L 281.47075 234.206056 
L 283.233875 231.088944 
L 284.83775 228.74743 
L 287.283375 225.627238 
L 289.3195 222.899301 
L 290.400125 221.079849 
L 291.185 219.329542 
L 291.79925 217.403814 
L 292.277 215.140184 
L 292.641 212.285991 
L 292.902625 208.45172 
L 293.084625 202.352031 
L 293.198375 189.269807 
L 293.266625 145.301268 
L 293.357625 100.224163 
L 293.403125 107.862673 
L 293.8695 229.755555 
L 294.085625 234.379074 
L 294.290375 235.19335 
L 294.43825 235.196605 
L 294.6885 234.870833 
L 295.928375 232.578827 
L 297.4185 230.162587 
L 299.193 227.728191 
L 303.3335 222.223986 
L 304.289 220.456115 
L 305.005625 218.662307 
L 305.563 216.655866 
L 305.99525 214.244425 
L 306.325125 211.081795 
L 306.564 206.458831 
L 306.711875 199.176117 
L 306.802875 181.468394 
L 306.939375 100.224186 
L 307.019 121.319742 
L 307.348875 223.21319 
L 307.565 233.057917 
L 307.781125 235.01191 
L 307.963125 235.224048 
L 308.145125 235.061652 
L 308.63425 234.204697 
L 310.397375 231.087809 
L 312.00125 228.746463 
L 314.446875 225.626343 
L 316.483 222.898229 
L 317.563625 221.078471 
L 318.3485 219.32767 
L 318.96275 217.401091 
L 319.4405 215.135899 
L 319.8045 212.278497 
L 320.066125 208.436614 
L 320.248125 202.311986 
L 320.361875 189.088023 
L 320.4415 133.191953 
L 320.521125 100.225277 
L 320.566625 108.088536 
L 321.021625 229.281356 
L 321.23775 234.283857 
L 321.4425 235.181483 
L 321.60175 235.196092 
L 321.852 234.869644 
L 323.10325 232.557392 
L 324.593375 230.14465 
L 326.367875 227.712642 
L 330.485625 222.241336 
L 331.441125 220.478871 
L 332.15775 218.693923 
L 332.715125 216.702813 
L 333.147375 214.320212 
L 333.47725 211.220199 
L 333.716125 206.766339 
L 333.875375 199.11406 
L 333.966375 181.144804 
L 334.102875 100.227431 
L 334.1825 121.641984 
L 334.512375 223.278783 
L 334.7285 233.071098 
L 334.944625 235.014185 
L 335.126625 235.223882 
L 335.308625 235.060681 
L 335.809125 234.181695 
L 337.5495 231.104767 
L 339.153375 228.760889 
L 341.57625 225.668191 
L 343.635125 222.914206 
L 344.71575 221.098995 
L 345.512 219.325797 
L 346.12625 217.398367 
L 346.604 215.131611 
L 346.968 212.270992 
L 347.229625 208.421468 
L 347.411625 202.271706 
L 347.514 191.532342 
L 347.58225 155.693248 
L 347.684625 100.230647 
L 347.730125 108.317097 
L 348.185125 229.314319 
L 348.40125 234.290488 
L 348.606 235.182345 
L 348.76525 235.195575 
L 349.0155 234.868453 
L 350.278125 232.535989 
L 351.76825 230.126737 
L 353.54275 227.697101 
L 357.63775 222.258646 
L 358.604625 220.477349 
L 359.32125 218.69181 
L 359.878625 216.69968 
L 360.310875 214.315169 
L 360.64075 211.211034 
L 360.879625 206.746212 
L 361.038875 199.051498 
L 361.129875 180.814797 
L 361.266375 100.234921 
L 361.346 121.965499 
L 361.6645 222.261678 
L 361.880625 232.867039 
L 362.09675 234.978534 
L 362.27875 235.225805 
L 362.449375 235.08977 
L 362.893 234.331489 
L 364.769875 231.013413 
L 366.385125 228.667776 
L 368.92175 225.438898 
L 370.8555 222.827553 
L 371.92475 221.009528 
L 372.709625 219.233657 
L 373.3125 217.308066 
L 373.778875 215.05848 
L 374.142875 212.142344 
L 374.4045 208.158962 
L 374.5865 201.552222 
L 374.688875 188.715639 
L 374.7685 131.869708 
L 374.848125 100.240252 
L 374.893625 108.548325 
L 375.33725 228.803848 
L 375.553375 234.18763 
L 375.758125 235.168462 
L 375.917375 235.202895 
L 376.15625 234.904765 
L 377.123125 233.109082 
L 378.61325 230.605541 
L 380.29675 228.228361 
L 385.153875 221.661835 
L 386.018375 219.915898 
L 386.678125 218.083107 
L 387.19 216.00127 
L 387.588125 213.43455 
L 387.89525 209.883386 
L 388.1 204.85822 
L 388.2365 195.199873 
L 388.30475 174.111004 
L 388.429875 100.246635 
L 388.48675 112.701139 
L 388.8735 226.1298 
L 389.089625 233.646406 
L 389.30575 235.108496 
L 389.476375 235.215368 
L 389.681125 234.993393 
L 390.3295 233.810794 
L 391.89925 231.066335 
L 393.503125 228.728187 
L 395.9715 225.580878 
L 397.984875 222.877928 
L 399.0655 221.052347 
L 399.850375 219.29212 
L 400.45325 217.392914 
L 400.931 215.123022 
L 401.295 212.25595 
L 401.556625 208.391057 
L 401.738625 202.190435 
L 401.841 191.235153 
L 401.90925 154.228238 
L 402.011625 100.254069 
L 402.057125 108.782193 
L 402.50075 228.839338 
L 402.716875 234.194791 
L 402.921625 235.169463 
L 403.080875 235.202431 
L 403.31975 234.903601 
L 404.298 233.086889 
L 405.77675 230.604445 
L 407.46025 228.227421 
L 412.317375 221.660576 
L 413.181875 219.914217 
L 413.841625 218.080727 
L 414.3535 215.997664 
L 414.751625 213.428547 
L 415.047375 210.05532 
L 415.2635 204.830814 
L 415.4 195.099314 
L 415.46825 173.64009 
L 415.593375 100.262551 
L 415.65025 112.974125 
L 416.037 226.179571 
L 416.253125 233.656482 
L 416.46925 235.11004 
L 416.639875 235.215035 
L 416.844625 234.992319 
L 417.493 233.809438 
L 419.06275 231.065202 
L 420.666625 228.727222 
L 423.135 225.579982 
L 425.148375 222.876854 
L 426.229 221.050963 
L 427.013875 219.290234 
L 427.61675 217.390185 
L 428.0945 215.118723 
L 428.4585 212.248412 
L 428.720125 208.37579 
L 428.902125 202.149439 
L 429.0045 191.083338 
L 429.07275 153.489497 
L 429.175125 100.272078 
L 429.220625 109.018669 
L 429.66425 228.874639 
L 429.880375 234.201913 
L 430.085125 235.170453 
L 430.244375 235.201963 
L 430.48325 234.902437 
L 431.4615 233.085578 
L 432.94025 230.60335 
L 434.62375 228.226481 
L 439.480875 221.659316 
L 440.345375 219.912535 
L 441.005125 218.078345 
L 441.517 215.994056 
L 441.915125 213.422537 
L 442.210875 210.043963 
L 442.427 204.80329 
L 442.5635 194.997615 
L 442.63175 173.159966 
L 442.756875 100.282648 
L 442.81375 113.249234 
L 443.2005 226.229073 
L 443.416625 233.666504 
L 443.63275 235.111572 
L 443.803375 235.214697 
L 444.008125 234.991245 
L 444.6565 233.808081 
L 446.22625 231.064068 
L 447.830125 228.726257 
L 450.2985 225.579086 
L 452.311875 222.875779 
L 453.3925 221.049579 
L 454.177375 219.288348 
L 454.78025 217.387455 
L 455.258 215.114419 
L 455.622 212.240864 
L 455.883625 208.360484 
L 456.065625 202.108199 
L 456.168 190.92931 
L 456.23625 152.747253 
L 456.338625 100.294256 
L 456.384125 109.257724 
L 456.816375 228.327915 
L 457.0325 234.091486 
L 457.248625 235.171433 
L 457.407875 235.201491 
L 457.64675 234.901271 
L 458.636375 233.063417 
L 460.115125 230.584827 
L 461.798625 228.210584 
L 466.633 221.678089 
L 467.508875 219.910853 
L 468.168625 218.075963 
L 468.6805 215.990444 
L 469.078625 213.41652 
L 469.374375 210.032582 
L 469.5905 204.775646 
L 469.727 194.894754 
L 469.79525 172.670527 
L 469.920375 100.306902 
L 469.97725 113.526435 
L 470.352625 225.765369 
L 470.580125 234.214055 
L 470.807625 235.969451 
L 471.035125 236.315797 
L 471.29675 236.30616 
L 471.945125 235.966623 
L 473.992625 234.896692 
L 475.8695 234.187414 
L 478.064875 233.601507 
L 480.749375 233.123313 
L 484.17325 232.749511 
L 488.848375 232.477185 
L 495.991875 232.305338 
L 510.19925 232.228126 
L 561 232.217975 
L 561 232.217975 
" clip-path="url(#pbec4ecb769)" style="fill: none; stroke: #1f77b4; stroke-width: 1.5; stroke-linecap: square"/>
   </g>
   <g id="text_1">
    <!-- 0.08 nA -->
    <g transform="translate(37.75 53.256) scale(0.2 -0.2)">
     <defs>
      <path id="DejaVuSans-30" d="M 2034 4250 
Q 1547 4250 1301 3770 
Q 1056 3291 1056 2328 
Q 1056 1369 1301 889 
Q 1547 409 2034 409 
Q 2525 409 2770 889 
Q 3016 1369 3016 2328 
Q 3016 3291 2770 3770 
Q 2525 4250 2034 4250 
z
M 2034 4750 
Q 2819 4750 3233 4129 
Q 3647 3509 3647 2328 
Q 3647 1150 3233 529 
Q 2819 -91 2034 -91 
Q 1250 -91 836 529 
Q 422 1150 422 2328 
Q 422 3509 836 4129 
Q 1250 4750 2034 4750 
z
" transform="scale(0.015625)"/>
      <path id="DejaVuSans-2e" d="M 684 794 
L 1344 794 
L 1344 0 
L 684 0 
L 684 794 
z
" transform="scale(0.015625)"/>
      <path id="DejaVuSans-38" d="M 2034 2216 
Q 1584 2216 1326 1975 
Q 1069 1734 1069 1313 
Q 1069 891 1326 650 
Q 1584 409 2034 409 
Q 2484 409 2743 651 
Q 3003 894 3003 1313 
Q 3003 1734 2745 1975 
Q 2488 2216 2034 2216 
z
M 1403 2484 
Q 997 2584 770 2862 
Q 544 3141 544 3541 
Q 544 4100 942 4425 
Q 1341 4750 2034 4750 
Q 2731 4750 3128 4425 
Q 3525 4100 3525 3541 
Q 3525 3141 3298 2862 
Q 3072 2584 2669 2484 
Q 3125 2378 3379 2068 
Q 3634 1759 3634 1313 
Q 3634 634 3220 271 
Q 2806 -91 2034 -91 
Q 1263 -91 848 271 
Q 434 634 434 1313 
Q 434 1759 690 2068 
Q 947 2378 1403 2484 
z
M 1172 3481 
Q 1172 3119 1398 2916 
Q 1625 2713 2034 2713 
Q 2441 2713 2670 2916 
Q 2900 3119 2900 3481 
Q 2900 3844 2670 4047 
Q 2441 4250 2034 4250 
Q 1625 4250 1398 4047 
Q 1172 3844 1172 3481 
z
" transform="scale(0.015625)"/>
      <path id="DejaVuSans-20" transform="scale(0.015625)"/>
      <path id="DejaVuSans-6e" d="M 3513 2113 
L 3513 0 
L 2938 0 
L 2938 2094 
Q 2938 2591 2744 2837 
Q 2550 3084 2163 3084 
Q 1697 3084 1428 2787 
Q 1159 2491 1159 1978 
L 1159 0 
L 581 0 
L 581 3500 
L 1159 3500 
L 1159 2956 
Q 1366 3272 1645 3428 
Q 1925 3584 2291 3584 
Q 2894 3584 3203 3211 
Q 3513 2838 3513 2113 
z
" transform="scale(0.015625)"/>
      <path id="DejaVuSans-41" d="M 2188 4044 
L 1331 1722 
L 3047 1722 
L 2188 4044 
z
M 1831 4666 
L 2547 4666 
L 4325 0 
L 3669 0 
L 3244 1197 
L 1141 1197 
L 716 0 
L 50 0 
L 1831 4666 
z
" transform="scale(0.015625)"/>
     </defs>
     <use xlink:href="#DejaVuSans-30"/>
     <use xlink:href="#DejaVuSans-2e" x="63.623047"/>
     <use xlink:href="#DejaVuSans-30" x="95.410156"/>
     <use xlink:href="#DejaVuSans-38" x="159.033203"/>
     <use xlink:href="#DejaVuSans-20" x="222.65625"/>
     <use xlink:href="#DejaVuSans-6e" x="254.443359"/>
     <use xlink:href="#DejaVuSans-41" x="317.822266"/>
    </g>
   </g>
   <g id="text_2">
    <!-- Stacey(vd) 2009 -->
    <g transform="translate(197.067813 31.56) scale(0.22 -0.22)">
     <defs>
      <path id="DejaVuSans-53" d="M 3425 4513 
L 3425 3897 
Q 3066 4069 2747 4153 
Q 2428 4238 2131 4238 
Q 1616 4238 1336 4038 
Q 1056 3838 1056 3469 
Q 1056 3159 1242 3001 
Q 1428 2844 1947 2747 
L 2328 2669 
Q 3034 2534 3370 2195 
Q 3706 1856 3706 1288 
Q 3706 609 3251 259 
Q 2797 -91 1919 -91 
Q 1588 -91 1214 -16 
Q 841 59 441 206 
L 441 856 
Q 825 641 1194 531 
Q 1563 422 1919 422 
Q 2459 422 2753 634 
Q 3047 847 3047 1241 
Q 3047 1584 2836 1778 
Q 2625 1972 2144 2069 
L 1759 2144 
Q 1053 2284 737 2584 
Q 422 2884 422 3419 
Q 422 4038 858 4394 
Q 1294 4750 2059 4750 
Q 2388 4750 2728 4690 
Q 3069 4631 3425 4513 
z
" transform="scale(0.015625)"/>
      <path id="DejaVuSans-74" d="M 1172 4494 
L 1172 3500 
L 2356 3500 
L 2356 3053 
L 1172 3053 
L 1172 1153 
Q 1172 725 1289 603 
Q 1406 481 1766 481 
L 2356 481 
L 2356 0 
L 1766 0 
Q 1100 0 847 248 
Q 594 497 594 1153 
L 594 3053 
L 172 3053 
L 172 3500 
L 594 3500 
L 594 4494 
L 1172 4494 
z
" transform="scale(0.015625)"/>
      <path id="DejaVuSans-61" d="M 2194 1759 
Q 1497 1759 1228 1600 
Q 959 1441 959 1056 
Q 959 750 1161 570 
Q 1363 391 1709 391 
Q 2188 391 2477 730 
Q 2766 1069 2766 1631 
L 2766 1759 
L 2194 1759 
z
M 3341 1997 
L 3341 0 
L 2766 0 
L 2766 531 
Q 2569 213 2275 61 
Q 1981 -91 1556 -91 
Q 1019 -91 701 211 
Q 384 513 384 1019 
Q 384 1609 779 1909 
Q 1175 2209 1959 2209 
L 2766 2209 
L 2766 2266 
Q 2766 2663 2505 2880 
Q 2244 3097 1772 3097 
Q 1472 3097 1187 3025 
Q 903 2953 641 2809 
L 641 3341 
Q 956 3463 1253 3523 
Q 1550 3584 1831 3584 
Q 2591 3584 2966 3190 
Q 3341 2797 3341 1997 
z
" transform="scale(0.015625)"/>
      <path id="DejaVuSans-63" d="M 3122 3366 
L 3122 2828 
Q 2878 2963 2633 3030 
Q 2388 3097 2138 3097 
Q 1578 3097 1268 2742 
Q 959 2388 959 1747 
Q 959 1106 1268 751 
Q 1578 397 2138 397 
Q 2388 397 2633 464 
Q 2878 531 3122 666 
L 3122 134 
Q 2881 22 2623 -34 
Q 2366 -91 2075 -91 
Q 1284 -91 818 406 
Q 353 903 353 1747 
Q 353 2603 823 3093 
Q 1294 3584 2113 3584 
Q 2378 3584 2631 3529 
Q 2884 3475 3122 3366 
z
" transform="scale(0.015625)"/>
      <path id="DejaVuSans-65" d="M 3597 1894 
L 3597 1613 
L 953 1613 
Q 991 1019 1311 708 
Q 1631 397 2203 397 
Q 2534 397 2845 478 
Q 3156 559 3463 722 
L 3463 178 
Q 3153 47 2828 -22 
Q 2503 -91 2169 -91 
Q 1331 -91 842 396 
Q 353 884 353 1716 
Q 353 2575 817 3079 
Q 1281 3584 2069 3584 
Q 2775 3584 3186 3129 
Q 3597 2675 3597 1894 
z
M 3022 2063 
Q 3016 2534 2758 2815 
Q 2500 3097 2075 3097 
Q 1594 3097 1305 2825 
Q 1016 2553 972 2059 
L 3022 2063 
z
" transform="scale(0.015625)"/>
      <path id="DejaVuSans-79" d="M 2059 -325 
Q 1816 -950 1584 -1140 
Q 1353 -1331 966 -1331 
L 506 -1331 
L 506 -850 
L 844 -850 
Q 1081 -850 1212 -737 
Q 1344 -625 1503 -206 
L 1606 56 
L 191 3500 
L 800 3500 
L 1894 763 
L 2988 3500 
L 3597 3500 
L 2059 -325 
z
" transform="scale(0.015625)"/>
      <path id="DejaVuSans-28" d="M 1984 4856 
Q 1566 4138 1362 3434 
Q 1159 2731 1159 2009 
Q 1159 1288 1364 580 
Q 1569 -128 1984 -844 
L 1484 -844 
Q 1016 -109 783 600 
Q 550 1309 550 2009 
Q 550 2706 781 3412 
Q 1013 4119 1484 4856 
L 1984 4856 
z
" transform="scale(0.015625)"/>
      <path id="DejaVuSans-76" d="M 191 3500 
L 800 3500 
L 1894 563 
L 2988 3500 
L 3597 3500 
L 2284 0 
L 1503 0 
L 191 3500 
z
" transform="scale(0.015625)"/>
      <path id="DejaVuSans-64" d="M 2906 2969 
L 2906 4863 
L 3481 4863 
L 3481 0 
L 2906 0 
L 2906 525 
Q 2725 213 2448 61 
Q 2172 -91 1784 -91 
Q 1150 -91 751 415 
Q 353 922 353 1747 
Q 353 2572 751 3078 
Q 1150 3584 1784 3584 
Q 2172 3584 2448 3432 
Q 2725 3281 2906 2969 
z
M 947 1747 
Q 947 1113 1208 752 
Q 1469 391 1925 391 
Q 2381 391 2643 752 
Q 2906 1113 2906 1747 
Q 2906 2381 2643 2742 
Q 2381 3103 1925 3103 
Q 1469 3103 1208 2742 
Q 947 2381 947 1747 
z
" transform="scale(0.015625)"/>
      <path id="DejaVuSans-29" d="M 513 4856 
L 1013 4856 
Q 1481 4119 1714 3412 
Q 1947 2706 1947 2009 
Q 1947 1309 1714 600 
Q 1481 -109 1013 -844 
L 513 -844 
Q 928 -128 1133 580 
Q 1338 1288 1338 2009 
Q 1338 2731 1133 3434 
Q 928 4138 513 4856 
z
" transform="scale(0.015625)"/>
      <path id="DejaVuSans-32" d="M 1228 531 
L 3431 531 
L 3431 0 
L 469 0 
L 469 531 
Q 828 903 1448 1529 
Q 2069 2156 2228 2338 
Q 2531 2678 2651 2914 
Q 2772 3150 2772 3378 
Q 2772 3750 2511 3984 
Q 2250 4219 1831 4219 
Q 1534 4219 1204 4116 
Q 875 4013 500 3803 
L 500 4441 
Q 881 4594 1212 4672 
Q 1544 4750 1819 4750 
Q 2544 4750 2975 4387 
Q 3406 4025 3406 3419 
Q 3406 3131 3298 2873 
Q 3191 2616 2906 2266 
Q 2828 2175 2409 1742 
Q 1991 1309 1228 531 
z
" transform="scale(0.015625)"/>
      <path id="DejaVuSans-39" d="M 703 97 
L 703 672 
Q 941 559 1184 500 
Q 1428 441 1663 441 
Q 2288 441 2617 861 
Q 2947 1281 2994 2138 
Q 2813 1869 2534 1725 
Q 2256 1581 1919 1581 
Q 1219 1581 811 2004 
Q 403 2428 403 3163 
Q 403 3881 828 4315 
Q 1253 4750 1959 4750 
Q 2769 4750 3195 4129 
Q 3622 3509 3622 2328 
Q 3622 1225 3098 567 
Q 2575 -91 1691 -91 
Q 1453 -91 1209 -44 
Q 966 3 703 97 
z
M 1959 2075 
Q 2384 2075 2632 2365 
Q 2881 2656 2881 3163 
Q 2881 3666 2632 3958 
Q 2384 4250 1959 4250 
Q 1534 4250 1286 3958 
Q 1038 3666 1038 3163 
Q 1038 2656 1286 2365 
Q 1534 2075 1959 2075 
z
" transform="scale(0.015625)"/>
     </defs>
     <use xlink:href="#DejaVuSans-53"/>
     <use xlink:href="#DejaVuSans-74" x="63.476562"/>
     <use xlink:href="#DejaVuSans-61" x="102.685547"/>
     <use xlink:href="#DejaVuSans-63" x="163.964844"/>
     <use xlink:href="#DejaVuSans-65" x="218.945312"/>
     <use xlink:href="#DejaVuSans-79" x="280.46875"/>
     <use xlink:href="#DejaVuSans-28" x="339.648438"/>
     <use xlink:href="#DejaVuSans-76" x="378.662109"/>
     <use xlink:href="#DejaVuSans-64" x="437.841797"/>
     <use xlink:href="#DejaVuSans-29" x="501.318359"/>
     <use xlink:href="#DejaVuSans-20" x="540.332031"/>
     <use xlink:href="#DejaVuSans-32" x="572.119141"/>
     <use xlink:href="#DejaVuSans-30" x="635.742188"/>
     <use xlink:href="#DejaVuSans-30" x="699.365234"/>
     <use xlink:href="#DejaVuSans-39" x="762.988281"/>
    </g>
   </g>
   <g id="patch_2">
    <path d="M 406.3 273 
L 424.5 273 
L 424.5 37.56 
L 406.3 37.56 
L 406.3 273 
z
" clip-path="url(#pbec4ecb769)" style="fill: none; opacity: 0.5; stroke: #000000; stroke-linejoin: miter"/>
   </g>
   <g id="patch_3">
    <path d="M 561 214.14 
Q 492.75 243.57 424.5 273 
" style="fill: none; opacity: 0.5; stroke: #000000; stroke-linecap: round"/>
   </g>
   <g id="patch_4">
    <path d="M 561 72.876 
Q 492.75 55.218 424.5 37.56 
" style="fill: none; opacity: 0.5; stroke: #000000; stroke-linecap: round"/>
   </g>
   <g id="axes_2">
    <g id="patch_5">
     <path d="M 500.94 214.14 
L 561 214.14 
L 561 72.876 
L 500.94 72.876 
z
" style="fill: #ffffff"/>
    </g>
    <g id="matplotlib.axis_1">
     <g id="xtick_1"/>
     <g id="xtick_2"/>
     <g id="xtick_3"/>
    </g>
    <g id="matplotlib.axis_2">
     <g id="ytick_1"/>
     <g id="ytick_2"/>
     <g id="ytick_3"/>
     <g id="ytick_4"/>
     <g id="ytick_5"/>
     <g id="ytick_6"/>
    </g>
    <g id="line2d_2">
     <path d="M 500.902463 188.244711 
L 506.946 186.765347 
L 519.145688 183.835556 
L 522.336375 182.808862 
L 524.588625 181.860209 
L 526.202738 180.952085 
L 527.441475 180.006738 
L 528.379913 179.018138 
L 529.130663 177.900203 
L 529.731263 176.583124 
L 530.181713 175.065401 
L 530.557088 172.966736 
L 530.81985 170.267676 
L 531.007538 166.337336 
L 531.157688 158.42096 
L 531.345375 128.877977 
L 531.5706 110.65222 
L 531.608138 110.497531 
L 531.683213 112.041846 
L 531.8709 123.909735 
L 532.546575 173.031287 
L 532.884413 183.080676 
L 533.22225 187.654207 
L 533.597625 189.937014 
L 533.973 190.924144 
L 534.348375 191.330118 
L 534.798825 191.471865 
L 535.436963 191.409662 
L 536.788313 191.001585 
L 543.019538 188.98996 
L 548.0871 187.641086 
L 555.969975 185.807608 
L 561 184.623529 
L 561 184.623529 
" clip-path="url(#p03ea0eceb5)" style="fill: none; stroke: #1f77b4; stroke-width: 1.5; stroke-linecap: square"/>
    </g>
    <g id="patch_6">
     <path d="M 500.94 214.14 
L 500.94 72.876 
" style="fill: none; stroke: #000000; stroke-width: 0.8; stroke-linejoin: miter; stroke-linecap: square"/>
    </g>
    <g id="patch_7">
     <path d="M 500.94 214.14 
L 561 214.14 
" style="fill: none; stroke: #000000; stroke-width: 0.8; stroke-linejoin: miter; stroke-linecap: square"/>
    </g>
   </g>
  </g>
 </g>
 <defs>
  <clipPath id="pbec4ecb769">
   <rect x="15" y="37.56" width="546" height="235.44"/>
  </clipPath>
  <clipPath id="p03ea0eceb5">
   <rect x="500.94" y="72.876" width="60.06" height="141.264"/>
  </clipPath>
 </defs>
</svg>
