<?xml version="1.0" encoding="utf-8" standalone="no"?>
<!DOCTYPE svg PUBLIC "-//W3C//DTD SVG 1.1//EN"
  "http://www.w3.org/Graphics/SVG/1.1/DTD/svg11.dtd">
<svg xmlns:xlink="http://www.w3.org/1999/xlink" width="576pt" height="288pt" viewBox="0 0 576 288" xmlns="http://www.w3.org/2000/svg" version="1.1">
 <metadata>
  <rdf:RDF xmlns:dc="http://purl.org/dc/elements/1.1/" xmlns:cc="http://creativecommons.org/ns#" xmlns:rdf="http://www.w3.org/1999/02/22-rdf-syntax-ns#">
   <cc:Work>
    <dc:type rdf:resource="http://purl.org/dc/dcmitype/StillImage"/>
    <dc:date>2024-09-24T19:15:54.947038</dc:date>
    <dc:format>image/svg+xml</dc:format>
    <dc:creator>
     <cc:Agent>
      <dc:title>Matplotlib v3.7.4, https://matplotlib.org/</dc:title>
     </cc:Agent>
    </dc:creator>
   </cc:Work>
  </rdf:RDF>
 </metadata>
 <defs>
  <style type="text/css">*{stroke-linejoin: round; stroke-linecap: butt}</style>
 </defs>
 <g id="figure_1">
  <g id="patch_1">
   <path d="M 0 288 
L 576 288 
L 576 0 
L 0 0 
z
" style="fill: #ffffff"/>
  </g>
  <g id="axes_1">
   <g id="line2d_1">
    <path d="M 15 233.76 
L 17.57075 233.244232 
L 20.767125 232.840994 
L 25.021375 232.54144 
L 31.277625 232.342517 
L 42.538875 232.240553 
L 81.6575 232.218031 
L 106.06825 232.108786 
L 107.558375 229.943873 
L 109.378375 227.708118 
L 113.951125 222.279518 
L 114.94075 220.626444 
L 115.6915 218.937381 
L 116.271625 217.081186 
L 116.726625 214.873324 
L 117.07925 212.033444 
L 117.340875 208.025659 
L 117.5115 201.985079 
L 117.613875 190.612313 
L 117.682125 151.617661 
L 117.7845 100.603097 
L 117.83 109.8454 
L 118.26225 228.339482 
L 118.478375 234.086593 
L 118.6945 235.184517 
L 118.85375 235.232251 
L 119.08125 234.97688 
L 119.911625 233.528541 
L 121.413125 231.111682 
L 123.017 228.962937 
L 125.22375 226.411517 
L 128.04475 223.114503 
L 129.205 221.39896 
L 130.058125 219.741023 
L 130.7065 217.996845 
L 131.218375 215.977779 
L 131.6165 213.491773 
L 131.923625 210.088412 
L 132.13975 205.009508 
L 132.27625 195.879338 
L 132.355875 169.939228 
L 132.469625 100.538458 
L 132.5265 110.861145 
L 132.936 227.20613 
L 133.152125 233.855031 
L 133.36825 235.151298 
L 133.538875 235.23661 
L 133.755 235.006085 
L 134.483 233.744717 
L 136.018625 231.241205 
L 137.611125 229.086443 
L 139.749625 226.597865 
L 142.764 223.080495 
L 143.92425 221.355518 
L 144.766 219.708397 
L 145.414375 217.950499 
L 145.92625 215.907264 
L 146.324375 213.37445 
L 146.620125 210.042748 
L 146.83625 204.90027 
L 146.97275 195.49431 
L 147.052375 167.639748 
L 147.166125 100.493713 
L 147.223 111.91678 
L 147.621125 226.669609 
L 147.83725 233.745421 
L 148.053375 235.134508 
L 148.224 235.240404 
L 148.42875 235.034408 
L 149.077125 233.922148 
L 150.65825 231.32124 
L 152.239375 229.168152 
L 154.332375 226.721271 
L 157.494625 223.031183 
L 158.6435 221.311761 
L 159.48525 219.649295 
L 160.133625 217.866163 
L 160.6455 215.778025 
L 161.043625 213.156702 
L 161.339375 209.624675 
L 161.544125 204.337407 
L 161.66925 195.091687 
L 161.7375 173.846018 
L 161.862625 100.520466 
L 161.9195 113.010262 
L 162.30625 226.09793 
L 162.522375 233.628718 
L 162.7385 235.116021 
L 162.909125 235.243603 
L 163.113875 235.046186 
L 163.728125 233.998406 
L 165.332 231.350785 
L 166.90175 229.207344 
L 168.972 226.781441 
L 172.2025 223.012073 
L 173.34 221.306756 
L 174.170375 219.668822 
L 174.81875 217.894082 
L 175.330625 215.820942 
L 175.72875 213.229408 
L 176.0245 209.765813 
L 176.22925 204.675982 
L 176.36575 194.670103 
L 176.434 171.848251 
L 176.559125 100.617229 
L 176.604625 109.95598 
L 177.036875 228.356662 
L 177.253 234.090101 
L 177.469125 235.184992 
L 177.628375 235.232073 
L 177.855875 234.976395 
L 178.68625 233.52797 
L 180.18775 231.111208 
L 181.791625 228.962536 
L 183.998375 226.411157 
L 186.819375 223.114074 
L 187.979625 221.398413 
L 188.83275 219.740285 
L 189.481125 217.995798 
L 189.993 215.976191 
L 190.391125 213.489142 
L 190.69825 210.083368 
L 190.914375 204.997488 
L 191.050875 195.837472 
L 191.1305 169.692229 
L 191.24425 100.529925 
L 191.301125 110.976269 
L 191.710625 227.226053 
L 191.92675 233.859102 
L 192.142875 235.151909 
L 192.3135 235.236453 
L 192.529625 235.005614 
L 193.257625 233.74414 
L 194.79325 231.240725 
L 196.38575 229.086038 
L 198.52425 226.597504 
L 201.538625 223.080065 
L 202.698875 221.354968 
L 203.540625 219.707654 
L 204.189 217.949443 
L 204.700875 215.905653 
L 205.099 213.371757 
L 205.39475 210.037661 
L 205.610875 204.888041 
L 205.747375 195.450557 
L 205.827 167.374835 
L 205.94075 100.493182 
L 205.997625 112.0362 
L 206.39575 226.690834 
L 206.611875 233.749756 
L 206.828 235.135183 
L 206.998625 235.240269 
L 207.21475 235.017807 
L 207.908625 233.819958 
L 209.455625 231.286944 
L 211.03675 229.139236 
L 213.141125 226.682884 
L 216.257875 223.045921 
L 217.40675 221.330633 
L 218.2485 219.674816 
L 218.896875 217.902642 
L 219.40875 215.834073 
L 219.806875 213.251575 
L 220.102625 209.80853 
L 220.307375 204.77667 
L 220.443875 195.045901 
L 220.512125 173.632122 
L 220.63725 100.527772 
L 220.694125 113.133753 
L 221.080875 226.120549 
L 221.297 233.633333 
L 221.513125 235.116763 
L 221.68375 235.243491 
L 221.8885 235.045738 
L 222.50275 233.997825 
L 224.106625 231.350301 
L 225.676375 229.206936 
L 227.746625 226.781079 
L 230.977125 223.011639 
L 232.114625 221.3062 
L 232.945 219.668074 
L 233.593375 217.893013 
L 234.10525 215.819302 
L 234.503375 213.226637 
L 234.799125 209.760462 
L 235.003875 204.663312 
L 235.129 196.167605 
L 235.208625 171.617077 
L 235.322375 100.623718 
L 235.37925 110.067096 
L 235.800125 227.747123 
L 236.01625 233.965585 
L 236.232375 235.167579 
L 236.403 235.231894 
L 236.6305 234.97591 
L 237.47225 233.5074 
L 238.97375 231.094108 
L 240.577625 228.948076 
L 242.79575 226.385544 
L 245.582625 223.128671 
L 246.75425 221.397867 
L 247.607375 219.739548 
L 248.25575 217.994752 
L 248.767625 215.974603 
L 249.16575 213.48651 
L 249.472875 210.078318 
L 249.689 204.985445 
L 249.8255 195.795404 
L 249.905125 169.44324 
L 250.018875 100.522288 
L 250.07575 111.09188 
L 250.48525 227.245926 
L 250.701375 233.863163 
L 250.9175 235.152519 
L 251.088125 235.236295 
L 251.30425 235.005143 
L 252.03225 233.743564 
L 253.567875 231.240246 
L 255.160375 229.085634 
L 257.298875 226.597144 
L 260.31325 223.079634 
L 261.4735 221.354417 
L 262.31525 219.706912 
L 262.963625 217.948386 
L 263.4755 215.904041 
L 263.873625 213.369063 
L 264.169375 210.032569 
L 264.3855 204.875788 
L 264.522 195.406586 
L 264.601625 167.107951 
L 264.715375 100.493529 
L 264.77225 112.156082 
L 265.170375 226.712008 
L 265.3865 233.754081 
L 265.602625 235.135856 
L 265.77325 235.240133 
L 265.989375 235.017342 
L 266.68325 233.81938 
L 268.23025 231.286462 
L 269.811375 229.13883 
L 271.91575 226.682523 
L 275.0325 223.045489 
L 276.181375 221.33008 
L 277.023125 219.674069 
L 277.6715 217.901575 
L 278.183375 215.832438 
L 278.5815 213.248816 
L 278.87725 209.80322 
L 279.082 204.764199 
L 279.2185 194.999881 
L 279.28675 173.416348 
L 279.411875 100.535936 
L 279.46875 113.257683 
L 279.8555 226.143112 
L 280.071625 233.637937 
L 280.28775 235.117502 
L 280.458375 235.243379 
L 280.663125 235.045289 
L 281.277375 233.997243 
L 282.88125 231.349817 
L 284.451 229.206528 
L 286.52125 226.780717 
L 289.75175 223.011205 
L 290.88925 221.305645 
L 291.719625 219.667325 
L 292.368 217.891945 
L 292.879875 215.817661 
L 293.278 213.223864 
L 293.57375 209.755106 
L 293.7785 204.650618 
L 293.903625 196.127117 
L 293.98325 171.383946 
L 294.097 100.608842 
L 294.153875 110.178722 
L 294.57475 227.765735 
L 294.790875 233.969388 
L 295.007 235.168126 
L 295.177625 235.231714 
L 295.405125 234.975425 
L 296.246875 233.50683 
L 297.748375 231.093635 
L 299.35225 228.947675 
L 301.570375 226.385184 
L 304.35725 223.128243 
L 305.528875 221.39732 
L 306.382 219.73881 
L 307.030375 217.993705 
L 307.54225 215.973014 
L 307.940375 213.483877 
L 308.2475 210.073264 
L 308.463625 204.973379 
L 308.600125 195.753132 
L 308.67975 169.192262 
L 308.7935 100.515545 
L 308.850375 111.207976 
L 309.259875 227.265752 
L 309.476 233.867215 
L 309.692125 235.153126 
L 309.86275 235.236137 
L 310.078875 235.004672 
L 310.806875 233.742987 
L 312.3425 231.239766 
L 313.935 229.085229 
L 316.0735 226.596783 
L 319.087875 223.079204 
L 320.248125 221.353866 
L 321.089875 219.706169 
L 321.73825 217.94733 
L 322.250125 215.902429 
L 322.64825 213.366367 
L 322.944 210.027473 
L 323.160125 204.863511 
L 323.296625 195.362395 
L 323.37625 166.839101 
L 323.49 100.49475 
L 323.5355 108.348402 
L 323.9905 229.24255 
L 324.206625 234.270721 
L 324.411375 235.194089 
L 324.570625 235.228338 
L 324.8095 234.949377 
L 325.776375 233.258525 
L 327.255125 230.920219 
L 328.88175 228.772856 
L 331.213625 226.101096 
L 333.738875 223.135532 
L 334.9105 221.40663 
L 335.763625 219.751367 
L 336.423375 217.974788 
L 336.93525 215.944264 
L 337.333375 213.436138 
L 337.6405 209.981294 
L 337.856625 204.751704 
L 337.993125 194.953623 
L 338.061375 173.198684 
L 338.1865 100.544957 
L 338.243375 113.382046 
L 338.630125 226.16562 
L 338.84625 233.64253 
L 339.062375 235.118239 
L 339.233 235.243266 
L 339.43775 235.04484 
L 340.052 233.996662 
L 341.655875 231.349333 
L 343.225625 229.20612 
L 345.295875 226.780355 
L 348.526375 223.010771 
L 349.663875 221.30509 
L 350.49425 219.666577 
L 351.142625 217.890876 
L 351.6545 215.81602 
L 352.052625 213.22109 
L 352.348375 209.749745 
L 352.553125 204.637898 
L 352.67825 196.086437 
L 352.757875 171.148853 
L 352.871625 100.594876 
L 352.9285 110.290854 
L 353.349375 227.784303 
L 353.5655 233.973183 
L 353.781625 235.168671 
L 353.95225 235.231533 
L 354.17975 234.97494 
L 355.0215 233.50626 
L 356.523 231.093161 
L 358.126875 228.947275 
L 360.345 226.384824 
L 363.131875 223.127815 
L 364.3035 221.396773 
L 365.156625 219.738072 
L 365.805 217.992658 
L 366.316875 215.971424 
L 366.715 213.481242 
L 367.022125 210.068206 
L 367.23825 204.96129 
L 367.37475 195.710654 
L 367.454375 168.939294 
L 367.568125 100.509693 
L 367.625 111.324553 
L 368.0345 227.285529 
L 368.250625 233.871256 
L 368.46675 235.153731 
L 368.637375 235.235977 
L 368.8535 235.0042 
L 369.5815 233.74241 
L 371.117125 231.239287 
L 372.709625 229.084825 
L 374.848125 226.596422 
L 377.8625 223.078774 
L 379.02275 221.353315 
L 379.8645 219.705427 
L 380.512875 217.946273 
L 381.02475 215.900816 
L 381.422875 213.36367 
L 381.718625 210.022372 
L 381.93475 204.85121 
L 382.07125 195.317983 
L 382.1395 174.891471 
L 382.264625 100.496844 
L 382.3215 112.397224 
L 382.719625 226.754201 
L 382.93575 233.762699 
L 383.151875 235.137194 
L 383.3225 235.239859 
L 383.538625 235.016411 
L 384.2325 233.818223 
L 385.7795 231.2855 
L 387.360625 229.138018 
L 389.465 226.681801 
L 392.58175 223.044624 
L 393.730625 221.328974 
L 394.572375 219.672574 
L 395.22075 217.899441 
L 395.732625 215.829165 
L 396.13075 213.243293 
L 396.4265 209.792587 
L 396.63125 204.739185 
L 396.76775 194.907127 
L 396.836 172.979122 
L 396.961125 100.554832 
L 397.018 113.506842 
L 397.40475 226.188074 
L 397.620875 233.647112 
L 397.837 235.118973 
L 398.007625 235.243152 
L 398.212375 235.04439 
L 398.826625 233.996081 
L 400.4305 231.34885 
L 402.00025 229.205712 
L 404.081875 226.767302 
L 407.301 223.010337 
L 408.4385 221.304534 
L 409.268875 219.665829 
L 409.91725 217.889806 
L 410.429125 215.814378 
L 410.82725 213.218314 
L 411.123 209.744379 
L 411.32775 204.625153 
L 411.452875 196.045564 
L 411.5325 170.911793 
L 411.64625 100.581818 
L 411.703125 110.40349 
L 412.124 227.802826 
L 412.340125 233.976967 
L 412.55625 235.169214 
L 412.726875 235.231352 
L 412.954375 234.974455 
L 413.796125 233.50569 
L 415.297625 231.092687 
L 416.9015 228.946874 
L 419.119625 226.384464 
L 421.9065 223.127387 
L 423.078125 221.396226 
L 423.93125 219.737334 
L 424.579625 217.991611 
L 425.0915 215.969834 
L 425.489625 213.478605 
L 425.79675 210.063143 
L 426.012875 204.949178 
L 426.149375 195.667969 
L 426.229 168.684335 
L 426.34275 100.50473 
L 426.399625 111.44161 
L 426.809125 227.305259 
L 427.02525 233.875288 
L 427.241375 235.154333 
L 427.412 235.235817 
L 427.6395 234.987033 
L 428.43575 233.600729 
L 429.948625 231.155024 
L 431.541125 229.013669 
L 433.71375 226.494897 
L 436.614375 223.108491 
L 437.774625 221.39129 
L 438.62775 219.730672 
L 439.276125 217.982158 
L 439.788 215.955471 
L 440.186125 213.454768 
L 440.49325 210.017266 
L 440.709375 204.838885 
L 440.845875 195.273347 
L 440.914125 174.686837 
L 441.03925 100.499809 
L 441.096125 112.518478 
L 441.49425 226.77522 
L 441.710375 233.766992 
L 441.9265 235.137859 
L 442.097125 235.239721 
L 442.31325 235.015945 
L 443.007125 233.817644 
L 444.554125 231.285019 
L 446.13525 229.137613 
L 448.239625 226.681439 
L 451.356375 223.044192 
L 452.50525 221.328421 
L 453.347 219.671827 
L 453.995375 217.898373 
L 454.50725 215.827527 
L 454.905375 213.240529 
L 455.201125 209.787262 
L 455.405875 204.726641 
L 455.542375 194.86039 
L 455.610625 172.757651 
L 455.73575 100.56556 
L 455.792625 113.632067 
L 456.179375 226.210472 
L 456.3955 233.651683 
L 456.611625 235.119704 
L 456.78225 235.243037 
L 456.987 235.04394 
L 457.60125 233.995499 
L 459.205125 231.348366 
L 460.774875 229.205304 
L 462.8565 226.76694 
L 466.075625 223.009903 
L 467.213125 221.303979 
L 468.0435 219.66508 
L 468.691875 217.888737 
L 469.20375 215.812736 
L 469.601875 213.215537 
L 469.897625 209.739007 
L 470.11375 204.403718 
L 470.238875 195.821232 
L 470.3185 170.38215 
L 470.43225 101.093837 
L 470.489125 111.04805 
L 470.91 227.987608 
L 471.1375 234.521059 
L 471.365 235.907573 
L 471.5925 236.174603 
L 471.876875 236.140486 
L 472.695875 235.711047 
L 474.61825 234.765517 
L 476.540625 234.079084 
L 478.815625 233.510313 
L 481.613875 233.049656 
L 485.21975 232.693293 
L 490.213375 232.439019 
L 498.084875 232.284753 
L 515.15875 232.223005 
L 561 232.217975 
L 561 232.217975 
" clip-path="url(#pfb082ea362)" style="fill: none; stroke: #1f77b4; stroke-width: 1.5; stroke-linecap: square"/>
   </g>
   <g id="text_1">
    <!-- 0.7 nA -->
    <g transform="translate(37.75 53.256) scale(0.2 -0.2)">
     <defs>
      <path id="DejaVuSans-30" d="M 2034 4250 
Q 1547 4250 1301 3770 
Q 1056 3291 1056 2328 
Q 1056 1369 1301 889 
Q 1547 409 2034 409 
Q 2525 409 2770 889 
Q 3016 1369 3016 2328 
Q 3016 3291 2770 3770 
Q 2525 4250 2034 4250 
z
M 2034 4750 
Q 2819 4750 3233 4129 
Q 3647 3509 3647 2328 
Q 3647 1150 3233 529 
Q 2819 -91 2034 -91 
Q 1250 -91 836 529 
Q 422 1150 422 2328 
Q 422 3509 836 4129 
Q 1250 4750 2034 4750 
z
" transform="scale(0.015625)"/>
      <path id="DejaVuSans-2e" d="M 684 794 
L 1344 794 
L 1344 0 
L 684 0 
L 684 794 
z
" transform="scale(0.015625)"/>
      <path id="DejaVuSans-37" d="M 525 4666 
L 3525 4666 
L 3525 4397 
L 1831 0 
L 1172 0 
L 2766 4134 
L 525 4134 
L 525 4666 
z
" transform="scale(0.015625)"/>
      <path id="DejaVuSans-20" transform="scale(0.015625)"/>
      <path id="DejaVuSans-6e" d="M 3513 2113 
L 3513 0 
L 2938 0 
L 2938 2094 
Q 2938 2591 2744 2837 
Q 2550 3084 2163 3084 
Q 1697 3084 1428 2787 
Q 1159 2491 1159 1978 
L 1159 0 
L 581 0 
L 581 3500 
L 1159 3500 
L 1159 2956 
Q 1366 3272 1645 3428 
Q 1925 3584 2291 3584 
Q 2894 3584 3203 3211 
Q 3513 2838 3513 2113 
z
" transform="scale(0.015625)"/>
      <path id="DejaVuSans-41" d="M 2188 4044 
L 1331 1722 
L 3047 1722 
L 2188 4044 
z
M 1831 4666 
L 2547 4666 
L 4325 0 
L 3669 0 
L 3244 1197 
L 1141 1197 
L 716 0 
L 50 0 
L 1831 4666 
z
" transform="scale(0.015625)"/>
     </defs>
     <use xlink:href="#DejaVuSans-30"/>
     <use xlink:href="#DejaVuSans-2e" x="63.623047"/>
     <use xlink:href="#DejaVuSans-37" x="95.410156"/>
     <use xlink:href="#DejaVuSans-20" x="159.033203"/>
     <use xlink:href="#DejaVuSans-6e" x="190.820312"/>
     <use xlink:href="#DejaVuSans-41" x="254.199219"/>
    </g>
   </g>
   <g id="text_2">
    <!-- Stacey(rb) 2009 -->
    <g transform="translate(199.056406 31.56) scale(0.22 -0.22)">
     <defs>
      <path id="DejaVuSans-53" d="M 3425 4513 
L 3425 3897 
Q 3066 4069 2747 4153 
Q 2428 4238 2131 4238 
Q 1616 4238 1336 4038 
Q 1056 3838 1056 3469 
Q 1056 3159 1242 3001 
Q 1428 2844 1947 2747 
L 2328 2669 
Q 3034 2534 3370 2195 
Q 3706 1856 3706 1288 
Q 3706 609 3251 259 
Q 2797 -91 1919 -91 
Q 1588 -91 1214 -16 
Q 841 59 441 206 
L 441 856 
Q 825 641 1194 531 
Q 1563 422 1919 422 
Q 2459 422 2753 634 
Q 3047 847 3047 1241 
Q 3047 1584 2836 1778 
Q 2625 1972 2144 2069 
L 1759 2144 
Q 1053 2284 737 2584 
Q 422 2884 422 3419 
Q 422 4038 858 4394 
Q 1294 4750 2059 4750 
Q 2388 4750 2728 4690 
Q 3069 4631 3425 4513 
z
" transform="scale(0.015625)"/>
      <path id="DejaVuSans-74" d="M 1172 4494 
L 1172 3500 
L 2356 3500 
L 2356 3053 
L 1172 3053 
L 1172 1153 
Q 1172 725 1289 603 
Q 1406 481 1766 481 
L 2356 481 
L 2356 0 
L 1766 0 
Q 1100 0 847 248 
Q 594 497 594 1153 
L 594 3053 
L 172 3053 
L 172 3500 
L 594 3500 
L 594 4494 
L 1172 4494 
z
" transform="scale(0.015625)"/>
      <path id="DejaVuSans-61" d="M 2194 1759 
Q 1497 1759 1228 1600 
Q 959 1441 959 1056 
Q 959 750 1161 570 
Q 1363 391 1709 391 
Q 2188 391 2477 730 
Q 2766 1069 2766 1631 
L 2766 1759 
L 2194 1759 
z
M 3341 1997 
L 3341 0 
L 2766 0 
L 2766 531 
Q 2569 213 2275 61 
Q 1981 -91 1556 -91 
Q 1019 -91 701 211 
Q 384 513 384 1019 
Q 384 1609 779 1909 
Q 1175 2209 1959 2209 
L 2766 2209 
L 2766 2266 
Q 2766 2663 2505 2880 
Q 2244 3097 1772 3097 
Q 1472 3097 1187 3025 
Q 903 2953 641 2809 
L 641 3341 
Q 956 3463 1253 3523 
Q 1550 3584 1831 3584 
Q 2591 3584 2966 3190 
Q 3341 2797 3341 1997 
z
" transform="scale(0.015625)"/>
      <path id="DejaVuSans-63" d="M 3122 3366 
L 3122 2828 
Q 2878 2963 2633 3030 
Q 2388 3097 2138 3097 
Q 1578 3097 1268 2742 
Q 959 2388 959 1747 
Q 959 1106 1268 751 
Q 1578 397 2138 397 
Q 2388 397 2633 464 
Q 2878 531 3122 666 
L 3122 134 
Q 2881 22 2623 -34 
Q 2366 -91 2075 -91 
Q 1284 -91 818 406 
Q 353 903 353 1747 
Q 353 2603 823 3093 
Q 1294 3584 2113 3584 
Q 2378 3584 2631 3529 
Q 2884 3475 3122 3366 
z
" transform="scale(0.015625)"/>
      <path id="DejaVuSans-65" d="M 3597 1894 
L 3597 1613 
L 953 1613 
Q 991 1019 1311 708 
Q 1631 397 2203 397 
Q 2534 397 2845 478 
Q 3156 559 3463 722 
L 3463 178 
Q 3153 47 2828 -22 
Q 2503 -91 2169 -91 
Q 1331 -91 842 396 
Q 353 884 353 1716 
Q 353 2575 817 3079 
Q 1281 3584 2069 3584 
Q 2775 3584 3186 3129 
Q 3597 2675 3597 1894 
z
M 3022 2063 
Q 3016 2534 2758 2815 
Q 2500 3097 2075 3097 
Q 1594 3097 1305 2825 
Q 1016 2553 972 2059 
L 3022 2063 
z
" transform="scale(0.015625)"/>
      <path id="DejaVuSans-79" d="M 2059 -325 
Q 1816 -950 1584 -1140 
Q 1353 -1331 966 -1331 
L 506 -1331 
L 506 -850 
L 844 -850 
Q 1081 -850 1212 -737 
Q 1344 -625 1503 -206 
L 1606 56 
L 191 3500 
L 800 3500 
L 1894 763 
L 2988 3500 
L 3597 3500 
L 2059 -325 
z
" transform="scale(0.015625)"/>
      <path id="DejaVuSans-28" d="M 1984 4856 
Q 1566 4138 1362 3434 
Q 1159 2731 1159 2009 
Q 1159 1288 1364 580 
Q 1569 -128 1984 -844 
L 1484 -844 
Q 1016 -109 783 600 
Q 550 1309 550 2009 
Q 550 2706 781 3412 
Q 1013 4119 1484 4856 
L 1984 4856 
z
" transform="scale(0.015625)"/>
      <path id="DejaVuSans-72" d="M 2631 2963 
Q 2534 3019 2420 3045 
Q 2306 3072 2169 3072 
Q 1681 3072 1420 2755 
Q 1159 2438 1159 1844 
L 1159 0 
L 581 0 
L 581 3500 
L 1159 3500 
L 1159 2956 
Q 1341 3275 1631 3429 
Q 1922 3584 2338 3584 
Q 2397 3584 2469 3576 
Q 2541 3569 2628 3553 
L 2631 2963 
z
" transform="scale(0.015625)"/>
      <path id="DejaVuSans-62" d="M 3116 1747 
Q 3116 2381 2855 2742 
Q 2594 3103 2138 3103 
Q 1681 3103 1420 2742 
Q 1159 2381 1159 1747 
Q 1159 1113 1420 752 
Q 1681 391 2138 391 
Q 2594 391 2855 752 
Q 3116 1113 3116 1747 
z
M 1159 2969 
Q 1341 3281 1617 3432 
Q 1894 3584 2278 3584 
Q 2916 3584 3314 3078 
Q 3713 2572 3713 1747 
Q 3713 922 3314 415 
Q 2916 -91 2278 -91 
Q 1894 -91 1617 61 
Q 1341 213 1159 525 
L 1159 0 
L 581 0 
L 581 4863 
L 1159 4863 
L 1159 2969 
z
" transform="scale(0.015625)"/>
      <path id="DejaVuSans-29" d="M 513 4856 
L 1013 4856 
Q 1481 4119 1714 3412 
Q 1947 2706 1947 2009 
Q 1947 1309 1714 600 
Q 1481 -109 1013 -844 
L 513 -844 
Q 928 -128 1133 580 
Q 1338 1288 1338 2009 
Q 1338 2731 1133 3434 
Q 928 4138 513 4856 
z
" transform="scale(0.015625)"/>
      <path id="DejaVuSans-32" d="M 1228 531 
L 3431 531 
L 3431 0 
L 469 0 
L 469 531 
Q 828 903 1448 1529 
Q 2069 2156 2228 2338 
Q 2531 2678 2651 2914 
Q 2772 3150 2772 3378 
Q 2772 3750 2511 3984 
Q 2250 4219 1831 4219 
Q 1534 4219 1204 4116 
Q 875 4013 500 3803 
L 500 4441 
Q 881 4594 1212 4672 
Q 1544 4750 1819 4750 
Q 2544 4750 2975 4387 
Q 3406 4025 3406 3419 
Q 3406 3131 3298 2873 
Q 3191 2616 2906 2266 
Q 2828 2175 2409 1742 
Q 1991 1309 1228 531 
z
" transform="scale(0.015625)"/>
      <path id="DejaVuSans-39" d="M 703 97 
L 703 672 
Q 941 559 1184 500 
Q 1428 441 1663 441 
Q 2288 441 2617 861 
Q 2947 1281 2994 2138 
Q 2813 1869 2534 1725 
Q 2256 1581 1919 1581 
Q 1219 1581 811 2004 
Q 403 2428 403 3163 
Q 403 3881 828 4315 
Q 1253 4750 1959 4750 
Q 2769 4750 3195 4129 
Q 3622 3509 3622 2328 
Q 3622 1225 3098 567 
Q 2575 -91 1691 -91 
Q 1453 -91 1209 -44 
Q 966 3 703 97 
z
M 1959 2075 
Q 2384 2075 2632 2365 
Q 2881 2656 2881 3163 
Q 2881 3666 2632 3958 
Q 2384 4250 1959 4250 
Q 1534 4250 1286 3958 
Q 1038 3666 1038 3163 
Q 1038 2656 1286 2365 
Q 1534 2075 1959 2075 
z
" transform="scale(0.015625)"/>
     </defs>
     <use xlink:href="#DejaVuSans-53"/>
     <use xlink:href="#DejaVuSans-74" x="63.476562"/>
     <use xlink:href="#DejaVuSans-61" x="102.685547"/>
     <use xlink:href="#DejaVuSans-63" x="163.964844"/>
     <use xlink:href="#DejaVuSans-65" x="218.945312"/>
     <use xlink:href="#DejaVuSans-79" x="280.46875"/>
     <use xlink:href="#DejaVuSans-28" x="339.648438"/>
     <use xlink:href="#DejaVuSans-72" x="378.662109"/>
     <use xlink:href="#DejaVuSans-62" x="419.775391"/>
     <use xlink:href="#DejaVuSans-29" x="483.251953"/>
     <use xlink:href="#DejaVuSans-20" x="522.265625"/>
     <use xlink:href="#DejaVuSans-32" x="554.052734"/>
     <use xlink:href="#DejaVuSans-30" x="617.675781"/>
     <use xlink:href="#DejaVuSans-30" x="681.298828"/>
     <use xlink:href="#DejaVuSans-39" x="744.921875"/>
    </g>
   </g>
   <g id="patch_2">
    <path d="M 406.3 273 
L 424.5 273 
L 424.5 37.56 
L 406.3 37.56 
L 406.3 273 
z
" clip-path="url(#pfb082ea362)" style="fill: none; opacity: 0.5; stroke: #000000; stroke-linejoin: miter"/>
   </g>
   <g id="patch_3">
    <path d="M 561 214.14 
Q 492.75 243.57 424.5 273 
" style="fill: none; opacity: 0.5; stroke: #000000; stroke-linecap: round"/>
   </g>
   <g id="patch_4">
    <path d="M 561 72.876 
Q 492.75 55.218 424.5 37.56 
" style="fill: none; opacity: 0.5; stroke: #000000; stroke-linecap: round"/>
   </g>
   <g id="axes_2">
    <g id="patch_5">
     <path d="M 500.94 214.14 
L 561 214.14 
L 561 72.876 
L 500.94 72.876 
z
" style="fill: #ffffff"/>
    </g>
    <g id="matplotlib.axis_1">
     <g id="xtick_1"/>
     <g id="xtick_2"/>
     <g id="xtick_3"/>
    </g>
    <g id="matplotlib.axis_2">
     <g id="ytick_1"/>
     <g id="ytick_2"/>
     <g id="ytick_3"/>
     <g id="ytick_4"/>
     <g id="ytick_5"/>
     <g id="ytick_6"/>
    </g>
    <g id="line2d_2">
     <path d="M 500.902463 184.906907 
L 506.0451 183.686127 
L 509.235788 182.713991 
L 511.488038 181.807104 
L 513.139688 180.911937 
L 514.378425 179.996474 
L 515.316863 179.040205 
L 516.067613 177.96386 
L 516.668213 176.707834 
L 517.1562 175.133478 
L 517.531575 173.115092 
L 517.794338 170.576355 
L 518.019563 165.890509 
L 518.169713 157.206251 
L 518.582625 110.689091 
L 518.6577 111.425274 
L 518.80785 119.130817 
L 519.671213 177.660665 
L 520.00905 185.165535 
L 520.346888 188.61013 
L 520.722263 190.347517 
L 521.097638 191.098346 
L 521.473013 191.399385 
L 521.961 191.489804 
L 522.749288 191.364195 
L 524.81385 190.722272 
L 529.693725 189.249202 
L 534.686213 187.990959 
L 541.442963 186.535809 
L 553.304813 184.004861 
L 556.908413 182.988646 
L 559.385888 182.071708 
L 561 181.285308 
L 561 181.285308 
" clip-path="url(#p101177ee0a)" style="fill: none; stroke: #1f77b4; stroke-width: 1.5; stroke-linecap: square"/>
    </g>
    <g id="patch_6">
     <path d="M 500.94 214.14 
L 500.94 72.876 
" style="fill: none; stroke: #000000; stroke-width: 0.8; stroke-linejoin: miter; stroke-linecap: square"/>
    </g>
    <g id="patch_7">
     <path d="M 500.94 214.14 
L 561 214.14 
" style="fill: none; stroke: #000000; stroke-width: 0.8; stroke-linejoin: miter; stroke-linecap: square"/>
    </g>
   </g>
  </g>
 </g>
 <defs>
  <clipPath id="pfb082ea362">
   <rect x="15" y="37.56" width="546" height="235.44"/>
  </clipPath>
  <clipPath id="p101177ee0a">
   <rect x="500.94" y="72.876" width="60.06" height="141.264"/>
  </clipPath>
 </defs>
</svg>
