<?xml version="1.0" encoding="utf-8" standalone="no"?>
<!DOCTYPE svg PUBLIC "-//W3C//DTD SVG 1.1//EN"
  "http://www.w3.org/Graphics/SVG/1.1/DTD/svg11.dtd">
<svg xmlns:xlink="http://www.w3.org/1999/xlink" width="576pt" height="288pt" viewBox="0 0 576 288" xmlns="http://www.w3.org/2000/svg" version="1.1">
 <metadata>
  <rdf:RDF xmlns:dc="http://purl.org/dc/elements/1.1/" xmlns:cc="http://creativecommons.org/ns#" xmlns:rdf="http://www.w3.org/1999/02/22-rdf-syntax-ns#">
   <cc:Work>
    <dc:type rdf:resource="http://purl.org/dc/dcmitype/StillImage"/>
    <dc:date>2024-09-24T18:25:52.774066</dc:date>
    <dc:format>image/svg+xml</dc:format>
    <dc:creator>
     <cc:Agent>
      <dc:title>Matplotlib v3.7.4, https://matplotlib.org/</dc:title>
     </cc:Agent>
    </dc:creator>
   </cc:Work>
  </rdf:RDF>
 </metadata>
 <defs>
  <style type="text/css">*{stroke-linejoin: round; stroke-linecap: butt}</style>
 </defs>
 <g id="figure_1">
  <g id="patch_1">
   <path d="M 0 288 
L 576 288 
L 576 0 
L 0 0 
z
" style="fill: #ffffff"/>
  </g>
  <g id="axes_1">
   <g id="line2d_1">
    <path d="M 15 233.76 
L 28.832 233.797431 
L 106 233.798219 
L 106.15925 230.541116 
L 106.637 225.980288 
L 107.38775 220.964588 
L 108.286375 216.425874 
L 109.264625 212.602375 
L 110.34525 209.26688 
L 111.744375 205.709129 
L 113.43925 201.352186 
L 114.07625 199.050038 
L 114.519875 196.587605 
L 114.827 193.600034 
L 115.043125 189.176762 
L 115.179625 181.413119 
L 115.25925 162.064484 
L 115.361625 47.754999 
L 115.48675 69.431703 
L 116.044125 216.771243 
L 116.226125 244.321026 
L 116.44225 249.371603 
L 116.556 249.776687 
L 116.590125 249.741717 
L 116.703875 249.264668 
L 116.976875 246.857534 
L 118.67175 230.190661 
L 119.615875 223.613311 
L 120.571375 218.455959 
L 121.561 214.299063 
L 122.6075 210.842692 
L 123.81325 207.634144 
L 126.839 199.98933 
L 127.350875 197.759782 
L 127.714875 195.178817 
L 127.9765 191.650602 
L 128.147125 186.248218 
L 128.2495 176.208609 
L 128.306375 151.641165 
L 128.386 47.877691 
L 128.488375 62.845231 
L 129.034375 204.773912 
L 129.22775 247.245739 
L 129.4325 252.846165 
L 129.5235 253.183692 
L 129.569 253.121364 
L 129.694125 252.438315 
L 130.024 248.99191 
L 131.32075 234.894494 
L 132.264875 227.266278 
L 133.220375 221.301277 
L 134.18725 216.619364 
L 135.18825 212.833359 
L 136.28025 209.564305 
L 137.611125 206.30794 
L 139.817875 201.015278 
L 140.4435 198.810343 
L 140.87575 196.457573 
L 141.182875 193.520867 
L 141.399 189.148107 
L 141.5355 181.461729 
L 141.615125 162.463804 
L 141.7175 47.887436 
L 141.854 72.460218 
L 142.3545 207.667026 
L 142.547875 250.055487 
L 142.74125 255.046129 
L 142.8095 255.249978 
L 142.866375 255.137087 
L 143.01425 254.116071 
L 143.457875 248.891131 
L 144.51575 236.984796 
L 145.4485 228.977145 
L 146.404 222.633231 
L 147.370875 217.661665 
L 148.3605 213.698574 
L 149.418375 210.361826 
L 150.646875 207.234589 
L 153.593 200.085541 
L 154.127625 197.901692 
L 154.503 195.428113 
L 154.776 192.059315 
L 154.958 186.852798 
L 155.07175 176.430504 
L 155.14 139.501984 
L 155.219625 47.995442 
L 155.287875 58.088169 
L 155.811125 187.455015 
L 156.038625 251.442906 
L 156.232 256.426862 
L 156.288875 256.556534 
L 156.334375 256.463768 
L 156.470875 255.533312 
L 156.880375 250.632438 
L 157.961 238.073035 
L 158.89375 229.826958 
L 159.837875 223.363883 
L 160.80475 218.232862 
L 161.794375 214.150293 
L 162.840875 210.760621 
L 164.023875 207.683702 
L 167.35675 199.515797 
L 167.845875 197.300606 
L 168.1985 194.617538 
L 168.44875 190.817929 
L 168.608 184.745938 
L 168.710375 169.873154 
L 168.76725 109.976865 
L 168.824125 47.911568 
L 168.892375 56.576194 
L 169.415625 185.03525 
L 169.6545 252.932682 
L 169.8365 257.303832 
L 169.882 257.401603 
L 169.938875 257.270724 
L 170.098125 256.027217 
L 170.644125 249.135549 
L 171.622375 237.92628 
L 172.555125 229.718747 
L 173.510625 223.215219 
L 174.4775 218.120281 
L 175.467125 214.065589 
L 176.513625 210.698332 
L 177.696625 207.641106 
L 181.040875 199.495049 
L 181.53 197.288895 
L 181.882625 194.616372 
L 182.132875 190.834658 
L 182.292125 184.810363 
L 182.3945 170.216107 
L 182.451375 112.510554 
L 182.50825 47.949989 
L 182.5765 56.417642 
L 183.088375 180.046042 
L 183.35 254.310916 
L 183.532 257.922916 
L 183.566125 257.946023 
L 183.60025 257.868619 
L 183.73675 256.907775 
L 184.157625 251.687841 
L 185.2155 239.081346 
L 186.14825 230.615183 
L 187.092375 223.980488 
L 188.047875 218.769754 
L 189.026125 214.616816 
L 190.06125 211.170863 
L 191.210125 208.114268 
L 192.848125 204.453631 
L 194.213125 201.234673 
L 194.872875 199.104169 
L 195.327875 196.889486 
L 195.65775 194.149263 
L 195.88525 190.361941 
L 196.0445 183.399155 
L 196.1355 167.248613 
L 196.192375 92.156101 
L 196.24925 48.025125 
L 196.3175 58.102451 
L 196.84075 190.614379 
L 197.056875 253.367468 
L 197.238875 258.210414 
L 197.284375 258.307808 
L 197.34125 258.162645 
L 197.5005 256.85833 
L 198.080625 249.367176 
L 199.0475 238.214217 
L 199.98025 229.946929 
L 200.93575 223.395081 
L 201.902625 218.262619 
L 202.89225 214.18019 
L 203.93875 210.794446 
L 205.110375 207.756099 
L 207.01 203.56213 
L 208.102 200.86991 
L 208.727625 198.726717 
L 209.159875 196.439255 
L 209.467 193.597494 
L 209.683125 189.43499 
L 209.819625 182.459816 
L 209.89925 167.406974 
L 209.956125 93.148278 
L 210.013 48.019598 
L 210.08125 58.046365 
L 210.6045 190.927343 
L 210.820625 253.716676 
L 211.002625 258.465893 
L 211.048125 258.544334 
L 211.093625 258.430708 
L 211.2415 257.278031 
L 211.742 250.845796 
L 212.731625 239.122466 
L 213.664375 230.650678 
L 214.6085 224.01027 
L 215.564 218.794732 
L 216.54225 214.6385 
L 217.577375 211.191296 
L 218.72625 208.136601 
L 220.3415 204.536891 
L 221.752 201.238878 
L 222.423125 199.082256 
L 222.878125 196.869748 
L 223.208 194.127499 
L 223.4355 190.327349 
L 223.583375 184.169035 
L 223.674375 170.870845 
L 223.73125 117.368518 
L 223.788125 48.051007 
L 223.856375 56.080219 
L 224.36825 180.40387 
L 224.629875 255.337787 
L 224.811875 258.701362 
L 224.846 258.684585 
L 224.86875 258.618239 
L 225.00525 257.615388 
L 225.4375 252.132226 
L 226.472625 239.642504 
L 227.405375 231.053556 
L 228.3495 224.323216 
L 229.305 219.038366 
L 230.28325 214.829261 
L 231.307 211.376727 
L 232.4445 208.316305 
L 233.9915 204.846749 
L 235.5385 201.266208 
L 236.209625 199.125772 
L 236.676 196.872709 
L 237.005875 194.136843 
L 237.233375 190.351484 
L 237.392625 183.383112 
L 237.483625 167.182348 
L 237.5405 91.770964 
L 237.597375 48.047863 
L 237.665625 58.183078 
L 238.188875 191.784384 
L 238.405 254.168455 
L 238.587 258.752431 
L 238.621125 258.811868 
L 238.666625 258.717641 
L 238.803125 257.703461 
L 239.24675 252.048186 
L 240.281875 239.575224 
L 241.214625 231.002204 
L 242.15875 224.283794 
L 243.11425 219.008056 
L 244.0925 214.805984 
L 245.11625 211.358901 
L 246.25375 208.302813 
L 247.80075 204.837113 
L 249.34775 201.258564 
L 250.018875 199.117851 
L 250.48525 196.862775 
L 250.815125 194.121164 
L 251.042625 190.319334 
L 251.1905 184.151479 
L 251.2815 170.799692 
L 251.338375 116.850627 
L 251.39525 48.044428 
L 251.4635 56.139872 
L 251.975375 180.802846 
L 252.237 255.611201 
L 252.419 258.881204 
L 252.4645 258.82096 
L 252.589625 257.969396 
L 252.976375 253.149766 
L 254.068375 239.828966 
L 255.001125 231.198696 
L 255.94525 224.436382 
L 256.90075 219.126801 
L 257.879 214.898881 
L 258.90275 211.432653 
L 260.04025 208.363279 
L 261.5645 204.940634 
L 263.157 201.269193 
L 263.828125 199.134987 
L 264.2945 196.892118 
L 264.624375 194.176797 
L 264.851875 190.442918 
L 265.011125 183.675711 
L 265.102125 168.633533 
L 265.159 101.23761 
L 265.215875 47.953731 
L 265.284125 57.432075 
L 265.796 183.991411 
L 266.034875 254.814682 
L 266.216875 258.902573 
L 266.251 258.926199 
L 266.285125 258.842539 
L 266.421625 257.831834 
L 266.86525 252.163682 
L 267.900375 239.661607 
L 268.833125 231.069639 
L 269.77725 224.336505 
L 270.73275 219.049358 
L 271.711 214.838634 
L 272.73475 211.385329 
L 273.87225 208.325347 
L 275.407875 204.883879 
L 276.977625 201.261143 
L 277.64875 199.12485 
L 278.115125 196.877115 
L 278.445 194.15044 
L 278.6725 190.386356 
L 278.83175 183.499102 
L 278.92275 167.771932 
L 278.979625 95.480841 
L 279.0365 48.003704 
L 279.10475 57.897797 
L 279.616625 185.253613 
L 279.8555 254.993117 
L 280.0375 258.937726 
L 280.06025 258.959756 
L 280.10575 258.859493 
L 280.24225 257.829456 
L 280.69725 251.993517 
L 281.721 239.648726 
L 282.65375 231.059888 
L 283.597875 224.329058 
L 284.553375 219.043662 
L 285.531625 214.834297 
L 286.555375 211.382068 
L 287.692875 208.32299 
L 289.2285 204.882466 
L 290.79825 201.260724 
L 291.469375 199.125139 
L 291.93575 196.878407 
L 292.265625 194.153585 
L 292.493125 190.393953 
L 292.652375 183.523837 
L 292.743375 167.895384 
L 292.80025 96.282976 
L 292.857125 47.995471 
L 292.925375 57.835305 
L 293.43725 185.12469 
L 293.676125 255.007049 
L 293.858125 258.95898 
L 293.880875 258.980861 
L 293.926375 258.880162 
L 294.062875 257.848548 
L 294.517875 252.009088 
L 295.541625 239.660306 
L 296.474375 231.068955 
L 297.4185 224.336163 
L 298.374 219.049243 
L 299.35225 214.838726 
L 300.376 211.385679 
L 301.5135 208.326112 
L 303.049125 204.885662 
L 304.618875 201.265682 
L 305.29 199.132794 
L 305.756375 196.891226 
L 306.08625 194.177608 
L 306.31375 190.446912 
L 306.473 183.69042 
L 306.564 168.705846 
L 306.620875 101.737544 
L 306.67775 47.95297 
L 306.746 57.39712 
L 307.257875 184.011171 
L 307.49675 254.906099 
L 307.67875 258.971607 
L 307.7015 258.998144 
L 307.747 258.904482 
L 307.8835 257.883568 
L 308.327125 252.201623 
L 309.350875 239.808604 
L 310.283625 231.183611 
L 311.22775 224.4251 
L 312.18325 219.118375 
L 313.1615 214.89271 
L 314.18525 211.428386 
L 315.32275 208.360864 
L 316.847 204.940886 
L 318.4395 201.274523 
L 319.110625 199.145771 
L 319.577 196.912355 
L 319.906875 194.216577 
L 320.14575 190.248587 
L 320.293625 183.952487 
L 320.384625 169.923019 
L 320.4415 110.407252 
L 320.498375 47.959231 
L 320.566625 56.686899 
L 321.0785 182.263618 
L 321.32875 255.360464 
L 321.51075 258.998706 
L 321.5335 259.005772 
L 321.567625 258.927722 
L 321.704125 257.926737 
L 322.136375 252.408561 
L 323.1715 239.848968 
L 324.10425 231.214852 
L 325.048375 224.449354 
L 326.003875 219.137243 
L 326.982125 214.907462 
L 328.005875 211.440083 
L 329.143375 208.370428 
L 330.65625 204.973839 
L 332.2715 201.255024 
L 332.942625 199.118274 
L 333.409 196.868569 
L 333.738875 194.136608 
L 333.966375 190.357705 
L 334.125625 183.409877 
L 334.216625 167.324874 
L 334.2735 92.656649 
L 334.330375 48.042017 
L 334.398625 58.131659 
L 334.9105 185.945637 
L 335.149375 255.13546 
L 335.331375 258.99231 
L 335.354125 259.009276 
L 335.399625 258.90067 
L 335.5475 257.736789 
L 336.059375 251.083972 
L 337.049 239.300949 
L 337.98175 230.791369 
L 338.925875 224.121044 
L 339.881375 218.8822 
L 340.859625 214.708468 
L 341.883375 211.282899 
L 343.03225 208.215446 
L 344.602 204.715435 
L 346.1035 201.236497 
L 346.774625 199.092 
L 347.241 196.826473 
L 347.570875 194.059046 
L 347.798375 190.185996 
L 347.94625 183.770825 
L 348.03725 169.087058 
L 348.094125 104.397164 
L 348.151 47.943884 
L 348.21925 57.180131 
L 348.731125 183.49115 
L 348.97 254.876472 
L 349.152 258.99141 
L 349.186125 259.013675 
L 349.22025 258.928301 
L 349.35675 257.910249 
L 349.800375 252.226988 
L 350.824125 239.827588 
L 351.756875 231.198377 
L 352.701 224.436617 
L 353.6565 219.127379 
L 354.63475 214.899804 
L 355.6585 211.434093 
L 356.796 208.365672 
L 358.32025 204.945525 
L 359.924125 201.250478 
L 360.59525 199.112087 
L 361.061625 196.85891 
L 361.3915 194.119087 
L 361.619 190.319364 
L 361.766875 184.155595 
L 361.857875 170.821198 
L 361.91475 117.014835 
L 361.971625 48.051457 
L 362.039875 56.138284 
L 362.55175 181.006828 
L 362.802 255.230511 
L 362.984 259.005099 
L 363.00675 259.01813 
L 363.040875 258.947263 
L 363.166 258.073775 
L 363.55275 253.225283 
L 364.64475 239.882442 
L 365.5775 231.24081 
L 366.521625 224.469524 
L 367.477125 219.152945 
L 368.455375 214.919753 
L 369.479125 211.449852 
L 370.616625 208.37846 
L 372.1295 204.981161 
L 373.74475 201.264872 
L 374.415875 199.132678 
L 374.88225 196.892008 
L 375.212125 194.179943 
L 375.439625 190.45282 
L 375.598875 183.709646 
L 375.689875 168.798179 
L 375.74675 102.376795 
L 375.803625 47.95057 
L 375.871875 57.346709 
L 376.38375 183.923331 
L 376.622625 254.92976 
L 376.804625 258.996862 
L 376.827375 259.022889 
L 376.872875 258.928186 
L 377.009375 257.904526 
L 377.453 252.217973 
L 378.47675 239.820655 
L 379.4095 231.193057 
L 380.353625 224.43251 
L 381.309125 219.124202 
L 382.287375 214.897342 
L 383.311125 211.432173 
L 384.448625 208.364158 
L 385.972875 204.944292 
L 387.57675 201.249123 
L 388.247875 199.110287 
L 388.71425 196.856141 
L 389.044125 194.114099 
L 389.271625 190.308462 
L 389.4195 184.124673 
L 389.5105 170.687038 
L 389.567375 116.024913 
L 389.62425 48.031718 
L 389.6925 56.222139 
L 390.204375 181.202397 
L 390.454625 255.258797 
L 390.636625 259.009684 
L 390.659375 259.021561 
L 390.6935 258.949268 
L 390.818625 258.072563 
L 391.21675 253.066754 
L 392.297375 239.879346 
L 393.230125 231.238434 
L 394.17425 224.467694 
L 395.12975 219.151534 
L 396.108 214.918663 
L 397.13175 211.44901 
L 398.26925 208.377807 
L 399.782125 204.980653 
L 401.397375 201.264371 
L 402.0685 199.132053 
L 402.534875 196.891089 
L 402.86475 194.178338 
L 403.09225 190.449392 
L 403.2515 183.699047 
L 403.3425 168.74778 
L 403.399375 102.028042 
L 403.45625 47.952301 
L 403.5245 57.375701 
L 404.036375 184.000624 
L 404.27525 254.940847 
L 404.45725 258.999144 
L 404.48 259.02474 
L 404.5255 258.92935 
L 404.662 257.904502 
L 405.105625 252.217095 
L 406.129375 239.819951 
L 407.062125 231.192527 
L 408.00625 224.432106 
L 408.96175 219.123895 
L 409.94 214.897109 
L 410.96375 211.432001 
L 412.10125 208.364037 
L 413.6255 204.944229 
L 415.229375 201.249137 
L 415.9005 199.110365 
L 416.366875 196.856322 
L 416.69675 194.114485 
L 416.92425 190.30936 
L 417.072125 184.12727 
L 417.163125 170.698385 
L 417.22 116.108702 
L 417.276875 48.03334 
L 417.345125 56.215211 
L 417.857 181.188715 
L 418.10725 255.258953 
L 418.28925 259.011 
L 418.312 259.022899 
L 418.346125 258.950625 
L 418.47125 258.073914 
L 418.869375 253.067955 
L 419.95 239.880231 
L 420.88275 231.239125 
L 421.826875 224.468234 
L 422.782375 219.151958 
L 423.760625 214.918999 
L 424.784375 211.449282 
L 425.921875 208.37804 
L 427.43475 204.980886 
L 429.05 201.264728 
L 429.721125 199.132601 
L 430.1875 196.892003 
L 430.517375 194.180045 
L 430.744875 190.453143 
L 430.904125 183.710753 
L 430.995125 168.803529 
L 431.052 102.414024 
L 431.108875 47.950496 
L 431.177125 57.343932 
L 431.689 183.921335 
L 431.927875 254.93364 
L 432.109875 258.999988 
L 432.132625 259.02591 
L 432.178125 258.931012 
L 432.314625 257.906907 
L 432.75825 252.219731 
L 433.782 239.821942 
L 434.71475 231.194068 
L 435.658875 224.433304 
L 436.614375 219.124828 
L 437.592625 214.89784 
L 438.616375 211.432583 
L 439.753875 208.364518 
L 441.278125 204.944671 
L 442.882 201.249738 
L 443.553125 199.111249 
L 444.0195 196.857768 
L 444.349375 194.117172 
L 444.576875 190.315314 
L 444.72475 184.144233 
L 444.81575 170.772108 
L 444.872625 116.652793 
L 444.9295 48.044065 
L 444.99775 56.169378 
L 445.509625 181.085206 
L 445.759875 255.247002 
L 445.941875 259.010888 
L 445.964625 259.023315 
L 445.99875 258.951681 
L 446.123875 258.076344 
L 446.510625 253.226049 
L 447.602625 239.882814 
L 448.535375 231.241125 
L 449.4795 224.469786 
L 450.435 219.153164 
L 451.41325 214.919942 
L 452.437 211.450029 
L 453.5745 208.37865 
L 455.087375 204.981434 
L 456.702625 201.265448 
L 457.37375 199.133643 
L 457.840125 196.893688 
L 458.17 194.183146 
L 458.408875 190.172602 
L 458.55675 183.731794 
L 458.64775 168.903346 
L 458.704625 103.108479 
L 458.7615 47.947686 
L 458.82975 57.286771 
L 459.341625 183.775949 
L 459.5805 254.918522 
L 459.7625 259.000219 
L 459.78525 259.026793 
L 459.83075 258.932894 
L 459.96725 257.910358 
L 460.410875 252.223868 
L 461.434625 239.82508 
L 462.367375 231.19649 
L 463.3115 224.435183 
L 464.267 219.126289 
L 465.24525 214.898982 
L 466.269 211.433487 
L 467.4065 208.365254 
L 468.93075 204.945327 
L 470 202.589771 
L 470.15925 205.534911 
L 470.671125 209.886591 
L 471.47875 214.858031 
L 472.400125 219.193001 
L 473.34425 222.603455 
L 474.29975 225.249091 
L 475.266625 227.294115 
L 476.25625 228.884591 
L 477.291375 230.13615 
L 478.39475 231.123523 
L 479.6005 231.90288 
L 480.9655 232.516937 
L 482.592125 232.9969 
L 484.62825 233.355581 
L 487.415125 233.605434 
L 491.81725 233.752301 
L 501.793125 233.807041 
L 561 233.80944 
L 561 233.80944 
" clip-path="url(#p6114c7e4f4)" style="fill: none; stroke: #1f77b4; stroke-width: 1.5; stroke-linecap: square"/>
   </g>
   <g id="text_1">
    <!-- 0.4 nA -->
    <g transform="translate(37.75 53.256) scale(0.2 -0.2)">
     <defs>
      <path id="DejaVuSans-30" d="M 2034 4250 
Q 1547 4250 1301 3770 
Q 1056 3291 1056 2328 
Q 1056 1369 1301 889 
Q 1547 409 2034 409 
Q 2525 409 2770 889 
Q 3016 1369 3016 2328 
Q 3016 3291 2770 3770 
Q 2525 4250 2034 4250 
z
M 2034 4750 
Q 2819 4750 3233 4129 
Q 3647 3509 3647 2328 
Q 3647 1150 3233 529 
Q 2819 -91 2034 -91 
Q 1250 -91 836 529 
Q 422 1150 422 2328 
Q 422 3509 836 4129 
Q 1250 4750 2034 4750 
z
" transform="scale(0.015625)"/>
      <path id="DejaVuSans-2e" d="M 684 794 
L 1344 794 
L 1344 0 
L 684 0 
L 684 794 
z
" transform="scale(0.015625)"/>
      <path id="DejaVuSans-34" d="M 2419 4116 
L 825 1625 
L 2419 1625 
L 2419 4116 
z
M 2253 4666 
L 3047 4666 
L 3047 1625 
L 3713 1625 
L 3713 1100 
L 3047 1100 
L 3047 0 
L 2419 0 
L 2419 1100 
L 313 1100 
L 313 1709 
L 2253 4666 
z
" transform="scale(0.015625)"/>
      <path id="DejaVuSans-20" transform="scale(0.015625)"/>
      <path id="DejaVuSans-6e" d="M 3513 2113 
L 3513 0 
L 2938 0 
L 2938 2094 
Q 2938 2591 2744 2837 
Q 2550 3084 2163 3084 
Q 1697 3084 1428 2787 
Q 1159 2491 1159 1978 
L 1159 0 
L 581 0 
L 581 3500 
L 1159 3500 
L 1159 2956 
Q 1366 3272 1645 3428 
Q 1925 3584 2291 3584 
Q 2894 3584 3203 3211 
Q 3513 2838 3513 2113 
z
" transform="scale(0.015625)"/>
      <path id="DejaVuSans-41" d="M 2188 4044 
L 1331 1722 
L 3047 1722 
L 2188 4044 
z
M 1831 4666 
L 2547 4666 
L 4325 0 
L 3669 0 
L 3244 1197 
L 1141 1197 
L 716 0 
L 50 0 
L 1831 4666 
z
" transform="scale(0.015625)"/>
     </defs>
     <use xlink:href="#DejaVuSans-30"/>
     <use xlink:href="#DejaVuSans-2e" x="63.623047"/>
     <use xlink:href="#DejaVuSans-34" x="95.410156"/>
     <use xlink:href="#DejaVuSans-20" x="159.033203"/>
     <use xlink:href="#DejaVuSans-6e" x="190.820312"/>
     <use xlink:href="#DejaVuSans-41" x="254.199219"/>
    </g>
   </g>
   <g id="text_2">
    <!-- Bezaire 2016 -->
    <g transform="translate(215.580469 31.56) scale(0.22 -0.22)">
     <defs>
      <path id="DejaVuSans-42" d="M 1259 2228 
L 1259 519 
L 2272 519 
Q 2781 519 3026 730 
Q 3272 941 3272 1375 
Q 3272 1813 3026 2020 
Q 2781 2228 2272 2228 
L 1259 2228 
z
M 1259 4147 
L 1259 2741 
L 2194 2741 
Q 2656 2741 2882 2914 
Q 3109 3088 3109 3444 
Q 3109 3797 2882 3972 
Q 2656 4147 2194 4147 
L 1259 4147 
z
M 628 4666 
L 2241 4666 
Q 2963 4666 3353 4366 
Q 3744 4066 3744 3513 
Q 3744 3084 3544 2831 
Q 3344 2578 2956 2516 
Q 3422 2416 3680 2098 
Q 3938 1781 3938 1306 
Q 3938 681 3513 340 
Q 3088 0 2303 0 
L 628 0 
L 628 4666 
z
" transform="scale(0.015625)"/>
      <path id="DejaVuSans-65" d="M 3597 1894 
L 3597 1613 
L 953 1613 
Q 991 1019 1311 708 
Q 1631 397 2203 397 
Q 2534 397 2845 478 
Q 3156 559 3463 722 
L 3463 178 
Q 3153 47 2828 -22 
Q 2503 -91 2169 -91 
Q 1331 -91 842 396 
Q 353 884 353 1716 
Q 353 2575 817 3079 
Q 1281 3584 2069 3584 
Q 2775 3584 3186 3129 
Q 3597 2675 3597 1894 
z
M 3022 2063 
Q 3016 2534 2758 2815 
Q 2500 3097 2075 3097 
Q 1594 3097 1305 2825 
Q 1016 2553 972 2059 
L 3022 2063 
z
" transform="scale(0.015625)"/>
      <path id="DejaVuSans-7a" d="M 353 3500 
L 3084 3500 
L 3084 2975 
L 922 459 
L 3084 459 
L 3084 0 
L 275 0 
L 275 525 
L 2438 3041 
L 353 3041 
L 353 3500 
z
" transform="scale(0.015625)"/>
      <path id="DejaVuSans-61" d="M 2194 1759 
Q 1497 1759 1228 1600 
Q 959 1441 959 1056 
Q 959 750 1161 570 
Q 1363 391 1709 391 
Q 2188 391 2477 730 
Q 2766 1069 2766 1631 
L 2766 1759 
L 2194 1759 
z
M 3341 1997 
L 3341 0 
L 2766 0 
L 2766 531 
Q 2569 213 2275 61 
Q 1981 -91 1556 -91 
Q 1019 -91 701 211 
Q 384 513 384 1019 
Q 384 1609 779 1909 
Q 1175 2209 1959 2209 
L 2766 2209 
L 2766 2266 
Q 2766 2663 2505 2880 
Q 2244 3097 1772 3097 
Q 1472 3097 1187 3025 
Q 903 2953 641 2809 
L 641 3341 
Q 956 3463 1253 3523 
Q 1550 3584 1831 3584 
Q 2591 3584 2966 3190 
Q 3341 2797 3341 1997 
z
" transform="scale(0.015625)"/>
      <path id="DejaVuSans-69" d="M 603 3500 
L 1178 3500 
L 1178 0 
L 603 0 
L 603 3500 
z
M 603 4863 
L 1178 4863 
L 1178 4134 
L 603 4134 
L 603 4863 
z
" transform="scale(0.015625)"/>
      <path id="DejaVuSans-72" d="M 2631 2963 
Q 2534 3019 2420 3045 
Q 2306 3072 2169 3072 
Q 1681 3072 1420 2755 
Q 1159 2438 1159 1844 
L 1159 0 
L 581 0 
L 581 3500 
L 1159 3500 
L 1159 2956 
Q 1341 3275 1631 3429 
Q 1922 3584 2338 3584 
Q 2397 3584 2469 3576 
Q 2541 3569 2628 3553 
L 2631 2963 
z
" transform="scale(0.015625)"/>
      <path id="DejaVuSans-32" d="M 1228 531 
L 3431 531 
L 3431 0 
L 469 0 
L 469 531 
Q 828 903 1448 1529 
Q 2069 2156 2228 2338 
Q 2531 2678 2651 2914 
Q 2772 3150 2772 3378 
Q 2772 3750 2511 3984 
Q 2250 4219 1831 4219 
Q 1534 4219 1204 4116 
Q 875 4013 500 3803 
L 500 4441 
Q 881 4594 1212 4672 
Q 1544 4750 1819 4750 
Q 2544 4750 2975 4387 
Q 3406 4025 3406 3419 
Q 3406 3131 3298 2873 
Q 3191 2616 2906 2266 
Q 2828 2175 2409 1742 
Q 1991 1309 1228 531 
z
" transform="scale(0.015625)"/>
      <path id="DejaVuSans-31" d="M 794 531 
L 1825 531 
L 1825 4091 
L 703 3866 
L 703 4441 
L 1819 4666 
L 2450 4666 
L 2450 531 
L 3481 531 
L 3481 0 
L 794 0 
L 794 531 
z
" transform="scale(0.015625)"/>
      <path id="DejaVuSans-36" d="M 2113 2584 
Q 1688 2584 1439 2293 
Q 1191 2003 1191 1497 
Q 1191 994 1439 701 
Q 1688 409 2113 409 
Q 2538 409 2786 701 
Q 3034 994 3034 1497 
Q 3034 2003 2786 2293 
Q 2538 2584 2113 2584 
z
M 3366 4563 
L 3366 3988 
Q 3128 4100 2886 4159 
Q 2644 4219 2406 4219 
Q 1781 4219 1451 3797 
Q 1122 3375 1075 2522 
Q 1259 2794 1537 2939 
Q 1816 3084 2150 3084 
Q 2853 3084 3261 2657 
Q 3669 2231 3669 1497 
Q 3669 778 3244 343 
Q 2819 -91 2113 -91 
Q 1303 -91 875 529 
Q 447 1150 447 2328 
Q 447 3434 972 4092 
Q 1497 4750 2381 4750 
Q 2619 4750 2861 4703 
Q 3103 4656 3366 4563 
z
" transform="scale(0.015625)"/>
     </defs>
     <use xlink:href="#DejaVuSans-42"/>
     <use xlink:href="#DejaVuSans-65" x="68.603516"/>
     <use xlink:href="#DejaVuSans-7a" x="130.126953"/>
     <use xlink:href="#DejaVuSans-61" x="182.617188"/>
     <use xlink:href="#DejaVuSans-69" x="243.896484"/>
     <use xlink:href="#DejaVuSans-72" x="271.679688"/>
     <use xlink:href="#DejaVuSans-65" x="310.542969"/>
     <use xlink:href="#DejaVuSans-20" x="372.066406"/>
     <use xlink:href="#DejaVuSans-32" x="403.853516"/>
     <use xlink:href="#DejaVuSans-30" x="467.476562"/>
     <use xlink:href="#DejaVuSans-31" x="531.099609"/>
     <use xlink:href="#DejaVuSans-36" x="594.722656"/>
    </g>
   </g>
   <g id="patch_2">
    <path d="M 406.3 273 
L 424.5 273 
L 424.5 37.56 
L 406.3 37.56 
L 406.3 273 
z
" clip-path="url(#p6114c7e4f4)" style="fill: none; opacity: 0.5; stroke: #000000; stroke-linejoin: miter"/>
   </g>
   <g id="patch_3">
    <path d="M 561 214.14 
Q 492.75 243.57 424.5 273 
" style="fill: none; opacity: 0.5; stroke: #000000; stroke-linecap: round"/>
   </g>
   <g id="patch_4">
    <path d="M 561 72.876 
Q 492.75 55.218 424.5 37.56 
" style="fill: none; opacity: 0.5; stroke: #000000; stroke-linecap: round"/>
   </g>
   <g id="axes_2">
    <g id="patch_5">
     <path d="M 500.94 214.14 
L 561 214.14 
L 561 72.876 
L 500.94 72.876 
z
" style="fill: #ffffff"/>
    </g>
    <g id="matplotlib.axis_1">
     <g id="xtick_1"/>
     <g id="xtick_2"/>
     <g id="xtick_3"/>
    </g>
    <g id="matplotlib.axis_2">
     <g id="ytick_1"/>
     <g id="ytick_2"/>
     <g id="ytick_3"/>
     <g id="ytick_4"/>
     <g id="ytick_5"/>
     <g id="ytick_6"/>
    </g>
    <g id="line2d_2">
     <path d="M 500.902463 193.250727 
L 502.666725 190.257178 
L 504.506063 187.570141 
L 506.382938 185.21555 
L 508.334888 183.118691 
L 510.39945 181.229816 
L 512.576625 179.542037 
L 514.941488 177.995003 
L 517.569113 176.547399 
L 520.647188 175.112007 
L 525.039075 173.335761 
L 529.994025 171.288703 
L 531.983513 170.226088 
L 533.297325 169.28904 
L 534.2733 168.323421 
L 534.986513 167.307257 
L 535.549575 166.098906 
L 535.962488 164.693597 
L 536.300325 162.72233 
L 536.563088 159.697041 
L 536.750775 154.628885 
L 536.863388 146.735703 
L 536.976 120.005221 
L 537.163688 79.160004 
L 537.201225 79.21295 
L 537.351375 82.771359 
L 538.02705 109.79238 
L 539.003025 153.169279 
L 539.753775 201.529693 
L 540.054075 204.636974 
L 540.316838 205.558293 
L 540.542063 205.754201 
L 540.767288 205.651859 
L 541.105125 205.184348 
L 541.743263 203.829485 
L 545.497013 195.221018 
L 547.261275 191.95502 
L 549.063075 189.083475 
L 550.902413 186.561214 
L 552.816825 184.308576 
L 554.806313 182.308567 
L 556.908413 180.511866 
L 559.160663 178.88378 
L 561 177.739734 
L 561 177.739734 
" clip-path="url(#p2ac7a76172)" style="fill: none; stroke: #1f77b4; stroke-width: 1.5; stroke-linecap: square"/>
    </g>
    <g id="patch_6">
     <path d="M 500.94 214.14 
L 500.94 72.876 
" style="fill: none; stroke: #000000; stroke-width: 0.8; stroke-linejoin: miter; stroke-linecap: square"/>
    </g>
    <g id="patch_7">
     <path d="M 500.94 214.14 
L 561 214.14 
" style="fill: none; stroke: #000000; stroke-width: 0.8; stroke-linejoin: miter; stroke-linecap: square"/>
    </g>
   </g>
  </g>
 </g>
 <defs>
  <clipPath id="p6114c7e4f4">
   <rect x="15" y="37.56" width="546" height="235.44"/>
  </clipPath>
  <clipPath id="p2ac7a76172">
   <rect x="500.94" y="72.876" width="60.06" height="141.264"/>
  </clipPath>
 </defs>
</svg>
