<?xml version="1.0" encoding="utf-8" standalone="no"?>
<!DOCTYPE svg PUBLIC "-//W3C//DTD SVG 1.1//EN"
  "http://www.w3.org/Graphics/SVG/1.1/DTD/svg11.dtd">
<svg xmlns:xlink="http://www.w3.org/1999/xlink" width="576pt" height="288pt" viewBox="0 0 576 288" xmlns="http://www.w3.org/2000/svg" version="1.1">
 <metadata>
  <rdf:RDF xmlns:dc="http://purl.org/dc/elements/1.1/" xmlns:cc="http://creativecommons.org/ns#" xmlns:rdf="http://www.w3.org/1999/02/22-rdf-syntax-ns#">
   <cc:Work>
    <dc:type rdf:resource="http://purl.org/dc/dcmitype/StillImage"/>
    <dc:date>2024-09-24T19:27:07.082368</dc:date>
    <dc:format>image/svg+xml</dc:format>
    <dc:creator>
     <cc:Agent>
      <dc:title>Matplotlib v3.7.4, https://matplotlib.org/</dc:title>
     </cc:Agent>
    </dc:creator>
   </cc:Work>
  </rdf:RDF>
 </metadata>
 <defs>
  <style type="text/css">*{stroke-linejoin: round; stroke-linecap: butt}</style>
 </defs>
 <g id="figure_1">
  <g id="patch_1">
   <path d="M 0 288 
L 576 288 
L 576 0 
L 0 0 
z
" style="fill: #ffffff"/>
  </g>
  <g id="axes_1">
   <g id="line2d_1">
    <path d="M 15 238.4688 
L 16.1375 238.437123 
L 66.2785 238.72097 
L 106 238.738447 
L 106.3185 234.356945 
L 106.728 231.773621 
L 107.2285 230.018303 
L 107.911 228.461667 
L 108.821 226.955313 
L 110.0495 225.368662 
L 111.5965 223.746774 
L 113.462 222.116989 
L 115.737 220.43014 
L 118.558 218.627207 
L 122.38 216.469148 
L 127.9765 213.309901 
L 129.751 212.034884 
L 130.8885 210.962246 
L 131.7075 209.895158 
L 132.299 208.760667 
L 132.7085 207.524609 
L 132.9815 206.11036 
L 133.118 204.742708 
L 133.209 201.656229 
L 133.3455 190.683004 
L 133.4365 166.680299 
L 133.573 46.759684 
L 133.6185 46.96359 
L 133.755 50.595604 
L 133.937 62.944984 
L 134.2555 105.155743 
L 134.5285 158.113856 
L 134.756 228.05744 
L 134.8015 228.853591 
L 134.847 228.393723 
L 135.6205 212.203185 
L 135.848 211.692841 
L 136.212 211.538123 
L 137.395 211.163136 
L 138.123 210.569062 
L 138.9875 209.564574 
L 139.7155 208.387458 
L 140.2615 207.093449 
L 140.671 205.55066 
L 140.9895 203.435082 
L 141.217 200.432453 
L 141.399 194.460109 
L 141.49 185.782742 
L 141.581 143.616259 
L 141.7175 46.831387 
L 141.854 50.004777 
L 142.036 61.456444 
L 142.3545 102.314947 
L 142.673 166.49615 
L 142.9005 228.688451 
L 142.946 229.464991 
L 142.9915 229.231924 
L 143.31 222.258326 
L 143.6285 218.160686 
L 143.947 216.678376 
L 144.402 215.59976 
L 144.948 214.889105 
L 145.949 214.023181 
L 147.7235 212.792889 
L 150.6355 210.790649 
L 151.773 209.724557 
L 152.5465 208.713896 
L 153.138 207.582016 
L 153.593 206.21732 
L 153.957 204.331899 
L 154.23 201.543232 
L 154.412 197.36584 
L 154.5485 188.377468 
L 154.6395 160.604319 
L 154.776 46.770217 
L 154.8215 47.167356 
L 154.958 51.162346 
L 155.14 64.175271 
L 155.504 113.678873 
L 155.7315 160.388543 
L 155.959 227.47954 
L 156.05 228.845041 
L 156.232 224.850266 
L 156.596 217.848775 
L 156.869 216.097154 
L 157.233 215.20368 
L 157.7335 214.540605 
L 158.78 213.675129 
L 163.603 209.7743 
L 164.422 208.691186 
L 165.0135 207.537232 
L 165.4685 206.140557 
L 165.8325 204.191432 
L 166.1055 201.24808 
L 166.2875 196.654013 
L 166.424 185.752492 
L 166.515 143.283209 
L 166.6515 46.822088 
L 166.788 50.010735 
L 166.97 61.485857 
L 167.2885 102.423846 
L 167.607 166.738693 
L 167.8345 228.612507 
L 167.88 229.26059 
L 167.9255 228.92067 
L 168.699 216.57577 
L 169.063 215.588145 
L 169.5635 214.867412 
L 170.4735 214.080827 
L 173.1125 212.14598 
L 175.2055 210.558345 
L 176.252 209.486972 
L 176.98 208.435966 
L 177.526 207.265642 
L 177.9355 205.884322 
L 178.254 204.062825 
L 178.527 200.955535 
L 178.709 195.886397 
L 178.8455 182.422955 
L 178.9365 116.649155 
L 179.0275 46.845641 
L 179.073 47.031097 
L 179.2095 50.755812 
L 179.3915 63.25756 
L 179.7555 112.228346 
L 179.983 156.971552 
L 180.256 229.446373 
L 180.3015 229.323877 
L 180.529 223.907328 
L 180.893 217.520563 
L 181.166 216.070477 
L 181.5755 215.225286 
L 182.1215 214.628647 
L 184.0325 213.169332 
L 188.1275 210.015406 
L 188.992 208.96866 
L 189.629 207.848989 
L 190.084 206.63205 
L 190.448 205.057355 
L 190.721 202.971801 
L 190.9485 199.388993 
L 191.085 194.255644 
L 191.176 185.154523 
L 191.267 138.755829 
L 191.4035 46.852799 
L 191.54 50.147586 
L 191.722 61.812442 
L 192.0405 102.966105 
L 192.3135 151.745006 
L 192.632 229.348353 
L 192.7685 226.88761 
L 193.2235 217.908792 
L 193.4965 216.336219 
L 193.906 215.413075 
L 194.4065 214.808934 
L 195.6805 213.789068 
L 198.547 211.730552 
L 200.2305 210.389456 
L 201.2315 209.304237 
L 201.914 208.248163 
L 202.4145 207.099336 
L 202.824 205.604262 
L 203.1425 203.545357 
L 203.37 200.643773 
L 203.552 195.018741 
L 203.643 187.251112 
L 203.734 153.676991 
L 203.8705 46.767074 
L 204.007 49.661101 
L 204.189 60.662 
L 204.5075 101.11277 
L 204.826 163.209726 
L 205.0535 227.582851 
L 205.099 228.81583 
L 205.1445 228.779246 
L 205.3265 224.821997 
L 205.6905 218.046117 
L 205.9635 216.388378 
L 206.3275 215.525873 
L 206.828 214.880547 
L 207.9655 213.953337 
L 210.923 211.808885 
L 212.652 210.442205 
L 213.653 209.372907 
L 214.381 208.259359 
L 214.927 206.980902 
L 215.3365 205.400271 
L 215.655 203.151343 
L 215.8825 199.790773 
L 216.019 195.201761 
L 216.11 187.726654 
L 216.201 156.6948 
L 216.3375 46.762066 
L 216.383 47.244185 
L 216.5195 51.379702 
L 216.7015 64.641732 
L 217.0655 114.354665 
L 217.293 162.071238 
L 217.5205 227.261832 
L 217.6115 228.741614 
L 217.657 228.117827 
L 218.294 216.987709 
L 218.6125 215.883709 
L 219.0675 215.12776 
L 219.75 214.494269 
L 222.48 212.447397 
L 224.937 210.599161 
L 225.9835 209.527961 
L 226.7115 208.481274 
L 227.2575 207.321634 
L 227.667 205.962423 
L 227.9855 204.188568 
L 228.2585 201.219907 
L 228.4405 196.560852 
L 228.577 185.34781 
L 228.668 140.215262 
L 228.8045 46.840959 
L 228.941 50.102328 
L 229.123 61.706273 
L 229.4415 102.793426 
L 229.7145 151.404401 
L 230.033 229.315773 
L 230.124 228.004605 
L 230.6245 217.904519 
L 230.8975 216.33596 
L 231.307 215.42655 
L 231.8075 214.829656 
L 233.1725 213.735933 
L 236.1755 211.55528 
L 237.677 210.314921 
L 238.6325 209.246536 
L 239.315 208.152735 
L 239.8155 206.943752 
L 240.225 205.329845 
L 240.5435 203.006192 
L 240.771 199.45473 
L 240.9075 194.405077 
L 240.9985 185.571553 
L 241.0895 141.897774 
L 241.226 46.828784 
L 241.3625 50.050875 
L 241.5445 61.584436 
L 241.863 102.593478 
L 242.136 151.013262 
L 242.4545 229.278245 
L 242.5455 228.026872 
L 243.0915 217.524138 
L 243.3645 216.206417 
L 243.774 215.362018 
L 244.32 214.750409 
L 246.14 213.312082 
L 250.4625 209.913681 
L 251.2815 208.873838 
L 251.873 207.791129 
L 252.328 206.526161 
L 252.692 204.860124 
L 252.965 202.586798 
L 253.1925 198.438123 
L 253.329 191.733148 
L 253.42 176.686468 
L 253.602 46.78063 
L 253.7385 49.794234 
L 253.9205 60.978578 
L 254.239 101.617343 
L 254.5575 164.529225 
L 254.785 228.009798 
L 254.8305 228.998687 
L 254.876 228.833587 
L 255.1035 223.593266 
L 255.422 218.010011 
L 255.695 216.382031 
L 256.1045 215.451668 
L 256.605 214.841309 
L 257.9245 213.766607 
L 260.973 211.521618 
L 262.4745 210.256307 
L 263.3845 209.216605 
L 264.067 208.100524 
L 264.5675 206.855992 
L 264.977 205.170077 
L 265.25 203.160528 
L 265.4775 199.80042 
L 265.614 195.216539 
L 265.705 187.759087 
L 265.796 156.884581 
L 265.9325 46.761277 
L 265.978 47.239111 
L 266.1145 51.366929 
L 266.2965 64.615782 
L 266.6605 114.317966 
L 266.888 161.978633 
L 267.1155 227.245757 
L 267.2065 228.739332 
L 267.252 228.116981 
L 267.889 216.973902 
L 268.2075 215.872928 
L 268.6625 215.11695 
L 269.345 214.476409 
L 272.166 212.3226 
L 274.441 210.556654 
L 275.4875 209.448334 
L 276.2155 208.349625 
L 276.7615 207.104905 
L 277.171 205.594611 
L 277.4895 203.509298 
L 277.717 200.553173 
L 277.899 194.740702 
L 277.99 186.497992 
L 278.081 148.585835 
L 278.2175 46.786547 
L 278.354 49.835823 
L 278.536 61.077233 
L 278.8545 101.774517 
L 279.173 164.948533 
L 279.4005 228.134947 
L 279.446 229.051235 
L 279.4915 228.848059 
L 279.7645 222.482687 
L 280.083 217.584448 
L 280.356 216.230818 
L 280.7655 215.36991 
L 281.3115 214.743942 
L 283.0405 213.34845 
L 287.4085 209.828062 
L 288.2275 208.738557 
L 288.819 207.578469 
L 289.274 206.176374 
L 289.638 204.223399 
L 289.911 201.281195 
L 290.093 196.703452 
L 290.2295 185.90582 
L 290.3205 144.357418 
L 290.457 46.811255 
L 290.5935 49.972119 
L 290.7755 61.399129 
L 291.094 102.291876 
L 291.4125 166.374672 
L 291.64 228.517214 
L 291.6855 229.205413 
L 291.731 228.881538 
L 292.5045 216.514407 
L 292.8685 215.583174 
L 293.369 214.900884 
L 294.4155 214.011391 
L 297.646 211.569075 
L 299.1475 210.294495 
L 300.103 209.19246 
L 300.7855 208.052546 
L 301.286 206.770772 
L 301.65 205.263084 
L 301.9685 202.857442 
L 302.196 199.092387 
L 302.3325 193.494329 
L 302.4235 182.84959 
L 302.5145 120.139695 
L 302.6055 46.874441 
L 302.651 46.999173 
L 302.7875 50.659926 
L 302.9695 63.036651 
L 303.288 105.017411 
L 303.561 156.148028 
L 303.834 229.438029 
L 303.8795 229.358637 
L 304.107 223.965268 
L 304.471 217.538603 
L 304.744 216.092316 
L 305.1535 215.260223 
L 305.6995 214.662559 
L 307.929 212.905179 
L 311.2505 210.266143 
L 312.1605 209.210717 
L 312.843 208.075924 
L 313.3435 206.804643 
L 313.7075 205.316837 
L 314.026 202.963148 
L 314.2535 199.34021 
L 314.39 194.116018 
L 314.481 184.733809 
L 314.572 135.451231 
L 314.7085 46.874923 
L 314.845 50.238345 
L 315.027 62.032289 
L 315.3455 103.335 
L 315.6185 152.49117 
L 315.8915 229.056049 
L 315.937 229.374696 
L 316.0735 226.79557 
L 316.483 218.297064 
L 316.756 216.435361 
L 317.12 215.529893 
L 317.6205 214.861035 
L 318.7125 213.936326 
L 323.8995 209.641612 
L 324.673 208.532713 
L 325.219 207.372252 
L 325.6285 206.020251 
L 325.947 204.26861 
L 326.22 201.371172 
L 326.402 196.920903 
L 326.5385 186.739455 
L 326.6295 150.241072 
L 326.766 46.77777 
L 326.9025 49.777531 
L 327.0845 60.940503 
L 327.403 101.556264 
L 327.7215 164.360451 
L 327.949 227.943983 
L 327.9945 228.967812 
L 328.04 228.821661 
L 328.2675 223.599839 
L 328.586 218.003409 
L 328.859 216.364435 
L 329.2685 215.421323 
L 329.769 214.795221 
L 331.0885 213.683509 
L 335.9115 209.655926 
L 336.685 208.548679 
L 337.231 207.39268 
L 337.6405 206.049774 
L 337.959 204.31713 
L 338.232 201.472391 
L 338.414 197.165763 
L 338.5505 187.640795 
L 338.6415 156.135738 
L 338.778 46.760821 
L 338.8235 47.251328 
L 338.96 51.402026 
L 339.142 64.690709 
L 339.506 114.422332 
L 339.7335 162.236188 
L 339.961 227.284974 
L 340.052 228.737522 
L 340.0975 228.108531 
L 340.689 217.25133 
L 340.962 216.076212 
L 341.417 215.199107 
L 342.0085 214.572285 
L 344.2835 212.731429 
L 347.241 210.342489 
L 348.1965 209.238733 
L 348.879 208.105101 
L 349.3795 206.840123 
L 349.7435 205.366704 
L 350.062 203.053017 
L 350.2895 199.540042 
L 350.426 194.595529 
L 350.517 186.092866 
L 350.608 145.702235 
L 350.7445 46.801763 
L 350.881 49.926327 
L 351.063 61.292117 
L 351.3815 102.118523 
L 351.7 165.883608 
L 351.9275 228.384587 
L 351.973 229.151226 
L 352.0185 228.869526 
L 352.792 216.509834 
L 353.156 215.564023 
L 353.6565 214.865094 
L 354.703 213.948023 
L 359.8445 209.590312 
L 360.5725 208.525679 
L 361.1185 207.351309 
L 361.528 205.978113 
L 361.8465 204.187403 
L 362.1195 201.186417 
L 362.3015 196.450971 
L 362.438 184.869064 
L 362.529 136.4993 
L 362.6655 46.865817 
L 362.802 50.205545 
L 362.984 61.955104 
L 363.3025 103.206516 
L 363.5755 152.226301 
L 363.894 229.354396 
L 364.0305 226.815701 
L 364.44 218.301383 
L 364.713 216.424319 
L 365.077 215.506857 
L 365.5775 214.82449 
L 366.6695 213.876647 
L 371.629 209.671326 
L 372.4025 208.558055 
L 372.9485 207.396944 
L 373.358 206.048378 
L 373.6765 204.307534 
L 373.9495 201.444376 
L 374.1315 197.092105 
L 374.268 187.367737 
L 374.359 154.397099 
L 374.4955 46.763019 
L 374.5865 48.250224 
L 374.7685 56.928551 
L 375.0415 87.613346 
L 375.451 162.871485 
L 375.6785 227.445454 
L 375.7695 228.751207 
L 375.9515 224.829302 
L 376.3155 218.025616 
L 376.5885 216.353204 
L 376.998 215.398046 
L 377.4985 214.760516 
L 378.818 213.624878 
L 383.459 209.651538 
L 384.2325 208.525063 
L 384.7785 207.343735 
L 385.188 205.960396 
L 385.5065 204.151356 
L 385.7795 201.101702 
L 385.9615 196.228524 
L 386.098 183.917244 
L 386.189 128.898867 
L 386.3255 46.925398 
L 386.462 50.419995 
L 386.644 62.468489 
L 386.9625 104.068163 
L 387.2355 154.033671 
L 387.5085 229.276686 
L 387.554 229.394809 
L 387.736 225.406288 
L 388.1 218.144774 
L 388.373 216.320764 
L 388.737 215.433245 
L 389.2375 214.768955 
L 390.4205 213.751349 
L 395.107 209.750638 
L 395.8805 208.663391 
L 396.472 207.431469 
L 396.8815 206.097871 
L 397.2 204.38825 
L 397.473 201.610839 
L 397.655 197.487029 
L 397.7915 188.754171 
L 397.8825 162.704437 
L 398.019 46.783855 
L 398.0645 47.114274 
L 398.201 51.013413 
L 398.383 63.8518 
L 398.747 113.184112 
L 398.9745 159.204953 
L 399.202 228.010457 
L 399.2475 229.187881 
L 399.293 229.090632 
L 399.5205 223.75568 
L 399.8845 217.46552 
L 400.1575 216.04984 
L 400.567 215.207805 
L 401.113 214.588545 
L 403.2515 212.821396 
L 406.3455 210.227978 
L 407.2555 209.118924 
L 407.8925 208.005089 
L 408.393 206.66659 
L 408.757 205.065184 
L 409.03 202.941768 
L 409.2575 199.271049 
L 409.394 193.932095 
L 409.485 184.180856 
L 409.576 131.02856 
L 409.7125 46.907713 
L 409.849 50.359264 
L 410.031 62.323707 
L 410.3495 103.824277 
L 410.6225 153.509582 
L 410.8955 229.206601 
L 410.941 229.390579 
L 411.0775 226.681683 
L 411.487 218.196421 
L 411.76 216.353554 
L 412.124 215.450423 
L 412.6245 214.77238 
L 413.762 213.775868 
L 418.4485 209.727062 
L 419.222 208.621731 
L 419.768 207.479625 
L 420.223 205.978849 
L 420.5415 204.176845 
L 420.8145 201.150604 
L 420.9965 196.349247 
L 421.133 184.430623 
L 421.224 133.027295 
L 421.3605 46.891591 
L 421.497 50.302425 
L 421.679 62.187939 
L 421.9975 103.59624 
L 422.2705 153.028049 
L 422.5435 229.13132 
L 422.589 229.378793 
L 422.7255 226.73061 
L 423.135 218.229748 
L 423.408 216.37019 
L 423.772 215.456622 
L 424.2725 214.770195 
L 425.3645 213.80269 
L 430.051 209.729276 
L 430.8245 208.620537 
L 431.3705 207.474557 
L 431.8255 205.967231 
L 432.144 204.154001 
L 432.417 201.097581 
L 432.599 196.20998 
L 432.7355 183.827662 
L 432.8265 128.160781 
L 432.963 46.930405 
L 433.0995 50.438047 
L 433.2815 62.512627 
L 433.6 104.142276 
L 433.873 154.191849 
L 434.146 229.287023 
L 434.1915 229.390244 
L 434.3735 225.387436 
L 434.7375 218.128105 
L 435.0105 216.30269 
L 435.3745 215.409572 
L 435.875 214.736131 
L 437.058 213.697509 
L 441.5625 209.768496 
L 442.336 208.672397 
L 442.9275 207.431409 
L 443.337 206.087198 
L 443.6555 204.360556 
L 443.9285 201.542521 
L 444.1105 197.317293 
L 444.247 188.161878 
L 444.338 159.295166 
L 444.4745 46.76318 
L 444.52 47.186436 
L 444.6565 51.222869 
L 444.8385 64.31176 
L 445.2025 113.875662 
L 445.43 160.875441 
L 445.6575 227.4086 
L 445.7485 228.848059 
L 445.794 228.201956 
L 446.3855 217.181811 
L 446.6585 215.988927 
L 447.1135 215.10508 
L 447.705 214.462962 
L 450.1165 212.435217 
L 452.528 210.367591 
L 453.4835 209.228722 
L 454.166 208.055718 
L 454.6665 206.734377 
L 455.0305 205.168864 
L 455.3035 203.122585 
L 455.531 199.67834 
L 455.6675 194.909718 
L 455.7585 186.936868 
L 455.8495 151.55284 
L 455.986 46.770604 
L 456.1225 49.725437 
L 456.3045 60.819531 
L 456.623 101.362504 
L 456.9415 163.838634 
L 457.169 227.750954 
L 457.2145 228.879928 
L 457.26 228.790765 
L 457.4875 223.628722 
L 457.8515 217.578874 
L 458.1245 216.185422 
L 458.534 215.286108 
L 459.08 214.613718 
L 460.718 213.177449 
L 464.449 209.899785 
L 465.268 208.774412 
L 465.8595 207.579965 
L 466.3145 206.132871 
L 466.633 204.433972 
L 466.906 201.691548 
L 467.088 197.664221 
L 467.2245 189.333015 
L 467.3155 165.806476 
L 467.452 46.828769 
L 467.4975 47.038326 
L 467.634 50.786133 
L 467.816 63.335582 
L 468.18 112.359937 
L 468.4075 157.26824 
L 468.6805 229.41043 
L 468.726 229.283089 
L 468.9535 223.851548 
L 469.3175 217.453411 
L 469.5905 216.007285 
L 470 215.15536 
L 470.3185 219.194874 
L 470.728 221.623565 
L 471.2285 223.207674 
L 471.8655 224.486621 
L 472.7755 225.797341 
L 474.0495 227.230504 
L 475.5965 228.631456 
L 477.462 230.011467 
L 479.6005 231.314768 
L 482.0575 232.548828 
L 484.833 233.687519 
L 487.927 234.710229 
L 491.385 235.614395 
L 495.298 236.403797 
L 499.8025 237.081452 
L 505.126 237.650629 
L 511.587 238.108402 
L 519.7315 238.451859 
L 530.788 238.680924 
L 548.0325 238.791766 
L 561 238.800989 
L 561 238.800989 
" clip-path="url(#p4fdcece914)" style="fill: none; stroke: #1f77b4; stroke-width: 1.5; stroke-linecap: square"/>
   </g>
   <g id="text_1">
    <!-- 0.15 nA -->
    <g transform="translate(37.75 53.256) scale(0.2 -0.2)">
     <defs>
      <path id="DejaVuSans-30" d="M 2034 4250 
Q 1547 4250 1301 3770 
Q 1056 3291 1056 2328 
Q 1056 1369 1301 889 
Q 1547 409 2034 409 
Q 2525 409 2770 889 
Q 3016 1369 3016 2328 
Q 3016 3291 2770 3770 
Q 2525 4250 2034 4250 
z
M 2034 4750 
Q 2819 4750 3233 4129 
Q 3647 3509 3647 2328 
Q 3647 1150 3233 529 
Q 2819 -91 2034 -91 
Q 1250 -91 836 529 
Q 422 1150 422 2328 
Q 422 3509 836 4129 
Q 1250 4750 2034 4750 
z
" transform="scale(0.015625)"/>
      <path id="DejaVuSans-2e" d="M 684 794 
L 1344 794 
L 1344 0 
L 684 0 
L 684 794 
z
" transform="scale(0.015625)"/>
      <path id="DejaVuSans-31" d="M 794 531 
L 1825 531 
L 1825 4091 
L 703 3866 
L 703 4441 
L 1819 4666 
L 2450 4666 
L 2450 531 
L 3481 531 
L 3481 0 
L 794 0 
L 794 531 
z
" transform="scale(0.015625)"/>
      <path id="DejaVuSans-35" d="M 691 4666 
L 3169 4666 
L 3169 4134 
L 1269 4134 
L 1269 2991 
Q 1406 3038 1543 3061 
Q 1681 3084 1819 3084 
Q 2600 3084 3056 2656 
Q 3513 2228 3513 1497 
Q 3513 744 3044 326 
Q 2575 -91 1722 -91 
Q 1428 -91 1123 -41 
Q 819 9 494 109 
L 494 744 
Q 775 591 1075 516 
Q 1375 441 1709 441 
Q 2250 441 2565 725 
Q 2881 1009 2881 1497 
Q 2881 1984 2565 2268 
Q 2250 2553 1709 2553 
Q 1456 2553 1204 2497 
Q 953 2441 691 2322 
L 691 4666 
z
" transform="scale(0.015625)"/>
      <path id="DejaVuSans-20" transform="scale(0.015625)"/>
      <path id="DejaVuSans-6e" d="M 3513 2113 
L 3513 0 
L 2938 0 
L 2938 2094 
Q 2938 2591 2744 2837 
Q 2550 3084 2163 3084 
Q 1697 3084 1428 2787 
Q 1159 2491 1159 1978 
L 1159 0 
L 581 0 
L 581 3500 
L 1159 3500 
L 1159 2956 
Q 1366 3272 1645 3428 
Q 1925 3584 2291 3584 
Q 2894 3584 3203 3211 
Q 3513 2838 3513 2113 
z
" transform="scale(0.015625)"/>
      <path id="DejaVuSans-41" d="M 2188 4044 
L 1331 1722 
L 3047 1722 
L 2188 4044 
z
M 1831 4666 
L 2547 4666 
L 4325 0 
L 3669 0 
L 3244 1197 
L 1141 1197 
L 716 0 
L 50 0 
L 1831 4666 
z
" transform="scale(0.015625)"/>
     </defs>
     <use xlink:href="#DejaVuSans-30"/>
     <use xlink:href="#DejaVuSans-2e" x="63.623047"/>
     <use xlink:href="#DejaVuSans-31" x="95.410156"/>
     <use xlink:href="#DejaVuSans-35" x="159.033203"/>
     <use xlink:href="#DejaVuSans-20" x="222.65625"/>
     <use xlink:href="#DejaVuSans-6e" x="254.443359"/>
     <use xlink:href="#DejaVuSans-41" x="317.822266"/>
    </g>
   </g>
   <g id="text_2">
    <!-- Tzilivaki.1 2019 -->
    <g transform="translate(201.6775 31.56) scale(0.22 -0.22)">
     <defs>
      <path id="DejaVuSans-54" d="M -19 4666 
L 3928 4666 
L 3928 4134 
L 2272 4134 
L 2272 0 
L 1638 0 
L 1638 4134 
L -19 4134 
L -19 4666 
z
" transform="scale(0.015625)"/>
      <path id="DejaVuSans-7a" d="M 353 3500 
L 3084 3500 
L 3084 2975 
L 922 459 
L 3084 459 
L 3084 0 
L 275 0 
L 275 525 
L 2438 3041 
L 353 3041 
L 353 3500 
z
" transform="scale(0.015625)"/>
      <path id="DejaVuSans-69" d="M 603 3500 
L 1178 3500 
L 1178 0 
L 603 0 
L 603 3500 
z
M 603 4863 
L 1178 4863 
L 1178 4134 
L 603 4134 
L 603 4863 
z
" transform="scale(0.015625)"/>
      <path id="DejaVuSans-6c" d="M 603 4863 
L 1178 4863 
L 1178 0 
L 603 0 
L 603 4863 
z
" transform="scale(0.015625)"/>
      <path id="DejaVuSans-76" d="M 191 3500 
L 800 3500 
L 1894 563 
L 2988 3500 
L 3597 3500 
L 2284 0 
L 1503 0 
L 191 3500 
z
" transform="scale(0.015625)"/>
      <path id="DejaVuSans-61" d="M 2194 1759 
Q 1497 1759 1228 1600 
Q 959 1441 959 1056 
Q 959 750 1161 570 
Q 1363 391 1709 391 
Q 2188 391 2477 730 
Q 2766 1069 2766 1631 
L 2766 1759 
L 2194 1759 
z
M 3341 1997 
L 3341 0 
L 2766 0 
L 2766 531 
Q 2569 213 2275 61 
Q 1981 -91 1556 -91 
Q 1019 -91 701 211 
Q 384 513 384 1019 
Q 384 1609 779 1909 
Q 1175 2209 1959 2209 
L 2766 2209 
L 2766 2266 
Q 2766 2663 2505 2880 
Q 2244 3097 1772 3097 
Q 1472 3097 1187 3025 
Q 903 2953 641 2809 
L 641 3341 
Q 956 3463 1253 3523 
Q 1550 3584 1831 3584 
Q 2591 3584 2966 3190 
Q 3341 2797 3341 1997 
z
" transform="scale(0.015625)"/>
      <path id="DejaVuSans-6b" d="M 581 4863 
L 1159 4863 
L 1159 1991 
L 2875 3500 
L 3609 3500 
L 1753 1863 
L 3688 0 
L 2938 0 
L 1159 1709 
L 1159 0 
L 581 0 
L 581 4863 
z
" transform="scale(0.015625)"/>
      <path id="DejaVuSans-32" d="M 1228 531 
L 3431 531 
L 3431 0 
L 469 0 
L 469 531 
Q 828 903 1448 1529 
Q 2069 2156 2228 2338 
Q 2531 2678 2651 2914 
Q 2772 3150 2772 3378 
Q 2772 3750 2511 3984 
Q 2250 4219 1831 4219 
Q 1534 4219 1204 4116 
Q 875 4013 500 3803 
L 500 4441 
Q 881 4594 1212 4672 
Q 1544 4750 1819 4750 
Q 2544 4750 2975 4387 
Q 3406 4025 3406 3419 
Q 3406 3131 3298 2873 
Q 3191 2616 2906 2266 
Q 2828 2175 2409 1742 
Q 1991 1309 1228 531 
z
" transform="scale(0.015625)"/>
      <path id="DejaVuSans-39" d="M 703 97 
L 703 672 
Q 941 559 1184 500 
Q 1428 441 1663 441 
Q 2288 441 2617 861 
Q 2947 1281 2994 2138 
Q 2813 1869 2534 1725 
Q 2256 1581 1919 1581 
Q 1219 1581 811 2004 
Q 403 2428 403 3163 
Q 403 3881 828 4315 
Q 1253 4750 1959 4750 
Q 2769 4750 3195 4129 
Q 3622 3509 3622 2328 
Q 3622 1225 3098 567 
Q 2575 -91 1691 -91 
Q 1453 -91 1209 -44 
Q 966 3 703 97 
z
M 1959 2075 
Q 2384 2075 2632 2365 
Q 2881 2656 2881 3163 
Q 2881 3666 2632 3958 
Q 2384 4250 1959 4250 
Q 1534 4250 1286 3958 
Q 1038 3666 1038 3163 
Q 1038 2656 1286 2365 
Q 1534 2075 1959 2075 
z
" transform="scale(0.015625)"/>
     </defs>
     <use xlink:href="#DejaVuSans-54"/>
     <use xlink:href="#DejaVuSans-7a" x="61.083984"/>
     <use xlink:href="#DejaVuSans-69" x="113.574219"/>
     <use xlink:href="#DejaVuSans-6c" x="141.357422"/>
     <use xlink:href="#DejaVuSans-69" x="169.140625"/>
     <use xlink:href="#DejaVuSans-76" x="196.923828"/>
     <use xlink:href="#DejaVuSans-61" x="256.103516"/>
     <use xlink:href="#DejaVuSans-6b" x="317.382812"/>
     <use xlink:href="#DejaVuSans-69" x="375.292969"/>
     <use xlink:href="#DejaVuSans-2e" x="403.076172"/>
     <use xlink:href="#DejaVuSans-31" x="434.863281"/>
     <use xlink:href="#DejaVuSans-20" x="498.486328"/>
     <use xlink:href="#DejaVuSans-32" x="530.273438"/>
     <use xlink:href="#DejaVuSans-30" x="593.896484"/>
     <use xlink:href="#DejaVuSans-31" x="657.519531"/>
     <use xlink:href="#DejaVuSans-39" x="721.142578"/>
    </g>
   </g>
   <g id="patch_2">
    <path d="M 406.3 273 
L 424.5 273 
L 424.5 37.56 
L 406.3 37.56 
L 406.3 273 
z
" clip-path="url(#p4fdcece914)" style="fill: none; opacity: 0.5; stroke: #000000; stroke-linejoin: miter"/>
   </g>
   <g id="patch_3">
    <path d="M 561 214.14 
Q 492.75 243.57 424.5 273 
" style="fill: none; opacity: 0.5; stroke: #000000; stroke-linecap: round"/>
   </g>
   <g id="patch_4">
    <path d="M 561 72.876 
Q 492.75 55.218 424.5 37.56 
" style="fill: none; opacity: 0.5; stroke: #000000; stroke-linecap: round"/>
   </g>
   <g id="axes_2">
    <g id="patch_5">
     <path d="M 500.94 214.14 
L 561 214.14 
L 561 72.876 
L 500.94 72.876 
z
" style="fill: #ffffff"/>
    </g>
    <g id="matplotlib.axis_1">
     <g id="xtick_1"/>
     <g id="xtick_2"/>
     <g id="xtick_3"/>
    </g>
    <g id="matplotlib.axis_2">
     <g id="ytick_1"/>
     <g id="ytick_2"/>
     <g id="ytick_3"/>
     <g id="ytick_4"/>
     <g id="ytick_5"/>
     <g id="ytick_6"/>
    </g>
    <g id="line2d_2">
     <path d="M 500.94 176.505059 
L 504.2433 175.771165 
L 506.3454 175.083774 
L 507.69675 174.430558 
L 508.7478 173.670436 
L 509.49855 172.838825 
L 510.09915 171.794134 
L 510.5496 170.515138 
L 510.8499 169.129991 
L 511.1502 166.699257 
L 511.4505 160.848514 
L 511.60065 152.845835 
L 511.7508 128.957136 
L 511.90095 85.187118 
L 512.0511 78.564703 
L 512.20125 78.484628 
L 512.50155 79.611601 
L 512.80185 81.809879 
L 513.2523 87.734224 
L 513.8529 100.671476 
L 514.90395 129.822317 
L 515.20425 142.445749 
L 515.80485 183.976828 
L 516.10515 187.86396 
L 516.2553 187.974347 
L 516.5556 187.037553 
L 517.7568 181.995424 
L 518.20725 180.975046 
L 518.6577 180.392588 
L 519.2583 179.975635 
L 520.30935 179.562087 
L 521.961 179.175797 
L 526.91595 178.400855 
L 541.1802 176.14306 
L 543.73275 175.465265 
L 545.3844 174.827775 
L 546.5856 174.148098 
L 547.4865 173.385105 
L 548.0871 172.628992 
L 548.53755 171.80491 
L 548.988 170.532169 
L 549.2883 169.156525 
L 549.5886 166.749988 
L 549.8889 160.998374 
L 550.03905 153.211793 
L 550.1892 130.156377 
L 550.33935 85.856064 
L 550.4895 78.593723 
L 550.63965 78.474954 
L 550.93995 79.586574 
L 551.24025 81.765218 
L 551.6907 87.652763 
L 552.14115 96.865103 
L 553.1922 125.021932 
L 553.64265 142.15683 
L 554.3934 186.703112 
L 554.54355 187.818792 
L 554.6937 187.967276 
L 554.994 187.061369 
L 556.1952 182.019979 
L 556.64565 180.992893 
L 557.0961 180.405131 
L 557.6967 179.983617 
L 558.74775 179.565227 
L 560.3994 179.174152 
L 561.15015 179.044543 
L 561.15015 179.044543 
" clip-path="url(#p6837051b15)" style="fill: none; stroke: #1f77b4; stroke-width: 1.5; stroke-linecap: square"/>
    </g>
    <g id="patch_6">
     <path d="M 500.94 214.14 
L 500.94 72.876 
" style="fill: none; stroke: #000000; stroke-width: 0.8; stroke-linejoin: miter; stroke-linecap: square"/>
    </g>
    <g id="patch_7">
     <path d="M 500.94 214.14 
L 561 214.14 
" style="fill: none; stroke: #000000; stroke-width: 0.8; stroke-linejoin: miter; stroke-linecap: square"/>
    </g>
   </g>
  </g>
 </g>
 <defs>
  <clipPath id="p4fdcece914">
   <rect x="15" y="37.56" width="546" height="235.44"/>
  </clipPath>
  <clipPath id="p6837051b15">
   <rect x="500.94" y="72.876" width="60.06" height="141.264"/>
  </clipPath>
 </defs>
</svg>
