<?xml version="1.0" encoding="utf-8" standalone="no"?>
<!DOCTYPE svg PUBLIC "-//W3C//DTD SVG 1.1//EN"
  "http://www.w3.org/Graphics/SVG/1.1/DTD/svg11.dtd">
<svg xmlns:xlink="http://www.w3.org/1999/xlink" width="699.162969pt" height="337.634375pt" viewBox="0 0 699.162969 337.634375" xmlns="http://www.w3.org/2000/svg" version="1.1">
 <metadata>
  <rdf:RDF xmlns:dc="http://purl.org/dc/elements/1.1/" xmlns:cc="http://creativecommons.org/ns#" xmlns:rdf="http://www.w3.org/1999/02/22-rdf-syntax-ns#">
   <cc:Work>
    <dc:type rdf:resource="http://purl.org/dc/dcmitype/StillImage"/>
    <dc:date>2024-10-11T11:36:00.639488</dc:date>
    <dc:format>image/svg+xml</dc:format>
    <dc:creator>
     <cc:Agent>
      <dc:title>Matplotlib v3.7.4, https://matplotlib.org/</dc:title>
     </cc:Agent>
    </dc:creator>
   </cc:Work>
  </rdf:RDF>
 </metadata>
 <defs>
  <style type="text/css">*{stroke-linejoin: round; stroke-linecap: butt}</style>
 </defs>
 <g id="figure_1">
  <g id="patch_1">
   <path d="M 0 337.634375 
L 699.162969 337.634375 
L 699.162969 0 
L 0 0 
z
" style="fill: #ffffff"/>
  </g>
  <g id="axes_1">
   <g id="patch_2">
    <path d="M 138.516406 284.4 
L 495.636406 284.4 
L 495.636406 7.2 
L 138.516406 7.2 
z
" style="fill: #ffffff"/>
   </g>
   <g id="matplotlib.axis_1">
    <g id="xtick_1">
     <g id="line2d_1">
      <path d="M 138.516406 284.4 
L 138.516406 7.2 
" clip-path="url(#p3605084062)" style="fill: none; stroke: #d3d3d3; stroke-linecap: square"/>
     </g>
     <g id="text_1">
      <!-- 0 -->
      <g transform="translate(133.744531 302.797656) scale(0.15 -0.15)">
       <defs>
        <path id="DejaVuSans-30" d="M 2034 4250 
Q 1547 4250 1301 3770 
Q 1056 3291 1056 2328 
Q 1056 1369 1301 889 
Q 1547 409 2034 409 
Q 2525 409 2770 889 
Q 3016 1369 3016 2328 
Q 3016 3291 2770 3770 
Q 2525 4250 2034 4250 
z
M 2034 4750 
Q 2819 4750 3233 4129 
Q 3647 3509 3647 2328 
Q 3647 1150 3233 529 
Q 2819 -91 2034 -91 
Q 1250 -91 836 529 
Q 422 1150 422 2328 
Q 422 3509 836 4129 
Q 1250 4750 2034 4750 
z
" transform="scale(0.015625)"/>
       </defs>
       <use xlink:href="#DejaVuSans-30"/>
      </g>
     </g>
    </g>
    <g id="xtick_2">
     <g id="line2d_2">
      <path d="M 213.482564 284.4 
L 213.482564 7.2 
" clip-path="url(#p3605084062)" style="fill: none; stroke: #d3d3d3; stroke-linecap: square"/>
     </g>
     <g id="text_2">
      <!-- 5 -->
      <g transform="translate(208.710689 302.797656) scale(0.15 -0.15)">
       <defs>
        <path id="DejaVuSans-35" d="M 691 4666 
L 3169 4666 
L 3169 4134 
L 1269 4134 
L 1269 2991 
Q 1406 3038 1543 3061 
Q 1681 3084 1819 3084 
Q 2600 3084 3056 2656 
Q 3513 2228 3513 1497 
Q 3513 744 3044 326 
Q 2575 -91 1722 -91 
Q 1428 -91 1123 -41 
Q 819 9 494 109 
L 494 744 
Q 775 591 1075 516 
Q 1375 441 1709 441 
Q 2250 441 2565 725 
Q 2881 1009 2881 1497 
Q 2881 1984 2565 2268 
Q 2250 2553 1709 2553 
Q 1456 2553 1204 2497 
Q 953 2441 691 2322 
L 691 4666 
z
" transform="scale(0.015625)"/>
       </defs>
       <use xlink:href="#DejaVuSans-35"/>
      </g>
     </g>
    </g>
    <g id="xtick_3">
     <g id="line2d_3">
      <path d="M 288.448721 284.4 
L 288.448721 7.2 
" clip-path="url(#p3605084062)" style="fill: none; stroke: #d3d3d3; stroke-linecap: square"/>
     </g>
     <g id="text_3">
      <!-- 10 -->
      <g transform="translate(278.904971 302.797656) scale(0.15 -0.15)">
       <defs>
        <path id="DejaVuSans-31" d="M 794 531 
L 1825 531 
L 1825 4091 
L 703 3866 
L 703 4441 
L 1819 4666 
L 2450 4666 
L 2450 531 
L 3481 531 
L 3481 0 
L 794 0 
L 794 531 
z
" transform="scale(0.015625)"/>
       </defs>
       <use xlink:href="#DejaVuSans-31"/>
       <use xlink:href="#DejaVuSans-30" x="63.623047"/>
      </g>
     </g>
    </g>
    <g id="xtick_4">
     <g id="line2d_4">
      <path d="M 363.414878 284.4 
L 363.414878 7.2 
" clip-path="url(#p3605084062)" style="fill: none; stroke: #d3d3d3; stroke-linecap: square"/>
     </g>
     <g id="text_4">
      <!-- 15 -->
      <g transform="translate(353.871128 302.797656) scale(0.15 -0.15)">
       <use xlink:href="#DejaVuSans-31"/>
       <use xlink:href="#DejaVuSans-35" x="63.623047"/>
      </g>
     </g>
    </g>
    <g id="xtick_5">
     <g id="line2d_5">
      <path d="M 438.381035 284.4 
L 438.381035 7.2 
" clip-path="url(#p3605084062)" style="fill: none; stroke: #d3d3d3; stroke-linecap: square"/>
     </g>
     <g id="text_5">
      <!-- 20 -->
      <g transform="translate(428.837285 302.797656) scale(0.15 -0.15)">
       <defs>
        <path id="DejaVuSans-32" d="M 1228 531 
L 3431 531 
L 3431 0 
L 469 0 
L 469 531 
Q 828 903 1448 1529 
Q 2069 2156 2228 2338 
Q 2531 2678 2651 2914 
Q 2772 3150 2772 3378 
Q 2772 3750 2511 3984 
Q 2250 4219 1831 4219 
Q 1534 4219 1204 4116 
Q 875 4013 500 3803 
L 500 4441 
Q 881 4594 1212 4672 
Q 1544 4750 1819 4750 
Q 2544 4750 2975 4387 
Q 3406 4025 3406 3419 
Q 3406 3131 3298 2873 
Q 3191 2616 2906 2266 
Q 2828 2175 2409 1742 
Q 1991 1309 1228 531 
z
" transform="scale(0.015625)"/>
       </defs>
       <use xlink:href="#DejaVuSans-32"/>
       <use xlink:href="#DejaVuSans-30" x="63.623047"/>
      </g>
     </g>
    </g>
    <g id="text_6">
     <!-- Error Scores -->
     <g transform="translate(271.504531 327.314844) scale(0.15 -0.15)">
      <defs>
       <path id="DejaVuSans-45" d="M 628 4666 
L 3578 4666 
L 3578 4134 
L 1259 4134 
L 1259 2753 
L 3481 2753 
L 3481 2222 
L 1259 2222 
L 1259 531 
L 3634 531 
L 3634 0 
L 628 0 
L 628 4666 
z
" transform="scale(0.015625)"/>
       <path id="DejaVuSans-72" d="M 2631 2963 
Q 2534 3019 2420 3045 
Q 2306 3072 2169 3072 
Q 1681 3072 1420 2755 
Q 1159 2438 1159 1844 
L 1159 0 
L 581 0 
L 581 3500 
L 1159 3500 
L 1159 2956 
Q 1341 3275 1631 3429 
Q 1922 3584 2338 3584 
Q 2397 3584 2469 3576 
Q 2541 3569 2628 3553 
L 2631 2963 
z
" transform="scale(0.015625)"/>
       <path id="DejaVuSans-6f" d="M 1959 3097 
Q 1497 3097 1228 2736 
Q 959 2375 959 1747 
Q 959 1119 1226 758 
Q 1494 397 1959 397 
Q 2419 397 2687 759 
Q 2956 1122 2956 1747 
Q 2956 2369 2687 2733 
Q 2419 3097 1959 3097 
z
M 1959 3584 
Q 2709 3584 3137 3096 
Q 3566 2609 3566 1747 
Q 3566 888 3137 398 
Q 2709 -91 1959 -91 
Q 1206 -91 779 398 
Q 353 888 353 1747 
Q 353 2609 779 3096 
Q 1206 3584 1959 3584 
z
" transform="scale(0.015625)"/>
       <path id="DejaVuSans-20" transform="scale(0.015625)"/>
       <path id="DejaVuSans-53" d="M 3425 4513 
L 3425 3897 
Q 3066 4069 2747 4153 
Q 2428 4238 2131 4238 
Q 1616 4238 1336 4038 
Q 1056 3838 1056 3469 
Q 1056 3159 1242 3001 
Q 1428 2844 1947 2747 
L 2328 2669 
Q 3034 2534 3370 2195 
Q 3706 1856 3706 1288 
Q 3706 609 3251 259 
Q 2797 -91 1919 -91 
Q 1588 -91 1214 -16 
Q 841 59 441 206 
L 441 856 
Q 825 641 1194 531 
Q 1563 422 1919 422 
Q 2459 422 2753 634 
Q 3047 847 3047 1241 
Q 3047 1584 2836 1778 
Q 2625 1972 2144 2069 
L 1759 2144 
Q 1053 2284 737 2584 
Q 422 2884 422 3419 
Q 422 4038 858 4394 
Q 1294 4750 2059 4750 
Q 2388 4750 2728 4690 
Q 3069 4631 3425 4513 
z
" transform="scale(0.015625)"/>
       <path id="DejaVuSans-63" d="M 3122 3366 
L 3122 2828 
Q 2878 2963 2633 3030 
Q 2388 3097 2138 3097 
Q 1578 3097 1268 2742 
Q 959 2388 959 1747 
Q 959 1106 1268 751 
Q 1578 397 2138 397 
Q 2388 397 2633 464 
Q 2878 531 3122 666 
L 3122 134 
Q 2881 22 2623 -34 
Q 2366 -91 2075 -91 
Q 1284 -91 818 406 
Q 353 903 353 1747 
Q 353 2603 823 3093 
Q 1294 3584 2113 3584 
Q 2378 3584 2631 3529 
Q 2884 3475 3122 3366 
z
" transform="scale(0.015625)"/>
       <path id="DejaVuSans-65" d="M 3597 1894 
L 3597 1613 
L 953 1613 
Q 991 1019 1311 708 
Q 1631 397 2203 397 
Q 2534 397 2845 478 
Q 3156 559 3463 722 
L 3463 178 
Q 3153 47 2828 -22 
Q 2503 -91 2169 -91 
Q 1331 -91 842 396 
Q 353 884 353 1716 
Q 353 2575 817 3079 
Q 1281 3584 2069 3584 
Q 2775 3584 3186 3129 
Q 3597 2675 3597 1894 
z
M 3022 2063 
Q 3016 2534 2758 2815 
Q 2500 3097 2075 3097 
Q 1594 3097 1305 2825 
Q 1016 2553 972 2059 
L 3022 2063 
z
" transform="scale(0.015625)"/>
       <path id="DejaVuSans-73" d="M 2834 3397 
L 2834 2853 
Q 2591 2978 2328 3040 
Q 2066 3103 1784 3103 
Q 1356 3103 1142 2972 
Q 928 2841 928 2578 
Q 928 2378 1081 2264 
Q 1234 2150 1697 2047 
L 1894 2003 
Q 2506 1872 2764 1633 
Q 3022 1394 3022 966 
Q 3022 478 2636 193 
Q 2250 -91 1575 -91 
Q 1294 -91 989 -36 
Q 684 19 347 128 
L 347 722 
Q 666 556 975 473 
Q 1284 391 1588 391 
Q 1994 391 2212 530 
Q 2431 669 2431 922 
Q 2431 1156 2273 1281 
Q 2116 1406 1581 1522 
L 1381 1569 
Q 847 1681 609 1914 
Q 372 2147 372 2553 
Q 372 3047 722 3315 
Q 1072 3584 1716 3584 
Q 2034 3584 2315 3537 
Q 2597 3491 2834 3397 
z
" transform="scale(0.015625)"/>
      </defs>
      <use xlink:href="#DejaVuSans-45"/>
      <use xlink:href="#DejaVuSans-72" x="63.183594"/>
      <use xlink:href="#DejaVuSans-72" x="102.546875"/>
      <use xlink:href="#DejaVuSans-6f" x="141.410156"/>
      <use xlink:href="#DejaVuSans-72" x="202.591797"/>
      <use xlink:href="#DejaVuSans-20" x="243.705078"/>
      <use xlink:href="#DejaVuSans-53" x="275.492188"/>
      <use xlink:href="#DejaVuSans-63" x="338.96875"/>
      <use xlink:href="#DejaVuSans-6f" x="393.949219"/>
      <use xlink:href="#DejaVuSans-72" x="455.130859"/>
      <use xlink:href="#DejaVuSans-65" x="493.994141"/>
      <use xlink:href="#DejaVuSans-73" x="555.517578"/>
     </g>
    </g>
   </g>
   <g id="matplotlib.axis_2">
    <g id="ytick_1">
     <g id="text_7">
      <!-- AP Shape -->
      <g transform="translate(60.470312 252.298828) scale(0.15 -0.15)">
       <defs>
        <path id="DejaVuSans-41" d="M 2188 4044 
L 1331 1722 
L 3047 1722 
L 2188 4044 
z
M 1831 4666 
L 2547 4666 
L 4325 0 
L 3669 0 
L 3244 1197 
L 1141 1197 
L 716 0 
L 50 0 
L 1831 4666 
z
" transform="scale(0.015625)"/>
        <path id="DejaVuSans-50" d="M 1259 4147 
L 1259 2394 
L 2053 2394 
Q 2494 2394 2734 2622 
Q 2975 2850 2975 3272 
Q 2975 3691 2734 3919 
Q 2494 4147 2053 4147 
L 1259 4147 
z
M 628 4666 
L 2053 4666 
Q 2838 4666 3239 4311 
Q 3641 3956 3641 3272 
Q 3641 2581 3239 2228 
Q 2838 1875 2053 1875 
L 1259 1875 
L 1259 0 
L 628 0 
L 628 4666 
z
" transform="scale(0.015625)"/>
        <path id="DejaVuSans-68" d="M 3513 2113 
L 3513 0 
L 2938 0 
L 2938 2094 
Q 2938 2591 2744 2837 
Q 2550 3084 2163 3084 
Q 1697 3084 1428 2787 
Q 1159 2491 1159 1978 
L 1159 0 
L 581 0 
L 581 4863 
L 1159 4863 
L 1159 2956 
Q 1366 3272 1645 3428 
Q 1925 3584 2291 3584 
Q 2894 3584 3203 3211 
Q 3513 2838 3513 2113 
z
" transform="scale(0.015625)"/>
        <path id="DejaVuSans-61" d="M 2194 1759 
Q 1497 1759 1228 1600 
Q 959 1441 959 1056 
Q 959 750 1161 570 
Q 1363 391 1709 391 
Q 2188 391 2477 730 
Q 2766 1069 2766 1631 
L 2766 1759 
L 2194 1759 
z
M 3341 1997 
L 3341 0 
L 2766 0 
L 2766 531 
Q 2569 213 2275 61 
Q 1981 -91 1556 -91 
Q 1019 -91 701 211 
Q 384 513 384 1019 
Q 384 1609 779 1909 
Q 1175 2209 1959 2209 
L 2766 2209 
L 2766 2266 
Q 2766 2663 2505 2880 
Q 2244 3097 1772 3097 
Q 1472 3097 1187 3025 
Q 903 2953 641 2809 
L 641 3341 
Q 956 3463 1253 3523 
Q 1550 3584 1831 3584 
Q 2591 3584 2966 3190 
Q 3341 2797 3341 1997 
z
" transform="scale(0.015625)"/>
        <path id="DejaVuSans-70" d="M 1159 525 
L 1159 -1331 
L 581 -1331 
L 581 3500 
L 1159 3500 
L 1159 2969 
Q 1341 3281 1617 3432 
Q 1894 3584 2278 3584 
Q 2916 3584 3314 3078 
Q 3713 2572 3713 1747 
Q 3713 922 3314 415 
Q 2916 -91 2278 -91 
Q 1894 -91 1617 61 
Q 1341 213 1159 525 
z
M 3116 1747 
Q 3116 2381 2855 2742 
Q 2594 3103 2138 3103 
Q 1681 3103 1420 2742 
Q 1159 2381 1159 1747 
Q 1159 1113 1420 752 
Q 1681 391 2138 391 
Q 2594 391 2855 752 
Q 3116 1113 3116 1747 
z
" transform="scale(0.015625)"/>
       </defs>
       <use xlink:href="#DejaVuSans-41"/>
       <use xlink:href="#DejaVuSans-50" x="68.408203"/>
       <use xlink:href="#DejaVuSans-20" x="128.710938"/>
       <use xlink:href="#DejaVuSans-53" x="160.498047"/>
       <use xlink:href="#DejaVuSans-68" x="223.974609"/>
       <use xlink:href="#DejaVuSans-61" x="287.353516"/>
       <use xlink:href="#DejaVuSans-70" x="348.632812"/>
       <use xlink:href="#DejaVuSans-65" x="412.109375"/>
      </g>
     </g>
    </g>
    <g id="ytick_2">
     <g id="text_8">
      <!-- AHP -->
      <g transform="translate(100.930469 201.898828) scale(0.15 -0.15)">
       <defs>
        <path id="DejaVuSans-48" d="M 628 4666 
L 1259 4666 
L 1259 2753 
L 3553 2753 
L 3553 4666 
L 4184 4666 
L 4184 0 
L 3553 0 
L 3553 2222 
L 1259 2222 
L 1259 0 
L 628 0 
L 628 4666 
z
" transform="scale(0.015625)"/>
       </defs>
       <use xlink:href="#DejaVuSans-41"/>
       <use xlink:href="#DejaVuSans-48" x="68.408203"/>
       <use xlink:href="#DejaVuSans-50" x="143.603516"/>
      </g>
     </g>
    </g>
    <g id="ytick_3">
     <g id="text_9">
      <!-- Adaptation -->
      <g transform="translate(49.475781 151.498828) scale(0.15 -0.15)">
       <defs>
        <path id="DejaVuSans-64" d="M 2906 2969 
L 2906 4863 
L 3481 4863 
L 3481 0 
L 2906 0 
L 2906 525 
Q 2725 213 2448 61 
Q 2172 -91 1784 -91 
Q 1150 -91 751 415 
Q 353 922 353 1747 
Q 353 2572 751 3078 
Q 1150 3584 1784 3584 
Q 2172 3584 2448 3432 
Q 2725 3281 2906 2969 
z
M 947 1747 
Q 947 1113 1208 752 
Q 1469 391 1925 391 
Q 2381 391 2643 752 
Q 2906 1113 2906 1747 
Q 2906 2381 2643 2742 
Q 2381 3103 1925 3103 
Q 1469 3103 1208 2742 
Q 947 2381 947 1747 
z
" transform="scale(0.015625)"/>
        <path id="DejaVuSans-74" d="M 1172 4494 
L 1172 3500 
L 2356 3500 
L 2356 3053 
L 1172 3053 
L 1172 1153 
Q 1172 725 1289 603 
Q 1406 481 1766 481 
L 2356 481 
L 2356 0 
L 1766 0 
Q 1100 0 847 248 
Q 594 497 594 1153 
L 594 3053 
L 172 3053 
L 172 3500 
L 594 3500 
L 594 4494 
L 1172 4494 
z
" transform="scale(0.015625)"/>
        <path id="DejaVuSans-69" d="M 603 3500 
L 1178 3500 
L 1178 0 
L 603 0 
L 603 3500 
z
M 603 4863 
L 1178 4863 
L 1178 4134 
L 603 4134 
L 603 4863 
z
" transform="scale(0.015625)"/>
        <path id="DejaVuSans-6e" d="M 3513 2113 
L 3513 0 
L 2938 0 
L 2938 2094 
Q 2938 2591 2744 2837 
Q 2550 3084 2163 3084 
Q 1697 3084 1428 2787 
Q 1159 2491 1159 1978 
L 1159 0 
L 581 0 
L 581 3500 
L 1159 3500 
L 1159 2956 
Q 1366 3272 1645 3428 
Q 1925 3584 2291 3584 
Q 2894 3584 3203 3211 
Q 3513 2838 3513 2113 
z
" transform="scale(0.015625)"/>
       </defs>
       <use xlink:href="#DejaVuSans-41"/>
       <use xlink:href="#DejaVuSans-64" x="66.658203"/>
       <use xlink:href="#DejaVuSans-61" x="130.134766"/>
       <use xlink:href="#DejaVuSans-70" x="191.414062"/>
       <use xlink:href="#DejaVuSans-74" x="254.890625"/>
       <use xlink:href="#DejaVuSans-61" x="294.099609"/>
       <use xlink:href="#DejaVuSans-74" x="355.378906"/>
       <use xlink:href="#DejaVuSans-69" x="394.587891"/>
       <use xlink:href="#DejaVuSans-6f" x="422.371094"/>
       <use xlink:href="#DejaVuSans-6e" x="483.552734"/>
      </g>
     </g>
    </g>
    <g id="ytick_4">
     <g id="text_10">
      <!-- Firing Pattern -->
      <g transform="translate(31.717187 101.098828) scale(0.15 -0.15)">
       <defs>
        <path id="DejaVuSans-46" d="M 628 4666 
L 3309 4666 
L 3309 4134 
L 1259 4134 
L 1259 2759 
L 3109 2759 
L 3109 2228 
L 1259 2228 
L 1259 0 
L 628 0 
L 628 4666 
z
" transform="scale(0.015625)"/>
        <path id="DejaVuSans-67" d="M 2906 1791 
Q 2906 2416 2648 2759 
Q 2391 3103 1925 3103 
Q 1463 3103 1205 2759 
Q 947 2416 947 1791 
Q 947 1169 1205 825 
Q 1463 481 1925 481 
Q 2391 481 2648 825 
Q 2906 1169 2906 1791 
z
M 3481 434 
Q 3481 -459 3084 -895 
Q 2688 -1331 1869 -1331 
Q 1566 -1331 1297 -1286 
Q 1028 -1241 775 -1147 
L 775 -588 
Q 1028 -725 1275 -790 
Q 1522 -856 1778 -856 
Q 2344 -856 2625 -561 
Q 2906 -266 2906 331 
L 2906 616 
Q 2728 306 2450 153 
Q 2172 0 1784 0 
Q 1141 0 747 490 
Q 353 981 353 1791 
Q 353 2603 747 3093 
Q 1141 3584 1784 3584 
Q 2172 3584 2450 3431 
Q 2728 3278 2906 2969 
L 2906 3500 
L 3481 3500 
L 3481 434 
z
" transform="scale(0.015625)"/>
       </defs>
       <use xlink:href="#DejaVuSans-46"/>
       <use xlink:href="#DejaVuSans-69" x="50.269531"/>
       <use xlink:href="#DejaVuSans-72" x="78.052734"/>
       <use xlink:href="#DejaVuSans-69" x="119.166016"/>
       <use xlink:href="#DejaVuSans-6e" x="146.949219"/>
       <use xlink:href="#DejaVuSans-67" x="210.328125"/>
       <use xlink:href="#DejaVuSans-20" x="273.804688"/>
       <use xlink:href="#DejaVuSans-50" x="305.591797"/>
       <use xlink:href="#DejaVuSans-61" x="361.394531"/>
       <use xlink:href="#DejaVuSans-74" x="422.673828"/>
       <use xlink:href="#DejaVuSans-74" x="461.882812"/>
       <use xlink:href="#DejaVuSans-65" x="501.091797"/>
       <use xlink:href="#DejaVuSans-72" x="562.615234"/>
       <use xlink:href="#DejaVuSans-6e" x="601.978516"/>
      </g>
     </g>
    </g>
    <g id="ytick_5">
     <g id="text_11">
      <!-- Subthreshold -->
      <g transform="translate(32.33125 50.698828) scale(0.15 -0.15)">
       <defs>
        <path id="DejaVuSans-75" d="M 544 1381 
L 544 3500 
L 1119 3500 
L 1119 1403 
Q 1119 906 1312 657 
Q 1506 409 1894 409 
Q 2359 409 2629 706 
Q 2900 1003 2900 1516 
L 2900 3500 
L 3475 3500 
L 3475 0 
L 2900 0 
L 2900 538 
Q 2691 219 2414 64 
Q 2138 -91 1772 -91 
Q 1169 -91 856 284 
Q 544 659 544 1381 
z
M 1991 3584 
L 1991 3584 
z
" transform="scale(0.015625)"/>
        <path id="DejaVuSans-62" d="M 3116 1747 
Q 3116 2381 2855 2742 
Q 2594 3103 2138 3103 
Q 1681 3103 1420 2742 
Q 1159 2381 1159 1747 
Q 1159 1113 1420 752 
Q 1681 391 2138 391 
Q 2594 391 2855 752 
Q 3116 1113 3116 1747 
z
M 1159 2969 
Q 1341 3281 1617 3432 
Q 1894 3584 2278 3584 
Q 2916 3584 3314 3078 
Q 3713 2572 3713 1747 
Q 3713 922 3314 415 
Q 2916 -91 2278 -91 
Q 1894 -91 1617 61 
Q 1341 213 1159 525 
L 1159 0 
L 581 0 
L 581 4863 
L 1159 4863 
L 1159 2969 
z
" transform="scale(0.015625)"/>
        <path id="DejaVuSans-6c" d="M 603 4863 
L 1178 4863 
L 1178 0 
L 603 0 
L 603 4863 
z
" transform="scale(0.015625)"/>
       </defs>
       <use xlink:href="#DejaVuSans-53"/>
       <use xlink:href="#DejaVuSans-75" x="63.476562"/>
       <use xlink:href="#DejaVuSans-62" x="126.855469"/>
       <use xlink:href="#DejaVuSans-74" x="190.332031"/>
       <use xlink:href="#DejaVuSans-68" x="229.541016"/>
       <use xlink:href="#DejaVuSans-72" x="292.919922"/>
       <use xlink:href="#DejaVuSans-65" x="331.783203"/>
       <use xlink:href="#DejaVuSans-73" x="393.306641"/>
       <use xlink:href="#DejaVuSans-68" x="445.40625"/>
       <use xlink:href="#DejaVuSans-6f" x="508.785156"/>
       <use xlink:href="#DejaVuSans-6c" x="569.966797"/>
       <use xlink:href="#DejaVuSans-64" x="597.75"/>
      </g>
     </g>
    </g>
    <g id="text_12">
     <!-- Feature Categories -->
     <g transform="translate(18.597656 216.945703) rotate(-90) scale(0.15 -0.15)">
      <defs>
       <path id="DejaVuSans-43" d="M 4122 4306 
L 4122 3641 
Q 3803 3938 3442 4084 
Q 3081 4231 2675 4231 
Q 1875 4231 1450 3742 
Q 1025 3253 1025 2328 
Q 1025 1406 1450 917 
Q 1875 428 2675 428 
Q 3081 428 3442 575 
Q 3803 722 4122 1019 
L 4122 359 
Q 3791 134 3420 21 
Q 3050 -91 2638 -91 
Q 1578 -91 968 557 
Q 359 1206 359 2328 
Q 359 3453 968 4101 
Q 1578 4750 2638 4750 
Q 3056 4750 3426 4639 
Q 3797 4528 4122 4306 
z
" transform="scale(0.015625)"/>
      </defs>
      <use xlink:href="#DejaVuSans-46"/>
      <use xlink:href="#DejaVuSans-65" x="52.019531"/>
      <use xlink:href="#DejaVuSans-61" x="113.542969"/>
      <use xlink:href="#DejaVuSans-74" x="174.822266"/>
      <use xlink:href="#DejaVuSans-75" x="214.03125"/>
      <use xlink:href="#DejaVuSans-72" x="277.410156"/>
      <use xlink:href="#DejaVuSans-65" x="316.273438"/>
      <use xlink:href="#DejaVuSans-20" x="377.796875"/>
      <use xlink:href="#DejaVuSans-43" x="409.583984"/>
      <use xlink:href="#DejaVuSans-61" x="479.408203"/>
      <use xlink:href="#DejaVuSans-74" x="540.6875"/>
      <use xlink:href="#DejaVuSans-65" x="579.896484"/>
      <use xlink:href="#DejaVuSans-67" x="641.419922"/>
      <use xlink:href="#DejaVuSans-6f" x="704.896484"/>
      <use xlink:href="#DejaVuSans-72" x="766.078125"/>
      <use xlink:href="#DejaVuSans-69" x="807.191406"/>
      <use xlink:href="#DejaVuSans-65" x="834.974609"/>
      <use xlink:href="#DejaVuSans-73" x="896.498047"/>
     </g>
    </g>
   </g>
   <g id="line2d_6">
    <defs>
     <path id="mc0d61ee435" d="M 0 -7.5 
L -1.683855 -2.317627 
L -7.132924 -2.317627 
L -2.724534 0.885255 
L -4.408389 6.067627 
L -0 2.864745 
L 4.408389 6.067627 
L 2.724534 0.885255 
L 7.132924 -2.317627 
L 1.683855 -2.317627 
z
" style="stroke: #b24526; stroke-opacity: 0.9; stroke-linejoin: bevel"/>
    </defs>
    <g clip-path="url(#p3605084062)">
     <use xlink:href="#mc0d61ee435" x="155.835844" y="252.27" style="fill: #b24526; fill-opacity: 0.9; stroke: #b24526; stroke-opacity: 0.9; stroke-linejoin: bevel"/>
     <use xlink:href="#mc0d61ee435" x="150.701722" y="201.87" style="fill: #b24526; fill-opacity: 0.9; stroke: #b24526; stroke-opacity: 0.9; stroke-linejoin: bevel"/>
     <use xlink:href="#mc0d61ee435" x="170.105467" y="151.47" style="fill: #b24526; fill-opacity: 0.9; stroke: #b24526; stroke-opacity: 0.9; stroke-linejoin: bevel"/>
     <use xlink:href="#mc0d61ee435" x="185.875059" y="101.07" style="fill: #b24526; fill-opacity: 0.9; stroke: #b24526; stroke-opacity: 0.9; stroke-linejoin: bevel"/>
     <use xlink:href="#mc0d61ee435" x="152.249808" y="50.67" style="fill: #b24526; fill-opacity: 0.9; stroke: #b24526; stroke-opacity: 0.9; stroke-linejoin: bevel"/>
    </g>
   </g>
   <g id="line2d_7">
    <defs>
     <path id="m5ca5acdf52" d="M 0 -7.5 
L -1.683855 -2.317627 
L -7.132924 -2.317627 
L -2.724534 0.885255 
L -4.408389 6.067627 
L -0 2.864745 
L 4.408389 6.067627 
L 2.724534 0.885255 
L 7.132924 -2.317627 
L 1.683855 -2.317627 
z
" style="stroke: #ff6d00; stroke-opacity: 0.9; stroke-linejoin: bevel"/>
    </defs>
    <g clip-path="url(#p3605084062)">
     <use xlink:href="#m5ca5acdf52" x="203.04328" y="251.01" style="fill: #ff6d00; fill-opacity: 0.9; stroke: #ff6d00; stroke-opacity: 0.9; stroke-linejoin: bevel"/>
     <use xlink:href="#m5ca5acdf52" x="200.727537" y="200.61" style="fill: #ff6d00; fill-opacity: 0.9; stroke: #ff6d00; stroke-opacity: 0.9; stroke-linejoin: bevel"/>
     <use xlink:href="#m5ca5acdf52" x="191.268147" y="150.21" style="fill: #ff6d00; fill-opacity: 0.9; stroke: #ff6d00; stroke-opacity: 0.9; stroke-linejoin: bevel"/>
     <use xlink:href="#m5ca5acdf52" x="191.042969" y="99.81" style="fill: #ff6d00; fill-opacity: 0.9; stroke: #ff6d00; stroke-opacity: 0.9; stroke-linejoin: bevel"/>
     <use xlink:href="#m5ca5acdf52" x="149.496799" y="49.41" style="fill: #ff6d00; fill-opacity: 0.9; stroke: #ff6d00; stroke-opacity: 0.9; stroke-linejoin: bevel"/>
    </g>
   </g>
   <g id="line2d_8">
    <defs>
     <path id="m63433d373a" d="M 0 -7.5 
L -1.683855 -2.317627 
L -7.132924 -2.317627 
L -2.724534 0.885255 
L -4.408389 6.067627 
L -0 2.864745 
L 4.408389 6.067627 
L 2.724534 0.885255 
L 7.132924 -2.317627 
L 1.683855 -2.317627 
z
" style="stroke: #c5cc00; stroke-opacity: 0.9; stroke-linejoin: bevel"/>
    </defs>
    <g clip-path="url(#p3605084062)">
     <use xlink:href="#m63433d373a" x="185.313769" y="249.75" style="fill: #c5cc00; fill-opacity: 0.9; stroke: #c5cc00; stroke-opacity: 0.9; stroke-linejoin: bevel"/>
     <use xlink:href="#m63433d373a" x="166.183489" y="199.35" style="fill: #c5cc00; fill-opacity: 0.9; stroke: #c5cc00; stroke-opacity: 0.9; stroke-linejoin: bevel"/>
     <use xlink:href="#m63433d373a" x="194.523394" y="148.95" style="fill: #c5cc00; fill-opacity: 0.9; stroke: #c5cc00; stroke-opacity: 0.9; stroke-linejoin: bevel"/>
     <use xlink:href="#m63433d373a" x="193.726374" y="98.55" style="fill: #c5cc00; fill-opacity: 0.9; stroke: #c5cc00; stroke-opacity: 0.9; stroke-linejoin: bevel"/>
     <use xlink:href="#m63433d373a" x="161.510533" y="48.15" style="fill: #c5cc00; fill-opacity: 0.9; stroke: #c5cc00; stroke-opacity: 0.9; stroke-linejoin: bevel"/>
    </g>
   </g>
   <g id="line2d_9">
    <defs>
     <path id="me277798fc4" d="M 0 -7.5 
L -1.683855 -2.317627 
L -7.132924 -2.317627 
L -2.724534 0.885255 
L -4.408389 6.067627 
L -0 2.864745 
L 4.408389 6.067627 
L 2.724534 0.885255 
L 7.132924 -2.317627 
L 1.683855 -2.317627 
z
" style="stroke: #009900; stroke-opacity: 0.9; stroke-linejoin: bevel"/>
    </defs>
    <g clip-path="url(#p3605084062)">
     <use xlink:href="#me277798fc4" x="204.21211" y="248.49" style="fill: #009900; fill-opacity: 0.9; stroke: #009900; stroke-opacity: 0.9; stroke-linejoin: bevel"/>
     <use xlink:href="#me277798fc4" x="180.35567" y="198.09" style="fill: #009900; fill-opacity: 0.9; stroke: #009900; stroke-opacity: 0.9; stroke-linejoin: bevel"/>
     <use xlink:href="#me277798fc4" x="173.710101" y="147.69" style="fill: #009900; fill-opacity: 0.9; stroke: #009900; stroke-opacity: 0.9; stroke-linejoin: bevel"/>
     <use xlink:href="#me277798fc4" x="479.153568" y="97.29" style="fill: #009900; fill-opacity: 0.9; stroke: #009900; stroke-opacity: 0.9; stroke-linejoin: bevel"/>
     <use xlink:href="#me277798fc4" x="217.622397" y="46.89" style="fill: #009900; fill-opacity: 0.9; stroke: #009900; stroke-opacity: 0.9; stroke-linejoin: bevel"/>
    </g>
   </g>
   <g id="line2d_10">
    <defs>
     <path id="m834f5bf0bb" d="M 0 -7.5 
L -1.683855 -2.317627 
L -7.132924 -2.317627 
L -2.724534 0.885255 
L -4.408389 6.067627 
L -0 2.864745 
L 4.408389 6.067627 
L 2.724534 0.885255 
L 7.132924 -2.317627 
L 1.683855 -2.317627 
z
" style="stroke: #00ffab; stroke-opacity: 0.9; stroke-linejoin: bevel"/>
    </defs>
    <g clip-path="url(#p3605084062)">
     <use xlink:href="#m834f5bf0bb" x="243.360056" y="247.23" style="fill: #00ffab; fill-opacity: 0.9; stroke: #00ffab; stroke-opacity: 0.9; stroke-linejoin: bevel"/>
     <use xlink:href="#m834f5bf0bb" x="170.296938" y="196.83" style="fill: #00ffab; fill-opacity: 0.9; stroke: #00ffab; stroke-opacity: 0.9; stroke-linejoin: bevel"/>
     <use xlink:href="#m834f5bf0bb" x="166.872755" y="146.43" style="fill: #00ffab; fill-opacity: 0.9; stroke: #00ffab; stroke-opacity: 0.9; stroke-linejoin: bevel"/>
     <use xlink:href="#m834f5bf0bb" x="169.824839" y="96.03" style="fill: #00ffab; fill-opacity: 0.9; stroke: #00ffab; stroke-opacity: 0.9; stroke-linejoin: bevel"/>
     <use xlink:href="#m834f5bf0bb" x="186.916632" y="45.63" style="fill: #00ffab; fill-opacity: 0.9; stroke: #00ffab; stroke-opacity: 0.9; stroke-linejoin: bevel"/>
    </g>
   </g>
   <g id="line2d_11">
    <defs>
     <path id="m168a5da52b" d="M 0 -7.5 
L -1.683855 -2.317627 
L -7.132924 -2.317627 
L -2.724534 0.885255 
L -4.408389 6.067627 
L -0 2.864745 
L 4.408389 6.067627 
L 2.724534 0.885255 
L 7.132924 -2.317627 
L 1.683855 -2.317627 
z
" style="stroke: #0090ff; stroke-opacity: 0.9; stroke-linejoin: bevel"/>
    </defs>
    <g clip-path="url(#p3605084062)">
     <use xlink:href="#m168a5da52b" x="240.322152" y="245.97" style="fill: #0090ff; fill-opacity: 0.9; stroke: #0090ff; stroke-opacity: 0.9; stroke-linejoin: bevel"/>
     <use xlink:href="#m168a5da52b" x="176.838872" y="195.57" style="fill: #0090ff; fill-opacity: 0.9; stroke: #0090ff; stroke-opacity: 0.9; stroke-linejoin: bevel"/>
     <use xlink:href="#m168a5da52b" x="166.013964" y="145.17" style="fill: #0090ff; fill-opacity: 0.9; stroke: #0090ff; stroke-opacity: 0.9; stroke-linejoin: bevel"/>
     <use xlink:href="#m168a5da52b" x="174.235672" y="94.77" style="fill: #0090ff; fill-opacity: 0.9; stroke: #0090ff; stroke-opacity: 0.9; stroke-linejoin: bevel"/>
     <use xlink:href="#m168a5da52b" x="163.732391" y="44.37" style="fill: #0090ff; fill-opacity: 0.9; stroke: #0090ff; stroke-opacity: 0.9; stroke-linejoin: bevel"/>
    </g>
   </g>
   <g id="line2d_12">
    <defs>
     <path id="m5c501e26ab" d="M 0 -7.5 
L -1.683855 -2.317627 
L -7.132924 -2.317627 
L -2.724534 0.885255 
L -4.408389 6.067627 
L -0 2.864745 
L 4.408389 6.067627 
L 2.724534 0.885255 
L 7.132924 -2.317627 
L 1.683855 -2.317627 
z
" style="stroke: #0200ff; stroke-opacity: 0.9; stroke-linejoin: bevel"/>
    </defs>
    <g clip-path="url(#p3605084062)">
     <use xlink:href="#m5c501e26ab" x="242.041949" y="244.71" style="fill: #0200ff; fill-opacity: 0.9; stroke: #0200ff; stroke-opacity: 0.9; stroke-linejoin: bevel"/>
     <use xlink:href="#m5c501e26ab" x="173.605465" y="194.31" style="fill: #0200ff; fill-opacity: 0.9; stroke: #0200ff; stroke-opacity: 0.9; stroke-linejoin: bevel"/>
     <use xlink:href="#m5c501e26ab" x="166.096715" y="143.91" style="fill: #0200ff; fill-opacity: 0.9; stroke: #0200ff; stroke-opacity: 0.9; stroke-linejoin: bevel"/>
     <use xlink:href="#m5c501e26ab" x="175.706276" y="93.51" style="fill: #0200ff; fill-opacity: 0.9; stroke: #0200ff; stroke-opacity: 0.9; stroke-linejoin: bevel"/>
     <use xlink:href="#m5c501e26ab" x="174.776982" y="43.11" style="fill: #0200ff; fill-opacity: 0.9; stroke: #0200ff; stroke-opacity: 0.9; stroke-linejoin: bevel"/>
    </g>
   </g>
   <g id="line2d_13">
    <defs>
     <path id="m48ab0c1405" d="M 0 -7.5 
L -1.683855 -2.317627 
L -7.132924 -2.317627 
L -2.724534 0.885255 
L -4.408389 6.067627 
L -0 2.864745 
L 4.408389 6.067627 
L 2.724534 0.885255 
L 7.132924 -2.317627 
L 1.683855 -2.317627 
z
" style="stroke: #dc00ff; stroke-opacity: 0.9; stroke-linejoin: bevel"/>
    </defs>
    <g clip-path="url(#p3605084062)">
     <use xlink:href="#m48ab0c1405" x="257.783744" y="243.45" style="fill: #dc00ff; fill-opacity: 0.9; stroke: #dc00ff; stroke-opacity: 0.9; stroke-linejoin: bevel"/>
     <use xlink:href="#m48ab0c1405" x="180.745236" y="193.05" style="fill: #dc00ff; fill-opacity: 0.9; stroke: #dc00ff; stroke-opacity: 0.9; stroke-linejoin: bevel"/>
     <use xlink:href="#m48ab0c1405" x="166.705812" y="142.65" style="fill: #dc00ff; fill-opacity: 0.9; stroke: #dc00ff; stroke-opacity: 0.9; stroke-linejoin: bevel"/>
     <use xlink:href="#m48ab0c1405" x="175.290436" y="92.25" style="fill: #dc00ff; fill-opacity: 0.9; stroke: #dc00ff; stroke-opacity: 0.9; stroke-linejoin: bevel"/>
     <use xlink:href="#m48ab0c1405" x="157.243086" y="41.85" style="fill: #dc00ff; fill-opacity: 0.9; stroke: #dc00ff; stroke-opacity: 0.9; stroke-linejoin: bevel"/>
    </g>
   </g>
   <g id="line2d_14">
    <defs>
     <path id="m37303662b9" d="M 0 -7.5 
L -1.683855 -2.317627 
L -7.132924 -2.317627 
L -2.724534 0.885255 
L -4.408389 6.067627 
L -0 2.864745 
L 4.408389 6.067627 
L 2.724534 0.885255 
L 7.132924 -2.317627 
L 1.683855 -2.317627 
z
" style="stroke: #ff0039; stroke-opacity: 0.9; stroke-linejoin: bevel"/>
    </defs>
    <g clip-path="url(#p3605084062)">
     <use xlink:href="#m37303662b9" x="254.169624" y="242.19" style="fill: #ff0039; fill-opacity: 0.9; stroke: #ff0039; stroke-opacity: 0.9; stroke-linejoin: bevel"/>
     <use xlink:href="#m37303662b9" x="176.75604" y="191.79" style="fill: #ff0039; fill-opacity: 0.9; stroke: #ff0039; stroke-opacity: 0.9; stroke-linejoin: bevel"/>
     <use xlink:href="#m37303662b9" x="166.382501" y="141.39" style="fill: #ff0039; fill-opacity: 0.9; stroke: #ff0039; stroke-opacity: 0.9; stroke-linejoin: bevel"/>
     <use xlink:href="#m37303662b9" x="175.589467" y="90.99" style="fill: #ff0039; fill-opacity: 0.9; stroke: #ff0039; stroke-opacity: 0.9; stroke-linejoin: bevel"/>
     <use xlink:href="#m37303662b9" x="159.301373" y="40.59" style="fill: #ff0039; fill-opacity: 0.9; stroke: #ff0039; stroke-opacity: 0.9; stroke-linejoin: bevel"/>
    </g>
   </g>
   <g id="LineCollection_1">
    <path d="M 138.516406 271.8 
L 495.636406 271.8 
" clip-path="url(#p3605084062)" style="fill: none; stroke: #d3d3d3"/>
   </g>
   <g id="LineCollection_2">
    <path d="M 138.516406 221.4 
L 495.636406 221.4 
" clip-path="url(#p3605084062)" style="fill: none; stroke: #d3d3d3"/>
   </g>
   <g id="LineCollection_3">
    <path d="M 138.516406 171 
L 495.636406 171 
" clip-path="url(#p3605084062)" style="fill: none; stroke: #d3d3d3"/>
   </g>
   <g id="LineCollection_4">
    <path d="M 138.516406 120.6 
L 495.636406 120.6 
" clip-path="url(#p3605084062)" style="fill: none; stroke: #d3d3d3"/>
   </g>
   <g id="LineCollection_5">
    <path d="M 138.516406 70.2 
L 495.636406 70.2 
" clip-path="url(#p3605084062)" style="fill: none; stroke: #d3d3d3"/>
   </g>
   <g id="LineCollection_6">
    <path d="M 138.516406 19.8 
L 495.636406 19.8 
" clip-path="url(#p3605084062)" style="fill: none; stroke: #d3d3d3"/>
   </g>
   <g id="legend_1">
    <g id="line2d_15">
     <g>
      <use xlink:href="#mc0d61ee435" x="524.136406" y="26.847656" style="fill: #b24526; fill-opacity: 0.9; stroke: #b24526; stroke-opacity: 0.9; stroke-linejoin: bevel"/>
     </g>
    </g>
    <g id="text_13">
     <!-- Chiovini 2014 -->
     <g transform="translate(551.136406 32.097656) scale(0.15 -0.15)">
      <defs>
       <path id="DejaVuSans-76" d="M 191 3500 
L 800 3500 
L 1894 563 
L 2988 3500 
L 3597 3500 
L 2284 0 
L 1503 0 
L 191 3500 
z
" transform="scale(0.015625)"/>
       <path id="DejaVuSans-34" d="M 2419 4116 
L 825 1625 
L 2419 1625 
L 2419 4116 
z
M 2253 4666 
L 3047 4666 
L 3047 1625 
L 3713 1625 
L 3713 1100 
L 3047 1100 
L 3047 0 
L 2419 0 
L 2419 1100 
L 313 1100 
L 313 1709 
L 2253 4666 
z
" transform="scale(0.015625)"/>
      </defs>
      <use xlink:href="#DejaVuSans-43"/>
      <use xlink:href="#DejaVuSans-68" x="69.824219"/>
      <use xlink:href="#DejaVuSans-69" x="133.203125"/>
      <use xlink:href="#DejaVuSans-6f" x="160.986328"/>
      <use xlink:href="#DejaVuSans-76" x="222.167969"/>
      <use xlink:href="#DejaVuSans-69" x="281.347656"/>
      <use xlink:href="#DejaVuSans-6e" x="309.130859"/>
      <use xlink:href="#DejaVuSans-69" x="372.509766"/>
      <use xlink:href="#DejaVuSans-20" x="400.292969"/>
      <use xlink:href="#DejaVuSans-32" x="432.080078"/>
      <use xlink:href="#DejaVuSans-30" x="495.703125"/>
      <use xlink:href="#DejaVuSans-31" x="559.326172"/>
      <use xlink:href="#DejaVuSans-34" x="622.949219"/>
     </g>
    </g>
    <g id="line2d_16">
     <g>
      <use xlink:href="#m5ca5acdf52" x="524.136406" y="48.864844" style="fill: #ff6d00; fill-opacity: 0.9; stroke: #ff6d00; stroke-opacity: 0.9; stroke-linejoin: bevel"/>
     </g>
    </g>
    <g id="text_14">
     <!-- Ferr&amp;Asco 2015 -->
     <g transform="translate(551.136406 54.114844) scale(0.15 -0.15)">
      <defs>
       <path id="DejaVuSans-26" d="M 1556 2509 
Q 1272 2256 1139 2004 
Q 1006 1753 1006 1478 
Q 1006 1022 1337 719 
Q 1669 416 2169 416 
Q 2466 416 2725 514 
Q 2984 613 3213 813 
L 1556 2509 
z
M 1997 2859 
L 3584 1234 
Q 3769 1513 3872 1830 
Q 3975 2147 3994 2503 
L 4575 2503 
Q 4538 2091 4375 1687 
Q 4213 1284 3922 891 
L 4794 0 
L 4006 0 
L 3559 459 
Q 3234 181 2878 45 
Q 2522 -91 2113 -91 
Q 1359 -91 881 339 
Q 403 769 403 1441 
Q 403 1841 612 2192 
Q 822 2544 1241 2853 
Q 1091 3050 1012 3245 
Q 934 3441 934 3628 
Q 934 4134 1281 4442 
Q 1628 4750 2203 4750 
Q 2463 4750 2720 4694 
Q 2978 4638 3244 4525 
L 3244 3956 
Q 2972 4103 2725 4179 
Q 2478 4256 2266 4256 
Q 1938 4256 1733 4082 
Q 1528 3909 1528 3634 
Q 1528 3475 1620 3314 
Q 1713 3153 1997 2859 
z
" transform="scale(0.015625)"/>
      </defs>
      <use xlink:href="#DejaVuSans-46"/>
      <use xlink:href="#DejaVuSans-65" x="52.019531"/>
      <use xlink:href="#DejaVuSans-72" x="113.542969"/>
      <use xlink:href="#DejaVuSans-72" x="152.90625"/>
      <use xlink:href="#DejaVuSans-26" x="194.019531"/>
      <use xlink:href="#DejaVuSans-41" x="271.998047"/>
      <use xlink:href="#DejaVuSans-73" x="340.40625"/>
      <use xlink:href="#DejaVuSans-63" x="392.505859"/>
      <use xlink:href="#DejaVuSans-6f" x="447.486328"/>
      <use xlink:href="#DejaVuSans-20" x="508.667969"/>
      <use xlink:href="#DejaVuSans-32" x="540.455078"/>
      <use xlink:href="#DejaVuSans-30" x="604.078125"/>
      <use xlink:href="#DejaVuSans-31" x="667.701172"/>
      <use xlink:href="#DejaVuSans-35" x="731.324219"/>
     </g>
    </g>
    <g id="line2d_17">
     <g>
      <use xlink:href="#m63433d373a" x="524.136406" y="70.882031" style="fill: #c5cc00; fill-opacity: 0.9; stroke: #c5cc00; stroke-opacity: 0.9; stroke-linejoin: bevel"/>
     </g>
    </g>
    <g id="text_15">
     <!-- Migliore 2018 -->
     <g transform="translate(551.136406 76.132031) scale(0.15 -0.15)">
      <defs>
       <path id="DejaVuSans-4d" d="M 628 4666 
L 1569 4666 
L 2759 1491 
L 3956 4666 
L 4897 4666 
L 4897 0 
L 4281 0 
L 4281 4097 
L 3078 897 
L 2444 897 
L 1241 4097 
L 1241 0 
L 628 0 
L 628 4666 
z
" transform="scale(0.015625)"/>
       <path id="DejaVuSans-38" d="M 2034 2216 
Q 1584 2216 1326 1975 
Q 1069 1734 1069 1313 
Q 1069 891 1326 650 
Q 1584 409 2034 409 
Q 2484 409 2743 651 
Q 3003 894 3003 1313 
Q 3003 1734 2745 1975 
Q 2488 2216 2034 2216 
z
M 1403 2484 
Q 997 2584 770 2862 
Q 544 3141 544 3541 
Q 544 4100 942 4425 
Q 1341 4750 2034 4750 
Q 2731 4750 3128 4425 
Q 3525 4100 3525 3541 
Q 3525 3141 3298 2862 
Q 3072 2584 2669 2484 
Q 3125 2378 3379 2068 
Q 3634 1759 3634 1313 
Q 3634 634 3220 271 
Q 2806 -91 2034 -91 
Q 1263 -91 848 271 
Q 434 634 434 1313 
Q 434 1759 690 2068 
Q 947 2378 1403 2484 
z
M 1172 3481 
Q 1172 3119 1398 2916 
Q 1625 2713 2034 2713 
Q 2441 2713 2670 2916 
Q 2900 3119 2900 3481 
Q 2900 3844 2670 4047 
Q 2441 4250 2034 4250 
Q 1625 4250 1398 4047 
Q 1172 3844 1172 3481 
z
" transform="scale(0.015625)"/>
      </defs>
      <use xlink:href="#DejaVuSans-4d"/>
      <use xlink:href="#DejaVuSans-69" x="86.279297"/>
      <use xlink:href="#DejaVuSans-67" x="114.0625"/>
      <use xlink:href="#DejaVuSans-6c" x="177.539062"/>
      <use xlink:href="#DejaVuSans-69" x="205.322266"/>
      <use xlink:href="#DejaVuSans-6f" x="233.105469"/>
      <use xlink:href="#DejaVuSans-72" x="294.287109"/>
      <use xlink:href="#DejaVuSans-65" x="333.150391"/>
      <use xlink:href="#DejaVuSans-20" x="394.673828"/>
      <use xlink:href="#DejaVuSans-32" x="426.460938"/>
      <use xlink:href="#DejaVuSans-30" x="490.083984"/>
      <use xlink:href="#DejaVuSans-31" x="553.707031"/>
      <use xlink:href="#DejaVuSans-38" x="617.330078"/>
     </g>
    </g>
    <g id="line2d_18">
     <g>
      <use xlink:href="#me277798fc4" x="524.136406" y="92.899219" style="fill: #009900; fill-opacity: 0.9; stroke: #009900; stroke-opacity: 0.9; stroke-linejoin: bevel"/>
     </g>
    </g>
    <g id="text_16">
     <!-- Saraga 2006 6.3C -->
     <g transform="translate(551.136406 98.149219) scale(0.15 -0.15)">
      <defs>
       <path id="DejaVuSans-36" d="M 2113 2584 
Q 1688 2584 1439 2293 
Q 1191 2003 1191 1497 
Q 1191 994 1439 701 
Q 1688 409 2113 409 
Q 2538 409 2786 701 
Q 3034 994 3034 1497 
Q 3034 2003 2786 2293 
Q 2538 2584 2113 2584 
z
M 3366 4563 
L 3366 3988 
Q 3128 4100 2886 4159 
Q 2644 4219 2406 4219 
Q 1781 4219 1451 3797 
Q 1122 3375 1075 2522 
Q 1259 2794 1537 2939 
Q 1816 3084 2150 3084 
Q 2853 3084 3261 2657 
Q 3669 2231 3669 1497 
Q 3669 778 3244 343 
Q 2819 -91 2113 -91 
Q 1303 -91 875 529 
Q 447 1150 447 2328 
Q 447 3434 972 4092 
Q 1497 4750 2381 4750 
Q 2619 4750 2861 4703 
Q 3103 4656 3366 4563 
z
" transform="scale(0.015625)"/>
       <path id="DejaVuSans-2e" d="M 684 794 
L 1344 794 
L 1344 0 
L 684 0 
L 684 794 
z
" transform="scale(0.015625)"/>
       <path id="DejaVuSans-33" d="M 2597 2516 
Q 3050 2419 3304 2112 
Q 3559 1806 3559 1356 
Q 3559 666 3084 287 
Q 2609 -91 1734 -91 
Q 1441 -91 1130 -33 
Q 819 25 488 141 
L 488 750 
Q 750 597 1062 519 
Q 1375 441 1716 441 
Q 2309 441 2620 675 
Q 2931 909 2931 1356 
Q 2931 1769 2642 2001 
Q 2353 2234 1838 2234 
L 1294 2234 
L 1294 2753 
L 1863 2753 
Q 2328 2753 2575 2939 
Q 2822 3125 2822 3475 
Q 2822 3834 2567 4026 
Q 2313 4219 1838 4219 
Q 1578 4219 1281 4162 
Q 984 4106 628 3988 
L 628 4550 
Q 988 4650 1302 4700 
Q 1616 4750 1894 4750 
Q 2613 4750 3031 4423 
Q 3450 4097 3450 3541 
Q 3450 3153 3228 2886 
Q 3006 2619 2597 2516 
z
" transform="scale(0.015625)"/>
      </defs>
      <use xlink:href="#DejaVuSans-53"/>
      <use xlink:href="#DejaVuSans-61" x="63.476562"/>
      <use xlink:href="#DejaVuSans-72" x="124.755859"/>
      <use xlink:href="#DejaVuSans-61" x="165.869141"/>
      <use xlink:href="#DejaVuSans-67" x="227.148438"/>
      <use xlink:href="#DejaVuSans-61" x="290.625"/>
      <use xlink:href="#DejaVuSans-20" x="351.904297"/>
      <use xlink:href="#DejaVuSans-32" x="383.691406"/>
      <use xlink:href="#DejaVuSans-30" x="447.314453"/>
      <use xlink:href="#DejaVuSans-30" x="510.9375"/>
      <use xlink:href="#DejaVuSans-36" x="574.560547"/>
      <use xlink:href="#DejaVuSans-20" x="638.183594"/>
      <use xlink:href="#DejaVuSans-36" x="669.970703"/>
      <use xlink:href="#DejaVuSans-2e" x="733.59375"/>
      <use xlink:href="#DejaVuSans-33" x="765.380859"/>
      <use xlink:href="#DejaVuSans-43" x="829.003906"/>
     </g>
    </g>
    <g id="line2d_19">
     <g>
      <use xlink:href="#m834f5bf0bb" x="524.136406" y="114.916406" style="fill: #00ffab; fill-opacity: 0.9; stroke: #00ffab; stroke-opacity: 0.9; stroke-linejoin: bevel"/>
     </g>
    </g>
    <g id="text_17">
     <!-- Tzilivaki.1 2019 -->
     <g transform="translate(551.136406 120.166406) scale(0.15 -0.15)">
      <defs>
       <path id="DejaVuSans-54" d="M -19 4666 
L 3928 4666 
L 3928 4134 
L 2272 4134 
L 2272 0 
L 1638 0 
L 1638 4134 
L -19 4134 
L -19 4666 
z
" transform="scale(0.015625)"/>
       <path id="DejaVuSans-7a" d="M 353 3500 
L 3084 3500 
L 3084 2975 
L 922 459 
L 3084 459 
L 3084 0 
L 275 0 
L 275 525 
L 2438 3041 
L 353 3041 
L 353 3500 
z
" transform="scale(0.015625)"/>
       <path id="DejaVuSans-6b" d="M 581 4863 
L 1159 4863 
L 1159 1991 
L 2875 3500 
L 3609 3500 
L 1753 1863 
L 3688 0 
L 2938 0 
L 1159 1709 
L 1159 0 
L 581 0 
L 581 4863 
z
" transform="scale(0.015625)"/>
       <path id="DejaVuSans-39" d="M 703 97 
L 703 672 
Q 941 559 1184 500 
Q 1428 441 1663 441 
Q 2288 441 2617 861 
Q 2947 1281 2994 2138 
Q 2813 1869 2534 1725 
Q 2256 1581 1919 1581 
Q 1219 1581 811 2004 
Q 403 2428 403 3163 
Q 403 3881 828 4315 
Q 1253 4750 1959 4750 
Q 2769 4750 3195 4129 
Q 3622 3509 3622 2328 
Q 3622 1225 3098 567 
Q 2575 -91 1691 -91 
Q 1453 -91 1209 -44 
Q 966 3 703 97 
z
M 1959 2075 
Q 2384 2075 2632 2365 
Q 2881 2656 2881 3163 
Q 2881 3666 2632 3958 
Q 2384 4250 1959 4250 
Q 1534 4250 1286 3958 
Q 1038 3666 1038 3163 
Q 1038 2656 1286 2365 
Q 1534 2075 1959 2075 
z
" transform="scale(0.015625)"/>
      </defs>
      <use xlink:href="#DejaVuSans-54"/>
      <use xlink:href="#DejaVuSans-7a" x="61.083984"/>
      <use xlink:href="#DejaVuSans-69" x="113.574219"/>
      <use xlink:href="#DejaVuSans-6c" x="141.357422"/>
      <use xlink:href="#DejaVuSans-69" x="169.140625"/>
      <use xlink:href="#DejaVuSans-76" x="196.923828"/>
      <use xlink:href="#DejaVuSans-61" x="256.103516"/>
      <use xlink:href="#DejaVuSans-6b" x="317.382812"/>
      <use xlink:href="#DejaVuSans-69" x="375.292969"/>
      <use xlink:href="#DejaVuSans-2e" x="403.076172"/>
      <use xlink:href="#DejaVuSans-31" x="434.863281"/>
      <use xlink:href="#DejaVuSans-20" x="498.486328"/>
      <use xlink:href="#DejaVuSans-32" x="530.273438"/>
      <use xlink:href="#DejaVuSans-30" x="593.896484"/>
      <use xlink:href="#DejaVuSans-31" x="657.519531"/>
      <use xlink:href="#DejaVuSans-39" x="721.142578"/>
     </g>
    </g>
    <g id="line2d_20">
     <g>
      <use xlink:href="#m168a5da52b" x="524.136406" y="136.933594" style="fill: #0090ff; fill-opacity: 0.9; stroke: #0090ff; stroke-opacity: 0.9; stroke-linejoin: bevel"/>
     </g>
    </g>
    <g id="text_18">
     <!-- Tzilivaki.2 2019 -->
     <g transform="translate(551.136406 142.183594) scale(0.15 -0.15)">
      <use xlink:href="#DejaVuSans-54"/>
      <use xlink:href="#DejaVuSans-7a" x="61.083984"/>
      <use xlink:href="#DejaVuSans-69" x="113.574219"/>
      <use xlink:href="#DejaVuSans-6c" x="141.357422"/>
      <use xlink:href="#DejaVuSans-69" x="169.140625"/>
      <use xlink:href="#DejaVuSans-76" x="196.923828"/>
      <use xlink:href="#DejaVuSans-61" x="256.103516"/>
      <use xlink:href="#DejaVuSans-6b" x="317.382812"/>
      <use xlink:href="#DejaVuSans-69" x="375.292969"/>
      <use xlink:href="#DejaVuSans-2e" x="403.076172"/>
      <use xlink:href="#DejaVuSans-32" x="434.863281"/>
      <use xlink:href="#DejaVuSans-20" x="498.486328"/>
      <use xlink:href="#DejaVuSans-32" x="530.273438"/>
      <use xlink:href="#DejaVuSans-30" x="593.896484"/>
      <use xlink:href="#DejaVuSans-31" x="657.519531"/>
      <use xlink:href="#DejaVuSans-39" x="721.142578"/>
     </g>
    </g>
    <g id="line2d_21">
     <g>
      <use xlink:href="#m5c501e26ab" x="524.136406" y="158.950781" style="fill: #0200ff; fill-opacity: 0.9; stroke: #0200ff; stroke-opacity: 0.9; stroke-linejoin: bevel"/>
     </g>
    </g>
    <g id="text_19">
     <!-- Tzilivaki.3 2019 -->
     <g transform="translate(551.136406 164.200781) scale(0.15 -0.15)">
      <use xlink:href="#DejaVuSans-54"/>
      <use xlink:href="#DejaVuSans-7a" x="61.083984"/>
      <use xlink:href="#DejaVuSans-69" x="113.574219"/>
      <use xlink:href="#DejaVuSans-6c" x="141.357422"/>
      <use xlink:href="#DejaVuSans-69" x="169.140625"/>
      <use xlink:href="#DejaVuSans-76" x="196.923828"/>
      <use xlink:href="#DejaVuSans-61" x="256.103516"/>
      <use xlink:href="#DejaVuSans-6b" x="317.382812"/>
      <use xlink:href="#DejaVuSans-69" x="375.292969"/>
      <use xlink:href="#DejaVuSans-2e" x="403.076172"/>
      <use xlink:href="#DejaVuSans-33" x="434.863281"/>
      <use xlink:href="#DejaVuSans-20" x="498.486328"/>
      <use xlink:href="#DejaVuSans-32" x="530.273438"/>
      <use xlink:href="#DejaVuSans-30" x="593.896484"/>
      <use xlink:href="#DejaVuSans-31" x="657.519531"/>
      <use xlink:href="#DejaVuSans-39" x="721.142578"/>
     </g>
    </g>
    <g id="line2d_22">
     <g>
      <use xlink:href="#m48ab0c1405" x="524.136406" y="180.967969" style="fill: #dc00ff; fill-opacity: 0.9; stroke: #dc00ff; stroke-opacity: 0.9; stroke-linejoin: bevel"/>
     </g>
    </g>
    <g id="text_20">
     <!-- Tzilivaki.4 2019 -->
     <g transform="translate(551.136406 186.217969) scale(0.15 -0.15)">
      <use xlink:href="#DejaVuSans-54"/>
      <use xlink:href="#DejaVuSans-7a" x="61.083984"/>
      <use xlink:href="#DejaVuSans-69" x="113.574219"/>
      <use xlink:href="#DejaVuSans-6c" x="141.357422"/>
      <use xlink:href="#DejaVuSans-69" x="169.140625"/>
      <use xlink:href="#DejaVuSans-76" x="196.923828"/>
      <use xlink:href="#DejaVuSans-61" x="256.103516"/>
      <use xlink:href="#DejaVuSans-6b" x="317.382812"/>
      <use xlink:href="#DejaVuSans-69" x="375.292969"/>
      <use xlink:href="#DejaVuSans-2e" x="403.076172"/>
      <use xlink:href="#DejaVuSans-34" x="434.863281"/>
      <use xlink:href="#DejaVuSans-20" x="498.486328"/>
      <use xlink:href="#DejaVuSans-32" x="530.273438"/>
      <use xlink:href="#DejaVuSans-30" x="593.896484"/>
      <use xlink:href="#DejaVuSans-31" x="657.519531"/>
      <use xlink:href="#DejaVuSans-39" x="721.142578"/>
     </g>
    </g>
    <g id="line2d_23">
     <g>
      <use xlink:href="#m37303662b9" x="524.136406" y="202.985156" style="fill: #ff0039; fill-opacity: 0.9; stroke: #ff0039; stroke-opacity: 0.9; stroke-linejoin: bevel"/>
     </g>
    </g>
    <g id="text_21">
     <!-- Tzilivaki.5 2019 -->
     <g transform="translate(551.136406 208.235156) scale(0.15 -0.15)">
      <use xlink:href="#DejaVuSans-54"/>
      <use xlink:href="#DejaVuSans-7a" x="61.083984"/>
      <use xlink:href="#DejaVuSans-69" x="113.574219"/>
      <use xlink:href="#DejaVuSans-6c" x="141.357422"/>
      <use xlink:href="#DejaVuSans-69" x="169.140625"/>
      <use xlink:href="#DejaVuSans-76" x="196.923828"/>
      <use xlink:href="#DejaVuSans-61" x="256.103516"/>
      <use xlink:href="#DejaVuSans-6b" x="317.382812"/>
      <use xlink:href="#DejaVuSans-69" x="375.292969"/>
      <use xlink:href="#DejaVuSans-2e" x="403.076172"/>
      <use xlink:href="#DejaVuSans-35" x="434.863281"/>
      <use xlink:href="#DejaVuSans-20" x="498.486328"/>
      <use xlink:href="#DejaVuSans-32" x="530.273438"/>
      <use xlink:href="#DejaVuSans-30" x="593.896484"/>
      <use xlink:href="#DejaVuSans-31" x="657.519531"/>
      <use xlink:href="#DejaVuSans-39" x="721.142578"/>
     </g>
    </g>
   </g>
  </g>
 </g>
 <defs>
  <clipPath id="p3605084062">
   <rect x="138.516406" y="7.2" width="357.12" height="277.2"/>
  </clipPath>
 </defs>
</svg>
