<?xml version="1.0" encoding="utf-8" standalone="no"?>
<!DOCTYPE svg PUBLIC "-//W3C//DTD SVG 1.1//EN"
  "http://www.w3.org/Graphics/SVG/1.1/DTD/svg11.dtd">
<svg xmlns:xlink="http://www.w3.org/1999/xlink" width="576pt" height="288pt" viewBox="0 0 576 288" xmlns="http://www.w3.org/2000/svg" version="1.1">
 <metadata>
  <rdf:RDF xmlns:dc="http://purl.org/dc/elements/1.1/" xmlns:cc="http://creativecommons.org/ns#" xmlns:rdf="http://www.w3.org/1999/02/22-rdf-syntax-ns#">
   <cc:Work>
    <dc:type rdf:resource="http://purl.org/dc/dcmitype/StillImage"/>
    <dc:date>2024-09-24T18:58:20.327259</dc:date>
    <dc:format>image/svg+xml</dc:format>
    <dc:creator>
     <cc:Agent>
      <dc:title>Matplotlib v3.7.4, https://matplotlib.org/</dc:title>
     </cc:Agent>
    </dc:creator>
   </cc:Work>
  </rdf:RDF>
 </metadata>
 <defs>
  <style type="text/css">*{stroke-linejoin: round; stroke-linecap: butt}</style>
 </defs>
 <g id="figure_1">
  <g id="patch_1">
   <path d="M 0 288 
L 576 288 
L 576 0 
L 0 0 
z
" style="fill: #ffffff"/>
  </g>
  <g id="axes_1">
   <g id="line2d_1">
    <path d="M 15 233.76 
L 17.57075 233.244232 
L 20.767125 232.840994 
L 25.021375 232.54144 
L 31.277625 232.342517 
L 42.538875 232.240553 
L 81.6575 232.218031 
L 106.0455 232.124244 
L 107.52425 229.342313 
L 109.66275 225.851402 
L 111.585125 222.58093 
L 112.552 220.48573 
L 113.245875 218.450857 
L 113.769125 216.228826 
L 114.178625 213.472888 
L 114.474375 209.9146 
L 114.679125 204.696278 
L 114.80425 195.85065 
L 114.883875 168.59904 
L 114.997625 99.558597 
L 115.0545 110.863569 
L 115.452625 226.786165 
L 115.66875 233.804524 
L 115.8735 235.083737 
L 116.021375 235.160928 
L 116.03275 235.154326 
L 116.2375 234.886371 
L 116.92 233.451174 
L 118.478375 230.335254 
L 120.2415 227.341261 
L 123.22175 222.34388 
L 124.143125 220.291082 
L 124.81425 218.25939 
L 125.326125 216.00113 
L 125.72425 213.191456 
L 126.008625 209.571676 
L 126.213375 203.852781 
L 126.3385 192.786794 
L 126.40675 161.230446 
L 126.509125 99.626934 
L 126.566 109.759877 
L 126.986875 227.985404 
L 127.203 234.042031 
L 127.40775 235.117195 
L 127.555625 235.148691 
L 127.77175 234.851173 
L 128.556625 233.187612 
L 130.080875 230.17509 
L 131.8895 227.127319 
L 134.676375 222.460925 
L 135.6205 220.38625 
L 136.303 218.351931 
L 136.82625 216.079548 
L 137.224375 213.323853 
L 137.520125 209.625994 
L 137.724875 203.99031 
L 137.85 193.330189 
L 137.91825 164.070759 
L 138.032 99.627032 
L 138.0775 108.702443 
L 138.50975 228.441387 
L 138.725875 234.132043 
L 138.930625 235.12865 
L 139.0785 235.142441 
L 139.306 234.815005 
L 140.216 232.878606 
L 141.728875 229.934805 
L 143.60575 226.80545 
L 146.131 222.576538 
L 147.097875 220.480069 
L 147.79175 218.442983 
L 148.315 216.217019 
L 148.7245 213.453052 
L 149.02025 209.876579 
L 149.225 204.605563 
L 149.350125 195.549506 
L 149.418375 175.148685 
L 149.5435 99.559124 
L 149.600375 111.702947 
L 149.987125 226.166592 
L 150.20325 233.681581 
L 150.419375 235.088009 
L 150.56725 235.159712 
L 150.578625 235.15286 
L 150.783375 234.882404 
L 151.47725 233.421643 
L 153.035625 230.31035 
L 154.810125 227.301116 
L 157.744875 222.384095 
L 158.677625 220.314579 
L 159.360125 218.25125 
L 159.872 215.988796 
L 160.270125 213.170511 
L 160.5545 209.531198 
L 160.75925 203.749275 
L 160.884375 192.365015 
L 160.952625 159.03421 
L 161.055 99.568849 
L 161.1005 106.729629 
L 161.566875 229.782451 
L 161.783 234.394806 
L 161.98775 235.156706 
L 162.12425 235.128176 
L 162.3745 234.740162 
L 166.298875 227.342537 
L 169.279125 222.34544 
L 170.2005 220.293129 
L 170.871625 218.262261 
L 171.3835 216.005478 
L 171.781625 213.198833 
L 172.077375 209.378625 
L 172.27075 203.888947 
L 172.395875 192.931535 
L 172.464125 161.986936 
L 172.5665 99.657929 
L 172.623375 109.479567 
L 173.04425 227.94045 
L 173.260375 234.033145 
L 173.465125 235.116023 
L 173.613 235.149255 
L 173.829125 234.85261 
L 174.602625 233.213766 
L 176.13825 230.176529 
L 177.946875 227.128589 
L 180.73375 222.462466 
L 181.677875 220.388268 
L 182.360375 218.354755 
L 182.883625 216.083832 
L 183.28175 213.331049 
L 183.5775 209.640084 
L 183.78225 204.025733 
L 183.907375 193.467122 
L 183.975625 164.78488 
L 184.089375 99.60192 
L 184.134875 108.434074 
L 184.567125 228.399165 
L 184.78325 234.123718 
L 184.988 235.127624 
L 185.135875 235.143062 
L 185.363375 234.816479 
L 186.262 232.904399 
L 187.774875 229.956581 
L 189.65175 226.824829 
L 192.188375 222.578061 
L 193.15525 220.482059 
L 193.849125 218.445763 
L 194.372375 216.221195 
L 194.781875 213.460076 
L 195.077625 209.890062 
L 195.282375 204.637812 
L 195.4075 195.657275 
L 195.47575 175.644908 
L 195.600875 99.554106 
L 195.669125 115.942083 
L 196.02175 224.355387 
L 196.237875 233.32231 
L 196.454 235.0363 
L 196.61325 235.165598 
L 196.624625 235.160143 
L 196.818 234.923159 
L 197.420875 233.67066 
L 199.036125 230.416012 
L 200.787875 227.430391 
L 203.84775 222.296174 
L 204.769125 220.228354 
L 205.44025 218.171141 
L 205.952125 215.866822 
L 206.338875 213.070823 
L 206.62325 209.336751 
L 206.816625 203.786007 
L 206.94175 192.515993 
L 207.01 159.818393 
L 207.112375 99.584373 
L 207.157875 106.486909 
L 207.635625 230.219853 
L 207.85175 234.479504 
L 208.0565 235.163482 
L 208.193 235.117983 
L 208.466 234.674699 
L 211.833 228.194314 
L 215.67775 221.649243 
L 216.508125 219.615293 
L 217.122375 217.5185 
L 217.58875 215.132197 
L 217.941375 212.161791 
L 218.203 207.968141 
L 218.373625 201.475043 
L 218.476 187.935319 
L 218.555625 128.312148 
L 218.63525 99.686431 
L 218.68075 109.202316 
L 219.101625 227.895227 
L 219.31775 234.024205 
L 219.5225 235.114837 
L 219.670375 235.149812 
L 219.8865 234.854046 
L 220.66 233.215473 
L 222.195625 230.177968 
L 224.00425 227.129859 
L 226.791125 222.464007 
L 227.73525 220.390285 
L 228.41775 218.357579 
L 228.941 216.088114 
L 229.339125 213.338236 
L 229.634875 209.654139 
L 229.839625 204.060967 
L 229.96475 193.602129 
L 230.033 165.487268 
L 230.14675 99.582009 
L 230.19225 108.168919 
L 230.635875 228.941758 
L 230.852 234.230498 
L 231.05675 235.140211 
L 231.204625 235.134338 
L 231.4435 234.775204 
L 232.581 232.358952 
L 234.093875 229.495343 
L 236.164125 226.103073 
L 238.211625 222.644798 
L 239.189875 220.540798 
L 239.895125 218.4882 
L 240.42975 216.225367 
L 240.83925 213.467091 
L 241.135 209.903512 
L 241.33975 204.669902 
L 241.464875 195.763741 
L 241.5445 168.0671 
L 241.65825 99.554406 
L 241.715125 111.106458 
L 242.11325 226.828955 
L 242.329375 233.812997 
L 242.534125 235.084986 
L 242.682 235.160567 
L 242.693375 235.153892 
L 242.898125 234.885203 
L 243.580625 233.449741 
L 245.139 230.334045 
L 246.902125 227.3402 
L 249.871 222.364918 
L 250.80375 220.289378 
L 251.474875 218.257 
L 251.98675 215.997509 
L 252.384875 213.185311 
L 252.66925 209.559814 
L 252.874 203.822538 
L 252.999125 192.664721 
L 253.067375 160.593218 
L 253.16975 99.605331 
L 253.226625 109.995412 
L 253.636125 227.355413 
L 253.85225 233.917358 
L 254.057 235.10015 
L 254.204875 235.155801 
L 254.21625 235.148218 
L 254.432375 234.849976 
L 255.21725 233.186193 
L 256.7415 230.173892 
L 258.550125 227.126262 
L 261.337 222.459643 
L 262.281125 220.38457 
L 262.963625 218.34958 
L 263.486875 216.07598 
L 263.885 213.317858 
L 264.18075 209.614244 
L 264.3855 203.96069 
L 264.510625 193.214752 
L 264.578875 163.467799 
L 264.692625 99.651869 
L 264.738125 108.928163 
L 265.170375 228.476327 
L 265.3865 234.13893 
L 265.59125 235.129493 
L 265.739125 235.141919 
L 265.966625 234.813777 
L 266.876625 232.877207 
L 268.3895 229.933623 
L 270.266375 226.804399 
L 272.791625 222.575271 
L 273.7585 220.478413 
L 274.452375 218.44067 
L 274.975625 216.213542 
L 275.385125 213.4472 
L 275.680875 209.865337 
L 275.885625 204.578606 
L 276.01075 195.458823 
L 276.079 174.727316 
L 276.204125 99.56733 
L 276.261 111.954353 
L 276.64775 226.212863 
L 276.863875 233.690763 
L 277.08 235.089248 
L 277.227875 235.159349 
L 277.23925 235.152424 
L 277.444 234.881237 
L 278.137875 233.420211 
L 279.69625 230.309144 
L 281.47075 227.300055 
L 284.4055 222.382802 
L 285.33825 220.312881 
L 286.02075 218.248857 
L 286.532625 215.985167 
L 286.93075 213.164341 
L 287.215125 209.519251 
L 287.419875 203.718556 
L 287.533625 194.2287 
L 287.601875 168.710632 
L 287.715625 99.560053 
L 287.7725 110.81243 
L 288.170625 226.777043 
L 288.38675 233.802701 
L 288.5915 235.08345 
L 288.739375 235.160985 
L 288.75075 235.154398 
L 288.9555 234.8866 
L 289.638 233.451463 
L 291.196375 230.335497 
L 292.9595 227.341475 
L 295.93975 222.344142 
L 296.861125 220.291426 
L 297.53225 218.259872 
L 298.044125 216.00186 
L 298.44225 213.192696 
L 298.726625 209.574068 
L 298.931375 203.858868 
L 299.0565 192.811251 
L 299.12475 161.358216 
L 299.227125 99.631755 
L 299.284 109.712589 
L 299.704875 227.977873 
L 299.921 234.040543 
L 300.12575 235.116999 
L 300.273625 235.148786 
L 300.48975 234.851414 
L 301.274625 233.187898 
L 302.798875 230.175331 
L 304.6075 227.127532 
L 307.394375 222.461184 
L 308.3385 220.386589 
L 309.021 218.352405 
L 309.54425 216.080267 
L 309.942375 213.325063 
L 310.238125 209.628363 
L 310.442875 203.996272 
L 310.568 193.353322 
L 310.63625 164.191499 
L 310.75 99.622453 
L 310.7955 108.65715 
L 311.22775 228.434313 
L 311.443875 234.130648 
L 311.648625 235.128479 
L 311.7965 235.142545 
L 312.024 234.815252 
L 312.934 232.878889 
L 314.446875 229.935043 
L 316.32375 226.805663 
L 318.849 222.576794 
L 319.815875 220.480403 
L 320.50975 218.44345 
L 321.033 216.217721 
L 321.4425 213.454232 
L 321.73825 209.878846 
L 321.943 204.61099 
L 322.068125 195.567697 
L 322.136375 175.232794 
L 322.2615 99.557911 
L 322.318375 111.652433 
L 322.7165 226.923255 
L 322.932625 233.831698 
L 323.137375 235.087758 
L 323.28525 235.159785 
L 323.296625 235.152948 
L 323.501375 234.882639 
L 324.19525 233.421931 
L 325.753625 230.310594 
L 327.528125 227.30133 
L 330.462875 222.384356 
L 331.395625 220.314921 
L 332.078125 218.251733 
L 332.59 215.989528 
L 332.988125 213.171755 
L 333.2725 209.533606 
L 333.47725 203.755458 
L 333.602375 192.39053 
L 333.670625 159.166539 
L 333.773 99.571078 
L 333.8185 106.688623 
L 334.29625 230.246033 
L 334.512375 234.484551 
L 334.717125 235.163842 
L 334.853625 235.117319 
L 335.126625 234.673384 
L 338.48225 228.211975 
L 342.34975 221.623531 
L 343.16875 219.613397 
L 343.783 217.515768 
L 344.249375 215.127932 
L 344.602 212.154351 
L 344.863625 207.952502 
L 345.03425 201.432276 
L 345.136625 187.744606 
L 345.21625 127.736488 
L 345.2845 99.663675 
L 345.341375 109.43279 
L 345.76225 227.932875 
L 345.978375 234.031648 
L 346.183125 235.115825 
L 346.331 235.149349 
L 346.547125 234.852851 
L 347.320625 233.214053 
L 348.85625 230.17677 
L 350.664875 227.128802 
L 353.45175 222.462725 
L 354.395875 220.388607 
L 355.078375 218.35523 
L 355.601625 216.084551 
L 355.99975 213.332257 
L 356.2955 209.642447 
L 356.50025 204.031663 
L 356.625375 193.489929 
L 356.693625 164.903666 
L 356.807375 99.598212 
L 356.852875 108.389318 
L 357.285125 228.392049 
L 357.50125 234.122315 
L 357.706 235.12745 
L 357.853875 235.143166 
L 358.081375 234.816727 
L 358.98 232.904681 
L 360.492875 229.95682 
L 362.36975 226.825041 
L 364.906375 222.578317 
L 365.87325 220.482393 
L 366.567125 218.44623 
L 367.090375 216.221896 
L 367.499875 213.461255 
L 367.795625 209.892323 
L 368.000375 204.643213 
L 368.1255 195.675246 
L 368.205125 167.522218 
L 368.318875 99.553784 
L 368.37575 111.353261 
L 368.773875 226.871912 
L 368.99 233.821517 
L 369.19475 235.086251 
L 369.342625 235.160215 
L 369.354 235.153466 
L 369.55875 234.884039 
L 370.252625 233.423652 
L 371.811 230.312044 
L 373.5855 227.302604 
L 376.52025 222.385909 
L 377.453 220.316961 
L 378.1355 218.254608 
L 378.647375 215.993886 
L 379.0455 213.179159 
L 379.329875 209.547926 
L 379.534625 203.792156 
L 379.65975 192.541126 
L 379.728 159.949185 
L 379.830375 99.587512 
L 379.875875 106.44649 
L 380.353625 230.214553 
L 380.56975 234.478482 
L 380.7745 235.163409 
L 380.911 235.118116 
L 381.184 234.674964 
L 384.551 228.194534 
L 388.39575 221.649527 
L 389.226125 219.615675 
L 389.840375 217.519051 
L 390.30675 215.133057 
L 390.659375 212.163291 
L 390.921 207.971293 
L 391.091625 201.483644 
L 391.194 187.973453 
L 391.273625 128.429141 
L 391.35325 99.680269 
L 391.39875 109.156056 
L 391.819625 227.887606 
L 392.03575 234.022698 
L 392.2405 235.114637 
L 392.388375 235.149905 
L 392.6045 234.854287 
L 393.378 233.21576 
L 394.913625 230.17821 
L 396.72225 227.130072 
L 399.509125 222.464266 
L 400.45325 220.390624 
L 401.13575 218.358053 
L 401.659 216.088832 
L 402.057125 213.339442 
L 402.352875 209.656496 
L 402.557625 204.066865 
L 402.68275 193.624617 
L 402.751 165.604063 
L 402.86475 99.579178 
L 402.91025 108.124706 
L 403.353875 228.935186 
L 403.57 234.229208 
L 403.77475 235.140066 
L 403.922625 235.134454 
L 404.1615 234.775458 
L 405.287625 232.382683 
L 406.8005 229.515457 
L 408.859375 226.139424 
L 410.929625 222.645052 
L 411.907875 220.541129 
L 412.613125 218.488663 
L 413.14775 216.226068 
L 413.55725 213.468269 
L 413.853 209.905767 
L 414.05775 204.675276 
L 414.182875 195.781494 
L 414.2625 168.176041 
L 414.37625 99.55498 
L 414.433125 111.05688 
L 414.83125 226.820259 
L 415.047375 233.811272 
L 415.252125 235.084729 
L 415.4 235.160638 
L 415.411375 235.153977 
L 415.616125 234.885438 
L 416.298625 233.45003 
L 417.857 230.334289 
L 419.620125 227.340414 
L 422.589 222.36518 
L 423.52175 220.289722 
L 424.192875 218.257482 
L 424.70475 215.99824 
L 425.102875 213.186552 
L 425.38725 209.56221 
L 425.592 203.828653 
L 425.717125 192.689482 
L 425.785375 160.722392 
L 425.88775 99.609386 
L 425.944625 109.947705 
L 426.354125 227.347248 
L 426.57025 233.91574 
L 426.775 235.099921 
L 426.922875 235.155882 
L 426.93425 235.148314 
L 427.150375 234.850217 
L 427.93525 233.186479 
L 429.4595 230.174134 
L 431.268125 227.126476 
L 434.055 222.459901 
L 434.999125 220.384909 
L 435.681625 218.350054 
L 436.204875 216.0767 
L 436.603 213.319069 
L 436.89875 209.616618 
L 437.1035 203.966679 
L 437.228625 193.238162 
L 437.296875 163.590133 
L 437.410625 99.646569 
L 437.456125 108.882428 
L 437.888375 228.469288 
L 438.1045 234.137542 
L 438.30925 235.129324 
L 438.457125 235.142025 
L 438.684625 234.814025 
L 439.594625 232.877489 
L 441.1075 229.933862 
L 442.984375 226.804611 
L 445.509625 222.575527 
L 446.4765 220.478747 
L 447.170375 218.441137 
L 447.693625 216.214244 
L 448.103125 213.448382 
L 448.398875 209.867608 
L 448.603625 204.584056 
L 448.72875 195.477201 
L 448.797 174.812991 
L 448.922125 99.565379 
L 448.979 111.903458 
L 449.36575 226.203542 
L 449.581875 233.688914 
L 449.798 235.088999 
L 449.945875 235.159423 
L 449.95725 235.152513 
L 450.162 234.881473 
L 450.855875 233.4205 
L 452.41425 230.309387 
L 454.18875 227.300269 
L 457.1235 222.383063 
L 458.05625 220.313224 
L 458.73875 218.24934 
L 459.250625 215.985899 
L 459.64875 213.165587 
L 459.933125 209.521664 
L 460.137875 203.724768 
L 460.263 192.263478 
L 460.33125 158.508497 
L 460.433625 99.561528 
L 460.479125 106.892749 
L 460.9455 229.805072 
L 461.161625 234.399202 
L 461.366375 235.15709 
L 461.502875 235.127688 
L 461.753125 234.739141 
L 465.666125 227.359969 
L 468.65775 222.344404 
L 469.579125 220.291769 
L 470.273 218.803331 
L 471.148875 217.661594 
L 471.740375 216.516035 
L 472.218125 215.096876 
L 472.61625 213.179225 
L 472.93475 210.461814 
L 473.173625 206.317394 
L 473.332875 199.272907 
L 473.423875 184.63396 
L 473.57175 103.65443 
L 473.66275 128.713744 
L 473.969875 221.443483 
L 474.186 232.495866 
L 474.4135 235.061403 
L 474.641 235.629429 
L 474.879875 235.712731 
L 475.3235 235.570665 
L 478.75875 234.152826 
L 480.98825 233.570458 
L 483.706875 233.098618 
L 487.187625 232.730687 
L 491.965125 232.464218 
L 499.336125 232.298179 
L 514.38525 232.226181 
L 561 232.217977 
L 561 232.217977 
" clip-path="url(#pa337464496)" style="fill: none; stroke: #1f77b4; stroke-width: 1.5; stroke-linecap: square"/>
   </g>
   <g id="text_1">
    <!-- 0.06 nA -->
    <g transform="translate(37.75 53.256) scale(0.2 -0.2)">
     <defs>
      <path id="DejaVuSans-30" d="M 2034 4250 
Q 1547 4250 1301 3770 
Q 1056 3291 1056 2328 
Q 1056 1369 1301 889 
Q 1547 409 2034 409 
Q 2525 409 2770 889 
Q 3016 1369 3016 2328 
Q 3016 3291 2770 3770 
Q 2525 4250 2034 4250 
z
M 2034 4750 
Q 2819 4750 3233 4129 
Q 3647 3509 3647 2328 
Q 3647 1150 3233 529 
Q 2819 -91 2034 -91 
Q 1250 -91 836 529 
Q 422 1150 422 2328 
Q 422 3509 836 4129 
Q 1250 4750 2034 4750 
z
" transform="scale(0.015625)"/>
      <path id="DejaVuSans-2e" d="M 684 794 
L 1344 794 
L 1344 0 
L 684 0 
L 684 794 
z
" transform="scale(0.015625)"/>
      <path id="DejaVuSans-36" d="M 2113 2584 
Q 1688 2584 1439 2293 
Q 1191 2003 1191 1497 
Q 1191 994 1439 701 
Q 1688 409 2113 409 
Q 2538 409 2786 701 
Q 3034 994 3034 1497 
Q 3034 2003 2786 2293 
Q 2538 2584 2113 2584 
z
M 3366 4563 
L 3366 3988 
Q 3128 4100 2886 4159 
Q 2644 4219 2406 4219 
Q 1781 4219 1451 3797 
Q 1122 3375 1075 2522 
Q 1259 2794 1537 2939 
Q 1816 3084 2150 3084 
Q 2853 3084 3261 2657 
Q 3669 2231 3669 1497 
Q 3669 778 3244 343 
Q 2819 -91 2113 -91 
Q 1303 -91 875 529 
Q 447 1150 447 2328 
Q 447 3434 972 4092 
Q 1497 4750 2381 4750 
Q 2619 4750 2861 4703 
Q 3103 4656 3366 4563 
z
" transform="scale(0.015625)"/>
      <path id="DejaVuSans-20" transform="scale(0.015625)"/>
      <path id="DejaVuSans-6e" d="M 3513 2113 
L 3513 0 
L 2938 0 
L 2938 2094 
Q 2938 2591 2744 2837 
Q 2550 3084 2163 3084 
Q 1697 3084 1428 2787 
Q 1159 2491 1159 1978 
L 1159 0 
L 581 0 
L 581 3500 
L 1159 3500 
L 1159 2956 
Q 1366 3272 1645 3428 
Q 1925 3584 2291 3584 
Q 2894 3584 3203 3211 
Q 3513 2838 3513 2113 
z
" transform="scale(0.015625)"/>
      <path id="DejaVuSans-41" d="M 2188 4044 
L 1331 1722 
L 3047 1722 
L 2188 4044 
z
M 1831 4666 
L 2547 4666 
L 4325 0 
L 3669 0 
L 3244 1197 
L 1141 1197 
L 716 0 
L 50 0 
L 1831 4666 
z
" transform="scale(0.015625)"/>
     </defs>
     <use xlink:href="#DejaVuSans-30"/>
     <use xlink:href="#DejaVuSans-2e" x="63.623047"/>
     <use xlink:href="#DejaVuSans-30" x="95.410156"/>
     <use xlink:href="#DejaVuSans-36" x="159.033203"/>
     <use xlink:href="#DejaVuSans-20" x="222.65625"/>
     <use xlink:href="#DejaVuSans-6e" x="254.443359"/>
     <use xlink:href="#DejaVuSans-41" x="317.822266"/>
    </g>
   </g>
   <g id="text_2">
    <!-- Neymotin 2011 -->
    <g transform="translate(203.215781 31.56) scale(0.22 -0.22)">
     <defs>
      <path id="DejaVuSans-4e" d="M 628 4666 
L 1478 4666 
L 3547 763 
L 3547 4666 
L 4159 4666 
L 4159 0 
L 3309 0 
L 1241 3903 
L 1241 0 
L 628 0 
L 628 4666 
z
" transform="scale(0.015625)"/>
      <path id="DejaVuSans-65" d="M 3597 1894 
L 3597 1613 
L 953 1613 
Q 991 1019 1311 708 
Q 1631 397 2203 397 
Q 2534 397 2845 478 
Q 3156 559 3463 722 
L 3463 178 
Q 3153 47 2828 -22 
Q 2503 -91 2169 -91 
Q 1331 -91 842 396 
Q 353 884 353 1716 
Q 353 2575 817 3079 
Q 1281 3584 2069 3584 
Q 2775 3584 3186 3129 
Q 3597 2675 3597 1894 
z
M 3022 2063 
Q 3016 2534 2758 2815 
Q 2500 3097 2075 3097 
Q 1594 3097 1305 2825 
Q 1016 2553 972 2059 
L 3022 2063 
z
" transform="scale(0.015625)"/>
      <path id="DejaVuSans-79" d="M 2059 -325 
Q 1816 -950 1584 -1140 
Q 1353 -1331 966 -1331 
L 506 -1331 
L 506 -850 
L 844 -850 
Q 1081 -850 1212 -737 
Q 1344 -625 1503 -206 
L 1606 56 
L 191 3500 
L 800 3500 
L 1894 763 
L 2988 3500 
L 3597 3500 
L 2059 -325 
z
" transform="scale(0.015625)"/>
      <path id="DejaVuSans-6d" d="M 3328 2828 
Q 3544 3216 3844 3400 
Q 4144 3584 4550 3584 
Q 5097 3584 5394 3201 
Q 5691 2819 5691 2113 
L 5691 0 
L 5113 0 
L 5113 2094 
Q 5113 2597 4934 2840 
Q 4756 3084 4391 3084 
Q 3944 3084 3684 2787 
Q 3425 2491 3425 1978 
L 3425 0 
L 2847 0 
L 2847 2094 
Q 2847 2600 2669 2842 
Q 2491 3084 2119 3084 
Q 1678 3084 1418 2786 
Q 1159 2488 1159 1978 
L 1159 0 
L 581 0 
L 581 3500 
L 1159 3500 
L 1159 2956 
Q 1356 3278 1631 3431 
Q 1906 3584 2284 3584 
Q 2666 3584 2933 3390 
Q 3200 3197 3328 2828 
z
" transform="scale(0.015625)"/>
      <path id="DejaVuSans-6f" d="M 1959 3097 
Q 1497 3097 1228 2736 
Q 959 2375 959 1747 
Q 959 1119 1226 758 
Q 1494 397 1959 397 
Q 2419 397 2687 759 
Q 2956 1122 2956 1747 
Q 2956 2369 2687 2733 
Q 2419 3097 1959 3097 
z
M 1959 3584 
Q 2709 3584 3137 3096 
Q 3566 2609 3566 1747 
Q 3566 888 3137 398 
Q 2709 -91 1959 -91 
Q 1206 -91 779 398 
Q 353 888 353 1747 
Q 353 2609 779 3096 
Q 1206 3584 1959 3584 
z
" transform="scale(0.015625)"/>
      <path id="DejaVuSans-74" d="M 1172 4494 
L 1172 3500 
L 2356 3500 
L 2356 3053 
L 1172 3053 
L 1172 1153 
Q 1172 725 1289 603 
Q 1406 481 1766 481 
L 2356 481 
L 2356 0 
L 1766 0 
Q 1100 0 847 248 
Q 594 497 594 1153 
L 594 3053 
L 172 3053 
L 172 3500 
L 594 3500 
L 594 4494 
L 1172 4494 
z
" transform="scale(0.015625)"/>
      <path id="DejaVuSans-69" d="M 603 3500 
L 1178 3500 
L 1178 0 
L 603 0 
L 603 3500 
z
M 603 4863 
L 1178 4863 
L 1178 4134 
L 603 4134 
L 603 4863 
z
" transform="scale(0.015625)"/>
      <path id="DejaVuSans-32" d="M 1228 531 
L 3431 531 
L 3431 0 
L 469 0 
L 469 531 
Q 828 903 1448 1529 
Q 2069 2156 2228 2338 
Q 2531 2678 2651 2914 
Q 2772 3150 2772 3378 
Q 2772 3750 2511 3984 
Q 2250 4219 1831 4219 
Q 1534 4219 1204 4116 
Q 875 4013 500 3803 
L 500 4441 
Q 881 4594 1212 4672 
Q 1544 4750 1819 4750 
Q 2544 4750 2975 4387 
Q 3406 4025 3406 3419 
Q 3406 3131 3298 2873 
Q 3191 2616 2906 2266 
Q 2828 2175 2409 1742 
Q 1991 1309 1228 531 
z
" transform="scale(0.015625)"/>
      <path id="DejaVuSans-31" d="M 794 531 
L 1825 531 
L 1825 4091 
L 703 3866 
L 703 4441 
L 1819 4666 
L 2450 4666 
L 2450 531 
L 3481 531 
L 3481 0 
L 794 0 
L 794 531 
z
" transform="scale(0.015625)"/>
     </defs>
     <use xlink:href="#DejaVuSans-4e"/>
     <use xlink:href="#DejaVuSans-65" x="74.804688"/>
     <use xlink:href="#DejaVuSans-79" x="136.328125"/>
     <use xlink:href="#DejaVuSans-6d" x="195.507812"/>
     <use xlink:href="#DejaVuSans-6f" x="292.919922"/>
     <use xlink:href="#DejaVuSans-74" x="354.101562"/>
     <use xlink:href="#DejaVuSans-69" x="393.310547"/>
     <use xlink:href="#DejaVuSans-6e" x="421.09375"/>
     <use xlink:href="#DejaVuSans-20" x="484.472656"/>
     <use xlink:href="#DejaVuSans-32" x="516.259766"/>
     <use xlink:href="#DejaVuSans-30" x="579.882812"/>
     <use xlink:href="#DejaVuSans-31" x="643.505859"/>
     <use xlink:href="#DejaVuSans-31" x="707.128906"/>
    </g>
   </g>
   <g id="patch_2">
    <path d="M 406.3 273 
L 424.5 273 
L 424.5 37.56 
L 406.3 37.56 
L 406.3 273 
z
" clip-path="url(#pa337464496)" style="fill: none; opacity: 0.5; stroke: #000000; stroke-linejoin: miter"/>
   </g>
   <g id="patch_3">
    <path d="M 561 214.14 
Q 492.75 243.57 424.5 273 
" style="fill: none; opacity: 0.5; stroke: #000000; stroke-linecap: round"/>
   </g>
   <g id="patch_4">
    <path d="M 561 72.876 
Q 492.75 55.218 424.5 37.56 
" style="fill: none; opacity: 0.5; stroke: #000000; stroke-linecap: round"/>
   </g>
   <g id="axes_2">
    <g id="patch_5">
     <path d="M 500.94 214.14 
L 561 214.14 
L 561 72.876 
L 500.94 72.876 
z
" style="fill: #ffffff"/>
    </g>
    <g id="matplotlib.axis_1">
     <g id="xtick_1"/>
     <g id="xtick_2"/>
     <g id="xtick_3"/>
    </g>
    <g id="matplotlib.axis_2">
     <g id="ytick_1"/>
     <g id="ytick_2"/>
     <g id="ytick_3"/>
     <g id="ytick_4"/>
     <g id="ytick_5"/>
     <g id="ytick_6"/>
    </g>
    <g id="line2d_2">
     <path d="M 500.902463 188.599823 
L 506.120175 186.972642 
L 517.00605 183.647305 
L 519.70875 182.54422 
L 521.585625 181.549748 
L 522.974513 180.57288 
L 524.025563 179.57183 
L 524.851388 178.480658 
L 525.489525 177.275732 
L 526.01505 175.787331 
L 526.427963 173.892313 
L 526.728263 171.459289 
L 526.953488 167.808897 
L 527.103638 162.157517 
L 527.253788 144.96593 
L 527.51655 111.533825 
L 527.591625 110.072988 
L 527.629163 110.360488 
L 527.741775 114.624742 
L 528.079613 142.608784 
L 528.530063 172.576381 
L 528.8679 182.92306 
L 529.205738 187.61005 
L 529.581113 189.932681 
L 529.956488 190.924374 
L 530.331863 191.320721 
L 530.744775 191.441645 
L 531.345375 191.368495 
L 532.584113 190.943886 
L 539.003025 188.565572 
L 544.258275 186.931354 
L 554.918925 183.678199 
L 557.621625 182.583638 
L 559.536038 181.578676 
L 560.924925 180.611588 
L 561 180.550295 
L 561 180.550295 
" clip-path="url(#p0a4fb90b2d)" style="fill: none; stroke: #1f77b4; stroke-width: 1.5; stroke-linecap: square"/>
    </g>
    <g id="patch_6">
     <path d="M 500.94 214.14 
L 500.94 72.876 
" style="fill: none; stroke: #000000; stroke-width: 0.8; stroke-linejoin: miter; stroke-linecap: square"/>
    </g>
    <g id="patch_7">
     <path d="M 500.94 214.14 
L 561 214.14 
" style="fill: none; stroke: #000000; stroke-width: 0.8; stroke-linejoin: miter; stroke-linecap: square"/>
    </g>
   </g>
  </g>
 </g>
 <defs>
  <clipPath id="pa337464496">
   <rect x="15" y="37.56" width="546" height="235.44"/>
  </clipPath>
  <clipPath id="p0a4fb90b2d">
   <rect x="500.94" y="72.876" width="60.06" height="141.264"/>
  </clipPath>
 </defs>
</svg>
