<?xml version="1.0" encoding="utf-8" standalone="no"?>
<!DOCTYPE svg PUBLIC "-//W3C//DTD SVG 1.1//EN"
  "http://www.w3.org/Graphics/SVG/1.1/DTD/svg11.dtd">
<svg xmlns:xlink="http://www.w3.org/1999/xlink" width="576pt" height="288pt" viewBox="0 0 576 288" xmlns="http://www.w3.org/2000/svg" version="1.1">
 <metadata>
  <rdf:RDF xmlns:dc="http://purl.org/dc/elements/1.1/" xmlns:cc="http://creativecommons.org/ns#" xmlns:rdf="http://www.w3.org/1999/02/22-rdf-syntax-ns#">
   <cc:Work>
    <dc:type rdf:resource="http://purl.org/dc/dcmitype/StillImage"/>
    <dc:date>2024-09-24T18:25:02.929161</dc:date>
    <dc:format>image/svg+xml</dc:format>
    <dc:creator>
     <cc:Agent>
      <dc:title>Matplotlib v3.7.4, https://matplotlib.org/</dc:title>
     </cc:Agent>
    </dc:creator>
   </cc:Work>
  </rdf:RDF>
 </metadata>
 <defs>
  <style type="text/css">*{stroke-linejoin: round; stroke-linecap: butt}</style>
 </defs>
 <g id="figure_1">
  <g id="patch_1">
   <path d="M 0 288 
L 576 288 
L 576 0 
L 0 0 
z
" style="fill: #ffffff"/>
  </g>
  <g id="axes_1">
   <g id="line2d_1">
    <path d="M 15 233.76 
L 106 233.76 
L 106.15925 227.999807 
L 106.47775 223.8788 
L 106.966875 220.542923 
L 107.672125 217.289808 
L 109.150875 210.892881 
L 109.367 208.609225 
L 109.446625 205.232475 
L 109.651375 179.806458 
L 109.833375 93.17739 
L 109.9585 111.836276 
L 110.57275 218.069649 
L 110.788875 222.61516 
L 111.084625 224.437093 
L 111.4145 225.289029 
L 111.698875 225.520976 
L 111.971875 225.473201 
L 112.335875 225.149906 
L 112.904625 224.30093 
L 114.0535 222.093268 
L 116.283 217.881498 
L 118.831 213.194993 
L 119.377 211.628053 
L 119.6955 210.019879 
L 119.832 208.255112 
L 119.923 202.581004 
L 120.105 181.639012 
L 120.207375 122.348764 
L 120.298375 96.650022 
L 120.343875 99.702818 
L 120.56 141.162423 
L 121.015 215.507463 
L 121.231125 221.491046 
L 121.526875 223.810838 
L 121.8795 225.043495 
L 122.198 225.483692 
L 122.482375 225.543425 
L 122.800875 225.367967 
L 123.26725 224.820191 
L 124.052125 223.49796 
L 128.113 216.209694 
L 129.330125 213.935338 
L 129.853375 212.498139 
L 130.115 211.154146 
L 130.22875 209.273018 
L 130.422125 195.625064 
L 130.535875 175.689845 
L 130.7065 96.584594 
L 130.808875 108.519188 
L 131.50275 219.135588 
L 131.741625 222.807774 
L 132.0715 224.671146 
L 132.41275 225.498437 
L 132.7085 225.727781 
L 133.00425 225.684491 
L 133.391 225.368983 
L 133.9825 224.554072 
L 135.14275 222.489831 
L 137.406375 218.517093 
L 140.46625 213.359079 
L 140.932625 211.987396 
L 141.1715 210.588854 
L 141.2625 208.872295 
L 141.455875 194.90401 
L 141.55825 177.029519 
L 141.74025 96.786282 
L 141.842625 109.802275 
L 142.525125 218.834531 
L 142.764 222.654951 
L 143.10525 224.631884 
L 143.4465 225.496653 
L 143.753625 225.753664 
L 144.038 225.717163 
L 144.402 225.422015 
L 144.959375 224.64651 
L 146.04 222.679242 
L 148.440125 218.320561 
L 150.965375 213.875468 
L 151.443125 212.488922 
L 151.670625 211.158738 
L 151.761625 209.325378 
L 151.989125 192.251621 
L 152.0915 165.781462 
L 152.239375 96.557157 
L 152.307625 102.604642 
L 153.149375 221.487262 
L 153.43375 223.940217 
L 153.786375 225.262321 
L 154.104875 225.722649 
L 154.38925 225.794702 
L 154.719125 225.629034 
L 155.1855 225.110804 
L 155.959 223.868423 
L 160.019875 216.888996 
L 161.7375 214.03316 
L 162.340375 212.58857 
L 162.658875 211.260176 
L 162.80675 209.603867 
L 162.89775 204.178948 
L 163.1025 183.368449 
L 163.1935 135.800267 
L 163.295875 96.777539 
L 163.341375 99.126822 
L 163.53475 135.451203 
L 164.023875 216.068847 
L 164.24 221.725544 
L 164.547125 224.097916 
L 164.89975 225.306414 
L 165.21825 225.72355 
L 165.502625 225.768766 
L 165.8325 225.572971 
L 166.31025 224.994998 
L 167.12925 223.599084 
L 170.666875 217.245821 
L 172.395875 214.201711 
L 172.941875 212.77314 
L 173.214875 211.424098 
L 173.328625 209.547463 
L 173.533375 195.136291 
L 173.63575 177.733599 
L 173.81775 96.57771 
L 173.920125 109.620579 
L 174.602625 219.028447 
L 174.8415 222.80473 
L 175.171375 224.708453 
L 175.512625 225.554892 
L 175.81975 225.796579 
L 176.1155 225.751152 
L 176.50225 225.433708 
L 177.09375 224.61674 
L 178.265375 222.529781 
L 180.50625 218.600115 
L 183.634375 213.341257 
L 184.089375 211.97981 
L 184.316875 210.603252 
L 184.407875 208.709102 
L 184.635375 190.684483 
L 184.726375 165.473882 
L 184.87425 96.740634 
L 184.9425 102.652275 
L 185.363375 187.451532 
L 185.636375 217.799362 
L 185.863875 222.273178 
L 186.19375 224.430736 
L 186.546375 225.443043 
L 186.8535 225.753264 
L 187.137875 225.748819 
L 187.4905 225.492155 
L 188.025125 224.781742 
L 189.003375 223.034541 
L 191.687875 218.159572 
L 194.076625 213.970074 
L 194.56575 212.597991 
L 194.804625 211.298322 
L 194.907 209.405591 
L 195.1345 192.460805 
L 195.236875 166.741389 
L 195.38475 96.559103 
L 195.453 102.325967 
L 195.8625 185.279412 
L 196.146875 217.966262 
L 196.374375 222.411479 
L 196.692875 224.492198 
L 197.034125 225.468807 
L 197.34125 225.777597 
L 197.625625 225.777034 
L 197.97825 225.534684 
L 198.512875 224.857453 
L 199.468375 223.217808 
L 202.266625 218.302373 
L 205.12175 213.542903 
L 205.610875 212.187038 
L 205.8725 210.789731 
L 205.974875 209.043923 
L 206.156875 196.280211 
L 206.270625 178.376493 
L 206.452625 96.728024 
L 206.566375 111.191863 
L 207.226125 218.344665 
L 207.453625 222.420499 
L 207.7835 224.495506 
L 208.136125 225.470533 
L 208.44325 225.761364 
L 208.727625 225.745116 
L 209.08025 225.478757 
L 209.614875 224.759866 
L 210.6045 222.985499 
L 213.232125 218.210915 
L 215.666375 213.936328 
L 216.1555 212.541159 
L 216.383 211.265841 
L 216.485375 209.243865 
L 216.72425 190.61004 
L 216.81525 164.820542 
L 216.963125 96.544399 
L 217.02 101.170721 
L 217.327125 163.272027 
L 217.691125 216.61026 
L 217.90725 221.954794 
L 218.214375 224.248965 
L 218.555625 225.368876 
L 218.874125 225.757234 
L 219.1585 225.78982 
L 219.49975 225.584337 
L 220.00025 224.98618 
L 220.86475 223.54411 
L 224.14075 217.829125 
L 226.575 213.806037 
L 227.121 212.413419 
L 227.41675 211.038608 
L 227.541875 209.317865 
L 227.667 201.067404 
L 227.82625 183.575548 
L 227.91725 136.512217 
L 228.031 96.767012 
L 228.065125 99.02786 
L 228.247125 132.860503 
L 228.747625 216.022866 
L 228.96375 221.715444 
L 229.270875 224.094811 
L 229.6235 225.306152 
L 229.942 225.724626 
L 230.226375 225.770556 
L 230.55625 225.57528 
L 231.034 224.997725 
L 231.853 223.602061 
L 235.402 217.229921 
L 237.119625 214.205332 
L 237.665625 212.778606 
L 237.938625 211.435622 
L 238.052375 209.598165 
L 238.24575 196.24632 
L 238.3595 178.159465 
L 238.5415 96.55851 
L 238.65525 111.541888 
L 239.303625 218.218942 
L 239.531125 222.47845 
L 239.861 224.568817 
L 240.20225 225.500266 
L 240.509375 225.785864 
L 240.805125 225.767079 
L 241.169125 225.495404 
L 241.7265 224.76192 
L 242.75025 222.97563 
L 245.29825 218.492606 
L 248.324 213.424825 
L 248.790375 212.076617 
L 249.02925 210.730416 
L 249.131625 208.777456 
L 249.34775 192.285325 
L 249.450125 166.277508 
L 249.598 96.748373 
L 249.66625 102.421967 
L 250.053 180.669222 
L 250.34875 217.270951 
L 250.57625 222.141291 
L 250.89475 224.325364 
L 251.247375 225.40095 
L 251.5545 225.743506 
L 251.838875 225.75843 
L 252.180125 225.528556 
L 252.692 224.872953 
L 253.602 223.275437 
L 256.570875 217.89805 
L 258.754875 214.075353 
L 259.26675 212.687804 
L 259.517 211.410751 
L 259.619375 209.885135 
L 259.7445 201.729998 
L 259.915125 183.52173 
L 260.006125 135.733197 
L 260.1085 96.576774 
L 260.154 99.053879 
L 260.347375 135.743822 
L 260.8365 216.345905 
L 261.052625 221.894202 
L 261.35975 224.226062 
L 261.701 225.360818 
L 262.0195 225.75659 
L 262.303875 225.793111 
L 262.645125 225.590567 
L 263.145625 224.994804 
L 263.99875 223.574759 
L 267.331625 217.765792 
L 269.720375 213.816513 
L 270.266375 212.429957 
L 270.562125 211.075037 
L 270.68725 209.464334 
L 270.789625 202.978241 
L 270.983 182.053521 
L 271.085375 123.083103 
L 271.176375 96.728227 
L 271.221875 99.752684 
L 271.438 141.43485 
L 271.893 215.745972 
L 272.109125 221.651064 
L 272.404875 224.008754 
L 272.7575 225.268697 
L 273.076 225.712452 
L 273.360375 225.772835 
L 273.678875 225.598436 
L 274.14525 225.053421 
L 274.930125 223.737169 
L 278.83175 216.772204 
L 280.276375 214.191596 
L 280.822375 212.756313 
L 281.084 211.474624 
L 281.19775 209.774199 
L 281.357 199.203382 
L 281.4935 182.709351 
L 281.5845 133.014273 
L 281.686875 96.554988 
L 281.732375 99.459572 
L 281.9485 141.316862 
L 282.4035 215.91144 
L 282.619625 221.792447 
L 282.915375 224.125699 
L 283.268 225.34124 
L 283.5865 225.749195 
L 283.870875 225.79255 
L 284.212125 225.595424 
L 284.70125 225.020665 
L 285.543 223.629101 
L 288.989625 217.635683 
L 291.264625 213.880163 
L 291.833375 212.456182 
L 292.129125 211.131408 
L 292.25425 209.667576 
L 292.34525 204.365428 
L 292.561375 181.182256 
L 292.66375 120.778482 
L 292.75475 96.740675 
L 292.80025 100.159453 
L 293.039125 146.988667 
L 293.471375 215.931629 
L 293.6875 221.694146 
L 293.994625 224.086323 
L 294.34725 225.302821 
L 294.66575 225.723881 
L 294.950125 225.77123 
L 295.28 225.577001 
L 295.75775 225.000308 
L 296.57675 223.605197 
L 300.12575 217.232535 
L 301.843375 214.208686 
L 302.389375 212.783974 
L 302.662375 211.448076 
L 302.776125 209.656229 
L 302.958125 197.290381 
L 303.08325 178.655819 
L 303.26525 96.545811 
L 303.379 111.240859 
L 304.03875 218.566498 
L 304.26625 222.57162 
L 304.596125 224.606969 
L 304.937375 225.514233 
L 305.2445 225.787542 
L 305.54025 225.761421 
L 305.915625 225.472154 
L 306.484375 224.710336 
L 307.553625 222.830423 
L 309.987875 218.549871 
L 313.0705 213.375464 
L 313.5255 212.038014 
L 313.764375 210.634508 
L 313.855375 208.843191 
L 314.060125 193.696445 
L 314.1625 172.385644 
L 314.32175 96.764152 
L 314.41275 105.881485 
L 315.1635 220.05903 
L 315.41375 223.129866 
L 315.766375 224.887357 
L 316.107625 225.603812 
L 316.403375 225.779149 
L 316.699125 225.694473 
L 317.09725 225.317295 
L 317.722875 224.375556 
L 319.14475 221.71437 
L 321.158125 218.127089 
L 323.524125 213.977314 
L 324.01325 212.609987 
L 324.252125 211.326867 
L 324.3545 209.538467 
L 324.55925 195.114972 
L 324.661625 177.656964 
L 324.843625 96.581995 
L 324.946 109.665106 
L 325.6285 219.036018 
L 325.867375 222.807096 
L 326.19725 224.709746 
L 326.5385 225.555649 
L 326.845625 225.79705 
L 327.141375 225.751447 
L 327.528125 225.433854 
L 328.119625 224.616758 
L 329.29125 222.529723 
L 331.532125 218.600115 
L 334.66025 213.341355 
L 335.11525 211.979849 
L 335.34275 210.602903 
L 335.43375 208.706271 
L 335.66125 190.676441 
L 335.75225 165.440877 
L 335.900125 96.739979 
L 335.957 101.011307 
L 336.241375 157.93545 
L 336.628125 216.267062 
L 336.84425 221.770583 
L 337.151375 224.115353 
L 337.504 225.313088 
L 337.8225 225.724767 
L 338.106875 225.766962 
L 338.43675 225.568942 
L 338.925875 224.972439 
L 339.767625 223.528574 
L 343.157375 217.427079 
L 345.000125 214.195203 
L 345.546125 212.762238 
L 345.80775 211.487969 
L 345.9215 209.83119 
L 346.058 200.864484 
L 346.21725 183.122559 
L 346.30825 134.373526 
L 346.410625 96.558862 
L 346.456125 99.252155 
L 346.660875 138.525455 
L 347.12725 215.817156 
L 347.343375 221.77195 
L 347.639125 224.117861 
L 347.99175 225.338593 
L 348.31025 225.749044 
L 348.594625 225.793728 
L 348.935875 225.597597 
L 349.425 225.023635 
L 350.255375 223.65306 
L 353.7475 217.585142 
L 355.977 213.906937 
L 356.54575 212.498267 
L 356.852875 211.142825 
L 356.989375 209.416932 
L 357.103125 202.075139 
L 357.27375 184.326927 
L 357.36475 139.207246 
L 357.4785 96.728076 
L 357.524 99.952075 
L 357.7515 144.211113 
L 358.195125 215.839884 
L 358.41125 221.673238 
L 358.707 224.018815 
L 359.059625 225.273839 
L 359.378125 225.714864 
L 359.6625 225.773593 
L 359.981 225.597896 
L 360.447375 225.051653 
L 361.23225 223.734389 
L 365.1225 216.787966 
L 366.5785 214.187732 
L 367.1245 212.749999 
L 367.386125 211.46037 
L 367.499875 209.711521 
L 367.6705 198.262023 
L 367.795625 182.265037 
L 367.886625 131.592042 
L 367.989 96.544363 
L 368.0345 99.668906 
L 368.262 144.123773 
L 368.705625 216.012839 
L 368.92175 221.816389 
L 369.2175 224.135683 
L 369.570125 225.345539 
L 369.888625 225.750774 
L 370.173 225.792664 
L 370.51425 225.594412 
L 371.003375 225.018693 
L 371.845125 223.626411 
L 375.280375 217.650968 
L 377.56675 213.876802 
L 378.1355 212.450798 
L 378.43125 211.119871 
L 378.556375 209.627764 
L 378.647375 204.241402 
L 378.8635 180.722393 
L 378.97725 112.9121 
L 379.056875 96.76717 
L 379.102375 100.376912 
L 379.352625 149.765113 
L 379.7735 216.023284 
L 379.989625 221.71554 
L 380.29675 224.094848 
L 380.649375 225.306165 
L 380.967875 225.724628 
L 381.25225 225.770551 
L 381.582125 225.57527 
L 382.059875 224.997712 
L 382.878875 223.602046 
L 386.427875 217.22991 
L 388.1455 214.205318 
L 388.6915 212.778583 
L 388.9645 211.435567 
L 389.07825 209.597905 
L 389.271625 196.245743 
L 389.385375 178.157254 
L 389.567375 96.558587 
L 389.681125 111.543216 
L 390.3295 218.219202 
L 390.557 222.478521 
L 390.886875 224.568851 
L 391.228125 225.500282 
L 391.53525 225.785872 
L 391.831 225.767081 
L 392.195 225.495401 
L 392.752375 224.761912 
L 393.776125 222.975619 
L 396.324125 218.492595 
L 399.349875 213.424809 
L 399.81625 212.076591 
L 400.055125 210.730355 
L 400.1575 208.777162 
L 400.373625 192.28456 
L 400.476 166.274018 
L 400.623875 96.748334 
L 400.692125 102.422982 
L 401.078875 180.6705 
L 401.374625 217.271231 
L 401.602125 222.141357 
L 401.920625 224.325392 
L 402.27325 225.40096 
L 402.580375 225.743507 
L 402.86475 225.758426 
L 403.206 225.528547 
L 403.717875 224.872941 
L 404.627875 223.275423 
L 407.59675 217.898038 
L 409.78075 214.075337 
L 410.292625 212.687778 
L 410.542875 211.410691 
L 410.64525 209.884911 
L 410.770375 201.729521 
L 410.941 183.520059 
L 411.032 135.727406 
L 411.134375 96.576675 
L 411.179875 99.054711 
L 411.37325 135.745364 
L 411.862375 216.346276 
L 412.0785 221.894282 
L 412.385625 224.226089 
L 412.726875 225.360825 
L 413.045375 225.756587 
L 413.32975 225.793102 
L 413.671 225.590555 
L 414.1715 224.994788 
L 415.024625 223.574742 
L 418.3575 217.76578 
L 420.74625 213.816497 
L 421.29225 212.429932 
L 421.588 211.074983 
L 421.713125 209.464122 
L 421.8155 202.977708 
L 422.008875 182.051601 
L 422.11125 123.077755 
L 422.20225 96.728194 
L 422.24775 99.753569 
L 422.463875 141.436458 
L 422.918875 215.746405 
L 423.135 221.651171 
L 423.43075 224.008803 
L 423.783375 225.268723 
L 424.101875 225.712465 
L 424.38625 225.77284 
L 424.70475 225.598435 
L 425.171125 225.053414 
L 425.956 223.737157 
L 429.857625 216.772191 
L 431.30225 214.191578 
L 431.84825 212.756284 
L 432.109875 211.474558 
L 432.223625 209.773914 
L 432.382875 199.202796 
L 432.519375 182.707306 
L 432.610375 133.007603 
L 432.71275 96.554904 
L 432.75825 99.460531 
L 432.974375 141.318638 
L 433.429375 215.911913 
L 433.6455 221.792558 
L 433.94125 224.125748 
L 434.293875 225.341264 
L 434.612375 225.749206 
L 434.89675 225.792554 
L 435.238 225.595422 
L 435.727125 225.020659 
L 436.568875 223.629091 
L 440.0155 217.635673 
L 442.2905 213.880148 
L 442.85925 212.456158 
L 443.155 211.131357 
L 443.280125 209.667404 
L 443.371125 204.364879 
L 443.58725 181.180251 
L 443.689625 120.773454 
L 443.780625 96.740757 
L 443.826125 100.160393 
L 444.065 146.990263 
L 444.49725 215.932037 
L 444.713375 221.694239 
L 445.0205 224.08636 
L 445.373125 225.302836 
L 445.691625 225.723884 
L 445.976 225.771228 
L 446.305875 225.576994 
L 446.783625 225.000297 
L 447.602625 223.605183 
L 451.151625 217.232524 
L 452.86925 214.208671 
L 453.41525 212.78395 
L 453.68825 211.448021 
L 453.802 209.655976 
L 453.984 197.289856 
L 454.109125 178.653715 
L 454.291125 96.545844 
L 454.404875 111.24215 
L 455.064625 218.566725 
L 455.292125 222.57168 
L 455.622 224.606993 
L 455.96325 225.514243 
L 456.270375 225.787543 
L 456.566125 225.761418 
L 456.9415 225.472147 
L 457.51025 224.710324 
L 458.5795 222.83041 
L 461.01375 218.549859 
L 464.096375 213.375446 
L 464.551375 212.037984 
L 464.79025 210.63443 
L 464.88125 208.842861 
L 465.086 193.695647 
L 465.188375 172.382391 
L 465.347625 96.764038 
L 465.438625 105.882831 
L 466.189375 220.059193 
L 466.439625 223.129915 
L 466.79225 224.887374 
L 467.1335 225.603814 
L 467.42925 225.779144 
L 467.725 225.694462 
L 468.123125 225.317282 
L 468.74875 224.37554 
L 470 222.039627 
L 470.15925 227.523676 
L 470.455 230.95421 
L 470.8645 233.198186 
L 471.38775 234.868932 
L 471.967875 236.013687 
L 472.5935 236.775332 
L 473.264625 237.250227 
L 474.015375 237.509156 
L 474.914 237.57796 
L 476.108375 237.432656 
L 478.064875 236.939304 
L 483.138125 235.609491 
L 486.436875 235.019031 
L 490.293 234.563772 
L 495.218375 234.217841 
L 502.111625 233.972575 
L 513.236375 233.824321 
L 538.397875 233.765199 
L 561 233.760686 
L 561 233.760686 
" clip-path="url(#p0ecc219302)" style="fill: none; stroke: #1f77b4; stroke-width: 1.5; stroke-linecap: square"/>
   </g>
   <g id="text_1">
    <!-- 0.2 nA -->
    <g transform="translate(37.75 53.256) scale(0.2 -0.2)">
     <defs>
      <path id="DejaVuSans-30" d="M 2034 4250 
Q 1547 4250 1301 3770 
Q 1056 3291 1056 2328 
Q 1056 1369 1301 889 
Q 1547 409 2034 409 
Q 2525 409 2770 889 
Q 3016 1369 3016 2328 
Q 3016 3291 2770 3770 
Q 2525 4250 2034 4250 
z
M 2034 4750 
Q 2819 4750 3233 4129 
Q 3647 3509 3647 2328 
Q 3647 1150 3233 529 
Q 2819 -91 2034 -91 
Q 1250 -91 836 529 
Q 422 1150 422 2328 
Q 422 3509 836 4129 
Q 1250 4750 2034 4750 
z
" transform="scale(0.015625)"/>
      <path id="DejaVuSans-2e" d="M 684 794 
L 1344 794 
L 1344 0 
L 684 0 
L 684 794 
z
" transform="scale(0.015625)"/>
      <path id="DejaVuSans-32" d="M 1228 531 
L 3431 531 
L 3431 0 
L 469 0 
L 469 531 
Q 828 903 1448 1529 
Q 2069 2156 2228 2338 
Q 2531 2678 2651 2914 
Q 2772 3150 2772 3378 
Q 2772 3750 2511 3984 
Q 2250 4219 1831 4219 
Q 1534 4219 1204 4116 
Q 875 4013 500 3803 
L 500 4441 
Q 881 4594 1212 4672 
Q 1544 4750 1819 4750 
Q 2544 4750 2975 4387 
Q 3406 4025 3406 3419 
Q 3406 3131 3298 2873 
Q 3191 2616 2906 2266 
Q 2828 2175 2409 1742 
Q 1991 1309 1228 531 
z
" transform="scale(0.015625)"/>
      <path id="DejaVuSans-20" transform="scale(0.015625)"/>
      <path id="DejaVuSans-6e" d="M 3513 2113 
L 3513 0 
L 2938 0 
L 2938 2094 
Q 2938 2591 2744 2837 
Q 2550 3084 2163 3084 
Q 1697 3084 1428 2787 
Q 1159 2491 1159 1978 
L 1159 0 
L 581 0 
L 581 3500 
L 1159 3500 
L 1159 2956 
Q 1366 3272 1645 3428 
Q 1925 3584 2291 3584 
Q 2894 3584 3203 3211 
Q 3513 2838 3513 2113 
z
" transform="scale(0.015625)"/>
      <path id="DejaVuSans-41" d="M 2188 4044 
L 1331 1722 
L 3047 1722 
L 2188 4044 
z
M 1831 4666 
L 2547 4666 
L 4325 0 
L 3669 0 
L 3244 1197 
L 1141 1197 
L 716 0 
L 50 0 
L 1831 4666 
z
" transform="scale(0.015625)"/>
     </defs>
     <use xlink:href="#DejaVuSans-30"/>
     <use xlink:href="#DejaVuSans-2e" x="63.623047"/>
     <use xlink:href="#DejaVuSans-32" x="95.410156"/>
     <use xlink:href="#DejaVuSans-20" x="159.033203"/>
     <use xlink:href="#DejaVuSans-6e" x="190.820312"/>
     <use xlink:href="#DejaVuSans-41" x="254.199219"/>
    </g>
   </g>
   <g id="text_2">
    <!-- Ferrante &amp; Ascoli 2015 -->
    <g transform="translate(162.658437 31.56) scale(0.22 -0.22)">
     <defs>
      <path id="DejaVuSans-46" d="M 628 4666 
L 3309 4666 
L 3309 4134 
L 1259 4134 
L 1259 2759 
L 3109 2759 
L 3109 2228 
L 1259 2228 
L 1259 0 
L 628 0 
L 628 4666 
z
" transform="scale(0.015625)"/>
      <path id="DejaVuSans-65" d="M 3597 1894 
L 3597 1613 
L 953 1613 
Q 991 1019 1311 708 
Q 1631 397 2203 397 
Q 2534 397 2845 478 
Q 3156 559 3463 722 
L 3463 178 
Q 3153 47 2828 -22 
Q 2503 -91 2169 -91 
Q 1331 -91 842 396 
Q 353 884 353 1716 
Q 353 2575 817 3079 
Q 1281 3584 2069 3584 
Q 2775 3584 3186 3129 
Q 3597 2675 3597 1894 
z
M 3022 2063 
Q 3016 2534 2758 2815 
Q 2500 3097 2075 3097 
Q 1594 3097 1305 2825 
Q 1016 2553 972 2059 
L 3022 2063 
z
" transform="scale(0.015625)"/>
      <path id="DejaVuSans-72" d="M 2631 2963 
Q 2534 3019 2420 3045 
Q 2306 3072 2169 3072 
Q 1681 3072 1420 2755 
Q 1159 2438 1159 1844 
L 1159 0 
L 581 0 
L 581 3500 
L 1159 3500 
L 1159 2956 
Q 1341 3275 1631 3429 
Q 1922 3584 2338 3584 
Q 2397 3584 2469 3576 
Q 2541 3569 2628 3553 
L 2631 2963 
z
" transform="scale(0.015625)"/>
      <path id="DejaVuSans-61" d="M 2194 1759 
Q 1497 1759 1228 1600 
Q 959 1441 959 1056 
Q 959 750 1161 570 
Q 1363 391 1709 391 
Q 2188 391 2477 730 
Q 2766 1069 2766 1631 
L 2766 1759 
L 2194 1759 
z
M 3341 1997 
L 3341 0 
L 2766 0 
L 2766 531 
Q 2569 213 2275 61 
Q 1981 -91 1556 -91 
Q 1019 -91 701 211 
Q 384 513 384 1019 
Q 384 1609 779 1909 
Q 1175 2209 1959 2209 
L 2766 2209 
L 2766 2266 
Q 2766 2663 2505 2880 
Q 2244 3097 1772 3097 
Q 1472 3097 1187 3025 
Q 903 2953 641 2809 
L 641 3341 
Q 956 3463 1253 3523 
Q 1550 3584 1831 3584 
Q 2591 3584 2966 3190 
Q 3341 2797 3341 1997 
z
" transform="scale(0.015625)"/>
      <path id="DejaVuSans-74" d="M 1172 4494 
L 1172 3500 
L 2356 3500 
L 2356 3053 
L 1172 3053 
L 1172 1153 
Q 1172 725 1289 603 
Q 1406 481 1766 481 
L 2356 481 
L 2356 0 
L 1766 0 
Q 1100 0 847 248 
Q 594 497 594 1153 
L 594 3053 
L 172 3053 
L 172 3500 
L 594 3500 
L 594 4494 
L 1172 4494 
z
" transform="scale(0.015625)"/>
      <path id="DejaVuSans-26" d="M 1556 2509 
Q 1272 2256 1139 2004 
Q 1006 1753 1006 1478 
Q 1006 1022 1337 719 
Q 1669 416 2169 416 
Q 2466 416 2725 514 
Q 2984 613 3213 813 
L 1556 2509 
z
M 1997 2859 
L 3584 1234 
Q 3769 1513 3872 1830 
Q 3975 2147 3994 2503 
L 4575 2503 
Q 4538 2091 4375 1687 
Q 4213 1284 3922 891 
L 4794 0 
L 4006 0 
L 3559 459 
Q 3234 181 2878 45 
Q 2522 -91 2113 -91 
Q 1359 -91 881 339 
Q 403 769 403 1441 
Q 403 1841 612 2192 
Q 822 2544 1241 2853 
Q 1091 3050 1012 3245 
Q 934 3441 934 3628 
Q 934 4134 1281 4442 
Q 1628 4750 2203 4750 
Q 2463 4750 2720 4694 
Q 2978 4638 3244 4525 
L 3244 3956 
Q 2972 4103 2725 4179 
Q 2478 4256 2266 4256 
Q 1938 4256 1733 4082 
Q 1528 3909 1528 3634 
Q 1528 3475 1620 3314 
Q 1713 3153 1997 2859 
z
" transform="scale(0.015625)"/>
      <path id="DejaVuSans-73" d="M 2834 3397 
L 2834 2853 
Q 2591 2978 2328 3040 
Q 2066 3103 1784 3103 
Q 1356 3103 1142 2972 
Q 928 2841 928 2578 
Q 928 2378 1081 2264 
Q 1234 2150 1697 2047 
L 1894 2003 
Q 2506 1872 2764 1633 
Q 3022 1394 3022 966 
Q 3022 478 2636 193 
Q 2250 -91 1575 -91 
Q 1294 -91 989 -36 
Q 684 19 347 128 
L 347 722 
Q 666 556 975 473 
Q 1284 391 1588 391 
Q 1994 391 2212 530 
Q 2431 669 2431 922 
Q 2431 1156 2273 1281 
Q 2116 1406 1581 1522 
L 1381 1569 
Q 847 1681 609 1914 
Q 372 2147 372 2553 
Q 372 3047 722 3315 
Q 1072 3584 1716 3584 
Q 2034 3584 2315 3537 
Q 2597 3491 2834 3397 
z
" transform="scale(0.015625)"/>
      <path id="DejaVuSans-63" d="M 3122 3366 
L 3122 2828 
Q 2878 2963 2633 3030 
Q 2388 3097 2138 3097 
Q 1578 3097 1268 2742 
Q 959 2388 959 1747 
Q 959 1106 1268 751 
Q 1578 397 2138 397 
Q 2388 397 2633 464 
Q 2878 531 3122 666 
L 3122 134 
Q 2881 22 2623 -34 
Q 2366 -91 2075 -91 
Q 1284 -91 818 406 
Q 353 903 353 1747 
Q 353 2603 823 3093 
Q 1294 3584 2113 3584 
Q 2378 3584 2631 3529 
Q 2884 3475 3122 3366 
z
" transform="scale(0.015625)"/>
      <path id="DejaVuSans-6f" d="M 1959 3097 
Q 1497 3097 1228 2736 
Q 959 2375 959 1747 
Q 959 1119 1226 758 
Q 1494 397 1959 397 
Q 2419 397 2687 759 
Q 2956 1122 2956 1747 
Q 2956 2369 2687 2733 
Q 2419 3097 1959 3097 
z
M 1959 3584 
Q 2709 3584 3137 3096 
Q 3566 2609 3566 1747 
Q 3566 888 3137 398 
Q 2709 -91 1959 -91 
Q 1206 -91 779 398 
Q 353 888 353 1747 
Q 353 2609 779 3096 
Q 1206 3584 1959 3584 
z
" transform="scale(0.015625)"/>
      <path id="DejaVuSans-6c" d="M 603 4863 
L 1178 4863 
L 1178 0 
L 603 0 
L 603 4863 
z
" transform="scale(0.015625)"/>
      <path id="DejaVuSans-69" d="M 603 3500 
L 1178 3500 
L 1178 0 
L 603 0 
L 603 3500 
z
M 603 4863 
L 1178 4863 
L 1178 4134 
L 603 4134 
L 603 4863 
z
" transform="scale(0.015625)"/>
      <path id="DejaVuSans-31" d="M 794 531 
L 1825 531 
L 1825 4091 
L 703 3866 
L 703 4441 
L 1819 4666 
L 2450 4666 
L 2450 531 
L 3481 531 
L 3481 0 
L 794 0 
L 794 531 
z
" transform="scale(0.015625)"/>
      <path id="DejaVuSans-35" d="M 691 4666 
L 3169 4666 
L 3169 4134 
L 1269 4134 
L 1269 2991 
Q 1406 3038 1543 3061 
Q 1681 3084 1819 3084 
Q 2600 3084 3056 2656 
Q 3513 2228 3513 1497 
Q 3513 744 3044 326 
Q 2575 -91 1722 -91 
Q 1428 -91 1123 -41 
Q 819 9 494 109 
L 494 744 
Q 775 591 1075 516 
Q 1375 441 1709 441 
Q 2250 441 2565 725 
Q 2881 1009 2881 1497 
Q 2881 1984 2565 2268 
Q 2250 2553 1709 2553 
Q 1456 2553 1204 2497 
Q 953 2441 691 2322 
L 691 4666 
z
" transform="scale(0.015625)"/>
     </defs>
     <use xlink:href="#DejaVuSans-46"/>
     <use xlink:href="#DejaVuSans-65" x="52.019531"/>
     <use xlink:href="#DejaVuSans-72" x="113.542969"/>
     <use xlink:href="#DejaVuSans-72" x="152.90625"/>
     <use xlink:href="#DejaVuSans-61" x="194.019531"/>
     <use xlink:href="#DejaVuSans-6e" x="255.298828"/>
     <use xlink:href="#DejaVuSans-74" x="318.677734"/>
     <use xlink:href="#DejaVuSans-65" x="357.886719"/>
     <use xlink:href="#DejaVuSans-20" x="419.410156"/>
     <use xlink:href="#DejaVuSans-26" x="451.197266"/>
     <use xlink:href="#DejaVuSans-20" x="529.175781"/>
     <use xlink:href="#DejaVuSans-41" x="560.962891"/>
     <use xlink:href="#DejaVuSans-73" x="629.371094"/>
     <use xlink:href="#DejaVuSans-63" x="681.470703"/>
     <use xlink:href="#DejaVuSans-6f" x="736.451172"/>
     <use xlink:href="#DejaVuSans-6c" x="797.632812"/>
     <use xlink:href="#DejaVuSans-69" x="825.416016"/>
     <use xlink:href="#DejaVuSans-20" x="853.199219"/>
     <use xlink:href="#DejaVuSans-32" x="884.986328"/>
     <use xlink:href="#DejaVuSans-30" x="948.609375"/>
     <use xlink:href="#DejaVuSans-31" x="1012.232422"/>
     <use xlink:href="#DejaVuSans-35" x="1075.855469"/>
    </g>
   </g>
   <g id="patch_2">
    <path d="M 406.3 273 
L 424.5 273 
L 424.5 37.56 
L 406.3 37.56 
L 406.3 273 
z
" clip-path="url(#p0ecc219302)" style="fill: none; opacity: 0.5; stroke: #000000; stroke-linejoin: miter"/>
   </g>
   <g id="patch_3">
    <path d="M 561 214.14 
Q 492.75 243.57 424.5 273 
" style="fill: none; opacity: 0.5; stroke: #000000; stroke-linecap: round"/>
   </g>
   <g id="patch_4">
    <path d="M 561 72.876 
Q 492.75 55.218 424.5 37.56 
" style="fill: none; opacity: 0.5; stroke: #000000; stroke-linecap: round"/>
   </g>
   <g id="axes_2">
    <g id="patch_5">
     <path d="M 500.94 214.14 
L 561 214.14 
L 561 72.876 
L 500.94 72.876 
z
" style="fill: #ffffff"/>
    </g>
    <g id="matplotlib.axis_1">
     <g id="xtick_1"/>
     <g id="xtick_2"/>
     <g id="xtick_3"/>
    </g>
    <g id="matplotlib.axis_2">
     <g id="ytick_1"/>
     <g id="ytick_2"/>
     <g id="ytick_3"/>
     <g id="ytick_4"/>
     <g id="ytick_5"/>
     <g id="ytick_6"/>
    </g>
    <g id="line2d_2">
     <path d="M 500.902463 182.429576 
L 507.021075 180.540794 
L 512.088638 178.917052 
L 513.777825 178.156779 
L 514.641188 177.541746 
L 515.0541 176.994218 
L 515.279325 176.270947 
L 515.429475 174.77236 
L 516.180225 163.130867 
L 516.367913 154.058254 
L 516.593138 126.446075 
L 516.818363 109.235268 
L 516.893438 108.286005 
L 516.930975 108.311154 
L 517.043588 109.772827 
L 517.343888 118.967954 
L 519.033075 176.660708 
L 519.370913 180.799089 
L 519.70875 182.628967 
L 520.121663 183.707877 
L 520.684725 184.533715 
L 521.3604 185.143286 
L 522.148688 185.556495 
L 523.049588 185.77624 
L 524.175713 185.814052 
L 525.639675 185.62828 
L 527.6667 185.130049 
L 531.195225 183.995325 
L 538.4775 181.653614 
L 549.475988 178.276718 
L 550.714725 177.604814 
L 551.352863 177.032539 
L 551.6907 176.433768 
L 551.84085 175.803237 
L 552.028538 173.621528 
L 552.666675 163.62464 
L 552.854363 155.364954 
L 553.04205 134.665454 
L 553.304813 109.927271 
L 553.417425 108.376917 
L 553.454963 108.51081 
L 553.605113 111.078198 
L 554.018025 125.117726 
L 555.369375 172.906733 
L 555.74475 179.388998 
L 556.082588 181.944404 
L 556.457963 183.241538 
L 556.94595 184.135613 
L 557.584088 184.848505 
L 558.334838 185.363267 
L 559.1982 185.680257 
L 560.211713 185.806046 
L 561 185.780887 
L 561 185.780887 
" clip-path="url(#pea1586c43f)" style="fill: none; stroke: #1f77b4; stroke-width: 1.5; stroke-linecap: square"/>
    </g>
    <g id="patch_6">
     <path d="M 500.94 214.14 
L 500.94 72.876 
" style="fill: none; stroke: #000000; stroke-width: 0.8; stroke-linejoin: miter; stroke-linecap: square"/>
    </g>
    <g id="patch_7">
     <path d="M 500.94 214.14 
L 561 214.14 
" style="fill: none; stroke: #000000; stroke-width: 0.8; stroke-linejoin: miter; stroke-linecap: square"/>
    </g>
   </g>
  </g>
 </g>
 <defs>
  <clipPath id="p0ecc219302">
   <rect x="15" y="37.56" width="546" height="235.44"/>
  </clipPath>
  <clipPath id="pea1586c43f">
   <rect x="500.94" y="72.876" width="60.06" height="141.264"/>
  </clipPath>
 </defs>
</svg>
