<?xml version="1.0" encoding="utf-8" standalone="no"?>
<!DOCTYPE svg PUBLIC "-//W3C//DTD SVG 1.1//EN"
  "http://www.w3.org/Graphics/SVG/1.1/DTD/svg11.dtd">
<svg xmlns:xlink="http://www.w3.org/1999/xlink" width="576pt" height="288pt" viewBox="0 0 576 288" xmlns="http://www.w3.org/2000/svg" version="1.1">
 <metadata>
  <rdf:RDF xmlns:dc="http://purl.org/dc/elements/1.1/" xmlns:cc="http://creativecommons.org/ns#" xmlns:rdf="http://www.w3.org/1999/02/22-rdf-syntax-ns#">
   <cc:Work>
    <dc:type rdf:resource="http://purl.org/dc/dcmitype/StillImage"/>
    <dc:date>2024-09-24T19:30:23.874806</dc:date>
    <dc:format>image/svg+xml</dc:format>
    <dc:creator>
     <cc:Agent>
      <dc:title>Matplotlib v3.7.4, https://matplotlib.org/</dc:title>
     </cc:Agent>
    </dc:creator>
   </cc:Work>
  </rdf:RDF>
 </metadata>
 <defs>
  <style type="text/css">*{stroke-linejoin: round; stroke-linecap: butt}</style>
 </defs>
 <g id="figure_1">
  <g id="patch_1">
   <path d="M 0 288 
L 576 288 
L 576 0 
L 0 0 
z
" style="fill: #ffffff"/>
  </g>
  <g id="axes_1">
   <g id="line2d_1">
    <path d="M 15 238.4688 
L 18.3215 238.475948 
L 45.2575 238.52669 
L 106 238.528267 
L 106.364 234.777214 
L 107.001 230.609902 
L 107.8655 226.451036 
L 108.912 222.540742 
L 110.095 218.983085 
L 111.5055 215.46232 
L 113.8715 210.290498 
L 115.1455 207.224802 
L 115.8735 204.935247 
L 116.4195 202.48061 
L 116.829 199.524079 
L 117.102 195.990781 
L 117.284 191.32266 
L 117.4205 182.809311 
L 117.5115 163.01926 
L 117.6935 49.47059 
L 117.739 49.477997 
L 117.8755 55.182237 
L 118.103 79.349894 
L 118.558 157.885706 
L 118.831 220.210233 
L 119.0585 226.95362 
L 119.195 227.44634 
L 119.2405 227.411676 
L 119.4225 226.810109 
L 121.106 219.399198 
L 122.107 216.573803 
L 123.472 213.424413 
L 126.3385 207.011746 
L 127.0665 204.692248 
L 127.567 202.399936 
L 127.9765 199.391165 
L 128.2495 195.709171 
L 128.4315 190.606278 
L 128.568 179.401579 
L 128.659 146.913684 
L 128.841 49.257945 
L 128.932 51.597622 
L 129.114 65.485313 
L 129.5235 125.907799 
L 129.751 182.831377 
L 129.9785 222.231914 
L 130.206 227.541462 
L 130.3425 227.837985 
L 130.479 227.486876 
L 130.934 225.154166 
L 131.7075 221.563148 
L 132.572 218.641443 
L 133.664 215.750986 
L 135.302 212.097706 
L 137.213 207.776387 
L 138.032 205.343449 
L 138.578 203.052131 
L 138.9875 200.404936 
L 139.306 196.739634 
L 139.488 192.415156 
L 139.6245 182.503003 
L 139.7155 160.945807 
L 139.8975 49.344135 
L 139.943 49.475434 
L 140.0795 55.311184 
L 140.307 79.704067 
L 140.762 159.850041 
L 141.035 220.938132 
L 141.2625 227.497379 
L 141.399 227.973258 
L 141.49 227.835463 
L 141.763 226.619374 
L 142.8095 221.520586 
L 143.674 218.578066 
L 144.8115 215.536707 
L 146.586 211.512892 
L 148.224 207.63935 
L 148.9975 205.230985 
L 149.5435 202.793851 
L 149.953 199.836784 
L 150.226 195.943768 
L 150.3625 189.615034 
L 150.499 173.234236 
L 150.59 112.957074 
L 150.7265 49.230791 
L 150.8175 50.95932 
L 150.9995 63.835728 
L 151.3635 116.280551 
L 151.6365 178.423689 
L 151.864 221.522147 
L 152.0915 227.594666 
L 152.228 227.996515 
L 152.3645 227.679312 
L 152.774 225.56657 
L 153.593 221.619714 
L 154.4575 218.598194 
L 155.595 215.471038 
L 157.5515 210.873956 
L 158.871 207.53527 
L 159.599 205.09778 
L 160.0995 202.629364 
L 160.3725 200.371893 
L 160.509 196.75378 
L 160.691 187.508649 
L 160.782 176.639696 
L 160.873 132.130548 
L 161.0095 49.402511 
L 161.055 49.307522 
L 161.1915 54.704384 
L 161.419 78.378188 
L 161.874 157.148206 
L 162.147 220.483552 
L 162.3745 227.501547 
L 162.511 228.02077 
L 162.5565 227.98459 
L 162.7385 227.349319 
L 164.4675 219.264863 
L 165.6505 215.552861 
L 166.424 213.060332 
L 166.515 212.211693 
L 167.3795 186.8383 
L 167.4705 176.088847 
L 167.5615 129.911522 
L 167.698 49.562842 
L 167.7435 49.537775 
L 167.88 54.933395 
L 168.1075 78.510615 
L 168.5625 156.54285 
L 168.881 222.752791 
L 169.1085 227.503562 
L 169.1995 227.743264 
L 169.245 227.723674 
L 169.3815 227.350548 
L 169.973 224.436817 
L 170.701 221.523281 
L 171.5655 219.037474 
L 172.6575 216.593653 
L 174.159 213.809392 
L 177.89 207.159254 
L 178.6635 205.175334 
L 179.255 203.032483 
L 179.71 200.458207 
L 180.0285 197.345298 
L 180.256 193.021167 
L 180.438 184.041038 
L 180.529 168.818449 
L 180.7565 49.29566 
L 180.8475 51.708532 
L 181.0295 65.745543 
L 181.439 126.283466 
L 181.6665 182.785994 
L 181.894 222.27857 
L 182.1215 228.048958 
L 182.258 228.46631 
L 182.349 228.333534 
L 182.622 227.20003 
L 183.714 222.211904 
L 184.5785 219.470634 
L 185.6705 216.778359 
L 187.1265 213.818727 
L 190.63 206.969863 
L 191.358 204.909742 
L 191.904 202.720619 
L 192.3135 200.178811 
L 192.632 196.720474 
L 192.8595 191.538791 
L 192.996 183.775286 
L 193.087 167.822219 
L 193.3145 49.301851 
L 193.4055 51.834695 
L 193.5875 66.06147 
L 193.997 126.766605 
L 194.2245 183.908477 
L 194.452 222.62165 
L 194.6795 228.131699 
L 194.816 228.501664 
L 194.9525 228.207137 
L 195.3165 226.462159 
L 196.181 222.432932 
L 197.0455 219.534459 
L 198.092 216.813767 
L 199.5025 213.785605 
L 202.824 206.906763 
L 203.552 204.713598 
L 204.098 202.328564 
L 204.5075 199.433491 
L 204.7805 195.970842 
L 204.9625 191.433993 
L 205.099 183.395733 
L 205.19 166.342091 
L 205.4175 49.332119 
L 205.463 50.276944 
L 205.5995 57.783038 
L 205.8725 91.391266 
L 206.282 169.484006 
L 206.5095 220.188447 
L 206.737 227.872423 
L 206.919 228.546573 
L 207.0555 228.215237 
L 207.465 226.173573 
L 208.3295 222.149224 
L 209.194 219.246879 
L 210.286 216.387483 
L 211.7875 213.120365 
L 214.472 207.382175 
L 215.2455 205.112499 
L 215.7915 202.845194 
L 216.201 200.217151 
L 216.5195 196.612696 
L 216.747 191.061435 
L 216.8835 182.172923 
L 216.9745 160.957916 
L 217.1565 49.367451 
L 217.202 49.513903 
L 217.3385 55.409995 
L 217.566 79.907928 
L 218.021 159.558523 
L 218.294 221.238904 
L 218.5215 227.98992 
L 218.658 228.522 
L 218.7035 228.497629 
L 218.8855 227.921514 
L 220.751 219.748803 
L 221.7975 216.830728 
L 223.208 213.598883 
L 226.1655 207.022107 
L 226.8935 204.706214 
L 227.394 202.419696 
L 227.8035 199.425512 
L 228.0765 195.779145 
L 228.2585 190.780329 
L 228.395 180.327941 
L 228.486 151.126301 
L 228.668 49.246822 
L 228.759 51.354335 
L 228.941 64.87968 
L 229.305 117.745836 
L 229.5325 165.404635 
L 229.76 219.308044 
L 229.9875 227.72476 
L 230.1695 228.490696 
L 230.306 228.166388 
L 230.7155 226.073533 
L 231.5345 222.136424 
L 232.399 219.123443 
L 233.491 216.155236 
L 235.038 212.639985 
L 237.2675 207.577153 
L 238.041 205.223447 
L 238.587 202.868312 
L 238.9965 200.100115 
L 239.2695 196.909846 
L 239.4515 192.852196 
L 239.588 184.38741 
L 239.679 167.613244 
L 239.9065 49.266981 
L 239.9975 51.805758 
L 240.1795 66.0178 
L 240.589 126.883975 
L 240.8165 185.834034 
L 241.044 223.220824 
L 241.2715 228.208722 
L 241.3625 228.472007 
L 241.408 228.457173 
L 241.5445 228.077604 
L 241.9995 225.673325 
L 242.8185 221.789491 
L 243.683 218.807662 
L 244.8205 215.724074 
L 246.5495 211.765697 
L 248.2785 207.682222 
L 249.052 205.280594 
L 249.598 202.865596 
L 250.0075 199.971979 
L 250.2805 196.379825 
L 250.417 191.389432 
L 250.5535 178.95669 
L 250.6445 144.942179 
L 250.8265 49.223911 
L 250.9175 51.624072 
L 251.0995 65.571377 
L 251.4635 118.891067 
L 251.691 168.250972 
L 251.9185 220.042374 
L 252.146 227.753978 
L 252.2825 228.389552 
L 252.328 228.377362 
L 252.4645 227.998234 
L 252.9195 225.572758 
L 253.7385 221.655487 
L 254.603 218.640934 
L 255.7405 215.505369 
L 257.6515 211.003811 
L 259.0165 207.56693 
L 259.7445 205.154694 
L 260.245 202.758211 
L 260.5635 200.293734 
L 260.7 197.829931 
L 260.9275 185.897493 
L 261.0185 172.31473 
L 261.1095 107.562351 
L 261.246 49.182438 
L 261.337 51.054191 
L 261.519 64.092701 
L 261.883 116.921772 
L 262.1105 163.55346 
L 262.3835 221.889738 
L 262.611 227.839576 
L 262.7475 228.216629 
L 262.884 227.879695 
L 263.2935 225.710151 
L 264.1125 221.646256 
L 264.977 218.492867 
L 266.2055 214.901343 
L 267.98 209.772492 
L 268.162 208.767773 
L 268.2985 205.549794 
L 268.7535 191.66853 
L 268.89 181.104553 
L 268.981 155.507145 
L 269.163 49.212751 
L 269.254 50.923648 
L 269.436 63.763418 
L 269.8 115.869334 
L 270.073 176.555236 
L 270.3005 221.127319 
L 270.528 227.501637 
L 270.6645 227.962916 
L 270.7555 227.828042 
L 271.0285 226.657418 
L 271.984 222.270315 
L 272.803 219.701153 
L 273.8495 217.191516 
L 275.2145 214.52026 
L 277.9445 209.818248 
L 279.2185 207.340151 
L 280.0375 205.263215 
L 280.629 203.144654 
L 281.084 200.626295 
L 281.4025 197.632576 
L 281.63 193.599615 
L 281.812 185.811998 
L 281.903 174.35475 
L 281.994 121.110817 
L 282.1305 49.360933 
L 282.176 49.58876 
L 282.3125 55.655253 
L 282.54 80.400389 
L 282.995 160.35273 
L 283.268 221.007508 
L 283.4955 227.965713 
L 283.632 228.557672 
L 283.6775 228.549871 
L 283.814 228.210987 
L 284.269 225.98948 
L 285.088 222.344365 
L 285.9525 219.558272 
L 287.0445 216.830244 
L 288.455 213.926857 
L 292.0495 206.815066 
L 292.7775 204.682615 
L 293.3235 202.366202 
L 293.733 199.577987 
L 294.006 196.307779 
L 294.2335 190.530172 
L 294.37 180.890005 
L 294.461 156.326829 
L 294.643 49.294739 
L 294.734 51.055646 
L 294.916 64.068759 
L 295.28 116.471827 
L 295.553 177.458597 
L 295.7805 221.422597 
L 296.008 228.001024 
L 296.1445 228.532453 
L 296.19 228.512457 
L 296.3265 228.14834 
L 296.7815 225.882537 
L 297.6005 222.174857 
L 298.465 219.324666 
L 299.557 216.518766 
L 301.013 213.417462 
L 304.016 207.185581 
L 304.7895 204.919569 
L 305.3355 202.624433 
L 305.745 199.919427 
L 306.0635 196.108023 
L 306.291 189.90665 
L 306.4275 178.761298 
L 306.5185 145.767932 
L 306.7005 49.275005 
L 306.7915 51.686968 
L 306.9735 65.707795 
L 307.383 126.276439 
L 307.6105 183.03985 
L 307.838 222.721465 
L 308.0655 228.230497 
L 308.202 228.589194 
L 308.3385 228.280075 
L 308.748 226.243664 
L 309.6125 222.184398 
L 310.477 219.254554 
L 311.569 216.370855 
L 313.0705 213.078077 
L 315.7095 207.388803 
L 316.483 205.103177 
L 317.029 202.816339 
L 317.4385 200.156759 
L 317.757 196.483261 
L 317.9845 190.734253 
L 318.121 181.202633 
L 318.212 156.809397 
L 318.394 49.284571 
L 318.4395 49.667681 
L 318.576 55.978695 
L 318.8035 81.088502 
L 319.2585 162.108799 
L 319.5315 221.733922 
L 319.759 228.058764 
L 319.8955 228.531262 
L 319.941 228.496153 
L 320.123 227.89745 
L 321.943 219.843568 
L 322.9895 216.881863 
L 324.4 213.613967 
L 327.3575 206.971394 
L 328.0855 204.617294 
L 328.586 202.272421 
L 328.95 199.602105 
L 329.223 196.104894 
L 329.405 191.48134 
L 329.5415 182.794372 
L 329.6325 161.533243 
L 329.8145 49.377802 
L 329.86 49.472822 
L 329.9965 55.274089 
L 330.224 79.634648 
L 330.679 159.386777 
L 330.952 221.253161 
L 331.1795 227.999957 
L 331.316 228.520595 
L 331.3615 228.491708 
L 331.5435 227.8959 
L 333.3635 219.738515 
L 334.41 216.737882 
L 335.8205 213.411468 
L 338.505 207.246835 
L 339.233 204.923412 
L 339.779 202.400579 
L 340.143 199.733434 
L 340.416 196.2275 
L 340.598 191.381474 
L 340.7345 179.605673 
L 340.8255 148.238214 
L 341.0075 49.231242 
L 341.0985 51.487329 
L 341.2805 65.230615 
L 341.6445 118.284268 
L 341.872 166.946991 
L 342.0995 219.760561 
L 342.327 227.778543 
L 342.509 228.464463 
L 342.6455 228.108604 
L 343.1005 225.711975 
L 343.9195 221.798597 
L 344.784 218.791919 
L 345.9215 215.685079 
L 347.6505 211.696052 
L 349.334 207.683434 
L 350.1075 205.264084 
L 350.6535 202.827055 
L 351.063 199.897159 
L 351.336 196.246377 
L 351.4725 191.24124 
L 351.609 178.49086 
L 351.7 142.531241 
L 351.882 49.238676 
L 351.973 51.746044 
L 352.155 65.876227 
L 352.5645 126.89806 
L 352.792 185.557893 
L 353.0195 223.143306 
L 353.247 228.1509 
L 353.338 228.410502 
L 353.3835 228.392883 
L 353.52 228.002987 
L 354.0205 225.309008 
L 354.794 221.62759 
L 355.6585 218.597622 
L 356.796 215.445252 
L 358.7525 210.806571 
L 360.072 207.430408 
L 360.8 204.954974 
L 361.3005 202.449456 
L 361.619 199.772547 
L 361.7555 196.512538 
L 361.9375 186.823813 
L 362.0285 174.85924 
L 362.1195 121.937008 
L 362.256 49.259863 
L 362.3015 49.450759 
L 362.438 55.312758 
L 362.6655 79.704015 
L 363.1205 160.20013 
L 363.3935 221.226009 
L 363.621 227.784856 
L 363.7575 228.24907 
L 363.8485 228.098411 
L 364.1215 226.829648 
L 365.168 221.500109 
L 366.078 218.222691 
L 367.352 214.554241 
L 369.3085 209.010155 
L 369.5815 207.599772 
L 369.7635 203.084597 
L 370.1275 190.937791 
L 370.264 178.740751 
L 370.355 143.867409 
L 370.537 49.189084 
L 370.628 51.541915 
L 370.81 65.422173 
L 371.2195 125.774526 
L 371.447 182.310231 
L 371.6745 222.296227 
L 371.902 227.735741 
L 372.0385 228.054652 
L 372.175 227.715649 
L 372.63 225.443101 
L 373.358 222.230047 
L 374.177 219.651521 
L 375.2235 217.12807 
L 376.5885 214.440109 
L 380.9565 206.280037 
L 381.639 204.228083 
L 382.1395 202.029632 
L 382.5035 199.518691 
L 382.7765 196.279822 
L 383.004 190.557733 
L 383.1405 181.056816 
L 383.2315 157.155937 
L 383.4135 49.3176 
L 383.459 49.669822 
L 383.5955 55.954037 
L 383.823 81.017133 
L 384.278 161.66356 
L 384.551 221.183227 
L 384.7785 227.9589 
L 384.915 228.526213 
L 384.9605 228.514022 
L 385.097 228.1674 
L 385.552 225.939065 
L 386.371 222.287067 
L 387.2355 219.491959 
L 388.3275 216.753209 
L 389.7835 213.748371 
L 393.196 206.966275 
L 393.924 204.873344 
L 394.47 202.638138 
L 394.8795 200.018127 
L 395.198 196.385089 
L 395.4255 190.70881 
L 395.562 181.419366 
L 395.653 158.643925 
L 395.835 49.32548 
L 395.8805 49.603605 
L 396.017 55.736897 
L 396.2445 80.577442 
L 396.6995 160.749087 
L 396.9725 221.139425 
L 397.2 227.966872 
L 397.3365 228.532077 
L 397.382 228.517725 
L 397.5185 228.162145 
L 397.9735 225.891695 
L 398.7925 222.159466 
L 399.657 219.289962 
L 400.749 216.466611 
L 402.205 213.345773 
L 405.117 207.263425 
L 405.8905 205.008333 
L 406.4365 202.741232 
L 406.846 200.097877 
L 407.1645 196.445785 
L 407.392 190.75269 
L 407.5285 181.442566 
L 407.6195 158.591184 
L 407.8015 49.314715 
L 407.847 49.60143 
L 407.9835 55.740836 
L 408.211 80.592192 
L 408.666 160.850976 
L 408.939 221.291668 
L 409.1665 227.997399 
L 409.303 228.535748 
L 409.3485 228.514715 
L 409.485 228.142254 
L 409.94 225.829303 
L 410.759 222.041964 
L 411.6235 219.123237 
L 412.7155 216.239958 
L 414.217 212.935925 
L 416.7195 207.507463 
L 417.493 205.245162 
L 418.039 203.009024 
L 418.4485 200.454244 
L 418.767 197.036726 
L 418.9945 192.035947 
L 419.131 184.819148 
L 419.222 170.883023 
L 419.313 100.251095 
L 419.4495 49.25081 
L 419.5405 51.411302 
L 419.7225 65.024553 
L 420.0865 117.935273 
L 420.314 165.23552 
L 420.587 222.455007 
L 420.8145 228.170577 
L 420.951 228.549393 
L 421.0875 228.239917 
L 421.497 226.168946 
L 422.3615 222.041434 
L 423.226 219.06018 
L 424.318 216.116067 
L 425.865 212.632358 
L 428.0945 207.638167 
L 428.868 205.34177 
L 429.414 203.080227 
L 429.8235 200.497839 
L 430.142 197.029012 
L 430.3695 191.871024 
L 430.506 183.984838 
L 430.597 166.184059 
L 430.8245 49.314171 
L 430.87 50.262637 
L 431.0065 57.768487 
L 431.2795 91.396822 
L 431.689 170.349045 
L 431.9165 220.620111 
L 432.144 227.952711 
L 432.2805 228.549728 
L 432.326 228.533446 
L 432.4625 228.154063 
L 432.9175 225.756888 
L 433.7365 221.862972 
L 434.601 218.870483 
L 435.693 215.899406 
L 437.331 212.153923 
L 439.242 207.735338 
L 440.0155 205.398234 
L 440.5615 203.094369 
L 440.971 200.445006 
L 441.2895 196.809757 
L 441.4715 192.670878 
L 441.608 184.153322 
L 441.699 166.789584 
L 441.9265 49.281357 
L 441.972 50.189225 
L 442.1085 57.584431 
L 442.3815 91.047302 
L 442.791 170.127944 
L 443.0185 220.540749 
L 443.246 227.896174 
L 443.3825 228.487397 
L 443.428 228.468174 
L 443.5645 228.078788 
L 444.065 225.40034 
L 444.8385 221.73196 
L 445.703 218.717431 
L 446.8405 215.598324 
L 448.615 211.481163 
L 450.2075 207.634291 
L 450.981 205.178705 
L 451.527 202.683692 
L 451.9365 199.636448 
L 452.2095 195.693326 
L 452.346 189.811013 
L 452.4825 173.838674 
L 452.5735 116.391555 
L 452.71 49.248313 
L 452.7555 49.57193 
L 452.892 55.71936 
L 453.1195 80.573211 
L 453.5745 162.265958 
L 453.8475 221.691408 
L 454.075 227.908261 
L 454.2115 228.334494 
L 454.348 228.024716 
L 454.712 226.146144 
L 455.5765 221.845596 
L 456.441 218.740329 
L 457.5785 215.536268 
L 459.444 211.068396 
L 460.8545 207.463064 
L 461.5825 204.98611 
L 462.083 202.491406 
L 462.4015 199.878001 
L 462.538 197.195223 
L 462.7655 184.131042 
L 462.8565 166.773439 
L 463.084 49.22463 
L 463.1295 50.11604 
L 463.266 57.412968 
L 463.4935 83.847324 
L 463.903 155.328341 
L 464.2215 223.095897 
L 464.449 228.047407 
L 464.54 228.291848 
L 464.5855 228.267183 
L 464.722 227.857768 
L 465.2225 225.108109 
L 465.996 221.358799 
L 466.906 218.09605 
L 468.18 214.435828 
L 470 209.443079 
L 470.3185 211.979615 
L 470.728 213.854902 
L 470.7735 213.914169 
L 470.819 213.782968 
L 471.4105 205.419755 
L 471.7745 203.11583 
L 471.8655 202.989931 
L 471.9565 203.540878 
L 473.2305 215.147059 
L 473.9585 218.900441 
L 474.823 222.219646 
L 475.824 225.176872 
L 476.916 227.697377 
L 478.0535 229.782071 
L 479.282 231.585811 
L 480.6015 233.137306 
L 482.012 234.460792 
L 483.559 235.608109 
L 485.2425 236.579904 
L 487.108 237.400701 
L 489.2465 238.093823 
L 491.7035 238.651961 
L 494.661 239.087648 
L 498.3465 239.393886 
L 503.215 239.561049 
L 510.5405 239.56722 
L 527.603 239.290357 
L 555.9495 238.908858 
L 561 238.863402 
L 561 238.863402 
" clip-path="url(#p309a79d106)" style="fill: none; stroke: #1f77b4; stroke-width: 1.5; stroke-linecap: square"/>
   </g>
   <g id="text_1">
    <!-- 0.25 nA -->
    <g transform="translate(37.75 53.256) scale(0.2 -0.2)">
     <defs>
      <path id="DejaVuSans-30" d="M 2034 4250 
Q 1547 4250 1301 3770 
Q 1056 3291 1056 2328 
Q 1056 1369 1301 889 
Q 1547 409 2034 409 
Q 2525 409 2770 889 
Q 3016 1369 3016 2328 
Q 3016 3291 2770 3770 
Q 2525 4250 2034 4250 
z
M 2034 4750 
Q 2819 4750 3233 4129 
Q 3647 3509 3647 2328 
Q 3647 1150 3233 529 
Q 2819 -91 2034 -91 
Q 1250 -91 836 529 
Q 422 1150 422 2328 
Q 422 3509 836 4129 
Q 1250 4750 2034 4750 
z
" transform="scale(0.015625)"/>
      <path id="DejaVuSans-2e" d="M 684 794 
L 1344 794 
L 1344 0 
L 684 0 
L 684 794 
z
" transform="scale(0.015625)"/>
      <path id="DejaVuSans-32" d="M 1228 531 
L 3431 531 
L 3431 0 
L 469 0 
L 469 531 
Q 828 903 1448 1529 
Q 2069 2156 2228 2338 
Q 2531 2678 2651 2914 
Q 2772 3150 2772 3378 
Q 2772 3750 2511 3984 
Q 2250 4219 1831 4219 
Q 1534 4219 1204 4116 
Q 875 4013 500 3803 
L 500 4441 
Q 881 4594 1212 4672 
Q 1544 4750 1819 4750 
Q 2544 4750 2975 4387 
Q 3406 4025 3406 3419 
Q 3406 3131 3298 2873 
Q 3191 2616 2906 2266 
Q 2828 2175 2409 1742 
Q 1991 1309 1228 531 
z
" transform="scale(0.015625)"/>
      <path id="DejaVuSans-35" d="M 691 4666 
L 3169 4666 
L 3169 4134 
L 1269 4134 
L 1269 2991 
Q 1406 3038 1543 3061 
Q 1681 3084 1819 3084 
Q 2600 3084 3056 2656 
Q 3513 2228 3513 1497 
Q 3513 744 3044 326 
Q 2575 -91 1722 -91 
Q 1428 -91 1123 -41 
Q 819 9 494 109 
L 494 744 
Q 775 591 1075 516 
Q 1375 441 1709 441 
Q 2250 441 2565 725 
Q 2881 1009 2881 1497 
Q 2881 1984 2565 2268 
Q 2250 2553 1709 2553 
Q 1456 2553 1204 2497 
Q 953 2441 691 2322 
L 691 4666 
z
" transform="scale(0.015625)"/>
      <path id="DejaVuSans-20" transform="scale(0.015625)"/>
      <path id="DejaVuSans-6e" d="M 3513 2113 
L 3513 0 
L 2938 0 
L 2938 2094 
Q 2938 2591 2744 2837 
Q 2550 3084 2163 3084 
Q 1697 3084 1428 2787 
Q 1159 2491 1159 1978 
L 1159 0 
L 581 0 
L 581 3500 
L 1159 3500 
L 1159 2956 
Q 1366 3272 1645 3428 
Q 1925 3584 2291 3584 
Q 2894 3584 3203 3211 
Q 3513 2838 3513 2113 
z
" transform="scale(0.015625)"/>
      <path id="DejaVuSans-41" d="M 2188 4044 
L 1331 1722 
L 3047 1722 
L 2188 4044 
z
M 1831 4666 
L 2547 4666 
L 4325 0 
L 3669 0 
L 3244 1197 
L 1141 1197 
L 716 0 
L 50 0 
L 1831 4666 
z
" transform="scale(0.015625)"/>
     </defs>
     <use xlink:href="#DejaVuSans-30"/>
     <use xlink:href="#DejaVuSans-2e" x="63.623047"/>
     <use xlink:href="#DejaVuSans-32" x="95.410156"/>
     <use xlink:href="#DejaVuSans-35" x="159.033203"/>
     <use xlink:href="#DejaVuSans-20" x="222.65625"/>
     <use xlink:href="#DejaVuSans-6e" x="254.443359"/>
     <use xlink:href="#DejaVuSans-41" x="317.822266"/>
    </g>
   </g>
   <g id="text_2">
    <!-- Tzilivaki.2 2019 -->
    <g transform="translate(201.6775 31.56) scale(0.22 -0.22)">
     <defs>
      <path id="DejaVuSans-54" d="M -19 4666 
L 3928 4666 
L 3928 4134 
L 2272 4134 
L 2272 0 
L 1638 0 
L 1638 4134 
L -19 4134 
L -19 4666 
z
" transform="scale(0.015625)"/>
      <path id="DejaVuSans-7a" d="M 353 3500 
L 3084 3500 
L 3084 2975 
L 922 459 
L 3084 459 
L 3084 0 
L 275 0 
L 275 525 
L 2438 3041 
L 353 3041 
L 353 3500 
z
" transform="scale(0.015625)"/>
      <path id="DejaVuSans-69" d="M 603 3500 
L 1178 3500 
L 1178 0 
L 603 0 
L 603 3500 
z
M 603 4863 
L 1178 4863 
L 1178 4134 
L 603 4134 
L 603 4863 
z
" transform="scale(0.015625)"/>
      <path id="DejaVuSans-6c" d="M 603 4863 
L 1178 4863 
L 1178 0 
L 603 0 
L 603 4863 
z
" transform="scale(0.015625)"/>
      <path id="DejaVuSans-76" d="M 191 3500 
L 800 3500 
L 1894 563 
L 2988 3500 
L 3597 3500 
L 2284 0 
L 1503 0 
L 191 3500 
z
" transform="scale(0.015625)"/>
      <path id="DejaVuSans-61" d="M 2194 1759 
Q 1497 1759 1228 1600 
Q 959 1441 959 1056 
Q 959 750 1161 570 
Q 1363 391 1709 391 
Q 2188 391 2477 730 
Q 2766 1069 2766 1631 
L 2766 1759 
L 2194 1759 
z
M 3341 1997 
L 3341 0 
L 2766 0 
L 2766 531 
Q 2569 213 2275 61 
Q 1981 -91 1556 -91 
Q 1019 -91 701 211 
Q 384 513 384 1019 
Q 384 1609 779 1909 
Q 1175 2209 1959 2209 
L 2766 2209 
L 2766 2266 
Q 2766 2663 2505 2880 
Q 2244 3097 1772 3097 
Q 1472 3097 1187 3025 
Q 903 2953 641 2809 
L 641 3341 
Q 956 3463 1253 3523 
Q 1550 3584 1831 3584 
Q 2591 3584 2966 3190 
Q 3341 2797 3341 1997 
z
" transform="scale(0.015625)"/>
      <path id="DejaVuSans-6b" d="M 581 4863 
L 1159 4863 
L 1159 1991 
L 2875 3500 
L 3609 3500 
L 1753 1863 
L 3688 0 
L 2938 0 
L 1159 1709 
L 1159 0 
L 581 0 
L 581 4863 
z
" transform="scale(0.015625)"/>
      <path id="DejaVuSans-31" d="M 794 531 
L 1825 531 
L 1825 4091 
L 703 3866 
L 703 4441 
L 1819 4666 
L 2450 4666 
L 2450 531 
L 3481 531 
L 3481 0 
L 794 0 
L 794 531 
z
" transform="scale(0.015625)"/>
      <path id="DejaVuSans-39" d="M 703 97 
L 703 672 
Q 941 559 1184 500 
Q 1428 441 1663 441 
Q 2288 441 2617 861 
Q 2947 1281 2994 2138 
Q 2813 1869 2534 1725 
Q 2256 1581 1919 1581 
Q 1219 1581 811 2004 
Q 403 2428 403 3163 
Q 403 3881 828 4315 
Q 1253 4750 1959 4750 
Q 2769 4750 3195 4129 
Q 3622 3509 3622 2328 
Q 3622 1225 3098 567 
Q 2575 -91 1691 -91 
Q 1453 -91 1209 -44 
Q 966 3 703 97 
z
M 1959 2075 
Q 2384 2075 2632 2365 
Q 2881 2656 2881 3163 
Q 2881 3666 2632 3958 
Q 2384 4250 1959 4250 
Q 1534 4250 1286 3958 
Q 1038 3666 1038 3163 
Q 1038 2656 1286 2365 
Q 1534 2075 1959 2075 
z
" transform="scale(0.015625)"/>
     </defs>
     <use xlink:href="#DejaVuSans-54"/>
     <use xlink:href="#DejaVuSans-7a" x="61.083984"/>
     <use xlink:href="#DejaVuSans-69" x="113.574219"/>
     <use xlink:href="#DejaVuSans-6c" x="141.357422"/>
     <use xlink:href="#DejaVuSans-69" x="169.140625"/>
     <use xlink:href="#DejaVuSans-76" x="196.923828"/>
     <use xlink:href="#DejaVuSans-61" x="256.103516"/>
     <use xlink:href="#DejaVuSans-6b" x="317.382812"/>
     <use xlink:href="#DejaVuSans-69" x="375.292969"/>
     <use xlink:href="#DejaVuSans-2e" x="403.076172"/>
     <use xlink:href="#DejaVuSans-32" x="434.863281"/>
     <use xlink:href="#DejaVuSans-20" x="498.486328"/>
     <use xlink:href="#DejaVuSans-32" x="530.273438"/>
     <use xlink:href="#DejaVuSans-30" x="593.896484"/>
     <use xlink:href="#DejaVuSans-31" x="657.519531"/>
     <use xlink:href="#DejaVuSans-39" x="721.142578"/>
    </g>
   </g>
   <g id="patch_2">
    <path d="M 406.3 273 
L 424.5 273 
L 424.5 37.56 
L 406.3 37.56 
L 406.3 273 
z
" clip-path="url(#p309a79d106)" style="fill: none; opacity: 0.5; stroke: #000000; stroke-linejoin: miter"/>
   </g>
   <g id="patch_3">
    <path d="M 561 214.14 
Q 492.75 243.57 424.5 273 
" style="fill: none; opacity: 0.5; stroke: #000000; stroke-linecap: round"/>
   </g>
   <g id="patch_4">
    <path d="M 561 72.876 
Q 492.75 55.218 424.5 37.56 
" style="fill: none; opacity: 0.5; stroke: #000000; stroke-linecap: round"/>
   </g>
   <g id="axes_2">
    <g id="patch_5">
     <path d="M 500.94 214.14 
L 561 214.14 
L 561 72.876 
L 500.94 72.876 
z
" style="fill: #ffffff"/>
    </g>
    <g id="matplotlib.axis_1">
     <g id="xtick_1"/>
     <g id="xtick_2"/>
     <g id="xtick_3"/>
    </g>
    <g id="matplotlib.axis_2">
     <g id="ytick_1"/>
     <g id="ytick_2"/>
     <g id="ytick_3"/>
     <g id="ytick_4"/>
     <g id="ytick_5"/>
     <g id="ytick_6"/>
    </g>
    <g id="line2d_2">
     <path d="M 500.94 172.378474 
L 501.99105 171.373521 
L 502.7418 170.398726 
L 503.3424 169.327868 
L 503.943 167.733549 
L 504.39345 165.761468 
L 504.69375 163.532553 
L 504.99405 159.20554 
L 505.1442 154.775197 
L 505.29435 145.49471 
L 505.7448 81.242471 
L 505.89495 79.928829 
L 506.0451 80.100858 
L 506.3454 82.104076 
L 506.6457 85.919889 
L 507.09615 94.945794 
L 507.99705 119.808616 
L 508.59765 139.551044 
L 509.49855 180.85352 
L 509.79885 184.637931 
L 510.09915 186.365904 
L 510.39945 187.138439 
L 510.69975 187.425658 
L 511.00005 187.448829 
L 511.4505 187.225352 
L 512.3514 186.425864 
L 514.60365 184.360879 
L 516.40545 183.054787 
L 518.50755 181.813942 
L 521.21025 180.483992 
L 524.81385 178.968416 
L 536.52555 174.254784 
L 538.32735 173.195184 
L 539.6787 172.145414 
L 540.72975 171.020724 
L 541.4805 169.883934 
L 542.0811 168.562036 
L 542.53155 167.065245 
L 542.982 164.523129 
L 543.2823 161.231489 
L 543.43245 158.251497 
L 543.5826 152.869814 
L 543.73275 140.597097 
L 544.03305 85.547747 
L 544.1832 80.543986 
L 544.33335 79.890486 
L 544.4835 80.274597 
L 544.7838 82.550497 
L 545.0841 86.634879 
L 545.53455 96.020788 
L 546.5856 125.514481 
L 547.03605 141.580715 
L 547.7868 178.994961 
L 548.0871 183.813004 
L 548.3874 186.001767 
L 548.6877 186.991397 
L 548.988 187.388815 
L 549.2883 187.469636 
L 549.73875 187.28395 
L 550.4895 186.638957 
L 553.1922 184.135376 
L 554.994 182.846233 
L 557.24625 181.532728 
L 560.0991 180.143962 
L 561.15015 179.6813 
L 561.15015 179.6813 
" clip-path="url(#p8de63daa18)" style="fill: none; stroke: #1f77b4; stroke-width: 1.5; stroke-linecap: square"/>
    </g>
    <g id="patch_6">
     <path d="M 500.94 214.14 
L 500.94 72.876 
" style="fill: none; stroke: #000000; stroke-width: 0.8; stroke-linejoin: miter; stroke-linecap: square"/>
    </g>
    <g id="patch_7">
     <path d="M 500.94 214.14 
L 561 214.14 
" style="fill: none; stroke: #000000; stroke-width: 0.8; stroke-linejoin: miter; stroke-linecap: square"/>
    </g>
   </g>
  </g>
 </g>
 <defs>
  <clipPath id="p309a79d106">
   <rect x="15" y="37.56" width="546" height="235.44"/>
  </clipPath>
  <clipPath id="p8de63daa18">
   <rect x="500.94" y="72.876" width="60.06" height="141.264"/>
  </clipPath>
 </defs>
</svg>
