<?xml version="1.0" encoding="utf-8" standalone="no"?>
<!DOCTYPE svg PUBLIC "-//W3C//DTD SVG 1.1//EN"
  "http://www.w3.org/Graphics/SVG/1.1/DTD/svg11.dtd">
<svg xmlns:xlink="http://www.w3.org/1999/xlink" width="576pt" height="288pt" viewBox="0 0 576 288" xmlns="http://www.w3.org/2000/svg" version="1.1">
 <metadata>
  <rdf:RDF xmlns:dc="http://purl.org/dc/elements/1.1/" xmlns:cc="http://creativecommons.org/ns#" xmlns:rdf="http://www.w3.org/1999/02/22-rdf-syntax-ns#">
   <cc:Work>
    <dc:type rdf:resource="http://purl.org/dc/dcmitype/StillImage"/>
    <dc:date>2024-09-24T19:33:33.485928</dc:date>
    <dc:format>image/svg+xml</dc:format>
    <dc:creator>
     <cc:Agent>
      <dc:title>Matplotlib v3.7.4, https://matplotlib.org/</dc:title>
     </cc:Agent>
    </dc:creator>
   </cc:Work>
  </rdf:RDF>
 </metadata>
 <defs>
  <style type="text/css">*{stroke-linejoin: round; stroke-linecap: butt}</style>
 </defs>
 <g id="figure_1">
  <g id="patch_1">
   <path d="M 0 288 
L 576 288 
L 576 0 
L 0 0 
z
" style="fill: #ffffff"/>
  </g>
  <g id="axes_1">
   <g id="line2d_1">
    <path d="M 15 238.4688 
L 17.9575 238.484705 
L 38.5235 238.564754 
L 106 238.573505 
L 106.3185 235.912643 
L 106.91 233.013868 
L 107.7745 229.972566 
L 108.8665 226.947224 
L 110.2315 223.828762 
L 111.8695 220.64895 
L 114.554 216.011732 
L 116.2375 212.896152 
L 117.193 210.652127 
L 117.83 208.61124 
L 118.3305 206.229496 
L 118.6945 203.337091 
L 118.9675 199.086595 
L 119.1495 191.980227 
L 119.2405 181.47472 
L 119.3315 125.60636 
L 119.468 48.062669 
L 119.5135 47.99229 
L 119.6045 49.505548 
L 119.7865 58.402042 
L 120.0595 87.522004 
L 120.469 152.105835 
L 120.7875 225.101267 
L 120.9695 228.926797 
L 121.0605 229.102669 
L 121.106 229.025388 
L 121.3335 227.965357 
L 122.107 224.105611 
L 122.744 222.122319 
L 123.6085 220.178431 
L 124.9735 217.710492 
L 127.931 212.497676 
L 128.7955 210.452828 
L 129.4325 208.382317 
L 129.8875 206.187587 
L 130.2515 203.29066 
L 130.5245 198.999899 
L 130.7065 191.721231 
L 130.7975 180.67866 
L 130.8885 119.561961 
L 131.025 48.016749 
L 131.0705 48.001796 
L 131.1615 49.583338 
L 131.3435 58.640671 
L 131.6165 88.015197 
L 132.026 153.300434 
L 132.3445 225.444585 
L 132.5265 229.262328 
L 132.6175 229.452305 
L 132.663 229.381952 
L 132.8905 228.348153 
L 133.664 224.496581 
L 134.301 222.488426 
L 135.1655 220.505503 
L 136.5305 217.980945 
L 139.5335 212.582266 
L 140.398 210.496513 
L 141.035 208.379676 
L 141.49 206.120675 
L 141.854 203.092003 
L 142.0815 199.531234 
L 142.2635 193.011525 
L 142.3545 183.808286 
L 142.4455 140.510076 
L 142.582 48.198676 
L 142.6275 47.914306 
L 142.673 48.298343 
L 142.8095 52.302946 
L 143.037 69.427937 
L 143.492 131.655634 
L 143.674 179.2558 
L 143.856 221.818052 
L 144.038 228.978898 
L 144.1745 229.677743 
L 144.2655 229.501878 
L 144.584 227.811487 
L 145.221 224.651321 
L 145.9035 222.443806 
L 146.8135 220.292778 
L 148.679 216.603022 
L 149.4525 214.830833 
L 149.5435 214.140625 
L 150.499 194.453842 
L 150.6355 180.40291 
L 150.7265 118.060654 
L 150.863 48.144409 
L 150.9085 48.129958 
L 150.9995 49.688072 
L 151.1815 58.67146 
L 151.4545 87.983559 
L 151.864 152.226144 
L 152.1825 223.305923 
L 152.3645 226.518182 
L 152.41 226.52897 
L 152.5465 225.940087 
L 152.865 224.182989 
L 152.9105 224.219823 
L 153.047 224.26533 
L 153.2745 223.960102 
L 154.2755 221.852895 
L 155.413 219.793224 
L 157.0965 217.263935 
L 159.781 213.234834 
L 160.8275 211.229429 
L 161.5555 209.36774 
L 162.1015 207.377108 
L 162.511 205.071499 
L 162.8295 201.965788 
L 163.057 197.432341 
L 163.1935 190.926379 
L 163.2845 178.283422 
L 163.3755 102.691422 
L 163.512 47.955734 
L 163.5575 48.085128 
L 163.694 51.48399 
L 163.876 63.178718 
L 164.1945 102.103805 
L 164.513 156.211415 
L 164.8315 225.781691 
L 165.0135 229.563651 
L 165.1045 229.77312 
L 165.15 229.714663 
L 165.332 228.983782 
L 166.242 224.716705 
L 166.9245 222.777341 
L 167.8345 220.891189 
L 169.1995 218.605926 
L 173.158 212.243765 
L 174.0225 210.274478 
L 174.6595 208.259632 
L 175.1145 206.111068 
L 175.4785 203.269241 
L 175.7515 199.076071 
L 175.9335 192.077869 
L 176.0245 181.831087 
L 176.1155 128.379578 
L 176.252 48.073593 
L 176.2975 47.960961 
L 176.3885 49.418031 
L 176.5705 58.191415 
L 176.8435 87.166062 
L 177.253 151.674209 
L 177.617 227.521305 
L 177.799 229.93939 
L 177.8445 229.985485 
L 177.89 229.930889 
L 178.072 229.188534 
L 178.982 224.793077 
L 179.6645 222.79335 
L 180.5745 220.848813 
L 181.9395 218.490894 
L 185.6705 212.286881 
L 186.535 210.271047 
L 187.172 208.203637 
L 187.627 205.982465 
L 187.991 202.996032 
L 188.2185 199.496124 
L 188.4005 193.203982 
L 188.4915 184.888174 
L 188.5825 149.626747 
L 188.719 48.407333 
L 188.7645 47.912265 
L 188.81 48.194854 
L 188.9465 51.94163 
L 189.1285 64.142346 
L 189.4925 110.0467 
L 189.7655 159.247225 
L 190.0385 224.352216 
L 190.2205 229.548727 
L 190.357 229.944631 
L 190.4935 229.512772 
L 191.813 223.670692 
L 192.5865 221.747255 
L 193.724 219.55774 
L 195.7715 216.19117 
L 197.5915 213.059382 
L 198.547 210.994431 
L 199.2295 209.01695 
L 199.73 206.928255 
L 200.1395 204.184298 
L 200.4125 200.863438 
L 200.5945 196.418124 
L 200.731 188.04729 
L 200.822 166.876174 
L 201.0495 47.976306 
L 201.1405 49.485353 
L 201.3225 58.378179 
L 201.5955 87.53233 
L 202.005 152.474972 
L 202.3235 225.838471 
L 202.5055 229.803943 
L 202.5965 230.027008 
L 202.642 229.968639 
L 202.824 229.216784 
L 203.7795 224.605092 
L 204.462 222.602275 
L 205.4175 220.525469 
L 206.919 217.860025 
L 209.831 212.796453 
L 210.741 210.713901 
L 211.378 208.742856 
L 211.8785 206.468629 
L 212.2425 203.774008 
L 212.5155 200.015323 
L 212.6975 194.439474 
L 212.834 180.895334 
L 212.925 121.15749 
L 213.0615 48.023807 
L 213.107 47.99294 
L 213.198 49.552613 
L 213.38 58.562777 
L 213.653 87.889108 
L 214.0625 153.285869 
L 214.381 225.869884 
L 214.563 229.786475 
L 214.654 230.003435 
L 214.6995 229.943304 
L 214.8815 229.187418 
L 215.837 224.554454 
L 216.5195 222.529721 
L 217.475 220.417393 
L 218.9765 217.686365 
L 221.661 212.858651 
L 222.571 210.718302 
L 223.208 208.682181 
L 223.7085 206.303365 
L 224.0725 203.410652 
L 224.3455 199.142835 
L 224.5275 191.892283 
L 224.6185 180.412718 
L 224.7095 116.393728 
L 224.846 48.00069 
L 224.8915 48.013662 
L 224.9825 49.63307 
L 225.1645 58.78286 
L 225.4375 88.313635 
L 225.847 154.554213 
L 226.1655 225.818844 
L 226.3475 229.69807 
L 226.4385 229.908503 
L 226.484 229.845716 
L 226.666 229.080117 
L 227.6215 224.402637 
L 228.3495 222.21997 
L 229.396 219.857538 
L 231.762 214.909955 
L 231.853 214.016278 
L 232.4445 204.209319 
L 232.7175 198.14777 
L 232.854 191.795842 
L 232.945 180.834574 
L 233.036 121.341375 
L 233.1725 48.16091 
L 233.218 48.115539 
L 233.309 49.631508 
L 233.491 58.519182 
L 233.764 87.702215 
L 234.219 164.981867 
L 234.4465 220.766045 
L 234.6285 226.614689 
L 234.7195 226.869804 
L 234.765 226.765507 
L 235.038 225.131502 
L 235.129 224.75671 
L 235.1745 224.781914 
L 235.3565 224.775779 
L 235.6295 224.300794 
L 237.6315 220.194857 
L 239.1785 217.801246 
L 242.3635 212.967599 
L 243.3645 210.968028 
L 244.047 209.136692 
L 244.593 207.019001 
L 245.0025 204.46955 
L 245.2755 201.494278 
L 245.503 196.315548 
L 245.6395 187.835714 
L 245.7305 165.976602 
L 245.958 47.990455 
L 246.049 49.538081 
L 246.231 58.521399 
L 246.504 87.802021 
L 246.9135 152.990907 
L 247.232 225.900998 
L 247.414 229.86566 
L 247.505 230.095652 
L 247.5505 230.041318 
L 247.7325 229.307555 
L 248.6425 224.957704 
L 249.325 222.977344 
L 250.235 221.055511 
L 251.6 218.73625 
L 255.695 212.076026 
L 256.514 210.16048 
L 257.151 208.082516 
L 257.606 205.825499 
L 257.97 202.739335 
L 258.1975 199.018495 
L 258.3795 191.902562 
L 258.4705 181.311994 
L 258.5615 124.512028 
L 258.698 48.047177 
L 258.7435 47.97826 
L 258.8345 49.491886 
L 259.0165 58.396039 
L 259.2895 87.564473 
L 259.699 152.522489 
L 260.0175 225.876906 
L 260.1995 229.860396 
L 260.2905 230.089547 
L 260.336 230.033931 
L 260.518 229.292219 
L 261.4735 224.730107 
L 262.156 222.762732 
L 263.1115 220.737367 
L 264.5675 218.23555 
L 267.98 212.556697 
L 268.89 210.494807 
L 269.527 208.513433 
L 270.0275 206.184809 
L 270.3915 203.350494 
L 270.6645 199.20385 
L 270.8465 192.395432 
L 270.9375 182.712127 
L 271.0285 134.787738 
L 271.165 48.128075 
L 271.2105 47.934031 
L 271.3015 49.290473 
L 271.4835 57.836615 
L 271.7565 86.483549 
L 272.166 150.411559 
L 272.53 227.493412 
L 272.712 230.066735 
L 272.7575 230.126795 
L 272.803 230.081835 
L 272.985 229.353246 
L 273.9405 224.729442 
L 274.623 222.724435 
L 275.5785 220.656859 
L 277.0345 218.09615 
L 280.265 212.561163 
L 281.175 210.445394 
L 281.812 208.398623 
L 282.267 206.236154 
L 282.631 203.403027 
L 282.904 199.277398 
L 283.086 192.560298 
L 283.177 183.145007 
L 283.268 137.832546 
L 283.4045 48.16174 
L 283.45 47.923378 
L 283.541 49.228004 
L 283.723 57.660466 
L 283.996 86.143637 
L 284.4055 149.786615 
L 284.7695 227.413372 
L 284.9515 230.060959 
L 284.997 230.126917 
L 285.0425 230.085734 
L 285.2245 229.360558 
L 286.18 224.698612 
L 286.8625 222.667112 
L 287.818 220.565265 
L 289.274 217.951177 
L 292.277 212.677693 
L 293.187 210.54409 
L 293.824 208.492943 
L 294.279 206.339605 
L 294.643 203.541769 
L 294.916 199.525074 
L 295.098 193.178585 
L 295.189 184.751471 
L 295.28 148.567931 
L 295.4165 48.368426 
L 295.462 47.908897 
L 295.5075 48.205657 
L 295.644 51.985485 
L 295.826 64.236911 
L 296.19 110.205359 
L 296.463 159.793742 
L 296.736 224.666591 
L 296.918 229.68612 
L 297.009 230.058477 
L 297.0545 230.043086 
L 297.191 229.589358 
L 298.465 223.752336 
L 299.2385 221.721044 
L 300.376 219.407655 
L 302.6965 215.337794 
L 304.1525 212.544654 
L 305.017 210.417483 
L 305.654 208.240395 
L 306.109 205.881828 
L 306.4275 203.166617 
L 306.655 199.659257 
L 306.837 193.339319 
L 306.928 184.695588 
L 307.019 146.310509 
L 307.1555 48.310721 
L 307.201 47.90672 
L 307.2465 48.228886 
L 307.383 52.071319 
L 307.6105 68.892684 
L 308.0655 130.894051 
L 308.2475 177.567561 
L 308.475 224.986524 
L 308.657 229.728847 
L 308.748 230.05391 
L 308.7935 230.022216 
L 308.9755 229.300341 
L 309.9765 224.35725 
L 310.7045 222.176931 
L 311.751 219.802317 
L 313.935 215.146472 
L 314.026 214.020042 
L 315.027 193.026112 
L 315.118 184.359642 
L 315.209 146.865417 
L 315.3455 48.46361 
L 315.391 48.037385 
L 315.4365 48.338959 
L 315.573 52.100773 
L 315.755 64.311067 
L 316.119 110.184155 
L 316.392 158.185551 
L 316.665 221.847265 
L 316.847 226.800964 
L 316.938 226.985206 
L 317.0745 226.457977 
L 317.2565 225.726087 
L 317.302 225.737221 
L 317.4385 225.696126 
L 317.7115 225.095677 
L 319.0765 221.761226 
L 320.1685 219.78775 
L 321.943 217.094857 
L 324.4455 213.268835 
L 325.492 211.239855 
L 326.22 209.356304 
L 326.766 207.338068 
L 327.1755 204.988861 
L 327.494 201.791442 
L 327.7215 197.01611 
L 327.858 189.826222 
L 327.949 174.388093 
L 328.1765 47.911523 
L 328.2675 49.020572 
L 328.4495 57.060627 
L 328.7225 84.988466 
L 329.1775 159.813915 
L 329.4505 224.605126 
L 329.6325 229.701318 
L 329.7235 230.092237 
L 329.769 230.084708 
L 329.9055 229.652362 
L 331.1795 223.999714 
L 331.953 222.076561 
L 333.045 220.0034 
L 334.8195 217.173383 
L 337.2765 213.232277 
L 338.2775 211.20302 
L 339.0055 209.232462 
L 339.5515 207.090854 
L 339.961 204.526516 
L 340.234 201.54742 
L 340.4615 196.389563 
L 340.598 188.015825 
L 340.689 166.783768 
L 340.9165 47.977174 
L 341.0075 49.489925 
L 341.1895 58.391917 
L 341.4625 87.557555 
L 341.872 152.509682 
L 342.1905 225.88087 
L 342.3725 229.865729 
L 342.4635 230.094457 
L 342.509 230.038469 
L 342.691 229.294539 
L 343.6465 224.715307 
L 344.329 222.736936 
L 345.2845 220.698911 
L 346.7405 218.180664 
L 350.1075 212.530947 
L 351.0175 210.448024 
L 351.6545 208.436868 
L 352.1095 206.323208 
L 352.4735 203.584636 
L 352.7465 199.692695 
L 352.9285 193.702875 
L 353.065 177.622073 
L 353.156 98.286151 
L 353.2925 47.938308 
L 353.338 48.105045 
L 353.4745 51.581294 
L 353.6565 63.390229 
L 353.975 102.442934 
L 354.2935 156.99028 
L 354.5665 223.486908 
L 354.7485 229.411675 
L 354.885 229.949927 
L 355.0215 229.574222 
L 356.4775 223.32083 
L 357.2965 221.366115 
L 358.525 219.052563 
L 362.802 211.455703 
L 363.53 209.478413 
L 364.076 207.3708 
L 364.4855 204.91152 
L 364.804 201.515043 
L 365.0315 196.229337 
L 365.168 187.461312 
L 365.259 164.062116 
L 365.441 48.001039 
L 365.4865 48.014066 
L 365.5775 49.635504 
L 365.7595 58.786967 
L 366.0325 88.308558 
L 366.442 154.077092 
L 366.7605 225.868912 
L 366.9425 229.781147 
L 367.0335 230.002356 
L 367.079 229.944642 
L 367.261 229.19827 
L 368.2165 224.587107 
L 368.899 222.567343 
L 369.8545 220.46586 
L 371.356 217.76433 
L 374.177 212.781392 
L 375.087 210.667415 
L 375.724 208.656467 
L 376.2245 206.31355 
L 376.5885 203.486941 
L 376.8615 199.399088 
L 377.0435 192.828736 
L 377.1345 183.823607 
L 377.2255 142.398586 
L 377.362 48.228607 
L 377.4075 47.910829 
L 377.453 48.277935 
L 377.5895 52.237897 
L 377.817 69.275923 
L 378.272 131.359224 
L 378.454 178.368648 
L 378.636 221.86934 
L 378.818 229.332372 
L 378.9545 230.107272 
L 379 230.073554 
L 379.182 229.356623 
L 380.183 224.473894 
L 380.911 222.334783 
L 381.912 220.140157 
L 383.55 217.160061 
L 385.825 212.998931 
L 386.7805 210.747714 
L 387.4175 208.699176 
L 387.918 206.306341 
L 388.282 203.392999 
L 388.555 199.076222 
L 388.737 191.635487 
L 388.828 179.369601 
L 388.919 109.132995 
L 389.0555 47.970055 
L 389.101 48.04642 
L 389.2375 51.316752 
L 389.4195 62.823666 
L 389.738 101.580824 
L 390.0565 155.858426 
L 390.375 225.881315 
L 390.557 229.679143 
L 390.648 229.879536 
L 390.6935 229.814062 
L 390.8755 229.043915 
L 391.831 224.349415 
L 392.559 222.143119 
L 393.6055 219.738955 
L 395.38 215.828561 
L 395.5165 213.673948 
L 396.5175 194.861114 
L 396.654 183.665866 
L 396.745 142.060672 
L 396.8815 48.361228 
L 396.927 48.039836 
L 396.9725 48.395971 
L 397.109 52.304382 
L 397.3365 69.234473 
L 397.7915 130.753117 
L 397.9735 175.991607 
L 398.201 222.755879 
L 398.383 227.345279 
L 398.474 227.553377 
L 398.5195 227.499448 
L 398.6105 227.437413 
L 398.7015 227.523417 
L 398.747 227.490487 
L 398.929 227.020258 
L 400.1575 223.088275 
L 401.0675 221.146387 
L 402.3415 218.997846 
L 406.755 211.95957 
L 407.574 210.028434 
L 408.1655 208.088963 
L 408.6205 205.847944 
L 408.9845 202.791554 
L 409.212 199.128817 
L 409.394 192.227407 
L 409.485 182.259877 
L 409.576 131.530826 
L 409.7125 48.099581 
L 409.758 47.946949 
L 409.849 49.356254 
L 410.031 58.021587 
L 410.304 86.840541 
L 410.7135 151.082675 
L 411.0775 227.605378 
L 411.2595 230.100569 
L 411.305 230.1541 
L 411.3505 230.104752 
L 411.5325 229.370242 
L 412.488 224.772906 
L 413.1705 222.788785 
L 414.126 220.749404 
L 415.5365 218.308464 
L 419.04 212.442346 
L 419.9045 210.458625 
L 420.5415 208.456991 
L 421.042 206.089792 
L 421.406 203.176068 
L 421.679 198.814599 
L 421.861 191.250917 
L 421.952 179.283257 
L 422.043 109.550449 
L 422.1795 47.974196 
L 422.225 48.047983 
L 422.3615 51.318448 
L 422.5435 62.820817 
L 422.862 101.552909 
L 423.1805 155.231018 
L 423.499 225.84665 
L 423.681 229.733841 
L 423.772 229.956995 
L 423.8175 229.901364 
L 423.9995 229.166294 
L 424.955 224.609116 
L 425.6375 222.616204 
L 426.593 220.549316 
L 428.049 217.980744 
L 431.143 212.661025 
L 432.053 210.569772 
L 432.69 208.569042 
L 433.1905 206.225014 
L 433.5545 203.378375 
L 433.8275 199.219832 
L 434.0095 192.396428 
L 434.1005 182.688576 
L 434.1915 134.564395 
L 434.328 48.122293 
L 434.3735 47.932467 
L 434.4645 49.2914 
L 434.6465 57.842362 
L 434.9195 86.498013 
L 435.329 150.451116 
L 435.693 227.516267 
L 435.875 230.071403 
L 435.9205 230.128642 
L 435.966 230.081059 
L 436.148 229.342546 
L 437.1035 224.664478 
L 437.786 222.623587 
L 438.7415 220.510522 
L 440.1975 217.882826 
L 443.155 212.659671 
L 444.065 210.514517 
L 444.702 208.446951 
L 445.157 206.266969 
L 445.521 203.412726 
L 445.794 199.250047 
L 445.976 192.431184 
L 446.067 182.749111 
L 446.158 134.900773 
L 446.2945 48.124041 
L 446.34 47.930672 
L 446.431 49.283954 
L 446.613 57.822384 
L 446.886 86.462823 
L 447.2955 150.433133 
L 447.6595 227.535055 
L 447.8415 230.071255 
L 447.887 230.125578 
L 447.9325 230.075342 
L 448.1145 229.327475 
L 449.07 224.61195 
L 449.7525 222.548425 
L 450.708 220.402492 
L 452.2095 217.638919 
L 454.894 212.760024 
L 455.804 210.581331 
L 456.441 208.485627 
L 456.896 206.274788 
L 457.26 203.367958 
L 457.533 199.076309 
L 457.715 191.81156 
L 457.806 180.772913 
L 457.897 119.270776 
L 458.0335 48.011978 
L 458.079 47.998035 
L 458.17 49.579778 
L 458.352 58.642091 
L 458.625 88.049021 
L 459.0345 153.877197 
L 459.353 225.875158 
L 459.535 229.774351 
L 459.626 229.986137 
L 459.6715 229.92328 
L 459.8535 229.154771 
L 460.809 224.444472 
L 461.537 222.248407 
L 462.538 219.989436 
L 464.267 216.719093 
L 466.1325 213.078748 
L 467.0425 210.79122 
L 467.634 208.736141 
L 468.0435 206.596279 
L 468.2255 204.812702 
L 468.4985 195.925564 
L 468.635 183.720766 
L 468.726 140.546834 
L 468.8625 48.201391 
L 468.908 47.911192 
L 468.9535 48.28353 
L 469.09 52.236416 
L 469.3175 69.270308 
L 469.7725 131.507081 
L 469.9545 178.190612 
L 470.1365 220.717271 
L 470.3185 227.743346 
L 470.4095 228.24734 
L 470.455 228.241155 
L 470.5915 227.756179 
L 471.0465 225.963585 
L 471.911 228.719562 
L 472.6845 229.80178 
L 474.3225 231.664401 
L 475.9605 233.199189 
L 477.644 234.469219 
L 479.464 235.558967 
L 481.466 236.492491 
L 483.6955 237.282702 
L 486.2435 237.946095 
L 489.2465 238.491235 
L 492.8865 238.916014 
L 497.482 239.216341 
L 503.7155 239.385249 
L 513.498 239.402379 
L 542.4815 239.124814 
L 561 238.979549 
L 561 238.979549 
" clip-path="url(#p9f69d3ca82)" style="fill: none; stroke: #1f77b4; stroke-width: 1.5; stroke-linecap: square"/>
   </g>
   <g id="text_1">
    <!-- 0.3 nA -->
    <g transform="translate(37.75 53.256) scale(0.2 -0.2)">
     <defs>
      <path id="DejaVuSans-30" d="M 2034 4250 
Q 1547 4250 1301 3770 
Q 1056 3291 1056 2328 
Q 1056 1369 1301 889 
Q 1547 409 2034 409 
Q 2525 409 2770 889 
Q 3016 1369 3016 2328 
Q 3016 3291 2770 3770 
Q 2525 4250 2034 4250 
z
M 2034 4750 
Q 2819 4750 3233 4129 
Q 3647 3509 3647 2328 
Q 3647 1150 3233 529 
Q 2819 -91 2034 -91 
Q 1250 -91 836 529 
Q 422 1150 422 2328 
Q 422 3509 836 4129 
Q 1250 4750 2034 4750 
z
" transform="scale(0.015625)"/>
      <path id="DejaVuSans-2e" d="M 684 794 
L 1344 794 
L 1344 0 
L 684 0 
L 684 794 
z
" transform="scale(0.015625)"/>
      <path id="DejaVuSans-33" d="M 2597 2516 
Q 3050 2419 3304 2112 
Q 3559 1806 3559 1356 
Q 3559 666 3084 287 
Q 2609 -91 1734 -91 
Q 1441 -91 1130 -33 
Q 819 25 488 141 
L 488 750 
Q 750 597 1062 519 
Q 1375 441 1716 441 
Q 2309 441 2620 675 
Q 2931 909 2931 1356 
Q 2931 1769 2642 2001 
Q 2353 2234 1838 2234 
L 1294 2234 
L 1294 2753 
L 1863 2753 
Q 2328 2753 2575 2939 
Q 2822 3125 2822 3475 
Q 2822 3834 2567 4026 
Q 2313 4219 1838 4219 
Q 1578 4219 1281 4162 
Q 984 4106 628 3988 
L 628 4550 
Q 988 4650 1302 4700 
Q 1616 4750 1894 4750 
Q 2613 4750 3031 4423 
Q 3450 4097 3450 3541 
Q 3450 3153 3228 2886 
Q 3006 2619 2597 2516 
z
" transform="scale(0.015625)"/>
      <path id="DejaVuSans-20" transform="scale(0.015625)"/>
      <path id="DejaVuSans-6e" d="M 3513 2113 
L 3513 0 
L 2938 0 
L 2938 2094 
Q 2938 2591 2744 2837 
Q 2550 3084 2163 3084 
Q 1697 3084 1428 2787 
Q 1159 2491 1159 1978 
L 1159 0 
L 581 0 
L 581 3500 
L 1159 3500 
L 1159 2956 
Q 1366 3272 1645 3428 
Q 1925 3584 2291 3584 
Q 2894 3584 3203 3211 
Q 3513 2838 3513 2113 
z
" transform="scale(0.015625)"/>
      <path id="DejaVuSans-41" d="M 2188 4044 
L 1331 1722 
L 3047 1722 
L 2188 4044 
z
M 1831 4666 
L 2547 4666 
L 4325 0 
L 3669 0 
L 3244 1197 
L 1141 1197 
L 716 0 
L 50 0 
L 1831 4666 
z
" transform="scale(0.015625)"/>
     </defs>
     <use xlink:href="#DejaVuSans-30"/>
     <use xlink:href="#DejaVuSans-2e" x="63.623047"/>
     <use xlink:href="#DejaVuSans-33" x="95.410156"/>
     <use xlink:href="#DejaVuSans-20" x="159.033203"/>
     <use xlink:href="#DejaVuSans-6e" x="190.820312"/>
     <use xlink:href="#DejaVuSans-41" x="254.199219"/>
    </g>
   </g>
   <g id="text_2">
    <!-- Tzilivaki.5 2019 -->
    <g transform="translate(201.6775 31.56) scale(0.22 -0.22)">
     <defs>
      <path id="DejaVuSans-54" d="M -19 4666 
L 3928 4666 
L 3928 4134 
L 2272 4134 
L 2272 0 
L 1638 0 
L 1638 4134 
L -19 4134 
L -19 4666 
z
" transform="scale(0.015625)"/>
      <path id="DejaVuSans-7a" d="M 353 3500 
L 3084 3500 
L 3084 2975 
L 922 459 
L 3084 459 
L 3084 0 
L 275 0 
L 275 525 
L 2438 3041 
L 353 3041 
L 353 3500 
z
" transform="scale(0.015625)"/>
      <path id="DejaVuSans-69" d="M 603 3500 
L 1178 3500 
L 1178 0 
L 603 0 
L 603 3500 
z
M 603 4863 
L 1178 4863 
L 1178 4134 
L 603 4134 
L 603 4863 
z
" transform="scale(0.015625)"/>
      <path id="DejaVuSans-6c" d="M 603 4863 
L 1178 4863 
L 1178 0 
L 603 0 
L 603 4863 
z
" transform="scale(0.015625)"/>
      <path id="DejaVuSans-76" d="M 191 3500 
L 800 3500 
L 1894 563 
L 2988 3500 
L 3597 3500 
L 2284 0 
L 1503 0 
L 191 3500 
z
" transform="scale(0.015625)"/>
      <path id="DejaVuSans-61" d="M 2194 1759 
Q 1497 1759 1228 1600 
Q 959 1441 959 1056 
Q 959 750 1161 570 
Q 1363 391 1709 391 
Q 2188 391 2477 730 
Q 2766 1069 2766 1631 
L 2766 1759 
L 2194 1759 
z
M 3341 1997 
L 3341 0 
L 2766 0 
L 2766 531 
Q 2569 213 2275 61 
Q 1981 -91 1556 -91 
Q 1019 -91 701 211 
Q 384 513 384 1019 
Q 384 1609 779 1909 
Q 1175 2209 1959 2209 
L 2766 2209 
L 2766 2266 
Q 2766 2663 2505 2880 
Q 2244 3097 1772 3097 
Q 1472 3097 1187 3025 
Q 903 2953 641 2809 
L 641 3341 
Q 956 3463 1253 3523 
Q 1550 3584 1831 3584 
Q 2591 3584 2966 3190 
Q 3341 2797 3341 1997 
z
" transform="scale(0.015625)"/>
      <path id="DejaVuSans-6b" d="M 581 4863 
L 1159 4863 
L 1159 1991 
L 2875 3500 
L 3609 3500 
L 1753 1863 
L 3688 0 
L 2938 0 
L 1159 1709 
L 1159 0 
L 581 0 
L 581 4863 
z
" transform="scale(0.015625)"/>
      <path id="DejaVuSans-35" d="M 691 4666 
L 3169 4666 
L 3169 4134 
L 1269 4134 
L 1269 2991 
Q 1406 3038 1543 3061 
Q 1681 3084 1819 3084 
Q 2600 3084 3056 2656 
Q 3513 2228 3513 1497 
Q 3513 744 3044 326 
Q 2575 -91 1722 -91 
Q 1428 -91 1123 -41 
Q 819 9 494 109 
L 494 744 
Q 775 591 1075 516 
Q 1375 441 1709 441 
Q 2250 441 2565 725 
Q 2881 1009 2881 1497 
Q 2881 1984 2565 2268 
Q 2250 2553 1709 2553 
Q 1456 2553 1204 2497 
Q 953 2441 691 2322 
L 691 4666 
z
" transform="scale(0.015625)"/>
      <path id="DejaVuSans-32" d="M 1228 531 
L 3431 531 
L 3431 0 
L 469 0 
L 469 531 
Q 828 903 1448 1529 
Q 2069 2156 2228 2338 
Q 2531 2678 2651 2914 
Q 2772 3150 2772 3378 
Q 2772 3750 2511 3984 
Q 2250 4219 1831 4219 
Q 1534 4219 1204 4116 
Q 875 4013 500 3803 
L 500 4441 
Q 881 4594 1212 4672 
Q 1544 4750 1819 4750 
Q 2544 4750 2975 4387 
Q 3406 4025 3406 3419 
Q 3406 3131 3298 2873 
Q 3191 2616 2906 2266 
Q 2828 2175 2409 1742 
Q 1991 1309 1228 531 
z
" transform="scale(0.015625)"/>
      <path id="DejaVuSans-31" d="M 794 531 
L 1825 531 
L 1825 4091 
L 703 3866 
L 703 4441 
L 1819 4666 
L 2450 4666 
L 2450 531 
L 3481 531 
L 3481 0 
L 794 0 
L 794 531 
z
" transform="scale(0.015625)"/>
      <path id="DejaVuSans-39" d="M 703 97 
L 703 672 
Q 941 559 1184 500 
Q 1428 441 1663 441 
Q 2288 441 2617 861 
Q 2947 1281 2994 2138 
Q 2813 1869 2534 1725 
Q 2256 1581 1919 1581 
Q 1219 1581 811 2004 
Q 403 2428 403 3163 
Q 403 3881 828 4315 
Q 1253 4750 1959 4750 
Q 2769 4750 3195 4129 
Q 3622 3509 3622 2328 
Q 3622 1225 3098 567 
Q 2575 -91 1691 -91 
Q 1453 -91 1209 -44 
Q 966 3 703 97 
z
M 1959 2075 
Q 2384 2075 2632 2365 
Q 2881 2656 2881 3163 
Q 2881 3666 2632 3958 
Q 2384 4250 1959 4250 
Q 1534 4250 1286 3958 
Q 1038 3666 1038 3163 
Q 1038 2656 1286 2365 
Q 1534 2075 1959 2075 
z
" transform="scale(0.015625)"/>
     </defs>
     <use xlink:href="#DejaVuSans-54"/>
     <use xlink:href="#DejaVuSans-7a" x="61.083984"/>
     <use xlink:href="#DejaVuSans-69" x="113.574219"/>
     <use xlink:href="#DejaVuSans-6c" x="141.357422"/>
     <use xlink:href="#DejaVuSans-69" x="169.140625"/>
     <use xlink:href="#DejaVuSans-76" x="196.923828"/>
     <use xlink:href="#DejaVuSans-61" x="256.103516"/>
     <use xlink:href="#DejaVuSans-6b" x="317.382812"/>
     <use xlink:href="#DejaVuSans-69" x="375.292969"/>
     <use xlink:href="#DejaVuSans-2e" x="403.076172"/>
     <use xlink:href="#DejaVuSans-35" x="434.863281"/>
     <use xlink:href="#DejaVuSans-20" x="498.486328"/>
     <use xlink:href="#DejaVuSans-32" x="530.273438"/>
     <use xlink:href="#DejaVuSans-30" x="593.896484"/>
     <use xlink:href="#DejaVuSans-31" x="657.519531"/>
     <use xlink:href="#DejaVuSans-39" x="721.142578"/>
    </g>
   </g>
   <g id="patch_2">
    <path d="M 406.3 273 
L 424.5 273 
L 424.5 37.56 
L 406.3 37.56 
L 406.3 273 
z
" clip-path="url(#p9f69d3ca82)" style="fill: none; opacity: 0.5; stroke: #000000; stroke-linejoin: miter"/>
   </g>
   <g id="patch_3">
    <path d="M 561 214.14 
Q 492.75 243.57 424.5 273 
" style="fill: none; opacity: 0.5; stroke: #000000; stroke-linecap: round"/>
   </g>
   <g id="patch_4">
    <path d="M 561 72.876 
Q 492.75 55.218 424.5 37.56 
" style="fill: none; opacity: 0.5; stroke: #000000; stroke-linecap: round"/>
   </g>
   <g id="axes_2">
    <g id="patch_5">
     <path d="M 500.94 214.14 
L 561 214.14 
L 561 72.876 
L 500.94 72.876 
z
" style="fill: #ffffff"/>
    </g>
    <g id="matplotlib.axis_1">
     <g id="xtick_1"/>
     <g id="xtick_2"/>
     <g id="xtick_3"/>
    </g>
    <g id="matplotlib.axis_2">
     <g id="ytick_1"/>
     <g id="ytick_2"/>
     <g id="ytick_3"/>
     <g id="ytick_4"/>
     <g id="ytick_5"/>
     <g id="ytick_6"/>
    </g>
    <g id="line2d_2">
     <path d="M 500.94 178.045903 
L 503.79285 176.979118 
L 505.7448 176.041179 
L 507.2463 175.083175 
L 508.29735 174.171286 
L 509.19825 173.071987 
L 509.79885 172.014932 
L 510.2493 170.881065 
L 510.69975 169.127866 
L 511.00005 167.175516 
L 511.30035 163.453943 
L 511.4505 159.695926 
L 511.60065 151.787052 
L 511.7508 129.258496 
L 511.90095 89.510678 
L 512.0511 80.365217 
L 512.20125 79.199749 
L 512.3514 79.10817 
L 512.50155 79.387781 
L 512.80185 80.797843 
L 513.10215 83.378722 
L 513.5526 89.714813 
L 514.1532 102.444325 
L 515.20425 130.068703 
L 515.50455 140.989605 
L 516.40545 183.986398 
L 516.70575 186.903227 
L 517.00605 188.034922 
L 517.30635 188.400342 
L 517.60665 188.402851 
L 518.0571 188.101178 
L 521.21025 185.30081 
L 522.71175 184.440625 
L 524.81385 183.508609 
L 527.81685 182.436253 
L 532.7718 180.931347 
L 541.93095 178.178592 
L 544.93395 177.028149 
L 546.8859 176.067275 
L 548.3874 175.087679 
L 549.43845 174.154558 
L 550.1892 173.246394 
L 550.7898 172.245641 
L 551.3904 170.751174 
L 551.84085 168.89322 
L 552.14115 166.769099 
L 552.44145 162.515584 
L 552.5916 157.909954 
L 552.74175 147.277915 
L 553.04205 84.437037 
L 553.1922 79.752481 
L 553.34235 79.124517 
L 553.4925 79.16879 
L 553.7928 80.19488 
L 554.0931 82.365672 
L 554.54355 88.03249 
L 555.14415 100.06184 
L 556.1952 127.184474 
L 556.64565 143.478611 
L 557.3964 181.520991 
L 557.6967 185.84799 
L 557.997 187.552833 
L 558.2973 188.180305 
L 558.5976 188.314197 
L 559.04805 188.101875 
L 559.94895 187.233298 
L 561.15015 186.096666 
L 561.15015 186.096666 
" clip-path="url(#p665a56f112)" style="fill: none; stroke: #1f77b4; stroke-width: 1.5; stroke-linecap: square"/>
    </g>
    <g id="patch_6">
     <path d="M 500.94 214.14 
L 500.94 72.876 
" style="fill: none; stroke: #000000; stroke-width: 0.8; stroke-linejoin: miter; stroke-linecap: square"/>
    </g>
    <g id="patch_7">
     <path d="M 500.94 214.14 
L 561 214.14 
" style="fill: none; stroke: #000000; stroke-width: 0.8; stroke-linejoin: miter; stroke-linecap: square"/>
    </g>
   </g>
  </g>
 </g>
 <defs>
  <clipPath id="p9f69d3ca82">
   <rect x="15" y="37.56" width="546" height="235.44"/>
  </clipPath>
  <clipPath id="p665a56f112">
   <rect x="500.94" y="72.876" width="60.06" height="141.264"/>
  </clipPath>
 </defs>
</svg>
