<?xml version="1.0" encoding="utf-8" standalone="no"?>
<!DOCTYPE svg PUBLIC "-//W3C//DTD SVG 1.1//EN"
  "http://www.w3.org/Graphics/SVG/1.1/DTD/svg11.dtd">
<svg xmlns:xlink="http://www.w3.org/1999/xlink" width="576pt" height="288pt" viewBox="0 0 576 288" xmlns="http://www.w3.org/2000/svg" version="1.1">
 <metadata>
  <rdf:RDF xmlns:dc="http://purl.org/dc/elements/1.1/" xmlns:cc="http://creativecommons.org/ns#" xmlns:rdf="http://www.w3.org/1999/02/22-rdf-syntax-ns#">
   <cc:Work>
    <dc:type rdf:resource="http://purl.org/dc/dcmitype/StillImage"/>
    <dc:date>2024-09-24T19:20:23.939638</dc:date>
    <dc:format>image/svg+xml</dc:format>
    <dc:creator>
     <cc:Agent>
      <dc:title>Matplotlib v3.7.4, https://matplotlib.org/</dc:title>
     </cc:Agent>
    </dc:creator>
   </cc:Work>
  </rdf:RDF>
 </metadata>
 <defs>
  <style type="text/css">*{stroke-linejoin: round; stroke-linecap: butt}</style>
 </defs>
 <g id="figure_1">
  <g id="patch_1">
   <path d="M 0 288 
L 576 288 
L 576 0 
L 0 0 
z
" style="fill: #ffffff"/>
  </g>
  <g id="axes_1">
   <g id="line2d_1">
    <path d="M 15 233.76 
L 17.38875 232.652931 
L 20.02775 231.679004 
L 22.996625 230.825125 
L 26.39775 230.084393 
L 30.379 229.451213 
L 35.145125 228.925826 
L 41.128375 228.499576 
L 48.943 228.177738 
L 60.079125 227.958597 
L 78.938875 227.838766 
L 106.011375 227.689497 
L 106.2275 226.992078 
L 106.875875 225.75625 
L 108.309125 223.568054 
L 113.541625 215.874511 
L 114.360625 214.049192 
L 114.9635 212.154071 
L 115.407125 210.015827 
L 115.737 207.288516 
L 115.9645 203.518186 
L 116.112375 197.385984 
L 116.203375 183.629801 
L 116.26025 127.495267 
L 116.339875 48.530948 
L 116.39675 58.606812 
L 117.0565 218.752894 
L 117.249875 225.351725 
L 117.44325 226.184237 
L 117.6025 226.181864 
L 117.977875 225.838478 
L 119.80925 223.704763 
L 124.370625 218.176612 
L 125.656 216.227657 
L 126.54325 214.487768 
L 127.203 212.701574 
L 127.692125 210.731896 
L 128.0675 208.241426 
L 128.329125 204.951023 
L 128.511125 199.568229 
L 128.624875 187.770711 
L 128.68175 155.200115 
L 128.77275 48.666812 
L 128.841 60.731354 
L 129.443875 213.845681 
L 129.63725 224.61764 
L 129.830625 226.055554 
L 130.00125 226.135284 
L 130.297 225.893963 
L 131.54825 224.451325 
L 136.951375 217.875713 
L 138.157125 215.987493 
L 139.01025 214.245112 
L 139.64725 212.428142 
L 140.125 210.36342 
L 140.477625 207.800612 
L 140.727875 204.252172 
L 140.8985 198.220196 
L 141.000875 184.415713 
L 141.05775 133.831424 
L 141.137375 48.675396 
L 141.19425 57.897733 
L 141.865375 219.439636 
L 142.05875 225.387788 
L 142.252125 226.125965 
L 142.42275 226.101244 
L 142.855 225.680764 
L 145.459875 222.616419 
L 148.940625 218.364228 
L 150.282875 216.359501 
L 151.192875 214.607861 
L 151.864 212.833518 
L 152.3645 210.877175 
L 152.739875 208.493034 
L 153.012875 205.263029 
L 153.194875 200.392662 
L 153.308625 191.127008 
L 153.376875 162.648529 
L 153.47925 48.7665 
L 153.558875 65.886885 
L 154.059375 198.015454 
L 154.2755 223.039723 
L 154.468875 225.86341 
L 154.650875 226.142179 
L 154.867 226.014704 
L 155.61775 225.186575 
L 161.225625 218.404072 
L 162.567875 216.403007 
L 163.477875 214.66126 
L 164.149 212.906038 
L 164.660875 210.93114 
L 165.03625 208.583454 
L 165.30925 205.44364 
L 165.502625 200.363888 
L 165.616375 191.020398 
L 165.684625 161.944066 
L 165.787 48.793661 
L 165.866625 66.106483 
L 166.367125 198.173566 
L 166.58325 223.061573 
L 166.776625 225.864878 
L 166.958625 226.139911 
L 167.17475 226.010769 
L 167.936875 225.165183 
L 173.54475 218.348702 
L 174.875625 216.346198 
L 175.785625 214.580923 
L 176.445375 212.824548 
L 176.945875 210.857859 
L 177.32125 208.45545 
L 177.59425 205.182961 
L 177.77625 200.184696 
L 177.89 190.344238 
L 177.95825 157.273098 
L 178.04925 48.68127 
L 178.128875 63.729991 
L 178.674875 206.425188 
L 178.879625 223.849961 
L 179.073 225.960994 
L 179.243625 226.13588 
L 179.4825 225.971437 
L 180.381125 224.948328 
L 186.023125 218.013383 
L 187.263 216.076486 
L 188.1275 214.320291 
L 188.7645 212.523415 
L 189.24225 210.50316 
L 189.594875 208.039934 
L 189.8565 204.523898 
L 190.027125 198.989567 
L 190.1295 187.853578 
L 190.186375 155.696718 
L 190.277375 48.669653 
L 190.345625 60.622442 
L 190.9485 213.7991 
L 191.141875 224.606036 
L 191.33525 226.045351 
L 191.505875 226.121755 
L 191.801625 225.873219 
L 193.075625 224.372328 
L 198.330875 217.844616 
L 199.52525 215.936919 
L 200.367 214.18136 
L 200.992625 212.357737 
L 201.459 210.301294 
L 201.811625 207.677581 
L 202.061875 203.976881 
L 202.221125 198.132632 
L 202.3235 183.976258 
L 202.380375 130.929492 
L 202.46 48.698003 
L 202.516875 58.282349 
L 203.176625 218.696268 
L 203.37 225.280752 
L 203.563375 226.106925 
L 203.722625 226.098462 
L 204.109375 225.72715 
L 206.1455 223.278724 
L 210.2405 218.169804 
L 211.5145 216.19462 
L 212.390375 214.438749 
L 213.03875 212.645174 
L 213.527875 210.625894 
L 213.891875 208.143722 
L 214.1535 204.738676 
L 214.324125 199.56336 
L 214.437875 187.747841 
L 214.49475 155.075842 
L 214.58575 48.668741 
L 214.654 60.761482 
L 215.256875 213.857042 
L 215.45025 224.611472 
L 215.643625 226.040847 
L 215.802875 226.118179 
L 216.075875 225.896133 
L 217.213375 224.549237 
L 222.582375 217.804411 
L 223.765375 215.888702 
L 224.59575 214.131212 
L 225.21 212.315617 
L 225.676375 210.226698 
L 226.017625 207.652925 
L 226.267875 203.917757 
L 226.427125 197.961339 
L 226.518125 186.450489 
L 226.575 147.12349 
L 226.666 48.782961 
L 226.722875 59.030398 
L 227.37125 217.984916 
L 227.564625 225.180372 
L 227.758 226.092657 
L 227.91725 226.094585 
L 228.28125 225.747221 
L 230.124 223.506742 
L 234.435125 218.060211 
L 235.675 216.097723 
L 236.5395 214.32181 
L 237.1765 212.50509 
L 237.65425 210.458461 
L 238.006875 207.949133 
L 238.257125 204.549985 
L 238.42775 199.054413 
L 238.530125 188.1117 
L 238.587 157.189877 
L 238.678 48.680501 
L 238.757625 63.751625 
L 239.303625 206.435594 
L 239.508375 223.845554 
L 239.70175 225.948849 
L 239.872375 226.117083 
L 240.11125 225.9432 
L 241.02125 224.871504 
L 246.538125 217.873527 
L 247.7325 215.935163 
L 248.57425 214.151221 
L 249.199875 212.29258 
L 249.66625 210.181424 
L 250.0075 207.564831 
L 250.246375 203.977031 
L 250.405625 198.126462 
L 250.508 183.941051 
L 250.564875 130.699509 
L 250.6445 48.700751 
L 250.701375 58.313209 
L 251.361125 218.701845 
L 251.5545 225.274371 
L 251.747875 226.093466 
L 251.907125 226.079472 
L 252.293875 225.694887 
L 254.421 223.068971 
L 258.277125 218.129288 
L 259.53975 216.121925 
L 260.40425 214.338936 
L 261.04125 212.518111 
L 261.519 210.469888 
L 261.871625 207.962353 
L 262.121875 204.572318 
L 262.2925 199.111786 
L 262.394875 188.338583 
L 262.45175 158.477824 
L 262.54275 48.700625 
L 262.622375 63.42093 
L 263.168375 206.234121 
L 263.373125 223.815838 
L 263.5665 225.939867 
L 263.737125 226.108496 
L 263.976 225.931051 
L 264.897375 224.829129 
L 270.346 217.820687 
L 271.529 215.868549 
L 272.359375 214.074584 
L 272.973625 212.210921 
L 273.428625 210.108881 
L 273.769875 207.425865 
L 274.00875 203.670413 
L 274.168 197.22291 
L 274.259 183.293803 
L 274.315875 126.469209 
L 274.3955 48.760035 
L 274.452375 58.86332 
L 275.10075 217.931016 
L 275.294125 225.165521 
L 275.4875 226.077784 
L 275.64675 226.074901 
L 276.01075 225.714561 
L 277.92175 223.325566 
L 282.01675 218.008314 
L 283.24525 216.009855 
L 284.098375 214.200486 
L 284.724 212.346524 
L 285.190375 210.253553 
L 285.531625 207.684092 
L 285.781875 203.973207 
L 285.941125 198.110612 
L 286.0435 183.858745 
L 286.100375 130.162104 
L 286.18 48.707263 
L 286.236875 58.384581 
L 286.896625 218.719616 
L 287.09 225.270761 
L 287.283375 226.082313 
L 287.442625 226.063493 
L 287.829375 225.667851 
L 290.036125 222.886032 
L 293.6875 218.109696 
L 294.93875 216.084149 
L 295.791875 214.292336 
L 296.428875 212.432795 
L 296.906625 210.321172 
L 297.25925 207.686071 
L 297.5095 203.974868 
L 297.66875 198.113666 
L 297.771125 183.873608 
L 297.828 130.26216 
L 297.907625 48.706351 
L 297.9645 58.371891 
L 298.62425 218.715233 
L 298.817625 225.268075 
L 299.011 226.078371 
L 299.17025 226.058102 
L 299.568375 225.645215 
L 301.923 222.655684 
L 305.35825 218.126164 
L 306.6095 216.093421 
L 307.474 214.268767 
L 308.099625 212.433166 
L 308.577375 210.317035 
L 308.93 207.674954 
L 309.18025 203.947759 
L 309.3395 198.035232 
L 309.4305 186.736852 
L 309.487375 148.937472 
L 309.578375 48.741814 
L 309.63525 58.713806 
L 310.283625 217.883014 
L 310.477 225.152977 
L 310.670375 226.065907 
L 310.829625 226.059333 
L 311.193625 225.688817 
L 313.1615 223.176087 
L 317.0745 217.989829 
L 318.291625 215.974432 
L 319.133375 214.157606 
L 319.747625 212.307985 
L 320.214 210.17854 
L 320.55525 207.53878 
L 320.794125 203.906149 
L 320.953375 197.91483 
L 321.044375 186.26114 
L 321.10125 145.926037 
L 321.180875 48.795064 
L 321.249125 59.238567 
L 321.886125 217.021683 
L 322.0795 225.033355 
L 322.272875 226.052364 
L 322.432125 226.05991 
L 322.773375 225.7183 
L 324.51375 223.484902 
L 328.7225 217.86783 
L 329.9055 215.874482 
L 330.735875 214.043965 
L 331.33875 212.179772 
L 331.79375 210.036857 
L 332.123625 207.400974 
L 332.3625 203.602883 
L 332.52175 197.007461 
L 332.61275 182.271638 
L 332.669625 119.975858 
L 332.737875 48.73008 
L 332.806125 59.69559 
L 333.43175 216.049034 
L 333.625125 224.898517 
L 333.8185 226.037399 
L 333.97775 226.060955 
L 334.307625 225.735344 
L 335.922875 223.651752 
L 340.290875 217.780335 
L 341.4625 215.775101 
L 342.2815 213.931217 
L 342.884375 212.009167 
L 343.328 209.828557 
L 343.657875 207.014205 
L 343.885375 203.021548 
L 344.03325 196.094359 
L 344.112875 182.256041 
L 344.16975 119.882172 
L 344.238 48.729076 
L 344.30625 59.708153 
L 344.931875 216.053113 
L 345.12525 224.897177 
L 345.318625 226.03382 
L 345.477875 226.055807 
L 345.80775 225.727042 
L 347.44575 223.599336 
L 351.756875 217.765313 
L 352.917125 215.767913 
L 353.72475 213.944271 
L 354.327625 212.022742 
L 354.77125 209.84622 
L 355.101125 207.044005 
L 355.328625 203.087073 
L 355.4765 196.298076 
L 355.5675 178.5462 
L 355.63575 77.033325 
L 355.692625 48.783206 
L 355.7495 59.019619 
L 356.397875 217.973681 
L 356.59125 225.157043 
L 356.784625 226.051499 
L 356.943875 226.037235 
L 357.31925 225.638352 
L 359.50325 222.772088 
L 363.00675 218.000137 
L 364.223875 215.944013 
L 365.05425 214.115262 
L 365.6685 212.223651 
L 366.1235 210.093797 
L 366.46475 207.3706 
L 366.703625 203.528231 
L 366.862875 196.769046 
L 366.953875 181.087117 
L 367.01075 112.847771 
L 367.079 48.673165 
L 367.135875 57.413797 
L 367.818375 220.068516 
L 368.01175 225.436888 
L 368.19375 226.060065 
L 368.353 226.019976 
L 368.773875 225.551953 
L 371.7655 221.598982 
L 374.38175 217.963986 
L 375.5875 215.909896 
L 376.417875 214.061927 
L 377.032125 212.140275 
L 377.487125 209.95627 
L 377.817 207.241465 
L 378.055875 203.233699 
L 378.20375 196.743879 
L 378.29475 180.958865 
L 378.351625 112.10956 
L 378.419875 48.672465 
L 378.47675 57.499711 
L 379.15925 220.088252 
L 379.352625 225.437264 
L 379.534625 226.05633 
L 379.693875 226.014373 
L 380.11475 225.542376 
L 383.151875 221.504227 
L 385.71125 217.919259 
L 386.905625 215.865395 
L 387.724625 214.024558 
L 388.3275 212.123957 
L 388.7825 209.925845 
L 389.112375 207.182459 
L 389.339875 203.389792 
L 389.48775 197.202062 
L 389.57875 183.196826 
L 389.635625 125.872454 
L 389.71525 48.773578 
L 389.772125 58.946 
L 390.4205 217.949602 
L 390.613875 225.147735 
L 390.80725 226.040086 
L 390.9665 226.021917 
L 391.341875 225.612939 
L 393.6055 222.585907 
L 396.938375 217.956297 
L 398.13275 215.902158 
L 398.963125 214.03722 
L 399.566 212.137178 
L 400.021 209.943123 
L 400.350875 207.211315 
L 400.578375 203.451052 
L 400.72625 197.376692 
L 400.81725 183.993941 
L 400.874125 131.086691 
L 400.95375 48.700705 
L 401.010625 58.26915 
L 401.670375 218.679902 
L 401.86375 225.244437 
L 402.04575 226.034441 
L 402.205 226.018727 
L 402.580375 225.607802 
L 404.844 222.562805 
L 408.14275 217.954628 
L 409.337125 215.89032 
L 410.1675 214.014276 
L 410.770375 212.098614 
L 411.225375 209.876868 
L 411.55525 207.085885 
L 411.78275 203.171246 
L 411.930625 196.551777 
L 412.021625 179.954749 
L 412.0785 106.55437 
L 412.14675 48.692957 
L 412.203625 58.153871 
L 412.87475 219.488535 
L 413.068125 225.350907 
L 413.250125 226.039511 
L 413.409375 226.005793 
L 413.8075 225.556657 
L 416.526125 221.878017 
L 419.313 217.933812 
L 420.507375 215.854543 
L 421.326375 213.989476 
L 421.92925 212.057349 
L 422.372875 209.878108 
L 422.70275 207.085357 
L 422.93025 203.168188 
L 423.078125 196.541581 
L 423.169125 179.901041 
L 423.226 106.274048 
L 423.29425 48.695645 
L 423.351125 58.188184 
L 424.02225 219.496602 
L 424.215625 225.349932 
L 424.397625 226.036011 
L 424.556875 226.000782 
L 424.966375 225.53351 
L 427.88975 221.555483 
L 430.4605 217.877762 
L 431.6435 215.797072 
L 432.451125 213.93588 
L 433.042625 212.018969 
L 433.48625 209.812662 
L 433.816125 206.96019 
L 434.043625 202.881173 
L 434.1915 195.634194 
L 434.271125 180.222883 
L 434.328 108.008491 
L 434.39625 48.684301 
L 434.453125 57.982944 
L 435.12425 219.443317 
L 435.317625 225.340872 
L 435.499625 226.032063 
L 435.658875 225.996623 
L 436.068375 225.526395 
L 439.025875 221.480012 
L 441.551125 217.84247 
L 442.72275 215.766301 
L 443.530375 213.887888 
L 444.121875 211.944011 
L 444.5655 209.687286 
L 444.884 206.860944 
L 445.1115 202.647436 
L 445.248 195.915872 
L 445.327625 181.490883 
L 445.3845 115.257351 
L 445.45275 48.686186 
L 445.509625 57.142142 
L 446.2035 220.691185 
L 446.396875 225.504089 
L 446.578875 226.038723 
L 446.738125 225.975932 
L 447.193125 225.432508 
L 451.083375 220.065376 
L 452.91475 217.289089 
L 453.972625 215.289216 
L 454.723375 213.390347 
L 455.269375 211.394839 
L 455.678875 209.011736 
L 455.974625 205.869762 
L 456.168 201.394685 
L 456.293125 193.061303 
L 456.361375 173.746364 
L 456.475125 48.705303 
L 456.588875 77.079651 
L 456.96425 175.851824 
L 457.294125 223.633301 
L 457.4875 225.870219 
L 457.658125 226.03347 
L 457.885625 225.837316 
L 458.807 224.603178 
L 463.846125 217.378674 
L 464.92675 215.347539 
L 465.6775 213.465474 
L 466.234875 211.452512 
L 466.644375 209.105886 
L 466.940125 206.052753 
L 467.144875 201.425208 
L 467.27 193.166914 
L 467.33825 174.265858 
L 467.452 48.690287 
L 467.56575 76.774712 
L 467.941125 175.677582 
L 468.271 223.60943 
L 468.464375 225.865139 
L 468.635 226.030021 
L 468.8625 225.832812 
L 469.783875 224.592126 
L 470 224.288719 
L 470.02275 224.448011 
L 470.2275 224.785895 
L 470.671125 225.048956 
L 471.535625 225.262945 
L 473.276 225.434871 
L 476.153875 225.482502 
L 481.022375 225.310026 
L 496.7085 224.667881 
L 509.312 224.438798 
L 528.137625 224.340419 
L 561 224.39608 
L 561 224.39608 
" clip-path="url(#pf48471791e)" style="fill: none; stroke: #1f77b4; stroke-width: 1.5; stroke-linecap: square"/>
   </g>
   <g id="text_1">
    <!-- 0.08 nA -->
    <g transform="translate(37.75 53.256) scale(0.2 -0.2)">
     <defs>
      <path id="DejaVuSans-30" d="M 2034 4250 
Q 1547 4250 1301 3770 
Q 1056 3291 1056 2328 
Q 1056 1369 1301 889 
Q 1547 409 2034 409 
Q 2525 409 2770 889 
Q 3016 1369 3016 2328 
Q 3016 3291 2770 3770 
Q 2525 4250 2034 4250 
z
M 2034 4750 
Q 2819 4750 3233 4129 
Q 3647 3509 3647 2328 
Q 3647 1150 3233 529 
Q 2819 -91 2034 -91 
Q 1250 -91 836 529 
Q 422 1150 422 2328 
Q 422 3509 836 4129 
Q 1250 4750 2034 4750 
z
" transform="scale(0.015625)"/>
      <path id="DejaVuSans-2e" d="M 684 794 
L 1344 794 
L 1344 0 
L 684 0 
L 684 794 
z
" transform="scale(0.015625)"/>
      <path id="DejaVuSans-38" d="M 2034 2216 
Q 1584 2216 1326 1975 
Q 1069 1734 1069 1313 
Q 1069 891 1326 650 
Q 1584 409 2034 409 
Q 2484 409 2743 651 
Q 3003 894 3003 1313 
Q 3003 1734 2745 1975 
Q 2488 2216 2034 2216 
z
M 1403 2484 
Q 997 2584 770 2862 
Q 544 3141 544 3541 
Q 544 4100 942 4425 
Q 1341 4750 2034 4750 
Q 2731 4750 3128 4425 
Q 3525 4100 3525 3541 
Q 3525 3141 3298 2862 
Q 3072 2584 2669 2484 
Q 3125 2378 3379 2068 
Q 3634 1759 3634 1313 
Q 3634 634 3220 271 
Q 2806 -91 2034 -91 
Q 1263 -91 848 271 
Q 434 634 434 1313 
Q 434 1759 690 2068 
Q 947 2378 1403 2484 
z
M 1172 3481 
Q 1172 3119 1398 2916 
Q 1625 2713 2034 2713 
Q 2441 2713 2670 2916 
Q 2900 3119 2900 3481 
Q 2900 3844 2670 4047 
Q 2441 4250 2034 4250 
Q 1625 4250 1398 4047 
Q 1172 3844 1172 3481 
z
" transform="scale(0.015625)"/>
      <path id="DejaVuSans-20" transform="scale(0.015625)"/>
      <path id="DejaVuSans-6e" d="M 3513 2113 
L 3513 0 
L 2938 0 
L 2938 2094 
Q 2938 2591 2744 2837 
Q 2550 3084 2163 3084 
Q 1697 3084 1428 2787 
Q 1159 2491 1159 1978 
L 1159 0 
L 581 0 
L 581 3500 
L 1159 3500 
L 1159 2956 
Q 1366 3272 1645 3428 
Q 1925 3584 2291 3584 
Q 2894 3584 3203 3211 
Q 3513 2838 3513 2113 
z
" transform="scale(0.015625)"/>
      <path id="DejaVuSans-41" d="M 2188 4044 
L 1331 1722 
L 3047 1722 
L 2188 4044 
z
M 1831 4666 
L 2547 4666 
L 4325 0 
L 3669 0 
L 3244 1197 
L 1141 1197 
L 716 0 
L 50 0 
L 1831 4666 
z
" transform="scale(0.015625)"/>
     </defs>
     <use xlink:href="#DejaVuSans-30"/>
     <use xlink:href="#DejaVuSans-2e" x="63.623047"/>
     <use xlink:href="#DejaVuSans-30" x="95.410156"/>
     <use xlink:href="#DejaVuSans-38" x="159.033203"/>
     <use xlink:href="#DejaVuSans-20" x="222.65625"/>
     <use xlink:href="#DejaVuSans-6e" x="254.443359"/>
     <use xlink:href="#DejaVuSans-41" x="317.822266"/>
    </g>
   </g>
   <g id="text_2">
    <!-- Turi 2019 -->
    <g transform="translate(236.905 31.56) scale(0.22 -0.22)">
     <defs>
      <path id="DejaVuSans-54" d="M -19 4666 
L 3928 4666 
L 3928 4134 
L 2272 4134 
L 2272 0 
L 1638 0 
L 1638 4134 
L -19 4134 
L -19 4666 
z
" transform="scale(0.015625)"/>
      <path id="DejaVuSans-75" d="M 544 1381 
L 544 3500 
L 1119 3500 
L 1119 1403 
Q 1119 906 1312 657 
Q 1506 409 1894 409 
Q 2359 409 2629 706 
Q 2900 1003 2900 1516 
L 2900 3500 
L 3475 3500 
L 3475 0 
L 2900 0 
L 2900 538 
Q 2691 219 2414 64 
Q 2138 -91 1772 -91 
Q 1169 -91 856 284 
Q 544 659 544 1381 
z
M 1991 3584 
L 1991 3584 
z
" transform="scale(0.015625)"/>
      <path id="DejaVuSans-72" d="M 2631 2963 
Q 2534 3019 2420 3045 
Q 2306 3072 2169 3072 
Q 1681 3072 1420 2755 
Q 1159 2438 1159 1844 
L 1159 0 
L 581 0 
L 581 3500 
L 1159 3500 
L 1159 2956 
Q 1341 3275 1631 3429 
Q 1922 3584 2338 3584 
Q 2397 3584 2469 3576 
Q 2541 3569 2628 3553 
L 2631 2963 
z
" transform="scale(0.015625)"/>
      <path id="DejaVuSans-69" d="M 603 3500 
L 1178 3500 
L 1178 0 
L 603 0 
L 603 3500 
z
M 603 4863 
L 1178 4863 
L 1178 4134 
L 603 4134 
L 603 4863 
z
" transform="scale(0.015625)"/>
      <path id="DejaVuSans-32" d="M 1228 531 
L 3431 531 
L 3431 0 
L 469 0 
L 469 531 
Q 828 903 1448 1529 
Q 2069 2156 2228 2338 
Q 2531 2678 2651 2914 
Q 2772 3150 2772 3378 
Q 2772 3750 2511 3984 
Q 2250 4219 1831 4219 
Q 1534 4219 1204 4116 
Q 875 4013 500 3803 
L 500 4441 
Q 881 4594 1212 4672 
Q 1544 4750 1819 4750 
Q 2544 4750 2975 4387 
Q 3406 4025 3406 3419 
Q 3406 3131 3298 2873 
Q 3191 2616 2906 2266 
Q 2828 2175 2409 1742 
Q 1991 1309 1228 531 
z
" transform="scale(0.015625)"/>
      <path id="DejaVuSans-31" d="M 794 531 
L 1825 531 
L 1825 4091 
L 703 3866 
L 703 4441 
L 1819 4666 
L 2450 4666 
L 2450 531 
L 3481 531 
L 3481 0 
L 794 0 
L 794 531 
z
" transform="scale(0.015625)"/>
      <path id="DejaVuSans-39" d="M 703 97 
L 703 672 
Q 941 559 1184 500 
Q 1428 441 1663 441 
Q 2288 441 2617 861 
Q 2947 1281 2994 2138 
Q 2813 1869 2534 1725 
Q 2256 1581 1919 1581 
Q 1219 1581 811 2004 
Q 403 2428 403 3163 
Q 403 3881 828 4315 
Q 1253 4750 1959 4750 
Q 2769 4750 3195 4129 
Q 3622 3509 3622 2328 
Q 3622 1225 3098 567 
Q 2575 -91 1691 -91 
Q 1453 -91 1209 -44 
Q 966 3 703 97 
z
M 1959 2075 
Q 2384 2075 2632 2365 
Q 2881 2656 2881 3163 
Q 2881 3666 2632 3958 
Q 2384 4250 1959 4250 
Q 1534 4250 1286 3958 
Q 1038 3666 1038 3163 
Q 1038 2656 1286 2365 
Q 1534 2075 1959 2075 
z
" transform="scale(0.015625)"/>
     </defs>
     <use xlink:href="#DejaVuSans-54"/>
     <use xlink:href="#DejaVuSans-75" x="45.958984"/>
     <use xlink:href="#DejaVuSans-72" x="109.337891"/>
     <use xlink:href="#DejaVuSans-69" x="150.451172"/>
     <use xlink:href="#DejaVuSans-20" x="178.234375"/>
     <use xlink:href="#DejaVuSans-32" x="210.021484"/>
     <use xlink:href="#DejaVuSans-30" x="273.644531"/>
     <use xlink:href="#DejaVuSans-31" x="337.267578"/>
     <use xlink:href="#DejaVuSans-39" x="400.890625"/>
    </g>
   </g>
   <g id="patch_2">
    <path d="M 406.3 273 
L 424.5 273 
L 424.5 37.56 
L 406.3 37.56 
L 406.3 273 
z
" clip-path="url(#pf48471791e)" style="fill: none; opacity: 0.5; stroke: #000000; stroke-linejoin: miter"/>
   </g>
   <g id="patch_3">
    <path d="M 561 214.14 
Q 492.75 243.57 424.5 273 
" style="fill: none; opacity: 0.5; stroke: #000000; stroke-linecap: round"/>
   </g>
   <g id="patch_4">
    <path d="M 561 72.876 
Q 492.75 55.218 424.5 37.56 
" style="fill: none; opacity: 0.5; stroke: #000000; stroke-linecap: round"/>
   </g>
   <g id="axes_2">
    <g id="patch_5">
     <path d="M 500.94 214.14 
L 561 214.14 
L 561 72.876 
L 500.94 72.876 
z
" style="fill: #ffffff"/>
    </g>
    <g id="matplotlib.axis_1">
     <g id="xtick_1"/>
     <g id="xtick_2"/>
     <g id="xtick_3"/>
    </g>
    <g id="matplotlib.axis_2">
     <g id="ytick_1"/>
     <g id="ytick_2"/>
     <g id="ytick_3"/>
     <g id="ytick_4"/>
     <g id="ytick_5"/>
     <g id="ytick_6"/>
    </g>
    <g id="line2d_2">
     <path d="M 500.902463 182.711188 
L 507.771825 180.896722 
L 511.337888 179.738067 
L 513.70275 178.748566 
L 515.3544 177.828327 
L 516.5556 176.913091 
L 517.4565 175.947035 
L 518.132175 174.893923 
L 518.6577 173.650046 
L 519.070613 172.057951 
L 519.370913 170.011976 
L 519.596138 167.010491 
L 519.783825 160.816065 
L 519.896438 149.573906 
L 520.234275 79.555774 
L 520.30935 80.785952 
L 520.497038 89.33419 
L 521.51055 144.304221 
L 522.11115 167.092117 
L 522.486525 179.613156 
L 522.786825 183.557822 
L 523.087125 185.112033 
L 523.387425 185.709465 
L 523.725263 185.932645 
L 524.21325 185.964854 
L 525.376913 185.751678 
L 531.307838 184.296295 
L 544.33335 180.970681 
L 547.974488 179.798341 
L 550.376888 178.806006 
L 552.066075 177.879061 
L 553.267275 176.981335 
L 554.168175 176.042787 
L 554.84385 175.03337 
L 555.369375 173.86461 
L 555.782288 172.415399 
L 556.120125 170.34172 
L 556.34535 167.679107 
L 556.533038 162.661338 
L 556.64565 154.743574 
L 556.758263 129.36726 
L 556.983488 79.777569 
L 557.021025 79.557387 
L 557.058563 79.953582 
L 557.208713 85.25291 
L 557.659163 114.265359 
L 558.14715 139.139249 
L 559.423425 182.037961 
L 559.723725 184.5155 
L 560.024025 185.482386 
L 560.361863 185.866267 
L 560.774775 185.969849 
L 561 185.962157 
L 561 185.962157 
" clip-path="url(#p2319929b55)" style="fill: none; stroke: #1f77b4; stroke-width: 1.5; stroke-linecap: square"/>
    </g>
    <g id="patch_6">
     <path d="M 500.94 214.14 
L 500.94 72.876 
" style="fill: none; stroke: #000000; stroke-width: 0.8; stroke-linejoin: miter; stroke-linecap: square"/>
    </g>
    <g id="patch_7">
     <path d="M 500.94 214.14 
L 561 214.14 
" style="fill: none; stroke: #000000; stroke-width: 0.8; stroke-linejoin: miter; stroke-linecap: square"/>
    </g>
   </g>
  </g>
 </g>
 <defs>
  <clipPath id="pf48471791e">
   <rect x="15" y="37.56" width="546" height="235.44"/>
  </clipPath>
  <clipPath id="p2319929b55">
   <rect x="500.94" y="72.876" width="60.06" height="141.264"/>
  </clipPath>
 </defs>
</svg>
