<?xml version="1.0" encoding="utf-8" standalone="no"?>
<!DOCTYPE svg PUBLIC "-//W3C//DTD SVG 1.1//EN"
  "http://www.w3.org/Graphics/SVG/1.1/DTD/svg11.dtd">
<svg xmlns:xlink="http://www.w3.org/1999/xlink" width="576pt" height="288pt" viewBox="0 0 576 288" xmlns="http://www.w3.org/2000/svg" version="1.1">
 <metadata>
  <rdf:RDF xmlns:dc="http://purl.org/dc/elements/1.1/" xmlns:cc="http://creativecommons.org/ns#" xmlns:rdf="http://www.w3.org/1999/02/22-rdf-syntax-ns#">
   <cc:Work>
    <dc:type rdf:resource="http://purl.org/dc/dcmitype/StillImage"/>
    <dc:date>2024-09-24T19:31:18.577763</dc:date>
    <dc:format>image/svg+xml</dc:format>
    <dc:creator>
     <cc:Agent>
      <dc:title>Matplotlib v3.7.4, https://matplotlib.org/</dc:title>
     </cc:Agent>
    </dc:creator>
   </cc:Work>
  </rdf:RDF>
 </metadata>
 <defs>
  <style type="text/css">*{stroke-linejoin: round; stroke-linecap: butt}</style>
 </defs>
 <g id="figure_1">
  <g id="patch_1">
   <path d="M 0 288 
L 576 288 
L 576 0 
L 0 0 
z
" style="fill: #ffffff"/>
  </g>
  <g id="axes_1">
   <g id="line2d_1">
    <path d="M 15 238.4688 
L 17.184 238.460685 
L 44.5295 238.564793 
L 106 238.573313 
L 106.3185 235.203126 
L 106.8645 231.76961 
L 107.5925 228.61206 
L 108.5025 225.699377 
L 109.64 222.840852 
L 111.0505 219.905464 
L 112.9615 216.467849 
L 116.374 210.429292 
L 117.284 208.268383 
L 117.921 206.159404 
L 118.376 203.861571 
L 118.6945 201.187632 
L 118.922 197.682349 
L 119.104 191.245254 
L 119.195 182.495731 
L 119.286 144.256269 
L 119.4225 50.128 
L 119.468 49.619825 
L 119.5135 50.292269 
L 119.65 56.637279 
L 119.8775 81.23326 
L 120.3325 161.068488 
L 120.6055 226.605254 
L 120.7875 229.95655 
L 120.833 229.93119 
L 120.9695 229.194082 
L 122.0615 221.382686 
L 122.653 219.0922 
L 123.381 217.129667 
L 124.4275 214.996164 
L 127.749 208.653463 
L 128.4315 206.612115 
L 128.932 204.359973 
L 129.296 201.617268 
L 129.569 197.59744 
L 129.751 191.024976 
L 129.842 181.90375 
L 129.933 140.419466 
L 130.0695 49.986437 
L 130.115 49.611074 
L 130.206 51.785419 
L 130.388 64.797632 
L 130.752 116.097365 
L 130.9795 162.209585 
L 131.2525 227.082596 
L 131.4345 230.32563 
L 131.48 230.299727 
L 131.6165 229.574436 
L 132.754 221.612116 
L 133.391 219.243925 
L 134.1645 217.238543 
L 135.2565 215.060032 
L 138.396 209.109289 
L 139.124 207.047121 
L 139.6245 204.980624 
L 139.9885 202.621382 
L 140.2615 199.545176 
L 140.489 193.931174 
L 140.6255 183.734871 
L 140.7165 151.446808 
L 140.8985 49.571822 
L 140.9895 51.354754 
L 141.1715 63.642815 
L 141.5355 114.382394 
L 141.763 158.705106 
L 142.036 226.691906 
L 142.218 230.435289 
L 142.2635 230.448745 
L 142.4 229.779776 
L 143.583 221.540283 
L 144.22 219.199367 
L 145.039 217.085924 
L 146.222 214.718545 
L 148.861 209.629386 
L 149.6345 207.544245 
L 150.1805 205.432737 
L 150.59 202.92564 
L 150.863 200.020318 
L 151.0905 194.981682 
L 151.227 186.772075 
L 151.318 165.549162 
L 151.5455 49.719879 
L 151.682 54.599929 
L 151.9095 77.0572 
L 152.3645 152.5322 
L 152.683 227.502728 
L 152.865 230.408337 
L 152.956 230.183384 
L 153.229 228.071213 
L 153.9115 223.010523 
L 154.503 220.297377 
L 155.231 218.047647 
L 156.1865 215.853559 
L 159.781 208.222703 
L 160.3725 206.097131 
L 160.782 203.856247 
L 161.1005 200.881764 
L 161.328 196.364313 
L 161.4645 186.728921 
L 161.5555 165.044727 
L 161.7375 49.710473 
L 161.783 49.71545 
L 161.9195 54.604283 
L 162.147 77.069431 
L 162.602 153.271918 
L 162.9205 227.633626 
L 163.1025 230.376109 
L 163.1935 230.114299 
L 163.512 227.519102 
L 164.149 222.778578 
L 164.7405 220.011102 
L 165.4685 217.652453 
L 167.1975 212.61875 
L 167.3795 207.208212 
L 167.789 191.806773 
L 167.88 182.26465 
L 167.971 141.765269 
L 168.1075 50.123752 
L 168.153 49.670602 
L 168.1985 50.326826 
L 168.335 56.570698 
L 168.5625 81.118852 
L 169.0175 160.860428 
L 169.2905 226.778194 
L 169.4725 230.023036 
L 169.5635 229.801104 
L 169.8365 227.629593 
L 170.428 223.272351 
L 170.974 220.912181 
L 171.611 219.189093 
L 172.43 217.650161 
L 173.6585 215.866319 
L 178.1175 209.77227 
L 178.982 208.032047 
L 179.619 206.243436 
L 180.074 204.341035 
L 180.438 201.867674 
L 180.711 198.401723 
L 180.893 193.343736 
L 181.0295 182.032531 
L 181.1205 141.525071 
L 181.257 50.095846 
L 181.3025 49.616285 
L 181.3935 51.75051 
L 181.5755 64.708331 
L 181.9395 115.972382 
L 182.167 161.98528 
L 182.44 227.003472 
L 182.622 230.629413 
L 182.6675 230.650826 
L 182.804 230.026615 
L 183.987 222.232637 
L 184.624 220.067059 
L 185.3975 218.257735 
L 186.444 216.410754 
L 188.264 213.730258 
L 190.266 210.687839 
L 191.267 208.759985 
L 191.9495 206.990993 
L 192.4955 204.922889 
L 192.905 202.379101 
L 193.178 199.310689 
L 193.36 195.281843 
L 193.4965 188.150005 
L 193.5875 172.894011 
L 193.815 49.586357 
L 193.906 51.527098 
L 194.088 64.112425 
L 194.452 115.07619 
L 194.6795 160.082559 
L 194.9525 226.834685 
L 195.1345 230.646832 
L 195.18 230.679337 
L 195.3165 230.064632 
L 196.545 221.940577 
L 197.182 219.768773 
L 197.9555 217.92046 
L 199.0475 215.925007 
L 201.641 211.851926 
L 202.8695 209.631977 
L 203.6885 207.690182 
L 204.28 205.691852 
L 204.6895 203.574551 
L 205.008 200.821012 
L 205.2355 197.071666 
L 205.4175 189.622136 
L 205.5085 177.892028 
L 205.5995 113.423581 
L 205.736 49.650299 
L 205.7815 49.856641 
L 205.918 55.170515 
L 206.1455 78.308729 
L 206.6005 154.944748 
L 206.919 227.842251 
L 207.101 230.577257 
L 207.192 230.357504 
L 207.465 228.330748 
L 208.1475 223.468921 
L 208.739 220.855663 
L 209.4215 218.829361 
L 210.3315 216.858552 
L 211.6965 214.488906 
L 214.199 210.208985 
L 215.0635 208.256154 
L 215.7005 206.267551 
L 216.1555 204.132342 
L 216.5195 201.255712 
L 216.747 197.880284 
L 216.929 191.847583 
L 217.02 184.07616 
L 217.111 153.825862 
L 217.293 49.583339 
L 217.384 51.255708 
L 217.566 63.362366 
L 217.8845 106.906715 
L 218.1575 157.888912 
L 218.4305 226.568348 
L 218.6125 230.6575 
L 218.658 230.707801 
L 218.7035 230.603029 
L 218.931 229.046016 
L 219.7045 223.371414 
L 220.296 220.743448 
L 220.9785 218.693032 
L 221.8885 216.682736 
L 223.299 214.164276 
L 225.5285 210.182893 
L 226.393 208.149131 
L 226.9845 206.228465 
L 227.4395 204.015352 
L 227.758 201.479696 
L 228.031 197.2841 
L 228.213 190.115553 
L 228.304 179.310542 
L 228.395 122.803691 
L 228.5315 49.707094 
L 228.577 49.758409 
L 228.7135 54.763245 
L 228.941 77.418527 
L 229.396 153.131462 
L 229.7145 227.67012 
L 229.8965 230.616486 
L 229.9875 230.417544 
L 230.2605 228.37894 
L 230.943 223.415813 
L 231.5345 220.731747 
L 232.217 218.635394 
L 233.127 216.575861 
L 234.583 213.903279 
L 236.585 210.192718 
L 237.4495 208.093976 
L 238.041 206.092973 
L 238.496 203.742612 
L 238.8145 200.953802 
L 239.042 197.174293 
L 239.224 189.68539 
L 239.315 177.895151 
L 239.406 112.833755 
L 239.5425 49.634446 
L 239.588 49.855902 
L 239.7245 55.182667 
L 239.952 78.347458 
L 240.407 155.142856 
L 240.7255 228.180208 
L 240.9075 230.6678 
L 240.9985 230.398737 
L 241.317 227.892155 
L 241.954 223.300315 
L 242.5455 220.610308 
L 243.2735 218.379684 
L 244.229 216.22249 
L 245.9125 213.085559 
L 247.4595 210.051217 
L 248.2785 207.963147 
L 248.87 205.836013 
L 249.2795 203.57649 
L 249.598 200.581223 
L 249.8255 196.29287 
L 249.962 190.352003 
L 250.053 179.602809 
L 250.144 122.813118 
L 250.2805 49.701775 
L 250.326 49.750555 
L 250.4625 54.742882 
L 250.69 77.386453 
L 251.145 153.255136 
L 251.4635 227.844491 
L 251.6455 230.632674 
L 251.7365 230.398654 
L 252.0095 228.291081 
L 252.692 223.23611 
L 253.2835 220.510232 
L 254.0115 218.24348 
L 254.967 216.034031 
L 256.878 212.326748 
L 258.1065 209.702295 
L 258.88 207.51913 
L 259.426 205.272878 
L 259.79 202.905119 
L 260.063 199.816265 
L 260.245 195.693943 
L 260.3815 186.288933 
L 260.4725 162.934796 
L 260.6545 49.663161 
L 260.7 49.776552 
L 260.8365 54.875038 
L 261.064 77.688524 
L 261.519 154.573971 
L 261.8375 228.077477 
L 262.0195 230.579825 
L 262.1105 230.291531 
L 262.429 227.691338 
L 263.066 222.972688 
L 263.6575 220.21565 
L 264.3855 217.886996 
L 265.432 215.331336 
L 267.434 210.568028 
L 267.889 208.886748 
L 268.0255 207.90513 
L 268.162 203.762908 
L 268.435 191.56393 
L 268.526 181.183607 
L 268.617 134.464879 
L 268.7535 49.871311 
L 268.799 49.639845 
L 268.89 51.8733 
L 269.072 64.918209 
L 269.436 116.7086 
L 269.6635 163.606601 
L 269.891 224.43335 
L 270.073 230.123872 
L 270.1185 230.271873 
L 270.164 230.224119 
L 270.346 229.084028 
L 271.165 223.03486 
L 271.711 220.812722 
L 272.348 219.130853 
L 273.2125 217.510493 
L 274.4865 215.644818 
L 278.627 209.878846 
L 279.4915 208.147207 
L 280.1285 206.385609 
L 280.629 204.302285 
L 280.993 201.780202 
L 281.266 198.202977 
L 281.448 192.846633 
L 281.5845 180.045441 
L 281.6755 128.110251 
L 281.812 49.806443 
L 281.8575 49.716874 
L 281.994 54.53617 
L 282.2215 76.891777 
L 282.6765 151.9438 
L 282.995 227.206835 
L 283.177 230.586097 
L 283.2225 230.592853 
L 283.359 229.956325 
L 284.542 222.217975 
L 285.179 220.050492 
L 285.9525 218.230818 
L 286.999 216.367411 
L 288.819 213.656578 
L 290.7755 210.639386 
L 291.7765 208.674695 
L 292.459 206.854298 
L 292.9595 204.914632 
L 293.369 202.34719 
L 293.642 199.235713 
L 293.824 195.113517 
L 293.9605 187.673893 
L 294.0515 171.064467 
L 294.279 49.603818 
L 294.3245 50.298877 
L 294.461 56.710151 
L 294.6885 81.43149 
L 295.1435 161.819372 
L 295.4165 227.149666 
L 295.5985 230.713074 
L 295.644 230.726436 
L 295.7805 230.083526 
L 296.9635 222.130777 
L 297.6005 219.883266 
L 298.374 217.985242 
L 299.4205 216.027763 
L 301.5135 212.706398 
L 303.015 210.118524 
L 303.8795 208.201256 
L 304.5165 206.243133 
L 304.9715 204.140489 
L 305.3355 201.31801 
L 305.6085 197.036534 
L 305.7905 189.495812 
L 305.8815 177.480117 
L 305.9725 110.721207 
L 306.109 49.633409 
L 306.1545 49.881645 
L 306.291 55.277707 
L 306.5185 78.540648 
L 306.9735 155.439792 
L 307.292 227.978018 
L 307.474 230.620966 
L 307.565 230.387508 
L 307.8835 227.959949 
L 308.5205 223.464719 
L 309.112 220.83587 
L 309.7945 218.793132 
L 310.7045 216.803222 
L 312.0695 214.406897 
L 314.5265 210.138343 
L 315.391 208.140031 
L 315.9825 206.255746 
L 316.4375 204.096638 
L 316.8015 201.172265 
L 317.029 197.705152 
L 317.211 191.364171 
L 317.302 182.837853 
L 317.393 146.458853 
L 317.575 49.579015 
L 317.666 51.550565 
L 317.848 64.181957 
L 318.212 115.202388 
L 318.4395 160.388553 
L 318.7125 227.119963 
L 318.8945 230.745851 
L 318.94 230.759332 
L 319.0765 230.106713 
L 320.305 221.777381 
L 320.942 219.511915 
L 321.761 217.456818 
L 322.8985 215.249032 
L 326.129 209.288653 
L 326.857 207.320889 
L 327.403 205.190545 
L 327.8125 202.618502 
L 328.0855 199.571078 
L 328.313 194.061607 
L 328.4495 184.285457 
L 328.5405 154.891053 
L 328.7225 49.582435 
L 328.8135 51.204663 
L 328.9955 63.222126 
L 329.314 106.702274 
L 329.587 157.512884 
L 329.86 226.486448 
L 330.042 230.658845 
L 330.0875 230.714476 
L 330.133 230.612698 
L 330.3605 229.052771 
L 331.134 223.316741 
L 331.7255 220.642041 
L 332.408 218.542913 
L 333.318 216.471412 
L 334.8195 213.68981 
L 336.685 210.172814 
L 337.5495 208.042886 
L 338.141 205.999479 
L 338.596 203.571657 
L 338.9145 200.630879 
L 339.142 196.485392 
L 339.2785 190.927933 
L 339.3695 181.549844 
L 339.4605 137.769497 
L 339.597 49.911429 
L 339.6425 49.619779 
L 339.7335 51.868215 
L 339.9155 65.03035 
L 340.2795 116.514072 
L 340.507 163.327184 
L 340.7345 224.651741 
L 340.9165 230.557895 
L 340.962 230.739155 
L 341.0075 230.721133 
L 341.144 230.016713 
L 342.327 221.798233 
L 342.964 219.430078 
L 343.783 217.278416 
L 344.966 214.865179 
L 347.696 209.499254 
L 348.424 207.479293 
L 348.97 205.306447 
L 349.3795 202.688133 
L 349.6525 199.573468 
L 349.88 193.848003 
L 350.0165 183.160079 
L 350.1075 146.709515 
L 350.2895 49.569426 
L 350.3805 51.52641 
L 350.5625 64.12539 
L 350.9265 115.150967 
L 351.154 160.520949 
L 351.427 227.367362 
L 351.609 230.781462 
L 351.6545 230.77022 
L 351.791 230.062888 
L 352.974 221.709175 
L 353.611 219.307833 
L 354.43 217.115335 
L 355.613 214.6303 
L 358.0245 209.690852 
L 358.798 207.484507 
L 359.344 205.205855 
L 359.708 202.787742 
L 359.981 199.59674 
L 360.163 195.255801 
L 360.2995 185.144772 
L 360.3905 157.537937 
L 360.5725 49.587999 
L 360.618 49.913621 
L 360.7545 55.436538 
L 360.982 78.900424 
L 361.437 157.136637 
L 361.71 226.588995 
L 361.892 230.609726 
L 361.9375 230.640693 
L 362.074 229.982954 
L 363.3025 221.281348 
L 363.9395 218.889057 
L 364.804 216.528038 
L 366.5785 212.531131 
L 367.5795 209.95782 
L 368.08 208.133093 
L 368.3075 206.538846 
L 368.4895 200.383117 
L 368.6715 191.030096 
L 368.7625 179.706149 
L 368.8535 124.542016 
L 368.99 49.721318 
L 369.0355 49.710184 
L 369.172 54.474623 
L 369.3995 76.741317 
L 369.8545 152.269986 
L 370.173 227.213068 
L 370.355 230.171794 
L 370.446 229.946037 
L 370.719 227.836895 
L 371.356 223.259059 
L 371.902 220.936402 
L 372.539 219.189654 
L 373.358 217.598294 
L 374.5865 215.742094 
L 378.8635 209.654694 
L 379.6825 207.936524 
L 380.3195 206.061447 
L 380.7745 204.021882 
L 381.1385 201.262183 
L 381.4115 197.064658 
L 381.5935 189.720407 
L 381.6845 178.252665 
L 381.7755 115.853695 
L 381.912 49.68439 
L 381.9575 49.833567 
L 382.094 55.070835 
L 382.3215 78.093517 
L 382.7765 154.466815 
L 383.095 227.684875 
L 383.277 230.593891 
L 383.368 230.405407 
L 383.641 228.422055 
L 384.3235 223.626896 
L 384.915 221.075997 
L 385.5975 219.123482 
L 386.462 217.334775 
L 387.736 215.251609 
L 391.1485 209.911039 
L 392.013 208.015326 
L 392.6045 206.217174 
L 393.0595 204.161505 
L 393.4235 201.415799 
L 393.6965 197.314827 
L 393.8785 190.383038 
L 393.9695 180.203081 
L 394.0605 129.123917 
L 394.197 49.797323 
L 394.2425 49.699206 
L 394.379 54.475137 
L 394.6065 76.757263 
L 395.0615 151.67488 
L 395.38 227.285781 
L 395.562 230.599931 
L 395.6075 230.597021 
L 395.744 229.936712 
L 396.927 222.028517 
L 397.564 219.782551 
L 398.3375 217.87803 
L 399.384 215.907058 
L 401.659 212.247112 
L 402.9785 209.883263 
L 403.7975 207.988353 
L 404.389 206.091516 
L 404.844 203.885347 
L 405.1625 201.334105 
L 405.4355 197.055373 
L 405.6175 189.536069 
L 405.7085 177.597363 
L 405.7995 111.457386 
L 405.936 49.635125 
L 405.9815 49.87097 
L 406.118 55.241557 
L 406.3455 78.465973 
L 406.8005 155.276751 
L 407.119 227.930985 
L 407.301 230.607804 
L 407.392 230.377832 
L 407.665 228.332666 
L 408.3475 223.429877 
L 408.939 220.783077 
L 409.6215 218.72358 
L 410.5315 216.715256 
L 411.942 214.216581 
L 414.217 210.215576 
L 415.0815 208.220766 
L 415.7185 206.17707 
L 416.1735 203.955957 
L 416.492 201.399243 
L 416.765 197.134153 
L 416.947 189.706991 
L 417.038 178.095478 
L 417.129 114.66441 
L 417.2655 49.647529 
L 417.311 49.836094 
L 417.4475 55.104719 
L 417.675 78.174393 
L 418.13 154.684124 
L 418.4485 227.896513 
L 418.6305 230.618633 
L 418.7215 230.390929 
L 418.9945 228.334258 
L 419.677 223.383643 
L 420.2685 220.70064 
L 420.951 218.603619 
L 421.861 216.5471 
L 423.317 213.887463 
L 425.319 210.209069 
L 426.1835 208.13745 
L 426.775 206.174507 
L 427.23 203.894562 
L 427.5485 201.243047 
L 427.776 197.779522 
L 427.958 191.4834 
L 428.049 183.094861 
L 428.14 147.927487 
L 428.322 49.570341 
L 428.413 51.488321 
L 428.595 64.017636 
L 428.959 114.960843 
L 429.1865 159.894219 
L 429.4595 227.074065 
L 429.6415 230.741864 
L 429.687 230.756371 
L 429.8235 230.09989 
L 431.052 221.668145 
L 431.689 219.356758 
L 432.508 217.247227 
L 433.691 214.878591 
L 436.4665 209.547722 
L 437.24 207.445902 
L 437.786 205.303039 
L 438.1955 202.734739 
L 438.4685 199.716646 
L 438.696 194.336567 
L 438.8325 185.072868 
L 438.9235 158.922687 
L 439.1055 49.607259 
L 439.151 49.897935 
L 439.2875 55.362368 
L 439.515 78.733243 
L 439.97 155.939444 
L 440.2885 228.339699 
L 440.4705 230.685353 
L 440.5615 230.39318 
L 440.88 227.853472 
L 441.517 223.225906 
L 442.1085 220.504426 
L 442.8365 218.239012 
L 443.792 216.041041 
L 445.521 212.738319 
L 446.9315 209.855827 
L 447.705 207.795047 
L 448.251 205.756583 
L 448.6605 203.418226 
L 448.979 200.256846 
L 449.2065 195.53657 
L 449.343 188.42033 
L 449.434 173.161008 
L 449.6615 49.565598 
L 449.7525 51.501228 
L 449.9345 64.060199 
L 450.2985 115.052706 
L 450.526 160.294926 
L 450.799 227.321351 
L 450.981 230.771883 
L 451.0265 230.76302 
L 451.163 230.057736 
L 452.346 221.668557 
L 452.983 219.248953 
L 453.802 217.037167 
L 455.0305 214.436727 
L 457.3055 209.716442 
L 458.079 207.499518 
L 458.625 205.212818 
L 458.989 202.788223 
L 459.262 199.592511 
L 459.444 195.266387 
L 459.5805 185.469929 
L 459.6715 158.961838 
L 459.8535 49.600178 
L 459.899 49.876229 
L 460.0355 55.296452 
L 460.263 78.608528 
L 460.718 156.411721 
L 460.991 226.380696 
L 461.173 230.579605 
L 461.2185 230.624558 
L 461.355 229.987523 
L 462.629 221.052833 
L 463.3115 218.561579 
L 464.2215 216.139074 
L 467.179 208.891167 
L 467.634 206.860214 
L 467.7705 205.524985 
L 468.0435 194.385689 
L 468.18 180.583724 
L 468.271 130.401321 
L 468.4075 49.780208 
L 468.453 49.649466 
L 468.544 51.996673 
L 468.726 65.279971 
L 469.09 117.345294 
L 469.3175 165.03558 
L 469.545 224.41246 
L 469.727 229.979512 
L 469.7725 230.113759 
L 469.818 230.060932 
L 470 228.955096 
L 470.091 229.365539 
L 470.2275 229.35471 
L 470.9555 228.63836 
L 471.274 228.707828 
L 471.7745 229.09518 
L 473.094 230.541198 
L 474.8685 232.336926 
L 476.552 233.726113 
L 478.372 234.942659 
L 480.374 236.011927 
L 482.6035 236.945039 
L 485.106 237.743762 
L 487.927 238.405613 
L 491.203 238.940362 
L 495.116 239.345935 
L 499.9845 239.615577 
L 506.4 239.734444 
L 516.1825 239.669921 
L 561 238.982142 
L 561 238.982142 
" clip-path="url(#p59c9ae8b9e)" style="fill: none; stroke: #1f77b4; stroke-width: 1.5; stroke-linecap: square"/>
   </g>
   <g id="text_1">
    <!-- 0.2 nA -->
    <g transform="translate(37.75 53.256) scale(0.2 -0.2)">
     <defs>
      <path id="DejaVuSans-30" d="M 2034 4250 
Q 1547 4250 1301 3770 
Q 1056 3291 1056 2328 
Q 1056 1369 1301 889 
Q 1547 409 2034 409 
Q 2525 409 2770 889 
Q 3016 1369 3016 2328 
Q 3016 3291 2770 3770 
Q 2525 4250 2034 4250 
z
M 2034 4750 
Q 2819 4750 3233 4129 
Q 3647 3509 3647 2328 
Q 3647 1150 3233 529 
Q 2819 -91 2034 -91 
Q 1250 -91 836 529 
Q 422 1150 422 2328 
Q 422 3509 836 4129 
Q 1250 4750 2034 4750 
z
" transform="scale(0.015625)"/>
      <path id="DejaVuSans-2e" d="M 684 794 
L 1344 794 
L 1344 0 
L 684 0 
L 684 794 
z
" transform="scale(0.015625)"/>
      <path id="DejaVuSans-32" d="M 1228 531 
L 3431 531 
L 3431 0 
L 469 0 
L 469 531 
Q 828 903 1448 1529 
Q 2069 2156 2228 2338 
Q 2531 2678 2651 2914 
Q 2772 3150 2772 3378 
Q 2772 3750 2511 3984 
Q 2250 4219 1831 4219 
Q 1534 4219 1204 4116 
Q 875 4013 500 3803 
L 500 4441 
Q 881 4594 1212 4672 
Q 1544 4750 1819 4750 
Q 2544 4750 2975 4387 
Q 3406 4025 3406 3419 
Q 3406 3131 3298 2873 
Q 3191 2616 2906 2266 
Q 2828 2175 2409 1742 
Q 1991 1309 1228 531 
z
" transform="scale(0.015625)"/>
      <path id="DejaVuSans-20" transform="scale(0.015625)"/>
      <path id="DejaVuSans-6e" d="M 3513 2113 
L 3513 0 
L 2938 0 
L 2938 2094 
Q 2938 2591 2744 2837 
Q 2550 3084 2163 3084 
Q 1697 3084 1428 2787 
Q 1159 2491 1159 1978 
L 1159 0 
L 581 0 
L 581 3500 
L 1159 3500 
L 1159 2956 
Q 1366 3272 1645 3428 
Q 1925 3584 2291 3584 
Q 2894 3584 3203 3211 
Q 3513 2838 3513 2113 
z
" transform="scale(0.015625)"/>
      <path id="DejaVuSans-41" d="M 2188 4044 
L 1331 1722 
L 3047 1722 
L 2188 4044 
z
M 1831 4666 
L 2547 4666 
L 4325 0 
L 3669 0 
L 3244 1197 
L 1141 1197 
L 716 0 
L 50 0 
L 1831 4666 
z
" transform="scale(0.015625)"/>
     </defs>
     <use xlink:href="#DejaVuSans-30"/>
     <use xlink:href="#DejaVuSans-2e" x="63.623047"/>
     <use xlink:href="#DejaVuSans-32" x="95.410156"/>
     <use xlink:href="#DejaVuSans-20" x="159.033203"/>
     <use xlink:href="#DejaVuSans-6e" x="190.820312"/>
     <use xlink:href="#DejaVuSans-41" x="254.199219"/>
    </g>
   </g>
   <g id="text_2">
    <!-- Tzilivaki.3 2019 -->
    <g transform="translate(201.6775 31.56) scale(0.22 -0.22)">
     <defs>
      <path id="DejaVuSans-54" d="M -19 4666 
L 3928 4666 
L 3928 4134 
L 2272 4134 
L 2272 0 
L 1638 0 
L 1638 4134 
L -19 4134 
L -19 4666 
z
" transform="scale(0.015625)"/>
      <path id="DejaVuSans-7a" d="M 353 3500 
L 3084 3500 
L 3084 2975 
L 922 459 
L 3084 459 
L 3084 0 
L 275 0 
L 275 525 
L 2438 3041 
L 353 3041 
L 353 3500 
z
" transform="scale(0.015625)"/>
      <path id="DejaVuSans-69" d="M 603 3500 
L 1178 3500 
L 1178 0 
L 603 0 
L 603 3500 
z
M 603 4863 
L 1178 4863 
L 1178 4134 
L 603 4134 
L 603 4863 
z
" transform="scale(0.015625)"/>
      <path id="DejaVuSans-6c" d="M 603 4863 
L 1178 4863 
L 1178 0 
L 603 0 
L 603 4863 
z
" transform="scale(0.015625)"/>
      <path id="DejaVuSans-76" d="M 191 3500 
L 800 3500 
L 1894 563 
L 2988 3500 
L 3597 3500 
L 2284 0 
L 1503 0 
L 191 3500 
z
" transform="scale(0.015625)"/>
      <path id="DejaVuSans-61" d="M 2194 1759 
Q 1497 1759 1228 1600 
Q 959 1441 959 1056 
Q 959 750 1161 570 
Q 1363 391 1709 391 
Q 2188 391 2477 730 
Q 2766 1069 2766 1631 
L 2766 1759 
L 2194 1759 
z
M 3341 1997 
L 3341 0 
L 2766 0 
L 2766 531 
Q 2569 213 2275 61 
Q 1981 -91 1556 -91 
Q 1019 -91 701 211 
Q 384 513 384 1019 
Q 384 1609 779 1909 
Q 1175 2209 1959 2209 
L 2766 2209 
L 2766 2266 
Q 2766 2663 2505 2880 
Q 2244 3097 1772 3097 
Q 1472 3097 1187 3025 
Q 903 2953 641 2809 
L 641 3341 
Q 956 3463 1253 3523 
Q 1550 3584 1831 3584 
Q 2591 3584 2966 3190 
Q 3341 2797 3341 1997 
z
" transform="scale(0.015625)"/>
      <path id="DejaVuSans-6b" d="M 581 4863 
L 1159 4863 
L 1159 1991 
L 2875 3500 
L 3609 3500 
L 1753 1863 
L 3688 0 
L 2938 0 
L 1159 1709 
L 1159 0 
L 581 0 
L 581 4863 
z
" transform="scale(0.015625)"/>
      <path id="DejaVuSans-33" d="M 2597 2516 
Q 3050 2419 3304 2112 
Q 3559 1806 3559 1356 
Q 3559 666 3084 287 
Q 2609 -91 1734 -91 
Q 1441 -91 1130 -33 
Q 819 25 488 141 
L 488 750 
Q 750 597 1062 519 
Q 1375 441 1716 441 
Q 2309 441 2620 675 
Q 2931 909 2931 1356 
Q 2931 1769 2642 2001 
Q 2353 2234 1838 2234 
L 1294 2234 
L 1294 2753 
L 1863 2753 
Q 2328 2753 2575 2939 
Q 2822 3125 2822 3475 
Q 2822 3834 2567 4026 
Q 2313 4219 1838 4219 
Q 1578 4219 1281 4162 
Q 984 4106 628 3988 
L 628 4550 
Q 988 4650 1302 4700 
Q 1616 4750 1894 4750 
Q 2613 4750 3031 4423 
Q 3450 4097 3450 3541 
Q 3450 3153 3228 2886 
Q 3006 2619 2597 2516 
z
" transform="scale(0.015625)"/>
      <path id="DejaVuSans-31" d="M 794 531 
L 1825 531 
L 1825 4091 
L 703 3866 
L 703 4441 
L 1819 4666 
L 2450 4666 
L 2450 531 
L 3481 531 
L 3481 0 
L 794 0 
L 794 531 
z
" transform="scale(0.015625)"/>
      <path id="DejaVuSans-39" d="M 703 97 
L 703 672 
Q 941 559 1184 500 
Q 1428 441 1663 441 
Q 2288 441 2617 861 
Q 2947 1281 2994 2138 
Q 2813 1869 2534 1725 
Q 2256 1581 1919 1581 
Q 1219 1581 811 2004 
Q 403 2428 403 3163 
Q 403 3881 828 4315 
Q 1253 4750 1959 4750 
Q 2769 4750 3195 4129 
Q 3622 3509 3622 2328 
Q 3622 1225 3098 567 
Q 2575 -91 1691 -91 
Q 1453 -91 1209 -44 
Q 966 3 703 97 
z
M 1959 2075 
Q 2384 2075 2632 2365 
Q 2881 2656 2881 3163 
Q 2881 3666 2632 3958 
Q 2384 4250 1959 4250 
Q 1534 4250 1286 3958 
Q 1038 3666 1038 3163 
Q 1038 2656 1286 2365 
Q 1534 2075 1959 2075 
z
" transform="scale(0.015625)"/>
     </defs>
     <use xlink:href="#DejaVuSans-54"/>
     <use xlink:href="#DejaVuSans-7a" x="61.083984"/>
     <use xlink:href="#DejaVuSans-69" x="113.574219"/>
     <use xlink:href="#DejaVuSans-6c" x="141.357422"/>
     <use xlink:href="#DejaVuSans-69" x="169.140625"/>
     <use xlink:href="#DejaVuSans-76" x="196.923828"/>
     <use xlink:href="#DejaVuSans-61" x="256.103516"/>
     <use xlink:href="#DejaVuSans-6b" x="317.382812"/>
     <use xlink:href="#DejaVuSans-69" x="375.292969"/>
     <use xlink:href="#DejaVuSans-2e" x="403.076172"/>
     <use xlink:href="#DejaVuSans-33" x="434.863281"/>
     <use xlink:href="#DejaVuSans-20" x="498.486328"/>
     <use xlink:href="#DejaVuSans-32" x="530.273438"/>
     <use xlink:href="#DejaVuSans-30" x="593.896484"/>
     <use xlink:href="#DejaVuSans-31" x="657.519531"/>
     <use xlink:href="#DejaVuSans-39" x="721.142578"/>
    </g>
   </g>
   <g id="patch_2">
    <path d="M 406.3 273 
L 424.5 273 
L 424.5 37.56 
L 406.3 37.56 
L 406.3 273 
z
" clip-path="url(#p59c9ae8b9e)" style="fill: none; opacity: 0.5; stroke: #000000; stroke-linejoin: miter"/>
   </g>
   <g id="patch_3">
    <path d="M 561 214.14 
Q 492.75 243.57 424.5 273 
" style="fill: none; opacity: 0.5; stroke: #000000; stroke-linecap: round"/>
   </g>
   <g id="patch_4">
    <path d="M 561 72.876 
Q 492.75 55.218 424.5 37.56 
" style="fill: none; opacity: 0.5; stroke: #000000; stroke-linecap: round"/>
   </g>
   <g id="axes_2">
    <g id="patch_5">
     <path d="M 500.94 214.14 
L 561 214.14 
L 561 72.876 
L 500.94 72.876 
z
" style="fill: #ffffff"/>
    </g>
    <g id="matplotlib.axis_1">
     <g id="xtick_1"/>
     <g id="xtick_2"/>
     <g id="xtick_3"/>
    </g>
    <g id="matplotlib.axis_2">
     <g id="ytick_1"/>
     <g id="ytick_2"/>
     <g id="ytick_3"/>
     <g id="ytick_4"/>
     <g id="ytick_5"/>
     <g id="ytick_6"/>
    </g>
    <g id="line2d_2">
     <path d="M 500.94 93.864281 
L 501.69075 113.663987 
L 502.4415 136.649999 
L 502.7418 152.830797 
L 503.19225 179.405166 
L 503.49255 185.666994 
L 503.79285 187.936015 
L 504.09315 188.63241 
L 504.39345 188.671486 
L 504.8439 188.227306 
L 507.8469 184.249312 
L 509.0481 183.229267 
L 510.5496 182.262645 
L 512.50155 181.30474 
L 515.0541 180.316101 
L 519.2583 178.961285 
L 527.0661 176.469346 
L 529.61865 175.416338 
L 531.42045 174.446819 
L 532.62165 173.583931 
L 533.52255 172.713574 
L 534.2733 171.707055 
L 534.8739 170.536652 
L 535.32435 169.216293 
L 535.7748 166.994316 
L 536.0751 164.164195 
L 536.22525 161.648452 
L 536.3754 157.197287 
L 536.52555 147.187382 
L 536.976 81.192667 
L 537.12615 80.128517 
L 537.2763 80.241656 
L 537.5766 81.920983 
L 537.8769 85.33175 
L 538.32735 93.703658 
L 539.0781 113.466855 
L 539.82885 136.379048 
L 540.12915 152.35312 
L 540.5796 179.169822 
L 540.8799 185.621641 
L 541.1802 187.928486 
L 541.4805 188.636556 
L 541.7808 188.679092 
L 542.23125 188.234007 
L 545.23425 184.219776 
L 546.43545 183.186169 
L 547.93695 182.20398 
L 549.8889 181.226957 
L 552.5916 180.159708 
L 556.94595 178.719858 
L 561.15015 177.372343 
L 561.15015 177.372343 
" clip-path="url(#p23c74df9e1)" style="fill: none; stroke: #1f77b4; stroke-width: 1.5; stroke-linecap: square"/>
    </g>
    <g id="patch_6">
     <path d="M 500.94 214.14 
L 500.94 72.876 
" style="fill: none; stroke: #000000; stroke-width: 0.8; stroke-linejoin: miter; stroke-linecap: square"/>
    </g>
    <g id="patch_7">
     <path d="M 500.94 214.14 
L 561 214.14 
" style="fill: none; stroke: #000000; stroke-width: 0.8; stroke-linejoin: miter; stroke-linecap: square"/>
    </g>
   </g>
  </g>
 </g>
 <defs>
  <clipPath id="p59c9ae8b9e">
   <rect x="15" y="37.56" width="546" height="235.44"/>
  </clipPath>
  <clipPath id="p23c74df9e1">
   <rect x="500.94" y="72.876" width="60.06" height="141.264"/>
  </clipPath>
 </defs>
</svg>
