<?xml version="1.0" encoding="utf-8" standalone="no"?>
<!DOCTYPE svg PUBLIC "-//W3C//DTD SVG 1.1//EN"
  "http://www.w3.org/Graphics/SVG/1.1/DTD/svg11.dtd">
<svg xmlns:xlink="http://www.w3.org/1999/xlink" width="576pt" height="288pt" viewBox="0 0 576 288" xmlns="http://www.w3.org/2000/svg" version="1.1">
 <metadata>
  <rdf:RDF xmlns:dc="http://purl.org/dc/elements/1.1/" xmlns:cc="http://creativecommons.org/ns#" xmlns:rdf="http://www.w3.org/1999/02/22-rdf-syntax-ns#">
   <cc:Work>
    <dc:type rdf:resource="http://purl.org/dc/dcmitype/StillImage"/>
    <dc:date>2024-09-24T19:08:36.620453</dc:date>
    <dc:format>image/svg+xml</dc:format>
    <dc:creator>
     <cc:Agent>
      <dc:title>Matplotlib v3.7.4, https://matplotlib.org/</dc:title>
     </cc:Agent>
    </dc:creator>
   </cc:Work>
  </rdf:RDF>
 </metadata>
 <defs>
  <style type="text/css">*{stroke-linejoin: round; stroke-linecap: butt}</style>
 </defs>
 <g id="figure_1">
  <g id="patch_1">
   <path d="M 0 288 
L 576 288 
L 576 0 
L 0 0 
z
" style="fill: #ffffff"/>
  </g>
  <g id="axes_1">
   <g id="line2d_1">
    <path d="M 15 233.76 
L 15.34125 233.49498 
L 17.331875 232.330777 
L 20.858125 230.512677 
L 25.101 228.58789 
L 31.277625 226.051846 
L 36.805875 223.718338 
L 39.752 222.234135 
L 41.73125 220.980297 
L 43.0735 219.872235 
L 44.09725 218.757194 
L 44.904875 217.53794 
L 45.50775 216.213329 
L 45.974125 214.651294 
L 46.338125 212.65497 
L 46.6225 209.831644 
L 46.838625 205.409077 
L 47.00925 196.644545 
L 47.134375 176.161123 
L 47.2595 104.257859 
L 47.37325 73.266432 
L 47.407375 75.017731 
L 47.543875 96.576553 
L 48.37425 246.394024 
L 48.5335 247.44609 
L 48.544875 247.439162 
L 48.635875 247.188703 
L 48.87475 245.632746 
L 50.023625 237.369544 
L 50.569625 235.25248 
L 51.115625 233.967836 
L 51.7185 233.098871 
L 52.457875 232.426565 
L 53.549875 231.757476 
L 55.756625 230.715747 
L 61.830875 228.148837 
L 73.979375 223.092768 
L 76.345375 221.807543 
L 78.097125 220.608075 
L 79.3825 219.446175 
L 80.281125 218.343089 
L 80.99775 217.124756 
L 81.5665 215.696209 
L 81.99875 213.985283 
L 82.34 211.672174 
L 82.601625 208.250388 
L 82.795 202.623779 
L 82.942875 190.985804 
L 83.056625 160.58168 
L 83.25 73.239836 
L 83.31825 78.118741 
L 83.54575 122.248764 
L 84.239625 246.05551 
L 84.41025 247.443801 
L 84.4785 247.329408 
L 84.649125 246.427858 
L 85.36575 240.666792 
L 85.968625 237.064489 
L 86.514625 235.066421 
L 87.072 233.833962 
L 87.68625 233.002457 
L 88.45975 232.338758 
L 89.64275 231.646476 
L 92.168 230.4817 
L 98.447 227.851055 
L 106 224.821113 
L 106.193375 223.755468 
L 106.739375 222.314209 
L 108.002 219.056119 
L 108.582125 216.843899 
L 109.003 214.320967 
L 109.310125 211.042375 
L 109.537625 205.950227 
L 109.696875 196.900388 
L 109.810625 177.084181 
L 109.93575 98.792274 
L 110.038125 68.867987 
L 110.083625 70.727259 
L 110.2315 93.76321 
L 111.084625 247.325115 
L 111.20975 248.046058 
L 111.243875 248.016473 
L 111.357625 247.568027 
L 111.66475 245.131156 
L 112.654375 237.059572 
L 113.245875 234.119987 
L 113.860125 232.136604 
L 114.588125 230.530548 
L 115.62325 228.823676 
L 120.048125 222.000432 
L 120.99225 219.921392 
L 121.663375 217.907519 
L 122.1525 215.748099 
L 122.527875 213.037841 
L 122.800875 209.338553 
L 123.005625 203.105812 
L 123.1535 190.302581 
L 123.26725 154.159033 
L 123.44925 69.756072 
L 123.506125 73.357154 
L 123.688125 105.945955 
L 124.45025 246.484716 
L 124.6095 247.862593 
L 124.620875 247.860407 
L 124.7005 247.668431 
L 124.90525 246.352115 
L 126.395375 235.109016 
L 126.99825 232.802134 
L 127.669375 231.096515 
L 128.54525 229.500816 
L 130.09225 227.221902 
L 132.515125 223.599362 
L 133.73225 221.358935 
L 134.574 219.349736 
L 135.18825 217.310176 
L 135.64325 215.021964 
L 135.9845 212.114969 
L 136.23475 207.939439 
L 136.41675 200.832581 
L 136.55325 184.95489 
L 136.655625 142.363932 
L 136.814875 69.771645 
L 136.860375 71.849798 
L 137.00825 95.428479 
L 137.85 247.06166 
L 137.9865 247.854395 
L 138.00925 247.834004 
L 138.123 247.408469 
L 138.41875 245.104303 
L 139.4425 236.830354 
L 140.034 233.953155 
L 140.659625 231.979064 
L 141.399 230.383607 
L 142.456875 228.664738 
L 146.665625 222.222024 
L 147.6325 220.159071 
L 148.33775 218.125167 
L 148.849625 215.964701 
L 149.236375 213.313032 
L 149.52075 209.685228 
L 149.7255 203.961286 
L 149.873375 192.931089 
L 149.987125 164.061503 
L 150.1805 69.793623 
L 150.2715 76.670395 
L 150.555875 133.122146 
L 151.238375 247.326119 
L 151.352125 247.85454 
L 151.38625 247.819364 
L 151.511375 247.293994 
L 151.84125 244.611699 
L 152.762625 237.126368 
L 153.354125 234.144215 
L 153.968375 232.13557 
L 154.696375 230.516414 
L 155.720125 228.821898 
L 160.201875 221.898922 
L 161.12325 219.851096 
L 161.794375 217.812926 
L 162.2835 215.606587 
L 162.6475 212.908814 
L 162.9205 209.08431 
L 163.113875 203.047714 
L 163.26175 190.137581 
L 163.3755 153.570698 
L 163.5575 69.795854 
L 163.603 72.343962 
L 163.76225 98.939252 
L 164.569875 246.755397 
L 164.71775 247.854628 
L 164.729125 247.851707 
L 164.80875 247.655927 
L 165.0135 246.335343 
L 166.503625 235.099013 
L 167.1065 232.794745 
L 167.777625 231.090693 
L 168.6535 229.495913 
L 170.2005 227.217465 
L 172.623375 223.594493 
L 173.8405 221.353077 
L 174.68225 219.342104 
L 175.2965 217.29932 
L 175.7515 215.004992 
L 176.09275 212.084535 
L 176.343 207.875447 
L 176.525 200.668377 
L 176.6615 184.401504 
L 176.763875 140.520975 
L 176.923125 69.77424 
L 176.95725 71.156738 
L 177.082375 89.125512 
L 177.992375 247.496802 
L 178.09475 247.853138 
L 178.128875 247.808131 
L 178.254 247.260315 
L 178.59525 244.455612 
L 179.493875 237.162609 
L 180.085375 234.167625 
L 180.699625 232.151094 
L 181.427625 230.527423 
L 182.44 228.847741 
L 186.96725 221.843225 
L 187.888625 219.777838 
L 188.548375 217.750702 
L 189.0375 215.509238 
L 189.4015 212.738295 
L 189.663125 208.970346 
L 189.8565 202.771981 
L 190.004375 189.251005 
L 190.118125 150.175039 
L 190.28875 69.774112 
L 190.33425 71.823977 
L 190.482125 95.364722 
L 191.323875 247.056414 
L 191.460375 247.854093 
L 191.483125 247.834085 
L 191.5855 247.471002 
L 191.8585 245.413114 
L 192.9505 236.629498 
L 193.542 233.823463 
L 194.167625 231.892691 
L 194.918375 230.300693 
L 196.010375 228.547231 
L 200.02575 222.434901 
L 201.02675 220.353253 
L 201.75475 218.318896 
L 202.289375 216.142643 
L 202.676125 213.616856 
L 202.971875 210.090165 
L 203.188 204.450789 
L 203.335875 194.336669 
L 203.449625 169.114816 
L 203.654375 69.796425 
L 203.75675 78.266887 
L 204.154875 156.53944 
L 204.7805 247.788997 
L 204.826 247.854528 
L 204.882875 247.765326 
L 205.042125 246.922026 
L 205.53125 242.617727 
L 206.25925 236.987498 
L 206.85075 234.054545 
L 207.465 232.075995 
L 208.193 230.474034 
L 209.228125 228.771106 
L 213.618875 222.010259 
L 214.563 219.939027 
L 215.2455 217.896179 
L 215.734625 215.735651 
L 216.11 213.022362 
L 216.383 209.315277 
L 216.58775 203.05931 
L 216.735625 190.174364 
L 216.849375 153.710896 
L 217.031375 69.793333 
L 217.076875 72.321865 
L 217.236125 98.889549 
L 218.04375 246.750615 
L 218.191625 247.854606 
L 218.203 247.851842 
L 218.282625 247.65688 
L 218.487375 246.337255 
L 219.9775 235.100131 
L 220.580375 232.795473 
L 221.2515 231.091195 
L 222.127375 229.496294 
L 223.674375 227.217801 
L 226.09725 223.594887 
L 227.314375 221.35357 
L 228.156125 219.342763 
L 228.770375 217.300277 
L 229.225375 215.006511 
L 229.566625 212.087286 
L 229.816875 207.881279 
L 229.998875 200.683419 
L 230.135375 184.452505 
L 230.23775 140.690276 
L 230.397 69.773408 
L 230.431125 71.139817 
L 230.55625 89.080116 
L 231.46625 247.494727 
L 231.568625 247.85323 
L 231.60275 247.808631 
L 231.727875 247.261751 
L 232.069125 244.45778 
L 232.96775 237.164075 
L 233.55925 234.168572 
L 234.1735 232.151721 
L 234.9015 230.527866 
L 235.913875 228.848093 
L 240.441125 221.843688 
L 241.3625 219.778447 
L 242.02225 217.751569 
L 242.511375 215.510599 
L 242.875375 212.740694 
L 243.137 208.975184 
L 243.330375 202.78378 
L 243.47825 189.289402 
L 243.592 150.322459 
L 243.762625 69.775079 
L 243.8195 72.861625 
L 243.990125 102.472833 
L 244.775 246.627243 
L 244.93425 247.854142 
L 244.945625 247.847765 
L 245.036625 247.583846 
L 245.2755 245.911906 
L 246.5495 235.930142 
L 247.141 233.371347 
L 247.778 231.560909 
L 248.57425 229.979018 
L 249.80275 228.083762 
L 253.112875 223.122822 
L 254.227625 220.978598 
L 255.0125 218.999631 
L 255.604 216.893391 
L 256.03625 214.507614 
L 256.35475 211.454327 
L 256.593625 206.81353 
L 256.76425 198.676914 
L 256.889375 180.397726 
L 257.003125 118.528259 
L 257.12825 69.799176 
L 257.162375 70.751365 
L 257.276125 85.843403 
L 258.243 247.746438 
L 258.299875 247.854541 
L 258.35675 247.76599 
L 258.516 246.923667 
L 259.005125 242.619844 
L 259.733125 236.988917 
L 260.324625 234.05546 
L 260.938875 232.076603 
L 261.666875 230.474467 
L 262.702 228.771451 
L 267.09275 222.010706 
L 268.036875 219.939615 
L 268.719375 217.89701 
L 269.2085 215.736934 
L 269.583875 213.024604 
L 269.856875 209.319809 
L 270.061625 203.070651 
L 270.2095 190.210322 
L 270.32325 153.848023 
L 270.50525 69.790959 
L 270.562125 73.444655 
L 270.744125 106.098792 
L 271.50625 246.492758 
L 271.6655 247.854589 
L 271.676875 247.851979 
L 271.7565 247.657823 
L 271.96125 246.339141 
L 273.451375 235.101232 
L 274.05425 232.796191 
L 274.725375 231.091691 
L 275.60125 229.49667 
L 277.14825 227.218131 
L 279.571125 223.595275 
L 280.78825 221.354055 
L 281.63 219.343413 
L 282.24425 217.301219 
L 282.69925 215.008005 
L 283.0405 212.089994 
L 283.29075 207.887017 
L 283.47275 200.698213 
L 283.60925 184.502639 
L 283.711625 140.856976 
L 283.870875 69.772734 
L 283.905 71.123232 
L 284.030125 89.035397 
L 284.9515 247.584354 
L 285.0425 247.853313 
L 285.088 247.782005 
L 285.235875 247.042803 
L 285.668125 243.300518 
L 286.441625 237.165515 
L 287.033125 234.169501 
L 287.647375 232.152335 
L 288.375375 230.528301 
L 289.38775 228.848437 
L 293.915 221.84414 
L 294.836375 219.779044 
L 295.496125 217.752419 
L 295.98525 215.511933 
L 296.34925 212.743046 
L 296.610875 208.979924 
L 296.80425 202.795337 
L 296.952125 189.326997 
L 297.065875 150.466716 
L 297.2365 69.776157 
L 297.293375 72.838464 
L 297.464 102.423845 
L 298.248875 246.622139 
L 298.408125 247.854198 
L 298.4195 247.847967 
L 298.5105 247.584899 
L 298.738 246.010547 
L 300.046125 235.810775 
L 300.637625 233.293944 
L 301.286 231.481992 
L 302.093625 229.901431 
L 303.367625 227.953346 
L 306.49575 223.279355 
L 307.644625 221.102148 
L 308.440875 219.133662 
L 309.04375 217.041865 
L 309.487375 214.668555 
L 309.81725 211.605023 
L 310.056125 207.144188 
L 310.22675 199.549022 
L 310.351875 183.259577 
L 310.465625 127.933264 
L 310.602125 69.802042 
L 310.63625 70.737129 
L 310.75 85.801229 
L 311.72825 247.787526 
L 311.77375 247.854556 
L 311.830625 247.76665 
L 311.989875 246.925295 
L 312.479 242.621943 
L 313.207 236.990325 
L 313.7985 234.056369 
L 314.41275 232.077208 
L 315.14075 230.474898 
L 316.175875 228.771795 
L 320.566625 222.011152 
L 321.51075 219.940199 
L 322.19325 217.897836 
L 322.682375 215.738209 
L 323.05775 213.026831 
L 323.33075 209.324312 
L 323.5355 203.081916 
L 323.683375 190.246023 
L 323.797125 153.984116 
L 323.979125 69.788734 
L 324.036 73.419654 
L 324.218 106.049094 
L 324.980125 246.487115 
L 325.139375 247.854562 
L 325.15075 247.852106 
L 325.230375 247.658755 
L 325.435125 246.341015 
L 326.92525 235.102327 
L 327.528125 232.796903 
L 328.19925 231.092182 
L 329.075125 229.497042 
L 330.622125 227.218459 
L 333.045 223.595659 
L 334.262125 221.354535 
L 335.103875 219.344056 
L 335.718125 217.302153 
L 336.173125 215.009486 
L 336.514375 212.092676 
L 336.764625 207.892701 
L 336.946625 200.712863 
L 337.083125 184.55227 
L 337.1855 141.022251 
L 337.34475 69.772206 
L 337.378875 71.106853 
L 337.504 88.99102 
L 338.425375 247.582669 
L 338.516375 247.853402 
L 338.561875 247.78261 
L 338.70975 247.044364 
L 339.142 243.302645 
L 339.9155 237.166953 
L 340.507 234.170429 
L 341.12125 232.152951 
L 341.84925 230.528737 
L 342.861625 228.848784 
L 347.388875 221.844595 
L 348.31025 219.779644 
L 348.97 217.753271 
L 349.459125 215.513271 
L 349.823125 212.745404 
L 350.08475 208.984676 
L 350.278125 202.80692 
L 350.426 189.364658 
L 350.53975 150.611306 
L 350.710375 69.777387 
L 350.76725 72.815261 
L 350.937875 102.374623 
L 351.72275 246.61699 
L 351.882 247.854254 
L 351.893375 247.84817 
L 351.984375 247.585959 
L 352.211875 246.012505 
L 353.52 235.811992 
L 354.1115 233.294735 
L 354.759875 231.482528 
L 355.5675 229.901826 
L 356.8415 227.953679 
L 359.969625 223.27975 
L 361.1185 221.102645 
L 361.91475 219.134333 
L 362.517625 217.042853 
L 362.96125 214.670153 
L 363.291125 211.607995 
L 363.53 207.150645 
L 363.700625 199.565718 
L 363.82575 183.312844 
L 363.9395 128.118164 
L 364.076 69.805087 
L 364.110125 70.722876 
L 364.223875 85.758756 
L 365.202125 247.786787 
L 365.247625 247.85457 
L 365.3045 247.767315 
L 365.46375 246.926937 
L 365.952875 242.624059 
L 366.680875 236.991745 
L 367.272375 234.057286 
L 367.886625 232.077819 
L 368.614625 230.475334 
L 369.64975 228.772143 
L 374.0405 222.011602 
L 374.984625 219.94079 
L 375.667125 217.898671 
L 376.15625 215.739498 
L 376.531625 213.029084 
L 376.804625 209.328854 
L 377.009375 203.093274 
L 377.15725 190.282004 
L 377.271 154.121219 
L 377.453 69.786621 
L 377.509875 73.394481 
L 377.691875 105.998922 
L 378.454 246.481391 
L 378.61325 247.854534 
L 378.624625 247.852233 
L 378.70425 247.659697 
L 378.909 246.342909 
L 380.399125 235.103434 
L 381.002 232.797623 
L 381.673125 231.092679 
L 382.549 229.497419 
L 384.096 227.21879 
L 386.518875 223.596048 
L 387.736 221.355022 
L 388.57775 219.344708 
L 389.192 217.303098 
L 389.647 215.010986 
L 389.98825 212.095393 
L 390.2385 207.898457 
L 390.4205 200.727694 
L 390.557 184.602488 
L 390.659375 141.189507 
L 390.818625 69.771817 
L 390.85275 71.090347 
L 390.977875 88.946076 
L 391.89925 247.580953 
L 391.99025 247.853488 
L 392.03575 247.783219 
L 392.183625 247.045945 
L 392.615875 243.304803 
L 393.389375 237.168411 
L 393.980875 234.171372 
L 394.595125 232.153575 
L 395.323125 230.52918 
L 396.3355 228.849135 
L 400.86275 221.845057 
L 401.784125 219.780253 
L 402.443875 217.754137 
L 402.933 215.51463 
L 403.297 212.7478 
L 403.558625 208.989502 
L 403.752 202.818681 
L 403.899875 189.402884 
L 404.013625 150.758307 
L 404.18425 69.778774 
L 404.241125 72.791645 
L 404.41175 102.324385 
L 405.196625 246.611722 
L 405.355875 247.854319 
L 405.36725 247.848387 
L 405.45825 247.587052 
L 405.68575 246.014516 
L 407.00525 235.753686 
L 407.59675 233.256892 
L 408.245125 231.45689 
L 409.05275 229.88288 
L 410.32675 227.937722 
L 413.432125 223.29954 
L 414.592375 221.103157 
L 415.388625 219.135024 
L 415.9915 217.043869 
L 416.435125 214.671795 
L 416.765 211.611049 
L 417.003875 207.157279 
L 417.1745 199.582817 
L 417.299625 183.367274 
L 417.413375 128.307559 
L 417.549875 69.808362 
L 417.584 70.708358 
L 417.69775 85.715245 
L 418.676 247.786026 
L 418.732875 247.850529 
L 418.778375 247.767995 
L 418.937625 246.928619 
L 419.42675 242.626229 
L 420.15475 236.993202 
L 420.74625 234.058228 
L 421.3605 232.078446 
L 422.0885 230.475781 
L 423.123625 228.7725 
L 427.514375 222.012065 
L 428.4585 219.941398 
L 429.141 217.899529 
L 429.630125 215.740819 
L 430.0055 213.031392 
L 430.2785 209.333502 
L 430.48325 203.104893 
L 430.631125 190.318798 
L 430.744875 154.261364 
L 430.926875 69.784607 
L 430.98375 73.368792 
L 431.16575 105.947577 
L 431.927875 246.475515 
L 432.087125 247.854496 
L 432.0985 247.852355 
L 432.178125 247.660652 
L 432.382875 246.34484 
L 433.873 235.104564 
L 434.475875 232.798358 
L 435.147 231.093185 
L 436.022875 229.497803 
L 437.569875 227.219128 
L 439.99275 223.596445 
L 441.209875 221.355519 
L 442.051625 219.345373 
L 442.665875 217.304064 
L 443.120875 215.012516 
L 443.462125 212.098166 
L 443.712375 207.904329 
L 443.894375 200.742821 
L 444.030875 184.65369 
L 444.13325 141.36014 
L 444.2925 69.771549 
L 444.326625 71.073532 
L 444.45175 88.900092 
L 445.373125 247.5792 
L 445.464125 247.853582 
L 445.509625 247.783848 
L 445.6575 247.047567 
L 446.08975 243.307014 
L 446.86325 237.169907 
L 447.45475 234.172338 
L 448.069 232.154217 
L 448.797 230.529634 
L 449.809375 228.849497 
L 454.336625 221.845531 
L 455.258 219.780878 
L 455.91775 217.755025 
L 456.406875 215.516023 
L 456.770875 212.750256 
L 457.0325 208.994449 
L 457.225875 202.830687 
L 457.37375 189.441876 
L 457.4875 150.908191 
L 457.658125 69.780339 
L 457.715 72.767577 
L 457.885625 102.273035 
L 458.6705 246.60632 
L 458.82975 247.854387 
L 458.841125 247.848609 
L 458.932125 247.588171 
L 459.159625 246.016576 
L 460.479125 235.754957 
L 461.070625 233.257719 
L 461.719 231.457452 
L 462.526625 229.883298 
L 463.800625 227.938075 
L 466.917375 223.280576 
L 468.06625 221.103683 
L 468.8625 219.135733 
L 469.465375 217.044911 
L 469.909 214.67348 
L 470.602875 209.189124 
L 470.807625 203.650409 
L 470.9555 192.746534 
L 471.06925 164.253862 
L 471.262625 70.704588 
L 471.353625 77.540972 
L 471.638 134.082839 
L 472.309125 247.391264 
L 472.43425 248.065969 
L 472.468375 248.040795 
L 472.582125 247.626394 
L 472.88925 245.35452 
L 473.810625 238.433436 
L 474.356625 235.999765 
L 474.902625 234.516202 
L 475.48275 233.553531 
L 476.176625 232.831317 
L 477.1435 232.166728 
L 478.906625 231.268951 
L 483.4225 229.278813 
L 490.7935 226.287166 
L 496.901875 223.742959 
L 499.87075 222.25735 
L 501.861375 221.004854 
L 503.203625 219.906375 
L 504.23875 218.791216 
L 505.046375 217.587804 
L 505.660625 216.258136 
L 506.127 214.723292 
L 506.502375 212.699417 
L 506.798125 209.761989 
L 507.01425 205.257853 
L 507.184875 196.218328 
L 507.31 174.689051 
L 507.457875 88.234641 
L 507.5375 73.239626 
L 507.594375 76.578987 
L 507.776375 109.649375 
L 508.51575 245.712805 
L 508.686375 247.44004 
L 508.754625 247.367185 
L 508.913875 246.593289 
L 509.414375 242.551304 
L 510.0855 237.927161 
L 510.6315 235.593333 
L 511.1775 234.175051 
L 511.769 233.240329 
L 512.47425 232.543883 
L 513.47525 231.889667 
L 515.352125 230.97208 
L 520.561875 228.738853 
L 535.167375 222.576428 
L 537.22625 221.355961 
L 538.693625 220.254917 
L 539.86525 219.099341 
L 540.72975 217.920704 
L 541.36675 216.687003 
L 541.878625 215.215882 
L 542.288125 213.317392 
L 542.59525 210.799521 
L 542.834125 206.901355 
L 543.016125 199.861788 
L 543.152625 184.193469 
L 543.266375 136.412738 
L 543.41425 73.264813 
L 543.45975 75.173704 
L 543.607625 99.293578 
L 544.41525 246.199306 
L 544.5745 247.44336 
L 544.585875 247.442221 
L 544.6655 247.269258 
L 544.87025 246.05436 
L 546.23525 236.631548 
L 546.78125 234.803836 
L 547.338625 233.673841 
L 547.975625 232.878833 
L 548.794625 232.226469 
L 550.114125 231.495261 
L 553.185375 230.112247 
L 559.578125 227.467023 
L 561 226.900362 
L 561 226.900362 
" clip-path="url(#ped6310d166)" style="fill: none; stroke: #1f77b4; stroke-width: 1.5; stroke-linecap: square"/>
   </g>
   <g id="text_1">
    <!-- 0.04 nA -->
    <g transform="translate(37.75 53.256) scale(0.2 -0.2)">
     <defs>
      <path id="DejaVuSans-30" d="M 2034 4250 
Q 1547 4250 1301 3770 
Q 1056 3291 1056 2328 
Q 1056 1369 1301 889 
Q 1547 409 2034 409 
Q 2525 409 2770 889 
Q 3016 1369 3016 2328 
Q 3016 3291 2770 3770 
Q 2525 4250 2034 4250 
z
M 2034 4750 
Q 2819 4750 3233 4129 
Q 3647 3509 3647 2328 
Q 3647 1150 3233 529 
Q 2819 -91 2034 -91 
Q 1250 -91 836 529 
Q 422 1150 422 2328 
Q 422 3509 836 4129 
Q 1250 4750 2034 4750 
z
" transform="scale(0.015625)"/>
      <path id="DejaVuSans-2e" d="M 684 794 
L 1344 794 
L 1344 0 
L 684 0 
L 684 794 
z
" transform="scale(0.015625)"/>
      <path id="DejaVuSans-34" d="M 2419 4116 
L 825 1625 
L 2419 1625 
L 2419 4116 
z
M 2253 4666 
L 3047 4666 
L 3047 1625 
L 3713 1625 
L 3713 1100 
L 3047 1100 
L 3047 0 
L 2419 0 
L 2419 1100 
L 313 1100 
L 313 1709 
L 2253 4666 
z
" transform="scale(0.015625)"/>
      <path id="DejaVuSans-20" transform="scale(0.015625)"/>
      <path id="DejaVuSans-6e" d="M 3513 2113 
L 3513 0 
L 2938 0 
L 2938 2094 
Q 2938 2591 2744 2837 
Q 2550 3084 2163 3084 
Q 1697 3084 1428 2787 
Q 1159 2491 1159 1978 
L 1159 0 
L 581 0 
L 581 3500 
L 1159 3500 
L 1159 2956 
Q 1366 3272 1645 3428 
Q 1925 3584 2291 3584 
Q 2894 3584 3203 3211 
Q 3513 2838 3513 2113 
z
" transform="scale(0.015625)"/>
      <path id="DejaVuSans-41" d="M 2188 4044 
L 1331 1722 
L 3047 1722 
L 2188 4044 
z
M 1831 4666 
L 2547 4666 
L 4325 0 
L 3669 0 
L 3244 1197 
L 1141 1197 
L 716 0 
L 50 0 
L 1831 4666 
z
" transform="scale(0.015625)"/>
     </defs>
     <use xlink:href="#DejaVuSans-30"/>
     <use xlink:href="#DejaVuSans-2e" x="63.623047"/>
     <use xlink:href="#DejaVuSans-30" x="95.410156"/>
     <use xlink:href="#DejaVuSans-34" x="159.033203"/>
     <use xlink:href="#DejaVuSans-20" x="222.65625"/>
     <use xlink:href="#DejaVuSans-6e" x="254.443359"/>
     <use xlink:href="#DejaVuSans-41" x="317.822266"/>
    </g>
   </g>
   <g id="text_2">
    <!-- Saraga 2006 -->
    <g transform="translate(217.797656 31.56) scale(0.22 -0.22)">
     <defs>
      <path id="DejaVuSans-53" d="M 3425 4513 
L 3425 3897 
Q 3066 4069 2747 4153 
Q 2428 4238 2131 4238 
Q 1616 4238 1336 4038 
Q 1056 3838 1056 3469 
Q 1056 3159 1242 3001 
Q 1428 2844 1947 2747 
L 2328 2669 
Q 3034 2534 3370 2195 
Q 3706 1856 3706 1288 
Q 3706 609 3251 259 
Q 2797 -91 1919 -91 
Q 1588 -91 1214 -16 
Q 841 59 441 206 
L 441 856 
Q 825 641 1194 531 
Q 1563 422 1919 422 
Q 2459 422 2753 634 
Q 3047 847 3047 1241 
Q 3047 1584 2836 1778 
Q 2625 1972 2144 2069 
L 1759 2144 
Q 1053 2284 737 2584 
Q 422 2884 422 3419 
Q 422 4038 858 4394 
Q 1294 4750 2059 4750 
Q 2388 4750 2728 4690 
Q 3069 4631 3425 4513 
z
" transform="scale(0.015625)"/>
      <path id="DejaVuSans-61" d="M 2194 1759 
Q 1497 1759 1228 1600 
Q 959 1441 959 1056 
Q 959 750 1161 570 
Q 1363 391 1709 391 
Q 2188 391 2477 730 
Q 2766 1069 2766 1631 
L 2766 1759 
L 2194 1759 
z
M 3341 1997 
L 3341 0 
L 2766 0 
L 2766 531 
Q 2569 213 2275 61 
Q 1981 -91 1556 -91 
Q 1019 -91 701 211 
Q 384 513 384 1019 
Q 384 1609 779 1909 
Q 1175 2209 1959 2209 
L 2766 2209 
L 2766 2266 
Q 2766 2663 2505 2880 
Q 2244 3097 1772 3097 
Q 1472 3097 1187 3025 
Q 903 2953 641 2809 
L 641 3341 
Q 956 3463 1253 3523 
Q 1550 3584 1831 3584 
Q 2591 3584 2966 3190 
Q 3341 2797 3341 1997 
z
" transform="scale(0.015625)"/>
      <path id="DejaVuSans-72" d="M 2631 2963 
Q 2534 3019 2420 3045 
Q 2306 3072 2169 3072 
Q 1681 3072 1420 2755 
Q 1159 2438 1159 1844 
L 1159 0 
L 581 0 
L 581 3500 
L 1159 3500 
L 1159 2956 
Q 1341 3275 1631 3429 
Q 1922 3584 2338 3584 
Q 2397 3584 2469 3576 
Q 2541 3569 2628 3553 
L 2631 2963 
z
" transform="scale(0.015625)"/>
      <path id="DejaVuSans-67" d="M 2906 1791 
Q 2906 2416 2648 2759 
Q 2391 3103 1925 3103 
Q 1463 3103 1205 2759 
Q 947 2416 947 1791 
Q 947 1169 1205 825 
Q 1463 481 1925 481 
Q 2391 481 2648 825 
Q 2906 1169 2906 1791 
z
M 3481 434 
Q 3481 -459 3084 -895 
Q 2688 -1331 1869 -1331 
Q 1566 -1331 1297 -1286 
Q 1028 -1241 775 -1147 
L 775 -588 
Q 1028 -725 1275 -790 
Q 1522 -856 1778 -856 
Q 2344 -856 2625 -561 
Q 2906 -266 2906 331 
L 2906 616 
Q 2728 306 2450 153 
Q 2172 0 1784 0 
Q 1141 0 747 490 
Q 353 981 353 1791 
Q 353 2603 747 3093 
Q 1141 3584 1784 3584 
Q 2172 3584 2450 3431 
Q 2728 3278 2906 2969 
L 2906 3500 
L 3481 3500 
L 3481 434 
z
" transform="scale(0.015625)"/>
      <path id="DejaVuSans-32" d="M 1228 531 
L 3431 531 
L 3431 0 
L 469 0 
L 469 531 
Q 828 903 1448 1529 
Q 2069 2156 2228 2338 
Q 2531 2678 2651 2914 
Q 2772 3150 2772 3378 
Q 2772 3750 2511 3984 
Q 2250 4219 1831 4219 
Q 1534 4219 1204 4116 
Q 875 4013 500 3803 
L 500 4441 
Q 881 4594 1212 4672 
Q 1544 4750 1819 4750 
Q 2544 4750 2975 4387 
Q 3406 4025 3406 3419 
Q 3406 3131 3298 2873 
Q 3191 2616 2906 2266 
Q 2828 2175 2409 1742 
Q 1991 1309 1228 531 
z
" transform="scale(0.015625)"/>
      <path id="DejaVuSans-36" d="M 2113 2584 
Q 1688 2584 1439 2293 
Q 1191 2003 1191 1497 
Q 1191 994 1439 701 
Q 1688 409 2113 409 
Q 2538 409 2786 701 
Q 3034 994 3034 1497 
Q 3034 2003 2786 2293 
Q 2538 2584 2113 2584 
z
M 3366 4563 
L 3366 3988 
Q 3128 4100 2886 4159 
Q 2644 4219 2406 4219 
Q 1781 4219 1451 3797 
Q 1122 3375 1075 2522 
Q 1259 2794 1537 2939 
Q 1816 3084 2150 3084 
Q 2853 3084 3261 2657 
Q 3669 2231 3669 1497 
Q 3669 778 3244 343 
Q 2819 -91 2113 -91 
Q 1303 -91 875 529 
Q 447 1150 447 2328 
Q 447 3434 972 4092 
Q 1497 4750 2381 4750 
Q 2619 4750 2861 4703 
Q 3103 4656 3366 4563 
z
" transform="scale(0.015625)"/>
     </defs>
     <use xlink:href="#DejaVuSans-53"/>
     <use xlink:href="#DejaVuSans-61" x="63.476562"/>
     <use xlink:href="#DejaVuSans-72" x="124.755859"/>
     <use xlink:href="#DejaVuSans-61" x="165.869141"/>
     <use xlink:href="#DejaVuSans-67" x="227.148438"/>
     <use xlink:href="#DejaVuSans-61" x="290.625"/>
     <use xlink:href="#DejaVuSans-20" x="351.904297"/>
     <use xlink:href="#DejaVuSans-32" x="383.691406"/>
     <use xlink:href="#DejaVuSans-30" x="447.314453"/>
     <use xlink:href="#DejaVuSans-30" x="510.9375"/>
     <use xlink:href="#DejaVuSans-36" x="574.560547"/>
    </g>
   </g>
   <g id="patch_2">
    <path d="M 406.3 273 
L 424.5 273 
L 424.5 37.56 
L 406.3 37.56 
L 406.3 273 
z
" clip-path="url(#ped6310d166)" style="fill: none; opacity: 0.5; stroke: #000000; stroke-linejoin: miter"/>
   </g>
   <g id="patch_3">
    <path d="M 561 214.14 
Q 492.75 243.57 424.5 273 
" style="fill: none; opacity: 0.5; stroke: #000000; stroke-linecap: round"/>
   </g>
   <g id="patch_4">
    <path d="M 561 72.876 
Q 492.75 55.218 424.5 37.56 
" style="fill: none; opacity: 0.5; stroke: #000000; stroke-linecap: round"/>
   </g>
   <g id="axes_2">
    <g id="patch_5">
     <path d="M 500.94 214.14 
L 561 214.14 
L 561 72.876 
L 500.94 72.876 
z
" style="fill: #ffffff"/>
    </g>
    <g id="matplotlib.axis_1">
     <g id="xtick_1"/>
     <g id="xtick_2"/>
     <g id="xtick_3"/>
    </g>
    <g id="matplotlib.axis_2">
     <g id="ytick_1"/>
     <g id="ytick_2"/>
     <g id="ytick_3"/>
     <g id="ytick_4"/>
     <g id="ytick_5"/>
     <g id="ytick_6"/>
    </g>
    <g id="line2d_2">
     <path d="M 500.902463 194.701822 
L 502.178738 192.959649 
L 503.379938 191.686815 
L 504.656213 190.662138 
L 506.082638 189.806546 
L 507.8469 189.017574 
L 510.286838 188.189371 
L 514.4535 187.04407 
L 524.288325 184.377607 
L 527.967 183.131807 
L 530.406938 182.086752 
L 532.133663 181.122197 
L 533.3724 180.196586 
L 534.310838 179.23548 
L 535.02405 178.207488 
L 535.62465 176.936452 
L 536.112638 175.325083 
L 536.488013 173.302193 
L 536.82585 170.08969 
L 537.088613 165.278173 
L 537.313838 156.773936 
L 537.539063 137.484282 
L 537.989513 92.925929 
L 538.064588 92.225017 
L 538.139663 92.420198 
L 538.289813 94.550855 
L 538.590113 103.041573 
L 540.804825 184.008477 
L 541.142663 195.885714 
L 541.405425 198.266989 
L 541.668188 198.912005 
L 541.93095 199.052749 
L 542.23125 198.929296 
L 542.6817 198.448332 
L 543.545063 197.113487 
L 545.6847 193.741486 
L 546.8859 192.291242 
L 548.124638 191.145455 
L 549.475988 190.208851 
L 551.052563 189.396386 
L 553.079588 188.612692 
L 556.157663 187.685591 
L 561 186.417119 
L 561 186.417119 
" clip-path="url(#pc599b8852f)" style="fill: none; stroke: #1f77b4; stroke-width: 1.5; stroke-linecap: square"/>
    </g>
    <g id="patch_6">
     <path d="M 500.94 214.14 
L 500.94 72.876 
" style="fill: none; stroke: #000000; stroke-width: 0.8; stroke-linejoin: miter; stroke-linecap: square"/>
    </g>
    <g id="patch_7">
     <path d="M 500.94 214.14 
L 561 214.14 
" style="fill: none; stroke: #000000; stroke-width: 0.8; stroke-linejoin: miter; stroke-linecap: square"/>
    </g>
   </g>
  </g>
 </g>
 <defs>
  <clipPath id="ped6310d166">
   <rect x="15" y="37.56" width="546" height="235.44"/>
  </clipPath>
  <clipPath id="pc599b8852f">
   <rect x="500.94" y="72.876" width="60.06" height="141.264"/>
  </clipPath>
 </defs>
</svg>
