<?xml version="1.0" encoding="utf-8" standalone="no"?>
<!DOCTYPE svg PUBLIC "-//W3C//DTD SVG 1.1//EN"
  "http://www.w3.org/Graphics/SVG/1.1/DTD/svg11.dtd">
<svg xmlns:xlink="http://www.w3.org/1999/xlink" width="576pt" height="288pt" viewBox="0 0 576 288" xmlns="http://www.w3.org/2000/svg" version="1.1">
 <metadata>
  <rdf:RDF xmlns:dc="http://purl.org/dc/elements/1.1/" xmlns:cc="http://creativecommons.org/ns#" xmlns:rdf="http://www.w3.org/1999/02/22-rdf-syntax-ns#">
   <cc:Work>
    <dc:type rdf:resource="http://purl.org/dc/dcmitype/StillImage"/>
    <dc:date>2024-09-24T18:55:10.650279</dc:date>
    <dc:format>image/svg+xml</dc:format>
    <dc:creator>
     <cc:Agent>
      <dc:title>Matplotlib v3.7.4, https://matplotlib.org/</dc:title>
     </cc:Agent>
    </dc:creator>
   </cc:Work>
  </rdf:RDF>
 </metadata>
 <defs>
  <style type="text/css">*{stroke-linejoin: round; stroke-linecap: butt}</style>
 </defs>
 <g id="figure_1">
  <g id="patch_1">
   <path d="M 0 288 
L 576 288 
L 576 0 
L 0 0 
z
" style="fill: #ffffff"/>
  </g>
  <g id="axes_1">
   <g id="line2d_1">
    <path d="M 15 233.76 
L 15.352625 236.712995 
L 15.88725 239.485616 
L 16.56975 241.878968 
L 17.377375 243.919871 
L 18.287375 245.630861 
L 19.288375 247.051429 
L 20.380375 248.220024 
L 21.552 249.151471 
L 22.814625 249.873095 
L 24.191 250.402771 
L 25.71525 250.74754 
L 27.44425 250.904508 
L 29.469 250.857582 
L 32.005625 250.565411 
L 35.782125 249.882093 
L 44.813875 248.194273 
L 49.671 247.557845 
L 54.937625 247.098151 
L 61.330375 246.773932 
L 70.316625 246.559551 
L 87.470125 246.414816 
L 106 246.342024 
L 106.216125 238.608637 
L 106.6825 229.793569 
L 107.34225 221.590366 
L 107.990625 213.295381 
L 108.195375 207.545373 
L 108.309125 198.127612 
L 108.377375 171.770648 
L 108.47975 73.013958 
L 108.559375 83.32025 
L 109.4125 229.683838 
L 109.583125 229.891044 
L 109.856125 229.760262 
L 110.277 229.296667 
L 110.652375 228.505318 
L 111.198375 226.743394 
L 112.1425 222.824896 
L 113.07525 218.097387 
L 113.553 214.554289 
L 113.837375 210.750571 
L 114.019375 204.927651 
L 114.12175 193.890408 
L 114.19 152.323182 
L 114.281 75.317066 
L 114.337875 80.916188 
L 114.679125 155.59979 
L 115.1 226.748672 
L 115.282 228.834461 
L 115.498125 229.147831 
L 115.862125 229.301318 
L 116.112375 229.168875 
L 116.44225 228.696361 
L 116.8745 227.638864 
L 117.5115 225.403095 
L 119.411125 217.772975 
L 119.90025 214.64805 
L 120.196 211.303159 
L 120.389375 206.388403 
L 120.503125 197.63131 
L 120.571375 175.074854 
L 120.685125 75.356546 
L 120.776125 86.935324 
L 121.6065 228.649663 
L 121.81125 229.515934 
L 122.186625 230.034848 
L 122.44825 230.105834 
L 122.6985 229.915662 
L 123.051125 229.326292 
L 123.563 227.981338 
L 125.2465 222.557002 
L 126.45225 218.115764 
L 126.99825 215.239536 
L 127.328125 212.306413 
L 127.54425 208.350583 
L 127.68075 201.656449 
L 127.77175 182.765726 
L 127.896875 75.19458 
L 128.022 93.145425 
L 128.77275 228.219827 
L 128.966125 229.665479 
L 129.31875 230.419249 
L 129.625875 230.674114 
L 129.86475 230.590453 
L 130.1605 230.212512 
L 130.626875 229.186866 
L 131.59375 226.437341 
L 134.665 216.596697 
L 135.09725 214.10921 
L 135.381625 211.16719 
L 135.575 206.665371 
L 135.700125 197.430223 
L 135.768375 174.272203 
L 135.882125 75.279984 
L 135.973125 86.678329 
L 136.814875 229.04315 
L 137.042375 230.13885 
L 137.4405 230.938688 
L 137.702125 231.072286 
L 137.952375 230.941118 
L 138.316375 230.459747 
L 138.862375 229.321451 
L 140.05675 226.16031 
L 143.594375 216.25432 
L 144.026625 213.924336 
L 144.311 211.126494 
L 144.504375 206.859935 
L 144.6295 198.454742 
L 144.709125 171.450821 
L 144.822875 75.409515 
L 144.9025 85.143572 
L 145.778375 229.317921 
L 146.028625 230.417656 
L 146.415375 231.209705 
L 146.688375 231.357716 
L 146.95 231.248182 
L 147.29125 230.829576 
L 147.79175 229.804702 
L 153.126625 216.843306 
L 153.627125 214.810198 
L 153.968375 212.458478 
L 154.20725 209.091268 
L 154.3665 203.08302 
L 154.4575 190.590878 
L 154.514375 150.957419 
L 154.605375 75.629962 
L 154.66225 80.598148 
L 154.969375 146.494552 
L 155.43575 227.076646 
L 155.629125 229.721798 
L 155.947625 230.833724 
L 156.311625 231.446699 
L 156.584625 231.530593 
L 156.857625 231.367386 
L 157.221625 230.850948 
L 157.8245 229.533014 
L 160.53175 223.31663 
L 163.614375 216.793974 
L 164.12625 214.951892 
L 164.478875 212.855225 
L 164.729125 209.977204 
L 164.89975 205.266472 
L 165.0135 194.638853 
L 165.08175 159.530876 
L 165.184125 75.798216 
L 165.241 81.445455 
L 165.58225 155.221576 
L 166.0145 227.150723 
L 166.207875 229.743881 
L 166.526375 230.902519 
L 166.890375 231.556815 
L 167.163375 231.668049 
L 167.425 231.532692 
L 167.76625 231.07221 
L 168.335 229.855433 
L 170.871625 224.021279 
L 172.623375 220.883189 
L 174.284125 217.809492 
L 174.966625 216.060612 
L 175.421625 214.280574 
L 175.740125 212.127772 
L 175.967625 209.002579 
L 176.126875 203.264057 
L 176.217875 191.802123 
L 176.286125 141.435537 
L 176.377125 75.994754 
L 176.422625 80.03209 
L 176.68425 135.089296 
L 177.196125 226.730875 
L 177.3895 229.647496 
L 177.708 230.884353 
L 178.083375 231.607665 
L 178.36775 231.744146 
L 178.629375 231.620877 
L 178.982 231.163496 
L 179.630375 229.865244 
L 182.474125 223.868802 
L 184.180375 221.010958 
L 186.05725 217.814502 
L 186.7625 216.150751 
L 187.24025 214.443567 
L 187.5815 212.342116 
L 187.820375 209.365292 
L 187.979625 204.442723 
L 188.082 193.957799 
L 188.15025 155.99963 
L 188.252625 76.136419 
L 188.3095 82.056881 
L 188.662125 158.371801 
L 189.083 227.092616 
L 189.28775 229.768146 
L 189.629 231.019778 
L 189.993 231.670015 
L 190.266 231.778407 
L 190.527625 231.633384 
L 190.8575 231.157658 
L 191.51725 229.674173 
L 193.3145 225.916534 
L 194.804625 223.245571 
L 196.7725 220.228687 
L 198.274 217.786083 
L 198.990625 216.198754 
L 199.47975 214.571114 
L 199.832375 212.577253 
L 200.082625 209.767572 
L 200.25325 205.088689 
L 200.367 194.431676 
L 200.43525 159.272437 
L 200.537625 76.204878 
L 200.5945 81.716645 
L 200.924375 152.785793 
L 201.368 226.965585 
L 201.57275 229.728334 
L 201.914 231.008079 
L 202.278 231.679509 
L 202.551 231.801771 
L 202.812625 231.669443 
L 203.153875 231.198495 
L 203.71125 229.962049 
L 204.9625 227.278536 
L 206.543625 224.298976 
L 208.113375 221.833627 
L 211.014 217.397176 
L 211.67375 215.874089 
L 212.12875 214.267284 
L 212.458625 212.263998 
L 212.6975 209.339602 
L 212.85675 204.521389 
L 212.959125 194.450447 
L 213.027375 159.559501 
L 213.12975 76.273992 
L 213.186625 81.726647 
L 213.5165 152.753605 
L 213.960125 226.926294 
L 214.164875 229.710644 
L 214.506125 231.004671 
L 214.870125 231.686602 
L 215.1545 231.814029 
L 215.416125 231.674872 
L 215.746 231.209368 
L 216.40575 229.76027 
L 218.191625 226.11223 
L 219.647625 223.573098 
L 221.36525 221.052452 
L 223.583375 217.784626 
L 224.32275 216.266387 
L 224.82325 214.739027 
L 225.18725 212.894822 
L 225.448875 210.359763 
L 225.630875 206.29566 
L 225.756 197.534308 
L 225.82425 176.650301 
L 225.949375 76.373835 
L 226.040375 88.393038 
L 226.87075 228.788281 
L 227.109625 230.299366 
L 227.519125 231.4539 
L 227.837625 231.7994 
L 228.087875 231.786784 
L 228.37225 231.51765 
L 228.770375 230.77939 
L 230.863375 226.454001 
L 232.319375 223.882293 
L 233.934625 221.497687 
L 236.641875 217.572462 
L 237.347125 216.082567 
L 237.83625 214.521143 
L 238.188875 212.609992 
L 238.439125 209.955294 
L 238.60975 205.710853 
L 238.7235 197.015713 
L 238.79175 174.172183 
L 238.9055 76.404646 
L 238.9965 86.960457 
L 239.849625 228.93673 
L 240.099875 230.381048 
L 240.509375 231.485864 
L 240.8165 231.794761 
L 241.06675 231.770339 
L 241.351125 231.485663 
L 241.783375 230.659734 
L 243.785375 226.570692 
L 245.25275 223.977232 
L 246.84525 221.632514 
L 249.745875 217.464658 
L 250.43975 215.977361 
L 250.9175 214.417397 
L 251.25875 212.523073 
L 251.509 209.784362 
L 251.679625 205.273066 
L 251.793375 195.375542 
L 251.861625 165.336309 
L 251.964 76.440597 
L 252.03225 82.784846 
L 252.419 166.542195 
L 252.80575 227.062694 
L 253.0105 229.714382 
L 253.35175 231.007276 
L 253.71575 231.691498 
L 253.98875 231.819855 
L 254.239 231.695716 
L 254.5575 231.247603 
L 255.695 228.91355 
L 257.844875 224.782231 
L 259.323625 222.485362 
L 263.27075 216.659542 
L 263.828125 215.196564 
L 264.22625 213.525918 
L 264.522 211.261628 
L 264.72675 207.871601 
L 264.86325 201.788227 
L 264.95425 185.845383 
L 265.0225 110.578937 
L 265.09075 76.412212 
L 265.147625 81.367507 
L 265.45475 147.061557 
L 265.921125 226.778843 
L 266.125875 229.660477 
L 266.467125 230.983179 
L 266.831125 231.684852 
L 267.1155 231.823293 
L 267.36575 231.696705 
L 267.68425 231.243868 
L 268.969625 228.622838 
L 270.926125 224.875791 
L 272.3935 222.58786 
L 274.839125 219.281444 
L 276.0335 217.442313 
L 276.727375 215.966604 
L 277.205125 214.418383 
L 277.546375 212.541145 
L 277.796625 209.839371 
L 277.96725 205.437103 
L 278.081 196.03732 
L 278.14925 169.113162 
L 278.263 76.408368 
L 278.33125 84.017887 
L 278.797625 185.190893 
L 279.093375 226.945905 
L 279.298125 229.701321 
L 279.639375 231.011163 
L 280.003375 231.704386 
L 280.28775 231.836622 
L 280.538 231.704456 
L 280.8565 231.244493 
L 282.278375 228.349691 
L 284.087 224.902813 
L 285.554375 222.615216 
L 287.88625 219.474364 
L 289.16025 217.558514 
L 289.876875 216.081406 
L 290.366 214.559576 
L 290.718625 212.715584 
L 290.98025 210.04062 
L 291.16225 205.505501 
L 291.276 196.302435 
L 291.34425 170.558375 
L 291.458 76.396988 
L 291.537625 85.724703 
L 292.424875 229.205995 
L 292.697875 230.577708 
L 293.096 231.571585 
L 293.403125 231.832269 
L 293.653375 231.772164 
L 293.93775 231.444464 
L 294.48375 230.362941 
L 297.111375 225.208837 
L 298.556 222.907013 
L 300.523875 220.235732 
L 302.207375 217.839241 
L 302.980875 216.346796 
L 303.504125 214.850037 
L 303.8795 213.079354 
L 304.1525 210.646887 
L 304.345875 206.701547 
L 304.471 199.085056 
L 304.550625 177.373132 
L 304.67575 76.425725 
L 304.76675 88.222976 
L 305.597125 228.753477 
L 305.836 230.289577 
L 306.2455 231.460909 
L 306.564 231.815191 
L 306.81425 231.805324 
L 307.08725 231.543978 
L 307.5195 230.73923 
L 310.010625 225.779034 
L 311.4325 223.417306 
L 313.150125 221.019749 
L 315.470625 217.778325 
L 316.23275 216.290458 
L 316.744625 214.80625 
L 317.12 213.004631 
L 317.393 210.494678 
L 317.575 206.697964 
L 317.700125 199.075127 
L 317.77975 177.322666 
L 317.904875 76.430077 
L 317.995875 88.240301 
L 318.82625 228.753692 
L 319.065125 230.289673 
L 319.474625 231.461354 
L 319.793125 231.815791 
L 320.043375 231.805936 
L 320.316375 231.544327 
L 320.748625 230.739884 
L 323.2625 225.741178 
L 324.684375 223.387451 
L 326.413375 220.981138 
L 328.69975 217.79124 
L 329.461875 216.310723 
L 329.985125 214.797871 
L 330.3605 212.991377 
L 330.6335 210.468497 
L 330.8155 206.634503 
L 330.940625 198.856358 
L 331.02025 176.096199 
L 331.145375 76.480439 
L 331.236375 88.606843 
L 332.055375 228.626342 
L 332.282875 230.199677 
L 332.692375 231.416823 
L 333.010875 231.801313 
L 333.261125 231.811338 
L 333.52275 231.584033 
L 333.920875 230.874914 
L 336.628125 225.513368 
L 338.061375 223.182596 
L 339.87 220.69906 
L 341.906125 217.853037 
L 342.679625 216.37272 
L 343.202875 214.895635 
L 343.57825 213.16339 
L 343.85125 210.82153 
L 344.044625 207.145328 
L 344.181125 199.386081 
L 344.26075 179.011204 
L 344.385875 76.406078 
L 344.48825 89.904479 
L 345.295875 228.566442 
L 345.523375 230.1848 
L 345.932875 231.41255 
L 346.251375 231.803547 
L 346.501625 231.817729 
L 346.76325 231.594153 
L 347.15 230.911776 
L 349.94825 225.383771 
L 351.3815 223.075506 
L 353.235625 220.545972 
L 355.146625 217.868282 
L 355.9315 216.368936 
L 356.45475 214.890607 
L 356.830125 213.155423 
L 357.103125 210.806242 
L 357.2965 207.108348 
L 357.421625 200.430447 
L 357.50125 184.136172 
L 357.63775 76.412395 
L 357.77425 97.130807 
L 358.490875 227.533347 
L 358.695625 229.819917 
L 359.059625 231.132421 
L 359.41225 231.740494 
L 359.68525 231.838534 
L 359.9355 231.686982 
L 360.265375 231.184179 
L 364.474125 223.31211 
L 366.225875 220.889344 
L 368.432625 217.815048 
L 369.206125 216.321025 
L 369.729375 214.816756 
L 370.10475 213.027155 
L 370.37775 210.545312 
L 370.571125 206.443027 
L 370.69625 198.173911 
L 370.775875 172.018368 
L 370.889625 76.412736 
L 370.96925 85.423918 
L 371.8565 229.184674 
L 372.1295 230.567395 
L 372.527625 231.566675 
L 372.83475 231.830896 
L 373.085 231.772802 
L 373.369375 231.445893 
L 373.92675 230.347263 
L 376.6795 224.991078 
L 378.1355 222.716369 
L 380.262625 219.865243 
L 381.741375 217.726867 
L 382.492125 216.250582 
L 383.004 214.749003 
L 383.368 212.982236 
L 383.641 210.452221 
L 383.823 206.596668 
L 383.948125 198.726752 
L 384.02775 175.356244 
L 384.1415 76.488417 
L 384.2325 86.683112 
L 385.097 229.029162 
L 385.34725 230.421451 
L 385.75675 231.516567 
L 386.063875 231.817077 
L 386.314125 231.78427 
L 386.587125 231.499858 
L 387.0535 230.609748 
L 389.6015 225.575767 
L 391.03475 223.236933 
L 392.820625 220.780397 
L 394.925 217.849427 
L 395.6985 216.370638 
L 396.22175 214.894873 
L 396.597125 213.164251 
L 396.870125 210.825304 
L 397.0635 207.156666 
L 397.2 199.430068 
L 397.279625 179.24751 
L 397.40475 76.409633 
L 397.507125 89.828089 
L 398.31475 228.559354 
L 398.54225 230.182066 
L 398.95175 231.411225 
L 399.27025 231.803134 
L 399.5205 231.817867 
L 399.782125 231.594605 
L 400.168875 230.912738 
L 402.9785 225.367951 
L 404.41175 223.064101 
L 406.27725 220.523803 
L 408.176875 217.863361 
L 408.96175 216.364208 
L 409.485 214.885076 
L 409.860375 213.147435 
L 410.133375 210.791689 
L 410.32675 207.073874 
L 410.451875 200.323248 
L 410.5315 183.648491 
L 410.668 76.428417 
L 410.8045 97.366468 
L 411.521125 227.558857 
L 411.725875 229.825274 
L 412.089875 231.135255 
L 412.4425 231.74176 
L 412.7155 231.838754 
L 412.96575 231.686242 
L 413.295625 231.182396 
L 417.481625 223.347957 
L 419.222 220.937465 
L 421.47425 217.804167 
L 422.236375 216.333756 
L 422.759625 214.837926 
L 423.135 213.065472 
L 423.408 210.625394 
L 423.601375 206.653328 
L 423.7265 198.926235 
L 423.806125 176.500859 
L 423.93125 76.467126 
L 424.02225 88.491457 
L 424.852625 228.765221 
L 425.0915 230.291559 
L 425.501 231.461746 
L 425.8195 231.815217 
L 426.06975 231.804572 
L 426.34275 231.541619 
L 426.775 230.737481 
L 429.334375 225.664416 
L 430.75625 223.327726 
L 432.496625 220.920074 
L 434.726125 217.820324 
L 435.499625 216.330273 
L 436.022875 214.83268 
L 436.39825 213.056446 
L 436.67125 210.607018 
L 436.864625 206.605894 
L 436.98975 198.760277 
L 437.069375 175.552497 
L 437.183125 76.494803 
L 437.274125 86.629924 
L 438.138625 229.027481 
L 438.388875 230.422009 
L 438.798375 231.517928 
L 439.1055 231.818825 
L 439.35575 231.786218 
L 439.62875 231.501893 
L 440.095125 230.612021 
L 442.6545 225.557949 
L 444.08775 223.222729 
L 445.873625 220.768883 
L 447.978 217.836712 
L 448.7515 216.353611 
L 449.27475 214.869189 
L 449.650125 213.120354 
L 449.923125 210.73753 
L 450.1165 206.939298 
L 450.241625 199.890976 
L 450.32125 181.591794 
L 450.446375 76.477657 
L 450.5715 93.54064 
L 451.32225 227.893914 
L 451.538375 229.94535 
L 451.925125 231.240748 
L 452.266375 231.757578 
L 452.528 231.818036 
L 452.789625 231.630077 
L 453.14225 231.049895 
L 456.543375 224.480763 
L 458.044875 222.22633 
L 461.7645 216.889577 
L 462.367375 215.425728 
L 462.78825 213.811939 
L 463.095375 211.721433 
L 463.3115 208.684436 
L 463.459375 203.424023 
L 463.56175 189.963969 
L 463.63 131.191448 
L 463.709625 76.465257 
L 463.7665 81.255075 
L 464.06225 144.327101 
L 464.54 226.733198 
L 464.74475 229.645562 
L 465.086 230.97658 
L 465.45 231.6838 
L 465.734375 231.825366 
L 465.984625 231.699391 
L 466.303125 231.244304 
L 467.725 228.37461 
L 469.545 224.916959 
L 470 224.165474 
L 470.20475 231.140905 
L 470.602875 237.613646 
L 471.103375 242.300304 
L 471.694875 245.807072 
L 472.366 248.488933 
L 473.11675 250.60035 
L 473.947125 252.285492 
L 474.84575 253.613937 
L 475.80125 254.637455 
L 476.825 255.410859 
L 477.917 255.957999 
L 479.1 256.301714 
L 480.4195 256.448937 
L 481.921 256.385628 
L 483.6955 256.079027 
L 485.925 255.455986 
L 489.26925 254.263975 
L 496.6175 251.605786 
L 500.4395 250.496737 
L 504.272875 249.617501 
L 508.436125 248.89489 
L 513.236375 248.294225 
L 519.14 247.789386 
L 527.000125 247.353981 
L 538.31825 246.965922 
L 554.413875 246.648346 
L 561 246.565808 
L 561 246.565808 
" clip-path="url(#p9684b836b7)" style="fill: none; stroke: #1f77b4; stroke-width: 1.5; stroke-linecap: square"/>
   </g>
   <g id="text_1">
    <!-- 0.5 nA -->
    <g transform="translate(37.75 53.256) scale(0.2 -0.2)">
     <defs>
      <path id="DejaVuSans-30" d="M 2034 4250 
Q 1547 4250 1301 3770 
Q 1056 3291 1056 2328 
Q 1056 1369 1301 889 
Q 1547 409 2034 409 
Q 2525 409 2770 889 
Q 3016 1369 3016 2328 
Q 3016 3291 2770 3770 
Q 2525 4250 2034 4250 
z
M 2034 4750 
Q 2819 4750 3233 4129 
Q 3647 3509 3647 2328 
Q 3647 1150 3233 529 
Q 2819 -91 2034 -91 
Q 1250 -91 836 529 
Q 422 1150 422 2328 
Q 422 3509 836 4129 
Q 1250 4750 2034 4750 
z
" transform="scale(0.015625)"/>
      <path id="DejaVuSans-2e" d="M 684 794 
L 1344 794 
L 1344 0 
L 684 0 
L 684 794 
z
" transform="scale(0.015625)"/>
      <path id="DejaVuSans-35" d="M 691 4666 
L 3169 4666 
L 3169 4134 
L 1269 4134 
L 1269 2991 
Q 1406 3038 1543 3061 
Q 1681 3084 1819 3084 
Q 2600 3084 3056 2656 
Q 3513 2228 3513 1497 
Q 3513 744 3044 326 
Q 2575 -91 1722 -91 
Q 1428 -91 1123 -41 
Q 819 9 494 109 
L 494 744 
Q 775 591 1075 516 
Q 1375 441 1709 441 
Q 2250 441 2565 725 
Q 2881 1009 2881 1497 
Q 2881 1984 2565 2268 
Q 2250 2553 1709 2553 
Q 1456 2553 1204 2497 
Q 953 2441 691 2322 
L 691 4666 
z
" transform="scale(0.015625)"/>
      <path id="DejaVuSans-20" transform="scale(0.015625)"/>
      <path id="DejaVuSans-6e" d="M 3513 2113 
L 3513 0 
L 2938 0 
L 2938 2094 
Q 2938 2591 2744 2837 
Q 2550 3084 2163 3084 
Q 1697 3084 1428 2787 
Q 1159 2491 1159 1978 
L 1159 0 
L 581 0 
L 581 3500 
L 1159 3500 
L 1159 2956 
Q 1366 3272 1645 3428 
Q 1925 3584 2291 3584 
Q 2894 3584 3203 3211 
Q 3513 2838 3513 2113 
z
" transform="scale(0.015625)"/>
      <path id="DejaVuSans-41" d="M 2188 4044 
L 1331 1722 
L 3047 1722 
L 2188 4044 
z
M 1831 4666 
L 2547 4666 
L 4325 0 
L 3669 0 
L 3244 1197 
L 1141 1197 
L 716 0 
L 50 0 
L 1831 4666 
z
" transform="scale(0.015625)"/>
     </defs>
     <use xlink:href="#DejaVuSans-30"/>
     <use xlink:href="#DejaVuSans-2e" x="63.623047"/>
     <use xlink:href="#DejaVuSans-35" x="95.410156"/>
     <use xlink:href="#DejaVuSans-20" x="159.033203"/>
     <use xlink:href="#DejaVuSans-6e" x="190.820312"/>
     <use xlink:href="#DejaVuSans-41" x="254.199219"/>
    </g>
   </g>
   <g id="text_2">
    <!-- Migliore 2018 -->
    <g transform="translate(213.093437 31.56) scale(0.22 -0.22)">
     <defs>
      <path id="DejaVuSans-4d" d="M 628 4666 
L 1569 4666 
L 2759 1491 
L 3956 4666 
L 4897 4666 
L 4897 0 
L 4281 0 
L 4281 4097 
L 3078 897 
L 2444 897 
L 1241 4097 
L 1241 0 
L 628 0 
L 628 4666 
z
" transform="scale(0.015625)"/>
      <path id="DejaVuSans-69" d="M 603 3500 
L 1178 3500 
L 1178 0 
L 603 0 
L 603 3500 
z
M 603 4863 
L 1178 4863 
L 1178 4134 
L 603 4134 
L 603 4863 
z
" transform="scale(0.015625)"/>
      <path id="DejaVuSans-67" d="M 2906 1791 
Q 2906 2416 2648 2759 
Q 2391 3103 1925 3103 
Q 1463 3103 1205 2759 
Q 947 2416 947 1791 
Q 947 1169 1205 825 
Q 1463 481 1925 481 
Q 2391 481 2648 825 
Q 2906 1169 2906 1791 
z
M 3481 434 
Q 3481 -459 3084 -895 
Q 2688 -1331 1869 -1331 
Q 1566 -1331 1297 -1286 
Q 1028 -1241 775 -1147 
L 775 -588 
Q 1028 -725 1275 -790 
Q 1522 -856 1778 -856 
Q 2344 -856 2625 -561 
Q 2906 -266 2906 331 
L 2906 616 
Q 2728 306 2450 153 
Q 2172 0 1784 0 
Q 1141 0 747 490 
Q 353 981 353 1791 
Q 353 2603 747 3093 
Q 1141 3584 1784 3584 
Q 2172 3584 2450 3431 
Q 2728 3278 2906 2969 
L 2906 3500 
L 3481 3500 
L 3481 434 
z
" transform="scale(0.015625)"/>
      <path id="DejaVuSans-6c" d="M 603 4863 
L 1178 4863 
L 1178 0 
L 603 0 
L 603 4863 
z
" transform="scale(0.015625)"/>
      <path id="DejaVuSans-6f" d="M 1959 3097 
Q 1497 3097 1228 2736 
Q 959 2375 959 1747 
Q 959 1119 1226 758 
Q 1494 397 1959 397 
Q 2419 397 2687 759 
Q 2956 1122 2956 1747 
Q 2956 2369 2687 2733 
Q 2419 3097 1959 3097 
z
M 1959 3584 
Q 2709 3584 3137 3096 
Q 3566 2609 3566 1747 
Q 3566 888 3137 398 
Q 2709 -91 1959 -91 
Q 1206 -91 779 398 
Q 353 888 353 1747 
Q 353 2609 779 3096 
Q 1206 3584 1959 3584 
z
" transform="scale(0.015625)"/>
      <path id="DejaVuSans-72" d="M 2631 2963 
Q 2534 3019 2420 3045 
Q 2306 3072 2169 3072 
Q 1681 3072 1420 2755 
Q 1159 2438 1159 1844 
L 1159 0 
L 581 0 
L 581 3500 
L 1159 3500 
L 1159 2956 
Q 1341 3275 1631 3429 
Q 1922 3584 2338 3584 
Q 2397 3584 2469 3576 
Q 2541 3569 2628 3553 
L 2631 2963 
z
" transform="scale(0.015625)"/>
      <path id="DejaVuSans-65" d="M 3597 1894 
L 3597 1613 
L 953 1613 
Q 991 1019 1311 708 
Q 1631 397 2203 397 
Q 2534 397 2845 478 
Q 3156 559 3463 722 
L 3463 178 
Q 3153 47 2828 -22 
Q 2503 -91 2169 -91 
Q 1331 -91 842 396 
Q 353 884 353 1716 
Q 353 2575 817 3079 
Q 1281 3584 2069 3584 
Q 2775 3584 3186 3129 
Q 3597 2675 3597 1894 
z
M 3022 2063 
Q 3016 2534 2758 2815 
Q 2500 3097 2075 3097 
Q 1594 3097 1305 2825 
Q 1016 2553 972 2059 
L 3022 2063 
z
" transform="scale(0.015625)"/>
      <path id="DejaVuSans-32" d="M 1228 531 
L 3431 531 
L 3431 0 
L 469 0 
L 469 531 
Q 828 903 1448 1529 
Q 2069 2156 2228 2338 
Q 2531 2678 2651 2914 
Q 2772 3150 2772 3378 
Q 2772 3750 2511 3984 
Q 2250 4219 1831 4219 
Q 1534 4219 1204 4116 
Q 875 4013 500 3803 
L 500 4441 
Q 881 4594 1212 4672 
Q 1544 4750 1819 4750 
Q 2544 4750 2975 4387 
Q 3406 4025 3406 3419 
Q 3406 3131 3298 2873 
Q 3191 2616 2906 2266 
Q 2828 2175 2409 1742 
Q 1991 1309 1228 531 
z
" transform="scale(0.015625)"/>
      <path id="DejaVuSans-31" d="M 794 531 
L 1825 531 
L 1825 4091 
L 703 3866 
L 703 4441 
L 1819 4666 
L 2450 4666 
L 2450 531 
L 3481 531 
L 3481 0 
L 794 0 
L 794 531 
z
" transform="scale(0.015625)"/>
      <path id="DejaVuSans-38" d="M 2034 2216 
Q 1584 2216 1326 1975 
Q 1069 1734 1069 1313 
Q 1069 891 1326 650 
Q 1584 409 2034 409 
Q 2484 409 2743 651 
Q 3003 894 3003 1313 
Q 3003 1734 2745 1975 
Q 2488 2216 2034 2216 
z
M 1403 2484 
Q 997 2584 770 2862 
Q 544 3141 544 3541 
Q 544 4100 942 4425 
Q 1341 4750 2034 4750 
Q 2731 4750 3128 4425 
Q 3525 4100 3525 3541 
Q 3525 3141 3298 2862 
Q 3072 2584 2669 2484 
Q 3125 2378 3379 2068 
Q 3634 1759 3634 1313 
Q 3634 634 3220 271 
Q 2806 -91 2034 -91 
Q 1263 -91 848 271 
Q 434 634 434 1313 
Q 434 1759 690 2068 
Q 947 2378 1403 2484 
z
M 1172 3481 
Q 1172 3119 1398 2916 
Q 1625 2713 2034 2713 
Q 2441 2713 2670 2916 
Q 2900 3119 2900 3481 
Q 2900 3844 2670 4047 
Q 2441 4250 2034 4250 
Q 1625 4250 1398 4047 
Q 1172 3844 1172 3481 
z
" transform="scale(0.015625)"/>
     </defs>
     <use xlink:href="#DejaVuSans-4d"/>
     <use xlink:href="#DejaVuSans-69" x="86.279297"/>
     <use xlink:href="#DejaVuSans-67" x="114.0625"/>
     <use xlink:href="#DejaVuSans-6c" x="177.539062"/>
     <use xlink:href="#DejaVuSans-69" x="205.322266"/>
     <use xlink:href="#DejaVuSans-6f" x="233.105469"/>
     <use xlink:href="#DejaVuSans-72" x="294.287109"/>
     <use xlink:href="#DejaVuSans-65" x="333.150391"/>
     <use xlink:href="#DejaVuSans-20" x="394.673828"/>
     <use xlink:href="#DejaVuSans-32" x="426.460938"/>
     <use xlink:href="#DejaVuSans-30" x="490.083984"/>
     <use xlink:href="#DejaVuSans-31" x="553.707031"/>
     <use xlink:href="#DejaVuSans-38" x="617.330078"/>
    </g>
   </g>
   <g id="patch_2">
    <path d="M 406.3 273 
L 424.5 273 
L 424.5 37.56 
L 406.3 37.56 
L 406.3 273 
z
" clip-path="url(#p9684b836b7)" style="fill: none; opacity: 0.5; stroke: #000000; stroke-linejoin: miter"/>
   </g>
   <g id="patch_3">
    <path d="M 561 214.14 
Q 492.75 243.57 424.5 273 
" style="fill: none; opacity: 0.5; stroke: #000000; stroke-linecap: round"/>
   </g>
   <g id="patch_4">
    <path d="M 561 72.876 
Q 492.75 55.218 424.5 37.56 
" style="fill: none; opacity: 0.5; stroke: #000000; stroke-linecap: round"/>
   </g>
   <g id="axes_2">
    <g id="patch_5">
     <path d="M 500.94 214.14 
L 561 214.14 
L 561 72.876 
L 500.94 72.876 
z
" style="fill: #ffffff"/>
    </g>
    <g id="matplotlib.axis_1">
     <g id="xtick_1"/>
     <g id="xtick_2"/>
     <g id="xtick_3"/>
    </g>
    <g id="matplotlib.axis_2">
     <g id="ytick_1"/>
     <g id="ytick_2"/>
     <g id="ytick_3"/>
     <g id="ytick_4"/>
     <g id="ytick_5"/>
     <g id="ytick_6"/>
    </g>
    <g id="line2d_2">
     <path d="M 500.902463 182.645372 
L 507.208763 181.035603 
L 509.6487 180.189739 
L 511.187738 179.43416 
L 512.238788 178.676537 
L 512.989538 177.858452 
L 513.5526 176.897995 
L 513.965513 175.754173 
L 514.30335 174.131355 
L 514.566113 171.68823 
L 514.7538 167.952671 
L 514.90395 160.529094 
L 515.016563 144.39123 
L 515.279325 96.912617 
L 515.3544 96.19705 
L 515.391938 96.462027 
L 515.542088 99.647263 
L 515.992538 116.227496 
L 517.719263 182.342256 
L 518.019563 186.031075 
L 518.319863 187.400231 
L 518.6577 188.029763 
L 519.183225 188.512995 
L 520.121663 189.055585 
L 521.0601 189.357631 
L 522.073613 189.444252 
L 523.1622 189.304601 
L 524.476013 188.885376 
L 533.034563 185.790542 
L 537.351375 184.483116 
L 542.6817 183.118108 
L 551.352863 180.919253 
L 553.64265 180.092196 
L 555.106613 179.339006 
L 556.082588 178.603511 
L 556.7958 177.798816 
L 557.321325 176.885514 
L 557.734238 175.733606 
L 558.072075 174.093737 
L 558.334838 171.610861 
L 558.522525 167.779663 
L 558.672675 160.051166 
L 558.785288 143.025512 
L 559.04805 96.782572 
L 559.123125 96.220275 
L 559.160663 96.531327 
L 559.34835 100.947413 
L 559.911413 122.614508 
L 561 166.283388 
L 561 166.283388 
" clip-path="url(#p1212084d66)" style="fill: none; stroke: #1f77b4; stroke-width: 1.5; stroke-linecap: square"/>
    </g>
    <g id="patch_6">
     <path d="M 500.94 214.14 
L 500.94 72.876 
" style="fill: none; stroke: #000000; stroke-width: 0.8; stroke-linejoin: miter; stroke-linecap: square"/>
    </g>
    <g id="patch_7">
     <path d="M 500.94 214.14 
L 561 214.14 
" style="fill: none; stroke: #000000; stroke-width: 0.8; stroke-linejoin: miter; stroke-linecap: square"/>
    </g>
   </g>
  </g>
 </g>
 <defs>
  <clipPath id="p9684b836b7">
   <rect x="15" y="37.56" width="546" height="235.44"/>
  </clipPath>
  <clipPath id="p1212084d66">
   <rect x="500.94" y="72.876" width="60.06" height="141.264"/>
  </clipPath>
 </defs>
</svg>
