<?xml version="1.0" encoding="utf-8" standalone="no"?>
<!DOCTYPE svg PUBLIC "-//W3C//DTD SVG 1.1//EN"
  "http://www.w3.org/Graphics/SVG/1.1/DTD/svg11.dtd">
<svg xmlns:xlink="http://www.w3.org/1999/xlink" width="576pt" height="288pt" viewBox="0 0 576 288" xmlns="http://www.w3.org/2000/svg" version="1.1">
 <metadata>
  <rdf:RDF xmlns:dc="http://purl.org/dc/elements/1.1/" xmlns:cc="http://creativecommons.org/ns#" xmlns:rdf="http://www.w3.org/1999/02/22-rdf-syntax-ns#">
   <cc:Work>
    <dc:type rdf:resource="http://purl.org/dc/dcmitype/StillImage"/>
    <dc:date>2024-09-24T19:00:47.189902</dc:date>
    <dc:format>image/svg+xml</dc:format>
    <dc:creator>
     <cc:Agent>
      <dc:title>Matplotlib v3.7.4, https://matplotlib.org/</dc:title>
     </cc:Agent>
    </dc:creator>
   </cc:Work>
  </rdf:RDF>
 </metadata>
 <defs>
  <style type="text/css">*{stroke-linejoin: round; stroke-linecap: butt}</style>
 </defs>
 <g id="figure_1">
  <g id="patch_1">
   <path d="M 0 288 
L 576 288 
L 576 0 
L 0 0 
z
" style="fill: #ffffff"/>
  </g>
  <g id="axes_1">
   <g id="line2d_1">
    <path d="M 15 233.76 
L 16.512875 232.691703 
L 18.185 231.786482 
L 20.084625 231.015804 
L 22.291375 230.366157 
L 24.907625 229.83417 
L 28.092625 229.421741 
L 32.08525 229.138555 
L 37.4315 228.996068 
L 45.860375 229.020387 
L 84.433 229.332191 
L 106.056875 229.271808 
L 108.195375 226.529167 
L 111.221125 222.659277 
L 112.30175 220.876626 
L 113.086625 219.15553 
L 113.6895 217.296346 
L 114.16725 215.074021 
L 114.53125 212.274473 
L 114.80425 208.297264 
L 114.98625 202.072755 
L 115.088625 190.982255 
L 115.156875 153.449199 
L 115.25925 100.615241 
L 115.30475 109.322221 
L 115.748375 228.827626 
L 115.9645 234.18828 
L 116.180625 235.203897 
L 116.339875 235.235828 
L 116.57875 234.95796 
L 117.522875 233.311974 
L 119.03575 230.911276 
L 120.685125 228.722248 
L 123.03975 226.007186 
L 125.576375 223.009377 
L 126.736625 221.28636 
L 127.578375 219.645005 
L 128.22675 217.895406 
L 128.738625 215.862872 
L 129.13675 213.344 
L 129.443875 209.852871 
L 129.66 204.497571 
L 129.785125 195.707622 
L 129.86475 169.117612 
L 129.9785 100.68217 
L 130.035375 111.363637 
L 130.444875 227.244571 
L 130.661 233.859441 
L 130.877125 235.159487 
L 131.04775 235.252774 
L 131.263875 235.033127 
L 131.95775 233.862159 
L 133.55025 231.302084 
L 135.1655 229.141224 
L 137.304 226.678849 
L 140.523125 222.979981 
L 141.683375 221.273238 
L 142.525125 219.644305 
L 143.1735 217.907277 
L 143.685375 215.891306 
L 144.0835 213.399998 
L 144.390625 209.969389 
L 144.60675 204.790956 
L 144.74325 195.199814 
L 144.8115 174.505138 
L 144.936625 100.690479 
L 144.9935 112.745793 
L 145.391625 226.759384 
L 145.60775 233.75869 
L 145.823875 235.144153 
L 145.9945 235.257535 
L 146.19925 235.062864 
L 146.824875 234.02338 
L 148.47425 231.365012 
L 150.0895 229.204669 
L 152.20525 226.772201 
L 155.538125 222.960515 
L 156.698375 221.253716 
L 157.540125 219.621735 
L 158.1885 217.878007 
L 158.700375 215.848964 
L 159.0985 213.331262 
L 159.39425 210.01793 
L 159.610375 204.909588 
L 159.746875 195.627497 
L 159.8265 168.673796 
L 159.94025 100.698617 
L 159.997125 111.583721 
L 160.406625 227.27327 
L 160.62275 233.863991 
L 160.838875 235.160771 
L 161.0095 235.25468 
L 161.225625 235.03681 
L 161.9195 233.872264 
L 163.523375 231.307505 
L 165.138625 229.158313 
L 167.277125 226.708771 
L 170.530375 222.992832 
L 171.690625 221.296258 
L 172.54375 219.654276 
L 173.192125 217.924907 
L 173.704 215.920898 
L 174.102125 213.451446 
L 174.40925 210.070461 
L 174.625375 205.035224 
L 174.761875 196.065061 
L 174.8415 171.241655 
L 174.95525 100.797565 
L 175.012125 110.385061 
L 175.433 227.744145 
L 175.649125 233.960708 
L 175.86525 235.175472 
L 176.035875 235.251124 
L 176.263375 235.009636 
L 177.04825 233.681655 
L 178.606625 231.21467 
L 180.23325 229.066301 
L 182.41725 226.577692 
L 185.522625 223.029812 
L 186.69425 221.324825 
L 187.547375 219.692991 
L 188.207125 217.943785 
L 188.719 215.949658 
L 189.117125 213.499123 
L 189.42425 210.161567 
L 189.640375 205.249565 
L 189.776875 196.781303 
L 189.8565 175.226131 
L 189.981625 100.687951 
L 190.0385 112.321192 
L 190.436625 226.683164 
L 190.65275 233.742713 
L 190.868875 235.141719 
L 191.0395 235.258416 
L 191.24425 235.065393 
L 191.8585 234.047603 
L 193.51925 231.371869 
L 195.1345 229.213334 
L 197.25025 226.783236 
L 200.5945 222.963989 
L 201.75475 221.259675 
L 202.5965 219.630818 
L 203.244875 217.891731 
L 203.75675 215.870541 
L 204.154875 213.36783 
L 204.462 209.909311 
L 204.678125 204.646926 
L 204.814625 194.669382 
L 204.882875 172.021866 
L 205.008 100.79701 
L 205.064875 114.166288 
L 205.44025 225.433264 
L 205.656375 233.486446 
L 205.8725 235.099385 
L 206.0545 235.26052 
L 206.25925 235.074096 
L 206.85075 234.098711 
L 208.53425 231.381418 
L 210.1495 229.221424 
L 212.26525 226.790443 
L 215.620875 222.95776 
L 216.76975 221.270794 
L 217.6115 219.645815 
L 218.259875 217.913063 
L 218.77175 215.903034 
L 219.169875 213.421919 
L 219.477 210.013861 
L 219.693125 204.900314 
L 219.829625 195.595364 
L 219.90925 168.483726 
L 220.023 100.696717 
L 220.079875 111.671488 
L 220.489375 227.287618 
L 220.7055 233.866871 
L 220.921625 235.161245 
L 221.09225 235.254686 
L 221.308375 235.036702 
L 222.00225 233.872409 
L 223.606125 231.308316 
L 225.221375 229.159633 
L 227.359875 226.710692 
L 230.6245 222.981377 
L 231.78475 221.281949 
L 232.6265 219.660837 
L 233.274875 217.934393 
L 233.78675 215.935442 
L 234.184875 213.475648 
L 234.492 210.116855 
L 234.708125 205.144901 
L 234.844625 196.436127 
L 234.92425 173.343187 
L 235.049375 100.73077 
L 235.10625 113.422623 
L 235.493 226.114207 
L 235.709125 233.625961 
L 235.92525 235.12274 
L 236.10725 235.257359 
L 236.312 235.061455 
L 236.937625 234.022666 
L 238.587 231.367648 
L 240.20225 229.209798 
L 242.318 226.780133 
L 245.66225 222.960326 
L 246.8225 221.254996 
L 247.66425 219.624518 
L 248.312625 217.88277 
L 248.8245 215.85688 
L 249.222625 213.345029 
L 249.52975 209.864981 
L 249.745875 204.537882 
L 249.871 195.851333 
L 249.950625 169.999282 
L 250.064375 100.737129 
L 250.12125 110.971399 
L 250.542125 227.839924 
L 250.75825 233.980379 
L 250.974375 235.178399 
L 251.145 235.250319 
L 251.3725 235.007274 
L 252.16875 233.659288 
L 253.727125 231.196143 
L 255.365125 229.03689 
L 257.571875 226.526785 
L 260.620375 223.043218 
L 261.792 221.342009 
L 262.645125 219.71617 
L 263.304875 217.976815 
L 263.828125 215.944971 
L 264.22625 213.491404 
L 264.533375 210.146899 
L 264.7495 205.215342 
L 264.886 196.669375 
L 264.965625 174.623589 
L 265.09075 100.694276 
L 265.147625 112.679264 
L 265.54575 226.745839 
L 265.761875 233.755579 
L 265.978 235.143777 
L 266.148625 235.25808 
L 266.353375 235.064108 
L 266.979 234.026099 
L 268.628375 231.370519 
L 270.243625 229.212224 
L 272.359375 226.782286 
L 275.703625 222.962907 
L 276.863875 221.258304 
L 277.705625 219.628981 
L 278.354 217.889124 
L 278.865875 215.866573 
L 279.264 213.361215 
L 279.571125 209.89647 
L 279.78725 204.615444 
L 279.912375 196.101072 
L 279.992 171.449151 
L 280.10575 100.810698 
L 280.162625 110.286203 
L 280.5835 227.727544 
L 280.799625 233.957282 
L 281.01575 235.174968 
L 281.186375 235.251289 
L 281.413875 235.010101 
L 282.19875 233.682286 
L 283.757125 231.215345 
L 285.38375 229.067012 
L 287.56775 226.578494 
L 290.673125 223.031 
L 291.84475 221.326416 
L 292.697875 219.695187 
L 293.357625 217.946953 
L 293.8695 215.95449 
L 294.279 213.415659 
L 294.586125 210.001808 
L 294.80225 204.87137 
L 294.93875 195.492539 
L 295.018375 167.867508 
L 295.132125 100.689699 
L 295.189 111.951786 
L 295.587125 226.61722 
L 295.80325 233.729171 
L 296.019375 235.139548 
L 296.19 235.258769 
L 296.39475 235.066753 
L 297.009 234.049384 
L 298.66975 231.373392 
L 300.285 229.214651 
L 302.40075 226.784441 
L 305.756375 222.950574 
L 306.90525 221.261611 
L 307.747 219.633441 
L 308.395375 217.895471 
L 308.90725 215.876249 
L 309.305375 213.377352 
L 309.6125 209.927786 
L 309.828625 204.692089 
L 309.965125 194.838811 
L 310.033375 172.827564 
L 310.1585 100.753441 
L 310.215375 113.71556 
L 310.602125 226.167196 
L 310.81825 233.636828 
L 311.034375 235.12453 
L 311.216375 235.257071 
L 311.4325 235.044883 
L 312.103625 233.922232 
L 313.718875 231.333412 
L 315.334125 229.180861 
L 317.46125 226.741996 
L 320.76 222.974225 
L 321.92025 221.272798 
L 322.762 219.648517 
L 323.410375 217.916904 
L 323.92225 215.908876 
L 324.320375 213.431622 
L 324.6275 210.032525 
L 324.843625 204.945001 
L 324.980125 195.752698 
L 325.05975 169.418584 
L 325.1735 100.71755 
L 325.230375 111.241512 
L 325.639875 227.21448 
L 325.856 233.851842 
L 326.072125 235.158921 
L 326.24275 235.255193 
L 326.458875 235.03837 
L 327.15275 233.874493 
L 328.756625 231.310058 
L 330.371875 229.161108 
L 332.510375 226.712006 
L 335.775 222.982953 
L 336.93525 221.283965 
L 337.777 219.66355 
L 338.43675 217.901809 
L 338.948625 215.885906 
L 339.34675 213.393438 
L 339.653875 209.958922 
L 339.87 204.767823 
L 340.0065 195.118562 
L 340.07475 174.135873 
L 340.199875 100.704646 
L 340.25675 112.965163 
L 340.6435 226.029946 
L 340.859625 233.608683 
L 341.07575 235.119886 
L 341.25775 235.257805 
L 341.4625 235.063082 
L 342.088125 234.02477 
L 343.7375 231.369407 
L 345.35275 229.211285 
L 347.4685 226.781453 
L 350.81275 222.961908 
L 351.973 221.257024 
L 352.81475 219.627255 
L 353.463125 217.886667 
L 353.975 215.862825 
L 354.373125 213.35496 
L 354.68025 209.88431 
L 354.896375 204.585551 
L 355.0215 196.005315 
L 355.101125 170.896843 
L 355.214875 100.778288 
L 355.27175 110.549089 
L 355.692625 227.771214 
L 355.90875 233.966257 
L 356.124875 235.176305 
L 356.2955 235.250917 
L 356.523 235.009008 
L 357.307875 233.680972 
L 358.86625 231.214247 
L 360.492875 229.066083 
L 362.676875 226.577664 
L 365.78225 223.03001 
L 366.953875 221.325151 
L 367.807 219.693483 
L 368.46675 217.944525 
L 368.978625 215.95081 
L 369.37675 213.501051 
L 369.683875 210.165259 
L 369.9 205.258191 
L 370.0365 196.809412 
L 370.116125 175.376298 
L 370.24125 100.687649 
L 370.298125 112.231146 
L 370.69625 226.667192 
L 370.912375 233.73943 
L 371.1285 235.141195 
L 371.299125 235.258506 
L 371.503875 235.065731 
L 372.118125 234.048055 
L 373.778875 231.372281 
L 375.394125 229.213712 
L 377.509875 226.783608 
L 380.854125 222.96449 
L 382.014375 221.260332 
L 382.856125 219.631716 
L 383.5045 217.893017 
L 384.016375 215.872509 
L 384.4145 213.371117 
L 384.721625 209.915695 
L 384.93775 204.662556 
L 385.07425 194.728244 
L 385.1425 172.302872 
L 385.267625 100.780743 
L 385.3245 114.010039 
L 385.699875 225.403201 
L 385.916 233.480292 
L 386.132125 235.09834 
L 386.314125 235.260639 
L 386.518875 235.074631 
L 387.110375 234.099418 
L 388.793875 231.382017 
L 390.409125 229.221937 
L 392.5135 226.803349 
L 395.891875 222.943399 
L 397.04075 221.252434 
L 397.8825 219.621061 
L 398.530875 217.877847 
L 399.04275 215.849364 
L 399.440875 213.332467 
L 399.736625 210.020666 
L 399.95275 204.916626 
L 400.08925 195.652995 
L 400.168875 168.827336 
L 400.282625 100.702904 
L 400.3395 111.51413 
L 400.749 227.261055 
L 400.965125 233.861412 
L 401.18125 235.160402 
L 401.351875 235.254873 
L 401.568 235.03731 
L 402.261875 233.873169 
L 403.86575 231.308952 
L 405.481 229.160173 
L 407.6195 226.711174 
L 410.884125 222.981957 
L 412.044375 221.28269 
L 412.886125 219.661835 
L 413.545875 217.899359 
L 414.05775 215.882174 
L 414.455875 213.387223 
L 414.763 209.946901 
L 414.979125 204.73864 
L 415.115625 195.011399 
L 415.183875 173.638063 
L 415.309 100.719772 
L 415.365875 113.253473 
L 415.752625 226.083269 
L 415.96875 233.619616 
L 416.184875 235.121693 
L 416.366875 235.257525 
L 416.571625 235.062054 
L 417.19725 234.023441 
L 418.846625 231.368296 
L 420.461875 229.210346 
L 422.577625 226.78062 
L 425.921875 222.96091 
L 427.082125 221.255744 
L 427.923875 219.625528 
L 428.57225 217.884209 
L 429.084125 215.859075 
L 429.48225 213.348697 
L 429.789375 209.872123 
L 430.0055 204.555518 
L 430.130625 195.908486 
L 430.21025 170.333739 
L 430.324 100.750868 
L 430.380875 110.814729 
L 430.80175 227.814635 
L 431.017875 233.975182 
L 431.234 235.17763 
L 431.404625 235.250541 
L 431.632125 235.007914 
L 432.428375 233.660056 
L 433.98675 231.196784 
L 435.62475 229.037433 
L 437.8315 226.527271 
L 440.88 223.043797 
L 442.051625 221.342747 
L 442.90475 219.717163 
L 443.5645 217.978227 
L 444.08775 215.947128 
L 444.485875 213.494969 
L 444.793 210.153686 
L 445.009125 205.2312 
L 445.145625 196.721361 
L 445.22525 174.904448 
L 445.350375 100.690423 
L 445.40725 112.513047 
L 445.805375 226.716879 
L 446.0215 233.749632 
L 446.237625 235.142827 
L 446.40825 235.258239 
L 446.613 235.064708 
L 447.22725 234.046725 
L 448.888 231.371169 
L 450.50325 229.212773 
L 452.619 226.782774 
L 455.96325 222.963492 
L 457.1235 221.259053 
L 457.96525 219.629991 
L 458.613625 217.890562 
L 459.1255 215.868766 
L 459.523625 213.364874 
L 459.83075 209.903578 
L 460.046875 204.632884 
L 460.183375 194.616313 
L 460.251625 171.767578 
L 460.37675 100.812708 
L 460.42225 110.133559 
L 460.8545 228.330797 
L 461.070625 234.081253 
L 461.28675 235.192991 
L 461.457375 235.24555 
L 461.69625 234.977653 
L 462.617625 233.410364 
L 464.15325 231.02097 
L 465.814 228.860875 
L 468.123125 226.257274 
L 470.147875 224.206969 
L 471.876875 224.721756 
L 481.53425 227.83525 
L 484.776125 228.522264 
L 488.22275 229.021592 
L 492.204 229.366084 
L 497.23175 229.565591 
L 504.636875 229.615103 
L 531.88 229.40911 
L 561 229.354196 
L 561 229.354196 
" clip-path="url(#p15968e45d6)" style="fill: none; stroke: #1f77b4; stroke-width: 1.5; stroke-linecap: square"/>
   </g>
   <g id="text_1">
    <!-- 0.04 nA -->
    <g transform="translate(37.75 53.256) scale(0.2 -0.2)">
     <defs>
      <path id="DejaVuSans-30" d="M 2034 4250 
Q 1547 4250 1301 3770 
Q 1056 3291 1056 2328 
Q 1056 1369 1301 889 
Q 1547 409 2034 409 
Q 2525 409 2770 889 
Q 3016 1369 3016 2328 
Q 3016 3291 2770 3770 
Q 2525 4250 2034 4250 
z
M 2034 4750 
Q 2819 4750 3233 4129 
Q 3647 3509 3647 2328 
Q 3647 1150 3233 529 
Q 2819 -91 2034 -91 
Q 1250 -91 836 529 
Q 422 1150 422 2328 
Q 422 3509 836 4129 
Q 1250 4750 2034 4750 
z
" transform="scale(0.015625)"/>
      <path id="DejaVuSans-2e" d="M 684 794 
L 1344 794 
L 1344 0 
L 684 0 
L 684 794 
z
" transform="scale(0.015625)"/>
      <path id="DejaVuSans-34" d="M 2419 4116 
L 825 1625 
L 2419 1625 
L 2419 4116 
z
M 2253 4666 
L 3047 4666 
L 3047 1625 
L 3713 1625 
L 3713 1100 
L 3047 1100 
L 3047 0 
L 2419 0 
L 2419 1100 
L 313 1100 
L 313 1709 
L 2253 4666 
z
" transform="scale(0.015625)"/>
      <path id="DejaVuSans-20" transform="scale(0.015625)"/>
      <path id="DejaVuSans-6e" d="M 3513 2113 
L 3513 0 
L 2938 0 
L 2938 2094 
Q 2938 2591 2744 2837 
Q 2550 3084 2163 3084 
Q 1697 3084 1428 2787 
Q 1159 2491 1159 1978 
L 1159 0 
L 581 0 
L 581 3500 
L 1159 3500 
L 1159 2956 
Q 1366 3272 1645 3428 
Q 1925 3584 2291 3584 
Q 2894 3584 3203 3211 
Q 3513 2838 3513 2113 
z
" transform="scale(0.015625)"/>
      <path id="DejaVuSans-41" d="M 2188 4044 
L 1331 1722 
L 3047 1722 
L 2188 4044 
z
M 1831 4666 
L 2547 4666 
L 4325 0 
L 3669 0 
L 3244 1197 
L 1141 1197 
L 716 0 
L 50 0 
L 1831 4666 
z
" transform="scale(0.015625)"/>
     </defs>
     <use xlink:href="#DejaVuSans-30"/>
     <use xlink:href="#DejaVuSans-2e" x="63.623047"/>
     <use xlink:href="#DejaVuSans-30" x="95.410156"/>
     <use xlink:href="#DejaVuSans-34" x="159.033203"/>
     <use xlink:href="#DejaVuSans-20" x="222.65625"/>
     <use xlink:href="#DejaVuSans-6e" x="254.443359"/>
     <use xlink:href="#DejaVuSans-41" x="317.822266"/>
    </g>
   </g>
   <g id="text_2">
    <!-- Neymotin 2013 -->
    <g transform="translate(203.215781 31.56) scale(0.22 -0.22)">
     <defs>
      <path id="DejaVuSans-4e" d="M 628 4666 
L 1478 4666 
L 3547 763 
L 3547 4666 
L 4159 4666 
L 4159 0 
L 3309 0 
L 1241 3903 
L 1241 0 
L 628 0 
L 628 4666 
z
" transform="scale(0.015625)"/>
      <path id="DejaVuSans-65" d="M 3597 1894 
L 3597 1613 
L 953 1613 
Q 991 1019 1311 708 
Q 1631 397 2203 397 
Q 2534 397 2845 478 
Q 3156 559 3463 722 
L 3463 178 
Q 3153 47 2828 -22 
Q 2503 -91 2169 -91 
Q 1331 -91 842 396 
Q 353 884 353 1716 
Q 353 2575 817 3079 
Q 1281 3584 2069 3584 
Q 2775 3584 3186 3129 
Q 3597 2675 3597 1894 
z
M 3022 2063 
Q 3016 2534 2758 2815 
Q 2500 3097 2075 3097 
Q 1594 3097 1305 2825 
Q 1016 2553 972 2059 
L 3022 2063 
z
" transform="scale(0.015625)"/>
      <path id="DejaVuSans-79" d="M 2059 -325 
Q 1816 -950 1584 -1140 
Q 1353 -1331 966 -1331 
L 506 -1331 
L 506 -850 
L 844 -850 
Q 1081 -850 1212 -737 
Q 1344 -625 1503 -206 
L 1606 56 
L 191 3500 
L 800 3500 
L 1894 763 
L 2988 3500 
L 3597 3500 
L 2059 -325 
z
" transform="scale(0.015625)"/>
      <path id="DejaVuSans-6d" d="M 3328 2828 
Q 3544 3216 3844 3400 
Q 4144 3584 4550 3584 
Q 5097 3584 5394 3201 
Q 5691 2819 5691 2113 
L 5691 0 
L 5113 0 
L 5113 2094 
Q 5113 2597 4934 2840 
Q 4756 3084 4391 3084 
Q 3944 3084 3684 2787 
Q 3425 2491 3425 1978 
L 3425 0 
L 2847 0 
L 2847 2094 
Q 2847 2600 2669 2842 
Q 2491 3084 2119 3084 
Q 1678 3084 1418 2786 
Q 1159 2488 1159 1978 
L 1159 0 
L 581 0 
L 581 3500 
L 1159 3500 
L 1159 2956 
Q 1356 3278 1631 3431 
Q 1906 3584 2284 3584 
Q 2666 3584 2933 3390 
Q 3200 3197 3328 2828 
z
" transform="scale(0.015625)"/>
      <path id="DejaVuSans-6f" d="M 1959 3097 
Q 1497 3097 1228 2736 
Q 959 2375 959 1747 
Q 959 1119 1226 758 
Q 1494 397 1959 397 
Q 2419 397 2687 759 
Q 2956 1122 2956 1747 
Q 2956 2369 2687 2733 
Q 2419 3097 1959 3097 
z
M 1959 3584 
Q 2709 3584 3137 3096 
Q 3566 2609 3566 1747 
Q 3566 888 3137 398 
Q 2709 -91 1959 -91 
Q 1206 -91 779 398 
Q 353 888 353 1747 
Q 353 2609 779 3096 
Q 1206 3584 1959 3584 
z
" transform="scale(0.015625)"/>
      <path id="DejaVuSans-74" d="M 1172 4494 
L 1172 3500 
L 2356 3500 
L 2356 3053 
L 1172 3053 
L 1172 1153 
Q 1172 725 1289 603 
Q 1406 481 1766 481 
L 2356 481 
L 2356 0 
L 1766 0 
Q 1100 0 847 248 
Q 594 497 594 1153 
L 594 3053 
L 172 3053 
L 172 3500 
L 594 3500 
L 594 4494 
L 1172 4494 
z
" transform="scale(0.015625)"/>
      <path id="DejaVuSans-69" d="M 603 3500 
L 1178 3500 
L 1178 0 
L 603 0 
L 603 3500 
z
M 603 4863 
L 1178 4863 
L 1178 4134 
L 603 4134 
L 603 4863 
z
" transform="scale(0.015625)"/>
      <path id="DejaVuSans-32" d="M 1228 531 
L 3431 531 
L 3431 0 
L 469 0 
L 469 531 
Q 828 903 1448 1529 
Q 2069 2156 2228 2338 
Q 2531 2678 2651 2914 
Q 2772 3150 2772 3378 
Q 2772 3750 2511 3984 
Q 2250 4219 1831 4219 
Q 1534 4219 1204 4116 
Q 875 4013 500 3803 
L 500 4441 
Q 881 4594 1212 4672 
Q 1544 4750 1819 4750 
Q 2544 4750 2975 4387 
Q 3406 4025 3406 3419 
Q 3406 3131 3298 2873 
Q 3191 2616 2906 2266 
Q 2828 2175 2409 1742 
Q 1991 1309 1228 531 
z
" transform="scale(0.015625)"/>
      <path id="DejaVuSans-31" d="M 794 531 
L 1825 531 
L 1825 4091 
L 703 3866 
L 703 4441 
L 1819 4666 
L 2450 4666 
L 2450 531 
L 3481 531 
L 3481 0 
L 794 0 
L 794 531 
z
" transform="scale(0.015625)"/>
      <path id="DejaVuSans-33" d="M 2597 2516 
Q 3050 2419 3304 2112 
Q 3559 1806 3559 1356 
Q 3559 666 3084 287 
Q 2609 -91 1734 -91 
Q 1441 -91 1130 -33 
Q 819 25 488 141 
L 488 750 
Q 750 597 1062 519 
Q 1375 441 1716 441 
Q 2309 441 2620 675 
Q 2931 909 2931 1356 
Q 2931 1769 2642 2001 
Q 2353 2234 1838 2234 
L 1294 2234 
L 1294 2753 
L 1863 2753 
Q 2328 2753 2575 2939 
Q 2822 3125 2822 3475 
Q 2822 3834 2567 4026 
Q 2313 4219 1838 4219 
Q 1578 4219 1281 4162 
Q 984 4106 628 3988 
L 628 4550 
Q 988 4650 1302 4700 
Q 1616 4750 1894 4750 
Q 2613 4750 3031 4423 
Q 3450 4097 3450 3541 
Q 3450 3153 3228 2886 
Q 3006 2619 2597 2516 
z
" transform="scale(0.015625)"/>
     </defs>
     <use xlink:href="#DejaVuSans-4e"/>
     <use xlink:href="#DejaVuSans-65" x="74.804688"/>
     <use xlink:href="#DejaVuSans-79" x="136.328125"/>
     <use xlink:href="#DejaVuSans-6d" x="195.507812"/>
     <use xlink:href="#DejaVuSans-6f" x="292.919922"/>
     <use xlink:href="#DejaVuSans-74" x="354.101562"/>
     <use xlink:href="#DejaVuSans-69" x="393.310547"/>
     <use xlink:href="#DejaVuSans-6e" x="421.09375"/>
     <use xlink:href="#DejaVuSans-20" x="484.472656"/>
     <use xlink:href="#DejaVuSans-32" x="516.259766"/>
     <use xlink:href="#DejaVuSans-30" x="579.882812"/>
     <use xlink:href="#DejaVuSans-31" x="643.505859"/>
     <use xlink:href="#DejaVuSans-33" x="707.128906"/>
    </g>
   </g>
   <g id="patch_2">
    <path d="M 406.3 273 
L 424.5 273 
L 424.5 37.56 
L 406.3 37.56 
L 406.3 273 
z
" clip-path="url(#p15968e45d6)" style="fill: none; opacity: 0.5; stroke: #000000; stroke-linejoin: miter"/>
   </g>
   <g id="patch_3">
    <path d="M 561 214.14 
Q 492.75 243.57 424.5 273 
" style="fill: none; opacity: 0.5; stroke: #000000; stroke-linecap: round"/>
   </g>
   <g id="patch_4">
    <path d="M 561 72.876 
Q 492.75 55.218 424.5 37.56 
" style="fill: none; opacity: 0.5; stroke: #000000; stroke-linecap: round"/>
   </g>
   <g id="axes_2">
    <g id="patch_5">
     <path d="M 500.94 214.14 
L 561 214.14 
L 561 72.876 
L 500.94 72.876 
z
" style="fill: #ffffff"/>
    </g>
    <g id="matplotlib.axis_1">
     <g id="xtick_1"/>
     <g id="xtick_2"/>
     <g id="xtick_3"/>
    </g>
    <g id="matplotlib.axis_2">
     <g id="ytick_1"/>
     <g id="ytick_2"/>
     <g id="ytick_3"/>
     <g id="ytick_4"/>
     <g id="ytick_5"/>
     <g id="ytick_6"/>
    </g>
    <g id="line2d_2">
     <path d="M 500.902463 187.259663 
L 519.333375 183.276886 
L 522.148688 182.344973 
L 524.175713 181.450091 
L 525.677213 180.550958 
L 526.803338 179.625153 
L 527.6667 178.638634 
L 528.342375 177.544931 
L 528.905438 176.198536 
L 529.355888 174.494377 
L 529.693725 172.304526 
L 529.956488 168.988543 
L 530.144175 163.349088 
L 530.294325 149.303673 
L 530.594625 111.795154 
L 530.6697 110.771863 
L 530.707238 111.236056 
L 530.857388 118.292084 
L 531.795825 179.492964 
L 532.133663 185.989961 
L 532.509038 189.20539 
L 532.884413 190.605447 
L 533.259788 191.20761 
L 533.6727 191.453229 
L 534.198225 191.491675 
L 535.136663 191.298303 
L 538.965488 190.114544 
L 543.695213 188.811164 
L 549.2883 187.511839 
L 558.14715 185.71764 
L 561 185.14372 
L 561 185.14372 
" clip-path="url(#p59aabdc884)" style="fill: none; stroke: #1f77b4; stroke-width: 1.5; stroke-linecap: square"/>
    </g>
    <g id="patch_6">
     <path d="M 500.94 214.14 
L 500.94 72.876 
" style="fill: none; stroke: #000000; stroke-width: 0.8; stroke-linejoin: miter; stroke-linecap: square"/>
    </g>
    <g id="patch_7">
     <path d="M 500.94 214.14 
L 561 214.14 
" style="fill: none; stroke: #000000; stroke-width: 0.8; stroke-linejoin: miter; stroke-linecap: square"/>
    </g>
   </g>
  </g>
 </g>
 <defs>
  <clipPath id="p15968e45d6">
   <rect x="15" y="37.56" width="546" height="235.44"/>
  </clipPath>
  <clipPath id="p59aabdc884">
   <rect x="500.94" y="72.876" width="60.06" height="141.264"/>
  </clipPath>
 </defs>
</svg>
