<?xml version="1.0" encoding="utf-8" standalone="no"?>
<!DOCTYPE svg PUBLIC "-//W3C//DTD SVG 1.1//EN"
  "http://www.w3.org/Graphics/SVG/1.1/DTD/svg11.dtd">
<svg xmlns:xlink="http://www.w3.org/1999/xlink" width="576pt" height="288pt" viewBox="0 0 576 288" xmlns="http://www.w3.org/2000/svg" version="1.1">
 <metadata>
  <rdf:RDF xmlns:dc="http://purl.org/dc/elements/1.1/" xmlns:cc="http://creativecommons.org/ns#" xmlns:rdf="http://www.w3.org/1999/02/22-rdf-syntax-ns#">
   <cc:Work>
    <dc:type rdf:resource="http://purl.org/dc/dcmitype/StillImage"/>
    <dc:date>2024-09-24T18:25:15.229952</dc:date>
    <dc:format>image/svg+xml</dc:format>
    <dc:creator>
     <cc:Agent>
      <dc:title>Matplotlib v3.7.4, https://matplotlib.org/</dc:title>
     </cc:Agent>
    </dc:creator>
   </cc:Work>
  </rdf:RDF>
 </metadata>
 <defs>
  <style type="text/css">*{stroke-linejoin: round; stroke-linecap: butt}</style>
 </defs>
 <g id="figure_1">
  <g id="patch_1">
   <path d="M 0 288 
L 576 288 
L 576 0 
L 0 0 
z
" style="fill: #ffffff"/>
  </g>
  <g id="axes_1">
   <g id="line2d_1">
    <path d="M 15 233.76 
L 106 233.737045 
L 106.147875 226.387335 
L 106.466375 222.53115 
L 107.057875 218.287067 
L 107.945125 213.50629 
L 108.923375 209.410155 
L 109.9585 206.009436 
L 111.061875 203.137792 
L 112.279 200.589577 
L 113.75775 198.026995 
L 116.53325 193.344014 
L 117.102 191.820681 
L 117.454625 190.22773 
L 117.682125 188.149938 
L 117.83 184.713386 
L 117.932375 175.738876 
L 117.98925 148.474331 
L 118.068875 78.715944 
L 118.137125 98.598281 
L 118.432875 224.473578 
L 118.501125 222.921478 
L 119.104 203.455487 
L 119.44525 200.003613 
L 119.85475 198.016722 
L 120.4235 196.392916 
L 121.390375 194.388315 
L 122.505125 191.988401 
L 122.960125 190.455905 
L 123.2445 188.71138 
L 123.437875 185.995656 
L 123.563 180.434449 
L 123.642625 162.820021 
L 123.745 82.387129 
L 123.824625 109.312583 
L 124.109 223.274774 
L 124.1545 222.360001 
L 124.8825 201.59625 
L 125.2465 198.804968 
L 125.7015 197.004063 
L 126.372625 195.296343 
L 128.204 190.986436 
L 128.54525 189.352696 
L 128.77275 187.066951 
L 128.920625 182.893015 
L 129.011625 172.521258 
L 129.079875 122.740271 
L 129.13675 82.898451 
L 129.205 102.371194 
L 129.50075 223.096496 
L 129.557625 221.933811 
L 130.22875 202.102064 
L 130.581375 199.068456 
L 131.013625 197.197427 
L 131.63925 195.512724 
L 133.675375 190.560221 
L 133.9825 188.8102 
L 134.175875 186.394815 
L 134.301 182.063036 
L 134.380625 171.744397 
L 134.448875 118.883055 
L 134.50575 82.974607 
L 134.562625 98.638992 
L 134.86975 223.073133 
L 134.938 221.401095 
L 135.518125 203.170209 
L 135.859375 199.640126 
L 136.268875 197.605834 
L 136.837625 195.942487 
L 137.861375 193.747129 
L 138.771375 191.625909 
L 139.19225 190.063043 
L 139.453875 188.233982 
L 139.635875 185.163044 
L 139.749625 178.651293 
L 139.817875 159.746475 
L 139.908875 83.016579 
L 139.9885 106.855487 
L 140.272875 223.097499 
L 140.32975 222.006304 
L 141.01225 202.024409 
L 141.364875 199.071416 
L 141.797125 197.243612 
L 142.42275 195.597078 
L 144.56125 190.537855 
L 144.868375 188.782663 
L 145.06175 186.324761 
L 145.186875 181.808809 
L 145.2665 170.5323 
L 145.33475 113.063125 
L 145.391625 83.05788 
L 145.4485 100.487077 
L 145.74425 223.128308 
L 145.8125 221.720484 
L 146.42675 202.838518 
L 146.768 199.54615 
L 147.1775 197.616337 
L 147.74625 196.014969 
L 148.758625 193.920682 
L 149.736875 191.756929 
L 150.1805 190.204312 
L 150.4535 188.415981 
L 150.6355 185.638398 
L 150.74925 180.34576 
L 150.828875 162.713251 
L 150.93125 82.785634 
L 151.010875 109.765296 
L 151.29525 223.176638 
L 151.34075 222.253954 
L 152.06875 201.634508 
L 152.43275 198.887104 
L 152.88775 197.130518 
L 153.5475 195.511483 
L 155.629125 190.868702 
L 155.959 189.262155 
L 156.175125 187.052655 
L 156.323 182.809292 
L 156.414 171.961517 
L 156.48225 119.366815 
L 156.539125 82.655789 
L 156.596 98.122868 
L 156.903125 223.220468 
L 156.971375 221.563983 
L 157.5515 203.315693 
L 157.89275 199.8153 
L 158.30225 197.818908 
L 158.859625 196.236175 
L 159.792375 194.333412 
L 160.975375 191.863281 
L 161.430375 190.35601 
L 161.71475 188.622571 
L 161.908125 185.889461 
L 162.03325 180.189321 
L 162.112875 161.561522 
L 162.21525 82.733915 
L 162.294875 110.694663 
L 162.57925 223.240781 
L 162.62475 222.25878 
L 163.33 201.934863 
L 163.682625 199.139194 
L 164.12625 197.362534 
L 164.751875 195.80374 
L 166.094125 193.219348 
L 166.822125 191.541123 
L 167.231625 190.028866 
L 167.49325 188.168093 
L 167.663875 185.249701 
L 167.777625 178.8142 
L 167.845875 160.188518 
L 167.936875 82.630027 
L 168.0165 106.181935 
L 168.300875 223.28226 
L 168.35775 222.213517 
L 169.04025 202.205553 
L 169.392875 199.28698 
L 169.825125 197.5041 
L 170.439375 195.950212 
L 171.58825 193.758513 
L 172.49825 191.836388 
L 172.941875 190.380867 
L 173.22625 188.676757 
L 173.419625 186.017751 
L 173.54475 180.620793 
L 173.624375 164.026718 
L 173.72675 82.435902 
L 173.81775 113.973922 
L 174.09075 223.319064 
L 174.13625 222.467252 
L 174.875625 201.663462 
L 175.239625 198.994574 
L 175.694625 197.291564 
L 176.354375 195.731802 
L 178.674875 190.797163 
L 178.993375 189.224074 
L 179.2095 186.946947 
L 179.346 182.996318 
L 179.437 172.678996 
L 179.50525 122.600545 
L 179.562125 82.394136 
L 179.630375 101.861598 
L 179.926125 223.346179 
L 179.983 222.185156 
L 180.64275 202.508183 
L 180.995375 199.463938 
L 181.41625 197.679708 
L 182.00775 196.161917 
L 183.0315 194.224698 
L 184.157625 191.989996 
L 184.624 190.556312 
L 184.91975 188.93376 
L 185.1245 186.430306 
L 185.249625 182.00656 
L 185.32925 171.082276 
L 185.3975 114.523746 
L 185.454375 82.460153 
L 185.51125 99.364275 
L 185.818375 223.358845 
L 185.87525 222.000622 
L 186.500875 202.902449 
L 186.842125 199.727939 
L 187.251625 197.879713 
L 187.820375 196.363927 
L 188.753125 194.57508 
L 190.084 192.001239 
L 190.56175 190.537277 
L 190.8575 188.899122 
L 191.050875 186.562311 
L 191.187375 181.685368 
L 191.267 169.550826 
L 191.346625 96.022431 
L 191.38075 82.296557 
L 191.449 101.602256 
L 191.74475 223.394774 
L 191.801625 222.245909 
L 192.461375 202.556351 
L 192.814 199.519065 
L 193.234875 197.745792 
L 193.826375 196.244366 
L 194.827375 194.381044 
L 196.033125 192.06425 
L 196.510875 190.64831 
L 196.818 189.030712 
L 197.02275 186.665976 
L 197.15925 182.036369 
L 197.238875 171.150222 
L 197.307125 114.644678 
L 197.364 82.354714 
L 197.420875 99.205922 
L 197.728 223.405761 
L 197.784875 222.051447 
L 198.4105 202.944752 
L 198.75175 199.777485 
L 199.16125 197.939661 
L 199.718625 196.463621 
L 200.628625 194.736719 
L 202.07325 192.010045 
L 202.551 190.567161 
L 202.84675 188.962034 
L 203.0515 186.49088 
L 203.176625 182.161542 
L 203.25625 171.67714 
L 203.3245 117.046385 
L 203.381375 82.224024 
L 203.43825 98.345308 
L 203.745375 223.434358 
L 203.813625 221.72143 
L 204.39375 203.479489 
L 204.735 200.030158 
L 205.133125 198.128374 
L 205.66775 196.65293 
L 206.520875 195.002326 
L 208.181625 191.88693 
L 208.636625 190.461937 
L 208.932375 188.755078 
L 209.12575 186.191974 
L 209.250875 181.147156 
L 209.3305 166.695375 
L 209.432875 82.361877 
L 209.53525 116.560963 
L 209.796875 223.442762 
L 209.842375 222.778803 
L 210.65 201.175971 
L 211.014 198.85768 
L 211.480375 197.283632 
L 212.162875 195.793581 
L 214.597125 190.974527 
L 214.938375 189.428073 
L 215.165875 187.241941 
L 215.31375 183.290019 
L 215.40475 173.864902 
L 215.473 128.876096 
L 215.54125 82.278341 
L 215.598125 99.409129 
L 215.90525 223.460727 
L 215.962125 222.084185 
L 216.576375 203.144194 
L 216.917625 199.906232 
L 217.327125 198.051439 
L 217.8845 196.582024 
L 218.77175 194.922465 
L 220.36425 192.001623 
L 220.842 190.572848 
L 221.13775 188.979273 
L 221.3425 186.525773 
L 221.467625 182.241324 
L 221.54725 171.951207 
L 221.6155 118.175386 
L 221.672375 82.08243 
L 221.72925 97.839135 
L 222.036375 223.491981 
L 222.104625 221.809614 
L 222.68475 203.540645 
L 223.026 200.093637 
L 223.424125 198.201901 
L 223.95875 196.742507 
L 224.8005 195.139722 
L 226.586375 191.871665 
L 227.041375 190.453552 
L 227.32575 188.837392 
L 227.519125 186.391782 
L 227.64425 181.797783 
L 227.723875 169.908252 
L 227.792125 109.041688 
L 227.837625 82.08407 
L 227.905875 100.95791 
L 228.201625 223.506582 
L 228.269875 221.988944 
L 228.87275 203.284845 
L 229.214 199.991383 
L 229.612125 198.159695 
L 230.158125 196.70297 
L 231.022625 195.085218 
L 232.751625 191.96091 
L 233.218 190.56139 
L 233.51375 188.960535 
L 233.7185 186.472888 
L 233.843625 182.054421 
L 233.92325 171.078401 
L 233.9915 113.881189 
L 234.048375 82.160781 
L 234.10525 99.197585 
L 234.412375 223.511249 
L 234.46925 222.141782 
L 235.094875 203.033231 
L 235.436125 199.889224 
L 235.845625 198.078616 
L 236.403 196.638012 
L 237.29025 195.010573 
L 238.951 192.042519 
L 239.42875 190.656529 
L 239.735875 189.062264 
L 239.940625 186.72664 
L 240.077125 182.170266 
L 240.15675 171.577335 
L 240.225 116.148136 
L 240.281875 82.036481 
L 240.33875 98.39642 
L 240.645875 223.533814 
L 240.714125 221.799567 
L 241.282875 203.731756 
L 241.624125 200.208089 
L 242.02225 198.295628 
L 242.556875 196.838177 
L 243.38725 195.272821 
L 245.29825 191.845738 
L 245.741875 190.471106 
L 246.037625 188.783324 
L 246.231 186.246795 
L 246.356125 181.275247 
L 246.43575 167.201149 
L 246.5495 82.104167 
L 246.6405 115.804584 
L 246.9135 223.53945 
L 246.959 222.559166 
L 247.652875 202.338307 
L 248.0055 199.528579 
L 248.426375 197.867528 
L 249.017875 196.450451 
L 249.996125 194.739045 
L 251.44075 192.198061 
L 251.94125 190.834368 
L 252.25975 189.327214 
L 252.475875 187.170473 
L 252.62375 183.009823 
L 252.71475 172.419308 
L 252.783 120.291295 
L 252.839875 81.911772 
L 252.908125 102.131933 
L 253.203875 223.56662 
L 253.26075 222.352353 
L 253.909125 202.83127 
L 254.250375 199.825863 
L 254.659875 198.075296 
L 255.228625 196.644567 
L 256.138625 195.015945 
L 257.81075 192.090777 
L 258.299875 190.70679 
L 258.607 189.164791 
L 258.81175 186.969663 
L 258.94825 182.949669 
L 259.03925 172.103015 
L 259.1075 118.595687 
L 259.164375 81.898829 
L 259.22125 97.500027 
L 259.528375 223.577695 
L 259.596625 221.908063 
L 260.17675 203.620339 
L 260.518 200.185539 
L 260.916125 198.312841 
L 261.45075 196.879772 
L 262.281125 195.338836 
L 264.260375 191.85528 
L 264.704 190.498706 
L 264.99975 188.843277 
L 265.193125 186.393325 
L 265.31825 181.754478 
L 265.397875 169.574414 
L 265.4775 95.365182 
L 265.511625 81.879905 
L 265.579875 101.33606 
L 265.875625 223.589188 
L 265.9325 222.431101 
L 266.59225 202.727489 
L 266.9335 199.794931 
L 267.343 198.076414 
L 267.91175 196.664395 
L 268.82175 195.053472 
L 270.528 192.105202 
L 271.017125 190.738594 
L 271.335625 189.14878 
L 271.540375 186.929264 
L 271.676875 182.809697 
L 271.767875 171.35467 
L 271.836125 114.844084 
L 271.893 81.957087 
L 271.949875 98.684232 
L 272.257 223.591512 
L 272.32525 221.825094 
L 272.894 203.770928 
L 273.23525 200.266469 
L 273.633375 198.37178 
L 274.156625 196.959886 
L 274.96425 195.456979 
L 277.068625 191.77286 
L 277.500875 190.414517 
L 277.78525 188.769567 
L 277.978625 186.200648 
L 278.10375 181.071981 
L 278.183375 165.983605 
L 278.28575 81.909065 
L 278.37675 111.429931 
L 278.64975 223.604763 
L 278.69525 222.878404 
L 279.480125 201.518575 
L 279.844125 199.132267 
L 280.299125 197.591496 
L 280.958875 196.178914 
L 282.164625 194.212228 
L 283.279375 192.259402 
L 283.79125 190.913982 
L 284.121125 189.412366 
L 284.33725 187.364526 
L 284.485125 183.60978 
L 284.576125 175.08737 
L 284.644375 135.976027 
L 284.712625 81.800061 
L 284.780875 101.800155 
L 285.076625 223.62146 
L 285.1335 222.423598 
L 285.781875 202.886996 
L 286.123125 199.888826 
L 286.532625 198.150745 
L 287.09 196.761366 
L 287.97725 195.194139 
L 289.82 192.050048 
L 290.29775 190.701275 
L 290.604875 189.161625 
L 290.809625 186.95694 
L 290.946125 182.883404 
L 291.037125 171.688099 
L 291.105375 116.314137 
L 291.16225 81.842453 
L 291.219125 98.123079 
L 291.52625 223.625682 
L 291.5945 221.897264 
L 292.16325 203.814119 
L 292.5045 200.305316 
L 292.902625 198.414213 
L 293.425875 197.01018 
L 294.2335 195.520833 
L 296.4175 191.741021 
L 296.84975 190.369457 
L 297.134125 188.68057 
L 297.316125 186.216421 
L 297.44125 181.109568 
L 297.520875 166.137492 
L 297.62325 81.868792 
L 297.725625 117.004061 
L 297.98725 223.6312 
L 298.03275 222.915926 
L 298.817625 201.548756 
L 299.181625 199.16702 
L 299.636625 197.633473 
L 300.285 196.252131 
L 301.44525 194.375822 
L 302.651 192.317004 
L 303.17425 190.977775 
L 303.5155 189.466103 
L 303.743 187.321119 
L 303.890875 183.461255 
L 303.981875 174.413701 
L 304.050125 131.565614 
L 304.118375 81.810815 
L 304.17525 98.121579 
L 304.482375 223.642698 
L 304.550625 221.911502 
L 305.119375 203.828096 
L 305.460625 200.323158 
L 305.85875 198.436551 
L 306.382 197.038057 
L 307.189625 195.556988 
L 309.40775 191.753332 
L 309.84 190.395401 
L 310.124375 188.73532 
L 310.31775 186.102345 
L 310.442875 180.679661 
L 310.5225 163.616525 
L 310.624875 81.7473 
L 310.7045 108.18247 
L 310.988875 223.654532 
L 311.034375 222.768609 
L 311.762375 202.086696 
L 312.115 199.485277 
L 312.54725 197.888644 
L 313.150125 196.525356 
L 314.151125 194.862407 
L 315.68675 192.310529 
L 316.21 190.973823 
L 316.55125 189.461628 
L 316.77875 187.309613 
L 316.926625 183.417462 
L 317.017625 174.200046 
L 317.085875 130.169806 
L 317.154125 81.831737 
L 317.211 98.560771 
L 317.518125 223.654013 
L 317.586375 221.886607 
L 318.155125 203.825525 
L 318.496375 200.3327 
L 318.8945 198.453362 
L 319.41775 197.061121 
L 320.225375 195.588028 
L 322.489 191.72676 
L 322.92125 190.354844 
L 323.205625 188.653414 
L 323.387625 186.142564 
L 323.51275 180.818875 
L 323.592375 164.413067 
L 323.69475 81.699092 
L 323.78575 113.072514 
L 324.05875 223.670701 
L 324.10425 222.83268 
L 324.843625 201.9962 
L 325.19625 199.453748 
L 325.6285 197.882427 
L 326.24275 196.511823 
L 327.2665 194.831136 
L 328.779375 192.335464 
L 329.314 190.981859 
L 329.65525 189.479619 
L 329.88275 187.351835 
L 330.030625 183.545387 
L 330.121625 174.74679 
L 330.189875 133.562798 
L 330.258125 81.70197 
L 330.315 97.381184 
L 330.622125 223.67624 
L 330.690375 221.999238 
L 331.2705 203.704652 
L 331.61175 200.289898 
L 332.009875 198.442079 
L 332.533125 197.065239 
L 333.34075 195.603528 
L 335.61575 191.757779 
L 336.048 190.411683 
L 336.332375 188.771367 
L 336.52575 186.192703 
L 336.650875 180.993687 
L 336.7305 165.397721 
L 336.832875 81.702825 
L 336.923875 111.996916 
L 337.196875 223.681361 
L 337.242375 222.909261 
L 338.0045 201.796812 
L 338.357125 199.369544 
L 338.80075 197.814315 
L 339.426375 196.455411 
L 340.48425 194.746753 
L 341.928875 192.378287 
L 342.4635 191.054736 
L 342.80475 189.618107 
L 343.03225 187.670998 
L 343.1915 184.04873 
L 343.293875 174.766516 
L 343.362125 133.639976 
L 343.430375 81.675385 
L 343.48725 97.328854 
L 343.794375 223.68896 
L 343.862625 222.014094 
L 344.44275 203.716783 
L 344.784 200.303922 
L 345.182125 198.459077 
L 345.705375 197.086183 
L 346.513 195.630442 
L 348.822125 191.747572 
L 349.254375 190.398194 
L 349.53875 188.745246 
L 349.732125 186.121565 
L 349.85725 180.722731 
L 349.936875 163.786857 
L 350.03925 81.661044 
L 350.13025 113.679026 
L 350.40325 223.695008 
L 350.44875 222.817874 
L 351.17675 202.127798 
L 351.529375 199.533233 
L 351.961625 197.946812 
L 352.5645 196.597613 
L 353.554125 194.976567 
L 355.192125 192.312055 
L 355.715375 190.991668 
L 356.056625 189.502972 
L 356.284125 187.406128 
L 356.432 183.70484 
L 356.523 175.398184 
L 356.59125 137.70082 
L 356.6595 81.659976 
L 356.72775 100.987387 
L 357.0235 223.69944 
L 357.09175 222.146176 
L 357.68325 203.606144 
L 358.0245 200.263672 
L 358.422625 198.447062 
L 358.95725 197.063811 
L 359.77625 195.605749 
L 362.062625 191.794019 
L 362.50625 190.433648 
L 362.790625 188.818274 
L 362.984 186.311193 
L 363.109125 181.4017 
L 363.18875 167.593588 
L 363.3025 81.749194 
L 363.3935 115.113772 
L 363.6665 223.697132 
L 363.712 222.737602 
L 364.41725 202.358208 
L 364.769875 199.646873 
L 365.19075 198.050591 
L 365.78225 196.697634 
L 366.73775 195.118067 
L 368.500875 192.264711 
L 369.024125 190.920419 
L 369.354 189.441108 
L 369.570125 187.425895 
L 369.718 183.761643 
L 369.809 175.622674 
L 369.87725 139.141162 
L 369.9455 81.681212 
L 370.01375 100.417315 
L 370.3095 223.706179 
L 370.37775 222.200297 
L 370.980625 203.468072 
L 371.321875 200.210462 
L 371.72 198.427312 
L 372.254625 197.059741 
L 373.073625 195.611885 
L 375.371375 191.801982 
L 375.815 190.450377 
L 376.099375 188.852954 
L 376.29275 186.398655 
L 376.417875 181.697306 
L 376.4975 169.092797 
L 376.61125 81.607284 
L 376.713625 118.856058 
L 376.97525 223.716492 
L 377.02075 222.875542 
L 377.760125 202.03905 
L 378.11275 199.507079 
L 378.545 197.948498 
L 379.15925 196.594777 
L 380.171625 194.960284 
L 381.79825 192.343692 
L 382.332875 191.013179 
L 382.674125 189.547423 
L 382.901625 187.509413 
L 383.0495 184.011 
L 383.1405 176.608728 
L 383.20875 145.62715 
L 383.288375 81.648904 
L 383.34525 97.799138 
L 383.652375 223.717223 
L 383.720625 221.999123 
L 384.289375 203.898826 
L 384.630625 200.404297 
L 385.017375 198.573575 
L 385.52925 197.207763 
L 386.314125 195.784811 
L 388.816625 191.590856 
L 389.226125 190.236644 
L 389.499125 188.51473 
L 389.681125 185.768527 
L 389.794875 180.404682 
L 389.8745 161.750112 
L 389.976875 81.773516 
L 390.0565 109.804242 
L 390.340875 223.710919 
L 390.386375 222.724908 
L 391.08025 202.495466 
L 391.432875 199.722703 
L 391.85375 198.107066 
L 392.433875 196.772356 
L 393.366625 195.228832 
L 395.2435 192.213191 
L 395.755375 190.882794 
L 396.08525 189.372927 
L 396.301375 187.267321 
L 396.44925 183.249896 
L 396.54025 173.34637 
L 396.6085 124.771875 
L 396.665375 81.660666 
L 396.733625 100.235333 
L 397.029375 223.722528 
L 397.097625 222.229664 
L 397.7005 203.488597 
L 398.04175 200.231933 
L 398.439875 198.452348 
L 398.9745 197.090202 
L 399.7935 195.650711 
L 402.13675 191.797777 
L 402.580375 190.448833 
L 402.86475 188.8519 
L 403.058125 186.393614 
L 403.18325 181.670268 
L 403.262875 168.93064 
L 403.376625 81.576676 
L 403.479 119.075978 
L 403.740625 223.733156 
L 403.786125 222.877238 
L 404.5255 202.050144 
L 404.878125 199.524607 
L 405.310375 197.971725 
L 405.924625 196.624635 
L 406.925625 195.017595 
L 408.59775 192.355165 
L 409.132375 191.038071 
L 409.473625 189.597156 
L 409.701125 187.623177 
L 409.849 184.337665 
L 409.951375 176.068699 
L 410.019625 142.003174 
L 410.087875 81.787355 
L 410.156125 99.249651 
L 410.451875 223.718377 
L 410.520125 222.314849 
L 411.134375 203.365207 
L 411.475625 200.183111 
L 411.87375 198.43271 
L 412.408375 197.083991 
L 413.23875 195.63521 
L 415.55925 191.847422 
L 416.002875 190.534664 
L 416.298625 188.934296 
L 416.492 186.599378 
L 416.617125 182.343676 
L 416.69675 172.075584 
L 416.765 117.798115 
L 416.821875 81.58315 
L 416.87875 97.382952 
L 417.185875 223.738895 
L 417.254125 222.05098 
L 417.83425 203.756639 
L 418.1755 200.356572 
L 418.573625 198.525688 
L 419.096875 197.169468 
L 419.893125 195.755707 
L 422.3615 191.687129 
L 422.782375 190.358137 
L 423.06675 188.668014 
L 423.24875 186.167478 
L 423.373875 180.859949 
L 423.4535 164.499165 
L 423.555875 81.552564 
L 423.646875 112.884629 
L 423.919875 223.743882 
L 423.965375 222.909123 
L 424.70475 202.067556 
L 425.057375 199.540511 
L 425.489625 197.989102 
L 426.0925 196.6662 
L 427.082125 195.07796 
L 428.811125 192.33968 
L 429.34575 191.017822 
L 429.687 189.5616 
L 429.9145 187.541691 
L 430.062375 184.097278 
L 430.16475 174.9295 
L 430.233 134.468978 
L 430.30125 81.551202 
L 430.358125 96.930009 
L 430.66525 223.746828 
L 430.7335 222.095397 
L 431.313625 203.777547 
L 431.654875 200.370247 
L 432.053 198.537884 
L 432.57625 197.182551 
L 433.3725 195.771314 
L 435.863625 191.674195 
L 436.2845 190.33803 
L 436.5575 188.725884 
L 436.7395 186.312145 
L 436.864625 181.377979 
L 436.94425 167.390707 
L 437.058 81.699202 
L 437.149 115.325839 
L 437.422 223.737919 
L 437.4675 222.762331 
L 438.161375 202.523353 
L 438.514 199.753515 
L 438.934875 198.143697 
L 439.515 196.817333 
L 440.44775 195.287522 
L 442.3815 192.221939 
L 442.893375 190.906355 
L 443.22325 189.422501 
L 443.439375 187.38177 
L 443.58725 183.607429 
L 443.67825 174.92817 
L 443.7465 134.43755 
L 443.81475 81.539775 
L 443.871625 96.928785 
L 444.17875 223.752746 
L 444.247 222.100395 
L 444.827125 203.782517 
L 445.168375 200.376591 
L 445.5665 198.545836 
L 446.08975 197.192458 
L 446.886 195.784003 
L 449.3885 191.683254 
L 449.809375 190.355246 
L 450.09375 188.66335 
L 450.27575 186.153719 
L 450.400875 180.800646 
L 450.4805 164.122734 
L 450.582875 81.533214 
L 450.673875 113.257954 
L 450.946875 223.755573 
L 450.992375 222.896852 
L 451.73175 202.0709 
L 452.084375 199.550859 
L 452.516625 198.004434 
L 453.1195 196.686531 
L 454.109125 195.105723 
L 455.860875 192.350992 
L 456.3955 191.040528 
L 456.73675 189.606301 
L 456.96425 187.643773 
L 457.112125 184.389459 
L 457.2145 176.277065 
L 457.28275 143.310377 
L 457.362375 81.686227 
L 457.41925 98.68467 
L 457.726375 223.745975 
L 457.794625 221.953932 
L 458.352 204.075861 
L 458.681875 200.584265 
L 459.068625 198.694841 
L 459.5805 197.313832 
L 460.342625 195.932393 
L 463.027125 191.4753 
L 463.42525 190.096975 
L 463.686875 188.331608 
L 463.8575 185.564787 
L 463.97125 179.630248 
L 464.0395 163.467363 
L 464.141875 81.54908 
L 464.2215 108.179716 
L 464.505875 223.758837 
L 464.551375 222.86122 
L 465.268 202.306563 
L 465.620625 199.663159 
L 466.0415 198.102495 
L 466.633 196.777616 
L 467.5885 195.232946 
L 469.465375 192.282409 
L 469.988625 190.970001 
L 470 190.932877 
L 470.170625 200.117587 
L 470.455 204.309735 
L 470.9555 208.065172 
L 471.831375 212.88004 
L 472.832375 217.198408 
L 473.878875 220.757486 
L 474.93675 223.588463 
L 476.006 225.831416 
L 477.098 227.616317 
L 478.224125 229.038894 
L 479.407125 230.180532 
L 480.681125 231.10313 
L 482.091625 231.849309 
L 483.71825 232.452595 
L 485.652 232.925745 
L 488.097625 233.285119 
L 491.441875 233.536733 
L 496.7085 233.685938 
L 508.4475 233.742346 
L 561 233.743546 
L 561 233.743546 
" clip-path="url(#p32afc5ab80)" style="fill: none; stroke: #1f77b4; stroke-width: 1.5; stroke-linecap: square"/>
   </g>
   <g id="text_1">
    <!-- 0.4 nA -->
    <g transform="translate(37.75 53.256) scale(0.2 -0.2)">
     <defs>
      <path id="DejaVuSans-30" d="M 2034 4250 
Q 1547 4250 1301 3770 
Q 1056 3291 1056 2328 
Q 1056 1369 1301 889 
Q 1547 409 2034 409 
Q 2525 409 2770 889 
Q 3016 1369 3016 2328 
Q 3016 3291 2770 3770 
Q 2525 4250 2034 4250 
z
M 2034 4750 
Q 2819 4750 3233 4129 
Q 3647 3509 3647 2328 
Q 3647 1150 3233 529 
Q 2819 -91 2034 -91 
Q 1250 -91 836 529 
Q 422 1150 422 2328 
Q 422 3509 836 4129 
Q 1250 4750 2034 4750 
z
" transform="scale(0.015625)"/>
      <path id="DejaVuSans-2e" d="M 684 794 
L 1344 794 
L 1344 0 
L 684 0 
L 684 794 
z
" transform="scale(0.015625)"/>
      <path id="DejaVuSans-34" d="M 2419 4116 
L 825 1625 
L 2419 1625 
L 2419 4116 
z
M 2253 4666 
L 3047 4666 
L 3047 1625 
L 3713 1625 
L 3713 1100 
L 3047 1100 
L 3047 0 
L 2419 0 
L 2419 1100 
L 313 1100 
L 313 1709 
L 2253 4666 
z
" transform="scale(0.015625)"/>
      <path id="DejaVuSans-20" transform="scale(0.015625)"/>
      <path id="DejaVuSans-6e" d="M 3513 2113 
L 3513 0 
L 2938 0 
L 2938 2094 
Q 2938 2591 2744 2837 
Q 2550 3084 2163 3084 
Q 1697 3084 1428 2787 
Q 1159 2491 1159 1978 
L 1159 0 
L 581 0 
L 581 3500 
L 1159 3500 
L 1159 2956 
Q 1366 3272 1645 3428 
Q 1925 3584 2291 3584 
Q 2894 3584 3203 3211 
Q 3513 2838 3513 2113 
z
" transform="scale(0.015625)"/>
      <path id="DejaVuSans-41" d="M 2188 4044 
L 1331 1722 
L 3047 1722 
L 2188 4044 
z
M 1831 4666 
L 2547 4666 
L 4325 0 
L 3669 0 
L 3244 1197 
L 1141 1197 
L 716 0 
L 50 0 
L 1831 4666 
z
" transform="scale(0.015625)"/>
     </defs>
     <use xlink:href="#DejaVuSans-30"/>
     <use xlink:href="#DejaVuSans-2e" x="63.623047"/>
     <use xlink:href="#DejaVuSans-34" x="95.410156"/>
     <use xlink:href="#DejaVuSans-20" x="159.033203"/>
     <use xlink:href="#DejaVuSans-6e" x="190.820312"/>
     <use xlink:href="#DejaVuSans-41" x="254.199219"/>
    </g>
   </g>
   <g id="text_2">
    <!-- Chiovini 2014 -->
    <g transform="translate(212.476406 31.56) scale(0.22 -0.22)">
     <defs>
      <path id="DejaVuSans-43" d="M 4122 4306 
L 4122 3641 
Q 3803 3938 3442 4084 
Q 3081 4231 2675 4231 
Q 1875 4231 1450 3742 
Q 1025 3253 1025 2328 
Q 1025 1406 1450 917 
Q 1875 428 2675 428 
Q 3081 428 3442 575 
Q 3803 722 4122 1019 
L 4122 359 
Q 3791 134 3420 21 
Q 3050 -91 2638 -91 
Q 1578 -91 968 557 
Q 359 1206 359 2328 
Q 359 3453 968 4101 
Q 1578 4750 2638 4750 
Q 3056 4750 3426 4639 
Q 3797 4528 4122 4306 
z
" transform="scale(0.015625)"/>
      <path id="DejaVuSans-68" d="M 3513 2113 
L 3513 0 
L 2938 0 
L 2938 2094 
Q 2938 2591 2744 2837 
Q 2550 3084 2163 3084 
Q 1697 3084 1428 2787 
Q 1159 2491 1159 1978 
L 1159 0 
L 581 0 
L 581 4863 
L 1159 4863 
L 1159 2956 
Q 1366 3272 1645 3428 
Q 1925 3584 2291 3584 
Q 2894 3584 3203 3211 
Q 3513 2838 3513 2113 
z
" transform="scale(0.015625)"/>
      <path id="DejaVuSans-69" d="M 603 3500 
L 1178 3500 
L 1178 0 
L 603 0 
L 603 3500 
z
M 603 4863 
L 1178 4863 
L 1178 4134 
L 603 4134 
L 603 4863 
z
" transform="scale(0.015625)"/>
      <path id="DejaVuSans-6f" d="M 1959 3097 
Q 1497 3097 1228 2736 
Q 959 2375 959 1747 
Q 959 1119 1226 758 
Q 1494 397 1959 397 
Q 2419 397 2687 759 
Q 2956 1122 2956 1747 
Q 2956 2369 2687 2733 
Q 2419 3097 1959 3097 
z
M 1959 3584 
Q 2709 3584 3137 3096 
Q 3566 2609 3566 1747 
Q 3566 888 3137 398 
Q 2709 -91 1959 -91 
Q 1206 -91 779 398 
Q 353 888 353 1747 
Q 353 2609 779 3096 
Q 1206 3584 1959 3584 
z
" transform="scale(0.015625)"/>
      <path id="DejaVuSans-76" d="M 191 3500 
L 800 3500 
L 1894 563 
L 2988 3500 
L 3597 3500 
L 2284 0 
L 1503 0 
L 191 3500 
z
" transform="scale(0.015625)"/>
      <path id="DejaVuSans-32" d="M 1228 531 
L 3431 531 
L 3431 0 
L 469 0 
L 469 531 
Q 828 903 1448 1529 
Q 2069 2156 2228 2338 
Q 2531 2678 2651 2914 
Q 2772 3150 2772 3378 
Q 2772 3750 2511 3984 
Q 2250 4219 1831 4219 
Q 1534 4219 1204 4116 
Q 875 4013 500 3803 
L 500 4441 
Q 881 4594 1212 4672 
Q 1544 4750 1819 4750 
Q 2544 4750 2975 4387 
Q 3406 4025 3406 3419 
Q 3406 3131 3298 2873 
Q 3191 2616 2906 2266 
Q 2828 2175 2409 1742 
Q 1991 1309 1228 531 
z
" transform="scale(0.015625)"/>
      <path id="DejaVuSans-31" d="M 794 531 
L 1825 531 
L 1825 4091 
L 703 3866 
L 703 4441 
L 1819 4666 
L 2450 4666 
L 2450 531 
L 3481 531 
L 3481 0 
L 794 0 
L 794 531 
z
" transform="scale(0.015625)"/>
     </defs>
     <use xlink:href="#DejaVuSans-43"/>
     <use xlink:href="#DejaVuSans-68" x="69.824219"/>
     <use xlink:href="#DejaVuSans-69" x="133.203125"/>
     <use xlink:href="#DejaVuSans-6f" x="160.986328"/>
     <use xlink:href="#DejaVuSans-76" x="222.167969"/>
     <use xlink:href="#DejaVuSans-69" x="281.347656"/>
     <use xlink:href="#DejaVuSans-6e" x="309.130859"/>
     <use xlink:href="#DejaVuSans-69" x="372.509766"/>
     <use xlink:href="#DejaVuSans-20" x="400.292969"/>
     <use xlink:href="#DejaVuSans-32" x="432.080078"/>
     <use xlink:href="#DejaVuSans-30" x="495.703125"/>
     <use xlink:href="#DejaVuSans-31" x="559.326172"/>
     <use xlink:href="#DejaVuSans-34" x="622.949219"/>
    </g>
   </g>
   <g id="patch_2">
    <path d="M 406.3 273 
L 424.5 273 
L 424.5 37.56 
L 406.3 37.56 
L 406.3 273 
z
" clip-path="url(#p32afc5ab80)" style="fill: none; opacity: 0.5; stroke: #000000; stroke-linejoin: miter"/>
   </g>
   <g id="patch_3">
    <path d="M 561 214.14 
Q 492.75 243.57 424.5 273 
" style="fill: none; opacity: 0.5; stroke: #000000; stroke-linecap: round"/>
   </g>
   <g id="patch_4">
    <path d="M 561 72.876 
Q 492.75 55.218 424.5 37.56 
" style="fill: none; opacity: 0.5; stroke: #000000; stroke-linecap: round"/>
   </g>
   <g id="axes_2">
    <g id="patch_5">
     <path d="M 500.94 214.14 
L 561 214.14 
L 561 72.876 
L 500.94 72.876 
z
" style="fill: #ffffff"/>
    </g>
    <g id="matplotlib.axis_1">
     <g id="xtick_1"/>
     <g id="xtick_2"/>
     <g id="xtick_3"/>
    </g>
    <g id="matplotlib.axis_2">
     <g id="ytick_1"/>
     <g id="ytick_2"/>
     <g id="ytick_3"/>
     <g id="ytick_4"/>
     <g id="ytick_5"/>
     <g id="ytick_6"/>
    </g>
    <g id="line2d_2">
     <path d="M 500.902463 167.938207 
L 506.0451 166.530571 
L 508.860413 165.626165 
L 510.324375 164.941086 
L 511.225275 164.285128 
L 511.825875 163.567906 
L 512.238788 162.720872 
L 512.539088 161.609245 
L 512.764313 159.998597 
L 512.952 157.025131 
L 513.10215 150.47593 
L 513.214763 135.541904 
L 513.439988 99.412413 
L 513.477525 99.427301 
L 513.590138 104.289118 
L 514.040588 143.599813 
L 514.60365 184.463496 
L 514.678725 184.570635 
L 514.716263 184.492219 
L 514.90395 183.472817 
L 516.2553 174.482438 
L 516.818363 172.554935 
L 517.418963 171.272132 
L 518.094638 170.36813 
L 518.882925 169.688437 
L 519.971513 169.062881 
L 521.585625 168.414966 
L 524.325863 167.58534 
L 531.082613 165.616384 
L 532.546575 164.927025 
L 533.409938 164.298018 
L 534.010538 163.589572 
L 534.42345 162.758514 
L 534.72375 161.678352 
L 534.948975 160.135458 
L 535.136663 157.352392 
L 535.286813 151.447461 
L 535.399425 138.25465 
L 535.662188 99.28989 
L 535.737263 101.384908 
L 535.962488 118.641974 
L 536.750775 184.061466 
L 536.863388 184.583337 
L 536.900925 184.530691 
L 537.051075 183.820214 
L 538.702725 173.520639 
L 539.265788 171.950633 
L 539.866388 170.891872 
L 540.5796 170.089991 
L 541.4805 169.432844 
L 542.719238 168.821264 
L 544.671188 168.128103 
L 548.312325 167.110739 
L 552.779288 165.812863 
L 554.468475 165.097311 
L 555.481988 164.435074 
L 556.120125 163.76166 
L 556.570575 162.96229 
L 556.908413 161.881876 
L 557.171175 160.194842 
L 557.358863 157.491019 
L 557.509013 151.845865 
L 557.621625 139.377258 
L 557.884388 99.271538 
L 557.921925 99.774462 
L 558.072075 108.278696 
L 559.085588 184.586329 
L 559.160663 184.438621 
L 559.385888 183.074366 
L 560.512013 175.265217 
L 561 173.288831 
L 561 173.288831 
" clip-path="url(#pf09b6f7cd4)" style="fill: none; stroke: #1f77b4; stroke-width: 1.5; stroke-linecap: square"/>
    </g>
    <g id="patch_6">
     <path d="M 500.94 214.14 
L 500.94 72.876 
" style="fill: none; stroke: #000000; stroke-width: 0.8; stroke-linejoin: miter; stroke-linecap: square"/>
    </g>
    <g id="patch_7">
     <path d="M 500.94 214.14 
L 561 214.14 
" style="fill: none; stroke: #000000; stroke-width: 0.8; stroke-linejoin: miter; stroke-linecap: square"/>
    </g>
   </g>
  </g>
 </g>
 <defs>
  <clipPath id="p32afc5ab80">
   <rect x="15" y="37.56" width="546" height="235.44"/>
  </clipPath>
  <clipPath id="pf09b6f7cd4">
   <rect x="500.94" y="72.876" width="60.06" height="141.264"/>
  </clipPath>
 </defs>
</svg>
