<?xml version="1.0" encoding="utf-8" standalone="no"?>
<!DOCTYPE svg PUBLIC "-//W3C//DTD SVG 1.1//EN"
  "http://www.w3.org/Graphics/SVG/1.1/DTD/svg11.dtd">
<svg xmlns:xlink="http://www.w3.org/1999/xlink" width="1440pt" height="576pt" viewBox="0 0 1440 576" xmlns="http://www.w3.org/2000/svg" version="1.1">
 <metadata>
  <rdf:RDF xmlns:dc="http://purl.org/dc/elements/1.1/" xmlns:cc="http://creativecommons.org/ns#" xmlns:rdf="http://www.w3.org/1999/02/22-rdf-syntax-ns#">
   <cc:Work>
    <dc:type rdf:resource="http://purl.org/dc/dcmitype/StillImage"/>
    <dc:date>2024-09-24T13:38:13.852598</dc:date>
    <dc:format>image/svg+xml</dc:format>
    <dc:creator>
     <cc:Agent>
      <dc:title>Matplotlib v3.7.4, https://matplotlib.org/</dc:title>
     </cc:Agent>
    </dc:creator>
   </cc:Work>
  </rdf:RDF>
 </metadata>
 <defs>
  <style type="text/css">*{stroke-linejoin: round; stroke-linecap: butt}</style>
 </defs>
 <g id="figure_1">
  <g id="patch_1">
   <path d="M 0 576 
L 1440 576 
L 1440 0 
L 0 0 
z
" style="fill: #ffffff"/>
  </g>
  <g id="axes_1">
   <g id="line2d_1">
    <path d="M 230.727273 488.792414 
L 233.517273 487.83575 
L 236.603182 487.017546 
L 240.154091 486.311864 
L 244.339091 485.714302 
L 249.411818 485.223512 
L 255.816136 484.838171 
L 264.418636 484.557224 
L 277.354091 484.378038 
L 302.273864 484.294952 
L 399.839318 484.174038 
L 401.783864 474.791216 
L 406.581818 452.279273 
L 407.575227 446.045824 
L 408.336136 439.837201 
L 408.927955 433.170718 
L 409.392955 425.403561 
L 409.752273 415.588988 
L 410.005909 402.789397 
L 410.196136 380.653104 
L 410.301818 343.70072 
L 410.428636 170.907389 
L 410.555455 89.385803 
L 410.597727 93.874823 
L 410.724545 164.740563 
L 411.168409 428.224514 
L 411.443182 473.175433 
L 411.717955 487.37798 
L 411.992727 491.682364 
L 412.204091 492.459434 
L 412.330909 492.431158 
L 412.521136 492.010058 
L 412.922727 490.409912 
L 414.423409 482.967769 
L 416.685 472.406492 
L 420.489545 454.891987 
L 421.609773 448.458176 
L 422.455227 442.280011 
L 423.110455 435.815953 
L 423.617727 428.614379 
L 424.019318 419.671123 
L 424.315227 408.033481 
L 424.526591 390.59323 
L 424.653409 363.54331 
L 424.759091 275.279956 
L 424.949318 89.386476 
L 424.970455 90.187409 
L 425.055 121.553856 
L 425.689091 455.523738 
L 425.963864 481.755461 
L 426.238636 490.053746 
L 426.492273 492.232195 
L 426.661364 492.471392 
L 426.788182 492.323016 
L 427.041818 491.566241 
L 427.633636 488.877472 
L 431.015455 472.682565 
L 434.925682 454.661762 
L 436.024773 448.310558 
L 436.849091 442.265375 
L 437.504318 435.795587 
L 438.011591 428.58403 
L 438.413182 419.620748 
L 438.709091 407.938107 
L 438.920455 390.368273 
L 439.047273 362.906188 
L 439.152955 272.485512 
L 439.343182 89.328388 
L 439.364318 90.395181 
L 439.448864 122.579609 
L 440.082955 455.801942 
L 440.357727 481.843764 
L 440.6325 490.080582 
L 440.886136 492.238151 
L 441.055227 492.470889 
L 441.182045 492.319611 
L 441.435682 491.559691 
L 442.0275 488.868882 
L 445.409318 472.674785 
L 449.319545 454.65265 
L 450.418636 448.299318 
L 451.242955 442.250728 
L 451.898182 435.775192 
L 452.405455 428.553616 
L 452.807045 419.570204 
L 453.102955 407.842194 
L 453.314318 390.140884 
L 453.441136 362.255593 
L 453.546818 269.646187 
L 453.737045 89.292919 
L 453.758182 90.623898 
L 453.842727 123.618101 
L 454.455682 452.57112 
L 454.730455 480.819219 
L 455.005227 489.767669 
L 455.258864 492.166365 
L 455.449091 492.470345 
L 455.575909 492.316179 
L 455.829545 491.55313 
L 456.421364 488.860291 
L 459.803182 472.667005 
L 463.713409 454.643537 
L 464.8125 448.288073 
L 465.636818 442.23607 
L 466.292045 435.754774 
L 466.799318 428.523151 
L 467.200909 419.519515 
L 467.496818 407.745793 
L 467.708182 389.911156 
L 467.835 361.591505 
L 467.940682 266.766454 
L 468.130909 89.28 
L 468.152045 90.873318 
L 468.257727 138.33131 
L 468.786136 440.325841 
L 469.060909 476.957084 
L 469.335682 488.566974 
L 469.589318 491.856322 
L 469.800682 492.469777 
L 469.9275 492.387658 
L 470.138864 491.849333 
L 470.603864 489.880898 
L 475.951364 464.871719 
L 477.959318 455.403524 
L 479.100682 448.952808 
L 479.946136 442.92399 
L 480.6225 436.466656 
L 481.150909 429.22113 
L 481.5525 420.666778 
L 481.869545 408.795978 
L 482.080909 392.352042 
L 482.228864 360.913486 
L 482.334545 263.849239 
L 482.524773 89.289478 
L 482.588182 103.624339 
L 482.799545 254.872449 
L 483.137727 430.323167 
L 483.4125 473.824626 
L 483.687273 487.578678 
L 483.940909 491.574156 
L 484.152273 492.438802 
L 484.279091 492.439371 
L 484.448182 492.104495 
L 484.8075 490.750948 
L 485.885455 485.446416 
L 488.168182 474.556838 
L 492.775909 453.152487 
L 493.811591 446.85622 
L 494.593636 440.724644 
L 495.206591 434.15451 
L 495.692727 426.494065 
L 496.073182 416.740561 
L 496.347955 403.606237 
L 496.538182 382.844465 
L 496.665 337.30902 
L 496.918636 89.321201 
L 497.003182 114.563517 
L 497.700682 462.89817 
L 497.975455 484.100967 
L 498.250227 490.756236 
L 498.482727 492.32289 
L 498.630682 492.468421 
L 498.651818 492.456296 
L 498.799773 492.210677 
L 499.116818 491.108911 
L 499.941136 487.140304 
L 502.456364 475.0293 
L 507.254318 452.676679 
L 508.268864 446.404907 
L 509.029773 440.320479 
L 509.642727 433.580855 
L 510.107727 426.037632 
L 510.467045 416.68116 
L 510.741818 403.486057 
L 510.932045 382.529793 
L 511.058864 336.033553 
L 511.3125 89.375018 
L 511.397045 115.497113 
L 512.094545 463.122533 
L 512.369318 484.172448 
L 512.644091 490.777234 
L 512.876591 492.327427 
L 513.024545 492.467684 
L 513.045682 492.455002 
L 513.214773 492.152449 
L 513.552955 490.92101 
L 514.504091 486.279289 
L 516.871364 474.92519 
L 521.627045 452.784263 
L 522.641591 446.540201 
L 523.423636 440.304365 
L 524.036591 433.557848 
L 524.501591 426.002496 
L 524.860909 416.621561 
L 525.135682 403.365134 
L 525.325909 382.21101 
L 525.452727 334.723238 
L 525.706364 89.450777 
L 525.790909 116.444279 
L 526.467273 460.51971 
L 526.742045 483.343542 
L 527.016818 490.532055 
L 527.270455 492.331885 
L 527.418409 492.4669 
L 527.439545 492.453663 
L 527.608636 492.147848 
L 527.946818 490.913483 
L 528.897955 486.270543 
L 531.265227 474.91729 
L 536.020909 452.774649 
L 537.035455 446.528124 
L 537.8175 440.288238 
L 538.430455 433.534812 
L 538.895455 425.96729 
L 539.254773 416.561764 
L 539.529545 403.243462 
L 539.719773 381.888025 
L 539.825455 347.570075 
L 539.931136 214.501735 
L 540.100227 89.548327 
L 540.163636 106.66673 
L 540.417273 291.276219 
L 540.734318 437.435241 
L 541.009091 476.050048 
L 541.283864 488.281732 
L 541.5375 491.776835 
L 541.748864 492.463694 
L 541.875682 492.405777 
L 542.087045 491.890609 
L 542.530909 490.040218 
L 550.943182 449.688518 
L 551.830909 443.535206 
L 552.507273 437.306869 
L 553.056818 430.121934 
L 553.479545 421.564261 
L 553.796591 410.486149 
L 554.029091 393.786847 
L 554.177045 365.48479 
L 554.282727 283.844176 
L 554.494091 89.667516 
L 554.578636 118.378501 
L 555.233864 457.956716 
L 555.508636 482.528269 
L 555.783409 490.287735 
L 556.037045 492.282791 
L 556.206136 492.465191 
L 556.354091 492.244474 
L 556.65 491.255373 
L 557.389773 487.74383 
L 560.074091 474.805377 
L 564.7875 452.872326 
L 565.802045 446.650706 
L 566.584091 440.451699 
L 567.197045 433.767814 
L 567.683182 425.896666 
L 568.0425 416.441571 
L 568.317273 402.997837 
L 568.5075 381.22907 
L 568.613182 345.534484 
L 568.718864 208.54039 
L 568.866818 89.592041 
L 568.887955 89.808193 
L 568.9725 119.365144 
L 569.627727 458.217239 
L 569.9025 482.611089 
L 570.177273 490.312681 
L 570.430909 492.287991 
L 570.578864 492.472292 
L 570.6 492.464267 
L 570.747955 492.240438 
L 571.043864 491.248274 
L 571.783636 487.735102 
L 574.467955 474.797485 
L 579.160227 452.979272 
L 580.174773 446.784617 
L 580.956818 440.629703 
L 581.569773 434.020334 
L 582.055909 426.287638 
L 582.436364 416.381173 
L 582.711136 402.873867 
L 582.901364 380.892905 
L 583.007045 344.477493 
L 583.133864 172.70856 
L 583.260682 89.483984 
L 583.302955 93.595505 
L 583.429773 163.78858 
L 583.873636 427.861988 
L 584.148409 473.056224 
L 584.423182 487.335122 
L 584.697955 491.666006 
L 584.909318 492.451539 
L 585.036136 492.426105 
L 585.226364 492.007596 
L 585.627955 490.409808 
L 587.128636 482.968949 
L 589.390227 472.407753 
L 593.194773 454.893545 
L 594.315 448.460109 
L 595.160455 442.282549 
L 595.815682 435.81949 
L 596.322955 428.619652 
L 596.724545 419.679876 
L 597.020455 408.050037 
L 597.231818 390.632174 
L 597.358636 363.652973 
L 597.464318 275.762133 
L 597.654545 89.398971 
L 597.675682 90.153404 
L 597.760227 121.376464 
L 598.394318 455.475054 
L 598.669091 481.740002 
L 598.943864 490.049038 
L 599.1975 492.231139 
L 599.366591 492.471466 
L 599.493409 492.323597 
L 599.747045 491.567372 
L 600.338864 488.878961 
L 603.720682 472.683915 
L 607.630909 454.663342 
L 608.73 448.312507 
L 609.554318 442.267914 
L 610.209545 435.799121 
L 610.716818 428.589299 
L 611.118409 419.629499 
L 611.414318 407.954691 
L 611.625682 390.407474 
L 611.7525 363.017676 
L 611.858182 272.973613 
L 612.048409 89.336845 
L 612.069545 90.357634 
L 612.154091 122.400734 
L 612.788182 455.753808 
L 613.062955 481.828484 
L 613.337727 490.075939 
L 613.591364 492.237123 
L 613.760455 492.470978 
L 613.887273 492.320203 
L 614.140909 491.560827 
L 614.732727 488.870372 
L 618.114545 472.676134 
L 622.024773 454.654231 
L 623.123864 448.301268 
L 623.948182 442.253268 
L 624.603409 435.77873 
L 625.110682 428.558895 
L 625.512273 419.57898 
L 625.808182 407.858863 
L 626.019545 390.180485 
L 626.146364 362.369378 
L 626.252045 270.141573 
L 626.442273 89.29745 
L 626.463409 90.582745 
L 626.547955 123.437142 
L 627.160909 452.518839 
L 627.435682 480.802658 
L 627.710455 489.762586 
L 627.964091 492.165161 
L 628.154318 492.470442 
L 628.281136 492.316776 
L 628.534773 491.554269 
L 629.126591 488.861781 
L 632.508409 472.668354 
L 636.418636 454.645118 
L 637.517727 448.290024 
L 638.342045 442.238613 
L 638.997273 435.758317 
L 639.504545 428.528438 
L 639.906136 419.528316 
L 640.202045 407.762547 
L 640.413409 389.951166 
L 640.540227 361.707661 
L 640.645909 267.268645 
L 640.836136 89.280631 
L 640.857273 90.828585 
L 640.941818 124.485486 
L 641.554773 452.819378 
L 641.829545 480.897865 
L 642.104318 489.791796 
L 642.357955 492.172066 
L 642.548182 492.469858 
L 642.696136 492.268753 
L 642.970909 491.383669 
L 643.647273 488.221725 
L 646.564091 474.183004 
L 651.023864 453.508941 
L 652.059545 447.301264 
L 652.862727 441.123541 
L 653.496818 434.449495 
L 653.982955 426.944766 
L 654.363409 417.515111 
L 654.638182 405.143183 
L 654.828409 386.691043 
L 654.955227 351.507319 
L 655.060909 227.216766 
L 655.23 89.286236 
L 655.251136 91.095004 
L 655.356818 139.312483 
L 655.885227 440.649103 
L 656.16 477.058622 
L 656.434773 488.598847 
L 656.688409 491.865091 
L 656.899773 492.470292 
L 657.026591 492.385449 
L 657.237955 491.844517 
L 657.702955 489.874058 
L 663.008182 465.053879 
L 665.037273 455.504806 
L 666.178636 449.076914 
L 667.045227 442.912257 
L 667.721591 436.450394 
L 668.25 429.196882 
L 668.651591 420.627402 
L 668.968636 408.72026 
L 669.18 392.180453 
L 669.327955 360.342215 
L 669.433636 261.411885 
L 669.623864 89.314112 
L 669.687273 104.232034 
L 669.898636 255.977152 
L 670.236818 430.707733 
L 670.511591 473.944761 
L 670.786364 487.616725 
L 671.04 491.58534 
L 671.251364 492.440466 
L 671.378182 492.437909 
L 671.547273 492.10049 
L 671.906591 490.744586 
L 672.984545 485.439213 
L 675.267273 474.550327 
L 679.875 453.144628 
L 680.910682 446.846369 
L 681.692727 440.711591 
L 682.305682 434.136084 
L 682.791818 426.46577 
L 683.172273 416.691476 
L 683.447045 403.506952 
L 683.637273 382.584658 
L 683.764091 336.257217 
L 684.017727 89.364108 
L 684.102273 115.334226 
L 684.799773 463.08374 
L 685.074545 484.160088 
L 685.349318 490.773605 
L 685.581818 492.326645 
L 685.729773 492.467816 
L 685.750909 492.455229 
L 685.92 492.153245 
L 686.258182 490.922314 
L 687.209318 486.280806 
L 689.576591 474.92656 
L 694.332273 452.78593 
L 695.346818 446.542295 
L 696.128864 440.307161 
L 696.741818 433.56184 
L 697.206818 426.008594 
L 697.566136 416.631911 
L 697.840909 403.386159 
L 698.031136 382.266594 
L 698.157955 334.953027 
L 698.411591 89.436072 
L 698.496136 116.279053 
L 699.1725 460.477605 
L 699.447273 483.33014 
L 699.722045 490.528062 
L 699.975682 492.331117 
L 700.123636 492.46704 
L 700.144773 492.453898 
L 700.313864 492.148648 
L 700.652045 490.914789 
L 701.603182 486.27206 
L 703.970455 474.91866 
L 708.726136 452.776316 
L 709.740682 446.530219 
L 710.522727 440.291036 
L 711.135682 433.53881 
L 711.600682 425.9734 
L 711.96 416.572149 
L 712.234773 403.264617 
L 712.425 381.944344 
L 712.551818 333.613042 
L 712.805455 89.529854 
L 712.89 117.237281 
L 713.566364 460.719655 
L 713.841136 483.407187 
L 714.115909 490.551004 
L 714.369545 492.33551 
L 714.5175 492.466217 
L 714.538636 492.452523 
L 714.707727 492.144026 
L 715.045909 490.907256 
L 715.997045 486.263314 
L 718.364318 474.910761 
L 723.12 452.766699 
L 724.134545 446.518136 
L 724.916591 440.274898 
L 725.529545 433.51575 
L 725.994545 425.938136 
L 726.353864 416.512187 
L 726.628636 403.14232 
L 726.818864 381.617814 
L 726.924545 346.741152 
L 727.030227 212.025407 
L 727.199318 89.645301 
L 727.262727 107.326847 
L 727.516364 292.28786 
L 727.833409 437.776248 
L 728.108182 476.156969 
L 728.382955 488.315402 
L 728.636591 491.786309 
L 728.847955 492.464545 
L 728.974773 492.403786 
L 729.186136 491.885901 
L 729.63 490.033443 
L 738.042273 449.679699 
L 738.93 443.523804 
L 739.606364 437.291316 
L 740.155909 430.098885 
L 740.578636 421.526833 
L 740.895682 410.41698 
L 741.128182 393.626289 
L 741.276136 364.99081 
L 741.381818 281.661681 
L 741.572045 89.613137 
L 741.593182 89.782263 
L 741.677727 119.193116 
L 742.332955 458.172195 
L 742.607727 482.596768 
L 742.8825 490.308369 
L 743.136136 492.287095 
L 743.284091 492.472354 
L 743.305227 492.464431 
L 743.453182 492.24114 
L 743.749091 491.249506 
L 744.488864 487.736616 
L 747.173182 474.798854 
L 751.865455 452.980929 
L 752.88 446.78669 
L 753.662045 440.632454 
L 754.275 434.024226 
L 754.761136 426.293639 
L 755.141591 416.391662 
L 755.416364 402.895422 
L 755.606591 380.951531 
L 755.712273 344.662736 
L 755.839091 173.135091 
L 755.965909 89.501068 
L 756.008182 93.523106 
L 756.135 163.55853 
L 756.578864 427.777838 
L 756.853636 473.029965 
L 757.128409 487.326793 
L 757.403182 491.663808 
L 757.614545 492.45126 
L 757.741364 492.426458 
L 757.931591 492.008509 
L 758.333182 490.41119 
L 759.833864 482.97043 
L 762.095455 472.4091 
L 765.9 454.895116 
L 767.020227 448.462047 
L 767.865682 442.285086 
L 768.520909 435.82302 
L 769.028182 428.62491 
L 769.429773 419.688598 
L 769.725682 408.066524 
L 769.937045 390.670913 
L 770.063864 363.761856 
L 770.169545 276.241126 
L 770.359773 89.41207 
L 770.380909 90.120121 
L 770.465455 121.200079 
L 771.099545 455.426501 
L 771.374318 481.724592 
L 771.649091 490.044351 
L 771.902727 492.230093 
L 772.071818 492.471545 
L 772.198636 492.324183 
L 772.452273 491.568506 
L 773.044091 488.88045 
L 776.425909 472.685264 
L 780.336136 454.664921 
L 781.435227 448.314455 
L 782.259545 442.270453 
L 782.914773 435.802655 
L 783.422045 428.594567 
L 783.823636 419.638246 
L 784.119545 407.971261 
L 784.330909 390.446605 
L 784.457727 363.128773 
L 784.563409 273.460402 
L 784.753636 89.345986 
L 784.774773 90.320714 
L 784.859318 122.222224 
L 785.493409 455.705612 
L 785.768182 481.813185 
L 786.042955 490.07129 
L 786.296591 492.236091 
L 786.465682 492.471066 
L 786.5925 492.320794 
L 786.846136 491.561963 
L 787.437955 488.871861 
L 790.819773 472.677484 
L 794.73 454.655811 
L 795.829091 448.303217 
L 796.653409 442.255809 
L 797.308636 435.782268 
L 797.815909 428.564171 
L 798.2175 419.587751 
L 798.513409 407.875516 
L 798.724773 390.220017 
L 798.851591 362.482759 
L 798.957273 270.635728 
L 799.1475 89.302659 
L 799.168636 90.542215 
L 799.253182 123.256541 
L 799.866136 452.466492 
L 800.140909 480.786077 
L 800.415682 489.757497 
L 800.669318 492.163953 
L 800.859545 492.470539 
L 800.986364 492.317373 
L 801.24 491.555407 
L 801.831818 488.863271 
L 805.213636 472.669703 
L 809.123864 454.646698 
L 810.222955 448.291974 
L 811.047273 442.241155 
L 811.7025 435.761859 
L 812.209773 428.533724 
L 812.611364 419.537113 
L 812.907273 407.779286 
L 813.118636 389.991105 
L 813.245455 361.8234 
L 813.351136 267.769691 
L 813.541364 89.281936 
L 813.5625 90.784471 
L 813.647045 124.30283 
L 814.26 452.767416 
L 814.534773 480.881403 
L 814.809545 489.786747 
L 815.063182 492.170875 
L 815.253409 492.469963 
L 815.380227 492.31392 
L 815.633864 491.548837 
L 816.225682 488.854679 
L 819.586364 472.756656 
L 823.517727 454.637583 
L 824.616818 448.280726 
L 825.441136 442.226491 
L 826.096364 435.741427 
L 826.603636 428.503223 
L 827.005227 419.486329 
L 827.301136 407.682563 
L 827.5125 389.759826 
L 827.639318 361.150263 
L 827.745 264.86513 
L 827.935227 89.283663 
L 827.998636 103.372648 
L 828.21 254.408212 
L 828.548182 430.161091 
L 828.822955 473.774 
L 829.097727 487.562643 
L 829.351364 491.569436 
L 829.562727 492.43809 
L 829.689545 492.439977 
L 829.858636 492.106171 
L 830.217955 490.753617 
L 831.295909 485.449438 
L 833.578636 474.559571 
L 838.186364 453.155784 
L 839.222045 446.860353 
L 840.004091 440.730118 
L 840.617045 434.162236 
L 841.103182 426.505924 
L 841.483636 416.761119 
L 841.758409 403.64775 
L 841.948636 382.952666 
L 842.075455 337.743483 
L 842.329091 89.307688 
L 842.413636 114.242905 
L 843.132273 465.44939 
L 843.407045 484.913975 
L 843.681818 490.993209 
L 843.914318 492.371596 
L 844.041136 492.468666 
L 844.062273 492.456735 
L 844.210227 492.212149 
L 844.527273 491.111442 
L 845.351591 487.14334 
L 847.866818 475.032043 
L 852.664773 452.680024 
L 853.679318 446.409119 
L 854.440227 440.326065 
L 855.053182 433.588828 
L 855.518182 426.049802 
L 855.8775 416.701786 
L 856.152273 403.527825 
L 856.3425 382.639399 
L 856.469318 336.479839 
L 856.722955 89.353858 
L 856.8075 115.171747 
L 857.505 463.044898 
L 857.779773 484.147713 
L 858.054545 490.769971 
L 858.287045 492.325862 
L 858.435 492.467945 
L 858.456136 492.455456 
L 858.625227 492.15404 
L 858.963409 490.923619 
L 859.914545 486.282322 
L 862.281818 474.92793 
L 867.0375 452.787597 
L 868.052045 446.544389 
L 868.834091 440.309956 
L 869.447045 433.565832 
L 869.912045 426.014691 
L 870.271364 416.642255 
L 870.546136 403.407161 
L 870.736364 382.322052 
L 870.863182 335.18174 
L 871.116818 89.422024 
L 871.201364 116.11423 
L 871.898864 463.268192 
L 872.173636 484.218856 
L 872.448409 490.790851 
L 872.680909 492.330347 
L 872.828864 492.467178 
L 872.85 492.454132 
L 873.019091 492.149447 
L 873.357273 490.916095 
L 874.308409 486.273577 
L 876.675682 474.92003 
L 881.431364 452.777984 
L 882.445909 446.532314 
L 883.227955 440.293833 
L 883.840909 433.542806 
L 884.305909 425.979509 
L 884.665227 416.582527 
L 884.94 403.28575 
L 885.130227 382.000534 
L 885.257045 333.848046 
L 885.510682 89.512032 
L 885.595227 117.070149 
L 886.271591 460.677805 
L 886.546364 483.393865 
L 886.821136 490.547039 
L 887.074773 492.334754 
L 887.222727 492.466363 
L 887.243864 492.452765 
L 887.412955 492.144829 
L 887.751136 490.908563 
L 888.702273 486.264831 
L 891.069545 474.912131 
L 895.825227 452.768367 
L 896.839773 446.520232 
L 897.621818 440.277698 
L 898.234773 433.519751 
L 898.699773 425.944257 
L 899.059091 416.5226 
L 899.333864 403.163584 
L 899.524091 381.674754 
L 899.629773 346.916491 
L 899.735455 212.543565 
L 899.904545 89.623733 
L 899.967955 107.187471 
L 900.221591 292.075854 
L 900.538636 437.704875 
L 900.813409 476.134588 
L 901.088182 488.308355 
L 901.341818 491.784328 
L 901.553182 492.46437 
L 901.68 492.404206 
L 901.891364 491.88689 
L 902.335227 490.034865 
L 910.7475 449.68155 
L 911.635227 443.526197 
L 912.311591 437.29458 
L 912.861136 430.103723 
L 913.283864 421.534692 
L 913.600909 410.431514 
L 913.833409 393.660075 
L 913.981364 365.095114 
L 914.087045 282.122466 
L 914.277273 89.634931 
L 914.298409 89.756975 
L 914.382955 119.021472 
L 915.038182 458.127094 
L 915.312955 482.58243 
L 915.587727 490.304052 
L 915.841364 492.286197 
L 915.989318 492.472415 
L 916.010455 492.464593 
L 916.158409 492.241841 
L 916.454318 491.250737 
L 917.194091 487.738129 
L 919.878409 474.800222 
L 924.570682 452.982586 
L 925.585227 446.788762 
L 926.367273 440.635204 
L 926.980227 434.028117 
L 927.466364 426.299637 
L 927.846818 416.402145 
L 928.121591 402.916954 
L 928.311818 381.010019 
L 928.4175 344.847161 
L 928.544318 173.562905 
L 928.671136 89.518845 
L 928.713409 93.451287 
L 928.840227 163.328634 
L 929.284091 427.693581 
L 929.558864 473.003673 
L 929.833636 487.318453 
L 930.108409 491.661606 
L 930.319773 492.45098 
L 930.446591 492.426809 
L 930.636818 492.00942 
L 931.038409 490.412572 
L 932.539091 482.971911 
L 934.800682 472.410448 
L 938.605227 454.896686 
L 939.725455 448.463984 
L 940.570909 442.287623 
L 941.226136 435.82655 
L 941.733409 428.630167 
L 942.135 419.697316 
L 942.430909 408.082996 
L 942.642273 390.709585 
L 942.769091 363.870363 
L 942.874773 276.718727 
L 943.065 89.425858 
L 943.086136 90.087472 
L 943.170682 121.024067 
L 943.804773 455.377885 
L 944.079545 481.709163 
L 944.354318 490.039656 
L 944.607955 492.229043 
L 944.777045 492.471623 
L 944.903864 492.324767 
L 945.1575 491.569639 
L 945.749318 488.881939 
L 949.152273 472.591919 
L 953.020227 454.777227 
L 954.140455 448.316404 
L 954.964773 442.272991 
L 955.62 435.806189 
L 956.127273 428.599833 
L 956.528864 419.646989 
L 956.824773 407.987816 
L 957.036136 390.485668 
L 957.162955 363.239481 
L 957.268636 273.945869 
L 957.458864 89.355811 
L 957.48 90.284423 
L 957.564545 122.04408 
L 958.198636 455.657355 
L 958.473409 481.797866 
L 958.748182 490.066633 
L 959.001818 492.235057 
L 959.170909 492.471153 
L 959.297727 492.321384 
L 959.551364 491.563099 
L 960.143182 488.873351 
L 963.525 472.678833 
L 967.435227 454.657391 
L 968.534318 448.305167 
L 969.358636 442.258349 
L 970.013864 435.785805 
L 970.521136 428.569446 
L 970.922727 419.596519 
L 971.218636 407.892156 
L 971.43 390.259478 
L 971.556818 362.595739 
L 971.6625 271.128639 
L 971.852727 89.308549 
L 971.873864 90.502309 
L 971.958409 123.0763 
L 972.571364 452.414077 
L 972.846136 480.769475 
L 973.120909 489.7524 
L 973.374545 492.162743 
L 973.564773 492.470634 
L 973.691591 492.317968 
L 973.945227 491.556545 
L 974.537045 488.864761 
L 977.918864 472.671053 
L 981.829091 454.648279 
L 982.928182 448.293924 
L 983.7525 442.243697 
L 984.407727 435.7654 
L 984.915 428.539008 
L 985.316591 419.545905 
L 985.6125 407.79601 
L 985.823864 390.030972 
L 985.950682 361.938725 
L 986.056364 268.269578 
L 986.246591 89.283917 
L 986.267727 90.740977 
L 986.352273 124.120528 
L 986.965227 452.715388 
L 987.24 480.86492 
L 987.514773 489.781691 
L 987.768409 492.169682 
L 987.958636 492.470066 
L 988.085455 492.314521 
L 988.339091 491.549978 
L 988.930909 488.856169 
L 992.291591 472.758006 
L 996.222955 454.639164 
L 997.322045 448.282677 
L 998.146364 442.229035 
L 998.801591 435.744972 
L 999.308864 428.508517 
L 999.710455 419.495147 
L 1000.006364 407.699373 
L 1000.217727 389.800107 
L 1000.344545 361.268009 
L 1000.450227 265.371485 
L 1000.640455 89.281761 
L 1000.703864 103.24754 
L 1000.915227 254.175944 
L 1001.253409 430.079897 
L 1001.528182 473.74864 
L 1001.802955 487.554609 
L 1002.056591 491.567069 
L 1002.289091 492.458333 
L 1002.415909 492.416202 
L 1002.606136 491.982876 
L 1003.007727 490.372656 
L 1004.571818 482.617961 
L 1006.833409 472.088152 
L 1010.532273 455.071454 
L 1011.6525 448.679206 
L 1012.497955 442.568708 
L 1013.153182 436.216165 
L 1013.681591 428.846265 
L 1014.083182 420.054221 
L 1014.379091 408.75207 
L 1014.590455 392.25262 
L 1014.738409 360.583148 
L 1014.844091 262.437395 
L 1015.034318 89.30193 
L 1015.097727 103.97568 
L 1015.309091 255.513871 
L 1015.647273 430.546646 
L 1015.922045 473.894436 
L 1016.196818 487.600789 
L 1016.450455 491.580658 
L 1016.661818 492.439773 
L 1016.788636 492.438526 
L 1016.957727 492.102173 
L 1017.317045 490.747256 
L 1018.395 485.442236 
L 1020.677727 474.553059 
L 1025.285455 453.147926 
L 1026.321136 446.850503 
L 1027.103182 440.717069 
L 1027.716136 434.143818 
L 1028.202273 426.477649 
L 1028.582727 416.71209 
L 1028.8575 403.548676 
L 1029.047727 382.694017 
L 1029.174545 336.701424 
L 1029.428182 89.34427 
L 1029.512727 115.009679 
L 1030.210227 463.006007 
L 1030.485 484.135323 
L 1030.759773 490.766332 
L 1030.992273 492.325076 
L 1031.140227 492.468074 
L 1031.161364 492.455681 
L 1031.309318 492.208637 
L 1031.626364 491.105408 
L 1032.450682 487.136106 
L 1034.965909 475.025508 
L 1039.763864 452.672052 
L 1040.778409 446.399081 
L 1041.539318 440.312751 
L 1042.152273 433.569822 
L 1042.617273 426.020785 
L 1042.976591 416.652594 
L 1043.251364 403.428141 
L 1043.441591 382.377384 
L 1043.568409 335.409382 
L 1043.822045 89.408632 
L 1043.906591 115.949811 
L 1044.604091 463.229584 
L 1044.878864 484.206555 
L 1045.153636 490.787243 
L 1045.386136 492.329575 
L 1045.534091 492.467314 
L 1045.555227 492.454365 
L 1045.724318 492.150245 
L 1046.0625 490.9174 
L 1047.013636 486.275093 
L 1049.380909 474.9214 
L 1054.136591 452.779651 
L 1055.151136 446.534408 
L 1055.933182 440.29663 
L 1056.546136 433.546801 
L 1057.011136 425.985615 
L 1057.370455 416.5929 
L 1057.645227 403.306859 
L 1057.835455 382.056596 
L 1057.962273 334.081944 
L 1058.215909 89.494864 
L 1058.300455 116.903414 
L 1058.976818 460.635901 
L 1059.251591 483.380526 
L 1059.526364 490.543068 
L 1059.78 492.333995 
L 1059.927955 492.466507 
L 1059.949091 492.453005 
L 1060.118182 492.145632 
L 1060.456364 490.90987 
L 1061.4075 486.266347 
L 1063.774773 474.913501 
L 1068.530455 452.770035 
L 1069.545 446.522328 
L 1070.327045 440.280497 
L 1070.94 433.523751 
L 1071.405 425.950376 
L 1071.764318 416.533007 
L 1072.039091 403.184825 
L 1072.229318 381.731562 
L 1072.335 347.091072 
L 1072.440682 213.062481 
L 1072.609773 89.602813 
L 1072.673182 107.048559 
L 1072.926818 291.863716 
L 1073.243864 437.633409 
L 1073.518636 476.11218 
L 1073.793409 488.301299 
L 1074.047045 491.782344 
L 1074.258409 492.464193 
L 1074.385227 492.404625 
L 1074.596591 491.887879 
L 1075.040455 490.036286 
L 1076.329773 484.370985 
L 1077.915 484.457083 
L 1083.135682 484.421222 
L 1103.743636 484.308416 
L 1168.420909 484.282518 
L 1245.272727 484.282384 
L 1245.272727 484.282384 
" clip-path="url(#p3444c238d0)" style="fill: none; stroke: #000000; stroke-width: 1.5; stroke-linecap: square"/>
   </g>
  </g>
 </g>
 <defs>
  <clipPath id="p3444c238d0">
   <rect x="180" y="69.12" width="1116" height="443.52"/>
  </clipPath>
 </defs>
</svg>
